<?xml version="1.0" encoding="utf-8"?>
<!-- (c) ammap.com | SVG map of Anguilla - High -->
<svg xmlns="http://www.w3.org/2000/svg" xmlns:amcharts="http://amcharts.com/ammap" xmlns:xlink="http://www.w3.org/1999/xlink" version="1.1">
	<defs>
		<style type="text/css">
			.land
			{
				fill: #CCCCCC;
				fill-opacity: 1;
				stroke:white;
				stroke-opacity: 1;
				stroke-width:0.5;
			}
		</style>

		<amcharts:ammap projection="mercator" leftLongitude="-63.4908997068" topLatitude="18.6120679789" rightLongitude="-62.7956051499" bottomLatitude="18.1582899031"></amcharts:ammap>

		<!-- All areas are listed in the line below. You can use this list in your script. -->
		<!--{id:"AI-00"},{id:"AI-WE"},{id:"AI-TV"},{id:"AI-TQ"},{id:"AI-TF"},{id:"AI-ST"},{id:"AI-SO"},{id:"AI-SH"},{id:"AI-SG"},{id:"AI-NS"},{id:"AI-NH"},{id:"AI-IH"},{id:"AI-GH"},{id:"AI-EE"},{id:"AI-BP"}-->

	</defs>
	<g>
		<path id="AI-00" title="Sombrero Island, Dog Island and other Islands" class="land" d="M414.19,568.02L412.97,562.22L409.6,561.9L407.76,563.51L404.7,563.51L405.01,567.7L409.29,568.66L414.19,568.02zM396.44,560.29L388.49,557.71L385.43,557.06L379.61,555.77L376.24,556.42L380.22,558.67L384.51,562.22L390.02,562.54L396.44,560.29zM306.66,532.72L291.47,532.35L278.82,526.27L264.43,534.33L266.27,544L281.27,549.48L306.66,532.72zM0.55,0L1.91,14.11L8.89,2.05L0.55,0z"/>
		<path id="AI-WE" title="West End" class="land" d="M442.47,723.12L464.18,715.91L486.78,698.9L486.47,657.97L468.12,664.63L455.85,674.56L414.95,722.71L442.47,723.12z"/>
		<path id="AI-TV" title="The Valley" class="land" d="M605.05,612.22L584.33,594.93L573.82,610.49L565.98,619.06L606.86,626.8L611.41,617.53L605.05,612.22z"/>
		<path id="AI-TQ" title="The Quarter" class="land" d="M627.1,624.81L634.93,612.68L613.56,613.14L611.41,617.53L606.86,626.8L627.1,624.81z"/>
		<path id="AI-TF" title="The Farrington" class="land" d="M633.12,646.34L631.52,630.13L627.1,624.81L606.86,626.8L584.1,639.45L584.06,650.6L583.97,673.39L621.63,649.81L633.12,646.34z"/>
		<path id="AI-ST" title="Stoney Ground" class="land" d="M659.97,569.55L660.01,551.15L645.04,553.86L646.06,566.89L640.37,582.87L619.51,583.53L605.05,612.22L611.41,617.53L613.56,613.14L634.93,612.68L644.8,586.19L663.77,587.53L689.06,577.54L676.41,569.55L659.97,569.55z"/>
		<path id="AI-SO" title="South Hill" class="land" d="M584.1,639.45L571.45,638.79L561.04,644.27L556.28,646.78L527.05,650.62L486.47,657.97L486.78,698.9L500.69,688.44L500.64,676.73L518.34,676.73L519.61,669.41L542.37,668.74L552.48,660.09L566.12,651.19L584.1,639.45z"/>
		<path id="AI-SH" title="Sandy Hill" class="land" d="M678.31,598.18L687.16,584.2L689.06,577.54L663.77,587.53L644.8,586.19L634.93,612.68L627.1,624.81L631.52,630.13L633.12,646.34L663.11,637.29L680.56,625.73L689.69,613.75L690.32,598.18L678.31,598.18z"/>
		<path id="AI-SG" title="Sandy Ground" class="land" d="M561.04,644.27L561.53,637.18L557.75,628.06L545.14,641.85L527.05,650.62L556.28,646.78L561.04,644.27z"/>
		<path id="AI-NS" title="North Side" class="land" d="M605.05,612.22L619.51,583.53L640.37,582.87L646.06,566.89L645.04,553.86L620.79,558.24L593.98,580.63L584.33,594.93L605.05,612.22z"/>
		<path id="AI-NH" title="North Hill" class="land" d="M606.86,626.8L565.98,619.06L557.75,628.06L561.53,637.18L561.04,644.27L571.45,638.79L584.1,639.45L606.86,626.8z"/>
		<path id="AI-IH" title="Island Harbour" class="land" d="M669.46,558.9L681.47,558.9L690.14,546.25L669.7,549.4L669.46,558.9z"/>
		<path id="AI-GH" title="George Hill" class="land" d="M584.06,650.6L584.1,639.45L566.12,651.19L566.93,666.85L577.52,661.74L584.06,650.6z"/>
		<path id="AI-EE" title="East End" class="land" d="M724.49,555.66L724.88,544.63L706.85,543.68L690.14,546.25L681.47,558.9L669.46,558.9L669.7,549.4L660.01,551.15L659.97,569.55L676.41,569.55L689.06,577.54L687.16,584.2L678.31,598.18L690.32,598.18L689.69,613.75L692.7,609.81L724.49,555.66zM765.02,537.07L768.85,531.53L789.41,525.49L799.45,521.46L786.54,513.4L764.54,508.87L759.76,517.43L747.81,521.97L751.16,533.55L744.94,541.6L750.2,547.14L765.02,537.07z"/>
		<path id="AI-BP" title="Blowing Point" class="land" d="M583.97,673.39L584.06,650.6L577.52,661.74L566.93,666.85L566.12,651.19L552.48,660.09L542.37,668.74L519.61,669.41L518.34,676.73L500.64,676.73L500.69,688.44L508.18,696.46L518.91,704.21L523.43,711.29L583.97,673.39z"/>
	</g>
</svg>