<?xml version="1.0" encoding="utf-8"?>
<!-- (c) ammap.com | SVG map of Anguilla - Low -->
<svg xmlns="http://www.w3.org/2000/svg" xmlns:amcharts="http://amcharts.com/ammap" xmlns:xlink="http://www.w3.org/1999/xlink" version="1.1">
	<defs>
		<style type="text/css">
			.land
			{
				fill: #CCCCCC;
				fill-opacity: 1;
				stroke:white;
				stroke-opacity: 1;
				stroke-width:0.5;
			}
		</style>

		<amcharts:ammap projection="mercator" leftLongitude="-63.4908997068" topLatitude="18.6120679789" rightLongitude="-62.7956051499" bottomLatitude="18.1582899031"></amcharts:ammap>

		<!-- All areas are listed in the line below. You can use this list in your script. -->
		<!--{id:"AI-00"},{id:"AI-WE"},{id:"AI-TV"},{id:"AI-TQ"},{id:"AI-TF"},{id:"AI-ST"},{id:"AI-SO"},{id:"AI-SH"},{id:"AI-SG"},{id:"AI-NS"},{id:"AI-NH"},{id:"AI-IH"},{id:"AI-GH"},{id:"AI-EE"},
	    {id:"AI-BP"}-->

	</defs>
	<g>
		<path id="AI-00" title="Sombrero Island, Dog Island, and other Islands" class="land" d="M306.66,532.72L264.43,534.33L281.27,549.48L306.66,532.72zM0.55,0L1.91,14.11L8.89,2.05L0.55,0z"/>
		<path id="AI-WE" title="West End" class="land" d="M442.47,723.12L486.78,698.9L486.47,657.97L455.85,674.56L414.95,722.71L442.47,723.12z"/>
		<path id="AI-TV" title="The Valley" class="land" d="M605.05,612.22L584.33,594.93L565.98,619.06L606.86,626.8L611.41,617.53L605.05,612.22z"/>
		<path id="AI-TQ" title="The Quarter" class="land" d="M627.1,624.81L634.93,612.68L611.41,617.53L606.86,626.8L627.1,624.81z"/>
		<path id="AI-TF" title="The Farrington" class="land" d="M633.12,646.34L627.1,624.81L606.86,626.8L584.1,639.45L584.06,650.6L583.97,673.39L633.12,646.34z"/>
		<path id="AI-ST" title="Stoney Ground" class="land" d="M689.06,577.54L659.97,569.55L660.01,551.15L645.04,553.86L640.37,582.87L619.51,583.53L605.05,612.22L611.41,617.53L634.93,612.68L644.8,586.19L689.06,577.54z"/>
		<path id="AI-SO" title="South Hill" class="land" d="M584.1,639.45L561.04,644.27L527.05,650.62L486.47,657.97L486.78,698.9L500.69,688.44L500.64,676.73L566.12,651.19L584.1,639.45z"/>
		<path id="AI-SH" title="Sandy Hill" class="land" d="M689.69,613.75L690.32,598.18L678.31,598.18L689.06,577.54L644.8,586.19L634.93,612.68L627.1,624.81L633.12,646.34L689.69,613.75z"/>
		<path id="AI-SG" title="Sandy Ground" class="land" d="M561.04,644.27L557.75,628.06L527.05,650.62L561.04,644.27z"/>
		<path id="AI-NS" title="North Side" class="land" d="M605.05,612.22L619.51,583.53L640.37,582.87L645.04,553.86L620.79,558.24L584.33,594.93L605.05,612.22z"/>
		<path id="AI-NH" title="North Hill" class="land" d="M606.86,626.8L565.98,619.06L557.75,628.06L561.04,644.27L584.1,639.45L606.86,626.8z"/>
		<path id="AI-IH" title="Island Harbour" class="land" d="M669.7,549.4L681.47,558.9L690.14,546.25L669.7,549.4z"/>
		<path id="AI-GH" title="George Hill" class="land" d="M584.06,650.6L584.1,639.45L566.12,651.19L566.93,666.85L584.06,650.6z"/>
		<path id="AI-EE" title="East End" class="land" d="M689.69,613.75L724.88,544.63L690.14,546.25L681.47,558.9L669.7,549.4L660.01,551.15L659.97,569.55L689.06,577.54L678.31,598.18L690.32,598.18L689.69,613.75zM765.02,537.07L799.45,521.46L764.54,508.87L744.94,541.6L765.02,537.07z"/>
		<path id="AI-BP" title="Blowing Point" class="land" d="M583.97,673.39L584.06,650.6L566.93,666.85L566.12,651.19L500.64,676.73L500.69,688.44L523.43,711.29L583.97,673.39z"/>
	</g>
</svg>