<?xml version="1.0" encoding="utf-8"?>
<!-- (c) ammap.com | SVG map of Grenada - High -->
<svg xmlns="http://www.w3.org/2000/svg" xmlns:amcharts="http://amcharts.com/ammap" xmlns:xlink="http://www.w3.org/1999/xlink" version="1.1">
	<defs>
		<style type="text/css">
			.land
			{
				fill: #CCCCCC;
				fill-opacity: 1;
				stroke:white;
				stroke-opacity: 1;
				stroke-width:0.5;
			}
		</style>

		<amcharts:ammap projection="mercator" leftLongitude="-61.805900" topLatitude="12.536700" rightLongitude="-61.374699" bottomLatitude="11.982905"></amcharts:ammap>

		<!-- All areas are listed in the line below. You can use this list in your script. -->
		<!--{id:"GD-06"},{id:"GD-05"},{id:"GD-04"},{id:"GD-03"},{id:"GD-02"},{id:"GD-01"},{id:"GD-10"}-->

	</defs>
	<g>
		<path id="GD-06" title="Saint Patrick" class="land" d="M369.37,697.77L365.85,668.56L349.38,634.44L361.69,622.66L362.97,616.44L320.43,589.6L275.56,583.54L234.38,590.91L213.39,616.52L238.99,635.87L258.39,663.99L264.86,705.34L313.35,705.34L368.49,710.31L369.37,697.77zM408.4,460.62L404,448.75L413.2,439.09L399.68,431.4L390.88,436.31L386.32,447.85L375.21,462.91L373.61,467.17L383.29,473.39L392.48,480.67L397.28,482.96L408.4,460.62z"/>
		<path id="GD-05" title="Saint Mark" class="land" d="M264.86,705.34L258.39,663.99L238.99,635.87L213.39,616.52L148.51,695.72L185.64,705.34L222.82,723.53L251.92,746.68L264.86,705.34z"/>
		<path id="GD-04" title="Saint John" class="land" d="M251.92,746.68L222.82,723.53L185.64,705.34L148.51,695.72L120.02,730.5L118.74,765.35L77.95,844.2L146.84,844.24L205.04,842.59L201.81,821.09L224.44,792.98L251.92,746.68z"/>
		<path id="GD-03" title="Saint George" class="land" d="M188.23,1059.76L191.19,1040.79L199.19,1025.75L211.74,1014.47L200.19,1006.25L185.64,983.11L185.64,948.39L198.58,903.76L224.44,895.49L214.74,882.27L205.04,842.59L146.84,844.24L77.95,844.2L67.39,888.94L72.59,916.42L82.27,939.56L87.95,963.11L80.99,992.47L68.51,1004.65L0.38,1048.64L29.81,1056.74L66.35,1058.62L99.7,1051.59L120.02,1033.68L135.53,1043.25L152.24,1050.85L169.92,1056.33L188.23,1059.76z"/>
		<path id="GD-02" title="Saint David" class="land" d="M326.67,926.72L290.72,898.8L260.01,885.57L224.44,895.49L198.58,903.76L185.64,948.39L185.64,983.11L200.19,1006.25L211.74,1014.47L228.54,1006.21L228.54,1021.17L312.75,976.85L323.63,958.86L324.27,942.42L326.67,926.72z"/>
		<path id="GD-01" title="Saint Andrew" class="land" d="M368.49,710.31L313.35,705.34L264.86,705.34L251.92,746.68L224.44,792.98L201.81,821.09L205.04,842.59L214.74,882.27L224.44,895.49L260.01,885.57L290.72,898.8L326.67,926.72L332.42,914.86L342.66,910.12L347.62,903.91L336.58,871.03L335.94,855.32L349.06,824.57L357.69,810.66L362.41,796.59L368.49,710.31z"/>
		<path id="GD-10" title="Carriacou and Petite Martinique" class="land" d="M799.62,19.17L770.67,24L773.71,34.16L782.27,40.55L791.47,43.01L799.62,19.17zM712.77,0L682.46,26.54L661.11,74.3L635.68,109.03L593.21,96.09L581.62,115.58L578.74,123.61L599.37,122.63L605.45,123.61L598.73,135.89L585.54,167.59L578.74,179.87L612.17,167.1L644.96,150.14L678.14,140.81L712.77,151.13L714.05,109.36L722.05,69.55L725.41,32.93L712.77,0z"/>
	</g>
</svg>