<?xml version="1.0" encoding="utf-8"?>
<!-- (c) ammap.com | SVG map of Grenada - Low -->
<svg xmlns="http://www.w3.org/2000/svg" xmlns:amcharts="http://amcharts.com/ammap" xmlns:xlink="http://www.w3.org/1999/xlink" version="1.1">
	<defs>
		<style type="text/css">
			.land
			{
				fill: #CCCCCC;
				fill-opacity: 1;
				stroke:white;
				stroke-opacity: 1;
				stroke-width:0.5;
			}
		</style>

		<amcharts:ammap projection="mercator" leftLongitude="-61.805900" topLatitude="12.536700" rightLongitude="-61.374699" bottomLatitude="11.982905"></amcharts:ammap>

		<!-- All areas are listed in the line below. You can use this list in your script. -->
		<!--{id:"GD-06"},{id:"GD-05"},{id:"GD-04"},{id:"GD-03"},{id:"GD-02"},{id:"GD-01"},{id:"GD-10"}-->

	</defs>
	<g>
		<path id="GD-06" title="Saint Patrick" class="land" d="M368.49,710.31L362.97,616.44L320.43,589.6L234.38,590.91L213.39,616.52L264.86,705.34L368.49,710.31zM408.4,460.62L399.68,431.4L373.61,467.17L397.28,482.96L408.4,460.62z"/>
		<path id="GD-05" title="Saint Mark" class="land" d="M264.86,705.34L213.39,616.52L148.51,695.72L251.92,746.68L264.86,705.34z"/>
		<path id="GD-04" title="Saint John" class="land" d="M251.92,746.68L148.51,695.72L77.95,844.2L205.04,842.59L251.92,746.68z"/>
		<path id="GD-03" title="Saint George" class="land" d="M188.23,1059.76L211.74,1014.47L185.64,948.39L224.44,895.49L205.04,842.59L77.95,844.2L80.99,992.47L0.38,1048.64L66.35,1058.62L120.02,1033.68L188.23,1059.76z"/>
		<path id="GD-02" title="Saint David" class="land" d="M326.67,926.72L260.01,885.57L224.44,895.49L185.64,948.39L211.74,1014.47L312.75,976.85L326.67,926.72z"/>
		<path id="GD-01" title="Saint Andrew" class="land" d="M368.49,710.31L264.86,705.34L251.92,746.68L205.04,842.59L224.44,895.49L260.01,885.57L326.67,926.72L368.49,710.31z"/>
		<path id="GD-10" title="Carriacou and Petite Martinique" class="land" d="M799.62,19.17L773.71,34.16L791.47,43.01L799.62,19.17zM712.77,0L635.68,109.03L593.21,96.09L578.74,123.61L605.45,123.61L578.74,179.87L678.14,140.81L712.77,151.13L722.05,69.55L712.77,0z"/>
	</g>
</svg>