<?xml version="1.0" encoding="utf-8"?>
<!-- (c) ammap.com | SVG map of Guyana - Low -->
<svg xmlns="http://www.w3.org/2000/svg" xmlns:amcharts="http://amcharts.com/ammap" xmlns:xlink="http://www.w3.org/1999/xlink" version="1.1">
	<defs>
		<style type="text/css">
			.land
			{
				fill: #CCCCCC;
				fill-opacity: 1;
				stroke:white;
				stroke-opacity: 1;
				stroke-width:0.5;
			}
		</style>

		<amcharts:ammap projection="mercator" leftLongitude="-61.414905" topLatitude="8.546628" rightLongitude="-56.491120" bottomLatitude="1.164724"></amcharts:ammap>

		<!-- All areas are listed in the line below. You can use this list in your script. -->
		<!--{id:"GY-CU"},{id:"GY-ES"},{id:"GY-DE"},{id:"GY-EB"},{id:"GY-PM"},{id:"GY-BA"},{id:"GY-UD"},{id:"GY-UT"},{id:"GY-PT"},{id:"GY-MA"}-->

	</defs>
	<g>
		<path id="GY-CU" title="Cuyuni-Mazaruni" class="land" d="M38.54,-561.21L38.54,-561.21L13.35,-539.9L-12.39,-561.74L-7.72,-597.09L17.6,-616.81L42.39,-590.94L38.54,-561.21z"/>
		<path id="GY-ES" title="Essequibo Islands-West Demerara" class="land" d="M118.71,-504.69L118.71,-504.69L105.67,-472.18L70.18,-488.71L87.14,-539.81L118.71,-504.69z"/>
		<path id="GY-DE" title="Demerara-Mahaica" class="land" d="M35.48,-541.84L35.48,-541.84L35.6,-548.05L41.07,-553.2L35.48,-541.84zM59.51,-492.9L59.51,-492.9L58.19,-490.8L33.61,-519.79L45.34,-551.52L66.29,-548.09L59.51,-492.9zM44.85,-555.32L44.85,-555.32L46.62,-560.76L53.46,-560.21L44.85,-555.32zM31.18,-523.4L31.18,-523.4L30.73,-521.66L13.35,-539.9L38.54,-561.21L32.27,-547.52L31.18,-523.4zM42.02,-556.68L42.02,-556.68L39.95,-555.09L45.43,-564.95L42.02,-556.68z"/>
		<path id="GY-EB" title="East Berbice-Corentyne" class="land" d="M87.14,-539.81L87.14,-539.81L70.18,-488.71L58.19,-490.8L59.51,-492.9L66.29,-548.09L87.14,-539.81z"/>
		<path id="GY-PM" title="Pomeroon-Supenaam" class="land" d="M-37.93,-562.02L-37.93,-562.02L-12.39,-561.74L13.35,-539.9L30.73,-521.66L31.93,-515.88L30.27,-448.48L12.46,-435.1L-6.21,-442.78L-19.25,-458.46L-87.35,-414.18L-139.59,-417.94L-192.29,-477.87L-170.21,-497.32L-170.88,-540.05L-110.5,-558.05L-108.17,-575.36L-66.72,-578.57L-37.93,-562.02z"/>
		<path id="GY-BA" title="Barima-Waini" class="land" d="M17.6,-616.81L17.6,-616.81L-7.72,-597.09L-12.39,-561.74L-37.93,-562.02L-66.72,-578.57L-108.17,-575.36L-129.78,-577.6L-138.84,-605.51L-66.53,-663.8L-81.91,-689.18L17.6,-616.81z"/>
		<path id="GY-UD" title="Upper Demerara-Berbice" class="land" d="M-19.99,-333.25L-19.99,-333.25L9.58,-321.23L44.93,-341.39L85.93,-231.62L39.97,-116.65L38.6,-101.68L11.87,-95.38L-60.87,-149.43L-59.51,-181.67L-80.24,-216.22L-69.23,-287.55L-42.33,-316.32L-55.13,-351.06L-37.41,-361.48L-37.67,-337.28L-19.99,-333.25z"/>
		<path id="GY-UT" title="Upper Takutu-Upper Essequibo" class="land" d="M58.19,-490.8L58.19,-490.8L70.18,-488.71L105.67,-472.18L104.43,-429.64L74.93,-373.8L57.59,-372.21L16.51,-382.81L12.46,-435.1L30.27,-448.48L31.93,-515.88L33.61,-519.79L58.19,-490.8z"/>
		<path id="GY-PT" title="Potaro-Siparuni" class="land" d="M-6.21,-442.78L-6.21,-442.78L12.46,-435.1L16.51,-382.81L57.59,-372.21L44.93,-341.39L9.58,-321.23L-19.99,-333.25L-37.67,-337.28L-37.41,-361.48L-55.13,-351.06L-93.07,-363.64L-78.75,-406.28L-87.35,-414.18L-19.25,-458.46L-6.21,-442.78z"/>
		<path id="GY-MA" title="Mahaica-Berbice" class="land" d="M140.59,-440.73L140.59,-440.73L137.96,-403.76L86.77,-387.95L76.86,-323.03L107.92,-272.15L135.72,-272.53L144.23,-228.45L184.11,-162.87L202.03,-155.81L134.83,-158.66L115.44,-137.13L39.97,-116.65L85.93,-231.62L44.93,-341.39L57.59,-372.21L74.93,-373.8L104.43,-429.64L105.67,-472.18L118.71,-504.69L147.04,-489.13L140.59,-440.73z"/>
	</g>
</svg>
