<?xml version="1.0" encoding="utf-8"?>
<!-- (c) ammap.com | SVG map of India - Low -->
<svg xmlns="http://www.w3.org/2000/svg" xmlns:amcharts="http://amcharts.com/ammap" xmlns:xlink="http://www.w3.org/1999/xlink" version="1.1">
	<defs>
		<style type="text/css">
			.land
			{
				fill: #CCCCCC;
				fill-opacity: 1;
				stroke:white;
				stroke-opacity: 1;
				stroke-width:0.5;
			}
		</style>

		<amcharts:ammap projection="mercator" leftLongitude="68.189980" topLatitude="35.502926" rightLongitude="97.418892" bottomLatitude="6.748288"></amcharts:ammap>

		<!-- All areas are listed in the line below. You can use this list in your script. -->
		<!--{id:"IN-AN"},{id:"IN-AP"},{id:"IN-AR"},{id:"IN-AS"},{id:"IN-BR"},{id:"IN-CH"},{id:"IN-CT"},{id:"IN-DD"},{id:"IN-DL"},{id:"IN-DN"},{id:"IN-GA"},{id:"IN-GJ"},{id:"IN-HP"},{id:"IN-HR"},{id:"IN-JH"},{id:"IN-JK"},{id:"IN-KA"},{id:"IN-KL"},{id:"IN-LD"},{id:"IN-MH"},{id:"IN-ML"},{id:"IN-MN"},{id:"IN-MP"},{id:"IN-MZ"},{id:"IN-NL"},{id:"IN-OR"},{id:"IN-PB"},{id:"IN-PY"},{id:"IN-RJ"},{id:"IN-SK"},{id:"IN-TG"},{id:"IN-TN"},{id:"IN-TR"},{id:"IN-UP"},{id:"IN-UT"},{id:"IN-WB"}-->

	</defs>
	<g>
		<path id="IN-AN" title="Andaman and Nicobar Islands" class="land" d="M537.31,781.81l2.09,5.06l-0.71,-0.02l0.66,0.93l-1.01,1.12l0.1,1.87l-1.07,-0.06l-0.5,1.29l-1.71,-4.35l-1.72,-0.94l-0.16,-2.49l0.64,-1.36L537.31,781.81zM534.48,777.55l0.9,1.76l-2.25,2.46l-0.33,-2.69l1.7,-0.47L534.48,777.55zM527.51,765.35l1.78,1.99l-0.07,1.21l-3.02,-1.29l0.2,-1.45L527.51,765.35zM531.01,765.28l0.63,2.1l-1.47,-1.18L531.01,765.28zM530.58,761.01l0.39,0.7l-0.88,1.04l0.99,2.35l-1.03,0.82l-0.32,-0.99l0.93,-0.72l-0.94,0.56l-0.65,-2.56L530.58,761.01zM522.2,758.39l0,1.67l1.53,1.73l-2.35,-1.59L522.2,758.39zM515.11,739.7l1.4,0.74l-0.5,1.48l-2.07,0.3l-0.23,-1.88L515.11,739.7zM509.42,704.76l1.51,2.34l0.19,2.3l-1.19,1.39l0.62,0.72l-1.18,1.42l-2.67,-0.43l0.74,-1.75l-0.93,-3.53l0.45,0.45L509.42,704.76zM511.96,692.26l1.12,2.48l-1.86,0.51l-0.31,-1.15l0.75,-0.1L511.96,692.26zM503.2,690.02l1.09,0.18l-0.02,1.31l-1.16,-0.15L503.2,690.02zM518.92,680.65l0.84,0.31l0.7,2.91l-2.45,-2.41L518.92,680.65zM520.14,678.02l0.37,2.37l-1.88,-2.06l1.04,0.45L520.14,678.02zM520.99,676.86l0.13,2.72l-0.45,-1.12L520.99,676.86zM513.29,676.35l0.06,1.49l0.57,0.24l-0.18,1.65l1.29,0.63l-0.93,0.13l0.62,0.89l-1.04,0.8l0.11,2.36l0.47,-1.73l0.88,0.66l-0.69,4.23l-1.13,-0.1l-0.75,1.13l0.59,0.66l0.56,-1.35l0.73,0.44l-0.95,4l-1.35,-0.95l0.01,-1.07l-0.61,0.2l-0.2,-1.21l0.76,-0.35l-0.76,0.04l-0.42,-1.77l-0.55,0.5l-0.32,-2.99l-0.69,-0.27l1.02,-2.09l1.02,1.6l0.26,-4.92L513.29,676.35zM518.33,675.39l-0.4,1.06l-0.43,-1.22l0.69,-0.48L518.33,675.39zM514.96,675.25l1.59,-0.35l0.69,0.8l-0.64,0.43l0.45,1.08l-0.71,-0.05l-1.33,2.22l-0.85,-3.24L514.96,675.25zM537.14,674.53l0.86,1.79l-1.13,-0.17L537.14,674.53zM517.44,661.85l1.71,4.4l-0.25,4.54l-1.13,1.93l-1.76,-0.47l1.35,2.29l-3.65,0.42l-0.75,-6.56l1.44,-1.34l-0.62,-3.33l1.62,-1.38l0.87,0.33l0,0l0.63,-0.15l0,0L517.44,661.85zM513.18,660.22l0.54,2.21l-1.12,2.26l-0.42,-1.68L513.18,660.22zM519.7,660.12l-1.15,1.2l0.16,-1.03L519.7,660.12zM520.17,647.79l0.11,2.95l1.17,2.13l-0.52,0.7l-0.69,-0.9l-1.72,0.03l2.43,1.53l-0.66,4.09l-1.26,1.45l-1.22,-0.88l0.47,1.77l-0.55,0.53l-0.63,-0.77l-0.15,1.63l-0.77,0.12l-0.92,-0.29l0.65,-2.1l-0.77,-0.12l0.45,-2.32l0.79,-0.26l-0.79,-0.3l0.94,-2.23l-0.67,-0.43l0.43,-2.67l1.81,-2.13l-0.25,-0.74l1.5,0.18l-0.02,-0.97l0.47,0.67L520.17,647.79zM519.89,645.59l0.25,1.05l-1.07,-0.6L519.89,645.59z"/>
		<path id="IN-AP" title="Andhra Pradesh" class="land" d="M295.51,580.08l0,0.01l0,0L295.51,580.08zM296.14,580.15l-0.37,2.36l-0.71,-1.84L296.14,580.15zM295.51,580.08l-0.12,-0.62l-1.53,0.54l-0.06,-0.73l-0.9,0.58l1.74,0.76l0,0l1.09,2.66l-7.65,3.74l-4.69,1.84l-3.76,-1.06l-5.77,1.69l-2.5,6.66l-2.91,3.08l0.11,1.33l-0.95,0.83l-3.03,0.41l-0.87,-1.46l0.52,-1.34l-2.48,-0.87l-5.36,1.67l-3.37,2.89l-3.57,7.83l-1.08,5.01l1.4,7.45l1.76,3.09l-1.45,10.01l2.41,6.47l-0.17,3.85l1.65,4.41l-3.02,-5.48l-0.56,-0.25l-0.12,1.9l-0.66,-1.31l-1.17,1.84l4.01,2.21l1.46,1.34l0,0l0,1.14l-1.71,-2.3l-4.95,-1.13l0.88,0.97l-1.55,0.71l-0.76,2.47l-4.28,1.36l1.33,1.04l-0.85,0.61l-1.16,-0.27l-0.42,-1.59l-1.85,0.78l-0.93,-1.4l-2.24,-0.27l-1.14,0.44l1.06,0.46l-0.03,2.01l-1.59,0.52l-0.83,1.41l-1.88,-0.82l-1.37,2.74l-3.62,-1.48l-1.36,0.19l-0.44,0.7l0.65,0.35l-0.89,-0.02l-0.12,-1.42l-3.63,0.64l-0.18,1.11l-1.68,0.54l0.69,1.28l-2.07,4.98l-0.66,-0.38l0,0l0,0l0,0l-0.66,-0.67l0.55,0.7l-1.07,1.8l-1.91,0.12l-2.18,-1.71l-1.56,0.23l0.65,-1.52l0,0l0.43,-2.02l1.3,0.01l0.89,-1.73l1.89,0.59l0.39,1.01l-0.66,-2.46l0.74,0.11l-0.13,-1.46l2.46,-2.67l-0.28,-3.05l-0.73,0.94l-1.03,-1.12l-2.19,-0.26l0.64,-0.26l-0.88,-0.49l0.75,-4.77l-4.34,0.47l0.22,-1.28l-0.8,-0.7l-1.57,0.29l-0.47,-0.68l0.99,-0.37l0.17,-3.35l-1.52,-0.98l-2.02,1.43l0.46,-2.8l-1.15,1.14l-1.95,-0.81l0.2,1.59l-2.4,1.5l-0.09,1.24l-1.25,-0.92l-0.58,1.04l-2.13,-0.35l-0.15,1.25l-1.31,0.21l-0.53,-3.41l-3.64,-0.09l-0.35,-1.19l-1.15,0.75l-0.04,-1.23l-1.11,1.46l0.89,2.03l-2.23,0.34l-0.71,-0.7l-0.71,0.62l-0.51,-1.54l1.41,-2.38l-2.19,-2.08l0.92,-0.91l-1.75,-2.01l2.69,-0.29l0.08,2.56l2.04,0.24l0.55,1.08l3.48,-0.71l0.84,0.91l-0.11,1.84l0.91,0.36l0.81,-1.9l-2.19,-1.16l1.45,-1.73l-1.07,0.16l0.07,-0.61l0.88,-0.88l2.32,0.31l-0.09,-2.59l-2.32,-1.14l0.63,2.42l-0.67,0.43l-0.51,-1.66l-1.67,-0.15l0.03,-1.18l-2.7,-0.14l-0.98,2.67l-3.5,-0.58l0.26,-1.16l-1.49,-1.12l0.09,-0.94l1.22,-0.2l0.67,-1.69l-2.16,0.21l-2.3,-2.87l0.42,-3.81l1.43,-0.53l0.33,-3.44l-2.11,-0.13l0.22,-2.19l6.38,1.54l1.58,-2.6l-0.69,-2.17l0.91,-0.82l-1.14,-1.47l-1.01,0.12l-1.91,-3.65l1.18,-0.2l0.06,-2.89l1.82,0.19l0.18,-0.73l-1.71,-1.63l0.43,-1.92l-0.87,-0.19l2.54,-2.35l7.66,0.43l0,0l6.07,1.2l1.85,-0.66l2.39,0.79l0.72,-0.93l1.54,1.62l2.69,-2.2l0.39,-2.21l3.12,-1.07l3.21,0.53l1.21,-0.92l3.31,1.63l1.29,-1.38l0.03,-1.5l1.52,1.12l0.31,-2.1l2.21,-0.94l3.93,0.13l0.14,-5.82l0.86,-1.16l3.36,-0.46l7.29,-3.19l2.66,1.99l1.17,-0.09l2.34,-3.73l-1.63,-1.08l0.38,-0.96l3.61,-3l1.68,0.75l2.32,4.34l0.56,-0.84l3.42,1.89l0.87,-0.54l-1.04,-0.8l0.62,-2.21l-1.94,-0.47l-0.07,0.67l-2.71,-1.16l0.18,-1.87l0.59,-0.46l1.07,1.32l2.39,-2.63l2.02,1.1l-0.36,0.71l4.04,0.64l0.79,-2.63l0.9,0.01l-0.17,-1.2l1.8,0.47l3.59,-1.15l0.39,-1.95l1.79,0.05l1.21,-1.54l1.9,0.63l1.63,-1.9l0.2,-3.08l1.54,-2.97l4.31,-2.31l-0.5,-1.34l0,0l5.58,-3.6l2.84,0.31l1.7,1.4l0.53,-1.5l1.32,0.17l0.08,-2.23l0.67,0.06l-1.24,-1.23l1.82,-2.43l-1.23,-0.23l1.05,-1.14l-0.48,-0.89l2.36,-2.78l1.67,2.18l-0.39,1.06l1.37,0.46l-0.41,2.16l0.97,0.91l0.67,-1.27l2.27,-0.98l0.67,-2.37l2.8,1.93l2.53,-0.52l0.1,-1.18l-0.9,-0.34l1.55,-2.05l-1.19,-0.22l0.45,-0.85l-0.96,-0.04l0.07,-1.11l2.54,-2.93l1.51,1.24l0.3,-1.1l3.7,-1.43l-1.04,-2.12l0.7,0.08l-0.72,-0.74l-0.35,0.88l-0.5,-1.6l2.17,-0.14l0.98,1.11l0.08,-2.73l0.96,0.11l-0.21,1.18l0.75,0.13l1.93,-3.26l2.57,5.19l0.72,0.23l-0.85,-1.56l0.99,-0.66l1.74,4.18l3.29,0.36l1.15,1.26l5.24,-1.04l0.08,-1.64l1.96,-1.03l-0.3,-2.2l1.18,0.72l1.98,-1.84l0.45,1.15l1.4,-0.86l-1.31,-1.58l2.31,-0.6l0.35,1.22l0,0l0.88,0.54l-3.73,4.29l-0.6,1.84l-8.97,9.69l-0.02,0.93l-11.56,6.38l-7.52,9.34l-12.68,6.43l-5.01,3.87l-2.5,4.1l1.31,1.96l0.89,-0.25l-0.24,2.47L295.51,580.08z"/>
		<path id="IN-AR" title="Arunachal Pradesh" class="land" d="M585.67,292.63L587.47,296.17L589.97,294.96L590.59,295.66L589.62,297.7L584.77,299.92L586.24,302.06L585.41,303.26L585.86,304.01L589.63,301.01L593.37,299.89L592.37,301.92L595.27,307.04L594.64,308.4L592.27,309.19L592.71,310.38L589.19,312.85L590.18,313.96L587.89,315.71L590.14,316.16L590.73,317.34L591.97,315.57L596.28,314.46L598.58,316.64L601.19,316.36L603.23,318.01L605.25,316.74L611.69,320.74L610.23,321.63L609.75,323.66L612,324.91L611.22,325.8L611.45,327.92L610.03,328.08L609.77,327.13L608.68,327.61L601.16,334.41L602,336.54L601.46,338.12L606.9,345.76L606.37,346.55L604.8,346.4L600.7,344.43L600.9,342.69L599.17,340.66L597.29,340.04L595.19,340.31L593.31,342.08L587.28,342.29L583.13,344.37L581.03,347.72L578.35,348.48L576.73,351.59L575.53,351.06L574.24,353.13L572.59,352.9L570.41,355.96L567.77,356.99L566.41,356.28L566.41,356.28L566.56,353.92L565.29,352.12L566.33,351.51L565.52,347.95L565.52,347.95L566.63,348.25L571.02,345.79L571.06,343.96L572.24,342.67L573.79,343.59L578.31,342.13L580.15,342.8L582.75,340.34L581.9,338.76L580.63,338.58L580.13,339.45L580.04,338.56L579.22,338.88L579.89,335.99L577.91,334.34L577.31,331.81L581.9,326.22L574.14,326.47L572.23,328.26L569.48,329.2L568.06,328.51L558.52,331.61L550.12,335.89L549.52,334.82L546.27,335.05L545.77,333.93L544.91,334.64L545.92,336.71L543.78,337.76L539.58,342.06L536.27,345.75L537.04,347.2L533.7,349.63L519.96,350.9L516.88,348.78L512.41,348.06L512.13,349.25L510.87,349.85L500.88,351.44L500.88,351.44L500.78,348.78L499.32,347.44L499.11,345.16L500.08,343.73L499.45,342.72L501.14,342.23L499.85,341.3L499.01,337.72L491.23,337.6L489.36,334.11L491.07,331.01L489.07,328.88L494.94,329.95L495.7,331.67L496.92,332.19L503.02,328.8L504.15,328.83L505.23,330.7L509.11,329.21L510.36,329.69L514.1,325.73L512.5,324L513,322.51L518.81,319.29L519.56,320.03L520.05,318.31L524.14,317.59L524.4,316.01L523.38,315.08L525.33,313.54L526.61,310.33L528.89,309.48L529.48,310.01L529.84,309.29L535.79,309.66L537.23,308.73L538.95,309.58L540.52,307.11L540.39,305.55L543.74,302.85L544.99,299.77L549.52,296.37L552.17,296.32L553.65,293.46L556.77,296.02L557.2,297.85L558.75,297.38L561.91,298.66L561.38,297.65L570.02,300.96L571.54,300.08L571.82,298.43L572.88,298.71L572.69,296.67L577.71,293.27L581.47,292.64L584.06,290.71z"/>
		<path id="IN-AS" title="Assam" class="land" d="M454.05,382.93l-0.34,1.41l0,0L454.05,382.93zM454.05,382.93l0.05,-0.11l0,0L454.05,382.93zM500.88,351.44l9.99,-1.59l1.26,-0.6l0.28,-1.19l4.47,0.72l3.08,2.12l13.74,-1.27l3.33,-2.43l-0.77,-1.45l3.31,-3.69l4.2,-4.3l2.13,-1.05l-1,-2.07l0.86,-0.71l0.5,1.12l3.25,-0.23l0.6,1.07l8.4,-4.27l9.54,-3.1l1.42,0.69l2.76,-0.94l1.9,-1.79l7.76,-0.25l-4.59,5.59l0.61,2.53l1.97,1.65l-0.67,2.89l0.82,-0.32l0.09,0.89l0.5,-0.87l1.28,0.18l0.85,1.59l-2.6,2.46l-1.84,-0.67l-4.53,1.46l-1.55,-0.92l-1.18,1.29l-0.04,1.82l-4.39,2.47l-1.1,-0.3l0,0l-3.65,2.75l-2.83,-0.16l-1.76,2.95l-2.42,1.71l-1.73,-0.16l-0.62,1.13l-0.62,-0.46l-1.61,0.96l-3.17,4.82l-0.83,-2.23l-1.89,2.29l-0.23,2.7l-1.41,0.41l-2.16,3.56l-1.05,3.85l0.51,2.03l-3.84,2.44l-0.48,-3.51l-1.79,1.31l0.37,1.41l-7.82,6.98l2.73,2.59l0.25,2.89l0,0l-1.79,1.46l-1.11,3.45l-1.82,1.77l0.28,1.55l-1.36,3.22l-1.83,0.04l-0.71,2.28l0.6,0.8l-0.61,1.81l0.66,0.29l-0.96,0.2l-0.46,3.75l-0.81,0.18l0,0l-3.59,0.58l-1.33,-3.27l-1.56,3.8l-1.39,0.51l-0.27,1.81l-1.28,0.17l-1.46,2.39l-0.93,-0.25l-0.3,-2.3l-2.63,0.03l0,0l-1.75,0.06l1.25,-2.97l-0.87,-2.85l0,0l1.41,-5.32l-1.21,-3.73l1.21,-0.48l1.95,1.61l2.1,-0.55l-0.05,-1.84l-1.27,-0.42l-0.05,-1.36l0,0l0.78,-0.12l0.44,-1.63l1.23,0.19l-0.38,-0.93l2.03,0.51l0.95,-1.37l2.88,-0.97l-0.83,-0.69l0.41,-1.92l-4.54,-3.11l1.8,-2.88l-1.69,0.73l-3.92,-4.46l-4.7,1.89l-0.16,-3.26l1.52,-2.18l-1.29,-0.11l-0.15,-0.76l2.95,-3.11l-6.41,0.88l-1.44,0.96l-0.97,-2.28l-1.18,-0.49l-1.84,1.38l-0.23,2.44l-1.06,1.13l-1.22,-0.8l0.44,-1.91l-1.18,-0.25l-2.12,3.75l1.06,-0.04l-4.02,0.79l-2.3,2.67l-0.92,-1.22l0.35,-1.91l-4.1,0.85l0.6,-1.52l-1.29,0.02l-0.52,-1.4l-0.49,0.79l-2.29,-0.9l-0.67,1.02l-0.78,-0.16l0.14,-0.97l-1.28,0.15l-1.28,1.2l-0.89,-1.41l-1.46,1.47l0.46,-1.43l-1.2,-1.33l-6.17,1.64l-1.34,-0.39l-3.64,3.17l0.22,1.16l-1.31,0.91l2.61,3.07l-3.08,1.34l0,0l0.32,-1.98l-1.48,-4.33l1.59,-2.85l-2.35,-2.24l0.41,-1.14l-1.65,-1.85l0,0l-0.02,-3.24l0.85,0.38l0.49,-1.49l1.58,-0.72l-0.63,-0.28l0.91,-1.47l-0.29,-5.68l0,0l0.11,-0.77l5.94,-0.42l1.44,-2.31l1.81,0.13l2.27,-1.25l3.15,2.36l3.19,0.78l7.16,-0.28l0.89,-0.94l5.02,0.94l1.51,-1.3l1.77,1.07l4.07,-0.36l3.57,-2.54l3.93,1.55L500.88,351.44z"/>
		<path id="IN-BR" title="Bihar" class="land" d="M417.07,359.7l0.02,0.08l0,0L417.07,359.7zM333.62,336.93l1.9,1.67l0.96,-0.22l0.83,1.59l6.83,1.08l1.49,2.89l-1.01,3.92l6.69,2.03l0.11,1.03l1.94,0.69l-0.8,0.73l3.63,-0.26l0.31,2.52l2.6,0.4l6.29,-3.04l2.1,1.78l-0.04,3.29l2.49,1.04l-0.02,0.96l3.74,-2.28l3.96,1.83l2.3,-0.73l8.46,4.59l0.72,-0.85l2.7,-0.08l3.72,-2.88l0.41,3.15l1.49,1.08l1.96,-0.16l1.77,1.47l0.58,-1.4l2.05,-0.75l2.92,1.38l1.5,-1.27l1.86,0.54l0.49,-1.32l1.24,0.76l0.83,-1.17l0.81,1.59l2.16,1.24l1.36,-1.69l0.18,-2.28l0,0l0.82,0.57l1.8,-0.95l-1.09,1.43l1.86,1.6l-0.63,1.08l1.14,0.5l-4.65,4.14l-2.21,0.55l0.09,1.64l-1.15,-0.22l-1.48,1.08l-0.8,3.07l0.4,0.94l1.84,0.46l-0.26,1.9l3.14,1.83l-0.58,2.39l1.09,1.92l-0.95,0.41l-2.12,-1.15l-1.31,1.63l-1.72,0.48l0.06,2.59l1.52,1.26l-0.42,1.81l-1.03,-0.49l0,0l-4.34,-2.94l-0.84,1.54l-1.22,-0.31l-0.2,2.31l-3.11,-0.65l-0.68,3.08l-1.67,-0.01l-1.35,1.5l0.24,3.19l-1.67,1.45l-0.59,4.94l-2.52,-0.83l-0.4,2.38l-2.32,-0.59l-0.48,-1.26l-2.28,1.35l-1.37,-1.02l-2.03,2l-1.12,3.41l-3.62,-2.13l0.92,-2.79l-3.97,-0.44l-0.19,-2.33l-1.79,-0.83l0.24,-0.88l-2.1,1.09l-1.52,-1.56l-2.95,-0.51l-1.83,3.11l0.32,2.41l-1.84,-0.48l-1.22,1.8l-0.67,-0.6l-4.27,0.55l-0.01,0.68l-2.75,0.79l0.39,0.76l-1.67,1.15l-0.28,-1.39l-3.73,1.55l-0.37,-2.07l-0.96,0.24l-0.82,-1.76l-2.44,1.67l-0.43,1.43l-1.8,-0.43l-1.07,0.83l-0.59,2.04l-4.19,-3.74l0.69,-1.19l-0.7,-1.45l-0.75,0.81l-1.44,-0.56l-0.19,1.03l-0.69,-0.68l-0.76,1.35l-1.32,-3l-1.14,-0.59l-1.33,2.06l-1.27,0.34l-3.17,0.64l-4.57,-0.51l0,0l0.91,-2.27l-1.29,-2.56l-1.95,-1.06l-1.44,-5.35l0.66,-4.18l7.22,-4.54l1.41,0.19l1.6,-1.13l-0.59,-0.67l2.24,-2.14l3.34,-1.82l0.38,-1.91l1.13,-0.24l1.15,1.42l1.73,0.19l0.96,-1.92l3.29,1.54l0.99,-1.12l0.35,0.98l0.07,-1.21l1.57,0.19l-0.22,-1.52l-1.95,-0.93l0.04,-1l-2.2,-0.34l-1.51,-1.55l-3.88,-0.74l-3.1,-3.56l-0.14,-2.22l3.1,-0.12l0.25,-2.98l-2.08,-0.24l-1.28,-1.49l-2.27,-0.04l0,-1.58l3.05,-0.59l0.71,-2.31l3.99,1.01l2.98,-0.65l-0.25,-1.03l-1.6,-0.3l-0.58,-1.61l-1.34,0.32l0.15,-2.87l-1.51,0.65l-0.59,-1.24l-1.86,-0.1l-0.23,-3.57l-1.05,-0.56l0.63,-0.63l-1.7,0.06l0.82,-2.51l-1.69,-1.38l0.39,-1.54l-1.84,0.06l0.62,-0.66l0,0l1.05,-0.78l-0.8,-1.04l3.33,-0.12L333.62,336.93z"/>
		<path id="IN-CH" title="Chandigarh" class="land" d="M180.77,261.28L178.81,261.04L178.07,259.48L179.51,258.54L180.95,259.39L180.95,259.39z"/>
		<path id="IN-CT" title="Chhattisgarh" class="land" d="M316.95,415.87L320.78,417.54L321.92,421.31L324.73,422.27L325.14,425.41L326.4,427.3L329.76,428.13L329.81,426.78L331.26,426.55L331.59,428.55L330.4,432.25L332.02,432.42L332.58,433.41L331.82,437.75L333.82,439.04L334.21,441.7L335.09,440.35L335.66,441.42L338.87,441.45L339.26,442.27L338.86,443.95L335.83,446.87L335.73,448.37L332.79,449.1L331.16,451.7L331.16,451.7L330.61,452.12L331.98,452.98L331.2,455.15L328.2,455.69L325.94,457.96L323.69,458.37L321.88,461.09L322.74,461.95L321.45,462.18L321.38,464.24L322.75,465.42L322.41,466.93L319.96,468.3L320.31,469.22L318.96,470.71L320.32,471.82L319.65,472.27L319.41,471.29L318.15,472.1L317.18,474.73L318.6,478.02L315.83,477.42L315.92,479.42L314.75,479.99L314.15,482.77L312.68,483.54L309.25,481.88L302.55,482.46L302.27,484.98L299.4,487.95L298.85,489.72L296.49,488.38L296.95,494.17L296.02,495.73L298.22,498.57L297.42,506.7L301.76,508.34L304.05,508.23L303.95,511.76L301.49,513.09L301.66,511.02L298.5,510.17L296.34,511.78L294.06,508.06L292.97,508.5L290.45,506.91L289.75,507.8L288.01,505.75L286.44,507.22L286.09,510.05L288.4,511.23L288.82,512.54L290.49,512.82L289.7,519.04L291.16,518.86L291.73,520.76L293.07,520.89L292.18,522.12L293.07,523.05L292.58,527.31L293.68,528.1L294.25,532.07L292.85,532.4L292.61,534.7L290.94,535.47L290.88,536.43L288.56,536.9L288.13,538.26L286.83,537.79L288.12,539.79L286.26,540.8L283.89,544.48L282.08,544.61L279.35,546.37L278.29,552.7L277.45,554.76L276.54,554.56L276.36,556.27L276.36,556.27L271.64,555.27L268.98,556.64L267.12,550.27L267.75,548.36L265.41,549.14L265.52,547.51L264.73,546.92L264.07,548.4L262.74,548.29L262.71,547.25L263.86,546.48L260.61,540.67L257.48,538.27L254.52,539.19L252.96,536.3L252.96,536.3L252.43,535.38L254.66,533.97L252.96,530.38L255.39,524.83L259.25,521.26L260.13,523.33L261.43,522.9L261.78,523.85L263.05,523.78L265.05,522.15L263.86,520.69L266.04,519.83L264.69,517.69L261.11,516.6L261.3,514.83L258.66,513.01L258.72,512.02L257.18,511.9L257.37,513.05L255.62,512.56L257.77,510.92L255.87,509.51L258.25,509.55L258.79,506.56L257.79,504.94L255.6,504.83L255.38,502.66L260.29,500.62L259.63,499.24L260.39,494.62L258.08,495.03L257.44,494.32L259.51,492.84L258.7,487.27L256.9,487.31L256.43,483.63L256.93,481.94L260.66,480.21L261.11,478.41L261.11,478.41L262.65,475.25L262.4,469.88L262.92,468.85L264.34,469.09L264.77,467.8L264.5,464.39L266.43,460.74L268.28,462.04L267.69,460.85L268.63,460.44L268.7,458.27L270.68,456.8L270.6,453.5L272.07,452.4L272.87,453.26L274.06,452.19L274.66,452.59L275.06,451.63L276.23,452.06L276.6,453.5L279.17,451.27L281.19,451.3L282.04,449.2L284.27,448.49L284.41,443.75L287.98,441.86L287.94,439.13L291.66,438.54L292.4,437.68L293.13,433.52L291.3,431.88L290.19,432.33L289.57,431.29L288.74,431.53L287.48,428.83L285.62,429.3L283.71,428.03L281.01,429.4L280.23,427.54L282.69,424.53L280.83,421.52L281.08,420.3L282.15,419.88L284.68,422.47L287.49,421.08L290.19,422.27L293.5,421.53L293.97,422.58L300.04,423.1L300.28,422.19L302.89,421.45L302.98,420.28L306.15,419.02L306.15,419.02L308.89,421.01L311.99,420.96L314.14,419.98z"/>
		<path id="IN-DD" title="Daman and Diu" class="land" d="M52.08,491.06l1.42,-5.05l3.04,1l0.28,1.33l-1.74,0.77l1.66,0.59l-0.87,1.58l0.71,0.98l0,0l-1.38,0.42L52.08,491.06z"/>
		<path id="IN-DL" title="Delhi" class="land" d="M188.46,304.94L188.67,306.65L191.32,308.53L191.58,311.07L190.7,312.07L191.62,313.44L191.62,313.44L189.63,314.02L189.58,315.34L188.02,315.82L186.06,313.17L184.67,312.64L184.66,313.31L182.02,313.44L181.14,312.3L181.99,310.39L183.16,310.39L183.34,306.04L186.13,304.52L187.46,305.54z"/>
		<path id="IN-DN" title="Dadra and Nagar Haveli" class="land" d="M105.32,505.31L104.68,506.85L102.06,505.82L101.9,506.52L101.16,505.03L100.23,505.12L100.17,503.31L100.17,503.31L99.21,501.84L100.46,501.99L101.21,500.98L101.72,501.56L103.04,500.02L103.15,501.26L104.54,501.67L102.4,502.92L102.52,504.55L103.93,504.19L103.84,503.43L105.19,503.64z"/>
		<path id="IN-GA" title="Goa" class="land" d="M115.03,601.53l3.2,-0.29l0.68,-1.29l0.36,1.04l1.32,0.17l1.12,2.82l2.67,-0.85l0,0l1.34,-0.66l1.36,0.58l0.67,2.77l-0.65,0.79l1.79,4.24l-1.76,0.76l1.35,1.59l-1.08,4.68l-3.62,1.53l0,0l-3.88,-4.06l0.77,-1.33l-1.12,-4.01l-2.35,-1.7l2.39,-0.1l-2.29,-1.01l0.37,-0.72l-0.85,0.01L115.03,601.53z"/>
		<path id="IN-GJ" title="Gujarat" class="land" d="M30.18,453.09l0.19,1.19l-1.01,-0.69L30.18,453.09zM36.28,450.98l0.48,0.8l-1.66,-0.21L36.28,450.98zM38.17,450.07l0.38,0.57l-1.45,0.41L38.17,450.07zM7.79,433.78l1.13,0.39l-0.8,1.17l-0.75,-0.59L7.79,433.78zM6,430l0.23,1.76l-0.46,-1.15l-1.03,0.49L6,430zM3.61,422.62l1.42,0.23l-0.75,3.2l-1.58,1.62l-0.87,-0.78l-1.58,0.47l0.14,-1.16l1.36,-0.04l1.26,-1.69L3.61,422.62zM2.79,422.76l-0.12,1.3l-0.83,0.92l0.1,-1.72L2.79,422.76zM6.5,422.03l0.43,1.74l-1.66,0.35l0.22,-1.53L6.5,422.03zM4.83,421.42l0.2,1.08l-1.24,-0.08L4.83,421.42zM5.23,419.88l0.03,1.08l-1.83,0.74l0.06,-1.13L5.23,419.88zM7.36,419.76l0.22,0.32l0.7,0.14l-1.35,1.24l-0.33,-0.61L7.36,419.76zM6.19,418.35l0.76,1.56l-1.57,1.73l0.53,-1.88l-0.85,-0.15L6.19,418.35zM5.11,418.29l-1.79,2.15l-0.15,1.87l-1.51,0.6l-0.57,2.55l-0.96,-1.14l0.87,-1l-0.45,-1.36l3.08,-3.26L5.11,418.29zM61.16,402.63l3.99,1.67l1.12,-1.04l0.67,0.72l2.2,-1.19l2.69,0.07l0.94,0.86l2.88,-0.85l1.24,1.52l0.38,-1.63l1.42,1.11l2.27,-1.81l2.36,2.09l3.95,-0.08l-2.15,0.87l0.92,0.96l1.32,-0.32l0,0l0.59,1.19l1.18,-0.09l0,0l0.47,2.22l0.9,-0.06l0.77,-2.22l3.2,1.14l0.74,2.19l2.84,-0.1l1.17,0.9l1.41,-0.86l-0.59,-0.45l0.78,-1.99l1.97,-0.55l-0.2,2.29l1.78,1l1.29,-0.32l-1.81,1.3l-1.3,2.81l2.96,1.98l-0.52,1.07l0.98,0.93l2.67,-2.68l1.07,4.49l-1.31,1.58l0.01,1.69l3.06,1.91l0.1,1.97l1.34,-0.88l1.75,0.74l-0.59,3.87l1.5,-0.08l0.46,0.98l0.81,-1.04l1.41,0.27l1.3,2.49l1.61,-0.91l1.54,1.84l1.87,0.6l-0.14,2.05l1.17,0.6l1.32,-0.81l1.61,2.84l0,0l0.82,2.93l0.8,0.76l1.07,-0.56l0.57,1.48l-1.98,4.86l-2.49,-0.03l-2.35,2.87l-1.81,-0.75l-0.67,0.96l1.06,0l0.79,1.98l1.42,-1.28l2.16,1.88l-1.83,0.6l-0.33,1.03l-2.49,-0.86l0.08,3.11l0.98,0.2l0.16,2.59l1.06,0.25l-1.74,1.6l1.01,1.38l0,0l-7.02,2.93l1.8,2.76l-0.22,1.24l-2.05,0.45l1.53,2.89l4.38,-1.43l2.9,0.63l2.04,-0.76l0.46,1.55l-4.58,1.07l-0.87,-0.76l-0.39,1.4l-2,0.38l-0.09,2.34l-2.44,0.67l-0.2,2.13l-3.9,0.88l0.49,0.54l1.94,-0.13l0.47,2.31l2.76,0.61l0.9,5.37l-2.66,1.08l0.33,1.74l-3.51,1.19l-4.54,-3.29l-1.07,1.51l2.05,2.28l-2.29,3.33l0.81,4.08l-2.49,-0.02l-0.46,1.28l-1.52,0.61l0,0l-0.13,-1.67l-1.34,-0.21l0.09,0.76l-1.42,0.36l-0.12,-1.62l2.14,-1.26l-1.38,-0.41l-0.11,-1.24l-1.32,1.55l-0.51,-0.58l-0.75,1.01l-1.25,-0.15l0.96,1.47l0,0l-2.01,-0.3l-0.82,1.8l-2.05,0.18l0,0l0.38,-3.45l2.97,-6.55l-2.17,-7.97l-0.35,0.68l-1.12,-2.99l0.99,-0.4l-1.37,-0.16l0.33,-1.54l-1.12,-0.27l-0.83,1.78l-0.83,-4.81l2.45,-5.38l-1.66,0.89l-0.59,-1.34l0.65,-1.44l4.33,-1.14l-6.23,0.08l-0.63,-0.83l1.31,-2.75l-1.09,-0.75l-0.32,-2.19l1.66,-5.52l1.37,-0.37l2.23,0.99l1.15,-1.64L95.6,458.23l-2.47,-1.21l-1.95,0.93l-1.02,0.14l-2.17,-1.65l0.58,1.87l-0.35,0.63l-0.17,0.71l-0.75,-0.34l-0.67,1.19l-0.95,4.45l-0.77,-2.64l-0.19,0.72l-0.05,0.21l1.59,8.52l-1.73,4.25l-2.39,3.48l-0.69,-0.44l0.79,2.37l-2.22,1.43l-0.65,0.26l-3.56,1.85l-6.11,2l-1.56,1.75l-1.31,-0.09l-4.78,2.59l-5.47,1.07l0,0l-0.71,-0.98l0,0l0,0l0,0l0.88,-1.58l-1.66,-0.59l1.74,-0.77l-0.28,-1.33l-3.04,-1l-1.42,5.05l0,0l-4.91,-1.99l-7.11,-5.62l-8.1,-9.48l1.07,-1.11l-0.55,-1.61l-1.3,0.26l0.87,0.82l-0.26,1.41l-9.9,-9.05l-5.75,-6.63l-0.45,-1.67l2.75,-3.78l0.03,1.9l2.62,-0.63l-0.76,2.5l1.57,1.24l2.12,-1.62l3.17,-0.14l0.81,-1.16l0.8,0.71l1.94,-0.07l0.93,-0.82l-0.57,-1.24l1.18,-0.52l1.45,1.66l0.81,-1.22l2.54,-0.93l-0.1,-0.77l4.4,-0.49l6.92,-11.83l-1.92,1.01l-1.13,2.27l-2.3,-1.11l-2.4,0.43l0.19,0.82l-6.98,1.67l-1.94,2.49l-10.65,-2.21l-12.68,-8.49l1.68,-1.27l-3.55,-4.45l-0.28,-3.77l5.2,-4.81l-2.77,0.13l-1.65,1.84l-0.23,-1.54l3.1,-2.12l-2.19,-0.14l-0.25,-0.89l4.24,0.03l0.49,-7.58l1.13,-0.33l0.45,2.28l0.83,0.29l1.25,-1.84l1.12,1.16l1.94,-0.99l2.24,0.77l2.31,-0.95l6.08,-0.03l2.59,2.35l5.78,0.2l2.48,-2.84l9.54,-2.96l0.78,0.45L50,412.43l4.85,0.68l1.85,-0.78l-0.19,-0.77l1.56,-1.27l1.83,-0.02l1.77,-1.25l-2.59,-0.92l-0.2,-2.27l0.47,-2.04L61.16,402.63z"/>
		<path id="IN-HP" title="Himachal Pradesh" class="land" d="M160.94,215.02L162.01,213.35L161.77,210.54L159.31,207.74L159.58,206.26L162.47,207.36L165.57,204.39L168.57,203.7L171.81,199.87L175.07,199.3L176.73,200.47L178.89,200.05L179.9,198.15L180.95,198.38L180.43,200.64L181.97,201.67L182.82,203.68L184.51,204.77L187.4,205L187.6,206.65L188.18,206.22L191.41,208.98L192.66,207.35L194.08,207.95L198.47,204.86L199.46,205.21L201.09,206.86L200.49,207.87L203.71,210.32L203.46,212.13L205.12,214.76L206.23,214.63L206.19,213.55L209.94,212.72L213.26,210.42L213.62,213.85L211.69,214.99L211.31,216.71L211.98,217.5L213.49,216.17L214.08,216.61L214.08,216.61L216.34,218.91L214.68,223.16L217.9,223.84L217.99,226.22L221.63,229.23L219.96,234.29L220.86,236.78L221.81,236.83L222.88,238.65L220.28,241.02L222.14,242.63L221.74,243.88L224.47,247.35L224.47,247.35L226.35,250.85L223.73,251.05L222.13,248.67L219.04,248.92L217.95,247.91L215.33,248.7L212.94,246.58L205.78,249.89L204.54,249.31L203.13,249.9L201.31,252.15L201.65,254.79L199.92,254.64L200.16,255.55L201.2,255.51L201.07,257.09L200.13,256.54L198.96,259.27L200.86,261.82L200.92,262.89L199.82,263.4L201.52,264.98L196.33,268.09L196.33,268.09L196.58,268.57L196.58,268.57L195.22,267.02L194.74,267.89L193.26,267.99L193.98,266.62L192.93,267.74L191.79,266.7L188.79,266.26L186.88,264.15L187.84,263.37L187.72,261.17L186.15,259.85L184.82,259.92L184.5,258.17L183.58,258.24L182.5,256.15L181.45,256.8L180.57,255.35L179.73,255.93L179.73,255.93L176.38,253.56L176.71,250.98L175.97,249.21L176.71,248.13L175.76,248.39L175.55,246.84L174.81,247.44L173.38,246.11L172.63,246.77L171.21,242.91L169.81,245.89L167.23,246.19L166.43,244.85L166.82,243.57L161.97,233.71L163.01,233.77L161.4,230.45L157.11,227.71L154.79,227.21L156.53,225.17L155.65,224.67L155.7,223.45L158.09,222.48L162.19,218.96L160.49,216.71z"/>
		<path id="IN-HR" title="Haryana" class="land" d="M179.73,255.93L180.57,255.35L181.45,256.8L182.5,256.15L183.58,258.24L184.5,258.17L184.82,259.92L186.15,259.85L187.72,261.17L187.84,263.37L186.88,264.15L188.79,266.26L191.79,266.7L192.93,267.74L193.98,266.62L193.26,267.99L194.74,267.89L195.22,267.02L196.58,268.57L196.58,268.57L196.49,270.34L193.41,273.78L193.22,275.26L190.21,276.68L187,283.34L187.55,284.9L186.32,289.03L187.46,291.22L187.06,293.43L187.77,293.77L187.1,299.25L189.03,301.63L188.46,304.94L188.46,304.94L187.46,305.54L186.13,304.52L183.34,306.04L183.16,310.39L181.99,310.39L181.14,312.3L182.02,313.44L184.66,313.31L184.67,312.64L186.06,313.17L188.02,315.82L189.58,315.34L189.63,314.02L191.62,313.44L191.62,313.44L194.48,315.7L194.33,319.11L195.88,319.63L195.41,320.71L194.79,320.47L195.9,321.19L194.36,323.45L195.8,326.47L190.32,330.04L190.32,330.04L189.4,330.52L188.6,329.67L188.08,330.55L187.7,329.82L187.19,330.74L185.35,329.72L184.98,330.71L186.2,331.64L184.41,331.56L183.93,333.55L182.51,333.52L182.12,331.82L183.74,322.08L181.41,320.12L180.39,320.48L180.18,321.76L177.24,323.19L177.43,325.03L174.88,326.17L174.88,324.55L173.11,324.3L174.03,323.95L173,323.28L174.03,322.96L173.47,321.82L171.5,322.22L169.45,321.26L171.05,322.44L169.83,323.09L171.03,323.73L170.75,324.63L167.32,324.08L168.08,324.73L166.85,325.5L168.28,329.23L167.23,330.01L165.45,328.58L162.83,328.67L163.13,327.62L162.01,327.05L162.83,326.96L162.98,324.75L164.35,323.73L163.28,324.28L162.27,323.27L164.19,321.4L165.55,321.81L161.98,316.76L158.8,315.84L158.96,314.66L155.84,312.56L155.61,311.23L154.3,310.94L152.45,303.53L153.37,301.52L151.77,301.38L150.23,298.38L150.95,295.53L149.26,296.15L149.35,294.77L147.35,296.17L146.44,295.37L144.3,296.23L143.5,294.93L141.69,295.05L141.14,293.07L139.34,292.13L137.57,293.28L135.34,292.89L135.17,293.87L134.2,293.94L132.81,291.04L133.85,290.83L134.59,289.19L133.59,288.32L134.41,283.77L131.61,283.99L131.47,282.94L133.32,281.07L132.3,280.06L132.6,279.2L132.6,279.2L135.28,280.13L136.19,278.58L138.5,278.02L140.9,279.06L142.46,281.29L144.44,279.88L144.56,282.48L145.89,283.1L146.49,281.71L147.5,283.8L145.97,285.94L147.3,287.28L147.35,288.73L148.87,288.21L149.32,285.75L150.01,286.02L149.69,285.19L151.97,282.46L154.58,284.02L155.76,283.29L157.27,283.72L157.45,282.44L158.82,282.04L161.08,283.92L164.35,283.92L165.23,282.51L168.67,280.99L167.09,279.55L167.88,279.18L167.6,277.44L168.95,275.32L167.6,274.59L167.88,274.01L170.37,275.23L170.43,274.25L171.77,274.77L172.19,272.97L173.07,275.41L176.19,275.91L176.98,272.88L175.83,271.66L174.76,272.37L175.07,271.46L178.58,269.82L179.07,269.17L178.27,268.35L179.47,267.26L180.53,267.91L181.04,267.38L182.04,269.17L183.02,268.47L182.22,267.2L182.73,263.37L180.77,261.28L180.77,261.28L180.95,259.39L180.95,259.39L181.34,258.7z"/>
		<path id="IN-JH" title="Jharkhand" class="land" d="M320.6,406.15L325.18,406.65L328.35,406.01L329.61,405.67L330.95,403.6L332.09,404.19L333.41,407.19L334.17,405.84L334.86,406.53L335.05,405.5L336.5,406.06L337.25,405.25L337.94,406.7L337.25,407.89L341.45,411.63L342.03,409.6L343.1,408.77L344.89,409.2L345.33,407.76L347.76,406.09L348.58,407.85L349.54,407.62L349.91,409.69L353.64,408.14L353.92,409.53L355.6,408.38L355.2,407.61L357.95,406.83L357.97,406.15L362.24,405.6L362.9,406.2L364.12,404.41L365.97,404.89L365.65,402.48L367.48,399.37L370.43,399.89L371.95,401.45L374.05,400.36L373.81,401.24L375.59,402.07L375.78,404.4L379.75,404.84L378.83,407.63L382.46,409.77L383.58,406.36L385.61,404.36L386.98,405.38L389.26,404.02L389.74,405.29L392.07,405.88L392.46,403.49L394.98,404.32L395.57,399.38L397.24,397.93L397,394.74L398.35,393.24L400.02,393.25L400.7,390.17L403.81,390.82L404.01,388.51L405.23,388.82L406.07,387.28L410.42,390.23L410.42,390.23L410.19,393.2L414.31,397.68L411.06,400.67L412.79,401.69L413.05,403.13L412.2,404.23L412.98,404.62L411.69,405.6L410.04,404.89L411.16,406.89L410.89,408.9L409.76,411.26L407.24,412.65L408.36,414.77L405.85,414.63L406.65,415.24L405.99,416.24L404.26,415.56L404.62,417.28L403.01,417.99L403.52,418.61L398.91,417.24L400.09,420.49L399.59,421.08L399.12,420.3L399.01,422.14L396.67,421.21L397.41,422.29L396.53,422.85L391.73,420.92L391.46,422.41L391.23,421.73L389.59,422.02L390.15,423.62L389.57,425.3L382.2,426.61L379.27,431.37L378.08,431.38L377.99,430.24L376.03,430.17L376.02,428.02L373.97,427.65L373.21,428.38L373.98,429.7L371.81,430.59L370.18,430.23L370.8,432.49L369.35,434.93L369.46,436.47L371.21,437.96L373.76,437.64L377.44,441.07L384.3,441.18L383.84,442.15L382.05,442.62L382.68,443.22L381.7,445.94L383.6,447.63L384.28,447.2L385.93,448.27L386.63,450.47L388.9,450.54L389.71,452.2L388.6,452.72L388.95,453.86L390.66,454.52L390.35,456.12L391.54,456.81L391.53,457.76L389.53,457.52L389.74,458.62L388.12,458.58L388.12,458.58L383.46,455.76L382.06,456.64L378.85,453.4L375.23,452.52L373.79,450.74L372.01,453.17L373.17,453.88L372.84,455.82L373.89,456.54L372.35,457.95L373.55,459.26L371.01,464.17L367.98,463.65L368.55,461.69L369.44,461.69L368.84,460.93L366.32,462.33L365.55,461.39L363.35,461.48L360.31,459.86L358.33,461.02L356.89,463.41L354.05,461.19L351.63,461.52L352.55,460.91L353.53,457.3L354.45,456.89L353.36,452.66L349.83,454.02L348.02,453.37L346.69,454.1L342.14,453.98L340.03,455.58L337.17,455.84L334.3,454.41L333.94,452.83L331.16,451.7L331.16,451.7L332.79,449.1L335.73,448.37L335.83,446.87L338.86,443.95L339.26,442.27L338.87,441.45L335.66,441.42L335.09,440.35L334.21,441.7L333.82,439.04L331.82,437.75L332.58,433.41L332.02,432.42L330.4,432.25L331.59,428.55L331.26,426.55L329.81,426.78L329.76,428.13L326.4,427.3L325.14,425.41L324.73,422.27L321.92,421.31L320.78,417.54L316.95,415.87L316.95,415.87L318.59,412.11L318.04,411.01L319.62,409.86L318.55,408.85L318.4,406.74z"/>
		<path id="IN-JK" title="Jammu and Kashmir" class="land" d="M203.38,143.31L205.29,141.79L207.78,142.06L205.42,144.18L205.31,145.34L206.38,149.07L208.08,150.78L207.22,152.13L210.68,161.97L213.82,163.15L214.38,164.29L217.4,164.08L226.03,171.14L225.5,174.04L220.27,177.7L221.61,179.02L220.38,181.47L221.9,185.28L220.37,188.18L222.72,192.47L227.81,197.15L227.99,198.82L235,200.07L233.8,205.03L235.81,207.26L238.24,212.68L237.84,214.25L235.8,214.77L232.96,217.22L231.83,216.32L230.67,216.63L229.07,217.78L228.61,220.07L227.45,219.78L225.94,220.78L221.84,217.51L221.1,212.05L218.58,214.25L214.96,214.94L214.08,216.61L214.08,216.61L213.49,216.17L211.98,217.5L211.31,216.71L211.69,214.99L213.62,213.85L213.26,210.42L209.94,212.72L206.19,213.55L206.23,214.63L205.12,214.76L203.46,212.13L203.71,210.32L200.49,207.87L201.09,206.86L199.46,205.21L198.47,204.86L194.08,207.95L192.66,207.35L191.41,208.98L188.18,206.22L187.6,206.65L187.4,205L184.51,204.77L182.82,203.68L181.97,201.67L180.43,200.64L180.95,198.38L179.9,198.15L178.89,200.05L176.73,200.47L175.07,199.3L171.81,199.87L168.57,203.7L165.57,204.39L162.47,207.36L159.58,206.26L159.31,207.74L161.77,210.54L162.01,213.35L160.94,215.02L160.94,215.02L160.94,215.02L160.94,215.02L157.57,218.92L153.75,220.63L153.16,222.43L152.56,220.85L149.42,220.92L149.42,220.92L143.44,217.1L142.24,218.19L139.22,216.99L136.35,217.27L135.18,214.16L136.32,208.49L135.17,208.91L134.59,210.52L132.86,210.95L131.49,209.94L130.4,206.9L128.39,206.51L129.05,204.11L126.03,203.44L124.07,200.42L122.03,199.58L122.15,198.07L123.89,197.78L125.3,195.88L125.65,193.16L123.73,190.29L122.33,190.19L120.81,186.54L123.11,184.04L126.33,182.86L127.23,180.17L126.22,178.55L124.32,178.13L121.86,178.96L119.28,178.26L121.23,172.85L119.62,170.45L116.77,170.46L117.06,169.03L120.64,165.06L120.51,162.43L122,161.6L124.7,162.07L128.16,159.3L129.59,159.22L133.88,160.07L136.45,162.02L140.79,162.27L143.06,163.33L147.9,163.18L150.58,165.59L158.35,166.51L164.37,162.6L166.91,163.28L173.54,159.45L177.88,160.34L179.17,158.29L179.3,156.1L181.82,154.93L184.49,155.78L184.92,153.25L187.83,152.84L201.8,141.43z"/>
		<path id="IN-KA" title="Karnataka" class="land" d="M124.37,603.13l-0.62,-0.44l0.71,-1.02l2.03,-1.46l0.48,0.96l2.4,-0.7l0.51,-1.52l-0.94,-0.17l0.62,-0.85l0.37,-0.21l1.64,-3.02l-2.14,-0.27l1.39,-1.25l1.14,0.51l0.5,-2.19l-1.92,-2l-1.83,0.27l-0.17,-2.41l0.91,-0.33l-1.15,-2.34l0.32,-1.11l1.27,0.56l1.83,-2.88l1.55,0.6l0.47,1.76l2.44,-1.14l-0.62,-0.72l0.79,-1.69l4.72,-1.19l-0.25,-1.87l1.16,-1.07l-0.6,-0.77l3.18,-0.17l2.63,2.36l1.4,-0.74l0.12,-1.75l3.76,-0.66l0.52,0.92l1.63,-0.45l0.11,-0.96l2.07,1.03l-0.65,-1.66l0.73,-1.26l-1.06,-1.65l0.67,-1.99l-1.7,-2.65l0.78,-0.19l0.41,-1.87l3.49,2.34l0.47,-1.15l0.78,0.81l0.53,-0.69l0.92,2.03l3.09,-0.13l0.89,-0.79l1.14,1.51l-0.07,-1.12l1.51,-0.56l0.66,0.96l1.42,-0.42l0.8,0.83l0.55,-1.25l-0.96,-0.13l0.23,-1.29l-0.83,0.05l0.87,-1.33l-0.66,-0.02l-0.25,-2.19l3.3,-1.44l0.72,-2.15l1.04,-0.02l0,1.26l0.86,-1.44l1.59,1.93l0.53,-2.23l1.52,-0.97l-0.99,-1.56l1.3,0.65l2.38,-1.02l0.79,-5.9l3.24,0.71l-0.28,-0.93l2.32,-1.81l0.71,-2.87l1.62,-0.99l1.94,1.43l-1.07,1.71l1.62,0.09l0.61,1.02l0.92,-1.02l0.85,0.34l0,0l1.11,0.29l-0.81,1.7l0.76,2.22l-1.15,1l2.25,1.85l-2.98,3.67l1.07,1.19l-2.34,1.22l-0.22,2.4l1.29,0.89l1.85,-0.48l1.97,1.96l-0.65,-0.66l-0.88,1.29l-2.1,0.37l0.37,1.2l-1.6,0.04l0.06,2.06l-1.55,1.22l-0.43,1.27l2.15,1.25l0.77,2.11l-0.96,2.14l0.37,2.82l-0.7,-0.09l-0.3,1.49l0.91,0.06l-0.04,0.73l-1.01,0.34l1.11,0.35l-0.11,1.36l-1.52,0.41l0.5,1.03l-1.03,0.73l-2.75,0.35l2.26,1.92l5.21,0.92l-0.03,1.1l-2.15,0.8l0.46,7.12l0,0l-7.66,-0.43l-2.54,2.35l0.87,0.19l-0.43,1.92l1.71,1.63l-0.18,0.73l-1.82,-0.19l-0.06,2.89l-1.18,0.2l1.91,3.65l1.01,-0.12l1.14,1.47l-0.91,0.82l0.69,2.17l-1.57,2.6l-6.38,-1.54l-0.22,2.19l2.11,0.13l-0.33,3.44l-1.43,0.53l-0.42,3.81l2.3,2.87l2.16,-0.21l-0.67,1.69l-1.22,0.2l-0.08,0.94l1.49,1.13l-0.26,1.16l3.5,0.58l0.99,-2.67l2.7,0.14l-0.03,1.18l1.67,0.15l0.51,1.66l0.67,-0.43l-0.63,-2.42l2.32,1.14l0.09,2.59l-2.32,-0.31l-0.88,0.88l-0.07,0.61l1.07,-0.16l-1.45,1.73l2.19,1.16l-0.81,1.91l-0.91,-0.36l0.11,-1.84l-0.84,-0.91l-3.48,0.71l-0.55,-1.08l-2.04,-0.24l-0.08,-2.56l-2.69,0.3l1.75,2.01l-0.92,0.91l2.19,2.08l-1.41,2.38l0.51,1.54l0.71,-0.62l0.71,0.7l2.23,-0.34l-0.89,-2.03l1.11,-1.46l0.04,1.23l1.15,-0.75l0.35,1.19l3.65,0.09l0.53,3.41l1.31,-0.21l0.15,-1.25l2.13,0.35l0.58,-1.04l1.25,0.92l0.09,-1.24l2.4,-1.5l-0.2,-1.59l1.95,0.81l1.15,-1.14l-0.46,2.8l2.02,-1.43l1.52,0.98l-0.17,3.35l-0.98,0.37l0.47,0.68l1.57,-0.29l0.8,0.7l-0.22,1.28l4.35,-0.46l-0.75,4.77l0.88,0.49l-0.64,0.26l2.19,0.26l1.03,1.12l0.73,-0.94l0.28,3.06l-2.46,2.67l0.13,1.46l-0.74,-0.11l0.66,2.46l-0.39,-1.01l-1.89,-0.58l-0.89,1.73l-1.3,0l-0.43,2.02l0,0l-2.09,-0.37l-1.55,-1.54l-0.95,1l-1.17,-1.15l-0.43,0.76l-0.15,-1.38l-2.78,0.95l0.31,1l-1.42,2.62l-2.95,0.14l-0.42,2.12l0.76,1.24l-0.65,0.67l1.04,-0.19l-0.11,1.47l-1.62,2.66l-1.52,0.47l-0.09,1.27l5.46,0.74l0.88,1.31l-2.26,3.56l-3.69,0.12l-1.36,3.86l-3.72,-1.1l-2.91,0.84l0.14,1.07l-2.2,-1.92l-0.94,0.8l-1.25,-0.38l-1.49,2.96l0.18,1.48l-5.8,-0.76l-1.17,-1.87l-1.69,0.82l0,0l-0.33,-2l-1.52,0.48l-3.16,-2.83l-1.59,0.27l0,-2.54l-2.38,1.01l-2.46,-0.37l-1.61,-2.77l-1.73,0.19l-2.94,-1.89l-1.97,-2.88l-1.33,0l0.05,-1.71l-1.17,-0.86l1.02,-1.91l-1.54,0.87l-1.25,-1.32l-0.09,-0.98l1.07,-0.45l-1.07,-0.56l-1.13,1.05l-0.45,-1.33l-1.22,-0.17l0.16,-0.92l-1.35,-0.46l-0.8,0.8l0.04,-1.16l-1.36,-0.32l0.16,-1.29l-2.62,0.77l0,0l-3.6,-12.67l-1.85,-11.11l-2.2,-3.35l-3.09,-10.31l0.83,-0.61l-1.75,0.23l-0.9,-4.18l-3.58,-1.8l0.75,-1.02l-0.7,-1.06l0,0l3.62,-1.53l1.08,-4.68l-1.35,-1.59l1.76,-0.76l-1.79,-4.24l0.65,-0.79l-0.67,-2.77l-1.36,-0.58L124.37,603.13z"/>
		<path id="IN-KL" title="Kerala" class="land" d="M139.88,665.29l2.62,-0.77l-0.16,1.29l1.36,0.32l-0.04,1.17l0.8,-0.8l1.35,0.46l-0.16,0.92l1.22,0.18l0.45,1.33l1.13,-1.04l1.07,0.56l-1.07,0.45l0.09,0.98l1.25,1.32l1.54,-0.87l-1.02,1.91l1.17,0.86l-0.05,1.71l1.33,0.01l1.97,2.88l2.94,1.89l1.73,-0.19l1.61,2.77l2.46,0.37l2.38,-1.01l0,2.54l1.59,-0.27l3.16,2.83l1.52,-0.48l0.33,2l0,0l-1.54,1.63l-2.6,0.39l0.3,2.23l3.57,0.55l2.68,1.74l0.04,1.26l-1.96,1.31l0.13,1.07l5.71,-0.61l-0.72,1.37l1,0.49l-0.03,1.56l1.16,0.11l-1.8,0.23l-1.2,2.27l3.53,1.32l1.67,1.93l-0.52,2.99l-1.42,0.07l0.31,7.01l3.16,1.83l4.02,-2.91l1.24,0.13l1.22,2.81l-0.43,1.86l-1.51,0.56l1.49,2.94l-1.25,1.85l0.73,1.64l-1.72,3.85l2.16,0.87l1.8,-0.63l1.16,2.08l-2.71,4.34l-0.31,3.12l-2.5,2.76l2.32,3.21l-1.83,2.56l2.3,4.21l-1.65,0.93l0.48,1.17l-1.56,1.24l0.52,1.39l-1.32,0.3l0,0l-2.55,-1.83l-8.97,-10.88l-4.36,-10.82l-2.01,-11.08l2.33,2.55l0.08,6.22l3.03,-0.12l-1.8,-0.73l-0.81,-6.31l-0.78,-1.15l-0.45,0.65l-2.37,-5.46l0.38,3.59l-10.22,-29.13l-1.11,-2.02l-1.37,-0.61l-1.57,-4.35l-3.91,-3.78l-1.87,-3.11l-1.35,0.01L139.88,665.29z"/>
		<path id="IN-LD" title="Lakshadweep" class="land" d="M102.24,759.4l-0.04,0.47l-0.37,0.4l-0.37,0.01l-0.27,-0.1l-0.01,-0.13l0.12,0.11l0.36,-0.03l0.31,-0.18L102.24,759.4zM114.43,721.54l-0.08,0.91l-0.13,0.09l-0.13,-0.32l0.12,0.02l0.09,-0.13L114.43,721.54zM86.72,720.86l0.08,0.25l-0.12,-0.04L86.72,720.86zM114.63,720.45l0.09,0.3l-0.06,0.25L114.63,720.45zM93.3,711.54l0.15,0.11l-0.01,0.22l-0.7,0.45L93.3,711.54zM115,706.37l-0.03,0.08l0.54,0.06l-0.62,0.22l-0.23,-0.08l-0.01,-0.19L115,706.37zM83.47,706.41l0.34,-0.62l0.11,-0.45l0.13,-0.15l0.12,0.01L83.47,706.41zM85.95,703.74l-0.06,0.05l0.06,0.16l-0.14,0.02l0.03,-0.2L85.95,703.74zM86.69,703.58l-0.27,0.21l0.03,-0.11L86.69,703.58zM95.17,699.7l0.03,0.18l-0.27,0.37l-0.1,-0.13l0.02,-0.18L95.17,699.7zM82.01,698.03l0.03,0.05l-0.09,-0.04L82.01,698.03zM96.4,697.08l-0.25,0.9l-0.35,0.79l0.35,-1.29L96.4,697.08zM100.79,692.03l0.19,0.22l0.05,0.34l-0.08,0.08l-0.12,-0.51l-0.1,-0.08L100.79,692.03zM83.75,689.84l0.06,0.11l-0.09,-0.03L83.75,689.84zM94.8,687.6l0.05,0.3l-0.24,0.24L94.8,687.6z"/>
		<path id="IN-MH" title="Maharashtra" class="land" d="M124.79,464.45l3.01,0.41l3.27,-2.04l0.06,1.24l1.65,1.4l-0.34,4.08l1,1l4.86,1.6l2.32,-0.44l3.26,1.46l1.2,2.36l2.19,1.09l18.4,0.83l1.55,4.15l-1.23,0.53l1.23,1.79l4.27,0.16l1.6,-0.84l0.73,-1.81l2.85,0.08l0.79,-2l-0.76,-1.18l3.34,-2.94l0.23,-2.93l2.22,-0.07l3.58,-2.73l2.83,0.65l1.59,-0.68l0.06,-0.86l3.96,-0.19l1.4,1.58l1.36,3.54l-3.98,0.22l1.47,3.48l2.04,0.3l2.23,-0.73l0.9,0.72l1.37,-1.06l2.92,0.57l4.83,-2.5l0.24,-1.35l1.78,-0.8l1.99,0.36l0.39,-0.9l0.9,0.37l0.16,2.24l1.64,-0.6l4.42,1.43l0.56,-0.65l0.54,0.6l3.34,-0.45l-0.39,-2.35l3.66,-0.15l1.25,-1.37l1.51,0.22l0.18,-1.64l5.44,1.12l1.01,2.91l4.1,-1.31l3.84,1.75l0.43,-0.72l2.66,0.05l2.61,-1.78l1.51,0.31l2.31,2.22l0.69,3.23l1.72,-0.47l2.25,1.63l1.33,-0.13l0,0l-0.44,1.8l-3.73,1.73l-0.5,1.69l0.47,3.68l1.81,-0.04l0.8,5.57l-2.06,1.48l0.63,0.71l2.31,-0.42l-0.76,4.63l0.67,1.38l-4.92,2.04l0.23,2.17l2.18,0.11l1.01,1.62l-0.54,2.99l-2.39,-0.04l1.91,1.41l-2.15,1.64l1.75,0.49l-0.19,-1.16l1.53,0.12l-0.06,0.99l2.64,1.82l-0.19,1.77l3.58,1.1l1.35,2.14l-2.18,0.86l1.2,1.45l-2,1.64l-1.27,0.07l-0.35,-0.95l-1.29,0.43l-0.89,-2.07l-3.86,3.57l-2.42,5.55l1.69,3.6l-2.23,1.41l0.53,0.92l0,0l-3.28,0.92l-4.54,-3.4l0.94,-0.62l-0.09,-3.58l-1.57,-0.28l-0.03,-1.53l1.78,-1.46l-0.48,-1.23l1.11,-3.85l-3.93,-4.25l-3.05,0.41l-0.87,1.57l-1.16,-0.99l-1.51,1.13l-4.74,-2.54l-0.44,3.2l-0.94,0.16l-1.57,-1.48l-3.1,-0.53l0.3,-2.15l-2.31,-0.16l-0.28,-2.26l-5.07,-1.31l-2.3,0.54l-3.65,-2.71l-0.53,1.46l1.54,1.52l-2.05,2.61l0.86,1.3l-0.67,1.02l0.62,2.25l-2.65,0.99l-0.25,3.87l-2.49,-0.12l-2.14,-2.19l-1.84,0.86l0.94,0.77l-1.24,1.55l0.03,2.36l-0.95,-0.26l-0.95,1.62l3.88,4.54l-2.2,0.33l-1.07,2.71l-0.6,-0.5l-0.52,0.68l0.08,2.66l-2.92,0.16l0.08,1.61l-1.15,0.24l0.82,0.39l-1.24,0.4l0.61,0.21l-0.75,1.5l0.99,0.69l-0.35,0.58l0,0l-0.85,-0.34l-0.92,1.02l-0.61,-1.02l-1.62,-0.09l1.07,-1.71l-1.94,-1.43l-1.62,0.99l-0.71,2.87l-2.32,1.82l0.28,0.93l-3.24,-0.7l-0.79,5.91l-2.38,1.02l-1.3,-0.65l0.99,1.56l-1.52,0.98l-0.53,2.23l-1.59,-1.93l-0.86,1.45l0,-1.26l-1.04,0.02l-0.72,2.15l-3.3,1.44l0.25,2.19l0.66,0.02l-0.87,1.34l0.83,-0.05l-0.23,1.29l0.97,0.13l-0.55,1.25l-0.8,-0.83l-1.42,0.42l-0.66,-0.96l-1.51,0.56l0.07,1.12l-1.14,-1.51l-0.89,0.79l-3.09,0.13l-0.92,-2.03l-0.53,0.69l-0.78,-0.81l-0.47,1.15l-3.49,-2.34l-0.41,1.87l-0.78,0.2l1.7,2.65l-0.67,1.99l1.06,1.65l-0.73,1.26l0.65,1.66l-2.07,-1.03l-0.11,0.96l-1.63,0.45l-0.51,-0.92l-3.76,0.67l-0.12,1.75l-1.4,0.74l-2.63,-2.35l-3.18,0.17l0.6,0.78l-1.16,1.07l0.25,1.87l-4.72,1.19l-0.79,1.69l0.63,0.72l-2.44,1.14l-0.47,-1.76l-1.55,-0.6l-1.83,2.89l-1.27,-0.56l-0.32,1.12l1.15,2.34l-0.91,0.33l0.18,2.41l1.83,-0.27l1.92,2l-0.5,2.19l-1.14,-0.5l-1.39,1.25l2.14,0.27l-1.64,3.02l-0.37,0.21l-0.62,0.86l0.94,0.17l-0.51,1.52l-2.4,0.7l-0.48,-0.96l-2.02,1.47l-0.71,1.02l0.62,0.44l0,0l-2.67,0.85l-1.12,-2.82l-1.32,-0.17l-0.35,-1.04l-0.68,1.29l-3.2,0.29l0,0l-1.88,-4.07l-1.69,-0.54l-1.14,-2.53l-1.83,-6.7l-0.05,-0.73l-1.04,-2.52l0.5,-2.71l-1.31,-5.52l0.36,-2.04l-0.84,-0.9l0.92,-1.11l-2.28,-4.8l1.15,-0.18l-1.61,-2.13l0.81,-0.74l-1.43,-2.55l0.65,-0.58l-1.94,-6.87l-1.8,-3.46l-0.05,-3.06l-1.19,-0.55l0.7,-1.31l-1.06,-1.64l-0.39,-2.58l0.69,-1.52l-1.53,-3.4l0.3,-2.37l2.37,-0.11l0.13,-1.24l-1.3,0.33l-0.39,-1.12l1.04,-0.14l-0.04,-1.44l1.61,-0.55l-1.46,-1.3l-1.12,1.47l-0.99,-0.26l-0.81,1.35l-0.66,-0.2l0.97,-1.95l-1.22,-2.8l0.4,-3.64l-1.14,-2.9l0.87,-1.39l-1.42,-0.28l0.41,-1.31l-1.83,-5.34l1.82,-6.58l0,0l2.05,-0.18l0.82,-1.8l2.01,0.3l0,0l0.06,1.81l0.93,-0.09l0.74,1.49l0.16,-0.69l2.62,1.02l0.64,-1.53l0,0l1.52,-0.61l0.46,-1.28l2.49,0.02l-0.81,-4.08l2.29,-3.33l-2.05,-2.27l1.07,-1.51l4.54,3.29l3.51,-1.19l-0.33,-1.74l2.66,-1.08l-0.9,-5.36l-2.75,-0.61l-0.47,-2.31l-1.94,0.13l-1.5,-1.33l1.01,0.79l3.9,-0.88l0.2,-2.13l2.44,-0.67l0.09,-2.34l2,-0.38l0.39,-1.4l0.88,0.76l4.58,-1.07l-0.46,-1.55l-2.04,0.76l-2.9,-0.63l-4.38,1.43l-1.53,-2.89l2.05,-0.45l0.23,-1.24l-1.8,-2.76L124.79,464.45z"/>
		<path id="IN-ML" title="Meghalaya" class="land" d="M454.02,382.77L457.1,381.43L454.49,378.36L455.8,377.45L455.58,376.29L459.23,373.13L460.56,373.52L466.73,371.88L467.93,373.2L467.47,374.63L468.94,373.16L469.82,374.57L471.1,373.37L472.39,373.22L472.25,374.19L473.03,374.35L473.7,373.34L475.98,374.24L476.48,373.44L477,374.84L478.29,374.82L477.69,376.34L481.79,375.49L481.45,377.41L482.37,378.63L484.66,375.96L488.68,375.17L487.62,375.21L489.74,371.46L490.91,371.71L490.48,373.62L491.69,374.42L492.76,373.29L492.99,370.86L494.83,369.48L496.02,369.96L496.99,372.24L498.43,371.28L504.84,370.39L501.89,373.51L502.04,374.27L503.34,374.38L501.82,376.56L501.98,379.82L506.68,377.93L510.6,382.39L512.3,381.66L510.5,384.54L515.04,387.65L514.63,389.57L515.46,390.26L512.58,391.23L511.63,392.6L509.6,392.08L509.98,393.01L508.76,392.82L508.32,394.45L507.53,394.57L507.53,394.57L500.02,390.93L493.44,391.17L491.17,392.48L490.61,391.26L487.6,392.22L483.41,390.6L474.89,391.71L467.56,391.28L466.21,391.98L459.15,390.08L456.14,388.33L453.27,388.5L453.71,384.34L453.71,384.34L454.05,382.93L454.05,382.93L454.05,382.93L454.05,382.93L454.1,382.82L454.1,382.82z"/>
		<path id="IN-MN" title="Manipur" class="land" d="M529.48,388.19L530.13,389.69L532.29,390.65L534.06,386.98L536.49,384.58L535.69,382.86L539.77,382.48L540.8,381.57L542.42,383.03L544.57,382.58L544.99,383.78L547.06,383.92L549.29,382.8L549.5,381.65L552.49,379.23L552.16,383.49L554.78,384.72L554.78,384.72L552.75,390.34L556.11,392.16L555.55,396.62L553.85,398.92L553.28,401.68L552.03,401.81L551.62,403.73L548.94,407.04L548.52,409.52L547.33,410.45L543.87,421.54L543.06,421.77L542.51,420.61L539.53,419.32L536.64,419.78L535.4,417.97L532.55,417.86L532.19,418.88L531.35,418.42L530.34,419.39L528.25,416.38L526.96,415.96L526.62,416.97L526.62,416.97L524.9,417.64L524.75,416.24L524.09,417.04L522.65,416.18L521.67,417.16L521.22,415.84L519.06,415.56L520.46,410.35L519.57,408.98L519.57,408.98L520.38,408.8L520.83,405.05L521.79,404.85L521.13,404.56L521.75,402.75L521.14,401.95L521.85,399.67L523.69,399.63L525.05,396.42L524.77,394.87L526.59,393.1L527.69,389.65z"/>
		<path id="IN-MP" title="Madhya Pradesh" class="land" d="M209.88,352.79L210.94,353.14L211.39,352.13L212.84,351.89L213.64,353.05L217.33,354.62L220.46,353.62L223.59,355.85L225.33,356.04L225.12,356.83L226.28,356.32L225.99,358.89L227.7,360.54L227.44,361.64L229.07,361.9L228.03,363.81L229.22,364.22L227.2,366.04L227.62,366.83L225.95,367.7L226.44,368.64L225.22,369L226.49,370.33L223.21,375.46L223.53,376.88L222.47,376.16L222.66,376.87L221.12,378.04L222.47,379.76L222.34,380.91L219.06,382.27L214.47,382.32L214.29,384.31L212.76,384.83L211.67,386.68L214.76,392.34L212.35,393.26L212.34,395.31L208.91,398.58L211.1,402.94L210.08,406.24L213.04,409.38L212.31,410.66L213.43,411.9L216.06,409.19L219.49,412.59L221.4,412.29L222.06,414.07L223.88,413.1L225.73,410.11L226.09,408.11L224.51,407.52L224.62,406.75L225.72,406.83L223.94,403.57L221.17,404.36L221.83,399.55L218.51,396.11L218.92,393.89L217.99,393.05L217.39,389.35L214.43,388.66L216.48,388.25L216.48,386.95L217.55,387.2L217.23,386.19L219.15,385.08L220.17,385.43L219.26,386.37L221.49,387.05L221.04,385.8L222.5,385.39L221.29,385.31L220.8,383.77L222.95,385.35L222.83,383.56L223.79,382.47L224.97,382.41L224.39,385.01L225.59,385.2L225.97,386.65L224.93,387.21L224.17,386.66L225.36,386.09L223.8,386.38L222.06,388.06L223.11,390.03L223.83,387.38L225.43,387.25L225.79,388.74L223.82,389.42L223.74,391.48L225.34,390.24L226.33,390.8L225.82,389.67L226.52,388.93L227.6,390.11L226.88,392.01L228.19,390.87L229.13,392.75L230.29,391.83L231.41,392.63L231.36,391.6L231.87,392.49L232.77,392.24L232.15,389.59L233.69,390.37L233.54,389.03L231.85,389.06L232.59,387.47L233.66,387.64L233.81,389.2L234.11,388.53L235.12,389.34L236.69,389.08L234.46,391.39L234.78,392.69L236.23,392.21L236.68,393.4L238.26,391.22L238.94,392.28L242.03,391.99L244.34,393.04L244.16,389.78L247.29,389.12L247.79,387.41L249.94,387.51L252.72,385.43L253.87,386.39L253.73,388.66L255.71,389.71L256.23,391.3L254.71,391.97L252.95,394.61L255.36,395.08L255.02,393.97L256.59,393.41L257.71,394.26L257.33,392.95L260.06,393.64L259.81,391.73L261.46,394.06L263.61,393.88L262.01,392.15L264.1,391.93L264.69,392.77L264.87,390.87L265.74,390.8L266.31,391.62L264.67,394.4L265.12,395.34L263.9,395.95L264.84,396.8L265.89,396.47L265.89,396.47L266.15,396.29L266.15,396.29L266.97,395.93L267.36,397.01L269.9,396.4L271.07,397.78L271.68,396.25L272.75,396.8L273.93,391.44L274.71,391.48L274.89,392.63L275.21,391.33L277.31,392.23L276.69,392.82L278.43,393.58L278.92,392.85L278.2,392.15L280.16,390.8L281.26,391.63L280.95,393.9L282.09,393.47L284.82,395.07L287.11,395.08L287.07,397.77L288.38,399.19L289.34,398.73L291.58,400.07L293.34,399.33L292.85,401.28L293.71,401.53L294.34,400.45L294.05,402.88L295.44,402.87L295.39,404.16L297.8,404.53L298.29,402.04L300.32,403.29L303.01,402.18L305.91,404.48L306,405.56L304.15,405.48L304.04,409.39L305.16,409.67L305.23,411.51L304.32,415.01L303,415.11L305.28,416.41L304.77,417.7L306.15,419.02L306.15,419.02L302.98,420.28L302.89,421.45L300.28,422.19L300.04,423.1L293.97,422.58L293.5,421.53L290.19,422.27L287.49,421.08L284.68,422.47L282.15,419.88L281.08,420.3L280.83,421.52L282.69,424.53L280.23,427.54L281.01,429.4L283.71,428.03L285.62,429.3L287.48,428.83L288.74,431.53L289.57,431.29L290.19,432.33L291.3,431.88L293.13,433.52L292.4,437.68L291.66,438.54L287.94,439.13L287.98,441.86L284.41,443.75L284.27,448.49L282.04,449.2L281.19,451.3L279.17,451.27L276.6,453.5L276.23,452.06L275.06,451.63L274.66,452.59L274.06,452.19L272.87,453.26L272.07,452.4L270.6,453.5L270.68,456.8L268.7,458.27L268.63,460.44L267.69,460.85L268.28,462.04L266.43,460.74L264.5,464.39L264.77,467.8L264.34,469.09L262.92,468.85L262.4,469.88L262.65,475.25L261.11,478.41L261.11,478.41L259.78,478.55L257.52,476.92L255.8,477.39L255.12,474.16L252.81,471.94L251.3,471.62L248.69,473.41L246.03,473.36L245.6,474.08L241.76,472.33L237.66,473.64L236.65,470.73L231.21,469.61L231.02,471.25L229.52,471.03L228.27,472.41L224.6,472.56L224.99,474.91L221.65,475.36L221.11,474.76L220.55,475.42L216.13,473.99L214.49,474.59L214.33,472.35L213.43,471.97L213.04,472.88L211.05,472.52L209.27,473.31L209.03,474.66L204.2,477.16L201.28,476.59L199.91,477.65L199.02,476.93L196.78,477.66L194.74,477.36L193.27,473.89L197.26,473.67L195.9,470.13L194.5,468.55L190.54,468.74L190.47,469.61L188.89,470.28L186.06,469.64L182.47,472.37L180.26,472.44L180.03,475.38L176.68,478.31L177.45,479.49L176.66,481.5L173.81,481.42L173.08,483.23L171.49,484.07L167.22,483.91L165.99,482.12L167.22,481.59L165.67,477.45L147.27,476.62L145.08,475.53L143.88,473.17L140.61,471.71L138.29,472.15L133.43,470.55L132.43,469.55L132.77,465.47L131.12,464.07L131.07,462.83L127.8,464.86L124.79,464.45L124.79,464.45L123.78,463.07L125.51,461.48L124.46,461.23L124.3,458.64L123.32,458.44L123.24,455.32L125.73,456.18L126.06,455.16L127.89,454.55L125.73,452.67L124.31,453.96L123.52,451.98L122.46,451.99L123.13,451.03L124.94,451.78L127.29,448.91L129.77,448.94L131.76,444.08L131.18,442.6L130.11,443.16L129.31,442.4L128.49,439.47L128.49,439.47L129.92,438.35L132.46,438.88L135.74,436.33L137.34,436.09L136.28,435.84L136.41,434.73L133.32,434.49L132.58,433.44L134.57,430.43L141.41,426.6L140.69,421.06L142.52,417.51L140.18,413.31L140.45,412.21L137.49,411.73L139.7,407.51L136.64,406.52L138.84,402.83L137.96,402.47L138.47,399.99L140.42,403.21L141.47,403.09L143.09,400.98L142.82,399.98L139.5,400.06L139.45,395.89L140.99,397.78L143.58,398.53L145.16,397.85L146,394.26L149.9,394.32L149.21,397.21L148.44,395.84L148.14,397.83L151.55,397.76L151.4,398.43L149.07,399.59L147.03,397.37L147.94,399.04L146.55,400.62L147.21,401.67L152.13,402.34L154.85,401.66L155.51,402.45L158.57,400.7L160.23,401.5L160.01,404.17L161.88,405.13L161.7,407.77L160.41,408.62L159.23,407.33L157.89,408.93L159.98,412.56L158.86,413.15L158.24,415L160.17,415.64L160.13,416.46L157.33,418.89L156.68,417.42L154.89,418.37L153.44,417.07L152.23,419.99L154.41,421.37L154.87,422.73L156.32,422.69L157,423.64L157.93,421.41L157.37,420.37L158.94,421.51L163.1,419.71L162.77,417.6L166.43,416.01L166.15,413.7L167.49,410.62L168.12,413.24L170.45,412.4L172.28,413.45L173.45,412.9L174.73,414.46L175.74,414.06L175.92,412.49L178.12,411.68L178.29,414.27L180.38,415.44L182.45,415.19L183.38,413.48L181.2,410.45L181.43,407.47L180.66,405.98L182.72,405.77L182.76,407.05L183.82,407.66L185.9,405.16L185.1,401.94L183.53,400.68L181.35,401.03L180.39,399.44L183.47,398.22L181.49,395.06L184.41,393.46L186.94,393.71L188.1,392.69L190.04,392.56L190.89,393.37L192.89,392.7L193.3,390.86L191.87,389.05L192.33,387.93L191.59,387.81L192.11,385.8L190.47,385.55L188.84,388.14L186.12,387.49L183.33,388.97L182.31,387.88L179.73,388.12L175.42,385.12L173.71,378.75L174.72,378.39L174.69,376.91L176.02,375.14L180.49,373.32L182.19,370.07L187.14,366.71L188.8,366.72L191.55,363.94L193.6,363.76L193.5,362.78L195.49,362.6L201.57,359.34L203.27,356.84L205.32,355.9L207.28,356.36L207.57,353.7L209.17,353.83L208.85,353z"/>
		<path id="IN-MZ" title="Mizoram" class="land" d="M504.83,412.44L507.46,412.41L507.76,414.71L508.69,414.96L510.15,412.57L511.42,412.4L511.69,410.59L513.08,410.09L514.64,406.29L515.97,409.56L519.57,408.98L519.57,408.98L520.46,410.35L519.06,415.56L521.22,415.84L521.67,417.16L522.65,416.18L524.09,417.04L524.75,416.24L524.9,417.64L526.62,416.97L526.62,416.97L528.87,425.41L528.23,432.1L527.21,432.86L527.8,437.75L525.79,440.76L523.63,439.52L522.34,439.81L523.08,442.72L521.63,445.17L521.48,447.45L523.92,457.55L522.64,457.88L522.79,459.42L520.53,458.98L520.93,461.13L519.83,461.13L519.75,463.78L518.63,462.75L517.69,464.63L516.79,461.95L513.65,459.99L512.95,463.02L511.38,463.94L509.75,448.65L507.99,443.29L506.48,442.36L506.18,435.51L507.17,435.32L504.24,424.36L504.24,424.36L504.05,422.4L505.55,420.19L505.67,414.84z"/>
		<path id="IN-NL" title="Nagaland" class="land" d="M565.52,347.95L566.33,351.51L565.29,352.12L566.56,353.92L566.41,356.28L566.41,356.28L562.84,361.51L564.27,363.23L563.96,369.69L565.32,370.37L561.88,374.34L562.53,377.72L560.12,379.89L559.44,382.24L554.78,384.72L554.78,384.72L552.16,383.49L552.49,379.23L549.5,381.65L549.29,382.8L547.06,383.92L544.99,383.78L544.57,382.58L542.42,383.03L540.8,381.57L539.77,382.48L535.69,382.86L536.49,384.58L534.06,386.98L532.29,390.65L530.13,389.69L529.48,388.19L529.48,388.19L529.23,385.3L526.5,382.71L534.33,375.73L533.95,374.33L535.74,373.02L536.22,376.53L540.06,374.09L539.55,372.06L540.59,368.21L542.76,364.66L544.17,364.24L544.4,361.54L546.29,359.25L547.12,361.48L550.29,356.66L551.91,355.71L552.53,356.17L553.14,355.04L554.87,355.2L557.29,353.49L559.05,350.54L561.88,350.7z"/>
		<path id="IN-OR" title="Odisha" class="land" d="M391.27,491.04l2.49,-0.15l0.2,1.23l-1.41,0.11l0,0l-1.86,1.33l-0.35,-0.48l0,0l-0.77,0.12L391.27,491.04zM331.16,451.7l2.77,1.13l0.37,1.58l2.86,1.43l2.87,-0.26l2.11,-1.6l4.55,0.12l1.34,-0.72l1.8,0.65l3.53,-1.36l1.09,4.23l-0.92,0.41l-0.98,3.6l-0.92,0.61l2.42,-0.33l2.84,2.23l1.45,-2.4l1.98,-1.16l3.04,1.62l2.2,-0.08l0.77,0.93l2.52,-1.39l0.6,0.76l-0.9,0l-0.57,1.97l3.03,0.52l2.54,-4.91l-1.19,-1.31l1.54,-1.41l-1.06,-0.72l0.33,-1.94l-1.16,-0.71l1.78,-2.42l1.44,1.77l3.61,0.89l3.22,3.24l1.39,-0.89l4.67,2.83l0,0l-0.15,1.61l1.57,-0.23l0.87,1.32l3.89,1.21l-0.41,3l0.68,0.95l1.35,0.11l-0.02,-1.07l1.36,-0.51l0.19,-0.96l1.41,0.43l0.58,3.15l3.8,1.19l0.8,3.41l0,0l-2.14,1.41l-3.75,-0.06l-1.82,0.9l-4.64,4.29l-1.44,3.98l3.07,7.05l-0.26,0.83l-2.72,0.29l-1.13,2.81l1,-0.34l0.5,0.5l1.98,-1.42l2.21,-0.17l-5.46,3.86l-1.15,2.91l1.05,0.29l0.02,1.02l-4.76,3.01l-3.45,5.16l-2.06,-1.85l-0.89,0.17l-0.23,0.58l1.22,0.06l1.45,1.57l-14.67,4.75l-5.82,2.94l-9.9,7.65l-3.17,4.15l-0.88,-0.54l0,0l-0.35,-1.22l-2.31,0.6l1.31,1.58l-1.4,0.87l-0.45,-1.15l-1.98,1.85l-1.18,-0.72l0.3,2.21l-1.95,1.03l-0.08,1.64l-5.24,1.04l-1.15,-1.26l-3.28,-0.36l-1.74,-4.18l-0.99,0.66l0.85,1.56l-0.72,-0.23l-2.56,-5.18l-1.92,3.27l-0.75,-0.12l0.21,-1.18l-0.96,-0.11l-0.08,2.73l-0.98,-1.11l-2.17,0.14l0.5,1.6l0.35,-0.88l0.72,0.74l-0.7,-0.08l1.04,2.12l-3.7,1.43l-0.3,1.1l-1.51,-1.24l-2.54,2.93l-0.07,1.11l0.96,0.04l-0.45,0.85l1.19,0.22l-1.55,2.05l0.9,0.34l-0.1,1.18l-2.53,0.53l-2.8,-1.93l-0.67,2.38l-2.27,0.98l-0.67,1.27l-0.97,-0.91l0.41,-2.16l-1.37,-0.46l0.39,-1.05l-1.67,-2.18l-2.36,2.79l0.49,0.9l-1.05,1.14l1.23,0.23l-1.82,2.43l1.24,1.23l-0.67,-0.06l-0.07,2.23l-1.31,-0.17l-0.53,1.5l-1.7,-1.4l-2.84,-0.31l-5.58,3.6l0,0l-1.99,0.36l-1.09,1.35l-4.74,0.19l0,0l0.19,-1.72l0.91,0.2l0.84,-2.06l1.06,-6.33l2.73,-1.76l1.82,-0.13l2.37,-3.68l1.86,-1.01l-1.29,-2l1.3,0.47l0.42,-1.36l2.32,-0.47l0.06,-0.96l1.67,-0.77l0.24,-2.29l1.4,-0.33l-0.57,-3.96l-1.1,-0.79l0.49,-4.26l-0.89,-0.93l0.88,-1.23l-1.33,-0.14l-0.57,-1.9l-1.46,0.18l0.78,-6.22l-1.67,-0.28l-0.41,-1.3l-2.32,-1.18l0.35,-2.83l1.57,-1.47l1.74,2.04l0.7,-0.88l2.52,1.59l1.09,-0.44l2.28,3.72l2.15,-1.62l3.16,0.85l-0.18,2.07l2.46,-1.33l0.1,-3.52l-2.28,0.1l-4.34,-1.64l0.8,-8.12l-2.2,-2.85l0.93,-1.56l-0.45,-5.78l2.35,1.34l0.56,-1.77l2.86,-2.97l0.29,-2.52l6.7,-0.58l3.43,1.66l1.47,-0.77l0.59,-2.78l1.18,-0.57l-0.1,-2l2.78,0.6l-1.42,-3.29l0.97,-2.62l1.27,-0.82l0.24,0.99l0.67,-0.46l-1.36,-1.11l1.35,-1.49l-0.35,-0.92l2.46,-1.36l0.34,-1.51l-1.37,-1.18l0.07,-2.06l1.3,-0.23l-0.86,-0.86l1.81,-2.71l2.24,-0.41l2.27,-2.27l3,-0.54l0.78,-2.17l-1.37,-0.86L331.16,451.7z"/>
		<path id="IN-PB" title="Punjab" class="land" d="M160.94,215.02L160.49,216.71L162.19,218.96L158.09,222.48L155.7,223.45L155.65,224.67L156.53,225.17L154.79,227.21L157.11,227.71L161.4,230.45L163.01,233.77L161.97,233.71L166.82,243.57L166.43,244.85L167.23,246.19L169.81,245.89L171.21,242.91L172.63,246.77L173.38,246.11L174.81,247.44L175.55,246.84L175.76,248.39L176.71,248.13L175.97,249.21L176.71,250.98L176.38,253.56L179.73,255.93L179.73,255.93L181.34,258.7L180.95,259.39L180.95,259.39L179.51,258.54L178.07,259.48L178.81,261.04L180.77,261.28L180.77,261.28L182.73,263.37L182.22,267.2L183.02,268.47L182.04,269.17L181.04,267.38L180.53,267.91L179.47,267.26L178.27,268.35L179.07,269.17L178.58,269.82L175.07,271.46L174.76,272.37L175.83,271.66L176.98,272.88L176.19,275.91L173.07,275.41L172.19,272.97L171.77,274.77L170.43,274.25L170.37,275.23L167.88,274.01L167.6,274.59L168.95,275.32L167.6,277.44L167.88,279.18L167.09,279.55L168.67,280.99L165.23,282.51L164.35,283.92L161.08,283.92L158.82,282.04L157.45,282.44L157.27,283.72L155.76,283.29L154.58,284.02L151.97,282.46L149.69,285.19L150.01,286.02L149.32,285.75L148.87,288.21L147.35,288.73L147.3,287.28L145.97,285.94L147.5,283.8L146.49,281.71L145.89,283.1L144.56,282.48L144.44,279.88L142.46,281.29L140.9,279.06L138.5,278.02L136.19,278.58L135.28,280.13L132.6,279.2L132.6,279.2L119.45,278.56L121.02,273.14L121.02,273.14L119.03,268.96L120.38,266.68L122.44,264.9L123.35,265.07L123.64,263.05L127.63,260.21L127.22,259.29L128.35,257.36L129.33,257.4L129.38,256.44L133,253.82L133.42,252.02L134.76,252.52L136.27,251.34L134.74,250.33L133.29,251.58L132.29,250.29L132.43,247.03L135.17,242.45L133.58,241.43L134.31,239.81L132.56,236.02L133.38,233.42L136.58,230.25L138.67,230.32L140,227.98L141.12,227.61L142.77,228.51L145.1,227.19L146.11,227.55L146.76,226.35L147.68,227.08L150.27,223.45L149.42,220.92L149.42,220.92L152.56,220.85L153.16,222.43L153.75,220.63L157.57,218.92z"/>
		<path id="IN-PY" title="Puducherry" class="land" d="M244.24,706.54l-3.09,-2.93l0.88,0.18l-0.28,-0.93l2.57,0.23l0,0L244.24,706.54zM243.18,685.44l-1.06,-1.11l-1.9,-0.11l0.5,-0.83l0.88,0.28l-0.98,-0.96l0.44,-0.75l-1.14,-0.3l0.73,-0.7l1.54,0.85l-0.77,0.26l0.44,1.28l1.28,-1.2l0.83,0.49l0,0L243.18,685.44zM294.63,580.6l-1.74,-0.76l0.9,-0.58l0.06,0.73l1.53,-0.54l0.12,0.62l0,0l0,0l0,0l0,0.01l0,0L294.63,580.6z"/>
		<path id="IN-RJ" title="Rajasthan" class="land" d="M121.02,273.14L119.45,278.56L132.6,279.2L132.6,279.2L132.3,280.06L133.32,281.07L131.47,282.94L131.61,283.99L134.41,283.77L133.59,288.32L134.59,289.19L133.85,290.83L132.81,291.04L134.2,293.94L135.17,293.87L135.34,292.89L137.57,293.28L139.34,292.13L141.14,293.07L141.69,295.05L143.5,294.93L144.3,296.23L146.44,295.37L147.35,296.17L149.35,294.77L149.26,296.15L150.95,295.53L150.23,298.38L151.77,301.38L153.37,301.52L152.45,303.53L154.3,310.94L155.61,311.23L155.84,312.56L158.96,314.66L158.8,315.84L161.98,316.76L165.55,321.81L164.19,321.4L162.27,323.27L163.28,324.28L164.35,323.73L162.98,324.75L162.83,326.96L162.01,327.05L163.13,327.62L162.83,328.67L165.45,328.58L167.23,330.01L168.28,329.23L166.85,325.5L168.08,324.73L167.32,324.08L170.75,324.63L171.03,323.73L169.83,323.09L171.05,322.44L169.45,321.26L171.5,322.22L173.47,321.82L174.03,322.96L173,323.28L174.03,323.95L173.11,324.3L174.88,324.55L174.88,326.17L177.43,325.03L177.24,323.19L180.18,321.76L180.39,320.48L181.41,320.12L183.74,322.08L182.12,331.82L182.51,333.52L183.93,333.55L184.41,331.56L186.2,331.64L184.98,330.71L185.35,329.72L187.19,330.74L187.7,329.82L188.08,330.55L188.6,329.67L189.4,330.52L190.32,330.04L190.32,330.04L191.59,332.63L191.56,336.54L193.54,338.14L193.59,339.61L196.57,341.31L197.4,340.92L196.93,341.92L198.64,344.27L194.98,346.73L197.68,348.6L198.64,347.75L199.28,348.95L200.35,348.43L193.39,352.06L193.93,354.87L194.87,354.4L194.97,352.51L197.2,352.86L200.32,350.41L203.18,351.54L203.39,350.72L205.62,351.05L205.94,352.21L206.37,350.93L207.61,351.18L207.81,350.05L210,350.03L210.97,350.75L209.48,351.56L209.88,352.79L209.88,352.79L208.85,353L209.17,353.83L207.57,353.7L207.28,356.36L205.32,355.9L203.27,356.84L201.57,359.34L195.49,362.6L193.5,362.78L193.6,363.76L191.55,363.94L188.8,366.72L187.14,366.71L182.19,370.07L180.49,373.32L176.02,375.14L174.69,376.91L174.72,378.39L173.71,378.75L175.42,385.12L179.73,388.12L182.31,387.88L183.33,388.97L186.12,387.49L188.84,388.14L190.47,385.55L192.11,385.8L191.59,387.81L192.33,387.93L191.87,389.05L193.3,390.86L192.89,392.7L190.89,393.37L190.04,392.56L188.1,392.69L186.94,393.71L184.41,393.46L181.49,395.06L183.47,398.22L180.39,399.44L181.35,401.03L183.53,400.68L185.1,401.94L185.9,405.16L183.82,407.66L182.76,407.05L182.72,405.77L180.66,405.98L181.43,407.47L181.2,410.45L183.38,413.48L182.45,415.19L180.38,415.44L178.29,414.27L178.12,411.68L175.92,412.49L175.74,414.06L174.73,414.46L173.45,412.9L172.28,413.45L170.45,412.4L168.12,413.24L167.49,410.62L166.15,413.7L166.43,416.01L162.77,417.6L163.1,419.71L158.94,421.51L157.37,420.37L157.93,421.41L157,423.64L156.32,422.69L154.87,422.73L154.41,421.37L152.23,419.99L153.44,417.07L154.89,418.37L156.68,417.42L157.33,418.89L160.13,416.46L160.17,415.64L158.24,415L158.86,413.15L159.98,412.56L157.89,408.93L159.23,407.33L160.41,408.62L161.7,407.77L161.88,405.13L160.01,404.17L160.23,401.5L158.57,400.7L155.51,402.45L154.85,401.66L152.13,402.34L147.21,401.67L146.55,400.62L147.94,399.04L147.03,397.37L149.07,399.59L151.4,398.43L151.55,397.76L148.14,397.83L148.44,395.84L149.21,397.21L149.9,394.32L146,394.26L145.16,397.85L143.58,398.53L140.99,397.78L139.45,395.89L139.5,400.06L142.82,399.98L143.09,400.98L141.47,403.09L140.42,403.21L138.47,399.99L137.96,402.47L138.84,402.83L136.64,406.52L139.7,407.51L137.49,411.73L140.45,412.21L140.18,413.31L142.52,417.51L140.69,421.06L141.41,426.6L134.57,430.43L132.58,433.44L133.32,434.49L136.41,434.73L136.28,435.84L137.34,436.09L135.74,436.33L132.46,438.88L129.92,438.35L128.49,439.47L128.49,439.47L126.88,436.63L125.56,437.44L124.39,436.84L124.53,434.79L122.66,434.18L121.12,432.35L119.52,433.25L118.21,430.77L116.8,430.5L116,431.54L115.54,430.56L114.04,430.64L114.63,426.77L112.88,426.03L111.54,426.9L111.44,424.94L108.38,423.02L108.37,421.33L109.68,419.75L108.61,415.26L105.94,417.94L104.96,417.01L105.48,415.94L102.52,413.96L103.83,411.16L105.64,409.86L104.35,410.18L102.57,409.18L102.77,406.89L100.8,407.44L100.02,409.42L100.61,409.88L99.2,410.74L98.03,409.83L95.19,409.94L94.45,407.74L91.26,406.61L90.48,408.83L89.58,408.89L89.12,406.67L89.12,406.67L88.03,406.79L87.35,405.56L87.35,405.56L86.03,405.89L85.11,404.93L87.26,404.06L83.32,404.14L80.95,402.05L78.69,403.86L77.27,402.75L76.89,404.38L75.64,402.86L72.77,403.71L71.83,402.86L69.14,402.78L66.94,403.98L66.27,403.26L65.15,404.3L61.16,402.63L61.16,402.63L57.77,396.8L56.7,391.99L52.09,386.34L51.92,379.23L46.35,380.01L43.83,379.14L39.99,373.52L39.71,370.52L41.59,366.54L41.49,359.44L39.36,358.31L34.11,358.47L27.67,354.83L27.78,348.56L29.14,345.09L38.32,335.93L41.26,329.39L45.64,325.28L49.76,325.01L52.05,327.5L53.84,332.14L56.49,332.58L64.63,329.2L72.7,328.57L77.7,326.48L78.46,322.48L83.71,317.02L86.18,309.74L87.91,307.39L99.57,301.13L106.47,288.47L108.99,279.33L117.27,276.24z"/>
		<path id="IN-SK" title="Sikkim" class="land" d="M428.37,323.14L432.3,325.2L433.41,328.75L432.59,333.27L430.93,335.72L431.81,339.47L434.18,341.32L433.69,342.52L431.64,343.16L430.6,345.49L430.6,345.49L426.57,344.54L423.91,347.05L421.24,345.95L417.73,346.22L415.22,343.84L415.22,343.84L416.59,338.97L415.83,337.34L419.05,330.41L417.46,326.63L423.03,325.99L424.98,324.4L426.15,324.56L427.67,322.42z"/>
		<path id="IN-TG" title="Telangana" class="land" d="M196.06,545.66L196.41,545.08L195.42,544.39L196.17,542.89L195.56,542.68L196.8,542.28L195.98,541.89L197.13,541.65L197.05,540.04L199.97,539.88L199.89,537.22L200.41,536.54L201.01,537.04L202.08,534.33L204.28,534.01L200.4,529.47L201.35,527.85L202.3,528.11L202.27,525.76L203.51,524.21L202.57,523.44L204.41,522.58L206.55,524.77L209.04,524.89L209.3,521.02L211.95,520.04L211.33,517.79L211.99,516.77L211.13,515.47L213.18,512.86L211.64,511.35L212.17,509.89L215.82,512.6L218.12,512.06L223.19,513.37L223.46,515.62L225.77,515.78L225.47,517.93L228.57,518.46L230.14,519.94L231.09,519.79L231.53,516.59L236.27,519.13L237.78,518L238.94,518.99L239.81,517.42L242.87,517.01L246.79,521.26L245.69,525.11L246.17,526.34L244.39,527.8L244.42,529.34L245.99,529.62L246.08,533.2L245.14,533.82L249.68,537.22L252.96,536.3L252.96,536.3L254.52,539.19L257.48,538.27L260.61,540.67L263.86,546.48L262.71,547.25L262.74,548.29L264.07,548.4L264.73,546.92L265.52,547.51L265.41,549.14L267.75,548.36L267.12,550.27L268.98,556.64L271.64,555.27L276.36,556.27L276.36,556.27L281.09,556.08L282.18,554.74L284.17,554.38L284.17,554.38L284.68,555.72L280.37,558.03L278.83,561.01L278.63,564.09L277,565.99L275.1,565.36L273.89,566.9L272.1,566.85L271.71,568.8L268.11,569.95L266.32,569.48L266.48,570.69L265.58,570.68L264.79,573.31L260.75,572.67L261.11,571.96L259.09,570.86L256.7,573.49L255.63,572.18L255.04,572.63L254.86,574.5L257.57,575.66L257.65,574.99L259.59,575.46L258.97,577.68L260.01,578.48L259.14,579.02L255.73,577.13L255.17,577.97L252.85,573.63L251.17,572.89L247.56,575.88L247.18,576.84L248.82,577.92L246.48,581.65L245.31,581.74L242.65,579.75L235.35,582.94L231.99,583.4L231.14,584.55L231,590.38L227.07,590.25L224.86,591.19L224.55,593.29L223.03,592.17L223,593.68L221.71,595.06L218.4,593.43L217.19,594.35L213.98,593.82L210.86,594.89L210.47,597.1L207.78,599.31L206.24,597.69L205.52,598.61L203.13,597.82L201.28,598.48L195.21,597.28L195.21,597.28L194.75,590.16L196.9,589.35L196.93,588.26L191.73,587.34L189.47,585.42L192.21,585.08L193.24,584.34L192.74,583.32L194.26,582.9L194.37,581.54L193.27,581.2L194.28,580.86L194.32,580.13L193.41,580.07L193.71,578.58L194.41,578.67L194.04,575.84L195,573.71L194.23,571.6L192.08,570.35L192.51,569.08L194.06,567.86L194,565.79L195.6,565.76L195.23,564.56L197.33,564.19L198.21,562.9L198.87,563.56L196.89,561.6L195.05,562.08L193.76,561.19L193.97,558.79L196.31,557.57L195.24,556.39L198.23,552.72L195.97,550.87L197.12,549.87L196.36,547.65L197.17,545.96z"/>
		<path id="IN-TN" title="Tamil Nadu" class="land" d="M232.96,737.92l0.28,1.41l2.38,2.18l-4.72,-2.02L232.96,737.92zM210.1,665.33l-0.64,1.52l1.56,-0.22l2.18,1.71l1.91,-0.12l1.07,-1.8l-0.55,-0.7l1.33,1.05l2.07,-4.98l-0.69,-1.28l1.68,-0.54l0.18,-1.1l3.64,-0.64l0.12,1.42l0.9,0.02l-0.65,-0.35l0.44,-0.7l1.37,-0.19l3.63,1.48l1.37,-2.74l1.88,0.83l0.83,-1.41l1.59,-0.52l0.03,-2.01l-1.06,-0.46l1.14,-0.44l2.24,0.27l0.93,1.4l1.85,-0.78l0.42,1.59l1.17,0.27l0.85,-0.61l-1.33,-1.04l4.28,-1.36l0.76,-2.47l1.55,-0.71l-0.88,-0.97l4.95,1.13l1.71,2.3l0,-1.13l0,0l0.69,3.19l-3.93,17.15l-6.69,11.27l0,0l-0.83,-0.49l-1.28,1.2l-0.44,-1.28l0.77,-0.26l-1.54,-0.85l-0.72,0.7l0,0l0,0l0,0l1.14,0.3l-0.44,0.76l0.98,0.96l-0.88,-0.28l-0.5,0.83l1.9,0.11l1.06,1.11l0,0l-0.91,5.2l1.7,4.43l0.34,8.03l0,0l-2.57,-0.23l0.28,0.93l-0.88,-0.18l3.09,2.93l0,0l0.59,10.95l-2.85,0.45l-7.48,-0.88l-1.9,1.19l-1.38,2.46l0.8,2.25l-6.97,9.08l-0.76,2.69l0.86,1.56l2.6,2.23l2.66,0.4l-6.64,0.53l-6.18,2.64l-3.51,0.41l-4.22,3.21l-0.84,1.63l-0.24,2.33l1.52,0.48l-1.27,0.1l-1.35,1.95l0.54,3.25l-1.33,2.66l-5.51,2.58l-1.2,1.49l-3.58,0.88l-0.52,1.24l-4.92,-0.93l-4.6,-3.72l0,0l1.32,-0.3l-0.52,-1.39l1.56,-1.24l-0.48,-1.17l1.65,-0.93l-2.3,-4.21l1.84,-2.56l-2.32,-3.21l2.5,-2.76l0.32,-3.12l2.71,-4.34l-1.16,-2.08l-1.8,0.64l-2.16,-0.87l1.72,-3.85l-0.73,-1.63l1.25,-1.85l-1.49,-2.94l1.51,-0.56l0.43,-1.86l-1.22,-2.81l-1.24,-0.13l-4.02,2.91l-3.16,-1.83l-0.31,-7l1.42,-0.06l0.52,-2.99l-1.67,-1.93l-3.53,-1.32l1.2,-2.27l1.8,-0.23l-1.16,-0.11l0.03,-1.56l-1,-0.49l0.72,-1.36l-5.71,0.61l-0.13,-1.07l1.96,-1.31l-0.04,-1.26l-2.68,-1.74l-3.57,-0.55l-0.3,-2.22l2.6,-0.39l1.54,-1.63l0,0l1.69,-0.82l1.17,1.87l5.8,0.76l-0.18,-1.48l1.49,-2.96l1.25,0.39l0.94,-0.8l2.2,1.92l-0.14,-1.07l2.91,-0.84l3.72,1.1l1.36,-3.86l3.69,-0.12l2.26,-3.56l-0.88,-1.31l-5.46,-0.74l0.1,-1.27l1.52,-0.46l1.62,-2.66l0.11,-1.47l-1.04,0.19l0.65,-0.67l-0.76,-1.24l0.43,-2.12l2.95,-0.14l1.43,-2.62l-0.31,-1l2.78,-0.95l0.15,1.38l0.44,-0.76l1.17,1.15l0.95,-1l1.55,1.54L210.1,665.33z"/>
		<path id="IN-TR" title="Tripura" class="land" d="M502.49,406.24L503.45,406.67L503.45,406.67L504.32,409.52L503.07,412.5L504.83,412.44L504.83,412.44L505.67,414.84L505.55,420.19L504.05,422.4L504.24,424.36L504.24,424.36L503.31,425.98L502.03,424.11L500.1,426.27L497.82,424.38L498.1,429.96L495.42,431.82L493.9,434.59L495.17,438.73L492.84,441.14L489.57,441.51L487.3,435.12L486.55,435.11L485.82,436.83L486.51,439.55L485.59,439.44L483.9,433.62L484.5,432.68L483.89,432.86L481.15,427.23L481.06,425.68L481.84,426.22L482.08,425.3L480.99,425.21L481.04,424.12L482.38,424.1L483.07,421.84L482.6,419.81L483.46,419.86L484.09,418.22L485.6,418.71L485.59,415.69L489.09,416.45L490.96,415.84L491.66,412.93L493,414.94L493.64,414.91L493.25,412.55L495.42,412.98L496.73,414.94L496.95,410.52L497.72,410.05L498.52,410.85L498.07,409.31L501.11,409.42L502.23,408.35L501.81,406.76z"/>
		<path id="IN-UP" title="Uttar Pradesh" class="land" d="M196.33,268.09L197.82,267.93L199.43,269.68L204.05,271.89L202.1,275.14L201.01,275.43L199.24,280.92L201.14,285.48L204.48,284.92L205,287.1L204.38,287.67L205.23,288.74L212.43,282.74L214.12,283.31L215.69,284.05L216.52,286.86L218.16,288.36L221.93,290.41L224.81,290.88L222,293.92L221.34,293.43L220.43,294.2L223.33,295.54L224.34,298.18L225.63,297.8L226.78,298.96L226.99,297.67L229.16,298.69L229.73,301.23L230.69,301.08L232.68,302.89L233.95,302.48L235.03,305.2L237.65,304.33L237.96,305.44L240.37,305.38L242.64,304.35L243.35,305.04L242.82,306.4L244.3,305.48L244.75,306.1L244.02,306.33L245.29,306.48L246.69,308.54L248.87,305.83L248.87,305.83L252.64,307.54L254.92,310.4L256.84,310.6L258.23,312.43L257.94,309.73L259.3,309.2L263.92,313.08L266.42,313.71L267.9,315.21L268.7,314.8L270,316.38L272.74,316.96L275.05,320.82L274.99,322.33L276.11,322.12L276.19,321.3L277.63,321.65L278.35,323.53L286.87,328.84L288.61,327.15L290.69,327.28L298.67,333.05L304.1,332.03L305.1,335.21L304.67,337.17L314.15,338.32L316.6,341.2L318.79,339.3L318.36,337.73L323.09,337.96L328.15,340.74L328.15,340.74L327.53,341.4L329.37,341.34L328.98,342.89L330.67,344.27L329.84,346.78L331.55,346.73L330.92,347.35L331.97,347.91L332.2,351.49L334.06,351.58L334.65,352.82L336.16,352.17L336.01,355.04L337.35,354.72L337.93,356.33L339.53,356.63L339.79,357.66L336.81,358.31L332.82,357.29L332.11,359.61L329.06,360.2L329.07,361.78L331.34,361.82L332.62,363.31L334.7,363.55L334.45,366.53L331.35,366.65L331.49,368.86L334.59,372.43L338.47,373.17L339.98,374.72L342.18,375.06L342.15,376.06L344.1,377L344.31,378.52L342.75,378.33L342.68,379.54L342.33,378.56L341.34,379.68L338.05,378.14L337.09,380.06L335.36,379.87L334.22,378.46L333.09,378.7L332.71,380.61L329.37,382.44L327.14,384.58L327.73,385.24L326.13,386.37L324.72,386.19L317.49,390.73L316.83,394.9L318.27,400.25L320.22,401.32L321.51,403.88L320.6,406.15L320.6,406.15L318.4,406.74L318.55,408.85L319.62,409.86L318.04,411.01L318.59,412.11L316.95,415.87L316.95,415.87L314.14,419.98L311.99,420.96L308.89,421.01L306.15,419.02L306.15,419.02L304.77,417.7L305.28,416.41L303,415.11L304.32,415.01L305.23,411.51L305.16,409.67L304.04,409.39L304.15,405.48L306,405.56L305.91,404.48L303.01,402.18L300.32,403.29L298.29,402.04L297.8,404.53L295.39,404.16L295.44,402.87L294.05,402.88L294.34,400.45L293.71,401.53L292.85,401.28L293.34,399.33L291.58,400.07L289.34,398.73L288.38,399.19L287.07,397.77L287.11,395.08L284.82,395.07L282.09,393.47L280.95,393.9L281.26,391.63L280.16,390.8L278.2,392.15L278.92,392.85L278.43,393.58L276.69,392.82L277.31,392.23L275.21,391.33L274.89,392.63L274.71,391.48L273.93,391.44L272.75,396.8L271.68,396.25L271.07,397.78L269.9,396.4L267.36,397.01L266.97,395.93L266.15,396.29L266.15,396.29L265.89,396.47L265.89,396.47L264.84,396.8L263.9,395.95L265.12,395.34L264.67,394.4L266.31,391.62L265.74,390.8L264.87,390.87L264.69,392.77L264.1,391.93L262.01,392.15L263.61,393.88L261.46,394.06L259.81,391.73L260.06,393.64L257.33,392.95L257.71,394.26L256.59,393.41L255.02,393.97L255.36,395.08L252.95,394.61L254.71,391.97L256.23,391.3L255.71,389.71L253.73,388.66L253.87,386.39L252.72,385.43L249.94,387.51L247.79,387.41L247.29,389.12L244.16,389.78L244.34,393.04L242.03,391.99L238.94,392.28L238.26,391.22L236.68,393.4L236.23,392.21L234.78,392.69L234.46,391.39L236.69,389.08L235.12,389.34L234.11,388.53L233.81,389.2L233.66,387.64L232.59,387.47L231.85,389.06L233.54,389.03L233.69,390.37L232.15,389.59L232.77,392.24L231.87,392.49L231.36,391.6L231.41,392.63L230.29,391.83L229.13,392.75L228.19,390.87L226.88,392.01L227.6,390.11L226.52,388.93L225.82,389.67L226.33,390.8L225.34,390.24L223.74,391.48L223.82,389.42L225.79,388.74L225.43,387.25L223.83,387.38L223.11,390.03L222.06,388.06L223.8,386.38L225.36,386.09L224.17,386.66L224.93,387.21L225.97,386.65L225.59,385.2L224.39,385.01L224.97,382.41L223.79,382.47L222.83,383.56L222.95,385.35L220.8,383.77L221.29,385.31L222.5,385.39L221.04,385.8L221.49,387.05L219.26,386.37L220.17,385.43L219.15,385.08L217.23,386.19L217.55,387.2L216.48,386.95L216.48,388.25L214.43,388.66L217.39,389.35L217.99,393.05L218.92,393.89L218.51,396.11L221.83,399.55L221.17,404.36L223.94,403.57L225.72,406.83L224.62,406.75L224.51,407.52L226.09,408.11L225.73,410.11L223.88,413.1L222.06,414.07L221.4,412.29L219.49,412.59L216.06,409.19L213.43,411.9L212.31,410.66L213.04,409.38L210.08,406.24L211.1,402.94L208.91,398.58L212.34,395.31L212.35,393.26L214.76,392.34L211.67,386.68L212.76,384.83L214.29,384.31L214.47,382.32L219.06,382.27L222.34,380.91L222.47,379.76L221.12,378.04L222.66,376.87L222.47,376.16L223.53,376.88L223.21,375.46L226.49,370.33L225.22,369L226.44,368.64L225.95,367.7L227.62,366.83L227.2,366.04L229.22,364.22L228.03,363.81L229.07,361.9L227.44,361.64L227.7,360.54L225.99,358.89L226.28,356.32L225.12,356.83L225.33,356.04L223.59,355.85L220.46,353.62L217.33,354.62L213.64,353.05L212.84,351.89L211.39,352.13L210.94,353.14L209.88,352.79L209.88,352.79L209.48,351.56L210.97,350.75L210,350.03L207.81,350.05L207.61,351.18L206.37,350.93L205.94,352.21L205.62,351.05L203.39,350.72L203.18,351.54L200.32,350.41L197.2,352.86L194.97,352.51L194.87,354.4L193.93,354.87L193.39,352.06L200.35,348.43L199.28,348.95L198.64,347.75L197.68,348.6L194.98,346.73L198.64,344.27L196.93,341.92L197.4,340.92L196.57,341.31L193.59,339.61L193.54,338.14L191.56,336.54L191.59,332.63L190.32,330.04L190.32,330.04L195.8,326.47L194.36,323.45L195.9,321.19L194.79,320.47L195.41,320.71L195.88,319.63L194.33,319.11L194.48,315.7L191.62,313.44L191.62,313.44L190.7,312.07L191.58,311.07L191.32,308.53L188.67,306.65L188.46,304.94L188.46,304.94L189.03,301.63L187.1,299.25L187.77,293.77L187.06,293.43L187.46,291.22L186.32,289.03L187.55,284.9L187,283.34L190.21,276.68L193.22,275.26L193.41,273.78L196.49,270.34L196.58,268.57L196.58,268.57z"/>
		<path id="IN-UT" title="Uttarakhand" class="land" d="M230.5,245.05L232.39,249.52L234.42,250.78L235.07,252.75L236.92,252.71L238.72,255.04L241.96,253.49L244.32,254.17L245.58,256.28L248.28,257.45L249.52,259.01L250.65,258.21L252.02,259.36L251.14,261.67L251.88,263.87L255.75,265.02L258.38,266.88L259.59,266.09L264.35,270.13L268.71,271.75L266.45,272.46L265.46,273.77L265.77,274.75L263.05,277.68L260.03,278.83L257.77,282.71L256.52,282.51L255.1,283.83L255.93,287.56L254.57,288.57L253.73,290.96L252.48,291.16L254.03,294.3L253.62,296.89L252.59,296.51L253.08,298.39L250.42,299.32L250.23,301.6L248.62,303.77L248.87,305.83L248.87,305.83L246.69,308.54L245.29,306.48L244.02,306.33L244.75,306.1L244.3,305.48L242.82,306.4L243.35,305.04L242.64,304.35L240.37,305.38L237.96,305.44L237.65,304.33L235.03,305.2L233.95,302.48L232.68,302.89L230.69,301.08L229.73,301.23L229.16,298.69L226.99,297.67L226.78,298.96L225.63,297.8L224.34,298.18L223.33,295.54L220.43,294.2L221.34,293.43L222,293.92L224.81,290.88L221.93,290.41L218.16,288.36L216.52,286.86L215.69,284.05L214.12,283.31L212.43,282.74L205.23,288.74L204.38,287.67L205,287.1L204.48,284.92L201.14,285.48L199.24,280.92L201.01,275.43L202.1,275.14L204.05,271.89L199.43,269.68L197.82,267.93L196.33,268.09L196.33,268.09L201.52,264.98L199.82,263.4L200.92,262.89L200.86,261.82L198.96,259.27L200.13,256.54L201.07,257.09L201.2,255.51L200.16,255.55L199.92,254.64L201.65,254.79L201.31,252.15L203.13,249.9L204.54,249.31L205.78,249.89L212.94,246.58L215.33,248.7L217.95,247.91L219.04,248.92L222.13,248.67L223.73,251.05L226.35,250.85L224.47,247.35L224.47,247.35L227.42,242.2L229.12,242.97z"/>
		<path id="IN-WB" title="West Bengal" class="land" d="M425.29,472.4l0.69,1.29l-1.03,-0.28L425.29,472.4zM432.34,472.23l1.44,1.15l-1.27,0.04L432.34,472.23zM426.11,471.52l1.05,0.82l-0.78,0.86l-0.84,-0.86L426.11,471.52zM431.03,471.2l0.55,1.38l-0.96,0.34L431.03,471.2zM435.09,471.46l0.53,0.59l-0.73,-0.06l-0.08,-1.12L435.09,471.46zM427.28,470.64l-0.01,1.34l-0.81,-0.5L427.28,470.64zM435.48,470.02l0.93,2.26l-1.63,-2.15L435.48,470.02zM431.72,470.22l-0.16,0.93l-0.82,-0.48L431.72,470.22zM421.38,470.01l0.98,1.32l-0.9,0.88L421.38,470.01zM437.04,469.66l0.75,1.74l-0.91,0.59l-0.76,-1.43L437.04,469.66zM426.53,469.72l0.7,0.63l-0.97,0.96l-0.54,-1.24L426.53,469.72zM433.31,469.53l1.24,0.72l-0.41,1.41L433.31,469.53zM423.5,469.45l0.41,2.33l-0.7,0.71l-0.42,-3.05L423.5,469.45zM419.42,469.03l1.04,0.17l0.7,1.56l-0.48,2.54l-0.71,-0.2L419.42,469.03zM432.34,468.86l0.59,0.27l-0.4,2.65l-0.74,-0.26l0.13,-1.6l-0.84,0.15L432.34,468.86zM435.36,468.3l0.53,1.49l-1.13,-1.18L435.36,468.3zM429.86,467.74l1.27,1.93l-1,0.78l-0.71,-1.29L429.86,467.74zM426.27,467.68l0.59,1.68l-1.11,0.37l-0.32,-1.16L426.27,467.68zM434.58,466.85l0.74,0.6l-1.28,1.13L434.58,466.85zM427.26,466.79l0.46,1.17l-0.8,-0.43L427.26,466.79zM421.83,466.91l0.99,1.29l-0.94,1.42l-1.17,-1.74L421.83,466.91zM432.79,466.44l1.16,2.88l-1.61,-1.01L432.79,466.44zM417.73,466.23l0.71,2.97l-0.33,2.07l-0.95,0.54l-1.52,-1.1L417.73,466.23zM431.42,466.69l1.09,-0.39l-1.05,1.51L431.42,466.69zM435.36,465.81l1.04,0.62l-0.27,0.93l-0.96,-0.34L435.36,465.81zM427.88,465.72l0.67,0.67l-0.3,1.87L427.88,465.72zM424.36,465.73l0.77,0.91l-1.54,0.75L424.36,465.73zM429.84,465.67l1.37,0.9l-0.48,1.76l-1.28,-1.28L429.84,465.67zM428.26,465.18l0.58,0.23l-0.21,0.56L428.26,465.18zM432.38,465.26l1.65,-0.23l0.83,1.03l-1.26,1.11L432.38,465.26zM430.02,464.95l1.59,0.27l0.18,0.79l-0.38,0.44L430.02,464.95zM430.13,463.88l1.09,1l-1.19,-0.34L430.13,463.88zM428.68,462.99l1.17,0.42l-0.79,1.3l-1.04,-0.34L428.68,462.99zM417.82,462.83l-1.97,2.58l0.55,-1.88L417.82,462.83zM431.88,462.98l1.88,0.17l-0.12,1.67l-2.89,-0.7L431.88,462.98zM436.67,462.33l0.77,1.38l-0.95,1.36L435.53,463l-0.04,-0.82L436.67,462.33zM433.09,461.65l0.35,1.02l-1.89,-0.28L433.09,461.65zM432.48,461.09l-1.67,1.44l0.53,-1.34L432.48,461.09zM434.04,461.39l-1.59,-0.73l0.69,-0.44L434.04,461.39zM434.87,459.31l0.38,0.72l-0.5,1.69l1.32,3.9l-1.6,-0.77l-0.49,-1.31l0.38,-2.33l-0.77,-1.61L434.87,459.31zM435.68,459.58l1.1,1.35l-0.19,1.03l-1.46,-0.16L435.68,459.58zM429.41,459.13l1.98,0.49l-2.22,1.98l0.91,1.62l-1.37,-0.48l-0.24,-1.77L429.41,459.13zM432.7,460.06l-3.05,1.94l2.22,-2.48L432.7,460.06zM432.75,455.81l1.73,0.89l-0.48,2.79l-2.88,-0.67l0.78,-2.78L432.75,455.81zM435.48,454.82l0.81,1.91l-0.62,0.26l1.57,3.12l0.58,-0.17l-0.72,0.6l-2.4,-2.86L435.48,454.82zM433.66,451.07l0.21,1.41l-0.41,2.43l-0.52,-2.87L433.66,451.07zM434.43,450.84l1.35,2.91l-0.82,0.44l-0.37,2.27l-0.72,-0.58L434.43,450.84zM415.22,343.84l2.51,2.39l3.52,-0.27l2.67,1.1l2.66,-2.51l4.03,0.95l0,0l2.48,0.92l0.11,3.68l0.92,-1.04l0.91,1.68l1.31,-0.38l2.22,3.09l5.15,-1.36l1.72,1.4l3.88,0.59l-0.26,1.44l2.61,-0.4l0.37,0.86l1.73,-0.1l0,0l0.29,5.68l-0.91,1.48l0.63,0.28l-1.58,0.73l-0.49,1.49l-0.85,-0.38l0.02,3.24l0,0l-0.71,0.13l-0.05,-1.75l-0.93,0.19l0.48,1.21l-1.38,0.43l0.8,0.89l-0.76,0.42l1.17,0.87l-1.49,0.91l-0.02,1.3l-0.8,-0.86l-2.17,-0.07l-0.19,-0.86l-1.61,0.81l-3.98,-2.97l-1.13,-3.33l0.75,-0.89l-1.12,-0.02l0.05,-1.8l-2.7,-1.49l-0.93,2.17l0.92,0.87l0.58,-0.45l0.01,1.1l1.53,0.25l0.1,0.9l-2.08,0.32l-1.72,-1.16l-0.07,1.22l-0.8,0.11l-2.04,-2.76l-0.94,0.44l-0.04,-1.26l-1.72,-1.92l-1.33,0.33l0.08,-0.75l-2.63,-1.35l-0.42,-2.03l-0.79,0.95l-0.89,2.7l0.44,0.74l0.25,-0.96l2.42,0.6l0.87,2.35l-1.4,-0.32l-2.22,2.14l0.02,1.43l-3.6,1.72l0.14,2.82l-2.1,2.58l0.64,2.68l0.72,0.53l2.48,-0.79l3.91,3.41l-0.22,1.47l2.76,2.11l2.53,0.82l2.34,-1.15l0.7,3.63l3.51,1.61l-1.85,2.88l-1.64,-1.01l-0.86,0.9l-1.98,-0.86l-3,0.73l-2.51,-0.43l0.17,3.7l-1.09,2.07l-1.25,0.15l-0.35,1.68l-1.28,-0.22l-0.75,-1.93l-1.85,0.54l0.75,1.73l-3.46,4.46l2.87,3.69l3.88,2.8l2.42,0.14l2.23,1.84l0.65,-0.67l3.11,1.16l-0.84,3.69l0.68,2.71l0.92,0.22l-0.75,0.15l-0.07,1.48l-3.26,1.21l0.54,0.98l-0.88,0.72l0.04,3.26l0.4,0.94l1.34,-0.17l2.05,2.89l1.16,-0.32l-1.1,4.2l-1.02,0.3l0.48,0.99l1.6,0.84l0.44,-0.8l3.7,0.88l-2.61,2.63l-0.49,2.12l2.53,3.61l-1.01,1.83l0.81,3.41l-2.4,2.32l0.7,3.44l-1.2,-0.19l-1.73,3.54l-1.67,-0.34l-1.05,6.92l-1.38,0.21l-0.26,1.14l-0.71,-0.58l0.65,-1.15l-2.21,0.53l-0.61,2.41l-0.78,-1.3l-0.83,0.22l-1.15,0.89l0.29,1.16l-1.16,-0.19l-1.13,-2.58l-0.2,-1.79l1.47,-2.61l-0.44,-2.06l-2.79,-1.01l-0.43,-0.18l-1.35,-0.58l-0.81,-3.61l-1.31,-0.8l1.23,1.69l-0.05,2.39l1.44,1.32l2.66,0.38l1.12,1.92l-2.65,1.93l-0.19,0.06l-2.59,4.71l-2.92,2.37l-6.44,1.93l0,0l-0.8,-3.41l-3.79,-1.19l-0.58,-3.15l-1.41,-0.43l-0.19,0.96l-1.36,0.51l0.02,1.07l-1.35,-0.11l-0.68,-0.95l0.41,-3l-3.89,-1.21l-0.87,-1.32l-1.57,0.24l0.15,-1.61l0,0l1.62,0.04l-0.21,-1.1l2,0.24l0.01,-0.94l-1.19,-0.69l0.31,-1.61l-1.71,-0.66l-0.35,-1.14l1.11,-0.52l-0.81,-1.66l-2.27,-0.08l-0.71,-2.2l-1.65,-1.07l-0.68,0.43l-1.89,-1.69l0.98,-2.71l-0.63,-0.6l1.79,-0.47l0.46,-0.97l-6.86,-0.1l-3.68,-3.43l-2.55,0.32l-1.75,-1.48l-0.11,-1.54l1.45,-2.44l-0.62,-2.26l1.63,0.35l2.16,-0.89l-0.76,-1.32l0.76,-0.73l2.05,0.37l0.02,2.15l1.95,0.08l0.09,1.14l1.19,-0.01l2.93,-4.76l7.37,-1.31l0.58,-1.68l-0.56,-1.6l1.64,-0.29l0.23,0.68l0.27,-1.49l4.8,1.93l0.89,-0.56l-0.74,-1.08l2.34,0.93l0.12,-1.84l0.47,0.78l0.51,-0.58l-1.18,-3.25l4.61,1.36l-0.51,-0.61l1.61,-0.72l-0.35,-1.72l1.73,0.68l0.66,-1l-0.8,-0.61l2.52,0.13l-1.13,-2.12l2.52,-1.4l1.13,-2.35l0.27,-2.01l-1.12,-2l1.65,0.7l1.29,-0.98l-0.78,-0.39l0.85,-1.1l-0.26,-1.44l-1.73,-1.02l3.25,-2.99l-4.12,-4.47l0.23,-2.97l0,0l1.03,0.49l0.42,-1.81l-1.52,-1.26l-0.06,-2.59l1.72,-0.48l1.31,-1.63l2.13,1.16l0.95,-0.41l-1.08,-1.92l0.58,-2.39l-3.14,-1.83l0.26,-1.9l-1.84,-0.46l-0.4,-0.94l0.8,-3.06l1.48,-1.08l1.16,0.22l-0.08,-1.64l2.22,-0.55l4.65,-4.14l-1.14,-0.5l0.64,-1.08l-1.86,-1.6l1.09,-1.43l-1.8,0.96l-0.82,-0.57l0,0l0,-0.01l0,0l-0.02,-0.08l0,0l1.78,-5.41l-1.11,-4.99l-3,-2.8L415.22,343.84z"/>
	</g>
</svg>