<?xml version="1.0" encoding="utf-8"?>
<!-- (c) ammap.com | SVG map of Kiribati - Low -->
<!-- Map data from the New Zealand Defence Force (NZDF) 2015, used under Creative Commons License 3.0 https://creativecommons.org/licenses/by/3.0/nz/, simplified from original maps, this map is not endorsed by NZDF. -->
<svg xmlns="http://www.w3.org/2000/svg" xmlns:amcharts="http://amcharts.com/ammap" xmlns:xlink="http://www.w3.org/1999/xlink" version="1.1">
	<defs>
		<style type="text/css">
			.land
			{
				fill: #CCCCCC;
				fill-opacity: 1;
				stroke:white;
				stroke-opacity: 1;
				stroke-width:0.5;
			}
		</style>

		<amcharts:ammap projection="mercator" leftLongitude="-174.546" topLatitude="4.732" rightLongitude="176.852" bottomLatitude="-11.428"></amcharts:ammap>

		<!-- All areas are listed in the line below. You can use this list in your script. -->
		<!--{id:"KI-G"},{id:"KI-L"},{id:"KI-B"}-->

	</defs>
	<g>
		<path id="KI-G" title="Gilbert Islands" class="land" d="M789.15,16.32L789.17,16.34L789.17,16.34L789.17,16.33L789.17,16.31L789.16,16.3L789.14,16.27L789.12,16.25L789.11,16.24L789.1,16.23L789.09,16.22L789.05,16.21L789.05,16.21L789.05,16.21L789.05,16.22L789.06,16.22L789.08,16.24L789.11,16.26L789.11,16.27L789.12,16.28L789.13,16.3L789.15,16.31L789.15,16.32zM787.22,15.93L787.22,15.93L787.22,15.94L787.23,15.95L787.25,15.96L787.26,15.97L787.27,15.99L787.28,15.99L787.28,15.99L787.29,15.99L787.3,15.98L787.29,15.98L787.25,15.94L787.25,15.93L787.23,15.92L787.22,15.92L787.22,15.93zM786.36,14.72L786.36,14.72L786.36,14.72L786.36,14.72L786.36,14.71L786.35,14.72L786.35,14.73L786.34,14.73L786.34,14.73L786.34,14.74L786.34,14.75L786.35,14.75L786.36,14.75L786.37,14.75L786.38,14.74L786.38,14.74L786.37,14.74L786.37,14.74L786.37,14.73L786.37,14.73L786.37,14.73L786.38,14.73L786.37,14.73L786.37,14.73L786.37,14.73L786.37,14.72L786.37,14.73L786.38,14.73L786.38,14.73L786.38,14.73L786.38,14.73L786.38,14.73L786.38,14.73L786.38,14.73L786.38,14.73L786.38,14.73L786.38,14.73L786.38,14.73L786.38,14.73L786.38,14.74L786.38,14.74L786.39,14.73L786.39,14.73L786.39,14.73L786.38,14.73L786.38,14.73L786.39,14.72L786.37,14.72L786.37,14.72L786.36,14.72L786.36,14.72L786.36,14.72L786.36,14.72L786.36,14.72zM786.34,14.54L786.35,14.54L786.34,14.54L786.34,14.54L786.34,14.54zM786.3,14.46L786.31,14.45L786.3,14.44L786.3,14.44L786.29,14.43L786.28,14.43zM786.28,14.43L786.27,14.43L786.26,14.42L786.25,14.41L786.25,14.4L786.24,14.4L786.24,14.4L786.24,14.39L786.24,14.39L786.25,14.4L786.25,14.4L786.25,14.39L786.24,14.39L786.23,14.39L786.23,14.39L786.24,14.4L786.24,14.4L786.24,14.4L786.24,14.41L786.25,14.41L786.25,14.41L786.24,14.41L786.23,14.41L786.23,14.41L786.23,14.41L786.23,14.41L786.23,14.41L786.23,14.41L786.23,14.4L786.23,14.4L786.23,14.4L786.23,14.39L786.23,14.39L786.24,14.39L786.25,14.39L786.26,14.4L786.27,14.41L786.27,14.41L786.29,14.41L786.29,14.41L786.31,14.42L786.32,14.43L786.32,14.44L786.32,14.45L786.31,14.47L786.31,14.49L786.31,14.49L786.31,14.5L786.31,14.5L786.31,14.5L786.31,14.5L786.32,14.51L786.32,14.51L786.32,14.52L786.33,14.53L786.33,14.53L786.34,14.54L786.34,14.54L786.34,14.54L786.34,14.54L786.34,14.54L786.35,14.55L786.35,14.54L786.35,14.54L786.35,14.54L786.35,14.54L786.36,14.54L786.36,14.55L786.37,14.55L786.4,14.56L786.4,14.56L786.4,14.56L786.4,14.56L786.42,14.57L786.42,14.57L786.43,14.59L786.45,14.6L786.45,14.61L786.45,14.62L786.45,14.62L786.45,14.63L786.45,14.64L786.44,14.67L786.44,14.68L786.41,14.71L786.41,14.72L786.4,14.73L786.4,14.73L786.4,14.72L786.39,14.72L786.39,14.72L786.4,14.72L786.41,14.71L786.42,14.7L786.42,14.69L786.43,14.68L786.44,14.66L786.44,14.64L786.44,14.62L786.44,14.61L786.43,14.59L786.43,14.59L786.42,14.58L786.41,14.58L786.41,14.58L786.4,14.57L786.38,14.57L786.37,14.56L786.36,14.56L786.36,14.56L786.35,14.55L786.34,14.55L786.33,14.53L786.32,14.52L786.3,14.5L786.3,14.48L786.3,14.47zM786.21,14.42L786.21,14.42L786.22,14.42L786.22,14.42L786.21,14.42zM786.22,14.42L786.22,14.42L786.22,14.42L786.22,14.42zM786.21,14.41L786.21,14.41L786.21,14.41L786.21,14.41zM785.23,13.82L785.24,13.83L785.24,13.83L785.25,13.82L785.24,13.82L785.25,13.82L785.25,13.82L785.25,13.81L785.25,13.81L785.25,13.81L785.25,13.81L785.25,13.81L785.25,13.81L785.25,13.8L785.25,13.81L785.26,13.82L785.25,13.82L785.25,13.82L785.24,13.83L785.24,13.83L785.23,13.83L785.23,13.83L785.23,13.83L785.22,13.82L785.22,13.81L785.22,13.8L785.23,13.78L785.23,13.78L785.23,13.78L785.23,13.79L785.23,13.79L785.23,13.8L785.23,13.81L785.23,13.82L785.23,13.82zM785.23,13.7L785.22,13.71L785.22,13.71L785.22,13.7L785.21,13.7L785.21,13.7L785.19,13.68L785.2,13.68L785.2,13.67L785.2,13.68L785.2,13.67L785.2,13.68L785.2,13.68L785.2,13.68L785.21,13.68L785.21,13.67L785.22,13.67L785.23,13.67L785.23,13.67L785.23,13.68L785.23,13.68L785.24,13.69L785.25,13.7L785.25,13.7L785.26,13.7L785.25,13.73L785.25,13.73L785.24,13.73L785.23,13.74L785.23,13.74L785.25,13.74L785.24,13.75L785.24,13.76L785.25,13.79L785.25,13.8L785.25,13.8L785.25,13.8L785.24,13.8L785.24,13.79L785.25,13.79L785.23,13.74L785.24,13.72L785.24,13.71L785.24,13.71L785.24,13.71L785.24,13.71L785.23,13.71L785.23,13.7zM785.19,13.68L785.19,13.68L785.19,13.68L785.19,13.68zM785.19,13.67L785.19,13.67L785.19,13.67L785.19,13.66L785.2,13.66L785.19,13.67L785.19,13.67L785.19,13.67L785.19,13.68L785.19,13.68L785.18,13.67L785.17,13.66L785.17,13.66L785.17,13.66L785.18,13.65L785.18,13.65L785.19,13.66L785.19,13.66L785.18,13.67L785.18,13.67L785.18,13.67L785.18,13.67L785.19,13.67zM785.19,13.67L785.19,13.67L785.19,13.67L785.19,13.67L785.19,13.67zM785.11,13.63L785.12,13.64L785.12,13.64L785.12,13.64L785.12,13.63L785.12,13.63L785.11,13.63L785.11,13.63L785.11,13.62L785.11,13.62L785.11,13.62L785.13,13.62L785.13,13.62L785.13,13.63L785.14,13.62L785.14,13.62L785.14,13.61L785.13,13.61L785.13,13.61L785.13,13.61L785.12,13.6L785.12,13.6L785.12,13.6L785.12,13.6L785.12,13.6L785.11,13.6L785.11,13.6L785.11,13.6L785.11,13.6L785.1,13.61L785.1,13.61L785.1,13.62L785.1,13.62L785.1,13.62L785.11,13.62L785.11,13.62L785.11,13.62L785.11,13.63L785.11,13.63zM785.13,13.63L785.13,13.63L785.14,13.63L785.13,13.63L785.13,13.63L785.13,13.63L785.14,13.64L785.15,13.65L785.16,13.66L785.17,13.66L785.16,13.66L785.16,13.65L785.17,13.65L785.17,13.65L785.18,13.64L785.17,13.64L785.17,13.64L785.16,13.64L785.16,13.64L785.17,13.63L785.16,13.63L785.16,13.63L785.16,13.63L785.15,13.64L785.15,13.64L785.15,13.63L785.15,13.63L785.15,13.63L785.15,13.63L785.15,13.63L785.15,13.63L785.15,13.63L785.15,13.63L785.16,13.62L785.16,13.62L785.15,13.62L785.14,13.63L785.13,13.63zM785.13,13.62L785.13,13.62L785.12,13.63L785.12,13.62L785.12,13.62L785.12,13.62L785.12,13.63L785.13,13.63L785.13,13.63L785.12,13.62L785.13,13.63L785.13,13.62zM785.08,13.62L785.08,13.62L785.07,13.61L785.08,13.61L785.08,13.61L785.08,13.61L785.08,13.61L785.08,13.61L785.08,13.61L785.08,13.61L785.07,13.61L785.07,13.61L785.08,13.61L785.09,13.61L785.09,13.59L785.09,13.59L785.1,13.59L785.09,13.61L785.09,13.61L785.09,13.61L785.09,13.61L785.08,13.62zM785.01,13.61L785.01,13.6L785.01,13.61L785.01,13.61zM785.07,13.6L785.08,13.59L785.08,13.6L785.07,13.6zM785.03,13.59L785.03,13.59L785.04,13.59L785.03,13.59zM785.07,13.58L785.06,13.59L785.06,13.59L785.06,13.59L785.06,13.59L785.06,13.59L785.06,13.59L785.06,13.59L785.07,13.59L785.07,13.59L785.07,13.6L785.07,13.6L785.08,13.59L785.07,13.58zM785.02,13.58L785.02,13.57L785.02,13.57L785.02,13.57L785.02,13.59L785.02,13.59L785.02,13.59L785.02,13.59L785.02,13.58L785.02,13.58L785.02,13.58L785.02,13.58L785.02,13.58L785.02,13.58zM785.03,13.58L785.03,13.58L785.04,13.57L785.04,13.57L785.04,13.57L785.04,13.58L785.03,13.59L785.03,13.59L785.03,13.59L785.03,13.59L785.03,13.59L785.03,13.6L785.02,13.6L785.03,13.59L785.03,13.58L785.03,13.59L785.03,13.58L785.03,13.58zM784.97,13.58L784.97,13.58L784.97,13.58L784.97,13.58zM785.05,13.58L785.06,13.57L785.06,13.58L785.05,13.58L785.05,13.59L785.06,13.59L785.05,13.59L785.05,13.59L785.05,13.58L785.05,13.58L785.04,13.58L785.04,13.59L785.04,13.59L785.05,13.58zM784.97,13.58L784.97,13.57L784.97,13.57L784.97,13.58zM784.99,13.57L785,13.57L785,13.57L785,13.57L784.99,13.57L784.99,13.57zM784.99,13.57L785,13.57L785,13.57L785,13.57L785,13.57L784.99,13.57L784.99,13.57L784.99,13.57zM785.01,13.57L785.01,13.58L785.01,13.58L785.01,13.59L785.01,13.59L785.01,13.59L785.01,13.58L785.01,13.57L785.01,13.57zM784.98,13.57L784.97,13.57L784.98,13.56L784.98,13.57zM784.98,13.57L784.98,13.57L784.99,13.57L784.99,13.57L784.99,13.56L784.98,13.57zM784.98,13.56L784.97,13.57L784.97,13.56L784.97,13.56L784.97,13.55L784.98,13.56L784.98,13.56zM784.97,13.55L784.97,13.55L784.97,13.56L784.97,13.56L784.96,13.55L784.96,13.55L784.97,13.54L784.97,13.54L784.97,13.55L784.97,13.55zM784.95,13.55L784.95,13.55L784.96,13.54L784.96,13.53L784.95,13.53L784.95,13.54L784.95,13.55zM784.94,13.54L784.94,13.55L784.94,13.54L784.94,13.54zM784.93,13.54L784.93,13.54L784.93,13.53L784.93,13.53L784.94,13.53L784.93,13.54zM784.92,13.53L784.92,13.52L784.92,13.52L784.93,13.52L784.93,13.52L784.92,13.53L784.92,13.53L784.92,13.53L784.92,13.53zM784.91,13.52L784.91,13.51L784.91,13.52L784.91,13.53L784.91,13.53L784.91,13.52zM784.9,13.52L784.9,13.52L784.88,13.52L784.89,13.52L784.89,13.52L784.89,13.52L784.89,13.51L784.9,13.52L784.9,13.51L784.9,13.51L784.9,13.52zM784.89,13.51L784.89,13.52L784.89,13.51L784.89,13.51zM784.86,13.49L784.86,13.5L784.87,13.49L784.87,13.49L784.88,13.49L784.88,13.5L784.88,13.5L784.87,13.5L784.87,13.51L784.87,13.5L784.85,13.5L784.85,13.5L784.86,13.5L784.85,13.49L784.85,13.5L784.85,13.5L784.85,13.49L784.84,13.49L784.85,13.49L784.85,13.49L784.85,13.49L784.86,13.48L784.86,13.48L784.86,13.48L784.86,13.48L784.86,13.49L784.86,13.49L784.86,13.49zM784.85,13.46L784.85,13.47L784.85,13.47L784.84,13.48L784.85,13.48L784.85,13.47L784.86,13.47L784.85,13.46L784.85,13.46L784.85,13.46L784.85,13.46L784.85,13.45L784.85,13.45L784.84,13.46L784.84,13.46L784.84,13.46L784.84,13.46L784.85,13.46zM784.83,13.46L784.83,13.46L784.83,13.46L784.83,13.46L784.83,13.45L784.84,13.45L784.83,13.45L784.83,13.46zM784.81,13.45L784.81,13.45L784.81,13.45L784.81,13.44L784.81,13.44L784.82,13.44L784.82,13.43L784.82,13.43L784.82,13.44L784.81,13.44L784.81,13.45zM784.83,13.44L784.83,13.45L784.83,13.45L784.83,13.45L784.83,13.45L784.84,13.44L784.84,13.44L784.83,13.44L784.83,13.44L784.83,13.44zM784.81,13.42L784.81,13.43L784.81,13.42L784.8,13.42L784.8,13.42L784.8,13.42L784.8,13.42L784.8,13.42L784.8,13.41L784.8,13.42L784.8,13.42L784.8,13.42L784.8,13.42L784.8,13.42L784.8,13.42L784.8,13.43L784.81,13.43L784.81,13.43L784.81,13.43L784.81,13.42L784.81,13.42zM787.28,13.42L787.28,13.42L787.28,13.42L787.28,13.42L787.28,13.42zM787.26,13.41L787.26,13.41L787.26,13.41L787.26,13.42L787.26,13.41zM784.78,13.41L784.79,13.41L784.79,13.42L784.8,13.41L784.8,13.41L784.79,13.41L784.78,13.41zM787.26,13.41L787.26,13.41L787.26,13.41L787.26,13.41zM787.24,13.41L787.24,13.4L787.24,13.41L787.24,13.41zM784.76,13.4L784.75,13.4L784.75,13.4L784.75,13.4L784.76,13.4L784.77,13.4L784.77,13.39L784.78,13.39L784.78,13.39L784.78,13.39L784.78,13.4L784.79,13.4L784.79,13.4L784.79,13.4L784.78,13.4L784.78,13.4L784.78,13.4L784.78,13.4L784.78,13.4L784.77,13.4L784.76,13.4zM784.76,13.39L784.75,13.4L784.75,13.4L784.75,13.4L784.74,13.4L784.75,13.4L784.75,13.39L784.75,13.39L784.75,13.39L784.76,13.39L784.76,13.38L784.76,13.38L784.76,13.39zM788.26,13.39L788.22,13.36L788.2,13.35L788.19,13.34L788.19,13.34L788.19,13.33L788.19,13.33L788.19,13.33L788.21,13.33L788.25,13.33L788.26,13.33L788.27,13.34L788.29,13.35L788.3,13.37L788.31,13.41L788.32,13.43L788.33,13.45L788.34,13.46L788.36,13.47L788.38,13.49L788.39,13.51L788.39,13.53L788.39,13.53L788.39,13.53L788.38,13.53L788.37,13.52L788.37,13.52L788.37,13.52L788.35,13.51L788.35,13.51L788.35,13.49L788.34,13.48L788.34,13.46L788.32,13.44L788.31,13.44L788.29,13.42L788.27,13.41L788.26,13.39zM784.74,13.39L784.74,13.39L784.74,13.39L784.74,13.39zM784.74,13.39L784.74,13.39L784.74,13.39L784.74,13.39L784.74,13.38L784.74,13.39zM784.73,13.39L784.73,13.39L784.73,13.39L784.73,13.38L784.73,13.39zM784.73,13.39L784.73,13.38L784.73,13.37L784.73,13.38L784.72,13.39L784.73,13.39L784.73,13.39zM784.69,13.38L784.69,13.38L784.69,13.38L784.69,13.37L784.7,13.37L784.7,13.36L784.7,13.37L784.69,13.38zM784.72,13.38L784.72,13.38L784.72,13.38L784.71,13.39L784.72,13.38L784.72,13.37L784.72,13.37L784.72,13.37L784.72,13.37L784.72,13.38zM784.71,13.37L784.7,13.38L784.7,13.38L784.69,13.38L784.7,13.38L784.7,13.37L784.71,13.37L784.71,13.36L784.71,13.37zM787.29,13.37L787.29,13.38L787.29,13.39L787.29,13.39L787.29,13.39L787.29,13.39L787.29,13.39L787.29,13.41L787.29,13.41L787.3,13.42L787.3,13.42L787.28,13.4L787.28,13.39L787.28,13.39L787.28,13.38L787.28,13.38L787.26,13.38L787.26,13.39L787.26,13.39L787.26,13.4L787.27,13.41L787.27,13.41L787.28,13.41L787.28,13.42L787.28,13.42L787.28,13.43L787.28,13.42L787.28,13.42L787.28,13.43L787.3,13.43L787.31,13.44L787.34,13.46L787.34,13.47L787.35,13.47L787.35,13.46L787.36,13.46L787.36,13.45L787.36,13.45L787.36,13.45L787.36,13.45L787.35,13.44L787.35,13.43L787.33,13.4L787.32,13.4L787.31,13.39L787.3,13.38L787.3,13.37L787.3,13.37L787.29,13.35L787.26,13.29L787.25,13.28L787.25,13.28L787.24,13.27L787.22,13.26L787.22,13.25L787.21,13.24L787.2,13.24L787.2,13.23L787.19,13.24L787.19,13.24L787.19,13.24L787.19,13.24L787.19,13.25L787.19,13.26L787.17,13.27L787.18,13.28L787.17,13.29L787.18,13.29L787.18,13.29L787.18,13.29L787.18,13.29L787.18,13.29L787.19,13.29L787.19,13.29L787.2,13.29L787.2,13.29L787.2,13.29L787.2,13.28L787.2,13.28L787.2,13.29L787.2,13.29L787.19,13.29L787.19,13.28L787.19,13.28L787.2,13.28L787.19,13.28L787.19,13.28L787.19,13.28L787.19,13.27L787.2,13.27L787.2,13.27L787.2,13.26L787.19,13.26L787.19,13.26L787.2,13.26L787.2,13.25L787.2,13.25L787.2,13.25L787.2,13.25L787.2,13.26L787.2,13.26L787.2,13.27L787.21,13.27L787.21,13.27L787.21,13.27L787.21,13.27L787.21,13.27L787.21,13.27L787.21,13.28L787.2,13.28L787.21,13.29L787.21,13.3L787.21,13.29L787.22,13.29zM787.21,13.37L787.21,13.36L787.21,13.36L787.21,13.37zM784.69,13.36L784.68,13.36L784.68,13.36L784.69,13.35L784.69,13.36zM784.68,13.36L784.67,13.36L784.68,13.35L784.68,13.35L784.68,13.35L784.68,13.35L784.66,13.37L784.67,13.36L784.66,13.36L784.67,13.36L784.68,13.35L784.68,13.35L784.68,13.35L784.68,13.36L784.68,13.37L784.68,13.36L784.68,13.35L784.68,13.36zM787.28,13.35L787.28,13.36L787.28,13.37zM784.66,13.35L784.65,13.35L784.65,13.36L784.65,13.35L784.66,13.35L784.66,13.34L784.66,13.34L784.66,13.34L784.67,13.34L784.66,13.35zM787.2,13.34L787.21,13.34L787.2,13.34L787.2,13.34zM784.64,13.33L784.65,13.33L784.64,13.34L784.64,13.33zM787.26,13.32L787.28,13.35zM784.64,13.32L784.63,13.32L784.65,13.32L784.64,13.32L784.64,13.32zM784.64,13.31L784.64,13.31L784.64,13.31L784.64,13.31L784.64,13.31L784.64,13.31L784.64,13.31zM784.64,13.3L784.64,13.31L784.64,13.31L784.63,13.3L784.64,13.3L784.64,13.3L784.64,13.3zM784.63,13.3L784.63,13.29L784.63,13.29L784.64,13.29L784.64,13.29L784.64,13.29L784.64,13.29L784.64,13.29L784.64,13.29L784.64,13.28L784.64,13.26L784.64,13.26L784.63,13.23L784.63,13.22L784.62,13.22L784.62,13.22L784.62,13.21L784.62,13.22L784.63,13.23L784.63,13.25L784.63,13.28L784.63,13.31L784.63,13.3L784.63,13.3zM787.24,13.3L787.25,13.3L787.26,13.32zM787.24,13.3L787.23,13.3L787.23,13.29zM784.64,13.29L784.64,13.29L784.64,13.29L784.64,13.29zM787.22,13.29L787.22,13.29L787.22,13.29zM787.2,13.28L787.2,13.28L787.2,13.28L787.2,13.28zM784.62,13.21L784.62,13.21L784.62,13.21L784.62,13.21zM784.62,13.2L784.62,13.2L784.62,13.2L784.62,13.2L784.62,13.2zM784.52,13.09L784.55,13.12L784.56,13.12L784.57,13.13L784.58,13.13L784.59,13.15L784.61,13.17L784.61,13.19L784.61,13.2L784.61,13.21L784.62,13.21L784.61,13.2L784.61,13.2L784.62,13.2L784.62,13.2L784.62,13.18L784.62,13.18L784.62,13.18L784.62,13.18L784.62,13.17L784.62,13.17L784.6,13.14L784.59,13.15L784.59,13.15L784.59,13.14L784.6,13.14L784.59,13.14L784.59,13.14L784.57,13.12L784.57,13.11L784.56,13.12L784.56,13.12L784.57,13.11L784.56,13.11L784.56,13.1L784.56,13.1L784.55,13.09L784.55,13.09L784.55,13.08L784.54,13.08L784.53,13.08L784.52,13.07L784.53,13.06L784.53,13.06L784.52,13.07L784.52,13.06L784.52,13.06L784.52,13.05L784.52,13.04L784.51,13.04L784.51,13.04L784.5,13.03L784.49,13.02L784.49,13.02L784.49,13.01L784.48,13L784.48,12.99L784.47,12.98L784.47,12.98L784.46,12.97L784.46,12.97L784.46,12.97L784.46,12.97L784.45,12.97L784.44,12.96L784.44,12.96L784.44,12.96L784.43,12.95L784.42,12.95L784.42,12.95L784.41,12.95L784.41,12.95L784.4,12.94L784.4,12.94L784.4,12.94L784.4,12.94L784.4,12.94L784.39,12.94L784.39,12.94L784.39,12.94L784.4,12.93L784.39,12.94L784.39,12.94L784.39,12.93L784.39,12.93L784.39,12.92L784.39,12.93L784.38,12.93L784.38,12.93L784.38,12.93L784.39,12.93L784.38,12.92L784.38,12.92L784.38,12.92L784.37,12.91L784.37,12.91L784.37,12.91L784.37,12.9L784.35,12.87L784.34,12.87L784.34,12.87L784.34,12.87L784.33,12.88L784.33,12.89L784.33,12.89L784.33,12.9L784.33,12.9L784.33,12.9L784.33,12.9L784.33,12.9L784.33,12.89L784.33,12.89L784.33,12.89L784.33,12.89L784.34,12.89L784.34,12.9zM784.46,13L784.47,13.01L784.47,13.02L784.48,13.02L784.48,13.03L784.48,13.03L784.48,13.04L784.48,13.05L784.5,13.07L784.52,13.09zM784.37,12.94L784.4,12.97L784.41,12.97L784.42,12.98L784.43,12.98L784.44,12.99L784.45,13L784.46,13zM784.36,12.94L784.36,12.94zM784.4,12.93L784.4,12.94L784.4,12.94L784.4,12.93L784.4,12.93zM784.4,12.93L784.4,12.94L784.41,12.94L784.4,12.93zM784.33,12.9L784.33,12.91L784.33,12.91L784.34,12.91L784.33,12.91L784.33,12.9L784.34,12.9L784.34,12.9L784.33,12.9L784.33,12.9L784.34,12.9L784.34,12.9L784.34,12.9L784.34,12.9L784.34,12.9L784.34,12.9L784.34,12.9L784.34,12.9L784.34,12.91L784.34,12.91L784.34,12.92L784.34,12.92L784.34,12.92L784.34,12.92L784.34,12.92L784.34,12.92L784.34,12.92L784.33,12.92L784.33,12.91L784.33,12.91L784.33,12.91L784.33,12.91L784.33,12.91L784.33,12.91L784.33,12.91L784.33,12.91L784.32,12.92L784.33,12.92L784.34,12.93L784.34,12.94L784.35,12.94L784.36,12.94zM784.34,12.9L784.33,12.9zM772.99,12.35L772.99,12.35L772.99,12.35L773,12.34L773.01,12.32L773.01,12.31L773,12.31L773,12.3L772.99,12.3L772.97,12.29L772.97,12.29L772.96,12.29L772.95,12.3L772.95,12.31L772.95,12.32L772.95,12.33L772.96,12.34L772.96,12.34L772.98,12.34L772.99,12.35zM783.9,12.22L783.91,12.21L783.91,12.21L783.92,12.21L783.92,12.19L783.92,12.19L783.92,12.19L783.92,12.19L783.92,12.19L783.91,12.19L783.91,12.19L783.91,12.19L783.91,12.19L783.9,12.19L783.9,12.2L783.89,12.2L783.89,12.2L783.88,12.19L783.88,12.19L783.88,12.19L783.88,12.19L783.88,12.19L783.88,12.19L783.88,12.2L783.88,12.2L783.87,12.2L783.87,12.19L783.87,12.19L783.87,12.19L783.88,12.19L783.88,12.19L783.88,12.18L783.88,12.18L783.88,12.18L783.88,12.18L783.88,12.18L783.88,12.18L783.88,12.18L783.88,12.18L783.88,12.17L783.88,12.18L783.88,12.18L783.88,12.18L783.89,12.17L783.89,12.17L783.88,12.17L783.87,12.18L783.88,12.17L783.88,12.17L783.88,12.17L783.88,12.18L783.87,12.18L783.87,12.18L783.87,12.19L783.87,12.19L783.87,12.19L783.87,12.19L783.86,12.2L783.86,12.2L783.87,12.2L783.87,12.21L783.87,12.21L783.87,12.21L783.87,12.21L783.87,12.21L783.88,12.21L783.89,12.22L783.89,12.22L783.9,12.23L783.9,12.22zM783.92,12.17L783.92,12.17L783.92,12.17L783.92,12.18L783.92,12.19L783.92,12.19L783.92,12.18L783.92,12.17zM783.92,12.16L783.92,12.16L783.92,12.17L783.92,12.16zM783.91,12.13L783.91,12.14L783.91,12.14L783.91,12.14L783.91,12.15L783.91,12.15L783.91,12.16L783.91,12.17L783.91,12.17L783.91,12.18L783.91,12.18L783.91,12.18L783.91,12.18L783.91,12.19L783.92,12.18L783.92,12.19L783.92,12.18L783.92,12.17L783.92,12.16L783.92,12.15L783.92,12.15L783.91,12.12L783.91,12.12L783.91,12.11L783.91,12.11L783.91,12.1L783.91,12.1L783.9,12.08L783.9,12.07L783.88,12.04L783.87,12.03L783.87,12L783.87,11.99L783.87,11.96L783.87,11.96L783.88,11.94L783.88,11.93L783.87,11.91L783.87,11.89L783.87,11.88L783.86,11.87L783.86,11.86L783.85,11.86L783.84,11.85L783.83,11.84L783.83,11.84L783.8,11.82L783.79,11.81L783.77,11.8L783.74,11.76L783.74,11.76L783.73,11.75L783.71,11.74L783.7,11.73L783.69,11.72L783.68,11.71L783.67,11.71L783.68,11.71L783.68,11.71L783.68,11.72L783.68,11.72L783.67,11.72L783.67,11.72L783.67,11.72L783.67,11.72L783.66,11.72L783.66,11.72L783.66,11.72L783.68,11.73L783.69,11.73L783.7,11.74L783.7,11.75L783.71,11.75L783.71,11.76L783.72,11.76L783.72,11.76L783.73,11.76L783.74,11.77L783.75,11.78L783.75,11.78L783.75,11.79L783.75,11.79L783.75,11.79L783.76,11.8L783.77,11.8L783.77,11.81L783.77,11.81L783.77,11.82L783.78,11.82L783.79,11.82zM783.84,12.12L783.84,12.11L783.83,12.11L783.83,12.11L783.84,12.11L783.84,12.12zM783.63,12.12L783.62,12.12L783.63,12.12L783.63,12.12zM783.63,12.12L783.63,12.11L783.63,12.12L783.63,12.12zM783.61,11.94L783.61,11.94L783.61,11.94L783.61,11.94zM783.86,11.91L783.86,11.92L783.87,11.94L783.87,11.96L783.86,12.01L783.86,12.04L783.87,12.06L783.89,12.08L783.89,12.09L783.9,12.1L783.9,12.11L783.9,12.12L783.91,12.13zM783.53,11.83L783.53,11.83L783.53,11.83L783.53,11.83zM783.79,11.83L783.8,11.83L783.8,11.84L783.81,11.84L783.81,11.84L783.82,11.84L783.83,11.85L783.83,11.85L783.83,11.85L783.83,11.85L783.83,11.85L783.83,11.86L783.83,11.86L783.83,11.86L783.83,11.86L783.83,11.86L783.84,11.87L783.84,11.87L783.84,11.87L783.84,11.87L783.85,11.87L783.85,11.87L783.85,11.87L783.85,11.89L783.86,11.91zM783.42,11.82L783.42,11.81L783.42,11.82L783.42,11.82zM783.34,11.74L783.34,11.73L783.34,11.73L783.34,11.73L783.34,11.73L783.34,11.74L783.34,11.74L783.34,11.74L783.34,11.74zM783.33,11.74L783.32,11.74L783.33,11.74L783.33,11.74L783.33,11.74zM783.67,11.72L783.68,11.71L783.67,11.72L783.67,11.72L783.67,11.72L783.67,11.72zM783.64,11.71L783.64,11.71L783.63,11.71L783.63,11.71L783.63,11.71L783.62,11.71L783.62,11.71zM783.62,11.71L783.6,11.71L783.6,11.7L783.6,11.7L783.6,11.7L783.59,11.7L783.58,11.69L783.58,11.7L783.58,11.69L783.58,11.69L783.58,11.69L783.6,11.7L783.61,11.7L783.6,11.7L783.6,11.7L783.61,11.7L783.61,11.7L783.61,11.7L783.61,11.7L783.61,11.7L783.62,11.7L783.62,11.7L783.63,11.7L783.63,11.7L783.65,11.7L783.65,11.7L783.66,11.7L783.67,11.71L783.67,11.71L783.67,11.72L783.67,11.72L783.67,11.71L783.66,11.71L783.66,11.71L783.66,11.71L783.66,11.72L783.66,11.72L783.67,11.72L783.66,11.72L783.66,11.72L783.66,11.72L783.66,11.72L783.66,11.72L783.65,11.71L783.64,11.71zM783.57,11.7L783.57,11.69L783.56,11.69L783.56,11.68L783.56,11.68L783.58,11.69L783.57,11.69L783.57,11.69L783.57,11.69L783.57,11.7L783.57,11.7zM783.56,11.68L783.56,11.68L783.55,11.67L783.55,11.67L783.54,11.66L783.52,11.65L783.52,11.65L783.52,11.65L783.52,11.65L783.52,11.65L783.52,11.65L783.53,11.65L783.53,11.66L783.54,11.66L783.54,11.66L783.55,11.67L783.55,11.69L783.56,11.68zM783.49,11.66L783.48,11.66L783.48,11.66L783.48,11.66L783.49,11.66zM783.51,11.65L783.51,11.65L783.52,11.64L783.52,11.64L783.52,11.65L783.52,11.65L783.51,11.65L783.52,11.65L783.52,11.64L783.51,11.65L783.51,11.65L783.51,11.65L783.51,11.65L783.5,11.65L783.51,11.64L783.5,11.64L783.51,11.64L783.51,11.64L783.5,11.64L783.5,11.64L783.5,11.64L783.5,11.65L783.5,11.65L783.49,11.66L783.49,11.65L783.49,11.65L783.49,11.65L783.49,11.65L783.5,11.64L783.5,11.64L783.5,11.64L783.51,11.64L783.51,11.64L783.51,11.64L783.51,11.65zM783.52,11.65L783.52,11.65L783.52,11.64L783.52,11.65zM783.48,11.65L783.48,11.65L783.48,11.65L783.47,11.66L783.47,11.65L783.47,11.64L783.48,11.64L783.48,11.64L783.49,11.64L783.48,11.65zM783.46,11.65L783.46,11.65L783.46,11.66L783.47,11.65L783.46,11.65L783.46,11.65L783.46,11.64L783.46,11.64L783.46,11.65zM783.43,11.64L783.43,11.65L783.44,11.64L783.44,11.64L783.45,11.64L783.45,11.64L783.44,11.64L783.44,11.64L783.43,11.64zM783.36,11.64L783.36,11.64L783.35,11.64L783.35,11.65L783.35,11.65L783.36,11.64zM783.42,11.63L783.42,11.63L783.42,11.63L783.42,11.64L783.42,11.63L783.4,11.63L783.41,11.62L783.41,11.63L783.41,11.63L783.41,11.63L783.42,11.63L783.42,11.63zM783.4,11.63L783.4,11.63L783.4,11.62L783.4,11.62L783.39,11.62L783.39,11.62L783.39,11.63L783.39,11.63L783.39,11.62L783.4,11.62L783.4,11.62L783.41,11.62L783.4,11.62L783.4,11.63zM783.39,11.62L783.38,11.62L783.38,11.62L783.38,11.62L783.39,11.63L783.39,11.63L783.39,11.62L783.39,11.62L783.39,11.61L783.4,11.61L783.39,11.6L783.38,11.59L783.38,11.59L783.38,11.58L783.37,11.59L783.37,11.59L783.36,11.6L783.36,11.6L783.36,11.6L783.36,11.6L783.36,11.61L783.36,11.61L783.36,11.61L783.36,11.62L783.36,11.61L783.36,11.61L783.36,11.61L783.36,11.61L783.36,11.61L783.36,11.61L783.36,11.6L783.36,11.6L783.36,11.6L783.36,11.6L783.37,11.6L783.37,11.6L783.37,11.6L783.37,11.6L783.37,11.6L783.37,11.6L783.37,11.6L783.37,11.6L783.37,11.6L783.37,11.6L783.37,11.59L783.38,11.59L783.38,11.59L783.38,11.59L783.38,11.59L783.38,11.59L783.38,11.59L783.38,11.58L783.38,11.59L783.38,11.6L783.38,11.59L783.38,11.59L783.38,11.59L783.38,11.6L783.38,11.6L783.38,11.6L783.38,11.6L783.38,11.6L783.39,11.6L783.39,11.6L783.39,11.61L783.39,11.61L783.39,11.61L783.39,11.61L783.39,11.62L783.39,11.62zM783.38,11.62L783.38,11.61L783.39,11.61L783.39,11.61L783.39,11.61L783.38,11.61L783.38,11.61L783.38,11.61L783.38,11.62L783.38,11.62L783.38,11.62zM783.37,11.62L783.37,11.61L783.37,11.62L783.37,11.62zM783.37,11.62L783.36,11.62L783.37,11.61L783.37,11.62zM782.01,10.16L782.01,10.16L782.02,10.16L782.02,10.16L782.02,10.15L782.02,10.15L782.02,10.15L782.02,10.15L782.02,10.15L782.03,10.15L782.03,10.15L782.03,10.15L782.03,10.15L782.03,10.15L782.03,10.15L782.03,10.15L782.04,10.15L782.05,10.13L782.05,10.12L782.06,10.1L782.08,10.05L782.08,10.03L782.07,10L782.06,9.98L782.05,9.97L782.04,9.97L782.04,9.98L782.04,9.98L782.04,9.98L782.04,9.98L782.05,9.98L782.05,9.98L782.05,9.98L782.05,9.97L782.05,9.97L782.05,9.97L782.05,9.97L782.05,9.98L782.05,9.98L782.05,9.98L782.05,9.98L782.05,9.99L782.06,9.98L782.06,9.99L782.06,10L782.06,10.01L782.06,10.01L782.06,10L782.06,10L782.05,10L782.05,10L782.05,10L782.05,10.01L782.05,10.02L782.06,10.03L782.06,10.04L782.06,10.05L782.06,10.06L782.06,10.08L782.04,10.11L782.03,10.12L782.03,10.13L782.03,10.13L782.02,10.12L782.02,10.12L782.02,10.14L782.01,10.14L782.01,10.15L782,10.15L782.01,10.15L782.01,10.15L782.01,10.16L782.01,10.16zM781.89,10.05L781.89,10.05L781.89,10.05L781.89,10.05zM781.96,10.05L781.96,10.04L781.96,10.05L781.96,10.05L781.97,10.05L781.97,10.05L781.97,10.05L781.96,10.05zM781.87,10.04L781.9,10.05L781.91,10.04L781.93,10.04L781.95,10.04L781.95,10.04L781.95,10.04L781.94,10.04L781.93,10.03L781.92,10.03L781.92,10.03L781.91,10.03L781.92,10.02L781.92,10.03L781.92,10.03L781.93,10.03L781.93,10.03L781.91,10.02L781.91,10.01L781.91,10.01L781.88,10.01L781.86,10L781.85,10L781.84,10.01L781.84,10.02L781.84,10.02L781.86,10.03L781.87,10.04zM781.91,10.03L781.91,10.03L781.92,10.03L781.91,10.03zM781.97,10.01L781.97,9.99L781.97,10.01L781.97,10.01L781.97,10.01zM781.97,10L781.97,10.01L781.97,10L781.97,10zM781.98,10L781.98,9.99L781.99,10L781.98,10.01L781.98,10zM782.03,9.99L782.03,9.98L782.03,9.98L782.03,9.98L782.03,9.98L782.03,9.98L782.03,9.98L782.03,9.98L782.03,9.98L782.04,9.98L782.04,9.98L782.04,9.98L782.04,9.98L782.03,9.97L782.04,9.96L782.04,9.96L782.04,9.96L782.04,9.96L782.03,9.97L782.03,9.97L782.03,9.97L782.03,9.96L782.03,9.97L782.03,9.97L782.02,9.99L782.02,9.99L782.02,9.99L782.02,9.99L782.03,9.99L782.03,9.99zM782,9.98L782,9.98L782,9.98L782,9.97L782.01,9.98L782.01,9.98L782,9.98zM781.56,9.91L781.56,9.92L781.57,9.96L781.57,9.97L781.58,9.98L781.58,9.98L781.58,9.99L781.58,9.99L781.59,9.99L781.6,9.99L781.6,9.98L781.62,9.96L781.65,9.95L781.65,9.95L781.65,9.95L781.65,9.94L781.64,9.93L781.63,9.93L781.61,9.92L781.61,9.92L781.61,9.92L781.59,9.91L781.59,9.91L781.58,9.91L781.58,9.91L781.57,9.91L781.56,9.91zM781.56,9.91L781.56,9.9L781.56,9.89L781.56,9.89L781.55,9.87L781.54,9.85L781.55,9.85L781.55,9.85L781.54,9.85L781.54,9.84L781.52,9.82L781.51,9.82L781.51,9.82L781.49,9.84L781.49,9.84L781.49,9.85L781.51,9.86L781.53,9.87L781.55,9.89L781.55,9.89L781.56,9.91zM782.67,9.74L782.67,9.74L782.67,9.74L782.67,9.74L782.67,9.74L782.67,9.74L782.65,9.74L782.65,9.74L782.66,9.73L782.66,9.72L782.66,9.73L782.67,9.73L782.67,9.73L782.69,9.72L782.69,9.72L782.69,9.73L782.68,9.73L782.68,9.73L782.68,9.74L782.68,9.74L782.68,9.74L782.68,9.74L782.67,9.74L782.67,9.74L782.67,9.74zM782.71,9.72L782.71,9.73L782.7,9.72L782.69,9.73L782.68,9.73L782.68,9.73L782.69,9.73L782.68,9.74L782.69,9.74L782.69,9.74L782.69,9.74L782.7,9.74L782.71,9.74L782.71,9.74L782.72,9.75L782.72,9.74L782.73,9.74L782.74,9.73L782.74,9.72L782.74,9.71L782.74,9.7L782.74,9.7L782.74,9.7L782.74,9.68L782.74,9.68L782.74,9.68L782.73,9.68L782.73,9.69L782.73,9.69L782.72,9.7L782.72,9.71L782.72,9.71L782.72,9.71L782.72,9.72L782.72,9.71L782.72,9.71L782.72,9.72L782.72,9.72L782.72,9.72L782.72,9.72L782.71,9.72zM782.72,9.7L782.72,9.7L782.72,9.7L782.73,9.68L782.73,9.68L782.72,9.67L782.73,9.67L782.72,9.66L782.73,9.66L782.73,9.66L782.73,9.66L782.73,9.66L782.74,9.66L782.74,9.66L782.74,9.67L782.74,9.67L782.74,9.67L782.74,9.67L782.74,9.67L782.74,9.67L782.74,9.67L782.73,9.67L782.74,9.68L782.73,9.68L782.73,9.68L782.73,9.69L782.73,9.69L782.72,9.7zM782.74,9.7L782.74,9.69L782.74,9.69L782.74,9.69L782.74,9.69L782.74,9.69L782.74,9.69L782.74,9.69L782.74,9.69L782.74,9.69L782.75,9.7L782.74,9.7L782.74,9.7zM782.74,9.68L782.74,9.68L782.74,9.68L782.74,9.68zM782.72,9.68L782.72,9.68L782.72,9.68L782.72,9.65L782.72,9.62L782.72,9.6L782.7,9.58L782.69,9.54L782.69,9.53L782.69,9.53L782.69,9.53L782.7,9.53L782.7,9.53L782.7,9.53L782.7,9.53L782.71,9.54L782.71,9.54L782.7,9.54L782.7,9.54L782.7,9.54L782.71,9.54L782.71,9.56L782.71,9.56L782.71,9.56L782.71,9.56L782.71,9.56L782.72,9.58L782.72,9.58L782.73,9.61L782.74,9.62L782.74,9.63L782.74,9.63L782.74,9.64L782.74,9.64L782.74,9.64L782.74,9.64L782.74,9.64L782.74,9.64L782.74,9.65L782.74,9.65L782.73,9.65L782.73,9.65L782.73,9.65L782.72,9.66L782.72,9.68L782.73,9.68L782.72,9.68zM782.74,9.68L782.74,9.68L782.73,9.68L782.73,9.68L782.74,9.68L782.74,9.68L782.74,9.68L782.74,9.68L782.74,9.68L782.74,9.68zM782.74,9.67L782.74,9.67L782.74,9.67L782.74,9.67L782.74,9.67L782.74,9.67zM782.53,9.67L782.52,9.66L782.52,9.66L782.51,9.66L782.51,9.66L782.52,9.65L782.52,9.66L782.53,9.65L782.53,9.65L782.53,9.66L782.54,9.66L782.53,9.67zM782.74,9.66L782.74,9.66L782.74,9.66L782.74,9.66zM782.34,9.57L782.35,9.57L782.36,9.58L782.38,9.58L782.39,9.58L782.39,9.58L782.41,9.58L782.41,9.58L782.4,9.58L782.4,9.57L782.39,9.57L782.39,9.56L782.38,9.56L782.37,9.56L782.36,9.55L782.36,9.55L782.35,9.55L782.34,9.55L782.34,9.56L782.34,9.56L782.34,9.57L782.34,9.57zM782.68,9.52L782.68,9.52L782.69,9.53L782.7,9.52L782.7,9.52L782.7,9.52L782.7,9.52L782.7,9.52L782.7,9.52L782.7,9.52L782.7,9.52L782.7,9.51L782.7,9.51L782.69,9.51L782.69,9.51L782.69,9.51L782.7,9.5L782.7,9.5L782.68,9.47L782.68,9.46L782.67,9.45L782.66,9.44L782.64,9.43L782.62,9.41L782.6,9.4L782.6,9.4L782.58,9.38L782.56,9.36L782.52,9.33L782.51,9.32L782.51,9.32L782.5,9.32L782.5,9.32L782.48,9.33L782.47,9.33L782.46,9.34L782.45,9.36L782.45,9.37L782.45,9.37L782.45,9.37L782.45,9.37L782.45,9.37L782.45,9.38L782.43,9.4L782.43,9.4L782.43,9.4L782.43,9.4L782.43,9.41L782.43,9.41L782.43,9.41L782.43,9.41L782.42,9.41L782.43,9.41L782.43,9.42L782.43,9.42L782.43,9.43L782.43,9.43L782.43,9.42L782.44,9.42L782.44,9.41L782.45,9.4L782.46,9.39L782.47,9.36L782.48,9.35L782.49,9.34L782.51,9.34L782.52,9.34L782.53,9.35L782.54,9.36L782.55,9.36L782.54,9.36zM782.68,9.52L782.67,9.49L782.66,9.47L782.62,9.43L782.58,9.4L782.56,9.38L782.55,9.37L782.54,9.36zM780.6,8.54L780.59,8.54L780.59,8.54L780.6,8.54L780.6,8.54L780.6,8.54zM780.6,8.54L780.59,8.54L780.59,8.54L780.6,8.53L780.6,8.53L780.6,8.53L780.6,8.54zM780.62,8.54L780.62,8.54L780.62,8.54L780.62,8.54zM780.59,8.53L780.6,8.53L780.6,8.53L780.6,8.53L780.6,8.53L780.6,8.53L780.6,8.53L780.59,8.53L780.59,8.53L780.59,8.53L780.59,8.53L780.59,8.53zM780.61,8.53L780.61,8.53L780.61,8.53L780.61,8.53zM780.59,8.53L780.59,8.53L780.6,8.52L780.59,8.53zM780.59,8.52L780.59,8.52L780.59,8.52L780.59,8.52L780.59,8.52zM780.61,8.52L780.6,8.52L780.61,8.52L780.61,8.52L780.61,8.52zM780.64,8.52L780.64,8.51L780.64,8.52L780.64,8.52zM780.61,8.52L780.61,8.52L780.61,8.52L780.61,8.52L780.61,8.52L780.61,8.52zM780.61,8.51L780.61,8.51L780.61,8.52L780.61,8.52L780.6,8.52L780.61,8.51zM780.61,8.51L780.6,8.52L780.61,8.51L780.61,8.51zM780.59,8.51L780.59,8.51L780.59,8.51L780.6,8.51L780.6,8.51L780.59,8.51zM780.62,8.51L780.62,8.51L780.62,8.52L780.62,8.52L780.62,8.52L780.63,8.52L780.62,8.52L780.63,8.51L780.63,8.52L780.64,8.51L780.64,8.51L780.64,8.51L780.64,8.51L780.63,8.5L780.63,8.5L780.63,8.51L780.63,8.51L780.63,8.51L780.62,8.51zM780.64,8.51L780.64,8.51L780.64,8.51L780.64,8.51L780.64,8.51zM780.64,8.51L780.64,8.51L780.64,8.52L780.64,8.51L780.64,8.51L780.64,8.51L780.64,8.5L780.64,8.5L780.64,8.51zM780.6,8.5L780.6,8.5L780.6,8.5L780.6,8.51L780.6,8.51L780.6,8.5L780.6,8.51L780.6,8.5zM780.71,8.37L780.7,8.4L780.69,8.41L780.69,8.43L780.68,8.44L780.67,8.46L780.66,8.49L780.64,8.5L780.64,8.51L780.64,8.51L780.64,8.51L780.65,8.52L780.65,8.52L780.65,8.52L780.65,8.52L780.66,8.51L780.66,8.52L780.66,8.52L780.66,8.52L780.65,8.52L780.65,8.53L780.65,8.53L780.65,8.53L780.64,8.53L780.64,8.53L780.64,8.53L780.64,8.53L780.64,8.53L780.64,8.53L780.64,8.53L780.64,8.53L780.64,8.53L780.64,8.53L780.63,8.53L780.64,8.52L780.64,8.52L780.64,8.52L780.63,8.52L780.64,8.52L780.64,8.51L780.64,8.51L780.64,8.52L780.64,8.52L780.63,8.52L780.63,8.53L780.63,8.53L780.62,8.53L780.62,8.53L780.62,8.53L780.62,8.53L780.62,8.52L780.62,8.53L780.62,8.53L780.62,8.53L780.62,8.53L780.63,8.53L780.64,8.53L780.64,8.54L780.64,8.53L780.64,8.54L780.65,8.54L780.65,8.54L780.64,8.55L780.63,8.55L780.63,8.55L780.63,8.55L780.63,8.55L780.63,8.55L780.63,8.56L780.62,8.56L780.62,8.56L780.62,8.56L780.62,8.56L780.62,8.56L780.62,8.56L780.62,8.56L780.62,8.56L780.61,8.56L780.61,8.56L780.62,8.55L780.62,8.55L780.61,8.56L780.6,8.55L780.6,8.55L780.6,8.55L780.6,8.54L780.6,8.55L780.61,8.56L780.61,8.56L780.62,8.56L780.62,8.56L780.62,8.56L780.63,8.56L780.63,8.55L780.64,8.55L780.65,8.54L780.66,8.53L780.67,8.51L780.68,8.47L780.69,8.44L780.7,8.43L780.72,8.38L780.73,8.36L780.74,8.35L780.75,8.34L780.76,8.33L780.78,8.32L780.79,8.31L780.8,8.3L780.81,8.29L780.81,8.28L780.81,8.26L780.81,8.25L780.8,8.24zM780.71,8.36L780.71,8.36zM780.74,8.34L780.72,8.36zM780.74,8.34L780.75,8.33L780.76,8.33L780.76,8.32L780.77,8.32L780.77,8.32L780.78,8.3L780.79,8.3L780.79,8.29L780.79,8.28L780.79,8.27L780.78,8.26L780.78,8.26L780.78,8.26L780.78,8.26L780.78,8.26L780.77,8.24zM780.8,8.24L780.79,8.24L780.77,8.22L780.77,8.22L780.76,8.21L780.75,8.2L780.74,8.19L780.72,8.18L780.72,8.18L780.71,8.17L780.71,8.17L780.69,8.15L780.68,8.15L780.66,8.14L780.66,8.14L780.65,8.14L780.65,8.15L780.64,8.15L780.64,8.15L780.64,8.16L780.65,8.17L780.65,8.18L780.65,8.17L780.66,8.17L780.66,8.17L780.66,8.17L780.65,8.17L780.66,8.17L780.65,8.16L780.65,8.17L780.65,8.16L780.65,8.16L780.65,8.16L780.65,8.16L780.65,8.16L780.65,8.16L780.65,8.15L780.64,8.15L780.65,8.15L780.65,8.15L780.65,8.14L780.65,8.14L780.65,8.14L780.66,8.14L780.66,8.14L780.66,8.15L780.66,8.14L780.66,8.14L780.66,8.15L780.66,8.15L780.66,8.15L780.66,8.14L780.66,8.14L780.66,8.14L780.66,8.15L780.66,8.15L780.66,8.15L780.66,8.15L780.67,8.15L780.67,8.15L780.67,8.15L780.67,8.15L780.67,8.15L780.67,8.16L780.67,8.15L780.68,8.15L780.68,8.15L780.69,8.15L780.69,8.16L780.68,8.16L780.68,8.16L780.68,8.17L780.68,8.17L780.68,8.17L780.68,8.17L780.69,8.17L780.69,8.17L780.69,8.17L780.69,8.17L780.69,8.17L780.69,8.17L780.7,8.17L780.7,8.17L780.7,8.17L780.71,8.18L780.71,8.19L780.71,8.19L780.7,8.19L780.7,8.19L780.71,8.2L780.71,8.2L780.71,8.2L780.71,8.2L780.71,8.2L780.71,8.2L780.72,8.21L780.75,8.22L780.77,8.24zM780.7,8.2L780.7,8.2L780.69,8.2L780.69,8.19L780.69,8.19L780.69,8.19L780.7,8.19L780.7,8.2L780.7,8.2L780.69,8.2L780.68,8.2L780.68,8.19L780.68,8.19L780.68,8.19L780.68,8.19L780.69,8.2L780.69,8.2L780.69,8.2L780.7,8.2zM780.65,8.2L780.65,8.2L780.65,8.19L780.66,8.19L780.66,8.19L780.66,8.18L780.66,8.18L780.66,8.18L780.66,8.18L780.66,8.18L780.67,8.18L780.66,8.19L780.66,8.2L780.65,8.2zM780.69,8.19L780.69,8.19L780.69,8.19L780.69,8.19zM780.7,8.19L780.7,8.18L780.7,8.19L780.7,8.19zM780.7,8.18L780.7,8.18L780.7,8.19L780.7,8.19L780.7,8.18L780.7,8.18L780.7,8.18L780.7,8.18L780.7,8.18L780.7,8.19L780.7,8.18L780.69,8.18L780.7,8.19L780.69,8.19L780.69,8.19L780.69,8.19L780.69,8.19L780.69,8.19L780.69,8.19L780.69,8.18L780.69,8.19L780.69,8.18L780.69,8.18L780.7,8.18L780.7,8.18zM780.66,8.17L780.66,8.17L780.66,8.17L780.66,8.17L780.67,8.17L780.66,8.18L780.66,8.17zM780.6,7.48L780.6,7.48L780.6,7.48L780.6,7.48L780.63,7.48L780.64,7.48L780.64,7.48zM780.59,7.48L780.59,7.48L780.59,7.47L780.58,7.47L780.57,7.46L780.58,7.47L780.59,7.47L780.59,7.47zM780.64,7.48L780.64,7.48zM780.65,7.48L780.65,7.48zM780.65,7.47L780.65,7.48zM780.6,7.47L780.6,7.47L780.61,7.47L780.63,7.48L780.64,7.47L780.67,7.47zM780.66,7.47L780.67,7.48L780.67,7.48L780.67,7.47L780.67,7.47L780.67,7.47L780.67,7.47L780.68,7.47L780.68,7.47L780.68,7.47L780.69,7.47L780.72,7.45L780.74,7.43L780.75,7.43L780.75,7.42L780.75,7.42L780.75,7.42zM780.67,7.47L780.67,7.47zM780.67,7.47L780.68,7.46L780.68,7.46L780.69,7.46L780.7,7.45zM780.67,7.47L780.67,7.47zM780.7,7.45L780.71,7.45zM780.71,7.45L780.72,7.44zM780.72,7.44L780.73,7.44zM780.73,7.44L780.74,7.43L780.74,7.43L780.74,7.43L780.74,7.43zM780.53,7.43L780.55,7.44L780.55,7.45L780.55,7.44L780.53,7.43L780.51,7.42L780.5,7.42L780.48,7.42L780.47,7.42L780.47,7.42L780.47,7.41L780.48,7.41L780.49,7.41zM780.74,7.43L780.74,7.42L780.74,7.42L780.74,7.42L780.74,7.42L780.75,7.41L780.77,7.41zM780.75,7.42L780.75,7.42L780.76,7.42L780.75,7.43L780.75,7.42zM780.76,7.42L780.76,7.42L780.76,7.42L780.76,7.42zM780.52,7.42L780.53,7.43zM780.52,7.42L780.52,7.42zM780.75,7.42L780.75,7.42zM780.75,7.42L780.76,7.41L780.77,7.41L780.77,7.42L780.81,7.41L780.81,7.41L780.82,7.41L780.82,7.41L780.82,7.41L780.83,7.41L780.83,7.4L780.85,7.4L780.85,7.4L780.85,7.4L780.85,7.4L780.86,7.4L780.89,7.4L780.9,7.4L780.91,7.4L780.92,7.4L780.93,7.4L780.94,7.4L780.95,7.4L780.96,7.4L781,7.41L781,7.41L781.01,7.4L781.01,7.4L781.02,7.4L781.01,7.39L781.02,7.38L781.01,7.38L781.01,7.37L781.01,7.37L781,7.37L781,7.36L780.99,7.36L780.98,7.35L780.97,7.34L780.97,7.34L780.97,7.34L780.97,7.34L780.96,7.34L780.96,7.34L780.96,7.34L780.96,7.34L780.96,7.33L780.96,7.33L780.96,7.34L780.96,7.34L780.96,7.33L780.96,7.33L780.96,7.34L780.95,7.34L780.96,7.33L780.96,7.33L780.95,7.33L780.96,7.33L780.95,7.34L780.95,7.35L780.95,7.35L780.95,7.35L780.95,7.34L780.96,7.34L780.95,7.34L780.96,7.34L780.95,7.35L780.96,7.36zM780.77,7.42L780.78,7.42zM780.78,7.42L780.78,7.42zM780.78,7.42L780.78,7.42zM780.77,7.42L780.77,7.42zM780.78,7.42L780.78,7.42zM780.77,7.41L780.77,7.42zM780.77,7.41L780.77,7.41zM780.51,7.41L780.52,7.42zM780.78,7.41L780.79,7.41zM780.79,7.41L780.79,7.41zM780.79,7.41L780.8,7.41zM780.8,7.41L780.8,7.41zM780.8,7.41L780.8,7.41zM780.8,7.41L780.8,7.41zM780.51,7.41L780.51,7.41zM780.8,7.41L780.81,7.41zM780.5,7.41L780.51,7.41zM780.81,7.41L780.81,7.41zM780.5,7.41L780.5,7.41zM780.81,7.41L780.81,7.41zM780.5,7.41L780.5,7.41zM780.81,7.41L780.82,7.41L780.83,7.4zM780.83,7.4L780.83,7.4zM780.83,7.4L780.83,7.4zM780.83,7.4L780.84,7.4zM780.88,7.4L780.88,7.4zM780.88,7.4L780.88,7.4zM780.89,7.4L780.89,7.4zM780.89,7.4L780.89,7.4zM780.85,7.4L780.85,7.4zM780.85,7.4L780.85,7.4zM780.86,7.4L780.85,7.4zM780.86,7.4L780.86,7.4zM780.88,7.4L780.88,7.4zM780.86,7.4L780.86,7.4zM780.9,7.4L780.9,7.4L780.89,7.4zM780.85,7.4L780.85,7.4zM780.85,7.4L780.85,7.4L780.84,7.4zM780.91,7.4L780.91,7.4L780.9,7.4zM780.91,7.4L780.92,7.4zM780.86,7.4L780.86,7.4zM780.87,7.4L780.86,7.4zM780.87,7.4L780.88,7.4zM780.87,7.4L780.87,7.4zM780.94,7.39L780.94,7.39zM780.94,7.39L780.94,7.39zM780.94,7.39L780.94,7.39zM780.93,7.39L780.93,7.39zM780.93,7.39L780.93,7.39zM780.93,7.39L780.92,7.39L780.92,7.39zM780.96,7.36L780.96,7.37L780.96,7.36L780.97,7.36L780.97,7.37L780.97,7.37L780.97,7.37L780.97,7.37L780.97,7.37L780.97,7.37L780.97,7.38L780.97,7.4L780.97,7.4L780.97,7.4L780.97,7.4L780.97,7.4L780.97,7.4L780.97,7.4L780.96,7.4L780.97,7.4L780.96,7.4L780.96,7.4L780.96,7.4L780.96,7.4L780.96,7.4L780.96,7.4L780.96,7.4L780.95,7.4L780.94,7.39zM780.95,7.35L780.95,7.35L780.95,7.36L780.94,7.36L780.95,7.35zM780.63,7.35L780.63,7.35L780.63,7.35L780.63,7.35L780.63,7.35zM780.95,7.34L780.95,7.34zM780.92,7.33L780.92,7.33L780.92,7.33L780.93,7.34L780.94,7.34L780.94,7.34L780.94,7.34L780.94,7.35L780.95,7.34zM780.92,7.32L780.92,7.33zM780.92,7.32L780.92,7.32L780.93,7.32zM780.93,7.32L780.94,7.33L780.94,7.33L780.95,7.33L780.95,7.33L780.95,7.34L780.95,7.34zM780.93,7.32L780.93,7.32L780.93,7.32L780.93,7.32L780.93,7.32L780.93,7.32zM780.93,7.32L780.92,7.32L780.93,7.32L780.93,7.32zM780.89,7.28L780.89,7.29L780.89,7.3L780.89,7.3L780.89,7.3L780.9,7.29L780.89,7.3L780.89,7.3L780.9,7.3L780.91,7.31L780.91,7.32L780.92,7.32L780.93,7.31L780.92,7.31L780.91,7.31L780.91,7.3L780.91,7.3L780.9,7.3L780.9,7.3L780.9,7.29L780.9,7.29L780.9,7.29L780.9,7.29L780.9,7.28L780.88,7.27L780.88,7.27L780.88,7.26L780.87,7.26L780.86,7.26L780.86,7.26L780.85,7.26L780.85,7.26L780.86,7.26L780.87,7.27L780.88,7.28L780.89,7.28zM780.87,7.26L780.87,7.26L780.87,7.26L780.87,7.26L780.87,7.25L780.87,7.25L780.87,7.25L780.87,7.25L780.87,7.25L780.87,7.25L780.87,7.25L780.86,7.25L780.85,7.25L780.85,7.26L780.85,7.26L780.86,7.25L780.86,7.26L780.86,7.25L780.86,7.26L780.87,7.26zM780.85,7.25L780.85,7.26L780.85,7.25L780.85,7.25L780.85,7.25L780.86,7.25L780.86,7.24L780.86,7.24L780.86,7.24L780.86,7.24L780.86,7.24L780.86,7.24L780.85,7.24L780.85,7.23L780.85,7.23L780.84,7.23L780.84,7.23L780.84,7.24L780.83,7.24L780.83,7.24L780.83,7.25L780.84,7.25L780.84,7.25L780.84,7.25L780.84,7.25L780.84,7.25L780.85,7.25zM780.87,7.25L780.87,7.25L780.87,7.25L780.87,7.25zM780.82,7.24L780.82,7.24zM780.82,7.24L780.82,7.24zM780.83,7.24L780.83,7.24L780.82,7.24zM780.83,7.24L780.83,7.24L780.83,7.24L780.84,7.23L780.84,7.23L780.83,7.23L780.84,7.23L780.84,7.23L780.84,7.22L780.84,7.22L780.83,7.22L780.83,7.22L780.83,7.22L780.82,7.23zM780.81,7.24L780.81,7.24L780.82,7.24L780.82,7.24L780.81,7.24L780.81,7.24L780.81,7.24L780.81,7.24L780.81,7.24zM780.82,7.24L780.82,7.24L780.82,7.24L780.82,7.24L780.82,7.24zM780.81,7.23L780.81,7.23L780.81,7.23L780.81,7.22L780.81,7.22L780.82,7.21L780.82,7.22L780.82,7.22L780.82,7.22L780.81,7.22L780.81,7.23L780.81,7.23zM780.8,7.22L780.8,7.22L780.81,7.22L780.8,7.22L780.8,7.22zM780.8,7.22L780.8,7.21L780.8,7.21L780.8,7.21L780.8,7.21L780.8,7.21L780.8,7.21L780.8,7.21L780.8,7.21L780.8,7.21L780.81,7.21L780.81,7.21L780.8,7.22zM780.81,7.21L780.81,7.21L780.81,7.21L780.81,7.22L780.81,7.21zM780.81,7.21L780.81,7.21L780.81,7.21L780.81,7.21zM780.81,7.21L780.81,7.21L780.81,7.21L780.81,7.21zM780.79,7.21L780.8,7.21L780.8,7.21L780.8,7.21L780.8,7.2L780.8,7.21L780.79,7.21L780.79,7.21L780.79,7.21zM780.75,7.21L780.75,7.21L780.75,7.2L780.75,7.2L780.75,7.2L780.74,7.2L780.75,7.2L780.74,7.2L780.74,7.2L780.74,7.2L780.75,7.21L780.75,7.21L780.76,7.21L780.76,7.21L780.75,7.21L780.75,7.21L780.75,7.2L780.75,7.21zM780.8,7.2L780.8,7.2L780.8,7.21L780.8,7.2zM780.79,7.2L780.79,7.2L780.79,7.2L780.79,7.2L780.78,7.2zM780.78,7.2L780.78,7.2L780.78,7.2L780.78,7.2L780.78,7.2L780.77,7.2L780.78,7.2L780.79,7.19L780.79,7.2L780.8,7.2L780.8,7.2L780.8,7.2L780.8,7.2L780.8,7.2L780.79,7.21L780.79,7.21zM780.76,7.2L780.76,7.2L780.76,7.2L780.77,7.19L780.77,7.19L780.78,7.18L780.78,7.19L780.78,7.19L780.79,7.19L780.8,7.19L780.79,7.2L780.79,7.19L780.79,7.19L780.79,7.19L780.79,7.19L780.78,7.19L780.78,7.2L780.77,7.2L780.77,7.2L780.77,7.2L780.77,7.2L780.76,7.2L780.76,7.2L780.76,7.2zM780.76,7.19L780.76,7.19L780.76,7.19L780.77,7.18L780.77,7.18L780.77,7.18L780.77,7.18L780.77,7.18L780.76,7.19L780.76,7.19L780.76,7.19L780.76,7.19zM780.73,7.19L780.73,7.19L780.73,7.18L780.73,7.18L780.73,7.18L780.74,7.18L780.74,7.18L780.74,7.18L780.74,7.18L780.74,7.18L780.74,7.18L780.73,7.17L780.73,7.17L780.73,7.19L780.73,7.19L780.73,7.19L780.74,7.19L780.74,7.19L780.73,7.19L780.73,7.19L780.73,7.19L780.73,7.19zM780.74,7.18L780.74,7.18L780.74,7.18L780.74,7.18zM780.77,7.18L780.77,7.18L780.77,7.18L780.77,7.18L780.77,7.18zM780.75,7.17L780.75,7.17L780.76,7.17L780.76,7.17L780.75,7.17L780.76,7.17L780.76,7.17L780.76,7.17L780.76,7.17L780.76,7.17L780.76,7.17L780.76,7.18L780.76,7.18L780.75,7.18L780.75,7.17L780.75,7.17L780.75,7.18L780.75,7.18L780.74,7.18L780.74,7.17L780.75,7.17L780.75,7.17L780.75,7.17zM780.74,7.17L780.74,7.17L780.75,7.17L780.75,7.17L780.75,7.17L780.75,7.16L780.74,7.16L780.75,7.15L780.74,7.15L780.74,7.15L780.73,7.15L780.74,7.15L780.73,7.14L780.73,7.15L780.73,7.15L780.73,7.15L780.72,7.15L780.72,7.15L780.72,7.15L780.72,7.14L780.73,7.14L780.72,7.12L780.71,7.11L780.71,7.11L780.71,7.11L780.7,7.11L780.7,7.11L780.7,7.11L780.7,7.11L780.71,7.1L780.7,7.1L780.69,7.1L780.7,7.1L780.69,7.1L780.69,7.1L780.69,7.09L780.68,7.1L780.68,7.1L780.68,7.09L780.69,7.09L780.68,7.08L780.68,7.07L780.68,7.05L780.68,7.05L780.67,7.05L780.67,7.05L780.67,7.05L780.67,7.04L780.67,7.04L780.67,7.04L780.66,7.03L780.65,7.01L780.65,7L780.65,6.99L780.64,6.99L780.64,6.99L780.64,6.99L780.64,6.98L780.64,6.98L780.64,6.98L780.63,6.97L780.63,6.97L780.62,6.97L780.62,6.97L780.62,6.97L780.62,6.97L780.62,6.97L780.61,6.97L780.61,6.97L780.61,6.96L780.61,6.96L780.61,6.96L780.61,6.96L780.61,6.96L780.61,6.96L780.61,6.96L780.61,6.96L780.61,6.96L780.6,6.96L780.6,6.96L780.6,6.96L780.6,6.95L780.6,6.95L780.6,6.95L780.59,6.94L780.59,6.94L780.59,6.93L780.59,6.93L780.59,6.93L780.59,6.93L780.59,6.93L780.6,6.91L780.6,6.91L780.59,6.91L780.59,6.89L780.58,6.89L780.58,6.88L780.59,6.88L780.59,6.88L780.59,6.87L780.58,6.87L780.58,6.87L780.58,6.86L780.58,6.86L780.58,6.86L780.58,6.85L780.57,6.85L780.57,6.85L780.57,6.84L780.58,6.84L780.58,6.83L780.58,6.83L780.58,6.82L780.58,6.81L780.57,6.81L780.56,6.8L780.56,6.79L780.56,6.8L780.55,6.79L780.55,6.8L780.56,6.8L780.56,6.81L780.56,6.81L780.57,6.81L780.57,6.81L780.57,6.82L780.57,6.82L780.56,6.83L780.56,6.84L780.55,6.84L780.55,6.85L780.55,6.86L780.54,6.86L780.55,6.86L780.55,6.86L780.56,6.86L780.57,6.86L780.57,6.88L780.58,6.89L780.58,6.91L780.58,6.91L780.59,6.92L780.58,6.93L780.58,6.93L780.58,6.94L780.59,6.95L780.59,6.96L780.59,6.96L780.6,6.96L780.59,6.96L780.6,6.96L780.6,6.98L780.61,6.97L780.62,6.98L780.62,6.98L780.62,6.99L780.62,6.98L780.62,6.99L780.62,6.99L780.63,6.99L780.63,6.99L780.64,6.99L780.64,7L780.64,7L780.64,7L780.64,7L780.64,7L780.64,7.02L780.64,7.02L780.65,7.03L780.65,7.04L780.66,7.05L780.66,7.05L780.66,7.05L780.66,7.06L780.67,7.07L780.68,7.1L780.69,7.11L780.69,7.11L780.71,7.12L780.71,7.12L780.71,7.13L780.71,7.14L780.71,7.14L780.72,7.14L780.72,7.14L780.72,7.14L780.71,7.14L780.71,7.15L780.72,7.15L780.72,7.15L780.72,7.16L780.73,7.17L780.74,7.17L780.74,7.17zM780.53,6.83L780.53,6.82L780.53,6.83L780.53,6.83zM780.48,6.44L780.47,6.44L780.47,6.44L780.47,6.44L780.48,6.45L780.49,6.45L780.48,6.44zM780.64,6.31L780.66,6.33L780.66,6.34L780.66,6.35L780.67,6.36L780.68,6.37L780.69,6.38L780.7,6.4L780.73,6.43L780.74,6.44L780.75,6.46L780.75,6.48L780.75,6.5L780.75,6.51L780.74,6.54L780.72,6.57L780.7,6.61L780.68,6.62L780.67,6.62L780.66,6.62L780.65,6.62L780.64,6.61L780.64,6.61L780.63,6.6L780.63,6.6L780.62,6.6L780.62,6.61L780.62,6.61L780.63,6.62L780.64,6.62L780.66,6.63L780.67,6.63L780.68,6.63L780.69,6.62L780.7,6.61L780.72,6.59L780.72,6.59L780.73,6.57L780.74,6.56L780.75,6.52L780.76,6.5L780.76,6.48L780.75,6.45L780.75,6.44L780.75,6.44L780.75,6.43L780.75,6.43L780.74,6.42L780.74,6.42L780.72,6.41L780.69,6.38L780.67,6.34L780.66,6.33L780.63,6.29L780.63,6.29L780.62,6.27L780.62,6.27L780.63,6.27L780.62,6.26L780.63,6.26L780.62,6.25L780.62,6.25L780.62,6.25L780.61,6.23L780.6,6.22L780.58,6.2L780.57,6.2L780.57,6.2L780.56,6.19L780.55,6.18L780.54,6.18L780.54,6.17L780.53,6.16L780.51,6.14L780.51,6.14L780.51,6.14L780.49,6.12L780.47,6.1L780.46,6.09L780.45,6.09L780.45,6.09L780.45,6.1L780.46,6.1L780.47,6.1L780.48,6.11L780.48,6.12L780.48,6.12L780.48,6.12L780.49,6.12L780.49,6.13L780.5,6.14L780.51,6.15L780.53,6.16L780.53,6.17L780.53,6.18zM780.64,6.31L780.63,6.3L780.63,6.29zM780.4,6.31L780.4,6.31L780.41,6.31L780.41,6.31L780.4,6.31L780.4,6.31L780.4,6.31L780.4,6.31L780.4,6.31zM780.4,6.31L780.4,6.3L780.4,6.3L780.4,6.31L780.4,6.31zM780.39,6.3L780.39,6.3L780.39,6.3L780.39,6.3L780.39,6.3L780.39,6.3L780.39,6.3L780.39,6.3zM780.38,6.3L780.38,6.3L780.37,6.3L780.38,6.3L780.38,6.3zM780.37,6.29L780.37,6.29L780.36,6.29L780.37,6.28L780.37,6.29L780.37,6.29L780.38,6.29L780.37,6.29L780.37,6.3L780.37,6.3L780.37,6.29zM780.62,6.29L780.62,6.26L780.61,6.25L780.6,6.23L780.59,6.22L780.58,6.22L780.57,6.2L780.56,6.2L780.55,6.2L780.54,6.2L780.53,6.19L780.53,6.18zM780.33,6.26L780.34,6.26L780.34,6.26L780.33,6.26zM780.32,6.26L780.32,6.26L780.32,6.26L780.32,6.25L780.32,6.26zM780.31,6.25L780.31,6.25L780.31,6.25L780.32,6.25L780.31,6.25zM780.3,6.25L780.31,6.25L780.31,6.25L780.31,6.25L780.3,6.25zM780.29,6.25L780.29,6.25L780.29,6.25L780.29,6.25L780.29,6.25L780.29,6.25zM780.2,6.24L780.22,6.24L780.26,6.25L780.29,6.25L780.29,6.25L780.27,6.25L780.26,6.25L780.26,6.25L780.25,6.24L780.24,6.24L780.24,6.24L780.24,6.24L780.23,6.24L780.23,6.24L780.21,6.24L780.21,6.24L780.21,6.24L780.18,6.23L780.18,6.24L780.19,6.24L780.2,6.24zM780.18,6.23L780.17,6.23L780.17,6.23L780.17,6.23L780.17,6.23L780.18,6.23L780.18,6.23L780.18,6.23zM780.18,6.23L780.18,6.23L780.18,6.23L780.18,6.23zM780.17,6.22L780.16,6.22L780.17,6.22L780.18,6.22L780.17,6.22L780.17,6.22L780.17,6.22L780.17,6.22zM780.21,6.18L780.22,6.18L780.21,6.18L780.21,6.18L780.21,6.18zM780.23,6.18L780.23,6.17L780.23,6.17L780.23,6.17L780.23,6.18zM780.25,6.16L780.25,6.16L780.25,6.16L780.25,6.16zM780.25,6.16L780.26,6.15L780.26,6.16L780.25,6.16zM780.25,6.15L780.25,6.15L780.25,6.15L780.25,6.15L780.25,6.15zM780.43,6.1L780.43,6.1L780.44,6.1L780.44,6.09L780.43,6.1L780.43,6.1zM780.43,6.09L780.43,6.09L780.43,6.09L780.43,6.1L780.42,6.1L780.42,6.09L780.42,6.09L780.43,6.09zM780.4,6.08L780.41,6.08L780.4,6.08L780.4,6.08zM780.38,6.08L780.38,6.07L780.38,6.07L780.38,6.08L780.38,6.08zM780.38,6.07L780.38,6.07L780.37,6.07L780.37,6.07L780.37,6.07L780.37,6.07L780.38,6.07L780.38,6.07zM780.35,6.06L780.34,6.06L780.34,6.07L780.34,6.08L780.34,6.09L780.35,6.08L780.35,6.07L780.36,6.07L780.36,6.07L780.36,6.06L780.36,6.06L780.36,6.05L780.36,6.05L780.35,6.05L780.35,6.06zM781.32,6.05L781.32,6.06L781.3,6.06L781.26,6.05L781.25,6.05L781.24,6.05L781.24,6.05L781.23,6.05L781.22,6.04L781.21,6.04L781.21,6.03L781.21,6.03L781.21,6L781.21,5.99L781.21,5.99L781.22,5.99L781.22,5.99L781.22,6L781.22,6.01L781.22,6.02L781.23,6.03L781.23,6.04L781.25,6.04L781.26,6.04L781.27,6.05L781.28,6.05L781.29,6.05L781.29,6.05L781.29,6.05L781.3,6.05L781.31,6.05L781.31,6.05L781.32,6.04L781.32,6.04L781.32,6.04L781.32,6.04L781.32,6.03L781.31,6.03L781.31,6.02L781.3,6.01L781.3,6.01L781.29,6L781.29,6L781.3,6L781.3,6L781.31,6L781.31,6L781.32,6.02L781.33,6.03L781.33,6.03L781.33,6.03L781.33,6.04L781.33,6.05L781.33,6.05L781.32,6.05L781.32,6.05zM781.31,6.04L781.31,6.05L781.31,6.04L781.31,6.04zM781.21,5.99L781.22,5.98L781.23,5.96L781.23,5.95L781.22,5.94L781.22,5.93L781.23,5.89L781.23,5.87L781.24,5.86L781.25,5.85L781.26,5.86L781.26,5.86L781.27,5.87L781.28,5.88L781.29,5.94L781.3,5.95L781.3,5.97L781.31,5.99L781.31,5.99L781.3,6L781.29,6L781.3,5.99L781.3,5.99L781.29,5.97L781.28,5.96L781.28,5.95L781.28,5.94L781.28,5.94L781.28,5.93L781.28,5.93L781.28,5.92L781.28,5.92L781.28,5.93L781.28,5.93L781.28,5.94L781.28,5.94L781.28,5.94L781.28,5.94L781.28,5.95L781.29,5.95L781.29,5.95L781.29,5.94L781.28,5.93L781.27,5.9L781.27,5.9L781.26,5.89L781.26,5.9L781.26,5.89L781.25,5.9L781.25,5.9L781.24,5.9L781.24,5.9L781.23,5.9L781.23,5.91L781.23,5.93L781.23,5.94L781.23,5.94L781.23,5.94L781.23,5.95L781.23,5.95L781.23,5.96L781.23,5.95L781.23,5.95L781.23,5.96L781.23,5.96L781.23,5.97L781.23,5.97L781.22,5.98L781.22,5.98L781.22,5.98L781.22,5.98L781.22,5.99L781.22,5.99L781.22,5.99L781.22,5.99L781.22,5.99L781.22,5.98L781.22,5.99L781.22,5.99L781.22,5.99L781.21,5.99L781.21,5.99zM781.23,5.94L781.24,5.94L781.24,5.94L781.24,5.94L781.24,5.94L781.23,5.94L781.23,5.94L781.24,5.94L781.24,5.94L781.23,5.94zM781.23,5.94L781.23,5.94L781.24,5.94L781.23,5.94zM781.27,5.91L781.27,5.9L781.27,5.9L781.26,5.9L781.26,5.9L781.26,5.9L781.26,5.9L781.26,5.9L781.26,5.9L781.25,5.9L781.24,5.9L781.24,5.9L781.24,5.9L781.23,5.9L781.24,5.9L781.24,5.9L781.25,5.9L781.26,5.9L781.27,5.9L781.27,5.91zM780.18,3.62L780.18,3.62L780.19,3.61L780.19,3.61L780.19,3.61L780.19,3.61zM780.18,3.62L780.18,3.62zM780.19,3.61L780.19,3.6zM780.2,3.6L780.2,3.6zM780.2,3.6L780.22,3.58L780.22,3.58L780.23,3.58L780.23,3.58L780.24,3.57L780.24,3.57L780.24,3.57L780.24,3.57L780.25,3.57L780.25,3.56L780.25,3.56L780.25,3.56L780.26,3.56L780.26,3.56L780.27,3.55L780.27,3.55L780.27,3.55L780.28,3.55L780.28,3.55L780.28,3.55L780.28,3.55L780.29,3.55L780.3,3.55L780.3,3.55L780.3,3.55L780.31,3.55L780.31,3.55L780.31,3.55L780.31,3.55L780.31,3.55L780.32,3.55L780.33,3.55L780.34,3.55L780.34,3.54L780.34,3.55L780.34,3.55L780.34,3.54L780.34,3.54L780.35,3.54L780.35,3.54L780.35,3.54L780.36,3.54L780.36,3.54L780.37,3.55L780.38,3.55L780.38,3.55L780.39,3.55L780.39,3.54L780.39,3.55L780.4,3.54L780.4,3.54L780.4,3.54L780.4,3.54L780.4,3.54L780.41,3.54L780.41,3.54L780.41,3.54L780.42,3.54L780.42,3.54L780.42,3.54L780.42,3.55L780.42,3.55L780.42,3.56L780.43,3.56L780.43,3.57L780.43,3.57L780.43,3.56L780.43,3.56L780.43,3.57L780.43,3.57L780.42,3.57L780.41,3.56L780.39,3.56L780.36,3.56L780.36,3.56L780.35,3.55L780.34,3.56L780.34,3.55L780.33,3.56L780.31,3.56L780.29,3.56L780.29,3.56L780.26,3.57L780.26,3.57L780.26,3.56L780.26,3.57L780.26,3.57L780.26,3.57L780.26,3.57L780.26,3.57L780.25,3.57L780.24,3.58L780.23,3.58L780.21,3.59L780.19,3.62L780.16,3.63L780.15,3.64L780.14,3.65L780.14,3.65L780.13,3.65L780.13,3.66L780.13,3.66L780.13,3.67L780.13,3.67L780.13,3.68L780.13,3.68L780.12,3.69L780.12,3.69L780.12,3.68L780.12,3.66L780.12,3.66L780.11,3.63L780.11,3.63L780.1,3.62L780.1,3.61L780.09,3.61L780.09,3.6L780.08,3.6L780.09,3.59L780.09,3.6L780.09,3.6L780.09,3.6L780.09,3.6L780.1,3.6L780.1,3.61L780.1,3.61L780.1,3.61L780.11,3.61L780.11,3.61L780.11,3.62L780.11,3.62L780.11,3.62L780.11,3.62L780.11,3.63L780.12,3.62L780.12,3.63L780.12,3.62L780.13,3.62L780.13,3.63L780.13,3.63L780.13,3.63L780.14,3.62L780.14,3.63L780.15,3.63L780.15,3.62L780.17,3.62zM780.41,3.54L780.42,3.54L780.41,3.54L780.41,3.54L780.41,3.54zM780.42,3.53L780.42,3.53L780.42,3.53L780.42,3.53L780.42,3.53zM780.41,3.53L780.41,3.53L780.41,3.53L780.41,3.53L780.41,3.54L780.41,3.54L780.41,3.54L780.41,3.53L780.41,3.53zM780.42,3.53L780.42,3.53L780.42,3.53L780.42,3.53zM780.42,3.53L780.42,3.53L780.42,3.52L780.42,3.53L780.42,3.53zM780.42,3.52L780.42,3.52L780.43,3.52L780.42,3.52zM780.42,3.52L780.42,3.52L780.43,3.52L780.43,3.52L780.42,3.52zM780.43,3.52L780.43,3.52L780.43,3.52L780.43,3.52zM780.08,3.52L780.08,3.52L780.08,3.52L780.08,3.52L780.08,3.52zM780.42,3.52L780.42,3.52L780.42,3.52L780.42,3.52L780.42,3.52zM780.42,3.52L780.42,3.52L780.42,3.51L780.42,3.51L780.43,3.51L780.43,3.51L780.43,3.51L780.43,3.51L780.43,3.51L780.43,3.51L780.43,3.51L780.43,3.51L780.43,3.51L780.43,3.51L780.43,3.51L780.43,3.51L780.42,3.51L780.42,3.51L780.42,3.51L780.42,3.52L780.41,3.52L780.41,3.53L780.41,3.53L780.41,3.52L780.41,3.52L780.43,3.5L780.44,3.48L780.45,3.47L780.46,3.46L780.48,3.45L780.51,3.43L780.53,3.43L780.53,3.42L780.54,3.41L780.56,3.39L780.57,3.37L780.57,3.37L780.57,3.38L780.57,3.38L780.57,3.38L780.57,3.38L780.57,3.38L780.57,3.38L780.58,3.38L780.58,3.38L780.58,3.38L780.59,3.38L780.58,3.38L780.59,3.38L780.59,3.37L780.59,3.37L780.59,3.37L780.59,3.37L780.59,3.37L780.58,3.39L780.58,3.39L780.58,3.39L780.58,3.39L780.58,3.39L780.57,3.39L780.53,3.42L780.53,3.43L780.49,3.45L780.48,3.46L780.46,3.47L780.45,3.48L780.44,3.49L780.43,3.52L780.43,3.52L780.42,3.52zM780.42,3.52L780.42,3.52L780.42,3.51L780.42,3.52zM780.42,3.51L780.42,3.51L780.42,3.51L780.42,3.51L780.42,3.51L780.43,3.51L780.42,3.51L780.42,3.51zM780.04,3.48L780.04,3.48L780.04,3.48L780.04,3.48zM780.03,3.48L780.03,3.48L780.03,3.48L780.03,3.48L780.03,3.48zM780.02,3.47L780.02,3.48L780.02,3.47L780.01,3.47L780.01,3.46L780.02,3.45L780.02,3.45L780.01,3.45L780.01,3.45L780.01,3.45L780.01,3.46L780.01,3.46L780.01,3.46L780.01,3.47L780.02,3.47zM780.58,3.37L780.58,3.37L780.58,3.37L780.58,3.37zM780.57,3.36L780.57,3.36L780.58,3.36L780.57,3.36L780.57,3.36zM780.57,3.35L780.57,3.35L780.58,3.35L780.58,3.35L780.58,3.35L780.57,3.35L780.57,3.35L780.57,3.35L780.57,3.35L780.57,3.35L780.57,3.34L780.57,3.35L780.57,3.35zM780.58,3.35L780.58,3.35L780.59,3.35L780.58,3.35zM780.58,3.35L780.58,3.34L780.58,3.35L780.58,3.35zM780.58,3.34L780.58,3.34L780.58,3.34L780.58,3.34L780.58,3.34L780.58,3.34L780.58,3.34zM780.58,3.33L780.58,3.34L780.58,3.33L780.58,3.33L780.58,3.33zM780.57,3.33L780.56,3.33L780.57,3.33L780.57,3.33L780.57,3.33L780.57,3.33zM780.57,3.32L780.58,3.32L780.58,3.32L780.58,3.32L780.57,3.32L780.57,3.32zM780,3.31L780,3.31L779.99,3.3L779.98,3.29L779.98,3.29L779.98,3.29L779.99,3.3L780,3.31zM780.57,3.31L780.57,3.31L780.57,3.31L780.57,3.31zM780.57,3.29L780.57,3.29L780.57,3.29L780.57,3.29zM780.56,3.29L780.56,3.29L780.55,3.29L780.56,3.28L780.56,3.28L780.56,3.28L780.56,3.28L780.56,3.29L780.56,3.29L780.56,3.29L780.56,3.29zM780.46,3.28L780.46,3.28L780.47,3.27L780.47,3.27L780.46,3.27L780.46,3.28L780.46,3.28L780.46,3.28zM780.47,3.27L780.47,3.27L780.47,3.27L780.47,3.27L780.47,3.27L780.47,3.27zM780.55,3.27L780.55,3.27L780.55,3.27L780.55,3.27L780.55,3.27L780.55,3.27L780.55,3.26L780.55,3.26L780.56,3.27L780.55,3.27zM780.47,3.27L780.47,3.27L780.47,3.27L780.47,3.27L780.47,3.27zM780.56,3.27L780.56,3.27L780.56,3.27L780.56,3.27L780.56,3.27zM780.48,3.27L780.48,3.27L780.47,3.27L780.48,3.27L780.48,3.26L780.48,3.27zM780.48,3.26L780.48,3.26L780.49,3.26L780.49,3.26L780.49,3.26L780.48,3.26L780.48,3.26L780.48,3.26L780.48,3.27L780.48,3.26zM780.56,3.26L780.55,3.26L780.55,3.26L780.54,3.26L780.53,3.26L780.54,3.26L780.54,3.26L780.54,3.26L780.54,3.26L780.54,3.26L780.55,3.26L780.55,3.26L780.55,3.26L780.54,3.26L780.55,3.26L780.54,3.26L780.55,3.26L780.55,3.26L780.55,3.26L780.56,3.26zM780.49,3.26L780.49,3.26L780.49,3.26L780.49,3.26L780.49,3.26zM780.5,3.26L780.5,3.25L780.5,3.26L780.5,3.26L780.5,3.26zM780.49,3.26L780.49,3.26L780.49,3.26L780.49,3.25L780.49,3.26L780.49,3.26L780.49,3.26zM780.51,3.25L780.51,3.25L780.51,3.25L780.51,3.25zM779.96,3.2L779.96,3.2L779.96,3.2L779.96,3.19L779.95,3.17L779.94,3.17L779.95,3.17L779.95,3.18L779.96,3.18L779.97,3.19L779.96,3.2L779.96,3.2L779.96,3.2L779.96,3.2L779.96,3.2zM779.98,3.18L779.98,3.18L779.98,3.19L779.98,3.18L779.98,3.18L779.98,3.18L779.98,3.18L779.98,3.18L779.98,3.18zM780.58,3.12L780.58,3.1L780.59,3.1L780.59,3.1L780.59,3.1L780.59,3.11L780.59,3.12L780.58,3.13L780.58,3.13L780.57,3.13L780.57,3.12L780.58,3.12zM780.6,3.04L780.6,3.04L780.61,3.05L780.6,3.06L780.6,3.07L780.59,3.08L780.59,3.08L780.59,3.09L780.59,3.08L780.59,3.08L780.59,3.06L780.6,3.05L780.6,3.04L780.6,3.04zM780.61,3.02L780.61,3.02L780.61,3.03L780.61,3.03L780.61,3.03L780.61,3.03L780.61,3.03L780.61,3.02L780.61,3.02L780.61,3.02zM780.62,3.01L780.62,3.01L780.62,3.01L780.61,3.01L780.61,3.02L780.61,3.01L780.61,3L780.61,3L780.62,3L780.62,3.01zM780.63,2.95L780.63,2.95L780.64,2.94L780.64,2.94L780.64,2.94L780.64,2.94L780.64,2.93L780.64,2.93L780.65,2.93L780.66,2.93L780.66,2.93L780.66,2.93L780.67,2.93L780.67,2.93L780.67,2.93L780.67,2.92L780.67,2.92L780.67,2.91L780.67,2.91L780.67,2.9L780.67,2.91L780.67,2.9L780.67,2.9L780.66,2.9L780.66,2.9L780.66,2.9L780.65,2.9L780.64,2.9L780.64,2.9L780.62,2.92L780.6,2.93L780.6,2.94L780.6,2.94L780.6,2.95L780.6,2.95L780.61,2.95L780.61,2.96L780.61,2.96L780.61,2.98L780.61,2.99L780.61,2.99L780.61,2.98L780.62,2.97L780.63,2.95z"/>
		<path id="KI-L" title="Line Islands" class="land" d="M61.15,35.88L61.15,35.87L61.16,35.89L61.17,35.91L61.18,35.94L61.18,35.95zM61.18,35.95L61.18,35.94L61.17,35.94L61.16,35.93L61.14,35.9L61.15,35.88zM60.06,32.83L60.06,32.83L60.07,32.82L60.07,32.82L60.07,32.82L60.07,32.82L60.07,32.83L60.07,32.83L60.06,32.83zM64.67,32.68L64.68,32.68L64.67,32.68L64.68,32.68L64.68,32.68L64.68,32.67L64.68,32.68L64.68,32.68L64.69,32.69L64.69,32.69L64.69,32.69L64.7,32.69L64.7,32.69L64.7,32.7L64.69,32.71L64.68,32.7L64.67,32.69L64.67,32.69L64.67,32.68zM64.68,32.67L64.68,32.67L64.68,32.67L64.68,32.66L64.69,32.66L64.69,32.66L64.68,32.66L64.69,32.66L64.69,32.66L64.69,32.66L64.69,32.67L64.69,32.67L64.68,32.67zM64.7,32.67L64.71,32.67L64.71,32.67L64.7,32.67L64.7,32.67L64.7,32.67L64.7,32.67L64.7,32.67zM64.69,32.66L64.68,32.66L64.68,32.65L64.68,32.65L64.69,32.65L64.69,32.66L64.69,32.66zM64.71,32.66L64.71,32.65L64.72,32.66L64.72,32.66L64.71,32.66L64.71,32.66L64.71,32.66L64.71,32.66L64.71,32.66zM64.72,32.65L64.72,32.64L64.72,32.65L64.72,32.65L64.72,32.65L64.72,32.65L64.72,32.65zM64.72,32.64L64.72,32.64L64.72,32.64L64.72,32.65L64.72,32.65L64.72,32.64zM64.73,32.63L64.73,32.63L64.73,32.63L64.73,32.64L64.73,32.64L64.72,32.64L64.72,32.64L64.73,32.63L64.73,32.63zM64.71,32.63L64.71,32.63L64.71,32.63L64.71,32.63L64.71,32.63zM64.71,32.63L64.71,32.62L64.71,32.62L64.71,32.63L64.71,32.63L64.71,32.63L64.71,32.63L64.71,32.63zM64.73,32.63L64.73,32.62L64.73,32.63L64.73,32.63L64.73,32.63L64.73,32.63L64.73,32.63L64.73,32.63L64.73,32.63zM64.71,32.62L64.71,32.62L64.71,32.62L64.71,32.62L64.71,32.62L64.72,32.62L64.71,32.62L64.71,32.62L64.71,32.62L64.71,32.62zM64.71,32.62L64.71,32.62L64.71,32.62L64.71,32.62zM64.71,32.62L64.71,32.62L64.71,32.61L64.71,32.61L64.71,32.61L64.71,32.61L64.72,32.61L64.72,32.61L64.72,32.61L64.72,32.62L64.72,32.61L64.72,32.62L64.71,32.62zM64.74,32.61L64.74,32.61L64.74,32.62L64.74,32.62L64.74,32.61L64.74,32.61zM64.74,32.61L64.75,32.6L64.75,32.6L64.75,32.6L64.75,32.6L64.75,32.61L64.75,32.61L64.74,32.61L64.74,32.61zM64.72,32.6L64.71,32.6L64.71,32.6L64.71,32.6L64.72,32.6L64.72,32.6L64.72,32.6L64.72,32.61L64.72,32.6zM64.72,32.6L64.72,32.6L64.72,32.59L64.72,32.59L64.72,32.59L64.72,32.59L64.72,32.59L64.72,32.59L64.72,32.59L64.72,32.6zM64.75,32.59L64.75,32.59L64.75,32.59L64.75,32.59L64.75,32.59zM64.72,32.58L64.72,32.57L64.72,32.57L64.73,32.57L64.72,32.58L64.72,32.58L64.72,32.59L64.72,32.59L64.72,32.58zM64.73,32.57L64.73,32.57L64.73,32.57L64.73,32.57L64.73,32.57zM64.73,32.57L64.73,32.57L64.72,32.57L64.72,32.56L64.73,32.57zM64.73,32.55L64.73,32.55L64.73,32.55L64.73,32.55L64.73,32.55zM64.74,32.54L64.73,32.54L64.73,32.54L64.73,32.54L64.74,32.54zM64.74,32.53L64.74,32.53L64.73,32.54L64.73,32.54L64.73,32.53L64.73,32.53L64.73,32.51L64.74,32.51L64.74,32.51L64.74,32.52L64.73,32.52L64.74,32.52L64.74,32.52L64.74,32.52L64.74,32.52L64.74,32.53L64.74,32.53L64.74,32.53L64.74,32.53L64.74,32.53L64.74,32.53L64.74,32.53zM64.74,32.52L64.74,32.52L64.74,32.52L64.74,32.52L64.74,32.52zM64.74,32.51L64.73,32.51L64.73,32.51L64.73,32.51L64.73,32.5L64.74,32.5L64.74,32.51L64.74,32.51zM64.74,32.48L64.75,32.49L64.75,32.51L64.75,32.52L64.75,32.53L64.75,32.54L64.75,32.54L64.75,32.55L64.76,32.58L64.76,32.58L64.75,32.59L64.75,32.59L64.75,32.58L64.75,32.58L64.75,32.58L64.75,32.57L64.75,32.57L64.75,32.57L64.75,32.56L64.75,32.56L64.75,32.56L64.75,32.55L64.74,32.55L64.75,32.54L64.74,32.54L64.75,32.54L64.74,32.54L64.75,32.54L64.75,32.53L64.75,32.53L64.75,32.53L64.75,32.52L64.74,32.52L64.75,32.52L64.74,32.51L64.74,32.51L64.74,32.51L64.74,32.51L64.74,32.5L64.74,32.5L64.73,32.5L64.72,32.47L64.73,32.47L64.73,32.47L64.74,32.47L64.74,32.48zM52.26,22.93L52.26,22.93L52.25,22.93L52.24,22.91L52.23,22.9L52.22,22.9L52.19,22.9L52.19,22.91L52.18,22.91L52.16,22.9L52.15,22.9L52.14,22.9L52.13,22.9L52.12,22.91L52.12,22.91L52.1,22.91L52.05,22.92L52.05,22.92L52.05,22.92L52.05,22.93L52.06,22.93L52.09,22.93L52.1,22.94L52.13,22.96L52.14,22.97L52.15,22.97L52.17,22.99L52.18,22.99L52.18,22.98L52.19,22.97L52.19,22.97L52.2,22.96L52.21,22.96L52.22,22.96L52.25,22.95L52.26,22.94L52.26,22.93zM54.19,19.29L54.19,19.29L54.21,19.28L54.22,19.28L54.24,19.28L54.27,19.28L54.28,19.28L54.29,19.28L54.3,19.28L54.32,19.26L54.34,19.26L54.35,19.26L54.35,19.26L54.36,19.26L54.36,19.27L54.33,19.33L54.33,19.34L54.33,19.35L54.33,19.36L54.33,19.38L54.33,19.39L54.33,19.39L54.31,19.39L54.29,19.4L54.29,19.4L54.28,19.4L54.27,19.39L54.25,19.38L54.24,19.37L54.21,19.34L54.19,19.33L54.18,19.32L54.18,19.32L54.18,19.3L54.18,19.29L54.19,19.29zM48.68,6.34L48.69,6.34L48.69,6.34L48.68,6.34zM48.77,6.34L48.77,6.34L48.77,6.34L48.77,6.34zM48.76,6.34L48.76,6.34L48.76,6.34L48.76,6.34zM48.77,6.34L48.77,6.34L48.77,6.33L48.77,6.33L48.77,6.34zM48.76,6.33L48.76,6.33L48.76,6.33L48.76,6.33zM48.69,6.33L48.7,6.33L48.7,6.33L48.69,6.33zM48.77,6.33L48.76,6.33L48.77,6.33L48.76,6.33L48.76,6.33L48.77,6.33L48.77,6.33zM48.76,6.32L48.76,6.32L48.76,6.32L48.76,6.33L48.76,6.32zM48.69,6.32L48.69,6.32L48.69,6.32L48.69,6.32zM48.69,6.32L48.69,6.32L48.69,6.31L48.7,6.31L48.69,6.32zM48.75,6.31L48.75,6.31L48.75,6.31L48.75,6.31zM48.74,6.31L48.74,6.31L48.75,6.31L48.74,6.31L48.74,6.31zM48.67,6.31L48.67,6.31L48.67,6.31L48.67,6.31L48.67,6.31zM48.73,6.31L48.73,6.31L48.74,6.31L48.74,6.31L48.73,6.31L48.73,6.32L48.72,6.31L48.72,6.31L48.72,6.31L48.73,6.31L48.73,6.31L48.73,6.31zM48.67,6.31L48.67,6.3L48.67,6.3L48.67,6.31L48.67,6.31zM48.7,6.3L48.7,6.3L48.7,6.3L48.7,6.3L48.7,6.3zM48.72,6.3L48.72,6.3L48.72,6.3L48.72,6.3zM48.7,6.3L48.7,6.29L48.7,6.3L48.7,6.3zM48.71,6.29L48.71,6.29L48.71,6.29L48.71,6.3L48.71,6.3L48.71,6.29zM48.73,6.29L48.73,6.29L48.73,6.29L48.73,6.29L48.73,6.29zM48.71,6.29L48.71,6.29L48.71,6.29L48.71,6.29zM48.67,6.28L48.67,6.28L48.68,6.28L48.67,6.27L48.67,6.28L48.67,6.28L48.66,6.28L48.67,6.28zM48.65,6.28L48.65,6.28L48.65,6.28L48.65,6.27L48.65,6.28zM48.7,6.27L48.7,6.27L48.69,6.27L48.7,6.27L48.7,6.27zM48.76,6.27L48.77,6.27L48.76,6.27L48.76,6.27zM48.74,6.27L48.74,6.27L48.74,6.27L48.74,6.27zM48.7,6.27L48.7,6.26L48.7,6.26L48.7,6.27zM48.67,6.26L48.67,6.26L48.67,6.25L48.67,6.25L48.67,6.25L48.67,6.25L48.66,6.26L48.66,6.26L48.66,6.26L48.67,6.26L48.67,6.26zM48.78,6.26L48.78,6.26L48.78,6.25L48.78,6.26zM48.77,6.25L48.78,6.25L48.78,6.25L48.77,6.25zM48.78,6.24L48.78,6.25L48.78,6.25L48.78,6.25L48.78,6.24zM48.52,6.24L48.53,6.24L48.53,6.24L48.53,6.24L48.52,6.24zM48.78,6.24L48.78,6.24L48.78,6.24L48.78,6.24L48.77,6.23L48.77,6.24L48.77,6.24L48.78,6.24L48.78,6.24zM48.72,6.24L48.72,6.24L48.72,6.24L48.72,6.24zM48.74,6.24L48.74,6.23L48.74,6.23L48.74,6.24zM48.79,6.23L48.8,6.23L48.8,6.23L48.79,6.23L48.79,6.23zM48.78,6.23L48.78,6.23L48.78,6.23L48.78,6.23L48.78,6.23zM48.77,6.23L48.77,6.23L48.76,6.23L48.76,6.24L48.76,6.24L48.76,6.24L48.76,6.23L48.76,6.22L48.75,6.22L48.75,6.22L48.75,6.22L48.75,6.22L48.75,6.22L48.75,6.22L48.75,6.22L48.75,6.22L48.75,6.22L48.75,6.22L48.75,6.21L48.75,6.21L48.75,6.21L48.74,6.2L48.74,6.2L48.75,6.2L48.75,6.2L48.75,6.21L48.76,6.21L48.75,6.21L48.75,6.22L48.76,6.22L48.76,6.21L48.76,6.21L48.76,6.22L48.76,6.22L48.76,6.22L48.76,6.22L48.76,6.23L48.76,6.23L48.77,6.23L48.77,6.22L48.77,6.23L48.77,6.23L48.78,6.23L48.78,6.23L48.78,6.23L48.78,6.23L48.77,6.23zM48.8,6.23L48.8,6.23L48.8,6.23L48.8,6.23zM48.78,6.23L48.79,6.23L48.79,6.23L48.79,6.22L48.78,6.23zM48.79,6.23L48.79,6.22L48.79,6.22L48.79,6.22L48.79,6.22L48.79,6.21L48.79,6.21L48.79,6.21L48.79,6.21L48.8,6.21L48.8,6.21L48.79,6.22L48.8,6.22L48.8,6.22L48.8,6.22L48.8,6.23L48.79,6.23L48.79,6.23zM48.74,6.22L48.74,6.23L48.74,6.23L48.74,6.23L48.74,6.23L48.74,6.22zM48.77,6.22L48.77,6.22L48.77,6.22L48.77,6.21L48.77,6.22L48.77,6.22L48.77,6.22L48.77,6.22zM48.79,6.22L48.78,6.22L48.78,6.22L48.79,6.22zM48.78,6.22L48.78,6.22L48.78,6.22L48.78,6.22L48.78,6.22zM48.78,6.22L48.79,6.22L48.79,6.22L48.78,6.22zM48.78,6.21L48.78,6.21L48.78,6.21L48.78,6.21zM48.82,6.21L48.82,6.21L48.82,6.21L48.82,6.2L48.82,6.2L48.82,6.2L48.82,6.19L48.82,6.19L48.82,6.19L48.82,6.19L48.82,6.19L48.82,6.18L48.82,6.18L48.82,6.17L48.82,6.16L48.82,6.16L48.81,6.17L48.81,6.17L48.81,6.17L48.81,6.17L48.81,6.17L48.81,6.17L48.8,6.17L48.8,6.17L48.8,6.16L48.8,6.16L48.8,6.16L48.8,6.16L48.8,6.16L48.8,6.16L48.81,6.16L48.81,6.17L48.81,6.17L48.82,6.16L48.82,6.16L48.82,6.15L48.82,6.15L48.82,6.14L48.82,6.14L48.82,6.14L48.82,6.13L48.82,6.13L48.82,6.14L48.83,6.14L48.83,6.13L48.83,6.13L48.82,6.13L48.82,6.13L48.82,6.12L48.82,6.13L48.82,6.13L48.82,6.13L48.82,6.13L48.81,6.13L48.81,6.13L48.81,6.13L48.81,6.13L48.81,6.13L48.81,6.14L48.81,6.14L48.81,6.15L48.81,6.15L48.8,6.15L48.8,6.15L48.8,6.14L48.8,6.14L48.79,6.13L48.79,6.14L48.78,6.14L48.78,6.14L48.78,6.13L48.78,6.13L48.78,6.13L48.79,6.13L48.8,6.14L48.8,6.14L48.8,6.13L48.8,6.13L48.8,6.13L48.8,6.13L48.8,6.12L48.8,6.12L48.79,6.13L48.79,6.12L48.79,6.13L48.78,6.12L48.78,6.12L48.78,6.12L48.79,6.12L48.79,6.11L48.79,6.1L48.8,6.1L48.8,6.1L48.81,6.1L48.81,6.1L48.81,6.11L48.82,6.11L48.82,6.11L48.82,6.1L48.82,6.1L48.82,6.11L48.82,6.11L48.83,6.12L48.83,6.12L48.83,6.13L48.83,6.13L48.83,6.12L48.84,6.13L48.84,6.12L48.84,6.12L48.84,6.12L48.83,6.12L48.83,6.11L48.84,6.11L48.83,6.11L48.83,6.11L48.83,6.11L48.83,6.11L48.83,6.11L48.83,6.1L48.83,6.1L48.83,6.1L48.84,6.1L48.84,6.1L48.84,6.11L48.85,6.1L48.85,6.1L48.85,6.1L48.85,6.1L48.85,6.1L48.85,6.1L48.85,6.09L48.85,6.09L48.85,6.09L48.85,6.09L48.85,6.09L48.84,6.09L48.84,6.09L48.84,6.1L48.84,6.09L48.83,6.09L48.83,6.09L48.82,6.08L48.82,6.08L48.82,6.09L48.83,6.09L48.83,6.09L48.83,6.09L48.83,6.1L48.83,6.1L48.82,6.1L48.82,6.1L48.82,6.1L48.81,6.1L48.8,6.1L48.8,6.1L48.79,6.09L48.78,6.09L48.78,6.09L48.79,6.08L48.78,6.07L48.78,6.06L48.78,6.06L48.78,6.06L48.77,6.06L48.77,6.05L48.78,6.05L48.78,6.05L48.78,6.06L48.79,6.06L48.79,6.06L48.8,6.06L48.8,6.06L48.79,6.05L48.79,6.05L48.8,6.05L48.81,6.05zM48.82,6.21L48.82,6.21L48.82,6.22L48.82,6.22L48.82,6.22L48.81,6.22L48.81,6.21L48.81,6.21L48.81,6.21L48.81,6.21L48.82,6.2L48.82,6.2L48.81,6.2L48.81,6.2L48.81,6.2L48.8,6.2L48.8,6.2L48.8,6.19L48.8,6.2L48.8,6.2L48.79,6.19L48.79,6.2L48.79,6.2L48.79,6.2L48.79,6.2L48.79,6.2L48.8,6.21L48.8,6.2L48.81,6.21L48.8,6.21L48.8,6.21L48.8,6.22L48.8,6.22L48.8,6.22L48.8,6.22L48.81,6.21L48.81,6.22L48.82,6.22L48.82,6.22L48.82,6.24L48.81,6.24L48.81,6.25L48.81,6.25L48.81,6.25L48.81,6.25L48.8,6.26L48.81,6.26L48.82,6.25L48.82,6.25L48.82,6.26L48.82,6.27L48.81,6.27L48.81,6.27L48.8,6.27L48.8,6.28L48.8,6.28L48.81,6.27L48.81,6.27L48.81,6.27L48.82,6.27L48.82,6.27L48.82,6.27L48.82,6.28L48.82,6.28L48.81,6.28L48.81,6.28L48.81,6.28L48.81,6.29L48.8,6.29L48.8,6.29L48.8,6.28L48.8,6.28L48.8,6.28L48.8,6.28L48.8,6.27L48.8,6.26L48.8,6.26L48.8,6.26L48.8,6.26L48.8,6.25L48.8,6.25L48.79,6.24L48.79,6.24L48.79,6.24L48.79,6.24L48.8,6.23L48.79,6.23L48.79,6.23L48.79,6.24L48.79,6.24L48.79,6.24L48.79,6.24L48.79,6.25L48.79,6.25L48.78,6.25L48.78,6.26L48.78,6.26L48.78,6.26L48.77,6.26L48.77,6.26L48.76,6.26L48.76,6.26L48.76,6.26L48.76,6.25L48.76,6.25L48.76,6.25L48.76,6.25L48.76,6.25L48.76,6.24L48.75,6.25L48.75,6.24L48.75,6.24L48.75,6.25L48.75,6.25L48.75,6.25L48.75,6.25L48.75,6.25L48.75,6.25L48.75,6.25L48.76,6.25L48.76,6.25L48.76,6.25L48.76,6.26L48.75,6.26L48.75,6.26L48.74,6.27L48.75,6.26L48.75,6.27L48.76,6.26L48.77,6.26L48.77,6.26L48.77,6.26L48.77,6.26L48.77,6.26L48.77,6.27L48.76,6.27L48.76,6.28L48.76,6.28L48.76,6.28L48.76,6.27L48.76,6.27L48.75,6.28L48.75,6.28L48.76,6.28L48.76,6.28L48.76,6.28L48.76,6.29L48.76,6.28L48.76,6.28L48.75,6.29L48.75,6.29L48.74,6.29L48.74,6.29L48.74,6.28L48.73,6.28L48.73,6.27L48.73,6.27L48.73,6.26L48.74,6.26L48.74,6.26L48.74,6.25L48.74,6.24L48.74,6.24L48.73,6.24L48.73,6.24L48.73,6.23L48.73,6.23L48.73,6.23L48.72,6.23L48.73,6.23L48.73,6.23L48.73,6.24L48.73,6.24L48.74,6.25L48.73,6.25L48.73,6.25L48.73,6.25L48.73,6.25L48.73,6.26L48.72,6.27L48.72,6.27L48.72,6.27L48.71,6.25L48.71,6.25L48.71,6.25L48.71,6.24L48.71,6.24L48.72,6.24L48.72,6.24L48.72,6.24L48.72,6.24L48.72,6.24L48.72,6.24L48.72,6.24L48.71,6.24L48.71,6.24L48.71,6.24L48.7,6.25L48.7,6.25L48.7,6.25L48.7,6.26L48.7,6.26L48.7,6.26L48.71,6.26L48.71,6.26L48.72,6.26L48.72,6.27L48.73,6.27L48.73,6.28L48.73,6.28L48.73,6.28L48.73,6.28L48.73,6.29L48.72,6.29L48.72,6.29L48.71,6.29L48.71,6.28L48.71,6.28L48.71,6.28L48.71,6.28L48.71,6.27L48.71,6.27L48.71,6.27L48.71,6.26L48.7,6.27L48.7,6.27L48.7,6.27L48.7,6.27L48.7,6.27L48.71,6.27L48.71,6.27L48.71,6.28L48.71,6.28L48.7,6.28L48.7,6.28L48.7,6.28L48.7,6.28L48.71,6.28L48.71,6.29L48.71,6.29L48.71,6.29L48.71,6.29L48.72,6.29L48.72,6.29L48.73,6.29L48.74,6.29L48.74,6.29L48.74,6.3L48.73,6.3L48.73,6.31L48.73,6.31L48.73,6.3L48.73,6.3L48.74,6.3L48.75,6.3L48.75,6.3L48.75,6.3L48.75,6.31L48.74,6.31L48.74,6.3L48.74,6.31L48.74,6.31L48.74,6.31L48.75,6.31L48.75,6.3L48.76,6.3L48.76,6.3L48.76,6.3L48.75,6.32L48.76,6.32L48.76,6.31L48.76,6.31L48.77,6.32L48.77,6.32L48.77,6.32L48.78,6.33L48.77,6.34L48.77,6.34L48.78,6.34L48.78,6.34L48.77,6.34L48.77,6.34L48.76,6.34L48.76,6.34L48.76,6.34L48.76,6.34L48.76,6.34L48.75,6.34L48.75,6.34L48.74,6.34L48.74,6.34L48.74,6.34L48.73,6.34L48.73,6.33L48.74,6.33L48.74,6.33L48.74,6.33L48.74,6.34L48.75,6.34L48.74,6.33L48.74,6.33L48.75,6.32L48.75,6.32L48.76,6.32L48.76,6.32L48.75,6.32L48.74,6.32L48.74,6.33L48.73,6.33L48.73,6.33L48.73,6.33L48.72,6.33L48.72,6.32L48.72,6.32L48.72,6.32L48.72,6.32L48.72,6.32L48.72,6.32L48.72,6.31L48.71,6.32L48.71,6.32L48.71,6.31L48.71,6.31L48.71,6.31L48.71,6.3L48.71,6.3L48.71,6.3L48.71,6.3L48.71,6.3L48.71,6.3L48.71,6.31L48.71,6.31L48.71,6.31L48.71,6.31L48.7,6.31L48.71,6.32L48.71,6.32L48.7,6.32L48.7,6.33L48.69,6.34L48.69,6.34L48.69,6.34L48.68,6.34L48.68,6.34L48.67,6.34L48.67,6.33L48.67,6.32L48.67,6.32L48.67,6.32L48.66,6.32L48.66,6.32L48.66,6.3L48.66,6.3L48.66,6.28L48.66,6.28L48.66,6.28L48.66,6.28L48.66,6.28L48.66,6.29L48.66,6.29L48.66,6.3L48.66,6.3L48.66,6.3L48.66,6.3L48.65,6.3L48.65,6.3L48.65,6.29L48.65,6.28L48.65,6.28L48.65,6.28L48.64,6.28L48.64,6.27L48.64,6.27L48.64,6.27L48.63,6.27L48.63,6.27L48.63,6.27L48.63,6.26L48.63,6.26L48.62,6.26L48.62,6.26L48.61,6.25L48.6,6.25L48.6,6.25L48.6,6.24L48.59,6.25L48.58,6.25L48.58,6.25L48.59,6.25L48.58,6.26L48.58,6.26L48.57,6.26L48.57,6.26L48.57,6.26L48.56,6.26L48.55,6.26L48.54,6.26L48.54,6.26L48.53,6.26L48.52,6.26L48.51,6.26L48.51,6.27L48.5,6.27L48.51,6.27L48.51,6.27L48.51,6.27L48.51,6.28L48.5,6.27L48.5,6.28L48.49,6.28L48.49,6.27L48.5,6.27L48.5,6.27L48.49,6.26L48.49,6.25L48.5,6.23L48.5,6.22L48.52,6.21L48.52,6.21L48.54,6.2L48.54,6.19L48.55,6.19L48.55,6.19L48.56,6.18L48.57,6.18L48.57,6.16L48.58,6.16L48.58,6.16L48.58,6.16L48.59,6.15L48.6,6.15L48.6,6.15L48.6,6.14L48.6,6.13L48.6,6.13L48.59,6.14L48.58,6.14L48.58,6.15L48.58,6.15L48.58,6.15L48.57,6.15L48.54,6.18L48.52,6.18L48.51,6.19L48.51,6.2L48.5,6.21L48.5,6.21L48.5,6.22L48.49,6.23L48.48,6.24L48.45,6.26L48.44,6.26L48.44,6.27L48.44,6.28L48.46,6.3L48.48,6.32L48.49,6.33L48.5,6.33L48.5,6.33L48.52,6.32L48.53,6.31L48.55,6.31L48.56,6.31L48.56,6.31L48.56,6.31L48.56,6.31L48.56,6.31L48.56,6.3L48.57,6.3L48.57,6.31L48.57,6.31L48.57,6.31L48.57,6.31L48.57,6.31L48.57,6.31L48.57,6.31L48.57,6.3L48.59,6.31L48.61,6.32L48.62,6.33L48.63,6.34L48.64,6.39L48.65,6.4L48.65,6.41L48.67,6.43L48.69,6.44L48.71,6.45L48.72,6.46L48.75,6.47L48.79,6.48L48.83,6.49L48.84,6.49L48.86,6.48L48.87,6.48L48.89,6.49L48.91,6.49L48.93,6.5L48.94,6.51L48.95,6.51L48.99,6.53L49,6.53L49.02,6.55L49.05,6.57L49.07,6.58L49.07,6.59L49.1,6.6L49.11,6.61L49.12,6.61L49.15,6.65L49.15,6.65L49.16,6.65L49.19,6.66L49.22,6.67L49.23,6.67L49.26,6.66L49.3,6.66L49.31,6.66L49.31,6.65L49.32,6.64L49.32,6.62L49.32,6.58L49.32,6.55L49.31,6.54L49.31,6.53L49.29,6.52L49.28,6.51L49.27,6.51L49.26,6.51L49.24,6.5L49.23,6.5L49.21,6.49L49.17,6.48L49.15,6.46L49.14,6.45L49.12,6.45L49.11,6.45L49.1,6.44L49.07,6.42L49.07,6.42L49.06,6.42L49.05,6.42L49.02,6.41L49,6.39L48.98,6.38L48.98,6.37L48.98,6.37L48.96,6.37L48.96,6.37L48.95,6.36L48.93,6.33L48.93,6.32L48.93,6.31L48.93,6.29L48.92,6.27L48.93,6.26L48.92,6.24L48.93,6.23L48.92,6.22L48.92,6.21L48.92,6.2L48.92,6.19L48.93,6.18L48.95,6.14L48.95,6.13L48.96,6.12L48.98,6.11L48.99,6.1L49.01,6.1L49.01,6.1L49.01,6.09L49.02,6.08L49.02,6.07L49.02,6.06L49.01,6.04L49,6.03L48.99,6.02L48.97,6.02L48.94,6.01L48.93,6.01L48.91,6.01L48.89,6.01L48.85,5.99L48.83,5.98L48.8,5.96L48.78,5.95L48.76,5.93L48.76,5.92L48.75,5.9L48.68,5.88L48.68,5.88L48.66,5.88L48.62,5.89L48.6,5.89L48.6,5.89L48.59,5.89L48.59,5.91L48.59,5.92L48.59,5.94L48.61,5.97zM48.77,6.2L48.76,6.21L48.76,6.21L48.77,6.21L48.77,6.21L48.77,6.2zM48.78,6.2L48.78,6.2L48.78,6.2L48.78,6.2L48.79,6.2L48.79,6.21L48.78,6.21L48.78,6.21L48.79,6.21L48.78,6.2L48.78,6.2zM48.74,6.2L48.74,6.2L48.74,6.2L48.74,6.2zM48.82,6.2L48.82,6.2L48.82,6.2L48.82,6.2L48.82,6.2zM48.82,6.19L48.82,6.19L48.82,6.19L48.81,6.19L48.82,6.19L48.82,6.19zM48.8,6.19L48.8,6.19L48.8,6.18L48.8,6.18L48.8,6.18L48.8,6.19L48.79,6.19L48.79,6.18L48.79,6.18L48.79,6.19L48.79,6.19L48.78,6.19L48.79,6.19L48.79,6.18L48.79,6.18L48.79,6.18L48.79,6.18L48.79,6.18L48.8,6.17L48.79,6.17L48.8,6.17L48.8,6.17L48.8,6.17L48.8,6.17L48.8,6.18L48.81,6.18L48.8,6.18L48.81,6.19L48.81,6.19L48.8,6.19L48.8,6.19L48.8,6.19L48.8,6.19zM48.81,6.18L48.81,6.18L48.81,6.18L48.81,6.17L48.81,6.18L48.81,6.18L48.81,6.18zM48.81,6.17L48.8,6.18L48.81,6.18L48.81,6.17zM48.78,6.17L48.78,6.16L48.79,6.16L48.79,6.17L48.79,6.17L48.79,6.17L48.79,6.17L48.79,6.18L48.78,6.18L48.79,6.17L48.78,6.17L48.78,6.17zM48.76,6.16L48.76,6.16L48.77,6.16L48.77,6.16L48.77,6.16L48.76,6.16zM48.81,6.16L48.81,6.16L48.8,6.16L48.8,6.16L48.81,6.16zM48.79,6.15L48.79,6.16L48.79,6.16L48.79,6.16L48.79,6.16L48.79,6.16L48.79,6.15L48.79,6.15L48.79,6.15zM48.81,6.15L48.81,6.15L48.81,6.16L48.8,6.15L48.8,6.15L48.81,6.15zM48.79,6.15L48.79,6.14L48.79,6.14L48.79,6.14L48.79,6.14L48.79,6.15L48.79,6.15L48.79,6.15L48.79,6.15L48.79,6.15zM48.77,6.14L48.77,6.15L48.77,6.15L48.76,6.16L48.75,6.17L48.75,6.16L48.76,6.15L48.77,6.15L48.77,6.15L48.75,6.15L48.75,6.15L48.75,6.16L48.74,6.15L48.74,6.15L48.74,6.14L48.74,6.15L48.75,6.15L48.75,6.14L48.74,6.14L48.74,6.14L48.74,6.13L48.74,6.13L48.75,6.13L48.75,6.13L48.75,6.13L48.75,6.14L48.75,6.14L48.75,6.14L48.75,6.14L48.75,6.14L48.76,6.14L48.77,6.14zM48.81,6.14L48.81,6.14L48.81,6.14L48.81,6.14L48.81,6.14zM48.77,6.14L48.77,6.14L48.77,6.14L48.77,6.13L48.78,6.14L48.78,6.14L48.78,6.14L48.77,6.14zM48.6,6.14L48.6,6.15L48.6,6.14L48.6,6.14L48.6,6.14zM48.82,6.14L48.82,6.14L48.82,6.14L48.82,6.14L48.82,6.14zM48.71,6.13L48.7,6.13L48.71,6.13L48.71,6.13L48.71,6.13zM48.79,6.13L48.79,6.13L48.79,6.13L48.79,6.13zM48.79,6.13L48.79,6.13L48.79,6.13L48.79,6.13zM48.79,6.13L48.79,6.13L48.79,6.13L48.79,6.13L48.79,6.13zM48.6,6.13L48.6,6.13L48.6,6.13L48.6,6.13L48.6,6.13zM48.83,6.12L48.83,6.12L48.83,6.12L48.83,6.12zM48.83,6.11L48.83,6.11L48.83,6.11L48.83,6.11zM48.8,6.1L48.8,6.1L48.8,6.1L48.79,6.1L48.79,6.1L48.8,6.1zM48.62,6.09L48.62,6.09L48.61,6.09L48.61,6.09L48.61,6.09L48.61,6.09L48.62,6.09L48.62,6.08L48.62,6.08L48.62,6.08L48.62,6.07L48.62,6.07L48.62,6.07L48.62,6.07L48.62,6.08L48.62,6.09zM48.81,6.05L48.81,6.05L48.81,6.04L48.81,6.04L48.8,6.04L48.8,6.05L48.8,6.05L48.8,6.04L48.8,6.04L48.8,6.04L48.8,6.03L48.8,6.03L48.79,6.03L48.79,6.03L48.79,6.03L48.79,6.02L48.79,6.02L48.79,6.02L48.79,6.02L48.78,6.02L48.78,6.02L48.77,6.02L48.77,6.02L48.77,6.02L48.77,6.02L48.77,6.02L48.76,6.01L48.76,6.01L48.76,6L48.76,6L48.76,6L48.75,6L48.74,6L48.74,5.99L48.75,5.99L48.74,5.99L48.74,5.99L48.74,5.99L48.73,5.98L48.73,5.98L48.73,5.98L48.72,5.98L48.72,5.98L48.72,5.98L48.72,5.98L48.72,5.98L48.72,5.97L48.71,5.97L48.71,5.97L48.71,5.97L48.7,5.98L48.71,5.99L48.7,5.99L48.69,5.98L48.69,5.98L48.68,5.98L48.68,5.98L48.69,5.98L48.69,5.98L48.69,5.97L48.68,5.97L48.68,5.97L48.68,5.97L48.68,5.97L48.68,5.96L48.69,5.97L48.69,5.97L48.7,5.97L48.7,5.97L48.7,5.97L48.7,5.96L48.7,5.96L48.7,5.96L48.7,5.96L48.69,5.96L48.69,5.96L48.68,5.95L48.68,5.96L48.68,5.96L48.67,5.96L48.67,5.96L48.67,5.95L48.67,5.95L48.68,5.95L48.69,5.95L48.7,5.95L48.7,5.95L48.69,5.94L48.69,5.94L48.68,5.94L48.68,5.94L48.68,5.94L48.68,5.93L48.67,5.93L48.68,5.93L48.67,5.93L48.67,5.93L48.67,5.93L48.67,5.94L48.67,5.95L48.66,5.95L48.65,5.94L48.65,5.94L48.66,5.94L48.66,5.94L48.65,5.94L48.65,5.93L48.66,5.94L48.66,5.94L48.66,5.94L48.67,5.94L48.67,5.94L48.67,5.94L48.67,5.93L48.67,5.93L48.67,5.93L48.67,5.93L48.67,5.92L48.67,5.92L48.66,5.92L48.65,5.92L48.65,5.93L48.65,5.93L48.64,5.93L48.63,5.94L48.62,5.94L48.62,5.95L48.61,5.95L48.61,5.96L48.62,5.96L48.62,5.98L48.62,5.99L48.63,6L48.62,6L48.63,6.01L48.63,6.01L48.64,6.01L48.64,6.01L48.64,6.02L48.64,6.03zM48.79,6.05L48.79,6.05L48.79,6.05L48.79,6.05zM48.74,6.05L48.74,6.05L48.73,6.06L48.73,6.05L48.73,6.05L48.74,6.05zM48.78,6.05L48.78,6.05L48.77,6.05L48.77,6.05L48.76,6.04L48.76,6.03L48.76,6.02L48.76,6.02L48.76,6.02L48.76,6.02L48.77,6.03L48.77,6.04L48.77,6.04L48.77,6.04L48.78,6.04L48.78,6.04L48.77,6.03L48.78,6.03L48.79,6.02L48.79,6.03L48.78,6.04L48.78,6.04L48.79,6.05L48.79,6.05L48.78,6.05L48.78,6.04L48.78,6.05zM48.64,6.03L48.64,6.03L48.64,6.03L48.65,6.03L48.64,6.03L48.63,6.03L48.63,6.03L48.63,6.03L48.62,6.01L48.62,5.99L48.61,5.97zM48.76,6.01L48.75,6.01L48.75,6.01L48.74,6L48.74,6L48.73,6L48.73,6L48.74,6.01L48.74,6.01L48.75,6.01L48.75,6.02L48.76,6.01zM48.7,6L48.7,6L48.69,6L48.69,6L48.69,6L48.69,6L48.68,5.99L48.68,5.99L48.68,5.99L48.69,5.99L48.69,5.99L48.7,6L48.71,5.99L48.71,5.99L48.71,5.99L48.71,6L48.7,6zM44.51,1.97L44.51,1.97L44.53,1.98L44.55,1.98L44.56,1.99L44.6,1.98L44.62,1.98L44.64,1.97L44.7,1.93L44.71,1.92L44.72,1.92L44.72,1.91L44.72,1.9L44.72,1.89L44.72,1.89L44.72,1.88L44.72,1.87L44.72,1.87L44.72,1.86L44.72,1.86L44.72,1.87L44.72,1.87L44.72,1.87L44.72,1.88L44.72,1.88L44.72,1.88L44.72,1.89L44.72,1.91L44.72,1.91L44.71,1.92L44.7,1.94L44.69,1.94L44.69,1.94L44.69,1.94L44.68,1.94L44.67,1.94L44.67,1.94L44.67,1.94L44.68,1.94L44.68,1.94L44.69,1.93L44.7,1.93L44.7,1.93L44.7,1.93L44.71,1.92L44.7,1.92L44.7,1.92L44.71,1.91L44.72,1.89L44.71,1.88L44.72,1.88L44.72,1.88L44.72,1.87L44.71,1.86L44.71,1.86L44.7,1.86L44.7,1.86L44.7,1.87L44.69,1.87L44.7,1.87L44.71,1.88L44.71,1.89L44.71,1.9L44.71,1.9L44.7,1.89L44.7,1.9L44.7,1.9L44.7,1.91L44.7,1.91L44.69,1.92L44.68,1.92L44.68,1.93L44.65,1.93L44.65,1.94L44.64,1.94L44.64,1.95L44.63,1.95L44.63,1.95L44.63,1.96L44.62,1.96L44.62,1.96L44.61,1.96L44.6,1.96L44.59,1.96L44.58,1.97L44.57,1.97L44.57,1.96L44.55,1.96L44.55,1.96L44.54,1.96L44.54,1.95L44.52,1.95L44.51,1.95L44.51,1.94L44.5,1.94L44.49,1.93L44.48,1.92L44.48,1.9L44.48,1.89L44.47,1.88L44.47,1.88L44.46,1.87L44.46,1.87L44.45,1.87L44.45,1.88L44.45,1.88L44.47,1.91L44.5,1.96L44.51,1.97zM44.69,1.94L44.69,1.94L44.69,1.94L44.68,1.94L44.67,1.94L44.68,1.94L44.69,1.94L44.69,1.94L44.69,1.94zM44.72,1.89L44.72,1.89L44.72,1.89L44.72,1.89zM44.45,1.86L44.45,1.86L44.45,1.86L44.45,1.86L44.45,1.86L44.44,1.86L44.44,1.86L44.44,1.85L44.45,1.85L44.45,1.84L44.45,1.83L44.44,1.83L44.44,1.82L44.41,1.81L44.41,1.81L44.4,1.8L44.4,1.79L44.4,1.78L44.4,1.77L44.41,1.76L44.4,1.76L44.4,1.75L44.4,1.75L44.4,1.75L44.41,1.74L44.41,1.73L44.43,1.72L44.44,1.72L44.45,1.72L44.47,1.72L44.48,1.71L44.48,1.71L44.49,1.71L44.49,1.71L44.5,1.71L44.5,1.71L44.51,1.7L44.51,1.7L44.5,1.69L44.48,1.69L44.47,1.69L44.46,1.69L44.42,1.72L44.4,1.73L44.39,1.74L44.39,1.75L44.39,1.76L44.38,1.77L44.38,1.78L44.39,1.8L44.4,1.81L44.41,1.83L44.43,1.84L44.44,1.85L44.45,1.87L44.45,1.87L44.45,1.86L44.45,1.86L44.45,1.86zM44.69,1.85L44.68,1.85L44.68,1.84L44.68,1.84L44.67,1.84L44.66,1.84L44.66,1.84L44.66,1.84L44.66,1.85L44.65,1.84L44.64,1.84L44.63,1.84L44.61,1.84L44.61,1.83L44.6,1.83L44.6,1.82L44.58,1.82L44.58,1.82L44.57,1.81L44.57,1.81L44.56,1.81L44.55,1.8L44.55,1.79L44.54,1.78L44.53,1.78L44.54,1.77L44.53,1.76L44.53,1.76L44.53,1.76L44.53,1.76L44.53,1.76L44.54,1.76L44.54,1.76L44.53,1.75L44.54,1.74L44.53,1.74L44.54,1.74L44.54,1.73L44.54,1.73L44.54,1.72L44.54,1.72L44.54,1.72L44.54,1.72L44.54,1.72L44.55,1.72L44.54,1.71L44.54,1.72L44.54,1.71L44.54,1.71L44.54,1.71L44.54,1.7L44.53,1.7L44.53,1.7L44.53,1.7L44.52,1.7L44.53,1.71L44.52,1.7L44.52,1.71L44.52,1.71L44.52,1.71L44.52,1.7L44.52,1.71L44.52,1.71L44.52,1.71L44.51,1.72L44.51,1.72L44.51,1.71L44.51,1.71L44.51,1.7L44.51,1.7L44.51,1.7L44.51,1.7L44.51,1.7L44.52,1.7L44.52,1.7L44.52,1.7L44.53,1.7L44.54,1.7L44.54,1.71L44.54,1.71L44.55,1.71L44.55,1.72L44.55,1.74L44.55,1.74L44.55,1.75L44.55,1.75L44.55,1.77L44.56,1.78L44.57,1.8L44.59,1.81L44.61,1.82L44.63,1.82L44.67,1.82L44.67,1.82L44.67,1.82L44.67,1.82L44.67,1.83L44.67,1.83L44.67,1.83L44.68,1.83L44.69,1.84L44.69,1.84L44.69,1.84L44.69,1.84L44.69,1.84L44.69,1.84L44.7,1.84L44.71,1.84L44.71,1.85L44.71,1.85L44.71,1.85L44.71,1.85L44.7,1.85L44.7,1.85L44.7,1.85L44.7,1.85L44.69,1.86L44.69,1.86L44.69,1.86L44.69,1.85zM44.71,1.85L44.71,1.86L44.71,1.86L44.71,1.85zM44.68,1.83L44.68,1.83L44.68,1.83L44.68,1.83zM44.67,1.82L44.67,1.82L44.67,1.82L44.68,1.82L44.67,1.82zM42.15,0.04L42.16,0.04L42.17,0.05L42.18,0.05L42.2,0.07L42.22,0.07L42.24,0.07L42.25,0.07L42.26,0.06L42.26,0.06L42.27,0.05L42.26,0.04L42.26,0.03L42.26,0.03L42.25,0.03L42.24,0.02L42.23,0.02L42.22,0.02L42.2,0.01L42.19,0.01L42.18,0L42.17,0L42.15,0L42.14,0.01L42.13,0.01L42.13,0.02L42.13,0.03L42.14,0.03L42.15,0.04z"/>
		<path id="KI-B" title="Phoenix Islands" class="land" d="M10.93,20.84L10.93,20.83L10.91,20.82L10.9,20.81L10.88,20.81L10.88,20.81L10.87,20.81L10.86,20.81L10.85,20.8L10.84,20.8L10.84,20.79L10.83,20.79L10.83,20.78L10.83,20.78L10.84,20.77L10.84,20.77L10.84,20.77L10.84,20.78L10.84,20.79L10.85,20.8L10.86,20.8L10.86,20.8L10.86,20.8L10.86,20.8L10.87,20.8L10.88,20.8L10.88,20.8L10.89,20.8L10.9,20.81L10.9,20.81L10.91,20.81L10.91,20.82L10.91,20.82L10.92,20.82L10.93,20.83L10.93,20.83L10.94,20.83L10.93,20.82L10.92,20.81L10.92,20.8L10.92,20.8L10.91,20.8L10.9,20.79L10.9,20.79L10.9,20.79L10.9,20.79L10.9,20.79L10.89,20.78L10.88,20.78L10.88,20.78L10.87,20.77L10.87,20.77L10.86,20.78L10.86,20.77L10.86,20.77L10.86,20.77L10.86,20.76L10.85,20.76L10.85,20.76L10.85,20.76L10.85,20.76L10.84,20.76L10.85,20.77L10.84,20.77L10.84,20.77L10.84,20.77L10.83,20.76L10.83,20.76L10.83,20.75L10.83,20.74L10.83,20.74L10.86,20.76L10.9,20.78L10.91,20.79L10.93,20.81L10.94,20.82L10.94,20.83L10.94,20.83L10.94,20.84L10.93,20.84zM16.03,20.49L16.02,20.49L16,20.48L15.98,20.46L15.97,20.45L15.96,20.45L15.96,20.43L15.96,20.43L15.98,20.42L15.98,20.42L15.99,20.42L15.98,20.43L15.97,20.43L15.97,20.44L15.98,20.45L15.99,20.47L16.01,20.47L16.02,20.48L16.03,20.48L16.04,20.48L16.04,20.49L16.05,20.48L16.06,20.48L16.06,20.47L16.06,20.47L16.07,20.46L16.07,20.46L16.08,20.46L16.08,20.45L16.08,20.46L16.05,20.49L16.04,20.49L16.04,20.49L16.03,20.49zM16.08,20.45L16.09,20.46L16.08,20.46L16.08,20.45L16.08,20.45L16.08,20.45L16.08,20.45L16.08,20.45L16.08,20.45L16.08,20.45zM16.11,20.45L16.09,20.45L16.08,20.45L16.08,20.45L16.09,20.45L16.11,20.44L16.11,20.44L16.11,20.44L16.12,20.44L16.13,20.43L16.13,20.44L16.13,20.44L16.13,20.44L16.11,20.45zM16.13,20.44L16.13,20.43L16.13,20.43L16.13,20.43L16.13,20.43L16.14,20.43L16.14,20.43L16.15,20.43L16.15,20.43L16.15,20.42L16.15,20.42L16.15,20.41L16.15,20.41L16.15,20.4L16.15,20.4L16.16,20.4L16.16,20.4L16.16,20.4L16.16,20.39L16.17,20.39L16.16,20.39L16.16,20.39L16.16,20.39L16.16,20.39L16.16,20.39L16.16,20.39L16.15,20.39L16.15,20.39L16.15,20.39L16.13,20.38L16.12,20.38L16.11,20.37L16.11,20.37L16.09,20.37L16.09,20.37L16.08,20.38L16.08,20.38L16.08,20.37L16.1,20.37L16.12,20.37L16.15,20.38L16.16,20.39L16.16,20.39L16.16,20.39L16.17,20.39L16.16,20.4L16.16,20.41L16.16,20.43L16.15,20.43L16.15,20.44L16.14,20.44L16.13,20.44zM16.13,20.44L16.13,20.43L16.13,20.43L16.13,20.43L16.13,20.44L16.13,20.44L16.13,20.44L16.13,20.44L16.13,20.44zM16.13,20.43L16.13,20.43L16.13,20.43L16.13,20.43zM15.99,20.42L15.99,20.42L15.99,20.42L15.99,20.42L15.99,20.41L15.99,20.42zM15.99,20.42L15.98,20.42L15.99,20.42L15.99,20.42L15.99,20.42zM15.99,20.42L15.99,20.41L15.99,20.41L15.99,20.42L15.99,20.41L16,20.41L16,20.42L16,20.42L15.99,20.42L16,20.42L15.99,20.42L15.99,20.42zM16,20.41L16,20.41L16,20.41L16,20.42L16,20.42L16,20.42L16,20.41zM16,20.41L16,20.41L16,20.41L16,20.42L16,20.42L16,20.41zM16,20.41L16,20.41L16.01,20.41L16.01,20.41L16.01,20.42L16.01,20.41L16,20.41zM16.01,20.41L16.01,20.41L16.02,20.4L16.02,20.41L16.01,20.41L16.01,20.41zM16.02,20.41L16.02,20.4L16.02,20.4L16.02,20.4L16.02,20.4L16.03,20.4L16.03,20.41L16.03,20.41L16.02,20.41L16.02,20.41L16.02,20.41zM16.03,20.4L16.03,20.4L16.03,20.4L16.03,20.4L16.04,20.39L16.04,20.4L16.05,20.4L16.04,20.4L16.04,20.4L16.03,20.41L16.03,20.4zM16.05,20.4L16.04,20.39L16.05,20.39L16.05,20.39L16.06,20.39L16.05,20.4L16.05,20.4L16.05,20.4L16.05,20.4zM16.04,20.39L16.05,20.4L16.05,20.4L16.04,20.39zM16.06,20.39L16.06,20.39L16.05,20.39L16.06,20.39L16.06,20.39L16.06,20.38L16.06,20.39L16.06,20.39L16.06,20.39L16.06,20.39L16.06,20.39zM16.06,20.39L16.06,20.39L16.06,20.38L16.06,20.38L16.06,20.39L16.06,20.39zM16.06,20.39L16.06,20.38L16.06,20.38L16.07,20.38L16.07,20.38L16.07,20.38L16.07,20.38L16.07,20.39L16.07,20.39L16.07,20.38L16.07,20.39L16.06,20.39zM16.08,20.38L16.08,20.38L16.08,20.37L16.08,20.38L16.08,20.38L16.08,20.38zM18.17,20.33L18.14,20.33L18.12,20.33L18.11,20.32L18.11,20.32L18.09,20.3L18.09,20.3L18.09,20.29L18.1,20.28L18.12,20.27L18.13,20.26L18.14,20.26L18.14,20.26L18.15,20.27L18.18,20.31L18.18,20.32L18.18,20.32L18.17,20.32L18.17,20.33zM19.3,18.67L19.3,18.66L19.31,18.66L19.32,18.66L19.32,18.67L19.32,18.67L19.32,18.68L19.31,18.68L19.31,18.67L19.3,18.67zM11.75,18.4L11.75,18.39L11.75,18.39L11.75,18.38L11.76,18.38L11.76,18.39L11.77,18.39L11.76,18.39L11.76,18.4L11.75,18.4zM17.52,18.36L17.52,18.36L17.53,18.36L17.54,18.36L17.54,18.37L17.54,18.38L17.53,18.38L17.53,18.38L17.52,18.36L17.52,18.36zM18.48,17.3L18.49,17.3L18.49,17.3L18.49,17.32L18.5,17.35L18.5,17.36L18.51,17.38L18.51,17.39L18.5,17.39L18.48,17.4L18.48,17.39L18.47,17.39L18.47,17.36L18.47,17.34L18.47,17.31L18.47,17.31L18.47,17.3L18.48,17.3zM17.09,16.67L17.1,16.66L17.1,16.66L17.1,16.66L17.1,16.67L17.11,16.68L17.11,16.68L17.12,16.7L17.12,16.7L17.14,16.7L17.14,16.7L17.15,16.69L17.16,16.7L17.17,16.7L17.2,16.7L17.21,16.71L17.23,16.71L17.25,16.73L17.27,16.75L17.28,16.76L17.28,16.77L17.29,16.77L17.3,16.77L17.3,16.77L17.3,16.77L17.3,16.77L17.3,16.77L17.3,16.77L17.3,16.77L17.3,16.76L17.3,16.76L17.3,16.75L17.3,16.74L17.29,16.74L17.29,16.73L17.29,16.73L17.28,16.71L17.28,16.7L17.28,16.69L17.28,16.69L17.28,16.68L17.27,16.68L17.27,16.67L17.27,16.66L17.26,16.65L17.26,16.64L17.25,16.64L17.25,16.64L17.24,16.63L17.24,16.63L17.23,16.63L17.22,16.63L17.22,16.62L17.21,16.62L17.21,16.62L17.21,16.62L17.21,16.62L17.2,16.61L17.2,16.61L17.2,16.61L17.19,16.6L17.17,16.58L17.16,16.58L17.16,16.57L17.15,16.57L17.15,16.57L17.14,16.57L17.13,16.57L17.13,16.56L17.13,16.56L17.12,16.56L17.1,16.56L17.1,16.56L17.09,16.56L17.09,16.56L17.09,16.57L17.09,16.57L17.09,16.57L17.09,16.57L17.09,16.58L17.09,16.58L17.09,16.58L17.09,16.58L17.1,16.59L17.09,16.6L17.09,16.59L17.09,16.59L17.08,16.59L17.08,16.6L17.08,16.61L17.09,16.61L17.09,16.61L17.09,16.61L17.09,16.61L17.09,16.62L17.09,16.62L17.09,16.63L17.09,16.63L17.09,16.64L17.09,16.64L17.09,16.64L17.09,16.64L17.09,16.64L17.09,16.65L17.09,16.65L17.08,16.64L17.08,16.63L17.09,16.63L17.09,16.62L17.09,16.62L17.08,16.62L17.08,16.62L17.08,16.61L17.08,16.61L17.08,16.61L17.07,16.6L17.08,16.59L17.08,16.56L17.08,16.55L17.08,16.55L17.09,16.55L17.11,16.55L17.13,16.55L17.14,16.56L17.17,16.57L17.18,16.58L17.2,16.61L17.22,16.61L17.24,16.63L17.26,16.63L17.26,16.64L17.27,16.65L17.27,16.66L17.29,16.69L17.29,16.71L17.29,16.72L17.3,16.74L17.3,16.75L17.31,16.76L17.31,16.77L17.31,16.78L17.31,16.78L17.3,16.78L17.29,16.77L17.27,16.76L17.27,16.76L17.25,16.74L17.24,16.73L17.22,16.72L17.2,16.71L17.18,16.7L17.15,16.7L17.14,16.7L17.11,16.7L17.11,16.7L17.1,16.68L17.1,16.68L17.09,16.67zM17.1,16.66L17.1,16.65L17.1,16.65L17.1,16.65L17.1,16.65L17.1,16.65L17.1,16.66z"/>
	</g>
</svg>