<?xml version="1.0" encoding="utf-8"?>
<!-- (c) ammap.com | SVG map of Mongolia - Low -->
<svg xmlns="http://www.w3.org/2000/svg" xmlns:amcharts="http://amcharts.com/ammap" xmlns:xlink="http://www.w3.org/1999/xlink" version="1.1">
	<defs>
		<style type="text/css">
			.land
			{
				fill: #CCCCCC;
				fill-opacity: 1;
				stroke:white;
				stroke-opacity: 1;
				stroke-width:0.5;
			}
		</style>

		<amcharts:ammap projection="mercator" leftLongitude="87.747116" topLatitude="52.153412" rightLongitude="119.938631" bottomLatitude="41.565304"></amcharts:ammap>

		<!-- All areas are listed in the line below. You can use this list in your script. -->
		<!--{id:"MN-1"},{id:"MN-035"},{id:"MN-037"},{id:"MN-039"},{id:"MN-041"},{id:"MN-043"},{id:"MN-046"},{id:"MN-047"},{id:"MN-049"},{id:"MN-051"},{id:"MN-053"},{id:"MN-055"},{id:"MN-057"},{id:"MN-059"},{id:"MN-061"},{id:"MN-063"},{id:"MN-064"},{id:"MN-065"},{id:"MN-067"},{id:"MN-069"},{id:"MN-071"},{id:"MN-073"}-->

	</defs>
	<g>
		<path id="MN-1" title="Ulaanbaatar" class="land" d="M486.188,415.134l-1.579,0.644l-1.462,-0.526l-0.994,-3.451l1.11,-0.877l1.579,-0.059l1.053,0.819l0.878,1.111l0.116,1.053L486.188,415.134zM510.734,392.558l-0.07,7.52l-1.229,4.123l-1.883,2.468l0,0l-2.767,-1.184l-1.537,-5.293l-0.13,-4.149l1.141,-2.808l1.315,-1.491l1.579,-0.614l2.193,0.351L510.734,392.558zM470.186,382.962l1.472,0.061l4.465,-1.652l1.169,2.269l4.556,6.172l1.047,0.751l3.793,1.103l1.07,0.912l0.118,1.121l-1.63,8.434l-0.817,1.891l-2.748,0.526l-2.69,-0.526l-1.346,-1.345l-1.375,-2.324l-1.81,-1.006l-3.489,-0.242l-6.558,0.875l-2.9,-0.884l-0.793,-0.632l-0.357,-1.246l-0.001,-2.866l-0.749,-2.36l-0.946,-1.369l-0.201,-4.803l-1.624,-5.86l10.292,2.175L470.186,382.962z"/>
		<path id="MN-035" title="Orhon" class="land" d="M412.642,348.431L413.874,351.397L413.714,352.498L411.461,354.67L409.161,356.151L409.161,356.151L405.804,354.396L399.876,352.877L399.89,350.861L402.396,347.844L406.834,349.362L408.283,347.893L409.146,347.522L410.782,347.58z"/>
		<path id="MN-037" title="Darhan uul" class="land" d="M452.515,322.688L449.197,326.494L449.197,327.723L450.062,329.157L452.024,329.804L456.039,332.127L458.071,332.676L459.162,332.449L460.105,331.649L461.539,329.585L466.858,331.872L468.246,333.247L468.852,336.139L468.285,342.475L468.729,347.452L463.868,349.115L459.829,347.439L458.66,346.586L457.852,345.412L454.472,346.135L450.666,348.769L444.986,349.303L443.846,348.776L443.583,345.53L445.074,338.775L444.986,335.004L445.811,332.173L445.106,329.659L445.131,326.599L449.109,322.195L451.479,318.336L452.97,317.459L454.197,318.511L454.022,320.529z"/>
		<path id="MN-039" title="Hentiy" class="land" d="M507.553,406.668L509.436,404.2L510.664,400.077L510.734,392.558L510.734,392.558L514.679,390.988L518.538,387.496L520.01,386.63L520.695,385.403L521.604,382.168L523.325,379.71L523.843,377.59L523.32,374.5L519.319,359.233L516.445,353.361L511.115,347.745L511.115,347.745L511.465,343.91L512.405,339.78L512.405,339.78L515.832,339.698L517.631,339.192L519.909,339.537L522.041,338.891L523.935,339.771L528.271,338.831L532.148,340.02L534.815,341.579L535.509,343.354L536.169,343.91L541.503,343.865L543.643,345.217L544.715,344.516L548.725,345.066L552.956,346.207L555.535,345.201L557.325,342.692L559.372,344.769L560.796,345.043L562.168,346.312L563.657,346.769L566.351,346.951L570.995,345.479L575.371,341.662L579.979,339.863L581.443,338.364L584.451,339.484L589.201,337.198L592.252,337.699L595.864,337.271L595.864,337.271L599.727,339.682L600.81,340.955L601.583,347.617L603.896,352.471L603.728,353.92L602.625,356.356L602.542,357.706L603.931,361.719L609.593,372.352L610.017,375.183L609.295,380.359L610.083,386.245L611.677,391.986L613.786,396.953L613.786,396.953L609.771,397.127L606.77,398.058L599.57,402.398L598.574,404.255L597.975,407.984L597.908,411.643L598.379,414.322L591.613,412.02L588.771,413.864L585.652,416.619L583.605,420.799L582.768,425.936L581.988,427.564L581.444,430.59L581.784,433.193L579.496,435.409L578.026,438.357L577.855,441.704L578.555,445.935L577.751,449.462L576.213,453.164L576.213,453.164L575.007,454.785L571.525,458.191L571.06,459.242L568.857,459.127L561.396,457.676L560.208,453.639L557.092,448.149L553.948,444.707L551.001,440.304L548.159,439.199L547.161,440.159L547.761,444.757L547.59,445.797L545.403,450.667L542.313,453.789L538.213,456.342L536.207,455.619L531.372,455.408L529.762,454.842L527.048,451.793L525.46,447.647L521.878,444.908L521.878,444.908L522.355,442.273L522.065,437.488L522.985,432.552L522.556,431.778L520.868,430.674L519.955,428.51L518.472,426.43L518.472,426.43L516.243,424.8L514.559,422.616L512.974,417.88L511.586,415.563L510.759,412.995L508.449,409.077z"/>
		<path id="MN-041" title="Hövsgöl" class="land" d="M276.544,231.643L278.021,233.719L283.549,235.793L284.081,237.583L284.732,238.129L288.134,238.672L290.595,239.785L293.245,240.025L294.731,240.517L296.131,241.688L297.642,243.943L299.783,245.663L301.274,246.403L304.502,246.117L308.297,246.727L310.594,246.557L312.45,246.911L314.122,246.519L316.056,247.767L318.081,247.94L319.92,249.485L321.263,249.857L322.736,250.886L324.647,251.431L326.858,253.246L328.59,253.666L329.56,254.716L331.957,254.595L335.325,258.056L335.954,258.107L337.028,256.866L337.819,256.468L340.255,256.422L342.205,258.319L344.364,257.949L347.092,259.507L349.036,259.391L350.544,260.518L352.697,260.645L355.889,263.394L355.826,264.093L354.64,265.011L354.368,265.693L355.039,267.425L354.856,270.229L355.424,273.22L357.213,277.365L356.26,280.539L356.172,282.198L356.915,283.509L358.902,285.104L359.461,286.145L357.862,289.605L357.884,291.15L358.535,292.167L360.583,293.446L363.694,294.146L365.009,296.587L367.262,298.64L367.262,298.64L362.952,301.012L360.925,303.096L359.492,307.508L356.775,310.401L353.907,314.406L353.183,316.658L353.65,317.908L355.402,319.028L366.382,323.556L368.375,324.709L369.955,326.34L367.114,328.376L364.419,328.18L363.434,328.557L361.188,333.281L359.131,335.358L357.557,336.17L350.103,338.379L347.005,341.17L345.864,342.983L343.898,343.619L342.705,345.157L341.67,348.118L341.654,349.692L342.423,353.777L342.423,353.777L338.309,354.255L335.32,353.682L332.793,351.776L323.25,347.497L318.725,344.705L317.424,348.376L313.153,352.444L316.17,353.903L317.192,355.245L312.82,357.832L310.726,362.455L310.276,364.628L310.354,366.164L310.893,367.489L313.154,370.668L307.45,371.744L306.744,372.478L306.386,374.56L305.092,375.166L303.036,374.705L299.939,372.773L296.201,371.525L296.108,373.911L295.029,377.403L294.187,378.53L292.548,379.184L283.373,380.766L278.655,378.521L278.655,378.521L279.338,375.524L278.601,370.819L278.7,368.936L279.338,366.495L282.127,361.376L280.762,355.094L280.436,350.021L279.63,348.127L276.137,348.432L273.408,348.171L272.253,348.492L271.442,349.223L271.19,351.138L270.492,351.938L265.817,354.831L263.985,353.795L262.644,352.298L261.542,351.77L257.417,351.774L254.483,352.882L249.674,352.433L248.769,352.11L244.977,348.662L240.282,346.325L235.541,345.576L231.939,346.133L229.458,342.692L226.023,340.198L224.601,338.551L224.552,333.261L229.793,327.479L230.783,324.179L231.008,321.16L231.008,321.16L232.076,323.001L235.396,323.84L238.666,322.384L242.451,319.112L242.659,318.581L241.945,317.23L241.972,316.579L244.21,316.538L247.158,315.063L247.982,316.431L249.133,316.442L250.117,314.773L251.028,314.322L251.555,313.448L253.287,312.874L254.841,311.1L256.449,306.784L258.481,304.823L259.063,302.65L258.538,298.842L259.337,297.083L260.174,293.583L258.737,292.535L255.802,291.915L253.423,289.508L252.666,287.637L251.585,286.393L251.115,284.505L251.54,283.162L252.701,281.803L252.705,281.199L248.956,277.977L248.828,277L248,275.879L248.218,274.971L248.965,274.247L249.952,269.297L251.077,266.954L250.865,263.386L253.409,258.864L254.685,258.055L256.958,258.291L257.987,257.903L258.691,255.598L258.14,253.786L259.48,250.57L259.98,247.806L261.269,246.726L264.405,245.912L265.704,245L267.509,244.706L269.354,243.742L270.901,240.717L272.371,236.056L273.202,234.956L273.883,231.001L274.209,230.624L275.39,230.528z"/>
		<path id="MN-043" title="Hovd" class="land" d="M88.302,364.617L92.647,360.608L96.427,355.488L99.205,354.11L103.171,353.549L102.966,355.979L103.564,359.703L104.769,360.618L107.302,360.479L108.325,360.848L110.316,366.479L116.238,366.533L120.583,367.423L123.135,368.677L124.875,368.867L126.435,368.261L128.54,366.161L129.881,365.925L131.24,366.133L133.361,367.513L134.908,370.901L135.91,372.303L137.474,373.227L139.759,373.79L139.759,373.79L141.075,375.97L141.248,377.428L139.571,383.767L137.86,386.518L133.678,390.671L136.654,395.498L144.31,402.142L144.31,402.142L142.469,405.567L146.077,408.105L149.19,412.633L150.991,413.597L152.996,414.149L154.527,415.108L156.944,422.095L159.874,428.327L161.877,431.24L163.947,432.892L159.347,435.377L153.969,435.693L152.452,436.163L148.899,440.297L148.037,441.814L145.429,439.588L141.975,438.769L142.835,441.522L144.586,445.085L144.828,446.204L144.609,447.937L139.749,458.167L138.443,465.313L137.047,466.537L132.14,469.597L131.161,471.588L131.619,474.507L132.933,478.277L133.011,488.088L134.41,496.186L134.41,496.186L133.728,496.003L132.112,496.327L130.91,495.71L117.247,496.002L115.309,495.611L114.552,494.859L113.816,494.673L111.053,494.637L108.822,495.289L106.486,494.164L104.99,493.944L98.849,493.963L96.022,494.381L93.379,493.797L91.317,491.338L90.138,491.705L89.42,492.706L87.132,492.252L85.703,491.47L83.239,489.326L80.525,489.22L78.648,490.009L76.993,489.679L77.401,487.224L76.49,486.189L75.382,486.392L74.965,483.168L73.8,480.956L72.235,479.501L71.703,478.339L71.954,476.111L72.673,474.113L72.701,471.592L74.301,469.429L76.634,464.916L80.468,460.803L80.433,459.339L80.08,458.724L80.571,457.603L78.414,454.277L78.72,452.858L77.807,450.556L78.79,449.616L79.46,448.281L81.889,441.342L81.683,440.859L80.658,440.322L81.473,436.108L81.473,436.108L81.295,435.656L86.585,437.78L87.181,438.417L88.411,441.259L90.128,442.136L91.772,441.723L93.981,439.56L99.089,439.459L100.92,439.08L102.792,436.386L95.616,431.932L92.589,429.499L91.147,427.717L90.858,425.048L91.511,421.023L91.013,418.265L88.747,416.371L87.104,413.609L85.817,412.408L86.427,406.604L85.911,405.194L84.404,402.938L84.181,399.542L82.82,398.908L82.014,397.915L81.428,395.242L79.607,390.257L78.578,388.354L76.915,386.445L76.413,385.024L75.491,378.329L75.9,374.184L75.461,370L75.047,368.682L73.071,365.843L73.57,365.344L78.63,366.158L81.155,365.062L83.467,363.469L84.827,363.061L86.248,363.408z"/>
		<path id="MN-046" title="Uvs" class="land" d="M116.745,284.943L119.413,285.089L119.78,285.784L119.652,287.426L120.795,287.651L122.991,287.32L123.049,285.532L124.729,284.206L127.236,284.072L129.418,284.425L130.002,285.242L129.342,286.463L129.422,287.584L128.759,289.301L128.942,290.938L129.925,292.071L130.964,292.105L132.379,292.994L139.101,292.113L140.749,291.478L142.038,292.259L144.893,292.097L145.668,292.409L152.734,291.892L160.595,292.507L161.266,293.402L161.471,295.45L162.377,296.771L163.813,306.423L164.23,307.025L166.369,308.12L166.872,309.972L168.528,312.154L168.777,313.124L170.216,313.495L173.952,312.306L177.523,312.245L178.336,312.752L179.439,315.294L181.32,316.507L186.625,316.453L190.852,317.589L190.852,317.589L190.64,320.393L188.533,325.34L189.748,332.383L190.579,334.183L192.956,335.801L196.267,338.921L194.711,343.58L192.927,345.474L192.087,347.835L191.612,350.406L191.338,356.584L190.736,357.987L189.451,359.037L186.481,359.032L181.711,363.264L179.438,364.006L171.683,364.401L171.223,362.895L166.992,362.982L163.213,362.445L158.886,360.626L156.184,360.254L153.757,362.277L147.418,364.868L146.046,366.856L145.624,369.894L141.823,371.537L139.759,373.79L139.759,373.79L137.474,373.227L135.91,372.303L134.908,370.901L133.361,367.513L131.24,366.133L129.881,365.925L128.54,366.161L126.435,368.261L124.875,368.867L123.135,368.677L120.583,367.423L116.238,366.533L110.316,366.479L108.325,360.848L107.302,360.479L104.769,360.618L103.564,359.703L102.966,355.979L103.171,353.549L99.205,354.11L96.427,355.488L92.647,360.608L88.302,364.617L88.302,364.617L87.709,360.115L86.951,357.698L84.953,354.47L83.03,353.301L80.5,350.908L79.878,348.387L77.44,341.933L75.66,340.891L73.765,341.19L71.796,339.666L69.849,336.109L69.857,334.584L67.756,330.403L65.167,327.752L61.255,325.21L59.809,322.728L58.401,316.789L57.319,315.516L55.114,314.407L55.114,314.407L57.506,313.162L60.06,313.246L61.875,314.003L62.446,313.368L62.847,311.3L64.435,309.079L68.713,307.812L71.561,308.35L71.991,308.167L72.189,306.453L73.89,305.438L74.434,304.396L74.442,303.557L73.684,302.257L72.431,302.471L71.81,301.701L72.555,297.527L73.525,295.88L75.266,296.815L78.634,296.311L82.146,297.096L83.405,297.038L86.304,296.012L90.539,297.044L91.023,296.283L91.024,295.264L90.58,294.397L90.822,293.612L92.475,292.955L94.587,293.08L95.867,292.464L96.216,291.88L96.115,289.247L97.463,287.931L98.239,287.639L98.596,286.891L100.244,286.833L100.551,286.337L101.002,286.302L105.146,288.32L108.126,288.417L109.402,288.27L110.094,287.554L111.371,287.053L112.092,285.972L111.643,283.47L112.589,280.447L112.954,280.189L113.96,280.18L114.444,280.583L114.719,283.199z"/>
		<path id="MN-047" title="Töv" class="land" d="M511.115,347.745l5.33,5.616l2.874,5.872l4.001,15.267l0.522,3.09l-0.518,2.12l-1.721,2.458l-0.909,3.235l-0.686,1.227l-1.472,0.866l-3.859,3.492l-3.944,1.569l0,0l-1.387,-1.078l-2.193,-0.351l-1.579,0.614l-1.315,1.491l-1.141,2.808l0.13,4.149l1.537,5.293l2.767,1.184l0,0l0.896,2.409l2.31,3.918l0.827,2.567l1.388,2.317l1.585,4.736l1.685,2.184l2.229,1.63l0,0l-1.518,3.061l-1.185,1.24l-5.677,2.875l-6.804,-1.113l-2.169,0.023l-2.78,0.646l-1.12,0.656l0,0l-2.479,0.478l-0.602,5.539l-0.857,1.259l-4.086,1.037l-2.317,2.824l-4.188,1.635l-6.516,0.465l-1.529,-0.994l-3.509,-3.396l-1.547,-0.879l-3.31,-0.747l-13.177,-0.077l-0.919,-1.438l-3.974,-1.481l-2.699,-2.229l-1.312,-0.529l-3.496,0.852l-4.528,6.052l-1.951,3.612l-4.2,-3.107l-6.379,-2.295l-2.167,2.791l-5.546,4.69l0,0l-2.277,-2.422l-3.557,-2.517l-0.454,-0.879l-0.395,-5.31l-1.426,-2.801l-2.199,-2.929l1.628,-1.598l1.132,-0.323l0.18,-3.305l-0.621,-1.539l-3.674,-3.896l-0.773,-3.22l-0.009,-2.166l0,0l0.609,-1.172l-0.01,-0.963l-1.873,-2.208l-0.669,-1.828l2.155,-2.05l4.27,-2.542l3.862,-0.181l1.007,-1.958l5.73,-0.301l-1.504,-5.676l-0.194,-2.861l0.499,-0.492l-0.193,-1.313l-0.668,-0.302l-0.497,0.271l-3.979,-0.36l-2.495,-1.204l-0.365,-2.71l-2.219,-2.993l2.752,-5.692l2.393,-1.977l0.462,-0.844l0.561,-3.199l-0.265,-6.093l0,0l10.638,4.126l2.438,0.268l2.643,-1.468l2.532,-0.616l5.533,-3.002l-1.229,-4.168l1.646,-1.272l1.782,-1.09l6.159,-1.684l3.216,0.788l1.202,1.109l0.302,1.844l-0.927,2.843l0.703,0.721l1.265,0.783l2.531,-1.461l6.825,3.614l0.728,1.058l2.313,1.141l3.056,0.501l1.576,-0.591l2.799,-2.485l2.56,-0.021l3.331,-0.644l1.984,0.578l1.445,1.64l4.417,-1.451l2.239,-1.222l2.29,0.109l0.722,-0.479l2.115,-5.765l-0.011,-1.483l-0.516,-0.747l-2.754,-1.643l-1.649,-2.868l3.528,-2.977l2.941,-0.781l2.802,0.075l2.097,0.793l2.332,1.66l1.908,-1.907l3.318,-1.79L511.115,347.745zM461.36,394.352l0.113,3.521l1.038,1.223l2.9,0.884l6.558,-0.875l3.489,0.242l1.81,1.006l1.375,2.324l1.346,1.345l2.69,0.526l2.748,-0.526l0.817,-1.891l1.63,-8.434l-0.118,-1.121l-1.07,-0.912l-3.793,-1.103l-1.047,-0.751l-4.556,-6.172l-1.169,-2.269l-5.353,1.727l-2.638,-0.963l-10.292,-2.175l1.624,5.86l0.201,4.803l0.604,0.799L461.36,394.352zM486.773,412.795l-1.931,-1.931l-1.579,0.059l-1.11,0.877l0.994,3.451l1.462,0.526l1.579,-0.644l0.701,-1.286L486.773,412.795z"/>
		<path id="MN-049" title="Selenge" class="land" d="M441.017,298.099l3.553,-0.173l2.505,0.942l3.16,-0.049l0.808,0.687l0.296,1.648l4.605,2.125l4.867,-1.59l2.22,-0.385l4.688,0.985l5.135,3.813l0.812,1.292l1.746,4.51l1.87,1.949l1.438,0.236l1.629,0.812l1.362,-1.117l1.783,1.758l1.875,-0.259l2.582,0.897l3.063,0.098l0.585,-0.966l0.378,-0.052l2.741,2.336l2.968,0.048l-0.705,2.469l0.868,4.233l-1.066,1.629l0.162,0.926l0.617,0.493l1.039,-0.431l0.307,2.268l2.78,2.111l3.592,1.166l0.566,1.238l1.01,0.793l0.49,1.21l2.177,1.583l1.628,2.043l1.256,0.406l0,0l-0.94,4.13l-0.35,3.835l0,0l-5.428,0.615l-3.318,1.79l-1.908,1.907l-2.332,-1.66l-2.097,-0.793l-2.802,-0.075l-2.941,0.781l-3.528,2.977l1.649,2.868l2.754,1.643l0.516,0.747l0.011,1.483l-2.115,5.765l-0.722,0.479l-2.29,-0.109l-2.239,1.222l-4.417,1.451l-1.445,-1.64l-1.984,-0.578l-3.331,0.644l-2.56,0.021l-2.799,2.485l-1.576,0.591l-3.056,-0.501l-2.313,-1.141l-0.728,-1.058l-6.825,-3.614l-2.531,1.461l-1.265,-0.783l-0.703,-0.721l0.927,-2.843l-0.302,-1.844l-1.202,-1.109l-3.216,-0.788l-6.159,1.684l-1.782,1.09l-1.646,1.272l1.229,4.168l-5.533,3.002l-2.532,0.616l-2.643,1.468l-2.438,-0.268l-10.638,-4.126l0,0l-0.327,-3.967l0.71,-2.092l-4.078,-4.115l0,0l2.3,-1.481l2.253,-2.172l0.16,-1.101l-1.232,-2.967l0,0l1.854,-9.713l1.684,-4.616l0.232,-6.023l1.495,-1.532l-1.182,-2.08l-2.752,-3.036l-1.241,-2.066l-0.179,-4.093l1.647,-0.19l0.832,-0.832l-1.472,-1.544l-0.182,-1.974l-0.664,-1.859l-1.851,-2.559l-2.371,-2.24l0,0l0.411,-0.723l0.922,-0.427l2.502,-0.536l2.01,0.2l2.707,-1.53l2.918,-0.054l3.44,-1.67l4.001,0.212l1.492,-0.682l3.43,-2.61l1.677,-0.041l5.154,1.716L441.017,298.099zM451.238,348.591l3.233,-2.456l2.102,-0.627l1.278,-0.096l0.809,1.174l1.169,0.854l4.039,1.676l4.86,-1.663l-0.443,-4.978l0.566,-6.336l-0.305,-2.182l-0.616,-1.142l-2.799,-1.854l-3.593,-1.377l-0.883,1.421l-1.494,1.443l-1.884,0.096l-2.287,-0.927l-2.967,-1.814l-1.963,-0.646l-0.864,-1.435v-1.229l4.825,-5.965l0.175,-2.019l-1.228,-1.052l-1.491,0.877l-2.369,3.859l-3.979,4.403l-0.024,3.061l0.704,2.514l-0.824,2.831l0.088,3.771l-1.491,6.755l0.263,3.246l1.141,0.526L451.238,348.591z"/>
		<path id="MN-051" title="Sühbaatar" class="land" d="M613.786,396.953l1.214,7.984l2.892,-1.104l2.157,-0.313l2.121,0.482l3.223,1.334l12.543,1.833l3.61,1.787l3.653,3.534l2.372,1.474l2.534,2.432l7.581,4.623l-1.51,5.993l-0.006,2.924l0.538,1.879l1.394,1.743l5.05,3.578l1.58,2.436l3.36,3.995l8.977,-1.675l7.321,0.187l5.075,-1.619l11.324,0.028l1.238,0.535l0.871,0.935l5.729,11.25l0,0l-2.971,3.761l-1.274,0.93l-0.283,1.065l-2.519,4.146l-0.171,2.404l0.729,1.91l-0.276,2.35l-0.868,0.794l-0.365,1.218l-1.376,0.889l-1.922,-0.15l-0.597,0.257l-3.221,2.235l-2.269,2.412l-1.888,1.4l-1.086,2.256l-3.48,0.262l-5.916,1.672l-3.677,-0.217l-4.669,0.842l-0.003,-1.276l-2.119,-0.209l-3.986,-1.587l-2.667,0.775l-2.332,1.134l-0.875,0.845l-0.593,3.069l-2.701,4.214l-8.135,7.408l-1.938,0.943l-2.837,2.178l-1.554,0.482l-4.126,3.589l-3.953,-1.16l-0.036,-0.493l-5.383,0.081l-3.002,-0.353l-2.624,-1.211l-1.165,-0.104l-1.639,-0.948l-1.536,0.147l-0.855,-0.424l-1.51,-0.057l-4.258,-2.77l-2.038,-2.76l-1.731,-0.944l-11.689,-0.923l0,0l-0.724,-3.762l0.354,-2.76l-0.231,-1.094l-2.622,-3.589l-1.31,-2.881l-1.747,-1.482l0.768,-6.854l-0.227,-5.375l-0.646,-2.753l-1.383,-3.304l-1.213,-1.42l-5.15,-2.778l-4.9,-2.075l0,0l1.538,-3.702l0.804,-3.527l-0.699,-4.23l0.171,-3.347l1.47,-2.948l2.288,-2.216l-0.34,-2.604l0.544,-3.025l0.779,-1.629l0.838,-5.137l2.047,-4.18l3.119,-2.755l2.842,-1.845l6.766,2.303l-0.471,-2.68l0.066,-3.658l0.6,-3.729l0.996,-1.856l7.199,-4.341l3.002,-0.931L613.786,396.953z"/>
		<path id="MN-053" title="Omnögovĭ" class="land" d="M394.508,490.473L400.031,490.075L402.521,489.321L403.978,493.081L406.055,501.413L407.817,503.487L410.016,504.514L423.194,507.831L430.484,507.033L436.925,507.512L438.461,511.364L441.915,516.344L443.367,520.163L447.416,523.693L449.208,524.556L452.32,524.529L456.285,523.312L458.361,521.509L461.491,520.202L463.342,518.768L468.598,515.993L480.806,513.093L485.255,513.908L490.589,511.754L490.589,511.754L489.657,519.896L493.353,527.589L494.635,533.553L497.264,542.01L496.715,549.017L496.711,554.32L498.457,558.911L499.112,566.333L497.828,578.309L497.887,583.591L497.538,583.713L497.538,583.713L496.128,584.151L487.314,583.655L486.469,582.358L484.818,582.494L480.934,584.308L480.233,585.988L479.847,586.132L465.893,589.213L449.297,597.184L444.192,599.186L431.992,606.523L431.175,606.271L425.313,612L423.108,609.455L417.272,609.463L412.998,608.888L413.238,601.617L400.472,604.013L396.473,604.113L383.178,600.838L374.661,596.929L368.831,593.357L363.873,592.954L360.848,593.146L352.204,590.561L346.139,582.104L323.975,576.418L309.467,575.122L308.39,576.874L301.312,576.313L291.516,578.368L291.516,578.368L291.486,573.302L290.982,568.921L288.877,556.867L287.928,547.416L287.913,535.929L287.089,529.565L287.258,528.203L288.155,527.138L293.174,525.806L294.965,525.607L296.854,526.14L301.947,529.584L307.504,536.052L308.622,536.664L311.042,537.091L316.544,536.365L330.366,536.351L333.297,535.86L340.011,532.429L344.418,530.897L345.919,529.064L345.919,529.064L351.95,526.951L359.764,525.523L375.208,525.354L373.725,521.635L373.769,519.735L374.454,518.143L376.092,515.853L377.848,510.539L380.564,505.479L381.291,503.236L383.279,502.309L384.314,500.094L388.678,497.924L390.046,496.858L392.675,493.917L394.351,491.313z"/>
		<path id="MN-055" title="Ovörhangay" class="land" d="M333.139,431.966L336.187,431.233L341.515,431.076L345.827,430.535L346.9,429.853L347.775,428.155L348.921,427.087L356.311,424.899L358.534,425.103L360.949,427.54L362.131,428.276L363.237,427.465L363.802,426.507L364.378,422.919L365.119,421.09L367.183,419.422L368.461,417.075L368.445,415.691L366.81,413.746L366.427,412.456L367.006,411.312L368.217,410.8L369.288,411.995L372.073,412.557L373.816,413.901L376.279,414.547L379.235,417.713L381.042,418.598L384.78,419.075L388.032,418.985L390.639,418.093L391.928,416.688L391.928,416.688L394.583,416.208L396.561,416.433L398.67,416.177L403.488,414.974L403.488,414.974L403.497,417.14L404.271,420.359L407.944,424.256L408.565,425.795L408.386,429.1L407.254,429.423L405.626,431.021L407.825,433.949L409.251,436.75L409.646,442.06L410.1,442.938L413.656,445.455L415.934,447.877L415.934,447.877L415.225,452.333L413.507,456.324L411.303,457.172L407.458,456.938L405.769,461.045L404.62,462.491L403.218,468.407L402.524,469.622L401.247,470.293L399.76,470.49L395.116,470.15L393.473,470.906L391.052,473.248L390.39,476.066L391.042,479.941L393.297,483.24L394.343,483.547L394.801,484.359L394.437,486.891L394.508,490.473L394.508,490.473L394.351,491.313L392.675,493.917L390.046,496.858L388.678,497.924L384.314,500.094L383.279,502.309L381.291,503.236L380.564,505.479L377.848,510.539L376.092,515.853L374.454,518.143L373.769,519.735L373.725,521.635L375.208,525.354L359.764,525.523L351.95,526.951L345.919,529.064L345.919,529.064L345.034,527.053L343.324,519.011L341.558,512.774L339.324,508.444L339.703,504.099L340.705,502.704L340.229,501.624L335.958,498.391L331.645,496.816L330.623,495.399L329.448,492.421L329.542,481.156L330.082,479.644L332.018,476.927L332.039,474.567L333.384,472.298L334.008,469.584L333.123,464.133L333.171,460.634L334.018,458.744L337.189,456.417L338.148,454.648L338.276,447.842L338.98,445.234L337.866,442.229L338.266,440.767L336.129,437.55z"/>
		<path id="MN-057" title="Dzavhan" class="land" d="M201.865,315.262L202.865,315.165L203.769,314.292L204.828,313.852L208.232,314.992L210.219,314.932L210.65,316.117L211.669,316.582L213.056,318.327L213.928,318.479L216.219,316.228L218.612,315.292L219.764,316.14L219.322,317.731L219.753,318.246L220.65,318.114L222.401,316.724L223.665,316.755L227.689,317.862L229.448,320.382L231.008,321.16L231.008,321.16L230.783,324.179L229.793,327.479L224.552,333.261L224.601,338.551L226.023,340.198L229.458,342.692L231.939,346.133L235.541,345.576L240.282,346.325L244.977,348.662L248.769,352.11L249.674,352.433L254.483,352.882L257.417,351.774L261.542,351.77L262.644,352.298L263.985,353.795L265.817,354.831L270.492,351.938L271.19,351.138L271.442,349.223L272.253,348.492L273.408,348.171L276.137,348.432L279.63,348.127L280.436,350.021L280.762,355.094L282.127,361.376L279.338,366.495L278.7,368.936L278.601,370.819L279.338,375.524L278.655,378.521L278.655,378.521L275.818,379.323L269.576,381.964L268.453,383.479L265.611,385.486L264.115,385.853L260.408,385.633L259.221,385.99L258.071,386.959L257.175,389.556L257.442,392.295L256.613,396.342L256.593,398.781L257.301,400.579L258.56,401.938L262.474,403.481L262.474,403.481L261.695,406.705L259.067,409.674L258.778,414.966L257.866,416.838L255.498,418.699L253.781,419.462L250.629,418.975L249.122,420.149L248.639,423.221L246.922,425.166L245.969,427.006L245.664,431.088L244.689,434.966L241.584,440.146L241.584,440.146L239.136,439.406L238.104,438.352L237.264,436.733L232.311,440.856L230.897,440.937L226.095,440.044L225.594,437.07L223.218,433.023L222.222,431.987L220.719,428.843L219.686,428.257L217.576,428.592L211.442,431.947L210.159,427.537L210.01,421.475L209.592,419.689L208.756,418.301L205.708,415.021L203.646,414.604L200.96,412.102L198.114,410.342L196.914,410.101L193.02,407.162L191.423,406.346L184.432,405.24L180.191,406.157L179.114,403.086L177.736,402.005L173.396,401.304L169.976,401.53L165.664,401.018L161.681,399.156L159.64,397.546L158.867,397.33L156.522,397.796L144.31,402.142L144.31,402.142L136.654,395.498L133.678,390.671L137.86,386.518L139.571,383.767L141.248,377.428L141.075,375.97L139.759,373.79L139.759,373.79L141.823,371.537L145.624,369.894L146.046,366.856L147.418,364.868L153.757,362.277L156.184,360.254L158.886,360.626L163.213,362.445L166.992,362.982L171.223,362.895L171.683,364.401L179.438,364.006L181.711,363.264L186.481,359.032L189.451,359.037L190.736,357.987L191.338,356.584L191.612,350.406L192.087,347.835L192.927,345.474L194.711,343.58L196.267,338.921L192.956,335.801L190.579,334.183L189.748,332.383L188.533,325.34L190.64,320.393L190.852,317.589L190.852,317.589L194.03,316.302L196.554,315.928L197.085,314.135L198.936,313.033L200.516,313.49L200.758,314.547z"/>
		<path id="MN-059" title="Dundgovĭ" class="land" d="M497.22,433.817L499.496,436.472L504.408,439.935L502.158,444.489L502.247,445.824L504.212,448.896L504.487,450.313L503.826,453.899L502.51,456.86L502.571,458.677L503.049,460.271L505.097,463.226L506.341,464.31L507.674,464.576L512.046,463.428L512.046,463.428L510.389,470.096L509.781,475.777L511.439,484.032L514.351,492.615L511.425,493.173L509.713,494.154L508.695,497.438L508.567,500.34L494.394,500.958L492.078,509.59L490.589,511.754L490.589,511.754L485.255,513.908L480.806,513.093L468.598,515.993L463.342,518.768L461.491,520.202L458.361,521.509L456.285,523.312L452.32,524.529L449.208,524.556L447.416,523.693L443.367,520.163L441.915,516.344L438.461,511.364L436.925,507.512L430.484,507.033L423.194,507.831L410.016,504.514L407.817,503.487L406.055,501.413L403.978,493.081L402.521,489.321L400.031,490.075L394.508,490.473L394.508,490.473L394.437,486.891L394.801,484.359L394.343,483.547L393.297,483.24L391.042,479.941L390.39,476.066L391.052,473.248L393.473,470.906L395.116,470.15L399.76,470.49L401.247,470.293L402.524,469.622L403.218,468.407L404.62,462.491L405.769,461.045L407.458,456.938L411.303,457.172L413.507,456.324L415.225,452.333L415.934,447.877L415.934,447.877L421.479,443.187L423.646,440.396L430.025,442.69L434.226,445.798L436.177,442.186L440.705,436.134L444.201,435.282L445.513,435.812L448.212,438.041L452.186,439.522L453.104,440.961L466.281,441.038L469.591,441.785L471.138,442.664L474.646,446.06L476.176,447.054L482.691,446.589L486.879,444.954L489.196,442.13L493.282,441.093L494.14,439.834L494.741,434.295z"/>
		<path id="MN-061" title="Dornod" class="land" d="M657.94,305.432L659.374,305.495L662.463,304.792L664.345,305.18L669.65,307.205L670.626,307.818L672.195,310.317L676.381,315.389L680.386,318.328L681.793,318.084L683.053,318.563L684.131,318.138L688.266,319.003L689.209,318.908L696.543,314.285L700.888,313.362L706.148,316.012L710.061,316.88L712.363,320.705L696.504,356.736L696.605,357.468L698.043,359.449L697.864,360.119L690.74,369.816L690.479,371.046L691.051,377.021L690.854,379.467L683.076,382.788L683.016,384.006L684.054,389.406L681.912,389.406L681.896,389.986L682.256,390.559L684.702,391.759L693.059,400.907L693.887,401.139L698.521,395.434L701.438,393.926L704.663,394.883L707.32,395.178L708.367,394.941L710.934,393.427L714.914,393.07L718.498,394.224L722.402,396.369L729.253,402.614L729.935,400.752L731.302,398.538L733.434,397.133L738.432,389.771L740.29,388.932L740.455,388.479L742.253,388.146L744.45,388.439L745.999,387.965L747.285,388.027L747.034,388.704L749.025,388.253L750.568,389.342L756.123,389.406L763.436,396.49L765.516,397.648L772.004,400.258L772.085,402.021L772.828,405.007L772.683,406.221L773.573,406.983L775.165,406.609L776.243,405.957L776.748,405.98L777.226,406.517L777.324,408.819L776.879,410.098L782.299,415.073L786.978,420.775L788.673,425.65L790.172,428.671L791.123,429.475L791.78,432.18L791.432,433.823L792,435.835L791.927,437.297L790.757,438.32L789.733,438.687L788.198,440.295L784.639,440.44L781.934,439.417L779.462,439.621L778.644,440.66L777.108,440.66L773.526,439.198L771.918,439.198L770.456,438.394L769.067,437.078L765.851,435.396L764.169,435.543L762.561,437.882L759.71,437.517L757.809,438.028L753.496,436.566L751.888,436.932L749.986,438.028L747.063,438.467L745.674,440.148L741.389,440.867L740.705,442.477L739.844,442.951L736.99,443.342L736.294,443.125L735.359,442.45L734.884,440.756L734.506,440.569L730.538,440.782L730.527,442.981L728.975,446.007L728.737,449.006L725.476,448.657L719.288,449.049L718.235,448.913L716.331,447.854L713.941,450.177L710.026,450.838L709.243,451.526L708.628,453.208L708.628,453.208L702.899,441.958L702.028,441.023L700.79,440.488L689.466,440.46L684.391,442.079L677.069,441.893L668.093,443.567L664.732,439.572L663.152,437.137L658.103,433.559L656.709,431.815L656.171,429.937L656.177,427.013L657.687,421.02L650.105,416.396L647.571,413.965L645.199,412.491L641.546,408.957L637.936,407.17L625.393,405.337L622.17,404.003L620.049,403.521L617.892,403.834L615,404.938L613.786,396.953L613.786,396.953L611.677,391.986L610.083,386.245L609.295,380.359L610.017,375.183L609.593,372.352L603.931,361.719L602.542,357.706L602.625,356.356L603.728,353.92L603.896,352.471L601.583,347.617L600.81,340.955L599.727,339.682L595.864,337.271L595.864,337.271L597.187,336.418L599.974,335.997L603.137,334.206L605.007,333.816L609.335,331.833L611.299,332.632L612.626,332.521L614.333,333.898L616.174,333.475L620.48,330.32L623.79,329.266L623.674,327.703L623.969,326.736L626.197,321.737L632.503,316.824L633.452,315.56L634.514,315.395L636.091,313.735L640.89,311.008L642.692,311.37L646.312,307.807L647.983,307.461L648.679,306.556L651.635,304.705L654.511,303.771L656.272,304.903z"/>
		<path id="MN-063" title="Dornogovĭ" class="land" d="M521.878,444.908L525.46,447.647L527.048,451.793L529.762,454.842L531.372,455.408L536.207,455.619L538.213,456.342L542.313,453.789L545.403,450.667L547.59,445.797L547.761,444.757L547.161,440.159L548.159,439.199L551.001,440.304L553.948,444.707L557.092,448.149L560.208,453.639L561.396,457.676L568.857,459.127L571.06,459.242L571.525,458.191L575.007,454.785L576.213,453.164L576.213,453.164L581.113,455.239L586.264,458.018L587.477,459.438L588.859,462.741L589.505,465.494L589.731,470.869L588.964,477.724L590.711,479.206L592.021,482.087L594.643,485.676L594.874,486.77L594.52,489.529L595.243,493.291L595.243,493.291L593.374,494.097L591.594,495.789L585.878,505.929L584.818,510.557L583.556,513.657L581.838,516.428L581.62,518.851L582.162,520.398L583.58,521.523L585.255,525.418L587.646,528.565L588.599,529.554L591.922,530.195L593.219,531.171L596.995,537.321L596.842,538.53L595.977,539.611L594.634,540.249L590.816,541.098L589.61,543.696L587.163,547.285L586.238,548.057L582.551,548.689L580.794,549.948L577.069,551.145L573.262,552.987L567.531,560.167L564.805,562.62L564.668,563.76L562.8,566.88L558.627,569.27L558.546,571.312L557.744,572.266L551.273,576.638L546.744,576.583L543.429,577.068L536.36,582.17L529.575,583.794L523.155,583.137L522.109,582.673L518.252,584.971L517.533,584.228L511.21,582.712L505.473,583.24L504.152,582.492L499.107,583.179L497.538,583.713L497.538,583.713L497.887,583.591L497.828,578.309L499.112,566.333L498.457,558.911L496.711,554.32L496.715,549.017L497.264,542.01L494.635,533.553L493.353,527.589L489.657,519.896L490.589,511.754L490.589,511.754L492.078,509.59L494.394,500.958L508.567,500.34L508.695,497.438L509.713,494.154L511.425,493.173L514.351,492.615L511.439,484.032L509.781,475.777L510.389,470.096L512.046,463.428L512.046,463.428L513.085,461.583L513.579,458.385L514.826,454.89L518.74,450.705L520.651,447.79z"/>
		<path id="MN-064" title="Govĭ-Sümber" class="land" d="M518.472,426.43L519.955,428.51L520.868,430.674L522.556,431.778L522.985,432.552L522.065,437.488L522.355,442.273L521.878,444.908L521.878,444.908L520.651,447.79L518.74,450.705L514.826,454.89L513.579,458.385L513.085,461.583L512.046,463.428L512.046,463.428L507.674,464.576L506.341,464.31L505.097,463.226L503.049,460.271L502.571,458.677L502.51,456.86L503.826,453.899L504.487,450.313L504.212,448.896L502.247,445.824L502.158,444.489L504.408,439.935L499.496,436.472L497.22,433.817L497.22,433.817L498.34,433.161L501.12,432.516L503.289,432.492L510.093,433.605L515.77,430.73L516.954,429.49z"/>
		<path id="MN-065" title="Govĭ-Altay" class="land" d="M144.31,402.142L156.522,397.796L158.867,397.33L159.64,397.546L161.681,399.156L165.664,401.018L169.976,401.53L173.396,401.304L177.736,402.005L179.114,403.086L180.191,406.157L184.432,405.24L191.423,406.346L193.02,407.162L196.914,410.101L198.114,410.342L200.96,412.102L203.646,414.604L205.708,415.021L208.756,418.301L209.592,419.689L210.01,421.475L210.159,427.537L211.442,431.947L217.576,428.592L219.686,428.257L220.719,428.843L222.222,431.987L223.218,433.023L225.594,437.07L226.095,440.044L230.897,440.937L232.311,440.856L237.264,436.733L238.104,438.352L239.136,439.406L241.584,440.146L241.584,440.146L243.707,442.528L243.479,444.589L245.873,451.353L249.417,453.955L257.293,461.707L257.648,463.767L260.643,466.404L262.1,468.307L263.671,476.011L263.541,483.006L262.965,485.685L261.86,489.397L257.181,499.568L257.499,507.205L256.896,510.589L255.649,513.913L254.716,515.272L253.59,516.132L251.401,516.847L250.496,518.596L250.442,526.584L251.122,531.34L250.368,535.801L249.955,541.003L250.083,543.822L249,546.597L248.656,550.279L246.801,553.43L246.157,556.164L246.225,559.18L247.075,564.029L247.013,574.361L247.013,574.361L231.343,572.099L227.786,573.188L225.962,574.161L224.168,573.603L219.611,573.148L216.608,573.775L211.958,573.977L210.993,568.472L206.81,564.181L204.829,560.327L203.149,558.398L201.436,557.294L200.401,555.597L200.083,551.009L195.373,541.616L194.698,538.078L191.956,531.117L191.577,530.753L187.625,530.01L186.895,529.186L187.523,523.569L188.926,521.804L188.828,520.846L183.065,521.67L179.277,521.687L178.169,522.034L176.703,520.858L172.566,519.168L171.117,518.944L170.335,517.615L167.969,515.389L166.934,515.1L164.415,513.322L161.809,512.679L161.432,510.638L159.997,509.643L158.655,508.019L156.655,507.227L153.738,504.891L147.908,501.65L146.84,500.127L145.146,499.107L142.971,498.459L141.697,497.55L140.534,497.752L137.993,496.697L135.709,496.706L134.41,496.186L134.41,496.186L133.011,488.088L132.933,478.277L131.619,474.507L131.161,471.588L132.14,469.597L137.047,466.537L138.443,465.313L139.749,458.167L144.609,447.937L144.828,446.204L144.586,445.085L142.835,441.522L141.975,438.769L145.429,439.588L148.037,441.814L148.899,440.297L152.452,436.163L153.969,435.693L159.347,435.377L163.947,432.892L161.877,431.24L159.874,428.327L156.944,422.095L154.527,415.108L152.996,414.149L150.991,413.597L149.19,412.633L146.077,408.105L142.469,405.567z"/>
		<path id="MN-067" title="Bulgan" class="land" d="M374.506,302.934L380.287,302.626L381.285,303.259L381.833,305.467L382.959,306.796L386.061,306.35L389.7,308.472L392.242,309.355L392.97,308.854L393.896,307.176L394.737,306.663L395.895,306.703L400.629,308.71L405.479,307.46L406.864,304.924L408.243,304.684L408.494,304.072L408.494,304.072L410.865,306.312L412.716,308.871L413.38,310.73L413.562,312.704L415.033,314.248L414.201,315.08L412.554,315.271L412.732,319.363L413.974,321.43L416.726,324.466L417.907,326.546L416.412,328.078L416.18,334.102L414.496,338.718L412.642,348.431L412.642,348.431L410.782,347.58L409.146,347.522L408.283,347.893L406.834,349.362L402.396,347.844L399.89,350.861L399.876,352.877L405.804,354.396L409.161,356.151L409.161,356.151L413.239,360.267L412.529,362.358L412.856,366.325L412.856,366.325L413.121,372.418L412.561,375.617L412.099,376.461L409.706,378.438L406.954,384.13L409.173,387.123L409.538,389.833L412.033,391.037L416.013,391.397L416.51,391.127L417.178,391.429L417.371,392.742L416.872,393.234L417.066,396.096L418.57,401.771L412.84,402.072L411.833,404.03L407.971,404.211L403.701,406.753L401.546,408.803L402.215,410.631L404.088,412.839L404.098,413.802L403.488,414.974L403.488,414.974L398.67,416.177L396.561,416.433L394.583,416.208L391.928,416.688L391.928,416.688L391.504,413.518L385.108,407.838L380.356,400.417L379.26,399.732L377.47,399.548L375.598,395.152L372.542,393.711L371.667,392.914L370.515,386.544L367.379,381.339L366.203,380.17L362.46,379.63L359.728,377.191L359.088,374.2L356.864,372.169L356.291,371.163L355.535,364.438L353.874,359.456L351.849,360.703L350.083,360.723L348.261,357.994L345.885,357.306L344.687,356.558L342.423,353.777L342.423,353.777L341.654,349.692L341.67,348.118L342.705,345.157L343.898,343.619L345.864,342.983L347.005,341.17L350.103,338.379L357.557,336.17L359.131,335.358L361.188,333.281L363.434,328.557L364.419,328.18L367.114,328.376L369.955,326.34L368.375,324.709L366.382,323.556L355.402,319.028L353.65,317.908L353.183,316.658L353.907,314.406L356.775,310.401L359.492,307.508L360.925,303.096L362.952,301.012L367.262,298.64L367.262,298.64L370.937,300.09L372.562,302.173z"/>
		<path id="MN-069" title="Bayanhongor" class="land" d="M262.474,403.481L264.134,401.621L265.936,400.567L271.722,399.588L272.315,404.388L273.271,406.116L275.323,407.575L276.165,408.688L277.007,409.045L282.093,409.343L283.259,409.104L285.297,407.985L286.947,405.641L287.609,405.197L293.222,403.961L294.281,403.393L295.514,403.329L295.6,407.488L298.686,412.122L299.507,418.848L299.502,421.45L300.007,423.641L303.594,421.69L312.458,419.124L311.757,422.297L312.459,426.14L316.441,428.313L318.543,431.584L320.123,431.829L322.807,431.529L327.303,432.019L330.427,431.122L331.712,431.938L333.139,431.966L333.139,431.966L336.129,437.55L338.266,440.767L337.866,442.229L338.98,445.234L338.276,447.842L338.148,454.648L337.189,456.417L334.018,458.744L333.171,460.634L333.123,464.133L334.008,469.584L333.384,472.298L332.039,474.567L332.018,476.927L330.082,479.644L329.542,481.156L329.448,492.421L330.623,495.399L331.645,496.816L335.958,498.391L340.229,501.624L340.705,502.704L339.703,504.099L339.324,508.444L341.558,512.774L343.324,519.011L345.034,527.053L345.919,529.064L345.919,529.064L344.418,530.897L340.011,532.429L333.297,535.86L330.366,536.351L316.544,536.365L311.042,537.091L308.622,536.664L307.504,536.052L301.947,529.584L296.854,526.14L294.965,525.607L293.174,525.806L288.155,527.138L287.258,528.203L287.089,529.565L287.913,535.929L287.928,547.416L288.877,556.867L290.982,568.921L291.486,573.302L291.516,578.368L291.516,578.368L289.039,578.896L273.126,577.461L258.321,576.639L252.709,575.122L247.013,574.361L247.013,574.361L247.075,564.029L246.225,559.18L246.157,556.164L246.801,553.43L248.656,550.279L249,546.597L250.083,543.822L249.955,541.003L250.368,535.801L251.122,531.34L250.442,526.584L250.496,518.596L251.401,516.847L253.59,516.132L254.716,515.272L255.649,513.913L256.896,510.589L257.499,507.205L257.181,499.568L261.86,489.397L262.965,485.685L263.541,483.006L263.671,476.011L262.1,468.307L260.643,466.404L257.648,463.767L257.293,461.707L249.417,453.955L245.873,451.353L243.479,444.589L243.707,442.528L241.584,440.146L241.584,440.146L244.689,434.966L245.664,431.088L245.969,427.006L246.922,425.166L248.639,423.221L249.122,420.149L250.629,418.975L253.781,419.462L255.498,418.699L257.866,416.838L258.778,414.966L259.067,409.674L261.695,406.705z"/>
		<path id="MN-071" title="Bayan-Ölgiy" class="land" d="M55.114,314.407L57.319,315.516L58.401,316.789L59.809,322.728L61.255,325.21L65.167,327.752L67.756,330.403L69.857,334.584L69.849,336.109L71.796,339.666L73.765,341.19L75.66,340.891L77.44,341.933L79.878,348.387L80.5,350.908L83.03,353.301L84.953,354.47L86.951,357.698L87.709,360.115L88.302,364.617L88.302,364.617L86.248,363.408L84.827,363.061L83.467,363.469L81.155,365.062L78.63,366.158L73.57,365.344L73.071,365.843L75.047,368.682L75.461,370L75.9,374.184L75.491,378.329L76.413,385.024L76.915,386.445L78.578,388.354L79.607,390.257L81.428,395.242L82.014,397.915L82.82,398.908L84.181,399.542L84.404,402.938L85.911,405.194L86.427,406.604L85.817,412.408L87.104,413.609L88.747,416.371L91.013,418.265L91.511,421.023L90.858,425.048L91.147,427.717L92.589,429.499L95.616,431.932L102.792,436.386L100.92,439.08L99.089,439.459L93.981,439.56L91.772,441.723L90.128,442.136L88.411,441.259L87.181,438.417L86.585,437.78L81.295,435.656L81.473,436.108L81.473,436.108L78.981,432.341L79.096,430.386L78.339,429.264L77.852,427.401L76.537,426.318L74.336,426.194L73.441,425.668L72.474,423.234L71.343,422.31L68.114,416.921L67.098,414.343L67.46,411.988L66.649,410.523L66.615,408.121L65.802,407.369L63.466,403.447L63.676,401.943L61.034,400.281L58.903,399.553L57.329,397.964L57.068,394.459L55.975,394.16L55.35,393.537L54.485,393.649L53.967,394.585L54.351,395.615L53.998,396.114L52.717,395.638L50.363,396.066L49.461,395.43L48.61,393.373L47.328,392.902L45.955,391.396L44.993,389.411L45.535,388.484L44.691,387.625L41.594,388.025L40.458,387.664L39.848,387.825L39.778,388.498L38.601,388.37L37.909,388.65L37.734,389.408L36.841,389.921L35.849,391.171L31.529,391.197L31.31,390.771L31.817,389.406L31.698,388.33L30.415,386.466L28.738,385.711L28.284,385.011L26.615,385.173L26.002,384.585L25.008,384.401L24.344,383.315L23.535,382.922L22.75,383L21.648,381.208L20.633,380.943L20.316,379.069L21.118,377.12L18.956,375.262L18.869,374.195L18.31,374.097L17.188,374.841L16.308,374.992L14.842,373.173L14.824,372.214L14.446,371.794L13.275,371.575L12.085,370.663L10.519,370.413L9.549,369.711L8.942,369.764L8.327,369.179L7.089,369.162L6.163,368.374L5.955,370.37L5.623,370.648L5.39,369.198L6.511,365.241L8.206,363.558L8.163,362.98L7.83,362.596L7.3,362.726L6.16,361.264L5.111,360.926L4.306,361.253L2.85,359.913L2.137,359.995L1.052,359.041L1.768,357.979L1.118,357.033L0,356.695L0.42,354.745L1.168,354.953L1.828,354.318L3.076,354.076L4.056,352.911L3.162,351.308L2.626,350.7L2.028,350.585L2.554,349.65L2.313,348.929L2.865,347.955L2.093,346.921L2.033,345.828L3.697,346.131L4.89,345.472L5.789,345.676L6.375,343.543L7.062,343.232L7.52,342.396L8.612,342.412L9.323,343.209L10.268,341.955L11.002,341.606L10.992,341.132L9.767,339.444L8.545,338.325L9.568,336.924L10.791,336.238L10.518,335.146L11.206,334.222L14.521,333.286L16.281,333.556L17.349,334.388L18.684,333.876L19.73,334.252L20.321,333.124L21.719,332.543L22.155,332.832L22.87,334.531L24.059,334.902L25.928,334.772L27.402,335.472L26.988,332.977L27.81,331.694L28.757,331.34L29.05,331.462L28.967,332.446L30.231,334.503L31.452,333.873L33.903,333.323L35.63,331.808L36.312,331.687L36.269,331.082L35.44,329.864L35.73,328.838L36.674,327.781L38.46,328.501L40.051,330.011L41.713,327.578L47.543,325.65L47.988,325.175L48.938,322.431L48.438,321.924L46.842,321.634L46.414,321.235L46.664,320.001L46.34,319.205L46.445,318.012L45.604,317.123L46.04,315.595L47.127,315.346L48.244,315.549L49.592,314.598L53.663,315.156z"/>
		<path id="MN-073" title="Arhangay" class="land" d="M278.655,378.521L283.373,380.766L292.548,379.184L294.187,378.53L295.029,377.403L296.108,373.911L296.201,371.525L299.939,372.773L303.036,374.705L305.092,375.166L306.386,374.56L306.744,372.478L307.45,371.744L313.154,370.668L310.893,367.489L310.354,366.164L310.276,364.628L310.726,362.455L312.82,357.832L317.192,355.245L316.17,353.903L313.153,352.444L317.424,348.376L318.725,344.705L323.25,347.497L332.793,351.776L335.32,353.682L338.309,354.255L342.423,353.777L342.423,353.777L344.687,356.558L345.885,357.306L348.261,357.994L350.083,360.723L351.849,360.703L353.874,359.456L355.535,364.438L356.291,371.163L356.864,372.169L359.088,374.2L359.728,377.191L362.46,379.63L366.203,380.17L367.379,381.339L370.515,386.544L371.667,392.914L372.542,393.711L375.598,395.152L377.47,399.548L379.26,399.732L380.356,400.417L385.108,407.838L391.504,413.518L391.928,416.688L391.928,416.688L390.639,418.093L388.032,418.985L384.78,419.075L381.042,418.598L379.235,417.713L376.279,414.547L373.816,413.901L372.073,412.557L369.288,411.995L368.217,410.8L367.006,411.312L366.427,412.456L366.81,413.746L368.445,415.691L368.461,417.075L367.183,419.422L365.119,421.09L364.378,422.919L363.802,426.507L363.237,427.465L362.131,428.276L360.949,427.54L358.534,425.103L356.311,424.899L348.921,427.087L347.775,428.155L346.9,429.853L345.827,430.535L341.515,431.076L336.187,431.233L333.139,431.966L333.139,431.966L331.712,431.938L330.427,431.122L327.303,432.019L322.807,431.529L320.123,431.829L318.543,431.584L316.441,428.313L312.459,426.14L311.757,422.297L312.458,419.124L303.594,421.69L300.007,423.641L299.502,421.45L299.507,418.848L298.686,412.122L295.6,407.488L295.514,403.329L294.281,403.393L293.222,403.961L287.609,405.197L286.947,405.641L285.297,407.985L283.259,409.104L282.093,409.343L277.007,409.045L276.165,408.688L275.323,407.575L273.271,406.116L272.315,404.388L271.722,399.588L265.936,400.567L264.134,401.621L262.474,403.481L262.474,403.481L258.56,401.938L257.301,400.579L256.593,398.781L256.613,396.342L257.442,392.295L257.175,389.556L258.071,386.959L259.221,385.99L260.408,385.633L264.115,385.853L265.611,385.486L268.453,383.479L269.576,381.964L275.818,379.323z"/>
	</g>
</svg>