<?xml version="1.0" encoding="utf-8"?>
<!-- (c) ammap.com | SVG map of Morocco2015 - High -->
<svg xmlns="http://www.w3.org/2000/svg" xmlns:amcharts="http://amcharts.com/ammap" xmlns:xlink="http://www.w3.org/1999/xlink" version="1.1">
	<defs>
		<style type="text/css">
			.land
			{
				fill: #CCCCCC;
				fill-opacity: 1;
				stroke:white;
				stroke-opacity: 1;
				stroke-width:0.5;
			}
		</style>

		<amcharts:ammap projection="mercator" leftLongitude="-17.105673" topLatitude="35.899081" rightLongitude="-0.997997" bottomLatitude="20.777959"></amcharts:ammap>

		<!-- All areas are listed in the line below. You can use this list in your script. -->
		<!--{id:"MA-01"},{id:"MA-02"},{id:"MA-03"},{id:"MA-04"},{id:"MA-05"},{id:"MA-06"},{id:"MA-07"},{id:"MA-08"},{id:"MA-09"},{id:"MA-10"},{id:"MA-11"},{id:"MA-12"}-->

	</defs>
	<g>
		<path id="MA-01" title="Tanger-Tétouan-Al Hoceïma" class="land" d="M505.349,171.903L505.659,173.213L505.15,176.163L505.516,177.798L505.521,180.199L505.849,181.31L505.605,183.176L505.683,186.205L506.222,186.508L506.297,187.363L506.45,187.429L503.967,188.387L502.521,189.44L500.133,190.054L496.227,190.142L495.286,191.369L494.708,192.859L493.623,193.999L492.176,194.612L490.223,194.086L489.138,192.246L488.342,191.895L487.184,193.123L486.533,194.787L485.159,196.451L483.134,197.501L480.963,198.114L479.661,197.501L476.406,197.151L474.02,195.925L470.619,195.4L469.39,194.437L469.101,192.771L468.305,190.492L466.656,189.605L465.985,189.707L464.526,190.471L464.254,191.281L462.3,192.421L459.479,192.684L455.414,192.561L454.394,193.738L453.946,195.228L453.938,196.883L453.372,199.445L454.005,200.256L454.14,202.601L453.651,203.716L452.078,203.978L450.938,204.83L449.474,204.896L448.606,205.419L447.762,206.51L447.621,205.802L444.804,203.935L444.601,202.542L444.601,200.657L443.583,199.345L442.633,198.853L440.599,197.047L438.972,196.063L438.021,195.734L437.344,194.831L436.19,194.174L435.445,194.256L435.038,195.488L434.36,196.555L433.139,196.227L432.528,195.652L431.579,193.188L431.443,190.805L431.443,186.037L430.814,185.34L429.117,185.092L428.943,184.759L427.307,185.21L425.069,184.881L423.713,184.058L423.146,182.941L419.654,182.404L418.619,182.089L416.087,182.237L413.552,181.881L412.459,181.887L413.104,180.061L413.886,177.005L414.688,174.988L415.511,172.328L416.26,171.878L417.632,167.708L418.857,163.302L419.385,162.22L420.166,159.937L420.873,159.395L421.653,156.917L421.813,155.664L423.142,150.182L424.44,145.613L424.62,144.693L425.496,144.098L427.649,144.253L429.297,144.608L429.934,145.631L431.562,146.38L433.461,145.881L435.088,143.8L438.344,144.133L439.699,143.883L440.717,142.717L442.276,140.552L443.633,139.968L445.512,139.559L447.227,139.635L447.769,140.385L449.804,140.552L450.482,141.052L449.397,141.718L449.193,143.3L448.244,144.632L448.632,149.49L449.563,149.471L449.163,150.545L450.102,154.075L450.894,155.87L451.41,155.767L453.385,156.646L454.061,157.781L455.95,159.188L457.522,162.349L458.821,162.8L459.339,162.606L460.426,163.973L461.059,164.397L462.705,166.549L463.867,167.168L465.007,167.322L466.621,169.138L467.763,169.704L468.227,170.283L469.557,170.939L472.036,171.826L473.241,171.415L473.99,172.264L475.457,172.417L478.181,173.202L479.32,173.138L480.229,173.677L481.748,174.166L482.593,173.96L484.324,174.423L486.952,173.317L488.378,172.585L489.687,172.739L490.721,172.135L492.02,172.122L493.635,171.813L494.31,171.234L497.076,170.244L497.614,170.54L498.732,170.347L500.738,169.163L500.949,170.553L501.498,171.389L503.694,172.187z"/>
		<path id="MA-02" title="L'Oriental" class="land" d="M531.726,330.877L526.463,330.941L525.987,330.316L525.715,329.023L528.975,327.248L531.574,325.527L528.522,323.806L526.375,316.649L526.375,315.189L527.618,311.472L529.087,308.682L524.453,311.472L522.306,311.87L519.819,311.339L518.237,310.674L517.59,309.457L514.896,309.155L513.829,310.409L512.021,312.003L510.324,312.534L511.341,309.575L506.935,308.682L506.256,306.953L505.804,300.564L504.673,298.7L500.491,297.367L499.475,296.567L500.252,295.526L500.83,295.634L501.396,293.366L500.039,291.898L498.792,291.544L498.041,290.414L498.305,290.258L499.389,287.437L500.474,286.667L501.775,285.384L502.934,281.274L503.802,279.732L505.32,278.018L506.333,276.475L507.636,275.703L509.444,273.987L510.239,271.326L511.396,270.553L513.303,268.379L515.072,268.279L518.99,268.328L522.598,268.901L525.338,268.779L527.597,268.286L529.528,267.567L534.617,267.631L536.86,265.224L538.523,264.794L541.996,264.708L541.129,262.987L539.03,260.577L536.716,257.045L534.689,254.458L533.171,252.733L531.436,251.353L529.771,250.834L527.199,250.794L526.287,249.73L526.279,247.949L528.56,246.214L532.313,242.917L533.352,241.619L535.024,239.942L535.205,238.914L534.708,237.94L532.719,237.778L526.835,236.952L524.083,236.857L522.908,236.316L522.284,235.491L521.959,234.42L521.145,233.065L518.613,232.144L517.799,231.331L517.088,231.489L515.493,233.065L513.278,235.72L511.379,238.536L509.39,240.483L507.627,241.89L505.999,242.863L505.185,244.539L504.959,245.62L505.547,246.376L507.988,246.916L507.763,247.51L504.688,251.449L504.055,250.694L503.468,248.913L502.608,247.779L501.84,247.941L500.303,249.993L499.082,250.046L497.364,248.427L495.781,248.211L494.832,247.779L494.408,245.882L493.702,245.25L493.631,244.441L494.425,243.52L494.89,242.181L496.079,241.486L498.205,240.566L499.244,240.35L499.742,239.268L499.832,237.86L499.109,236.723L500.375,235.64L501.324,234.503L502.5,232.714L504.941,226.53L505.528,223.391L505.438,219.531L504.263,217.953L502.771,217.3L501.459,215.994L501.188,214.469L501.641,213.652L502.952,213.271L504.76,213.162L504.579,210.927L504.127,208.746L504.443,207.273L507.338,206.564L507.971,205.799L507.79,200.555L508.513,199.298L511.769,198.587L511.949,196.181L512.518,195.859L513.617,195.938L514.146,195.118L513.193,194.631L512.84,194.031L513.743,192.483L513.887,191.102L513.438,190.227L513.436,189.08L511.797,189.29L510.252,188.303L508.231,188.551L508.084,187.249L506.688,187.53L506.297,187.363L506.222,186.508L505.683,186.205L505.605,183.176L505.849,181.31L505.521,180.199L505.516,177.798L505.15,176.163L505.659,173.213L505.349,171.903L506.322,171.375L506.883,170.591L507.452,168.571L509.046,167.94L509.943,168.133L510.671,168.867L512.298,169.845L513.521,170.797L515.59,171.234L517.322,172.083L518.8,171.749L519.696,172.379L523.624,172.521L524.384,171.813L526.125,171.44L527.656,170.758L528.321,170.964L529.514,170.167L530.854,168.339L531.942,168.713L532.817,168.301L534.454,165.879L535.594,163.521L535.741,162.296L536.186,161.136L537.727,161.149L537.325,162.336L537.536,163.496L537.072,164.553L537.642,165.235L537.716,166.292L537.391,167.408L537.803,168.205L538.37,168.313L538.897,169.472L538.581,170.244L539.035,171.17L538.855,172.829L540.238,175.014L543.12,176.543L545.432,176.646L545.854,175.695L548.061,176.723L550.013,177.25L551.259,177.25L552.462,177.532L554.193,177.172L555.672,176.466L557.793,174.462L558.531,175.001L561.097,175.592L564.622,177.031L565.918,177.391L565.787,179.102L566.887,179.819L567.541,180.806L569.294,181.536L569.398,182.083L570.592,183.351L572.528,184.728L575.037,184.342L575.034,186.443L575.92,187.238L578.08,188.567L578.284,190.143L579.408,190.363L580.137,191.049L583.004,192.531L583.751,193.178L582.701,193.969L582.563,195.143L582.037,195.643L580.366,198.138L580.182,198.853L581.051,199.442L582.486,201.948L583.616,203.627L585.63,204.432L585.797,204.745L582.285,209.286L582.812,210.16L584.198,211.449L585.213,213.05L584.869,215.607L585.188,217.037L587.36,222.317L586.546,227.18L585.41,233.099L586.5,237.542L584.285,239.246L583.96,240.838L585.866,241.924L587.163,241.651L588.02,243.984L589.227,244.71L589.408,246.565L589.038,247.335L589.616,248.56L588.385,250.307L588.283,252.031L587.449,253.374L586.763,255.375L586.856,258.846L586.483,259.692L586.965,260.902L587.449,261.285L588.16,262.571L588.824,262.895L590.096,265.46L590.12,265.844L592.454,268.325L593.942,269.111L594.463,270.66L593.894,271.585L594.063,272.399L593.544,273.675L591.347,274.469L593.075,277.128L597.484,284.286L601.707,286.254L610.304,292.925L612,294.171L611.941,294.78L610.225,296.086L609.42,297.283L608.063,298.094L607.358,298.871L606.235,298.713L604.414,299.354L603.558,301.883L602.487,302.784L603.013,303.543L603.015,304.335L602.564,306.642L602.763,308.222L600.673,309.735L601.026,310.301L601.942,310.18L603.756,309.561L605.172,310.321L605.616,312.468L604.176,313.609L602.297,313.989L601.65,313.538L599.157,313.699L598.118,313.325L597.48,313.552L595.923,313.473L593.521,313.125L592.674,312.78L589.957,313.294L588.535,312.885L586.316,313.072L583.061,313.072L580.385,312.646L575.9,311.541L574.235,310.691L572.861,310.606L570.619,312.392L570.258,314.006L569.533,314.855L566.352,314.516L564.831,314.771L563.819,317.233L562.372,315.875L560.492,313.241L559.334,312.392L557.96,311.881L556.297,311.797L554.415,312.562L553.619,313.581L552.101,314.431L550.654,314.855L547.471,313.836L544.866,314.176L542.263,315.705L540.961,316.979L541.395,318.337L542.624,318.761L543.059,319.949L542.769,320.882L541.901,321.73L542.624,323.595L542.914,326.729L542.263,327.577L540.815,328.339L539.803,329.608L538.212,330.37L536.331,330.455L534.812,330.116L532.931,330.455L532.238,330.349z"/>
		<path id="MA-03" title="Fès-Meknès" class="land" d="M498.041,290.414L497.231,289.439L495.913,288.858L494.528,289.414L494.049,290.429L493.145,291.364L490.432,291.898L488.85,291.364L486.928,288.693L487.012,286.959L486.826,285.235L485.775,284.057L483.341,281.731L481.806,280.744L480.863,278.708L479.68,277.648L478.405,277.428L475.964,277.503L474.709,277.962L473.411,277.845L472.556,278.131L470.84,277.431L469.346,276.264L468.979,275.372L469.094,274.307L469.572,273.559L469.447,272.221L467.563,270.098L466.628,269.479L466.093,268.536L464.474,268.152L463.01,269.441L462.032,269.634L459.862,269.118L459.049,270.085L458.019,274.013L457.583,274.979L456.878,275.557L455.685,275.493L454.709,275.107L453.569,275.043L452.863,275.493L451.128,277.873L451.046,277.87L451.17,277.732L450.682,276.125L449.65,274.966L447.806,272.456L448.132,269.055L448.892,267.186L444.334,267.315L442.651,264.477L440.428,261.702L440.97,258.085L439.126,256.598L437.335,255.887L434.894,255.434L432.994,254.593L431.042,253.17L430.131,253.192L429.106,251.461L429.118,251.38L430.064,250.702L430.782,250.625L431.487,249.718L431.866,247.969L431.487,246.414L430.883,245.211L431.113,244.33L431.285,242.571L431.976,241.939L433.604,238.173L433.44,237.394L432.409,236.159L431.216,235.379L430.836,234.404L433.169,231.152L433.929,229.655L432.626,228.288L431.866,228.288L428.068,226.725L426.93,225.421L425.953,223.922L425.536,222.777L428.177,218.599L429.426,217.946L431.778,218.762L432.015,219.454L433.299,219.569L434.092,220.752L433.657,223.166L436.099,224.079L438.648,223.818L440.005,222.905L441.523,222.514L442.717,221.796L443.641,220.818L444.237,217.684L444.237,216.667L443.859,215.854L442.854,214.875L440.522,212.063L440.332,210.297L441.41,209.795L442.095,210.46L444.374,209.741L446.219,209.545L447.141,208.759L447.762,206.51L448.606,205.419L449.474,204.896L450.938,204.83L452.078,203.978L453.651,203.716L454.14,202.601L454.005,200.256L453.372,199.445L453.938,196.883L453.946,195.228L454.394,193.738L455.414,192.561L459.479,192.684L462.3,192.421L464.254,191.281L464.526,190.471L465.985,189.707L466.656,189.605L468.305,190.492L469.101,192.771L469.39,194.437L470.619,195.4L474.02,195.925L476.406,197.151L479.661,197.501L480.963,198.114L483.134,197.501L485.159,196.451L486.533,194.787L487.184,193.123L488.342,191.895L489.138,192.246L490.223,194.086L492.176,194.612L493.623,193.999L494.708,192.859L495.286,191.369L496.227,190.142L500.133,190.054L502.521,189.44L503.967,188.387L506.45,187.429L506.688,187.53L508.084,187.249L508.231,188.551L510.252,188.303L511.797,189.29L513.436,189.08L513.438,190.227L513.887,191.102L513.743,192.483L512.84,194.031L513.193,194.631L514.146,195.118L513.617,195.938L512.518,195.859L511.949,196.181L511.769,198.587L508.513,199.298L507.79,200.555L507.971,205.799L507.338,206.564L504.443,207.273L504.127,208.746L504.579,210.927L504.76,213.162L502.952,213.271L501.641,213.652L501.188,214.469L501.459,215.994L502.771,217.3L504.263,217.953L505.438,219.531L505.528,223.391L504.941,226.53L502.5,232.714L501.324,234.503L500.375,235.64L499.109,236.723L499.832,237.86L499.742,239.268L499.244,240.35L498.205,240.566L496.079,241.486L494.89,242.181L494.425,243.52L493.631,244.441L493.702,245.25L494.408,245.882L494.832,247.779L495.781,248.211L497.364,248.427L499.082,250.046L500.303,249.993L501.84,247.941L502.608,247.779L503.468,248.913L504.055,250.694L504.688,251.449L507.763,247.51L507.988,246.916L505.547,246.376L504.959,245.62L505.185,244.539L505.999,242.863L507.627,241.89L509.39,240.483L511.379,238.536L513.278,235.72L515.493,233.065L517.088,231.489L517.799,231.331L518.613,232.144L521.145,233.065L521.959,234.42L522.284,235.491L522.908,236.316L524.083,236.857L526.835,236.952L532.719,237.778L534.708,237.94L535.205,238.914L535.024,239.942L533.352,241.619L532.313,242.917L528.56,246.214L526.279,247.949L526.287,249.73L527.199,250.794L529.771,250.834L531.436,251.353L533.171,252.733L534.689,254.458L536.716,257.045L539.03,260.577L541.129,262.987L541.996,264.708L538.523,264.794L536.86,265.224L534.617,267.631L529.528,267.567L527.597,268.286L525.338,268.779L522.598,268.901L518.99,268.328L515.072,268.279L513.303,268.379L511.396,270.553L510.239,271.326L509.444,273.987L507.636,275.703L506.333,276.475L505.32,278.018L503.802,279.732L502.934,281.274L501.775,285.384L500.474,286.667L499.389,287.437L498.305,290.258z"/>
		<path id="MA-04" title="Rabat-Salé-Kénitra" class="land" d="M447.762,206.51L447.141,208.759L446.219,209.545L444.374,209.741L442.095,210.46L441.41,209.795L440.332,210.297L440.522,212.063L442.854,214.875L443.859,215.854L444.237,216.667L444.237,217.684L443.641,220.818L442.717,221.796L441.523,222.514L440.005,222.905L438.648,223.818L436.099,224.079L433.657,223.166L434.092,220.752L433.299,219.569L432.015,219.454L431.778,218.762L429.426,217.946L428.177,218.599L425.536,222.777L425.953,223.922L426.93,225.421L428.068,226.725L431.866,228.288L432.626,228.288L433.929,229.655L433.169,231.152L430.836,234.404L431.216,235.379L432.409,236.159L433.44,237.394L433.604,238.173L431.976,241.939L431.285,242.571L431.113,244.33L430.883,245.211L431.487,246.414L431.866,247.969L431.487,249.718L430.782,250.625L430.064,250.702L429.118,251.38L428.974,252.329L429.407,255.089L430.304,255.929L430.707,257.012L430.642,258.292L429.931,259.645L429.053,259.963L427.167,259.504L424.313,258.578L422.869,259.036L422.365,259.772L419.28,259.829L418.847,257.675L415.663,257.589L414.289,257.848L414.072,256.899L414.434,255.521L415.302,253.796L413.928,252.415L412.914,251.984L410.094,251.811L409.226,252.157L408.719,253.796L408.676,255.153L408.115,255.618L407.773,256.913L406.549,258.02L406.114,259.485L407.371,261.034L409.587,261.81L408.791,263.101L405.97,264.219L404.958,265.337L403.8,266.197L402.28,266.971L402.109,266.135L400.492,263.875L398.984,262.813L396.007,263.047L395.173,263.354L393.348,262.52L392.883,262.668L391.559,262.077L391.575,262.067L391.72,259.313L392.515,255.952L393.383,254.658L393.021,253.624L391.72,252.415L391.72,251.466L392.877,250.43L394.686,248.271L391.492,248.033L389.839,248.185L389.405,247.407L389.205,246.13L388.804,246.198L387.307,246.198L386.729,247.062L384.414,247.148L384.657,243.478L383.373,243.528L383.755,242.7L382.578,240.697L382.551,238.709L382.22,237.505L381.345,236.004L379.656,235.873L379.145,234.954L380.465,233.767L382.217,232.932L384.688,231.336L387.188,228.804L389.332,226.244L392.087,223.124L392.445,222.409L394.113,220.116L395.285,217.905L396.288,215.046L397.565,212.808L401.439,206.709L402.938,203.879L405.726,198.162L407.794,193.728L408.734,191.247L410.454,187.317L411.098,187.394L410.75,188.751L411.784,189.443L412.459,188.815L412.48,187.766L411.214,187.355L410.697,186.625L412.459,181.887L413.552,181.881L416.087,182.237L418.619,182.089L419.654,182.404L423.146,182.941L423.713,184.058L425.069,184.881L427.307,185.21L428.943,184.759L429.117,185.092L430.814,185.34L431.443,186.037L431.443,190.805L431.579,193.188L432.528,195.652L433.139,196.227L434.36,196.555L435.038,195.488L435.445,194.256L436.19,194.174L437.344,194.831L438.021,195.734L438.972,196.063L440.599,197.047L442.633,198.853L443.583,199.345L444.601,200.657L444.601,202.542L444.804,203.935L447.621,205.802z"/>
		<path id="MA-05" title="Béni-Mellal-Khénifra" class="land" d="M451.17,277.732L450.302,278.697L448.837,280.239L449,289.354L447.643,294.031L444.877,294.031L444.877,297.615L440.938,297.249L440.094,298.483L439.972,299.546L439.296,300.56L439.759,301.45L441.44,301.769L442.254,302.983L442.092,304.325L441.712,305.283L442.037,306.624L443.068,307.645L442.472,308.219L440.193,307.262L436.558,307.006L435.039,307.772L434.389,311.281L433.574,312.492L428.909,312.62L428.013,313.034L426.874,315.837L426.766,317.493L428.827,318.957L429.587,320.102L429.532,321.756L428.517,324.308L427.232,325.179L424.99,325.009L423.906,325.263L422.604,327.211L421.591,329.497L417.539,332.035L415.659,331.951L414.357,332.627L412.918,332.254L410.867,333.05L409.004,334.741L407.557,336.516L406.183,337.698L403.578,337.867L402.132,338.543L401.119,339.472L399.311,339.894L397.43,339.472L396.454,338.78L394.504,339.136L394.45,345.285L393.364,346.465L389.314,346.802L387.36,347.14L385.118,347.14L383.96,345.791L383.855,344.847L382.624,344.563L382.08,345.285L380.995,345.791L379.402,345.707L378.146,342.956L379.78,339.725L380.358,337.952L379.853,336.601L378.501,336.632L376.081,336.086L375.223,333.219L374.354,332.374L372.225,332.349L371.808,331.096L372.081,330.258L372.69,330.174L374.426,328.228L375.873,327.888L376.669,328.481L377.32,329.413L378.332,329.413L379.997,328.989L383.83,328.735L384.699,327.296L385.422,325.009L384.889,324.075L382.967,321.727L383.114,320.951L382.664,320.42L383.047,319.37L382.814,318.193L381.64,317.556L380.555,316.495L380.148,314.106L380.357,310.811L380.754,309.214L379.985,305.691L380.362,304.277L380.407,303.334L380.305,301.786L382.134,300.033L382.736,299.028L383.011,297.797L384.224,294.759L384.527,291.965L384.473,290.712L384.904,289.521L383.956,289.395L383.21,288.112L382.396,285.787L382.601,284.343L383.143,283.379L383.617,279.927L384.5,276.712L384.771,274.38L387.076,273.093L387.822,270.195L388.364,263.989L389.246,263.102L390.715,262.545L391.559,262.077L392.883,262.668L393.348,262.52L395.173,263.354L396.007,263.047L398.984,262.813L400.492,263.875L402.109,266.135L402.28,266.971L403.8,266.197L404.958,265.337L405.97,264.219L408.791,263.101L409.587,261.81L407.371,261.034L406.114,259.485L406.549,258.02L407.773,256.913L408.115,255.618L408.676,255.153L408.719,253.796L409.226,252.157L410.094,251.811L412.914,251.984L413.928,252.415L415.302,253.796L414.434,255.521L414.072,256.899L414.289,257.848L415.663,257.589L418.847,257.675L419.28,259.829L422.365,259.772L422.869,259.036L424.313,258.578L427.167,259.504L429.053,259.963L429.931,259.645L430.642,258.292L430.707,257.012L430.304,255.929L429.407,255.089L428.974,252.329L429.106,251.461L430.131,253.192L431.042,253.17L432.994,254.593L434.894,255.434L437.335,255.887L439.126,256.598L440.97,258.085L440.428,261.702L442.651,264.477L444.334,267.315L448.892,267.186L448.132,269.055L447.806,272.456L449.65,274.966L450.682,276.125z"/>
		<path id="MA-06" title="Casablanca-Settat" class="land" d="M379.145,234.954L379.656,235.873L381.345,236.004L382.22,237.505L382.551,238.709L382.578,240.697L383.755,242.7L383.373,243.528L384.657,243.478L384.414,247.148L386.729,247.062L387.307,246.198L388.804,246.198L389.205,246.13L389.405,247.407L389.839,248.185L391.492,248.033L394.686,248.271L392.877,250.43L391.72,251.466L391.72,252.415L393.021,253.624L393.383,254.658L392.515,255.952L391.72,259.313L391.575,262.067L390.715,262.545L389.246,263.102L388.364,263.989L387.822,270.195L387.076,273.093L384.771,274.38L384.5,276.712L383.617,279.927L383.143,283.379L382.601,284.343L382.396,285.787L383.21,288.112L383.956,289.395L384.904,289.521L384.473,290.712L384.527,291.965L384.224,294.759L383.011,297.797L382.736,299.028L382.134,300.033L380.305,301.786L380.407,303.334L380.386,303.785L379.832,302.887L378.43,302.728L376.938,301.982L375.4,301.609L373.365,300.81L372.01,299.638L371.513,297.772L370.337,297.026L368.348,296.813L366.539,297.879L363.16,298.233L362.622,297.68L361.67,298.156L360.592,296.372L359.991,294.587L359.056,292.968L357.998,292.56L357.021,290.59L356.604,289.336L355.481,288.292L350.986,288.247L350.377,287.686L349.656,286.132L349.466,285L348.9,283.972L347.814,282.637L347.204,280.907L345.601,281.121L344.688,282.156L344.465,283.291L344.927,284.381L344.6,285.516L343.21,286.595L343.216,287.81L344.284,289.451L344.496,290.562L344.232,291.838L343.567,291.843L342.906,292.505L342.228,293.763L341.255,294.468L340.698,295.294L339.559,295.815L338.766,296.502L338.644,297.295L337.355,298.415L335.863,299.134L334.202,298.871L333.146,299.325L332.812,301.851L331.659,302.81L329.159,303.522L327.964,303.522L326.156,303.863L325.576,302.159L324.202,300.71L324.058,298.919L324.491,297.811L323.769,295.421L322.467,294.312L320.44,294.142L318.415,294.312L315.449,294.91L313.931,295.593L312.339,295.421L310.893,293.885L308.577,292.006L308.577,289.785L309.518,289.101L309.951,288.16L309.951,287.134L309.445,285.765L308.36,284.995L306.914,285.251L305.761,284.959L307.313,283.35L309.856,281.188L310.774,280.601L313.583,277.511L316.106,274.895L317.689,272.591L318.418,272.128L319.178,270.762L321.912,267.527L322.661,266.223L322.038,265.307L322.355,264.642L323.959,262.858L324.624,262.682L325.142,261.489L326.271,260.773L327.369,261.515L328.456,261.452L330.905,260.083L332.964,258.222L334.135,256.411L334.673,255.958L337.397,255.354L339.054,254.335L341.197,253.856L343.625,252.598L345.262,252.057L347.563,250.847L348.522,250.759L349.853,250.192L350.94,249.272L352.819,248.314L353.801,248.352L355.269,247.709L356.968,246.676L358.562,245.49L360.24,244.922L361.591,245.149L362.921,244.506L364.135,244.266L364.768,243.636L368.156,240.946L368.674,240.227L369.254,240.567L370.722,240.037L370.943,239.456L372.548,238.356L373.846,237.118L374.553,236.877L375.271,236.119L376.612,236.056z"/>
		<path id="MA-07" title="Marrakech-Safi" class="land" d="M380.386,303.785L380.362,304.277L379.985,305.691L380.754,309.214L380.357,310.811L380.148,314.106L380.555,316.495L381.64,317.556L382.814,318.193L383.047,319.37L382.664,320.42L383.114,320.951L382.967,321.727L384.889,324.075L385.422,325.009L384.699,327.296L383.83,328.735L379.997,328.989L378.332,329.413L377.32,329.413L376.669,328.481L375.873,327.888L374.426,328.228L372.69,330.174L372.081,330.258L371.808,331.096L372.225,332.349L374.354,332.374L375.223,333.219L376.081,336.086L378.501,336.632L379.853,336.601L380.358,337.952L379.78,339.725L378.146,342.956L377.017,343.177L376.51,343.767L376.51,344.689L375.303,345.428L373.782,347.727L373.311,348.175L370.793,348.731L367.293,348.926L365.43,349.827L364.13,351.247L362.187,351.519L360.234,353.287L358.886,354.07L357.632,354.128L356.221,354.725L354.441,355.933L352.358,358.117L349.662,359.574L349.848,360.425L349.564,361.603L347.807,362.992L347.557,364.816L346.607,366.705L344.979,367.333L343.24,365.358L343.44,364.343L342.231,363.338L341.192,363.934L338.063,365.132L335.078,367.648L333.315,368.749L331.688,368.591L329.517,367.176L325.043,366.644L322.576,367.033L321.259,368.281L319.913,368.438L319.558,367.508L318.26,369.063L317.175,369.534L316.769,368.119L317.175,365.918L316.875,363.777L316.291,362.76L314.839,362.676L313.346,364.435L310.953,365.9L309.078,366.502L308.766,370.634L306.459,369.22L304.785,368.624L302.828,368.444L301.498,368.929L301.577,370.477L300.627,371.891L299.135,371.263L298.4,369.714L297.05,370.152L295.684,369.866L294.798,369.068L292.301,369.34L291.618,369.812L290.584,369.963L289.272,369.251L288.396,369.161L287.84,368.704L288.107,367.671L287.717,367.394L286.326,369.388L284.623,370.164L283.673,371.734L282.317,372.363L280.554,372.363L279.604,371.577L279.864,367.363L279.641,366.799L278.496,365.481L276.785,363.915L276.637,362.754L277.208,361.234L276.606,359.053L276.922,357.691L275.952,357.115L276.067,355.667L276.986,353.273L276.701,352.941L276.87,350.952L277.566,349.612L277.788,347.843L277.661,346.121L276.922,344.743L275.994,344.596L276.279,343.451L277.947,341.567L278.96,339.67L278.854,338.87L279.889,337.909L281.841,335.11L282.327,333.58L282.168,330.753L283.277,329.902L286.338,325.8L286.75,325.614L290.466,320.814L294.403,316.394L294.825,316.034L295.427,314.46L295.691,312.365L298.003,309.573L298.414,307.674L297.834,306.134L298.657,304.159L298.414,303.152L297.263,302.679L296.936,300.889L298.024,299.57L298.878,297.592L299.153,296.109L297.633,294.328L297.084,293.108L298.562,292.036L299.607,290.988L301.148,289.804L303.386,287.732L305.761,284.959L306.914,285.251L308.36,284.995L309.445,285.765L309.951,287.134L309.951,288.16L309.518,289.101L308.577,289.785L308.577,292.006L310.893,293.885L312.339,295.421L313.931,295.593L315.449,294.91L318.415,294.312L320.44,294.142L322.467,294.312L323.769,295.421L324.491,297.811L324.058,298.919L324.202,300.71L325.576,302.159L326.156,303.863L327.964,303.522L329.159,303.522L331.659,302.81L332.812,301.851L333.146,299.325L334.202,298.871L335.863,299.134L337.355,298.415L338.644,297.295L338.766,296.502L339.559,295.815L340.698,295.294L341.255,294.468L342.228,293.763L342.906,292.505L343.567,291.843L344.232,291.838L344.496,290.562L344.284,289.451L343.216,287.81L343.21,286.595L344.6,285.516L344.927,284.381L344.465,283.291L344.688,282.156L345.601,281.121L347.204,280.907L347.814,282.637L348.9,283.972L349.466,285L349.656,286.132L350.377,287.686L350.986,288.247L355.481,288.292L356.604,289.336L357.021,290.59L357.998,292.56L359.056,292.968L359.991,294.587L360.592,296.372L361.67,298.156L362.622,297.68L363.16,298.233L366.539,297.879L368.348,296.813L370.337,297.026L371.513,297.772L372.01,299.638L373.365,300.81L375.4,301.609L376.938,301.982L378.43,302.728L379.832,302.887z"/>
		<path id="MA-08" title="Drâa-Tafilalet" class="land" d="M498.041,290.414L498.792,291.544L500.039,291.898L501.396,293.366L500.83,295.634L500.252,295.526L499.475,296.567L500.491,297.367L504.673,298.7L505.804,300.564L506.256,306.953L506.935,308.682L511.341,309.575L510.324,312.534L512.021,312.003L513.829,310.409L514.896,309.155L517.59,309.457L518.237,310.674L519.819,311.339L522.306,311.87L524.453,311.472L529.087,308.682L527.618,311.472L526.375,315.189L526.375,316.649L528.522,323.806L531.574,325.527L528.975,327.248L525.715,329.023L525.987,330.316L526.463,330.941L531.726,330.877L531.78,333.668L522.448,333.605L521.525,334.049L520.712,334.81L519.355,336.965L516.806,338.992L515.395,339.309L513.116,340.701L511.325,340.448L510.188,339.047L508.964,339.456L508.313,341.144L508.964,343.759L508.964,344.434L508.241,345.108L506.866,345.193L505.998,345.699L505.419,346.457L505.926,348.9L505.926,350.922L505.419,353.11L504.552,353.784L504.334,354.961L505.347,355.634L506.793,355.13L508.386,355.634L508.475,356.821L509.181,357.232L510.338,356.307L510.316,358.056L511.495,358.146L511.795,359.302L512.925,360.351L514.168,360.876L514.394,362.32L511.907,365.861L509.76,367.433L508.29,369.267L506.935,371.231L504.222,374.241L503.317,376.203L503.126,378.357L498.165,379.687L492.439,380.019L485.801,382.497L480.613,387.65L477.66,387.694L473.365,391.996L463.983,397.725L462.953,399.25L461.047,400.631L455.496,405.361L454.775,405.593L453.272,405.479L452.187,406.476L450.4,409.327L449.138,410.118L448.49,411.124L447.737,411.271L446.707,414.134L443.67,416.622L441.119,419.107L438.624,424.82L437.973,426.619L438.02,427.876L437.538,429.969L436.562,430.65L435.043,430.588L434.338,429.72L434.175,427.984L432.98,427.55L430.92,427.674L429.943,424.82L429.075,424.759L428.152,425.317L427.339,426.495L426.362,427.178L424.355,427.24L421.1,428.17L418.658,428.666L413.559,428.729L412.147,427.86L410.9,426.806L408.947,426.495L407.319,425.938L406.071,426.309L404.661,425.503L404.608,424.705L404.522,423.629L405.201,421.921L405.337,418.039L403.844,417.105L402.895,417.105L402.895,415.863L404.794,412.752L403.98,411.353L403.166,409.172L404.93,407.46L407.665,405.24L407.591,403.564L406.286,403.564L404.93,403.096L403.844,403.875L402.081,404.499L400.86,404.031L400.86,402.472L402.081,401.225L402.623,399.352L400.86,398.104L399.233,397.167L399.369,394.98L401.637,392.647L402.781,392.287L403.347,391.115L403.008,390.203L401.087,387.465L397.896,388.272L396.613,387.585L396.904,384.464L396.452,383.813L395.774,383.682L394.306,384.855L393.174,386.16L392.271,386.682L391.253,386.682L389.219,385.247L388.992,390.854L387.862,389.811L385.941,390.203L384.472,390.725L384.322,391.721L382.027,391.133L380.29,389.942L378.933,388.769L377.576,387.856L376.221,388.248L375.655,390.072L374.186,393.589L372.151,395.152L372.151,397.446L373.941,399.955L373.725,401.079L372.748,400.767L371.988,399.643L370.735,398.262L369.438,397.364L368.082,398.536L367.194,398.635L366.822,396.495L359.64,396.373L359.954,395.805L361.438,394.507L362.427,393.869L362.069,391.948L361.256,390.072L360.307,388.978L358.407,389.603L358.136,387.413L357.187,385.378L359.085,385.378L361.392,384.909L362.477,382.559L365.731,382.559L363.832,379.423L362.883,378.954L361.392,377.542L361.527,373.933L356.509,373.619L357.322,371.577L358.949,369.849L360.578,368.434L356.237,368.119L356.645,361.669L358.271,359.779L355.017,360.095L355.152,357.573L356.509,355.997L356.859,354.456L357.632,354.128L358.886,354.07L360.234,353.287L362.187,351.519L364.13,351.247L365.43,349.827L367.293,348.926L370.793,348.731L373.311,348.175L373.782,347.727L375.303,345.428L376.51,344.689L376.51,343.767L377.017,343.177L378.146,342.956L379.402,345.707L380.995,345.791L382.08,345.285L382.624,344.563L383.855,344.847L383.96,345.791L385.118,347.14L387.36,347.14L389.314,346.802L393.364,346.465L394.45,345.285L394.504,339.136L396.454,338.78L397.43,339.472L399.311,339.894L401.119,339.472L402.132,338.543L403.578,337.867L406.183,337.698L407.557,336.516L409.004,334.741L410.867,333.05L412.918,332.254L414.357,332.627L415.659,331.951L417.539,332.035L421.591,329.497L422.604,327.211L423.906,325.263L424.99,325.009L427.232,325.179L428.517,324.308L429.532,321.756L429.587,320.102L428.827,318.957L426.766,317.493L426.874,315.837L428.013,313.034L428.909,312.62L433.574,312.492L434.389,311.281L435.039,307.772L436.558,307.006L440.193,307.262L442.472,308.219L443.068,307.645L442.037,306.624L441.712,305.283L442.092,304.325L442.254,302.983L441.44,301.769L439.759,301.45L439.296,300.56L439.972,299.546L440.094,298.483L440.938,297.249L444.877,297.615L444.877,294.031L447.643,294.031L449,289.354L448.837,280.239L450.302,278.697L451.046,277.87L451.128,277.873L452.863,275.493L453.569,275.043L454.709,275.107L455.685,275.493L456.878,275.557L457.583,274.979L458.019,274.013L459.049,270.085L459.862,269.118L462.032,269.634L463.01,269.441L464.474,268.152L466.093,268.536L466.628,269.479L467.563,270.098L469.447,272.221L469.572,273.559L469.094,274.307L468.979,275.372L469.346,276.264L470.84,277.431L472.556,278.131L473.411,277.845L474.709,277.962L475.964,277.503L478.405,277.428L479.68,277.648L480.863,278.708L481.806,280.744L483.341,281.731L485.775,284.057L486.826,285.235L487.012,286.959L486.928,288.693L488.85,291.364L490.432,291.898L493.145,291.364L494.049,290.429L494.528,289.414L495.913,288.858L497.231,289.439z"/>
		<path id="MA-09" title="Souss-Massa" class="land" d="M404.608,424.705L403.493,425.211L401.684,426.525L400.103,426.448L398.496,426.134L398.292,426.505L396.14,426.646L394.612,427.179L393.639,428.485L392.473,429.072L390.326,428.813L389.479,428.178L388.152,428.079L387.48,427.616L385.08,427.636L384.676,427.281L383.148,427.705L381.606,427.262L379.912,426.446L378.314,426.439L375.618,427.688L371.197,430.062L368.959,431.146L364.823,431.534L361.217,432.795L360.187,433.617L360.248,434.641L359.462,435.643L355.548,437.246L354.122,438.017L351.902,439.979L349.837,440.997L348.534,441.952L347.625,442.946L347.517,443.455L345.983,444.509L342.986,446.229L341.964,447.104L339.723,448.518L339.21,448.393L337.482,449.677L336.545,450.641L334.294,452.267L332.515,453.824L329.515,457.047L328.381,457.915L326.832,458.516L321.228,461.226L320.59,461.437L320.619,472.34L320.6,478.403L318.681,478.132L310.406,467.851L310.271,463.854L305.524,462.932L305.253,459.7L302.676,459.7L302.133,458.007L302.54,455.543L303.625,452.924L300.234,452.924L300.777,450.302L298.742,449.067L298.2,446.599L299.691,445.518L302.133,445.672L303.218,445.055L303.489,442.429L304.846,441.811L304.981,438.873L302.631,437.198L301.862,435.935L301.184,431.755L298.606,427.416L292.91,426.795L292.367,429.586L291.554,430.516L290.198,430.05L288.977,431.289L288.434,429.12L286.671,428.035L283.551,430.979L281.381,428.501L278.94,429.741L277.041,431.91L274.6,429.895L273.786,424.313L270.259,426.795L268.806,422.746L269.808,421.143L270.494,420.404L270.61,419.753L272.457,417.794L274.273,416.222L276.342,414.104L276.521,413.512L277.968,411.513L277.894,411.076L279.013,409.32L281.557,403.402L282.506,402.214L283.098,400.271L283.689,397.465L283.826,395.958L284.407,392.334L285.22,388.124L284.628,387.076L283.921,387.258L282.876,386.186L282.105,383.603L281.229,381.883L279.846,381.53L279.604,380.53L278.2,378.944L276.88,378.285L275.308,378.321L274.167,378.04L274.262,376.722L274.79,374.915L275.667,374.023L275.593,373.497L276.437,372.104L277.345,369.916L277.302,369.059L276.532,368.484L277.26,366.478L276.785,365.681L276.785,363.915L278.496,365.481L279.641,366.799L279.864,367.363L279.604,371.577L280.554,372.363L282.317,372.363L283.673,371.734L284.623,370.164L286.326,369.388L287.717,367.394L288.107,367.671L287.84,368.704L288.396,369.161L289.272,369.251L290.584,369.963L291.618,369.812L292.301,369.34L294.798,369.068L295.684,369.866L297.05,370.152L298.4,369.714L299.135,371.263L300.627,371.891L301.577,370.477L301.498,368.929L302.828,368.444L304.785,368.624L306.459,369.22L308.766,370.634L309.078,366.502L310.953,365.9L313.346,364.435L314.839,362.676L316.291,362.76L316.875,363.777L317.175,365.918L316.769,368.119L317.175,369.534L318.26,369.063L319.558,367.508L319.913,368.438L321.259,368.281L322.576,367.033L325.043,366.644L329.517,367.176L331.688,368.591L333.315,368.749L335.078,367.648L338.063,365.132L341.192,363.934L342.231,363.338L343.44,364.343L343.24,365.358L344.979,367.333L346.607,366.705L347.557,364.816L347.807,362.992L349.564,361.603L349.848,360.425L349.662,359.574L352.358,358.117L354.441,355.933L356.221,354.725L356.859,354.456L356.509,355.997L355.152,357.573L355.017,360.095L358.271,359.779L356.645,361.669L356.237,368.119L360.578,368.434L358.949,369.849L357.322,371.577L356.509,373.619L361.527,373.933L361.392,377.542L362.883,378.954L363.832,379.423L365.731,382.559L362.477,382.559L361.392,384.909L359.085,385.378L357.187,385.378L358.136,387.413L358.407,389.603L360.307,388.978L361.256,390.072L362.069,391.948L362.427,393.869L361.438,394.507L359.954,395.805L359.64,396.373L366.822,396.495L367.194,398.635L368.082,398.536L369.438,397.364L370.735,398.262L371.988,399.643L372.748,400.767L373.725,401.079L373.941,399.955L372.151,397.446L372.151,395.152L374.186,393.589L375.655,390.072L376.221,388.248L377.576,387.856L378.933,388.769L380.29,389.942L382.027,391.133L384.322,391.721L384.472,390.725L385.941,390.203L387.862,389.811L388.992,390.854L389.219,385.247L391.253,386.682L392.271,386.682L393.174,386.16L394.306,384.855L395.774,383.682L396.452,383.813L396.904,384.464L396.613,387.585L397.896,388.272L401.087,387.465L403.008,390.203L403.347,391.115L402.781,392.287L401.637,392.647L399.369,394.98L399.233,397.167L400.86,398.104L402.623,399.352L402.081,401.225L400.86,402.472L400.86,404.031L402.081,404.499L403.844,403.875L404.93,403.096L406.286,403.564L407.591,403.564L407.665,405.24L404.93,407.46L403.166,409.172L403.98,411.353L404.794,412.752L402.895,415.863L402.895,417.105L403.844,417.105L405.337,418.039L405.201,421.921L404.522,423.629z"/>
		<path id="MA-10" title="Guelmim-Oued Noun" class="land" d="M268.806,422.746L270.259,426.795L273.786,424.313L274.6,429.895L277.041,431.91L278.94,429.741L281.381,428.501L283.551,430.979L286.671,428.035L288.434,429.12L288.977,431.289L290.198,430.05L291.554,430.516L292.367,429.586L292.91,426.795L298.606,427.416L301.184,431.755L301.862,435.935L302.631,437.198L304.981,438.873L304.846,441.811L303.489,442.429L303.218,445.055L302.133,445.672L299.691,445.518L298.2,446.599L298.742,449.067L300.777,450.302L300.234,452.924L303.625,452.924L302.54,455.543L302.133,458.007L302.676,459.7L305.253,459.7L305.524,462.932L310.271,463.854L310.406,467.851L318.681,478.132L320.6,478.403L320.641,495.312L320.623,506.191L320.423,508.845L320.451,515.7L320.354,522.043L320.462,529.334L320.392,536.74L319.268,536.712L313.616,535.702L308.869,534.188L297.567,515.222L295.081,515.475L293.046,517.755L286.716,518.262L284.229,516.488L280.839,515.981L274.057,506.851L267.953,509.39L263.885,505.581L260.946,501.517L257.781,501.008L255.746,500.501L249.869,503.042L247.834,501.263L240.601,501.517L228.394,501.517L226.359,503.804L224.551,503.55L220.03,500.754L212.42,500.696L210.538,498.466L208.756,495.59L208.41,494.161L207.489,491.804L206.354,490.392L204.827,489.036L202.5,482.867L204.066,482.141L206.451,481.294L208.531,480.71L212.278,478.957L214.39,477.597L215.149,475.891L216.585,474.553L217.187,473.229L218.379,472.272L218.738,471.186L220.354,469.286L222.349,467.671L224.112,465.459L225.631,464.383L226.888,462.994L227.647,462.574L229.115,460.658L229.115,460.229L230.223,459.438L231.754,458.863L233.358,457.929L237.845,455.638L244.463,451.944L248.981,449.051L250.585,447.838L252.57,445.364L253.224,444.99L253.816,443.682L255.072,441.769L256.993,439.651L257.088,439.278L258.724,437.678L260.381,436.835L261.775,435.499L262.091,434.475L263.042,432.728L264.044,431.257L265.564,429.702L266.335,427.964L267.032,427.276L267.401,425.49L268.235,423.521z"/>
		<path id="MA-11" title="Laâyoune-Sakia El Hamra" class="land" d="M202.5,482.867L204.827,489.036L206.354,490.392L207.489,491.804L208.41,494.161L208.756,495.59L210.538,498.466L212.42,500.696L220.03,500.754L224.551,503.55L226.359,503.804L228.394,501.517L240.601,501.517L247.834,501.263L249.869,503.042L255.746,500.501L257.781,501.008L260.946,501.517L263.885,505.581L267.953,509.39L274.057,506.851L280.839,515.981L284.229,516.488L286.716,518.262L293.046,517.755L295.081,515.475L297.567,515.222L308.869,534.188L313.616,535.702L319.268,536.712L320.392,536.74L320.427,564.121L320.344,577.039L308.758,577.069L297.177,576.969L289.453,577.026L286.571,576.938L281.893,577.043L281.476,576.983L274.181,577.034L261.679,576.953L255.746,576.994L243.884,576.938L237.991,577.004L210.481,577.002L197.051,577.03L193.811,576.997L193.767,582.691L193.831,588.313L193.721,627.705L193.835,639.835L193.22,639.533L186.89,638.052L181.69,638.793L177.169,641.016L173.101,641.757L166.771,639.781L158.181,636.816L149.365,637.558L143.939,637.063L140.322,636.321L132.863,641.757L123.821,639.533L117.717,637.804L115.23,638.052L112.066,636.321L108.901,638.546L105.962,638.546L103.023,640.521L100.537,638.793L95.79,642.004L93.077,640.027L91.721,635.827L89.46,634.343L84.939,635.332L83.519,632.018L84.415,631.231L84.214,629.603L84.975,626.504L85.64,625.127L86.389,622.686L86.273,621.169L86.547,620.185L86.769,616.432L85.978,615.401L86.136,614.625L85.809,613.58L86.146,612.073L85.809,610.275L86.613,607.757L86.463,606.468L87.076,605.364L87.001,604.714L87.825,603.018L88.036,601.309L89.018,599.671L90.137,598.461L91.435,596.054L91.814,594.854L91.868,592.945L92.681,591L92.797,589.906L93.546,587.82L93.841,586.455L94.602,585.942L96.396,583.343L96.573,582.664L97.821,580.472L99.109,577.098L99.415,575.428L99.489,572.984L98.897,571.64L99.933,569.336L101.643,566.924L102.624,565.883L105.495,565.285L108.651,562.731L110.15,560.822L111.005,559.053L113.855,558.864L116.59,558.126L118.807,557.105L121.012,555.217L123.05,554.138L126.776,551.896L130.217,549.711L131.98,548.348L134.155,546.079L134.587,545.469L137.004,540.08L137.49,537.903L137.986,536.36L139.981,531.41L140.424,527.694L141.101,526.749L142.694,523.656L143.676,522.356L144.911,519.531L146.135,515.865L147.223,513.249L147.708,511.082L148.173,509.97L148.437,508.239L149.608,505.637L149.882,505.038L151.055,504.6L151.667,504.019L153.271,503.402L154.054,502.726L154.917,500.85L155.636,500.28L156.617,496.885L157.514,495.469L158.359,495.078L159.108,494.091L161.874,493.864L162.434,493.604L168.535,492.914L173.422,492.058L174.003,491.819L176.357,491.428L180.885,490.476L182.817,490.179L184.136,489.81L186.596,489.477L192,487.93L192.201,487.607L194.893,486.263L195.579,485.762L197.563,484.846L200.065,483.916z"/>
		<path id="MA-12" title="Dakhla-Oued Ed-Dahab" class="land" d="M83.519,632.018L84.939,635.332L89.46,634.343L91.721,635.827L93.077,640.027L95.79,642.004L100.537,638.793L103.023,640.521L105.962,638.546L108.901,638.546L112.066,636.321L115.23,638.052L117.717,637.804L123.821,639.533L132.863,641.757L140.322,636.321L143.939,637.063L149.365,637.558L158.181,636.816L166.771,639.781L173.101,641.757L177.169,641.016L181.69,638.793L186.89,638.052L193.22,639.533L193.835,639.835L193.771,644.66L193.845,650.431L193.81,655.989L193.958,660.344L193.958,682.858L191.065,683.278L189.244,683.287L189.15,683.569L180.334,688.223L171.518,689.691L155.469,700.692L150.967,709.195L150.458,711.717L150.419,712.563L150.712,715.956L151.921,728.749L152.458,733.906L153.874,748.961L154.179,752.865L154.76,759.018L155.413,764.793L155.891,769.65L151.807,769.567L139.631,769.413L122.408,769.264L109.496,769.182L109.118,769.227L95.289,769.131L93.191,769.199L86.482,769.132L66.072,769.15L46.626,769.229L30.211,769.399L10.469,769.66L7.021,769.669L6.245,769.82L5.084,774.112L4.436,776.188L3.835,778.819L2.439,781.423L2.099,783.855L1.431,786.168L1.425,789.531L1.721,792L0.707,789.989L0,789.687L0.981,787.698L0.306,786.193L0.813,784.43L1.51,783.025L1.478,779.843L2.27,776.489L2.027,776.028L2.132,774.531L2.597,771.931L2.892,771.243L2.702,770.095L2.924,768.473L3.462,766.748L3.536,765.012L4.212,762.857L4.223,761.718L4.634,760.354L4.497,758.649L4.919,756.876L4.634,753.895L5.5,752.924L5.848,751.873L5.268,751.692L5.204,750.731L5.658,749.239L7.347,747.282L7.991,745.688L7.854,744.816L8.508,743.673L9.3,741.161L9.659,740.595L10.144,738.851L10.64,737.831L11.285,735.826L12.72,734.976L12.477,734.205L13.173,733.207L13.965,732.708L16.056,730.384L17.143,730.452L17.776,731.473L18.853,731.37L20.659,730.795L22.125,730.032L23.149,729.215L23.117,728.273L23.804,727.66L24.479,726.435L24.785,724.743L24.764,723.744L25.693,721.086L26.97,720.257L28.279,718.824L28.459,716.914L28.923,715.868L29.039,714.229L28.892,712.842L29.208,711.658L29.937,709.996L30.908,708.653L31.013,707.924L30.432,707.184L31.003,705.862L31.784,705.748L33.811,704.904L34.57,704.302L35.975,702.591L36.375,701.759L36.576,700.163L36.048,698.623L35.056,697.813L34.106,697.801L34.781,696.342L35.732,695.666L36.967,694.161L37.621,692.961L37.558,691.979L38.212,691.271L39.669,688.769L39.416,688.025L40.683,686.975L42.044,685.545L43.786,682.078L42.889,680.613L44.124,679.869L44.915,678.678L45.506,678.324L46.678,675.734L47.279,675.529L48.05,674.154L49.475,672.344L50.267,670.622L51.576,669.544L51.872,668.604L51.597,667.572L51.987,666.32L52.97,664.794L52.579,663.737L53.328,661.692L52.79,661.464L51.565,663.289L50.204,663.989L49.518,665.563L48.462,666.298L47.755,666.218L45.971,668.708L45.116,672.113L44.271,673.442L43.29,674.143L42.635,675.334L42.086,675.597L41.727,674.817L42.54,673.558L43.543,672.595L43.543,671.746L44.599,670.816L45.116,668.708L45.581,667.835L46.974,666.32L48.293,664.655L50.931,662.438L54.816,660.383L57.424,658.522L58.036,657.464L58.163,656.44L58.859,656.096L59.957,654.992L61.751,652.771L64.084,650.365L65.837,649.203L67.6,647.533L69.922,644.399L70.229,643.73L71.432,642.221L72.677,641.206L73.606,640.088L75.644,639.014L76.783,638.645L79.116,637.606L79.708,637.074L80.172,635.748L80.499,634.132L82.325,633.115z"/>
	</g>
</svg>