<?xml version="1.0" encoding="utf-8"?>
<!-- (c) ammap.com | SVG map of Panama - Low -->
<svg xmlns="http://www.w3.org/2000/svg" xmlns:amcharts="http://amcharts.com/ammap" xmlns:xlink="http://www.w3.org/1999/xlink" version="1.1">
	<defs>
		<style type="text/css">
			.land
			{
				fill: #CCCCCC;
				fill-opacity: 1;
				stroke:white;
				stroke-opacity: 1;
				stroke-width:0.5;
			}
		</style>

		<amcharts:ammap projection="mercator" leftLongitude="-83.046766" topLatitude="9.631211" rightLongitude="-77.173517" bottomLatitude="7.203706"></amcharts:ammap>

		<!-- All areas are listed in the line below. You can use this list in your script. -->
		<!--{id:"PA-1"},{id:"PA-2"},{id:"PA-3"},{id:"PA-4"},{id:"PA-5"},{id:"PA-6"},{id:"PA-7"},{id:"PA-8"},{id:"PA-9"},{id:"PA-10"},{id:"PA-EM"},{id:"PA-KY"},{id:"PA-NB"}-->

	</defs>
	<g>
		<path id="PA-1" title="Bocas del Toro" class="land" d="M100.29,611.781l-0.903,2.599l-3.3,-0.331l-3.538,1.814l-2.339,4.207l-1.238,-4.828l-2.538,-0.533l0.231,-2.325l1.776,0.592l0.339,-3.485l-4.407,-2.646l-3.678,-0.349l-0.358,-2.261l-2.045,-0.709l-1.392,0.79l-1.807,-1.135l-0.069,-2.631l4.617,-3.017l-2.389,-3.712l0.539,-1.661l-2.454,-0.977l-1.826,0.972l-0.461,2.359l-3.998,6.961l-2.359,0.014l-0.963,1.435l-2.82,1.029l1.758,1.85l6.228,1.534l2.167,2.054l1.827,4.97l-1.417,1.053l-1.662,6.779l-1.657,-0.283l-7.478,-2.791l-4.528,-2.754l-2.87,0.33l-2.002,1.856l-3.619,-4.235l-3.044,-0.808l-2.96,1.146l-1.475,-0.748l-1.274,2.408l-4.152,-1.712l-2.485,-0.397l-0.926,-1.571l1.35,-3.188l-2.604,-2.411l0.118,-1.897l-3.587,-2.012l-2.681,-0.006l-1.902,-2.645l-1.847,-0.432l-4.466,-2.592l-0.964,-3.146l-4.289,1.724l-0.885,-0.492l0.014,-9.508l-0.363,-31.419l9.281,-2.242l-1.133,-2.563l-1.533,-0.48l0.426,-3.089l-1.59,-1.346l0.954,-2.73l1.552,-0.314l0.534,-2.141l2.207,-0.191l2.704,2.396l1.291,-0.718l4.93,1.769l0.604,2.013l4.784,3.191l0.152,2.229l1.972,1.513l4.16,0.353l3.219,-1.218l0.846,-2.665l-0.604,-1.68l1.654,-0.948l1.692,0.82l1.264,-2.099l2.495,1.977l9.814,8.784l5.854,4.985l3.729,0.351l-0.29,3.47l-2.638,1.688l-0.749,3.354l3.647,2.558l-1.534,3.242l-3.33,-0.874l0.006,1.576l2.423,1.973l0.64,2.629l3.219,3.493l2.542,0.762l0.897,-1.341l2.316,0.204l2.084,2.01l4.458,-4.662l3.938,4.342l1.129,2.942l-1.969,0.437l-1.534,-1.835l-3.127,-0.583l-2.257,0.525l-1.478,1.923l0.03,5.768l2.489,1.281l-0.319,7.717l3.851,2.127l4.632,-0.263l3.474,0.495l0.26,1.892l2.49,3.962L100.29,611.781zM80.43,557.884l1.592,0.757l0.406,2.042l2.2,3.266l-0.347,2.099l-1.681,0.758l-5.123,-2.215l-1.159,-2.479l-1.533,-0.379l0.984,-2.566L80.43,557.884zM88.188,566.25l2.257,1.865l3.244,0.06l2.576,2.856l1.361,-0.408l2.113,1.281l-1.072,1.633l-3.126,1.546l-1.014,2.446l-2.083,-4.166l-3.706,-0.904l2.142,-3.264l-3.358,-0.554L88.188,566.25zM78.809,572.954l3.271,1.604l2.259,3.089l-2.866,2.011l-0.29,2.273l-2.923,-2.711l-0.406,-2.098L78.809,572.954zM95.976,579.278l0.811,0.496l2.026,4.137l1.679,1.981l-1.592,2.622l-2.808,1.165l-3.591,-2.068l-0.058,-3.438l1.708,-4.225L95.976,579.278zM103.706,585.076l3.938,3.496l-1.998,1.895l-2.461,-2.914L103.706,585.076zM108.994,608.697l-1.268,1.11l-0.53,2.605l-3.677,2.779l-2.229,-0.441l-0.287,-2.502l0.792,-1.339L108.994,608.697z"/>
		<path id="PA-2" title="Coclé" class="land" d="M240.01,641.991L242.981,641.693L243.738,639.669L246.031,639.479L244.035,635.039L244.44,632.272L246.149,629.643L245.708,627.736L252.119,624.345L252.651,625.496L257.699,625.608L259.892,622.832L260.135,617.68L258.827,615.276L259.983,614.281L260.445,610.296L266.647,612.315L268.916,612.165L271.109,614.495L273.317,615.266L275.805,615.089L279.319,616.27L280.313,613.782L292.608,607.401L295.235,607.1L295.728,602.417L295.108,598.593L298.442,601.38L298.049,602.307L299.342,606.966L303.291,607.778L302.377,609.944L303.225,611.045L301.917,613.574L299.873,615.695L301.24,627.124L304.311,630.803L305.515,634.344L305.927,638.177L305.144,641.616L307.045,647.46L305.916,652.208L307.873,654.98L307.264,659.624L309.753,662.731L311.26,666.913L304.3,670.839L298.655,674.56L291.592,677.611L287.191,677.698L284.962,676.942L282.791,677.64L280.156,677.407L278.188,678.57L274.742,678.6L270.892,682.871L270.226,684.877L267.794,685.777L267.648,688.974L266.781,690.165L266.694,694.523L267.563,697.632L267.186,699.113L265.941,699.172L265.449,697.951L264.307,698.3L262.91,697.368L259.65,697.657L257.585,696.031L253.418,695.869L251.917,697.013L247.252,696.572L246.956,694.732L243.539,691.512L246.167,683.791L245.668,681.972L247.702,678.592L248.572,675.462L244.89,674.092L243.333,671.935L243.192,668.337L240.793,665.727L239.862,661.735L236.779,659.173L236.689,656.952L235.4,654.908L231.728,651.681L233.513,649.676L235.997,651.379L238.192,649.013L239.738,645.489z"/>
		<path id="PA-3" title="Colón" class="land" d="M413.34,545.637l-0.9,8.011l-1.303,-0.527l-4.055,2.853l-3.232,7.004l-2.766,0.581l-4.915,3.519l-0.629,0.97l-1.453,-1.956l1.183,-2.898l-1.814,-1.96l0.999,-1.555l-2.439,-1.122l-2.188,-1.99l-4.51,2.538l-1.349,-1.474h-1.961l0.364,-3.011l-1.876,-1.732l0.851,-2.023l-1.824,-1.077l-1.877,1.592l-3.122,-2.081l-3.119,3.634l-2.508,-0.215l-2.579,0.999l-1.124,6.161l-1.159,1.082l-1.409,3.705l0.444,3.513l-0.694,1.078l-1.563,2.187v0.582l-0.812,3.848l-0.087,0.757l-0.289,1.778l-0.173,-0.204l-1.883,2.331l-0.55,2.331l-2.808,-0.524l-1.162,2.864l0.037,2.358l-1.409,0.677l-1.896,4.646l-0.168,0.176l-0.469,-0.232l-2.75,-0.146l-2.229,-1.02l-2.126,1.297l-2.973,-0.983l-1.883,-1.683l-0.177,-3.729l-3.342,-1.74l-1.621,0.378l-2.57,-0.831l-4.039,0.462l-2.509,2.71l-0.184,4.095l-3.152,2.524l2.847,6.096l-0.374,3.422l-0.872,2.199l-2.815,1.357l-6.235,-0.566l-4.261,-2.809l-2.446,3.152l-2.142,0.767l-3.949,-0.813l-1.293,-4.659l0.393,-0.927l-3.333,-2.787l0.62,3.824l-0.493,4.683l-2.626,0.302l-12.296,6.381l-0.993,2.487l-3.514,-1.181l-2.488,0.177l-2.208,-0.771l-2.193,-2.33l-2.269,0.15l-6.202,-2.02l-0.462,3.985l-1.156,0.995l1.308,2.403l-0.243,5.152l-2.193,2.776l-5.048,-0.112l-0.532,-1.151l-6.411,3.392l0.442,1.906l-1.709,2.63l-0.405,2.767l1.997,4.439l-2.293,0.19l-0.757,2.024l-2.971,0.298l2.006,-2.163l-0.343,-2.183l-1.848,-1.771l-0.999,-3.081l3,-2.248l-0.948,-2.52l-3.932,-4.369l-2.764,0.574l-6.433,-2.789l-1.355,-1.875l0.002,-3.028l0.377,-0.111l1.039,-0.307l3.766,-0.902l2.577,-2.679l1.39,-2.445l1.736,-0.844l1.042,-2.476l3.01,-2.446l3.532,-0.845l0.261,-1.455l2.056,-0.466l3.85,-2.797l2.665,-0.873l3.184,-1.922l4.922,-1.894l4.053,-2.155l3.126,0.058l1.303,-1.049l3.098,-0.465l1.593,-1.399l5.21,0.059l1.969,-1.194l4.631,-0.059l1.159,-1.34l3.821,-0.262l0.897,-1.341l6.37,-0.99l2.431,-1.428l2.432,-0.204l4.63,-2.622l2.028,-3.089l3.039,-3.177l3.099,-2.215l2.981,-5.043l3.387,-0.524l-0.116,5.713l3.186,0.291l0.058,-2.272l3.59,-2.974l-0.492,-2.799l1.331,-1.778l3.185,1.831l2.113,-0.985l2.78,-3.615l2.923,-1.428l2.549,-0.321l1.881,-2.216l0.087,-1.604l3.59,-2.042l0.289,-1.924l3.329,-3.472l-1.36,-2.187l2.317,-1.604l2.633,-2.801l3.271,1.167l3.938,-2.625l2.548,1.896l-0.984,2.247l4.574,0.409l5.037,-1.314l1.766,1.342l5.064,0.613l1.942,0.846l3.908,-0.496l2.72,1.487l1.795,-0.524l5.039,2.45l3.589,0.524l3.039,-1.75l1.824,0.788l6.398,-1.255L413.34,545.637zM342.312,592.534h0.058l-0.347,0.088L342.312,592.534z"/>
		<path id="PA-4" title="Chiriquí" class="land" d="M153.764,670.682l-1.17,2.362l0.912,2.29l-3.753,-1.017l0.401,0.939l0.892,2.322l1.425,0.071l1.274,0.505l-0.044,-2.844l1.631,-1.174l1.408,2.094l-1.606,3.207l2.944,1.86l-0.939,1.979l-1.95,1.189l0.245,2.845l-1.408,1.042l-1.26,1.039l-3.262,2.909l0.035,1.733l-1.457,4.877l-0.287,3.186l-1.417,1.593l1.088,1.232l-2.378,4.125l-2.01,-0.905l-3.793,-4.526l-0.578,-2.209l1.274,-1.191v-2.729l-3.474,-5.549l-2.75,-2.441l0.173,5.463h-2.577l-3.329,-2.237l-3.445,-0.871l-7.208,-2.47l-3.416,-0.319l-2.345,-1.192l-8.019,-1.946l-3.908,0.146l-2.171,-0.495l-2.982,2.063l-2.286,-1.802l-0.838,1.569l-2.666,0.204l-0.636,-1.628l-2.317,0.059l1.273,-4.767l-1.33,-2.44l1.506,-3.343l-1.216,-3.139l-1.593,1.598l-0.839,3.459l-2.635,1.105l-4.197,-3.575l-2.895,0.117l-1.447,3.777l-3.996,-0.494l-2.462,0.843l-1.851,-1.541l-1.332,-2.354l-2.171,3.371l-2.837,1.802l-3.503,-1.627l-11.782,-3.604l-2.142,-0.959l-7.208,0.465l-2.345,1.134l-8.193,1.976l-2.809,2.151l-1.621,2.761l-0.521,2.993l0.347,3.721l-0.289,3.34l0.376,3.661l1.708,2.876l0.407,2.382l-2.521,4.009l-1.976,-0.784l0.672,-6.934l-1.739,-4.029l-0.18,-5.591l-2.249,-1.446l0.588,-3.32l-1.692,-3.327l-3.269,-1.788l-1.654,1.422l-1.362,-2.108l-2.712,-1.627l-2.08,-0.333L0,672.975l1.707,-1.024l2.276,-0.019l3.009,-2.27l3.685,-4.564l1.858,-1.664l1.424,0.532l3.613,-0.862l1.962,-1.235l2.019,-3.423l0.634,-2.485l-0.517,-4.198l1.348,-1.771l-0.25,-6.688l-2.458,-3.432l-1.35,-3.166l-3.355,-2.324l-2.142,-3.459l0.635,-2.544l1.811,-0.388l0.582,-1.852l1.935,-0.617l-1.085,-3.794l2.179,-2.145l3.471,-0.479l2.08,-1.475l3.771,-0.728l2.47,-3.184l2.033,-1.084l0.926,1.571l2.485,0.397l4.152,1.712l1.274,-2.408l1.475,0.748l2.96,-1.146l3.044,0.808l3.619,4.235l2.002,-1.856l2.87,-0.33l4.528,2.754l7.478,2.791l4.353,1.463l3.217,0.251l4.139,5.051l2.556,-0.239l3.55,0.685l5.744,0.182l0.283,10.932l-0.225,5.811l-1.545,3.317l3.513,1.051l-1.799,1.568l-0.951,3.741l-2.447,2.598l0.484,4.251l8.391,-1.698l1.436,-2.259l2.147,2.807l0.592,3.105l1.174,0.867l2.089,-0.793l0.828,3.743l-0.711,2.759l2.322,2.673l1.704,0.043l0.676,1.698l3.817,-1.421l2.386,0.525l4.447,-0.498l4.661,0.163l-0.381,3.541l2.927,2.635l1.537,0.314l4.119,-0.601l2.106,1.763l2.388,-3.867l3.234,0.765l1.063,1.5l2.34,-2.982l1.39,-0.376l1.729,-5.183l2.164,-2.841L153.764,670.682zM153.617,681.617l-3.017,0.578l0.172,1.45l3.466,0.788l0.394,-2.458L153.617,681.617zM153.764,670.682l3.609,-2.133l2.334,3.047l0.598,5.172l-2.113,-0.705l-0.697,-2.771l-3.724,-1.276L153.764,670.682zM74.698,675.663l1.621,0.523l1.332,2.326l-2.692,0.319l-1.043,-1.686L74.698,675.663zM73.25,678.512l2.548,1.249l-1.158,2.297l-2.808,-2.528L73.25,678.512zM71.716,679.646l2.345,2.267l-0.434,2.035l-3.677,0.552l-1.853,1.278l-3.619,-2.993l4.429,-2.761L71.716,679.646zM79.387,684.324l4.198,1.133l-3.184,3.108l-4.112,-1.916L79.387,684.324zM75.566,693.941l-0.695,4.678l-4.226,0.697l0.492,-1.976l1.766,-2.469L75.566,693.941z"/>
		<path id="PA-5" title="Darién" class="land" d="M520.841,594.819l2.078,-0.345l4.433,2.141l2.991,3.291l2.332,1.632l2.057,0.501l0.236,2.174l4.992,3.532l-0.419,1.177l1.817,3.113l1.781,1.864l1.813,0.031l1.659,1.884l4.807,1.977l1.729,1.503l0.417,2.259l3.73,2.147l0.772,3.72l-1.489,1.101l-1.629,-1.046l-3.813,0.812l-2.754,2.982l-5.064,1.516l-0.575,2.576l-2.595,2.431l-0.58,2.191l-3.119,1.544l-0.927,1.651l0.222,2.83l1.084,3.179l2.363,1.469l0.837,1.776l-1.693,2.176l2.782,2.225l1.614,-0.495l0.416,3.036l1.972,1.079l0.946,3.683l-1.176,1.244l1.355,2.485l1.04,4.417l1.515,2.406l1.561,0.434l1.105,3.233l2.113,1.406l0.572,2.669l1.537,0.217l5.626,2.262l3.828,2.964l1.369,3.689l0.234,4.92l2.141,-0.478l2.294,1.958l1.565,2.738l1.108,0.041l4.253,-2.196l3.111,0.403l2.418,-0.588l-0.18,-1.465l2.851,-2.053l5.192,-0.31l1.559,-1.243l11.567,-2.645l0.122,1.976l1.705,1.271l-0.165,1.537l1.135,4.224l-0.857,3.529l1.012,3.215l1.802,1.918l0.924,4.895l1.697,2.569l-1.321,1.095l-3.427,0.22l-3.23,-0.64l-3.313,1.368l-1.944,-0.411l-2.087,0.993l-2.999,3.669l0.047,5.062l3.062,5.782l-0.013,2.498l-2.088,-0.416l-2.312,1.565l-2.634,2.846l-1.587,-0.581l-2.218,2.979l-2.758,2.671l-2.256,0.471l-0.233,2.081l-1.644,3.596l-2.338,0.303l-2.368,2.589l-0.159,1.795l-3.576,4.439l-2.568,-0.985l-2.372,-2.61l-0.4,-2.515l-1.892,-3.974l-1.202,-6.206l-3.354,-2.64l-1.779,-2.807l-2.653,-0.923l-2.229,1.559l-0.903,5.62l-1.204,2.582l0.836,2.719l4.347,10.688l-1.089,3.534l-2.158,0.976l-1.307,1.779l-5.471,-0.23l-2.394,6.756l-2.108,7.305l-2.434,9.773l-1.354,-0.155l-5.676,-4.463l-2.953,-2.87l-2.286,-1.247l0.028,-1.682l-2.171,-1.276l-1.882,-6.061l-0.637,-3.247l-2.982,0.725l-1.968,-3.133l-1.737,-0.29l-2.663,-3.132l0.464,-1.393l-5.849,-3.423l1.011,-2.205l0.35,-3.249l-1.563,-0.726l-2.461,1.103l1.101,-3.976l-3.85,-2.495l-0.116,-2.177l-3.185,-0.928l-3.012,-3.889l1.737,-1.509v-2.525l-5.703,-10.275l-0.926,-3.426l-5.038,-3.572l-1.997,-5.865l-1.216,-1.742l0.261,-2.991l-2.577,-4.328l-0.115,-2.236l2.635,-3.66l1.592,2.963l2.287,1.22l1.273,-0.64l3.677,1.162l3.938,-2.235l3.937,-3.226l1.447,-3.631l0.261,-4.039l-2.344,-1.075l-1.016,-2.033l-3.01,-3.168l2.576,-0.407l1.621,-1.831l-0.578,-1.278l1.969,-1.686l2.17,2.674l3.069,-0.959l1.939,-2.499l-0.811,-3.256l3.329,-5.407l0.405,-3.372l2.113,1.366l0.405,2.937l1.13,1.773l3.097,2.034l1.217,0.029l3.155,3.778l1.129,2.413l-0.116,2.093l2.085,3.312l4.399,0.582l0.435,-1.365l2.316,-1.425l-5.5,-0.378l-2.229,-1.656l-0.608,-4.04l-2.257,-3.313l-0.464,-2.093l-2.259,-4.593l-0.116,-3.053l-3.357,-4.158l-0.348,-1.425l1.738,-2.559l-3.069,-2.967l-0.059,2.239l2.085,1.337l-1.36,2.211l1.997,3.867l0.492,2.732l-0.812,1.019l-3.821,-5.612l-2.142,-0.494l-2.692,2.152l0.145,3.954l-2.981,1.075l-0.608,1.134l-3.908,0.174l-0.81,-2.325l3.85,-3.343l-3.908,-1.223l-2.026,1.658l-1.732,-0.236l-1.51,-2.875l-2.866,1.773l-2.287,3.082l-0.951,-0.703l-0.389,-6.977l-2.2,-5.003l-0.396,3.208l1.553,2.99l-0.063,5.488l2.278,2.271l0.227,1.661l-1.714,1.771l-0.429,4.275l-1.535,-1.6l-1.917,0.466l-0.161,-5.479l-2.026,-7.498l-1.942,-2.756l-0.165,-2.013l-1.577,-1.823l-1.343,-6.933l1.447,-1.056l0.346,-3.341l-2.512,-2.365l-1.597,-3.792l1.014,-3.996l2.199,-1.151l0.563,-3.953l-0.716,-1.758l3.521,-2.354l1.99,0.052l2.709,-1.117l4.398,0.57l1.31,2.586l1.648,1.246l3.214,-2.09l-0.245,-1.691l1.196,-1.692l1.924,0.397l3.629,-3.363l3.373,-0.092l3.392,1.674l2.525,-5.116l-0.224,-1.573l4.538,-2.107l-0.323,-3.213l1.833,-2.713l1.105,-2.996l2.442,-0.872L520.841,594.819zM500.938,710.288l-1.84,-0.997l-2.263,1.213l-1.842,2.01l-3.063,0.156l-1.173,1.965l1.006,2.107l-0.823,2.345l1.954,4.525l2.171,0.071l0.125,1.971l1.979,3.49l0.777,3.827l3.641,5.696l2.896,3.238l2.501,2.038l3.737,-1.542l2.151,0.597l3.219,2.652l1.249,-0.462l0.519,3.326l1.482,4.136l2.074,-1.16l0.183,-1.664l1.683,-0.949l1.186,-0.084l1.228,2.092l0.751,0.754l0.433,0.06l1.07,-0.359l1.188,-0.811l0.663,-1.019l1.095,-0.563l0.783,-0.692l0.094,-5.647l-1.341,-6.064l0.93,-2.61l-1.289,-3.504l-1.688,-0.12l-0.822,-4.017l-0.859,-1.076l-1.43,-6.237l-1.641,-4.301l-1.17,-0.748l-4.579,3.539l-0.977,-4.973l-2.181,-1.298l-1.652,-4.912l-0.597,-0.621l-2.794,-2.691l-0.526,-2.096l-1.251,-1.017l-1.624,-0.832l-4.715,2.984l-0.094,1.312l2.652,1.421l0.183,4.871l-0.356,0.817l-0.232,0.168l-0.486,0.081l-1.092,-0.076L500.938,710.288z"/>
		<path id="PA-6" title="Herrera" class="land" d="M247.252,696.572L251.917,697.013L253.418,695.869L257.585,696.031L259.65,697.657L262.91,697.368L264.307,698.3L265.479,698.125L265.825,699.288L266.896,699.52L268.547,700.943L269.01,703.558L271.181,706.549L277.174,709.104L279.316,708.466L276.443,710.18L277.491,711.835L274.715,714.375L270.958,716.177L267.907,715.476L263.008,719.905L261.107,725.642L260.105,726.705L256.73,727.746L254.932,729.577L256.46,734.695L258.084,735.713L258.758,739.052L256.436,744.296L251.983,745.332L247.224,753.072L241.77,759.718L240.922,760.074L237.742,756.828L233.21,756.044L230.956,753.592L223.74,741.639L222.919,736.994L223.635,735.641L221,733.893L217.569,733.899L220.518,722.104L223.41,716.541L226.756,716.916L228.4,713.045L229.648,712.71L231.893,707.111L230.38,705.793L229.669,702.895L230.308,701.992L234.73,702.372L238.94,701.104L241.392,698.943L242.474,696.237L244.148,695.688z"/>
		<path id="PA-7" title="Los Santos" class="land" d="M279.316,708.466L283.485,715.232L284.412,719.151L287.683,722.985L290.23,724.93L294.024,726.875L297.7,731.693L303.692,736.599L304.821,739.183L308.151,742.433L310.351,745.422L311.711,745.943L314.258,751.573L314.549,753.981L316.604,756.186L318.398,759.609L317.559,761.146L317.704,764.366L314.403,766.426L311.711,766.02L307.543,768.601L303.778,768.427L300.392,770.313L297.148,768.137L296.194,768.978L292.517,769.093L288.695,767.963L286.814,769.731L283.861,771.037L279.49,775.184L280.503,778.461L281.864,779.939L276.624,781.476L275.755,783.448L273.96,784.752L272.601,787.883L264.581,787.13L263.163,788.521L258.762,788.028L256.619,789.043L253.418,789.304L252.985,783.938L249.825,782.752L247.456,779.959L247.512,776.294L245.977,774.104L242.704,772.452L243.662,770.232L240.959,766.044L242.081,764.193L240.88,762.318L240.922,760.074L241.77,759.718L247.224,753.072L251.983,745.332L256.436,744.296L258.758,739.052L258.084,735.713L256.46,734.695L254.932,729.577L256.73,727.746L260.105,726.705L261.107,725.642L263.008,719.905L267.907,715.476L270.958,716.177L274.715,714.375L277.491,711.835L276.443,710.18z"/>
		<path id="PA-8" title="Panamá" class="land" d="M349.78,592.883l1.896,-4.646l1.409,-0.677l-0.037,-2.358l1.162,-2.864l2.808,0.524l0.55,-2.331l1.883,-2.331l0.173,0.204l0.289,-1.778l0.087,-0.757l0.812,-3.848v-0.582l1.563,-2.187l0.694,-1.078l-0.444,-3.513l1.409,-3.705l1.159,-1.082l1.124,-6.161l2.579,-0.999l2.508,0.215l3.119,-3.634l3.122,2.081l1.877,-1.592l1.824,1.077l-0.851,2.023l1.876,1.732l-0.364,3.011h1.961l1.349,1.474l4.51,-2.538l2.188,1.99l2.439,1.122l-0.999,1.555l1.814,1.96l-1.183,2.898l1.453,1.956l-2.023,1.019l-0.075,2.548l3.328,0.312l3.877,-2.389l2.669,-0.847l2.184,0.713l2.649,-0.801l2.519,0.496l1.486,1.508l-0.777,1.573l2.753,0.686l4.808,0.4l3.907,-0.76l2.06,-1.023l4.568,0.25l1.842,-1.676l-0.246,-1.882l2.004,-2.546l2.914,1.415l4.872,-3.078l7.626,2.259l2.939,-2.313l2.405,0.7l2.712,2.919l3.056,1.442l1.545,1.687l7.798,-0.766l2.486,-2.317l2.017,0.179l0.288,3.65l2.515,1.329l1.433,3.937l1.514,1.745l3.595,0.887l0.719,-3.016l1.958,-0.847l1.693,2.17l3.296,0.91l1.074,-1.134l2.78,-0.8l1.598,3.992l-0.427,1.443l4.999,2.791l2.825,-1.178l3.898,0.295l5.572,1.408l4.495,1.973l0.46,2.976l1.361,1.216l-0.406,2.183l2.159,1.135l-1.28,5.355l-2.442,0.872l-1.105,2.996l-1.833,2.713l0.323,3.213l-4.538,2.107l0.224,1.573l-2.525,5.116l-3.392,-1.674l-3.373,0.092l-3.629,3.363l-1.924,-0.397l-1.196,1.692l0.245,1.691l-3.214,2.09l-1.648,-1.246l-1.31,-2.586l-4.398,-0.57l-2.709,1.117l-1.99,-0.052l-3.521,2.354l0.716,1.758l-0.563,3.953l-2.199,1.151l-1.014,3.996l1.597,3.792l2.512,2.365l-0.346,3.341l-1.447,1.056l1.343,6.933l1.577,1.823l0.165,2.013l1.942,2.756l2.026,7.498l0.161,5.479l-5.06,-9.391l-2.866,-1.046l-0.231,-2.938l0.347,-4.74l-1.302,-2.064l-2.2,-1.425l-0.493,-2.007l1.391,-5.265l-0.753,-1.513l-5.472,-2.677l-0.318,-1.426l-2.113,-1.135l-1.534,1.63l-2.346,-3.608l-2.432,0.029l-1.911,-1.804l0.145,-2.503l-2.402,-0.261l-5.065,-2.532l-0.781,-3.987l-1.419,-0.786l-2.664,2.125l-1.157,-1.862l-3.677,0.058l-1.94,-1.746l-1.621,-3.639l-0.463,-2.678l-2.722,-2.097v-1.223l-5.529,-1.571l-7.613,-4.077l-1.071,0.321l-2.952,-1.485l-10.626,-2.621l-2.867,0.116l-8.887,-1.048l-6.021,0.116l-13.172,1.544l-1.187,0.466l-3.329,3.64l-3.012,2.184l-2.229,0.088l-1.794,-4.585l-3.452,-3.358l-2.827,-1.683l-2.976,-3.145l-1.846,-3.897L349.78,592.883zM342.369,592.534h-0.058l-0.289,0.088L342.369,592.534zM430.783,659.617l1.766,1.133l3.59,1.045l0.145,2.996l2.258,1.658l0.26,1.773l-1.91,0.93l1.621,4.128l-1.823,4.709l-3.909,-0.378l-1.07,-0.843l-3.243,3.167l-2.894,-1.54l-0.927,-1.889l1.708,-0.785l0.115,-3.197l-1.795,-2.093l1.245,-2.647l-1.36,-4.068l-0.029,-2.559l4.807,-0.002L430.783,659.617zM409.795,663.978l3.299,3.807l-0.811,1.688l-2.778,-1.541l-1.071,-2.094L409.795,663.978zM441.523,670.199l-3.012,-0.64l1.158,-2.413l1.622,1.308L441.523,670.199zM410.951,675.693l2.114,3.167l0.348,3.284h-2.259l-1.997,4.97l-2.316,-3.72l1.794,-3.691l-0.462,-1.714L410.951,675.693z"/>
		<path id="PA-9" title="Veraguas" class="land" d="M226.396,616.539l-0.002,3.028l1.355,1.875l6.433,2.789l2.764,-0.574l3.932,4.369l0.948,2.52l-3,2.248l0.999,3.081l1.848,1.771l0.343,2.183l-2.006,2.163l-0.271,3.498l-1.546,3.523l-2.195,2.366l-2.484,-1.703l-1.785,2.005l3.672,3.228l1.289,2.044l0.09,2.221l3.083,2.563l0.932,3.991l2.398,2.61l0.142,3.598l1.557,2.157l3.682,1.37l-0.87,3.13l-2.034,3.38l0.499,1.819l-2.629,7.721l3.417,3.221l0.296,1.84l-3.104,-0.885l-1.674,0.55l-1.082,2.706l-2.452,2.161l-4.21,1.268l-4.422,-0.38l-0.639,0.902l0.711,2.898l1.513,1.318l-2.244,5.599l-1.249,0.335l-1.644,3.871l-3.346,-0.375l-2.892,5.563l-2.948,11.796l3.431,-0.007l2.635,1.748l-0.716,1.354l0.821,4.645l7.216,11.953l2.255,2.452l4.532,0.784l3.18,3.246l-0.042,2.244l1.201,1.875l-1.122,1.851l2.703,4.188l-0.958,2.22l3.273,1.651l1.535,2.19l-0.056,3.665l2.369,2.793l3.161,1.186l0.433,5.366l-2.271,-0.115l-3.821,1.507l-4.139,1.073l-6.833,-1.073l-2.576,1.073l-2.78,-0.841l-0.752,0.754L224.92,792l-1.129,-3.653l-4.344,-1.826l1.998,-2.232l-0.637,-1.942l1.158,-2.638l2.547,-0.726l-0.202,-2.146l-2.056,-3.944l-1.39,-1.334l-0.55,-2.406l1.708,-1.943l-3.271,-4.67l-2.434,-1.307l1.189,-1.798l0.375,-4.873l-2.606,-2.699l0.667,-1.305l-3.3,-3.715l-3.186,-1.421l-1.621,-2.642l2.172,-2.061l-2.027,-2.524l1.766,-3.222l-2.287,-0.028l-3.476,-2.178l0.291,-2.612l2.49,-2.99l0.029,-4.325l-1.506,-0.726l-3.444,3.222l-3.127,-0.203l-3.851,-1.654l-0.752,3.658l1.476,1.654l0.145,3.339l-1.245,2.815l-2.981,1.799l-1.159,2.206l2.635,0.145l-0.058,1.712l-1.478,2.671l1.246,1.741l-1.158,3.075l-2.143,1.597l-1.794,-2.147l-3.33,-0.465l-2.026,-2.843l-4.342,0.028l-4.893,-1.684l-4.371,-0.435l-0.637,-1.712l-3.156,-1.307l-4.517,0.406l-2.779,-2.061l3.56,-1.857l-0.145,-1.653l-4.342,-0.93l-1.997,1.625l-1.014,-3.744l-1.794,-0.929l1.042,-7.81h-3.359l1.911,-2.381l-2.315,-0.319l-0.811,-4.385l-1.708,-1.073l-1.447,-3.485l-2.056,-2.589l2.01,0.905l2.378,-4.125l-1.088,-1.232l1.417,-1.593l0.287,-3.186l1.457,-4.877l-0.035,-1.733l3.262,-2.909l1.256,3.274l3.279,-0.139l0.903,1.097l3.094,-1.377l0.269,-1.847l-1.998,-2.048l-2.063,1.657l-3.479,-1.657l1.408,-1.042l-0.245,-2.845l1.95,-1.189l0.939,-1.979l1.862,-1.561l-0.392,-2.226l-1.355,-1.45l2.113,0.705l-0.598,-5.172l-2.334,-3.047l0.097,-2.32l1.355,-0.918l2.401,0.87l2.683,-0.177l1.632,1.286l1.158,-3.982l2.279,-0.08l0.543,-2.353l2.242,-3.947l1.72,0.373l1.866,4.418l1.941,0.544l-1.817,-6.667l2.622,-3.011l1.102,1.8l2.625,-1.007l1.753,2.497l-1.776,3.185l4.478,0.437l-1.745,-3.319l2.253,-0.24l2.214,5.063l4.053,0.267l2.281,-1.776l0.132,-5.104l-1.335,-1.363l-1.895,0.255l-0.919,-2.604l-2.552,-4.366l0.045,-5.52l0.611,-3.496l1.176,-2.166l-1.063,-5.172l1.457,-3.267l0.016,-0.059l10.377,-2.416l4.749,-0.261l1.273,-1.281l3.156,-0.989l3.387,-0.204l4.14,-2.125l1.273,-1.193l3.186,-0.116l1.679,-1.834L226.396,616.539zM167.684,680.293l-2.169,-1.771l-1.419,-3.145l-2.146,4.722l-1.513,0.397l1.839,2.9l2.905,0.135L167.684,680.293zM172.44,668.195l-0.805,1.646l-1.361,1.577l-1.817,-1.306l-0.487,1.141l0.322,0.851l1.774,0.308l3.627,2.118l0.691,-0.096l2.651,-0.457l1.347,-2.482l-0.388,-1.856l-0.929,-0.273l-0.648,-1.021l-2.689,0.032l-0.446,-1.257L172.44,668.195zM199.675,733.493l2.547,1.742l0.029,3.105l-1.911,-0.203L199.675,733.493zM130.513,773.182l-3.995,-3.827l-3.329,-2.61l-0.956,-4.438l-1.678,-2.582l2.865,-0.377l2.2,-3.916l-0.086,-2.118l1.563,-1.799l2.49,-0.465l1.794,-2.756l2.201,-2.118l3.589,1.189l0.753,3.511l-0.116,2.524l1.708,3.569l2.664,-0.378l0.694,2.959l-0.666,1.306l-3.241,0.869l-1.391,5.831l2.113,1.334l1.911,4.002l1.969,0.146l3.763,-0.986l2.982,4.321l0.869,2.957l-2.084,-0.203l-2.953,1.16l-5.095,-2.436l-3.301,-0.986l-3.733,-0.202l-1.652,-0.87L130.513,773.182zM203.265,752.501l4.284,0.231l1.187,0.784l-1.418,2.959l-2.606,1.741l-4.227,-2.089l-7.121,5.947l-3.068,0.521l-1.188,-3.365l1.969,-1.044l4.284,-0.464l2.23,-3.047L203.265,752.501zM191.396,753.169l2.664,1.827l-4.111,1.073L191.396,753.169zM127.821,782.578l3.243,0.29l0.405,2.609l-1.824,2.638l-1.968,-3.073L127.821,782.578z"/>
		<path id="PA-10" title="Panamá Oeste" class="land" d="M349.623,593.049L351.469,596.946L354.444,600.091L357.271,601.773L360.724,605.132L361.245,607.475L363.416,612.278L362.691,614.665L357.481,615.48L355.629,616.325L351.835,616.411L347.464,618.246L344.541,620.021L343.47,622.902L341.819,624.679L341.239,627.444L342.254,628.316L342.514,631.08L344.251,632.855L342.804,634.775L343.238,636.348L341.616,638.034L336.116,640.216L334.697,641.643L336.782,643.329L339.734,644.668L345.931,643.62L339.996,648.563L331.687,650.862L330.5,653.247L327.837,654.266L326.476,655.777L323.407,657.318L321.844,660.488L315.302,664.82L311.26,666.913L309.753,662.731L307.264,659.624L307.873,654.98L305.916,652.208L307.045,647.46L305.144,641.616L305.927,638.177L305.515,634.344L304.311,630.803L301.24,627.124L299.873,615.695L301.917,613.574L303.225,611.045L302.377,609.944L303.291,607.778L305.433,607.012L307.879,603.859L312.14,606.668L318.375,607.234L321.19,605.877L322.063,603.678L322.437,600.256L319.59,594.16L322.742,591.636L322.926,587.541L325.435,584.831L329.474,584.369L332.044,585.2L333.665,584.822L337.007,586.563L337.184,590.291L339.066,591.974L342.039,592.957L344.165,591.66L346.394,592.68L349.144,592.826L349.612,593.059z"/>
		<path id="PA-EM" title="Emberá" class="land" d="M604.626,690.646l-11.567,2.645l-1.559,1.243l-5.192,0.31l-2.851,2.053l0.18,1.465l-2.418,0.588l-3.111,-0.403l-4.253,2.196l-1.108,-0.041l-1.565,-2.738l-2.294,-1.958l-2.141,0.478l-0.234,-4.92l-1.369,-3.689l-3.828,-2.964l-5.626,-2.262l-1.537,-0.217l-0.572,-2.669l-2.113,-1.406l-1.105,-3.233l-1.561,-0.434l-1.515,-2.406l-1.04,-4.417l-1.355,-2.485l1.176,-1.244l-0.946,-3.683l-1.972,-1.079l-0.416,-3.036l-1.614,0.495l-2.782,-2.225l1.693,-2.176l-0.837,-1.776l-2.363,-1.469l-1.084,-3.179l-0.222,-2.83l0.927,-1.651l3.119,-1.544l0.58,-2.191l2.595,-2.431l0.575,-2.576l5.064,-1.516l2.754,-2.982l3.813,-0.812l1.629,1.046l4.707,1.433l3.441,2.226l1.691,4.06l1.664,0.073l2.468,1.462l0.354,1.304l-1.307,2.836l2.796,4.201l1.521,0.704l2.091,-0.861l1.565,0.557l2.387,5.616l2.091,1.97l1.82,2.678l0.143,2.161l4.127,0.128l2.485,3.979l1.725,1.508l3.096,5.959l-0.977,3.461l2.053,3.887l0.191,2.452l2.141,2.231l0.652,2.641l2.585,0.55l1.515,1.548L604.626,690.646zM509.155,700.878l0.526,2.096l2.794,2.691l0.597,0.621l1.652,4.912l2.181,1.298l0.977,4.973l4.579,-3.539l1.17,0.748l1.641,4.301l1.43,6.237l0.859,1.076l0.822,4.017l1.688,0.12l1.289,3.504l-0.93,2.61l1.341,6.064l-0.094,5.647l-0.783,0.692l-1.095,0.563l-0.663,1.019l-1.188,0.811l-1.07,0.359l-0.433,-0.06l-0.751,-0.754l-1.228,-2.092l-1.186,0.084l-1.683,0.949l-0.183,1.664l-2.074,1.16l-1.482,-4.136l-0.519,-3.326l-1.249,0.462l-3.219,-2.652l-2.151,-0.597l-3.737,1.542l-2.501,-2.038l-2.896,-3.238l-3.641,-5.696l-0.777,-3.827l-1.979,-3.49l-0.125,-1.971l-2.171,-0.071l-1.954,-4.525l0.823,-2.345l-1.006,-2.107l1.173,-1.965l3.063,-0.156l1.842,-2.01l2.263,-1.213l1.84,0.997l1.201,0.319l1.092,0.076l0.486,-0.081l0.232,-0.168l0.356,-0.817l-0.183,-4.871l-2.652,-1.421l0.094,-1.312l4.715,-2.984l1.624,0.832L509.155,700.878z"/>
		<path id="PA-KY" title="Guna Yala" class="land" d="M582.048,654.1L579.957,652.13L577.57,646.514L576.005,645.957L573.914,646.818L572.393,646.114L569.597,641.913L570.903,639.077L570.55,637.773L568.082,636.312L566.418,636.238L564.727,632.179L561.285,629.953L556.578,628.521L558.067,627.42L557.295,623.7L553.564,621.553L553.147,619.294L551.418,617.791L546.611,615.814L544.952,613.931L543.14,613.899L541.358,612.035L539.541,608.922L539.96,607.745L534.968,604.213L534.731,602.039L532.675,601.538L530.343,599.906L527.352,596.615L522.919,594.475L520.841,594.819L518.682,593.685L519.088,591.502L517.727,590.286L517.267,587.311L512.771,585.338L507.199,583.93L503.301,583.635L500.476,584.813L495.477,582.021L495.903,580.578L494.306,576.586L491.525,577.386L490.451,578.52L487.155,577.609L485.462,575.439L483.504,576.286L482.785,579.302L479.19,578.415L477.677,576.67L476.244,572.733L473.729,571.404L473.441,567.754L471.425,567.575L468.938,569.893L461.141,570.658L459.596,568.972L456.54,567.529L453.828,564.61L451.423,563.91L448.483,566.223L440.857,563.964L435.985,567.042L433.071,565.627L431.067,568.173L431.313,570.055L429.472,571.73L424.903,571.48L422.844,572.504L418.937,573.264L414.129,572.863L411.376,572.178L412.153,570.604L410.667,569.097L408.148,568.601L405.499,569.401L403.315,568.688L400.646,569.535L396.77,571.924L393.441,571.612L393.517,569.064L395.54,568.046L396.169,567.076L401.084,563.558L403.85,562.977L407.082,555.973L411.137,553.12L412.439,553.647L413.34,545.637L418.421,544.791L424.674,544.703L423.893,546.861L421.867,547.824L416.568,547.97L414.166,550.828L413.934,553.831L416.221,558.205L417.784,557.126L420.216,557.884L422.705,556.368L425.832,556.019L430.261,557.622L430.782,559.429L436.4,559.837L438.946,557.972L439.699,559.05L443.404,558.146L443.781,556.688L446.328,557.563L450.15,556.134L451.336,557.768L456.692,559.75L457.821,558.788L463.757,559.927L465.87,557.65L468.186,558.116L472.095,560.333L476.553,560.449L476.986,561.616L480.837,561.732L481.792,563.686L488.914,566.717L491.375,566.862L493.836,569.021L498.699,570.535L499.279,571.38L503.649,573.653L507.559,573.509L512.189,575.432L514.648,577.405L520.557,578.142L522.549,579.332L522.554,580.678L524.956,581.931L525.564,583.707L531.297,587.232L532.802,590.787L537.435,594.748L539.055,595.621L540.531,593.758L541.922,595.709L545.771,598.476L545.888,600.923L551.62,604.62L550.723,608.609L554.429,612.977L555.325,615.742L557.411,616.354L562.766,622.232L564.618,623.311L565.371,621.244L568.093,624.533L570.264,625.959L570.438,628.637L573.767,628.316L573.94,631.488L573.158,634.311L580.048,638.297L585.433,639.663L586.881,638.354L588.994,638.063L589.646,640.927L588.867,644.546L584.068,649.406z"/>
		<path id="PA-NB" title="Ngöbe-Buglé" class="land" d="M190.989,626.687l-1.457,3.267l1.063,5.172l-1.176,2.166l-0.611,3.496l-0.045,5.52l2.552,4.366l0.919,2.604l1.895,-0.255l1.335,1.363l-0.132,5.104l-2.281,1.776L189,660.999l-2.214,-5.063l-2.253,0.24l1.745,3.319l-4.478,-0.437l1.776,-3.185l-1.753,-2.497l-2.625,1.007l-1.102,-1.8l-2.622,3.011l1.817,6.667l-1.941,-0.544l-1.866,-4.418l-1.72,-0.373l-2.242,3.947l-0.543,2.353l-2.279,0.08l-1.158,3.982l-1.632,-1.286l-2.683,0.177l-2.401,-0.87l-1.355,0.918l-0.097,2.32l-3.609,2.133l-2.166,-1.729l-2.164,2.841l-1.729,5.183l-1.39,0.376l-2.34,2.982l-1.063,-1.5l-3.234,-0.765l-2.388,3.867l-2.106,-1.763l-4.119,0.601l-1.537,-0.314l-2.927,-2.635l0.381,-3.541l-4.661,-0.163l-4.447,0.498l-2.386,-0.525l-3.817,1.421l-0.676,-1.698l-1.704,-0.043l-2.322,-2.673l0.711,-2.759l-0.828,-3.743l-2.089,0.793l-1.174,-0.867l-0.592,-3.105l-2.147,-2.807l-1.436,2.259l-8.391,1.698l-0.484,-4.251l2.447,-2.598l0.951,-3.741l1.799,-1.568l-3.513,-1.051l1.545,-3.317l0.225,-5.811l-0.283,-10.932l-5.744,-0.182l-3.55,-0.685l-2.556,0.239l-4.139,-5.051l-3.217,-0.251l-4.353,-1.463l1.657,0.283l1.662,-6.779l1.417,-1.053l-1.827,-4.97l-2.167,-2.054l-6.228,-1.534l-1.758,-1.85l2.82,-1.029l0.963,-1.435l2.359,-0.014l3.998,-6.961l0.461,-2.359l1.826,-0.972l2.454,0.977l-0.539,1.661l2.389,3.712l-4.617,3.017l0.069,2.631l1.807,1.135l1.392,-0.79l2.045,0.709l0.358,2.261l3.678,0.349l4.407,2.646l-0.339,3.485l-1.776,-0.592l-0.231,2.325l2.538,0.533l1.238,4.828l2.339,-4.207l3.538,-1.814l3.3,0.331l0.903,-2.599l0.713,0.468l0.287,2.502l2.229,0.441l3.677,-2.779l0.53,-2.605l1.268,-1.11l2.007,1.689l4.604,-0.408l1.129,-0.932l0.202,-3.669l2.403,0.786l0.984,2.213l3.561,-0.729l3.098,0.902l2.605,2.359l1.912,-0.961l1.563,-3.61l-1.361,-2.999l-4.719,-1.515l-3.85,-3.874l-1.216,-3.146l-2.519,-2.213l-4.893,-2.768l2.664,-1.398l1.592,1.311l2.519,-1.864l-3.474,-0.728l-0.261,-2.36l3.85,0.088l2.895,4.282l2.635,1.806l-0.984,2.01l1.447,3.816l6.601,0.786l1.332,1.98l3.156,1.485l2.49,4.688l4.893,6.201l6.311,6.782l5.414,4.541l3.878,1.95l2.086,-1.02l4.804,1.427l2.083,-0.844l3.475,0.669l2.75,1.514l3.097,-0.407l2.664,0.523l1.216,-1.135l5.211,-0.378L190.989,626.687zM173.728,668.377l2.689,-0.032l0.648,1.021l0.929,0.273l0.388,1.856l-1.347,2.482l-2.651,0.457l-0.691,0.096l-3.627,-2.118l-1.774,-0.308l-0.322,-0.851l0.487,-1.141l1.817,1.306l1.361,-1.577l0.805,-1.646l0.842,-1.075L173.728,668.377zM158.077,681.299l-2.944,-1.86l1.606,-3.207l-1.408,-2.094l-1.631,1.174l0.044,2.844l-1.274,-0.505l-1.425,-0.071l-0.892,-2.322l-0.401,-0.939l3.753,1.017l-0.912,-2.29l1.17,-2.362l0.007,1.333l3.724,1.276l0.697,2.771l1.355,1.45l0.392,2.226L158.077,681.299zM167.684,680.293l-2.504,3.238l-2.905,-0.135l-1.839,-2.9l1.513,-0.397l2.146,-4.722l1.419,3.145L167.684,680.293zM154.632,681.976l-0.394,2.458l-3.466,-0.788l-0.172,-1.45l3.017,-0.578L154.632,681.976zM154.025,688.354l3.479,1.657l2.063,-1.657l1.998,2.048l-0.269,1.847l-3.094,1.377l-0.903,-1.097l-3.279,0.139l-1.256,-3.274L154.025,688.354z"/>
	</g>
</svg>