<?xml version="1.0" encoding="utf-8"?>
<!-- (c) ammap.com | SVG map of Panama - High -->
<svg xmlns="http://www.w3.org/2000/svg" xmlns:amcharts="http://amcharts.com/ammap" xmlns:xlink="http://www.w3.org/1999/xlink" version="1.1">
	<defs>
		<style type="text/css">
			.land
			{
				fill: #CCCCCC;
				fill-opacity: 1;
				stroke:white;
				stroke-opacity: 1;
				stroke-width:0.5;
			}
		</style>

		<amcharts:ammap projection="mercator" leftLongitude="-83.050528" topLatitude="9.631462" rightLongitude="-77.143517" bottomLatitude="7.203706"></amcharts:ammap>

		<!-- All areas are listed in the line below. You can use this list in your script. -->
		<!--{id:"PA-1"},{id:"PA-2"},{id:"PA-3"},{id:"PA-4"},{id:"PA-5"},{id:"PA-6"},{id:"PA-7"},{id:"PA-8"},{id:"PA-9"},{id:"PA-10"},{id:"PA-EM"},{id:"PA-KY"},{id:"PA-NB"}-->

	</defs>
	<g>
		<path id="PA-1" title="Bocas del Toro" class="land" d="M100.626,611.899l-0.902,2.598l-3.297,-0.331l-3.536,1.813l-1.074,1.937l0.066,1.685l-1.33,0.583l-0.906,-1.523l0.407,-1.025l-0.739,-2.276l-2.536,-0.533l0.231,-2.323l1.775,0.592l0.339,-3.483l-1.636,-0.778l-2.768,-1.866l-3.676,-0.348l-0.358,-2.26l-2.044,-0.708l-1.392,0.79l-1.805,-1.135l-0.404,-1.601l0.335,-1.028l4.614,-3.015l0.804,-1.775l-0.921,-0.744l-1.023,0.888l-1.246,-2.078l0.539,-1.659l-2.453,-0.977l-1.825,0.971l-0.461,2.358l-1.354,0.903l0.238,1.383l-1.686,2.953l-1.295,0.397l0.102,1.319l-2.358,0.015l-0.962,1.433l-2.818,1.029l0.172,0.982l1.585,0.865l6.223,1.534l2.166,2.052l0.862,2.779l0.791,0.751l0.173,1.436l-1.416,1.053l-0.856,3.302l0.054,2.174l-0.859,1.3l-1.656,-0.283l-1.206,-0.749l-2.653,-0.633l-1.45,-0.834l-2.164,-0.574l-1.436,-1.234l-1.242,-0.287l-1.846,-1.23l-2.868,0.33l-2,1.855l-1.929,-1.697l-1.688,-2.535l-3.042,-0.807l-2.958,1.144l-1.474,-0.747l-1.273,2.406l-1.232,-1.02l-0.876,0.441l-2.042,-1.132l-0.602,-1.969l-1.881,1.571l-0.925,-1.57l0.703,-0.375l0.815,-1.784l-0.169,-1.027l-2.602,-2.41l0.117,-1.896l-3.584,-2.011l-2.679,-0.005l-1.901,-2.644l-1.846,-0.432l-2.14,-1.271l-0.328,-0.858l-1.995,-0.461l-0.95,-1.913l-0.013,-1.229l-4.287,1.722l-0.884,-0.492l-0.114,-8.875l0.127,-0.626l-0.362,-31.399l2.841,-0.857l6.434,-1.383l0.286,-0.839l-1.418,-1.723l-1.532,-0.48l-0.114,-1.39l0.54,-1.697l-1.259,-0.313l-0.331,-1.031l0.833,-1.197l0.121,-1.531l1.551,-0.313l0.534,-2.14l2.206,-0.192l0.648,1.051l2.053,1.345l1.291,-0.717l1.386,0.819l0.051,1.262l1.913,-0.589l1.577,0.275l0.604,2.011l3.032,2.46l1.749,0.729l0.152,2.229l1.468,0.563l0.502,0.948l2.2,-0.23l1.958,0.582l0.292,-0.729l1.881,0.352l1.043,-0.839l0.845,-2.663l-0.604,-1.678l0.375,-0.923l1.278,-0.025l1.691,0.82l0.591,1.05l1.449,-0.839l-1.169,-1.172l0.393,-1.138l2.493,1.977l9.808,8.778l5.85,4.981l2.02,0.438l1.707,-0.087l-0.29,3.467l-2.636,1.688l-1.038,2.42l0.289,0.932l3.645,2.556l0.694,1.552l-1.325,0.205l-0.903,1.483l-3.327,-0.873l0.006,1.575l1.151,1.628l1.271,0.344l0.636,1.06l0.003,1.567l3.217,3.49l2.541,0.761l0.897,-1.34l2.314,0.204l0.203,1.136l1.88,0.873l1.215,-0.757l0.869,-1.515l1.244,1.253l0.983,-0.874l-0.868,-1.922l1.012,-0.844l2.199,0.641l-0.086,1.164l1.823,2.533l-0.376,0.612l1.505,2.329l-1.968,0.436l-1.533,-1.834l-1.62,0.234l-1.505,-0.816l-2.256,0.524l0.115,1.63l-1.592,0.292l0.203,3.405l-1.215,0.902l1.042,1.456l2.488,1.28l-0.231,1.571l-0.088,6.141l1.187,0.873l1.707,0.263l0.955,0.99l2.576,-0.176l0.057,-1.135l1.996,1.048l3.472,0.495l0.26,1.891l1.736,1.892l0.752,2.066l2.43,-0.263L100.626,611.899zM80.779,558.038l1.591,0.756l0.405,2.041l2.198,3.264l-0.347,2.097l-1.679,0.757l-2.109,-0.319l-0.204,-0.933l-2.807,-0.961l-1.158,-2.477l-1.532,-0.379l0.983,-2.564l1.101,0.118l2.632,-1.341L80.779,558.038zM88.532,566.398l0.03,0.904l2.226,0.959l1.563,-0.436l1.678,0.495l1.042,1.69l1.533,1.164l1.36,-0.407l2.112,1.28l0.75,1.895l-1.822,-0.263l-3.124,1.545l-1.013,2.445l-0.896,0.697l-1.244,-1.25l1.041,-1.573l-0.983,-2.038l-2.546,-1.079l-1.158,0.176l-2.661,-2.709l3.79,1.02l0.608,0.786l1.765,0.466l0.317,-1.164l-1.678,-1.66l-3.356,-0.554l-0.201,-1.865L88.532,566.398zM79.159,573.099l0.521,0.729l2.749,0.873l1.128,1.077l1.128,2.01l-2.864,2.01l1.244,1.34l-1.534,0.932l-2.922,-2.709l-0.405,-2.097L79.159,573.099zM96.315,579.419l0.811,0.495l2.025,4.134l-0.145,1.019l1.823,0.961l-0.955,0.874l-0.637,1.747l0.087,1.455l-1.621,-0.582l-1.272,0.291l-1.505,-1.368l-2.083,-0.699l0.347,-2.271l-0.404,-1.165l1.243,-2.038l-0.231,-1.135l0.694,-1.049L96.315,579.419zM104.04,585.213l2.111,2.271l1.824,1.222l-0.551,1.572l-1.446,0.32l-1.737,-1.602l-0.723,-1.31L104.04,585.213zM92.294,587.163l1.157,1.95l-1.332,0.962l-0.925,-1.136L92.294,587.163zM109.324,608.817l-1.267,1.11l-0.53,2.604l-3.674,2.777l-2.228,-0.441l-0.287,-2.5l0.792,-1.339l4.05,-1.018l1.996,-1.222L109.324,608.817z"/>
		<path id="PA-2" title="Coclé" class="land" d="M240.254,642.09L242.156,642.331L243.224,641.792L243.98,639.769L246.272,639.579L245.734,637.477L244.844,636.9L244.276,635.143L244.682,632.378L245.333,631.974L246.39,629.749L245.948,627.844L249.419,625.779L249.63,624.711L252.355,624.455L252.887,625.605L257.932,625.718L259.612,625.484L259.036,624.199L260.124,622.943L259.926,620.279L260.366,617.794L259.059,615.393L260.215,614.397L260.157,613.208L260.941,611.846L260.676,610.415L262.381,609.834L262.999,611.092L264.192,611.03L265.132,611.9L266.875,612.434L269.141,612.283L271.333,614.611L273.54,615.382L276.026,615.205L279.538,616.385L280.531,613.899L292.818,607.523L295.443,607.221L295.936,602.542L295.873,600.528L295.317,598.72L295.798,597.619L297.827,599.996L298.648,601.505L298.255,602.432L299.099,604.647L299.547,607.088L301.583,607.822L302.701,608.859L303.494,607.899L302.58,610.064L303.428,611.164L302.121,613.691L300.078,615.812L300.592,620.392L299.936,621.943L300.805,623.22L301.444,627.232L303.273,630.133L304.513,630.908L304.745,632.907L305.717,634.447L305.549,635.436L306.128,638.277L305.362,640.396L305.346,641.715L306.668,645.063L307.245,647.556L306.84,650.083L306.051,650.956L306.117,652.3L308.073,655.071L307.245,658.731L307.464,659.711L309.951,662.816L310.168,664.17L311.458,666.996L309.218,668.42L304.502,670.918L302.767,672.313L298.861,674.637L294.521,676.728L291.802,677.687L290.066,677.919L289.313,677.425L287.404,677.773L286.999,677.076L285.177,677.018L283.007,677.715L280.374,677.482L278.407,678.645L274.963,678.674L273.142,680.504L272.476,682.188L271.116,682.943L270.45,684.947L268.02,685.848L267.528,687.619L267.875,689.041L267.008,690.231L266.747,692.062L266.921,694.587L267.789,697.693L267.412,699.175L266.169,699.232L265.677,698.013L264.535,698.361L263.14,697.431L259.38,699.191L259.882,697.72L257.818,696.095L256.166,695.773L253.653,695.932L252.154,697.074L249.873,697.112L249.484,696.175L247.492,696.636L247.196,694.796L243.781,691.578L245.215,688.134L246.408,683.862L245.909,682.044L247.942,678.666L248.811,675.538L245.131,674.17L243.99,673.192L243.576,672.013L243.434,668.418L241.038,665.81L240.106,661.821L237.025,659.261L236.936,657.041L235.647,654.999L234.05,653.343L231.978,651.772L232.132,650.202L233.762,649.77L236.244,651.472L238.438,649.107L238.983,647.121L239.983,645.586z"/>
		<path id="PA-3" title="Colón" class="land" d="M413.471,545.798l-0.9,8.006l-1.302,-0.526l-1.307,0.636l-2.745,2.215l-0.983,1.509l-0.519,1.841l-1.729,3.649l-1.221,0.681l-1.543,-0.1l-4.912,3.517l-0.628,0.969l-1.452,-1.955l1.182,-2.896l-0.518,-0.805l-1.763,0.72l0.467,-1.873l0.999,-1.555l-1.14,-1.387l-1.299,0.266l-2.187,-1.989l-2.178,0.755l-1.205,1.524l-1.124,0.258l-1.348,-1.474l-1.167,0.568l-0.793,-0.568l0.364,-3.008l-1.876,-1.731l0.851,-2.022l-1.822,-1.076l-1.379,0.429l-0.497,1.161L376.271,551l-1.593,-1.545l-3.117,3.631l-2.507,-0.214l-0.525,0.576l-2.051,0.422l-0.485,3.317l-0.756,1.35l0.117,1.49l-1.158,1.081l-0.636,2.652l-0.772,1.051l1.109,3.161l-0.665,0.349l-0.694,1.078l-1.563,2.185v0.582l-0.955,2.593l0.145,1.252l-0.087,0.757l0.637,0.99l-0.926,0.787l-0.173,-0.204l0.81,1.019l0.058,1.807l-1.33,-0.671l-1.419,0.176L357.186,583l-2.807,-0.524l-1.161,2.862l0.037,2.357l-1.408,0.676l-0.447,1.791l-1.446,2.852l-0.168,0.176l-0.469,-0.232l-0.955,-0.611l-1.794,0.466l-2.227,-1.02l-2.124,1.295l-1.521,-0.916l-1.45,-0.065l-1.882,-1.683l-0.176,-3.725l-2.34,-0.95l-1.001,-0.789l-1.62,0.377l-2.568,-0.831l-2.292,-0.122l-1.744,0.584l-2.507,2.708l-0.184,4.093l-0.734,1.016l-2.416,1.507l-0.092,1.047l1.285,1.538l1.651,3.507l-0.67,1.514l0.297,1.906l-0.872,2.197l-1.271,0.06l-1.542,1.297l-6.232,-0.565l-1.502,-0.567l-2.755,-2.24l-2.445,3.151l-2.14,0.766l-0.793,0.96l-1.118,-1.037l-2.036,-0.734l-0.448,-2.44l-0.844,-2.216l0.393,-0.927l-0.821,-1.509l-2.029,-2.377l-0.481,1.101l0.556,1.809l0.063,2.014l-0.492,4.679l-2.625,0.303l-12.288,6.376l-0.993,2.485l-3.512,-1.18l-2.486,0.177l-2.207,-0.771l-2.192,-2.328l-2.267,0.15l-1.743,-0.533l-0.939,-0.87l-1.193,0.062l-0.618,-1.258l-1.705,0.581l0.265,1.431l-0.784,1.362l0.058,1.189l-1.156,0.995l1.307,2.401l-0.44,2.485l0.197,2.664l-1.088,1.256l0.577,1.285l-1.681,0.233l-5.044,-0.112l-0.532,-1.15l-2.726,0.256l-0.211,1.068l-3.471,2.064l0.442,1.905l-1.058,2.225l-0.651,0.404l-0.405,2.765l0.567,1.758l0.891,0.576l0.538,2.103l-2.292,0.189l-0.756,2.023l-1.067,0.539l-1.902,-0.241l2.005,-2.162l-0.343,-2.181l-1.847,-1.77l-0.998,-3.079l1.189,-1.474l1.81,-0.773l-0.947,-2.518l-3.93,-4.366l-2.762,0.574l-2.38,-0.81l-4.048,-1.978l-1.355,-1.874l0.002,-3.026l0.377,-0.11l1.038,-0.308l2.23,-0.232l1.533,-0.669l0.318,-1.048l2.257,-1.629l1.389,-2.443l1.736,-0.844l1.042,-2.475l3.008,-2.443l2.112,-0.146l1.417,-0.699l0.261,-1.454l2.055,-0.466l0.839,-1.02l3.008,-1.775l2.663,-0.872l3.181,-1.921l1.504,-0.029l0.492,-0.757l2.923,-1.106l0.26,-0.728l2.373,-0.523l1.417,-0.903l3.125,0.059l1.302,-1.049l3.096,-0.465l1.592,-1.398l5.207,0.06l1.967,-1.193l2.025,-0.321l2.603,0.262l1.158,-1.339l1.417,0.146l2.401,-0.408l0.897,-1.34l3.211,-0.494l0.984,-0.67l2.17,0.175l1.793,-0.641l0.636,-0.786l2.43,-0.204l0.983,-1.019l1.042,-0.088l2.602,-1.514l-0.143,-0.495l2.169,-2.592l1.938,-1.573l1.1,-1.602l3.096,-2.213l2.98,-5.04l2.516,-0.903l0.869,0.379l-0.001,3.379l-0.55,1.661l0.435,0.67l3.184,0.29l0.057,-2.271l1.359,-1.661l-0.549,-1.573l0.665,-0.437l1.504,1.602l0.608,-0.902l-0.55,-1.224l0.058,-1.573l1.33,-1.777l1.331,0.088l0.261,1.312l1.591,0.43l2.112,-0.983l0.781,-1.399l1.157,-0.757l0.84,-1.457l2.921,-1.428l2.547,-0.32l1.88,-2.215l0.087,-1.603l1.591,-0.407l1.996,-1.633l0.289,-1.923l1.476,-1.632l-0.578,-0.846l2.43,-0.991l-0.318,-0.845l-2.053,0.466l1.012,-1.807l2.315,-1.604l2.632,-2.799l1.013,0.788l1.128,-0.525l1.127,0.903l1.737,-1.457l0.927,-0.029l1.272,-1.137l2.546,1.895l-0.983,2.245l3.326,-0.088l1.245,0.497l5.033,-1.313l1.765,1.341l2.228,0.467l2.834,0.146l1.94,0.846l3.905,-0.495l2.719,1.485l1.794,-0.524l5.035,2.449l1.879,-0.059l1.707,0.583l3.038,-1.749l1.823,0.787l0.954,-1.225l1.389,0.758l2.142,-0.116l1.909,-0.671L413.471,545.798zM342.488,592.665h0.058l-0.347,0.088L342.488,592.665z"/>
		<path id="PA-4" title="Chiriquí" class="land" d="M154.065,670.761l-1.169,2.361l0.779,1.958l-1.195,0.906l-0.883,-1.285l-1.54,-0.307l0.4,0.938l0.892,2.321l1.424,0.071l1.273,0.504l-0.425,-1.01l0.382,-1.831l1.63,-1.173l1.407,2.092l-1.146,1.317l-0.459,1.888l1.022,0.933l1.22,-0.159l0.7,1.086l-0.939,1.977l-0.858,-0.253l-1.09,1.441l0.245,2.843l-1.407,1.042l-1.259,1.038l-1.853,1.094v0.745l-1.407,1.068l0.035,1.732l-0.777,2.899l0.28,1.431l-0.958,0.543l-0.287,3.185l-1.416,1.592l1.087,1.231l-1.286,0.739l0.604,0.976l-1.695,2.407l-2.008,-0.904l-1.65,-2.405l-1.302,0.377l-1.678,-0.435l-0.289,-0.784l1.128,-1.277l-0.578,-2.207l1.274,-1.19v-2.728l-1.332,-2.352l-1.505,-1.626l-0.635,-1.568l-1.389,-1.451l-0.087,-1.539l-1.272,0.551l-0.261,1.655l1.505,0.378l-1.1,1.742l0.028,1.684h-2.575l-3.327,-2.235l-3.443,-0.871l-7.204,-2.468l-3.414,-0.319l-2.344,-1.191l-2.285,-0.29l-1.563,-0.696l-4.166,-0.959l-3.905,0.146l-2.17,-0.494l-0.925,1.045l-2.055,1.017l-0.173,4.008l-1.504,-0.697l1.042,-1.132l-0.463,-1.511l0.317,-1.364l-1.504,-1.104l-0.837,1.568l-2.664,0.204l-0.635,-1.626l-2.315,0.058l0.491,-2.991l0.781,-1.771l-0.925,-0.9l-0.405,-1.539l0.896,-1.191l-0.348,-1.801l0.957,-0.349l-1.215,-3.137l-1.592,1.598l-0.839,3.456l-2.633,1.104l-2.662,-1.946l-1.272,-0.435l-0.261,-1.192l-2.893,0.118l0.058,0.898l-1.489,2.563l-1.202,-0.211l-2.807,0.029l-2.461,0.843l-1.85,-1.54l-1.331,-2.353l-2.169,3.369l-2.835,1.801l-3.501,-1.626l-11.774,-3.602l-2.141,-0.959h-2.692l-2.603,0.494l-1.909,-0.029l-2.343,1.133l-4.601,0.987l-0.839,0.581l-2.748,0.406l-1.302,0.668l-1.505,1.481l-1.62,2.76l-0.029,1.945l-0.492,1.046l0.346,3.718l-0.289,3.338l0.579,2.41l-0.202,1.248l1.706,2.875l0.407,2.38l-1.621,1.916l0.26,1.131l-1.159,0.959l-1.974,-0.784l0.644,-4.144l-0.351,-2.279l0.379,-0.506l-1.738,-4.026l0.189,-3.105l-0.369,-2.482l-2.247,-1.445l0.588,-3.317l-1.092,-1.241l-0.599,-2.084l-2.318,-0.829l-0.949,-0.957l-1.653,1.421l-1.361,-2.107l-1.667,-0.645l-1.043,-0.981l-2.079,-0.333L0,674.028l0.402,-0.976l1.706,-1.023l2.274,-0.02l2.533,-2.297l0.474,0.03l2.365,-2.541l1.318,-2.021l1.429,-0.737l0.428,-0.927l1.423,0.532l3.611,-0.861l1.961,-1.235l2.017,-3.42l0.633,-2.484l-0.517,-4.194l1.348,-1.771l-0.438,-1.343l-0.016,-2.906l-0.569,-0.876l0.773,-1.56l-1.256,-2.43l-1.201,-0.999l-1.112,-1.94l-0.237,-1.225l-3.353,-2.322l-0.706,-1.76l-1.435,-1.696l0.731,-1.139l-0.097,-1.404l1.81,-0.388l0.582,-1.85l1.933,-0.617l0.311,-1.071l-1.422,-1.395l0.026,-1.325l2.178,-2.144l3.469,-0.478l2.078,-1.475l3.769,-0.728l1.734,-1.745l0.734,-1.436l2.031,-1.083l0.925,1.57l1.881,-1.571l0.602,1.969l2.042,1.132l0.876,-0.441l1.232,1.02l1.273,-2.406l1.474,0.747l2.958,-1.144l3.042,0.807l1.688,2.535l1.929,1.697l2,-1.855l2.868,-0.33l1.846,1.23l1.242,0.287l1.436,1.234l2.164,0.574l1.45,0.834l2.653,0.633l1.206,0.749l0.915,0.528l3.435,0.934l3.216,0.25l1.675,1.914l1.308,2.093l1.152,1.041l1.897,-0.862l0.657,0.623l3.547,0.684l-0.541,-1.735l0.927,-0.146l2.282,1.726l1.59,0.524l1.482,-0.186l0.282,10.924l-0.523,4.094l0.299,1.714l-1.545,3.314l3.511,1.05l-1.798,1.567l-0.95,3.739l-2.446,2.596l0.184,2.13l-0.894,1.31l1.194,0.809l5.148,-1.254l0.624,0.457l2.613,-0.899l0.213,-1.176l1.221,-1.082l0.766,1.496l1.379,1.309l0.592,3.104l1.173,0.866l2.088,-0.792l0.17,1.86l-1.211,1.188l0.25,0.983l1.618,-0.292l-0.711,2.757l2.32,2.672l1.703,0.043l0.676,1.696l2.899,-0.656l0.915,-0.763l2.385,0.524l0.391,-0.78l1.939,0.381l0.728,1.296l1.386,-1.395l1.161,0.422l3.497,-0.259l-0.381,3.539l1.502,-0.382l0.043,1.408l1.38,1.606l1.536,0.314l2.101,-0.577l0.042,1.467l1.973,-1.489l2.105,1.761l1.409,-0.356l-0.44,-1.85l1.417,-1.658l0.511,-1.933l1.179,2.664l1.542,0.032l1.062,1.499l2.338,-2.979l1.389,-0.377l1.118,-1.752l-0.21,-0.741l0.819,-2.686l0.814,-0.19l1.348,-2.648L154.065,670.761zM153.918,681.689l-3.015,0.578l0.172,1.449l3.463,0.787l0.355,-0.901l-3.403,-0.401l0.67,-0.841l2.771,-0.313L153.918,681.689zM154.065,670.761l1.478,-1.333l2.128,-0.798l2.333,3.045l0.679,2.944l-0.081,2.225l-0.728,0.271l-1.384,-0.977l-1.271,-1.258l0.575,-1.512l-3.722,-1.275L154.065,670.761zM75.051,675.739l1.62,0.523l1.331,2.324l-2.69,0.319l-1.042,-1.685L75.051,675.739zM73.604,678.586l2.546,1.248l-0.057,0.96l-1.1,1.336l-2.93,-2.755l-0.686,0.635l-1.346,-0.76l-1.5,1l-1.639,1.271l-1.216,-1.162l2.373,-0.522l1.157,-0.813l2.142,-0.378l1.464,0.574L73.604,678.586zM72.071,679.719l2.343,2.266l-0.434,2.033l-3.674,0.552l-1.852,1.278l-3.616,-2.992l0.607,-0.812l1.736,-0.263l2.083,-1.685l1.823,0.378L72.071,679.719zM79.737,684.396l4.195,1.132l1.244,0.697l-2.69,1.103l-1.736,1.307l-1.591,-0.347l-2.518,-1.568l0.145,-0.9l1.909,-0.175L79.737,684.396zM136.703,693.106l0.637,1.249l1.417,1.277l0.695,2.467l-0.695,1.277l-0.867,-2.381l-1.331,-1.247l-1.504,-0.668l0.059,-0.813L136.703,693.106zM75.919,694.006l-0.637,1.452l-0.058,3.223l-1.822,0.639l-2.401,0.058l0.492,-1.974l1.33,-0.609l0.435,-1.858l1.822,-0.261L75.919,694.006z"/>
		<path id="PA-5" title="Darién" class="land" d="M520.901,594.948l2.076,-0.344l1.782,0.541l2.647,1.599l2.989,3.288l1.636,0.155l0.694,1.476l2.056,0.501l0.236,2.173l1.215,0.111l0.87,1.492l2.903,1.926l-0.418,1.176l1.816,3.111l1.779,1.862l1.812,0.032l1.658,1.882l1.454,0.817l3.35,1.159l1.729,1.502l0.416,2.256l2.481,0.934l1.247,1.213l0.144,2.066l0.628,1.651l-0.317,1.165l-1.17,-0.065l-1.628,-1.046l-3.811,0.812l-1.607,1.155l-1.145,1.825l-1.995,0.687l-1.383,0.027l-1.684,0.801l-0.575,2.574l-2.593,2.43l-0.579,2.189l-1.354,1.193l-1.764,0.351l-0.925,1.649l0.221,2.829l0.774,0.516l0.309,2.66l2.362,1.468l0.837,1.775l-1.693,2.174l1.863,0.953l0.917,1.271l1.614,-0.495l-0.133,2.011l0.549,1.024l1.97,1.078l0.945,3.68l-1.175,1.243l0.065,2.043l1.289,0.441l0.866,2.46l0.174,1.954l1.361,0.676l0.151,1.728l1.561,0.435l1.104,3.23l2.111,1.405l0.572,2.668l1.536,0.216l5.622,2.261l3.826,2.962l1.367,3.687l0.234,4.917l2.14,-0.477l0.808,0.276l1.485,1.681l1.564,2.735l1.106,0.041l4.251,-2.194l3.108,0.402l1.055,0.856l1.362,-1.443l-0.18,-1.464l2.85,-2.052l1.293,0.226l0.661,-0.745l1.281,0.62l1.953,-0.409l1.558,-1.242l7.88,-1.972l3.68,-0.672l0.122,1.975l1.704,1.271l-0.165,1.536l1.134,4.221l-0.856,3.527l1.011,3.213l1.8,1.917l0.49,1.39l2.04,1.492l-0.467,0.67l-1.636,-0.199l0.496,1.538L612,715.83l-1.32,1.093l-1.903,-0.376l-1.521,0.596l-1.703,-0.647l-1.525,0.009l-3.312,1.367l-1.942,-0.411l-2.086,0.993l-1.798,1.845l-1.198,1.821l-0.313,3.213l0.359,1.846l1.413,2.997l1.646,2.781l0.393,1.5l-0.404,0.997l-2.087,-0.416l-2.311,1.563l-0.385,0.965l-2.247,1.879l-1.586,-0.58l-1.208,0.883l-1.008,2.095l-1.949,1.084l-0.808,1.585l-2.254,0.471l-0.233,2.079l-1.643,3.593l-2.336,0.304l-1.073,0.719l-1.293,1.868l-0.159,1.794l-3.574,4.436l-2.566,-0.983l-0.89,-1.661l-1.481,-0.948l-0.399,-2.514l-1.075,-1.745l-0.815,-2.226l-0.035,-1.488l-1.167,-4.714l-0.924,-1.206l-2.429,-1.431l-0.135,-1.032l-1.643,-1.773l-2.651,-0.922l-1.75,0.599l-0.479,0.959l-0.902,5.616l-1.203,2.58l0.835,2.718l0.938,0.741l-0.15,1.254l1.262,2.72l2.295,5.966l-1.088,3.531l-2.156,0.975l-1.307,1.778l-1.753,-0.65l-1.473,0.327l-1.343,-1.615l-0.898,1.708l-2.393,6.752l-2.106,7.3l-1.993,7.583l-0.439,2.184l-1.353,-0.155l-0.29,-1.33h-1.302l-4.079,-3.13l-0.231,-1.013l-1.476,-0.465l-1.244,-1.391l-2.285,-1.246l0.028,-1.681l-2.169,-1.275l-0.956,-3.854l0.694,-1.681l-1.619,-0.522l-0.637,-3.245l-0.694,-0.58l-2.286,1.305l-0.549,-1.565l-1.418,-1.565l-1.735,-0.289l-1.65,-1.451l-1.012,-1.68l0.463,-1.392l-1.475,-1.188l-4.369,-2.232l0.375,-2.001l0.635,-0.202l0.35,-3.247l-1.563,-0.725l-2.459,1.102l0.376,-1.855l1.157,-0.262l-0.434,-1.855l-3.847,-2.494l-0.116,-2.175l-1.419,-0.666l-0.752,-1.132l-1.012,0.87l-1.273,-1.972l-1.736,0.116V740l1.736,-1.508v-2.524l-0.984,-2.523l-1.533,-2.116l-3.183,-5.628l-0.925,-3.425l-1.505,-1.392l-3.529,-2.177l-1.996,-5.862l-1.216,-1.74l0.262,-2.989l-2.576,-4.326l-0.115,-2.234l2.633,-3.658l1.187,1.132l0.405,1.83l2.285,1.219l1.272,-0.64l3.675,1.162l3.936,-2.235l2.806,-2.815l1.128,-0.407l1.446,-3.629l-0.202,-1.307l0.463,-2.729l-2.343,-1.074l-1.014,-2.032l-1.129,-0.755l-1.88,-2.411l0.146,-1.277l2.43,0.871l1.62,-1.83l-0.578,-1.277l1.33,-1.656l0.637,-0.028l1.187,2.12l0.983,0.552l3.066,-0.959l1.041,-2.032l0.897,-0.465v-1.859l-0.81,-1.395l1.273,-1.714l2.053,-3.689l-0.347,-1.278l0.752,-2.091l0.926,0.028l1.187,1.337l0.404,2.935l1.129,1.771l1.129,0.349l1.967,1.685l1.215,0.029l3.153,3.776l1.128,2.41l-0.115,2.092l0.984,2.091l1.099,1.22l2.025,0.668l2.372,-0.087l0.434,-1.365l2.142,-0.174l2.228,1.277l1.736,0.174l2.69,1.046l1.273,2.236l2.516,1.307l0.146,1.934l1.272,-0.715l-0.752,-1.654l-1.187,-1.133l-0.983,-0.028l-1.099,-2.033l-1.39,-1.162l-3.819,-1.104l-2.459,-1.394l-4.078,-0.581l-1.418,0.203l-2.229,-1.655l-0.607,-2.498v-1.539l-2.256,-3.312l-0.463,-2.092l-1.245,-2.092l-1.012,-2.498l0.289,-1.599l-0.405,-1.451l-1.504,-2.326l-1.852,-1.83l-0.348,-1.424l1.737,-2.557l-0.405,-1.134l-2.662,-1.831l-0.781,1.191l0.723,1.046l1.62,0.146l0.463,1.191l-1.244,1.308l-0.115,0.901l0.752,2.557l1.245,1.309l0.491,2.73l-0.811,1.018l-3.819,-5.608l-2.141,-0.494l-0.983,1.221l-1.707,0.93l0.145,3.952l-1.069,0.726l-1.91,0.349l-0.608,1.133l-2.603,0.668l-1.303,-0.493l-0.81,-2.324l2.864,-1.947l2.864,-0.319l-0.145,-2.208l-1.215,-1.627l1.156,-2.441l0.492,-0.087l-0.926,-3.197l-2.344,0.378l2.055,1.104l-0.088,2.15l-1.127,1.831l0.26,3.022l-1.272,0.377l-0.752,-1.336l-1.881,-0.263l-1.112,-1.427l-0.913,3.084l-1.731,-0.236l-0.468,-2.113l-1.04,-0.76l-2.865,1.772l-2.285,3.08l-0.951,-0.702l0.019,-1.967l-0.406,-5.006l-2.199,-5l-1.012,0.064l0.616,3.142l1.552,2.988l0.229,2.828l-0.293,2.656l0.565,1.066l1.711,1.204l0.227,1.66l-1.712,1.771l-0.429,4.271l-1.534,-1.598l-1.916,0.465l-0.161,-5.476l-0.819,-4.054l-1.205,-3.439l-1.941,-2.754l-0.165,-2.012l-1.576,-1.822l0.095,-1.441l-1.176,-2.573l-0.261,-2.913l1.447,-1.055l0.346,-3.339l-0.961,-1.336l-1.551,-1.028l0.063,-1.277l-1.157,-0.754l-0.501,-1.757l0.741,-1.903l0.271,-2.091l1.111,0.101l1.086,-1.251l0.158,-2.689l0.404,-1.262l-0.715,-1.756l2.176,-1.757l1.342,-0.595l1.99,0.051l2.707,-1.116l4.395,0.57l1.4,0.976l-0.092,1.608l0.604,1.161l1.043,0.084l2.126,-0.905l1.086,-1.183l-0.245,-1.691l1.195,-1.691l1.924,0.397l1.226,-0.716l0.978,-1.462l1.422,-1.184l1.085,0.44l2.287,-0.531l1.512,1.188l1.877,0.484l1.214,-0.987l-0.299,-1.399l1.609,-2.727l-0.224,-1.571l3.224,-1.035l1.311,-1.071l0.255,-1.91l-0.577,-1.301l0.718,-1.597l1.113,-1.114l0.007,-1.698l1.099,-1.297l2.44,-0.871l0.118,-1.91l0.702,-2.943L520.901,594.948zM501.012,710.342l-1.839,-0.996l-2.262,1.212l-1.841,2.009l-3.06,0.155l-1.173,1.964l1.063,1.118l-0.057,0.988l-0.822,2.343l1.952,4.522l2.169,0.071l0.126,1.97l1.978,3.488l0.079,1.666l0.697,2.158l1.026,1.306l2.611,4.387l1.941,1.844l0.952,1.392l1.885,1.157l0.615,0.88l3.735,-1.541l2.149,0.597l3.216,2.651l1.249,-0.462l0.518,3.323l1.482,4.133l2.072,-1.159l0.183,-1.663l1.682,-0.948l1.185,-0.084l0.661,-0.111l0.231,1.234l0.334,0.967l0.751,0.754l0.284,0.06l0.433,-0.053l0.937,-0.372l0.887,-0.608l1.906,-1.717l0.782,-0.691l-0.137,-4.049l0.23,-1.596l-0.603,-1.254l0.21,-1.86l-0.947,-2.946l0.853,-1.053l0.076,-1.556l-1.288,-3.502l-1.688,-0.119l-0.821,-4.015l-0.859,-1.075l-0.615,-2.982l-0.688,-1.467l-0.125,-1.784l-1.13,-2.27l-0.509,-2.028l-1.17,-0.747l-4.575,3.536l-0.911,-0.963l0.389,-1.748l-0.454,-2.259l-0.677,-0.841l-1.502,-0.455l-0.739,-1.608l-0.417,-2.549l-0.495,-0.753l-0.597,-0.62l-2.792,-2.689l-0.525,-2.095l-1.251,-1.016l-1.623,-0.831l-0.917,1.318l-0.955,0.091l-2.839,1.573l-0.095,1.311l2.65,1.419l-0.293,1.958l0.97,1.496l-0.494,1.414l-0.284,0.707l-0.434,0.318l-1.24,0.011l-0.207,-0.047L501.012,710.342zM509.275,662.405l0.984,1.569l-1.448,0.813l-0.202,-2.034L509.275,662.405z"/>
		<path id="PA-6" title="Herrera" class="land" d="M247.492,696.636L249.484,696.175L249.873,697.112L252.154,697.074L253.653,695.932L256.166,695.773L257.818,696.095L259.882,697.72L259.38,699.191L263.14,697.431L264.535,698.361L265.707,698.188L266.053,699.349L267.123,699.58L268.772,701.003L269.235,703.616L271.405,706.605L272.939,706.722L274.384,707.883L277.394,709.159L279.535,708.521L276.663,710.233L277.711,711.888L274.937,714.426L272.75,715.794L271.183,716.227L270.301,715.634L268.133,715.525L265.674,717.475L265.322,718.426L263.237,719.953L263.145,721.429L262.221,722.305L261.337,725.685L260.336,726.748L256.964,727.788L255.167,729.618L256.902,731.129L255.94,731.905L256.694,734.733L258.316,735.75L258.011,737.363L258.99,739.087L258.454,741.394L257.653,741.702L256.669,744.327L255.16,744.414L252.22,745.362L247.463,753.099L242.013,759.739L241.166,760.096L239.76,759.049L237.988,756.852L233.459,756.067L231.997,755.147L231.206,753.617L224.878,743.299L223.995,741.672L223.174,737.03L223.891,735.678L221.257,733.931L217.829,733.938L218.956,731.596L218.939,729.901L220.059,727.714L219.887,726.735L220.595,724.229L220.775,722.149L222.452,718.459L221.912,717.281L223.665,716.591L224.796,717.168L227.009,716.966L227.45,714.983L228.652,713.097L229.899,712.763L231.391,709.31L232.798,709.037L232.143,707.167L230.63,705.85L229.92,702.953L230.559,702.052L234.978,702.431L237.6,701.271L239.186,701.165L240.029,699.919L241.635,699.005L242.716,696.301L244.39,695.751L246.73,696.729z"/>
		<path id="PA-7" title="Los Santos" class="land" d="M279.535,708.521L280.432,709.479L283.701,715.282L284.627,719.199L286.305,720.767L287.896,723.03L289.747,723.93L290.441,724.974L294.233,726.917L294.492,727.527L297.096,730.109L297.906,731.733L301.465,734.315L303.895,736.636L305.023,739.217L308.352,742.465L308.755,743.51L310.549,745.452L311.908,745.974L312.574,747.801L314.453,751.6L314.744,754.006L316.798,756.209L317.377,758.094L318.592,759.631L317.752,761.166L317.897,764.385L314.599,766.442L311.908,766.036L308.233,767.862L307.743,768.616L305.428,768.269L303.981,768.441L300.597,770.326L297.355,768.152L296.401,768.993L292.727,769.107L290.905,768.007L288.908,767.979L287.028,769.746L284.077,771.051L281.502,773.08L279.708,775.194L280.113,776.645L280.953,776.904L280.721,778.47L282.081,779.947L278.638,780.585L276.844,781.482L275.977,783.453L276.266,784.207L274.183,784.757L272.824,787.886L271.665,788.147L270.364,787.626L264.809,787.133L263.392,788.523L260.846,787.944L258.994,788.031L256.853,789.045L253.654,789.306L253.542,784.961L253.221,783.942L250.063,782.758L247.696,779.968L247.752,776.304L246.218,774.115L242.946,772.466L243.903,770.246L242.74,768.17L241.387,767.107L241.203,766.061L242.324,764.212L241.124,762.338L241.166,760.096L242.013,759.739L247.463,753.099L252.22,745.362L255.16,744.414L256.669,744.327L257.653,741.702L258.454,741.394L258.99,739.087L258.011,737.363L258.316,735.75L256.694,734.733L255.94,731.905L256.902,731.129L255.167,729.618L256.964,727.788L260.336,726.748L261.337,725.685L262.221,722.305L263.145,721.429L263.237,719.953L265.322,718.426L265.674,717.475L268.133,715.525L270.301,715.634L271.183,716.227L272.75,715.794L274.937,714.426L277.711,711.888L276.663,710.233z"/>
		<path id="PA-8" title="Panamá" class="land" d="M349.953,593.014l1.446,-2.852l0.447,-1.791l1.408,-0.676l-0.037,-2.357l1.161,-2.862l2.807,0.524l0.549,-2.329l1.419,-0.176l1.33,0.671l-0.058,-1.807l-0.81,-1.019l0.173,0.204l0.926,-0.787l-0.637,-0.99l0.087,-0.757l-0.145,-1.252l0.955,-2.593v-0.582l1.563,-2.185l0.694,-1.078l0.665,-0.349l-1.109,-3.161l0.772,-1.051l0.636,-2.652l1.158,-1.081l-0.117,-1.49l0.756,-1.35l0.485,-3.317l2.051,-0.422l0.525,-0.576l2.507,0.214l3.117,-3.631l1.593,1.545l1.527,0.534l0.497,-1.161l1.379,-0.429l1.822,1.076l-0.851,2.022l1.876,1.731l-0.364,3.008l0.793,0.568l1.167,-0.568l1.348,1.474l1.124,-0.258l1.205,-1.524l2.178,-0.755l2.187,1.989l1.299,-0.266l1.14,1.387l-0.999,1.555l-0.467,1.873l1.763,-0.72l0.518,0.805l-1.182,2.896l1.452,1.955l-2.022,1.018l-1.244,1.894l1.169,0.652l2.57,-0.034l0.755,0.347l2.515,-1.293l1.36,-1.096l2.667,-0.846l2.183,0.713l2.647,-0.801l2.517,0.496l1.485,1.507l-0.776,1.572l2.751,0.685l2.317,-0.095l2.487,0.496l3.905,-0.761l2.058,-1.022l1.378,-0.114l1.657,0.666l1.53,-0.302l1.84,-1.674l-0.245,-1.881l2.002,-2.544l0.973,-0.068l1.939,1.481l2.756,-1.486l2.113,-1.589l7.622,2.257l1.151,-0.521l0.631,-1.303l1.154,-0.486l1.065,1.228l1.339,-0.528l1.855,1.335l0.854,1.582l3.054,1.441l1.545,1.686l2.475,-0.067l0.569,-0.576l2.139,0.305l2.609,-0.426l2.484,-2.315l2.016,0.178l0.288,3.647l2.514,1.328l1.13,2.312l0.301,1.623l1.514,1.744l3.592,0.886l-0.25,-1.601l0.968,-1.412l1.957,-0.847l1.02,0.62l0.673,1.549l1.939,0.154l1.354,0.755l1.073,-1.133l2.778,-0.8l0.21,1.344l1.387,2.646l-0.427,1.441l1.992,1.419l3.004,1.371l1.17,-0.147l1.653,-1.03l1.659,0.358l2.237,-0.063l3.198,1.03l2.37,0.377l0.5,0.773l2.433,0.296l1.56,0.902l-0.258,1.086l0.718,1.888l1.36,1.215l-0.407,2.181l2.159,1.134l-0.46,0.499l-0.702,2.943l-0.118,1.91l-2.44,0.871l-1.099,1.297l-0.007,1.698l-1.113,1.114l-0.718,1.597l0.577,1.301l-0.255,1.91l-1.311,1.071l-3.224,1.035l0.224,1.571l-1.609,2.727l0.299,1.399l-1.214,0.987l-1.877,-0.484l-1.512,-1.188l-2.287,0.531l-1.085,-0.44l-1.422,1.184l-0.978,1.462l-1.226,0.716l-1.924,-0.397l-1.195,1.691l0.245,1.691l-1.086,1.183l-2.126,0.905l-1.043,-0.084l-0.604,-1.161l0.092,-1.608l-1.4,-0.976l-4.395,-0.57l-2.707,1.116l-1.99,-0.051l-1.342,0.595l-2.176,1.757l0.715,1.756l-0.404,1.262l-0.158,2.689l-1.086,1.251l-1.111,-0.101l-0.271,2.091l-0.741,1.903l0.501,1.757l1.157,0.754l-0.063,1.277l1.551,1.028l0.961,1.336l-0.346,3.339l-1.447,1.055l0.261,2.913l1.176,2.573l-0.095,1.441l1.576,1.822l0.165,2.012l1.941,2.754l1.205,3.439l0.819,4.054l0.161,5.476l-0.282,-1.481l-1.765,-2.527l-0.897,-0.028l-0.433,-2.79l-1.679,-2.557l-0.665,0.203l-2.199,-1.249l-1.013,-1.802l0.781,-1.133l-0.146,-1.773l0.492,-2.964l-1.763,-0.697l0.462,-1.366l-2.199,-1.424l-0.492,-2.006l-0.867,-1.337l1.388,-0.35l2.431,1.512l-0.028,-1.25l-1.91,-1.714l0.377,-2.123L471,642.264l-2.488,-1.017l-2.979,-1.658l-0.318,-1.425l-2.112,-1.134l-0.404,1.135l-1.128,0.494l-1.679,-1.687l-0.666,-1.919l0.84,-1.6l-1.041,-1.134l-1.505,0.785l-0.724,1.978l-1.91,-1.804l1.187,-1.512l-1.042,-0.988l-2.401,-0.261l-2.372,-0.99l-2.024,-1.658l-0.665,0.117l-0.781,-3.984l-1.418,-0.785l-2.662,2.123l-1.157,-1.861l-1.967,-0.32l-1.707,0.379l-1.938,-1.745l-1.621,-3.637l-0.462,-2.676l-2.72,-2.096v-1.222l-5.526,-1.57l-3.789,-2.183l-0.983,-0.232l-2.836,-1.659l-1.07,0.32l-2.95,-1.484l-2.604,0.233l-0.55,-0.873l-1.967,-0.35l-1.07,-0.728l-4.427,-0.901l-2.865,0.116l-4.078,-0.466l-1.592,0.291l-0.81,-0.698l-2.401,-0.175l-6.018,0.116l-5.787,0.523l-7.376,1.02l-1.187,0.465l-1.245,1.688l-2.082,1.95l-0.752,-0.698l-2.257,2.881l0.232,1.891l-2.461,-1.804l0.146,-1.426l-0.753,-0.465l-1.186,-2.69l-3.45,-3.356l-2.824,-1.682l-1.97,-2.693l-1.004,-0.449l-0.818,-2.542l-1.027,-1.353L349.953,593.014zM342.546,592.665h-0.058l-0.289,0.088L342.546,592.665zM364.331,624.904l-0.317,0.873l1.417,1.047l-2.112,0.553l-1.013,-0.698l0.55,-1.745L364.331,624.904zM415.134,642.38l1.244,1.541l-1.214,1.163l-0.84,-1.454L415.134,642.38zM418.75,654.182l0.059,2.383l-1.533,-0.087L418.75,654.182zM415.887,656.129l0.463,1.83l-1.476,0.263l-0.174,-0.988L415.887,656.129zM421.904,657.466l-0.059,3.079l-0.839,0.233l-0.231,-2.644L421.904,657.466zM430.902,659.704l1.765,1.132l0.753,-1.598l1.186,1.074l0.462,1.251l1.187,0.317l0.145,2.994l0.521,0.872l1.736,0.784l0.259,1.772l-1.908,0.93l0.839,1.395l0.781,2.73l-0.693,0.958l0.317,1.162l-0.984,0.668l-0.462,1.917l-1.679,-0.493l-2.228,0.116l-1.07,-0.843l-1.563,1.395l-0.347,2.962l1.041,1.075l0.492,3.543l-2.112,-2.12l-0.752,-3.688l-1.765,-1.452l-1.128,-0.087l-0.926,-1.889l1.707,-0.784l0.115,-3.195l-1.794,-2.091l1.187,-1.452l0.058,-1.193l-1.359,-4.066l-0.029,-2.557l2.257,-0.261l2.547,0.259L430.902,659.704zM409.928,664.062l-0.03,0.843l1.881,1.191l1.446,1.771l-0.81,1.687l-1.447,-1.249l-1.33,-0.291l-1.07,-2.092l0.174,-1.307L409.928,664.062zM441.635,670.278l-2.112,0.263l-0.896,-0.9l1.157,-2.412l1.621,1.307L441.635,670.278zM411.084,675.77l0.145,0.726l1.968,2.439l0.347,3.282l-1.157,-0.493l-1.1,0.493l-0.463,1.22l0.694,1.452l-1.187,0.436l0.146,1.395l-1.187,0.465l-2.314,-3.718l1.793,-3.688l-0.462,-1.714l0.954,-1.598L411.084,675.77z"/>
		<path id="PA-9" title="Veraguas" class="land" d="M226.649,616.654l-0.002,3.026l1.355,1.874l4.048,1.978l2.38,0.81l2.762,-0.574l3.93,4.366l0.947,2.518l-1.81,0.773l-1.189,1.474l0.998,3.079l1.847,1.77l0.343,2.181l-2.005,2.162l-0.271,3.496l-1,1.535l-0.545,1.986l-2.194,2.364l-2.482,-1.702l-1.629,0.433l-0.155,1.57l2.072,1.57l1.598,1.656l1.289,2.042l0.089,2.22l3.081,2.561l0.931,3.988l2.396,2.608l0.142,3.595l0.415,1.18l1.141,0.978l3.68,1.368l-0.869,3.128l-2.033,3.378l0.499,1.818l-1.193,4.271l-1.434,3.444l3.415,3.218l0.296,1.84l-0.762,0.094l-2.34,-0.979l-1.673,0.55l-1.081,2.704l-1.606,0.914l-0.843,1.246l-1.585,0.106l-2.623,1.159l-4.418,-0.379l-0.639,0.901l0.71,2.896l1.512,1.317l0.656,1.87l-1.407,0.272l-1.492,3.453l-1.248,0.334l-1.202,1.887l-0.441,1.982l-2.213,0.202l-1.131,-0.577l-1.753,0.69l0.54,1.178l-1.677,3.69l-0.18,2.08l-0.708,2.506l0.172,0.979l-1.12,2.188l0.017,1.694l-1.127,2.342l3.429,-0.007l2.633,1.747l-0.716,1.353l0.821,4.642l0.883,1.627l6.328,10.318l0.791,1.53l1.462,0.92l4.528,0.784l1.772,2.197l1.406,1.047l-0.042,2.242l1.2,1.874l-1.122,1.849l0.184,1.047l1.353,1.063l1.164,2.076l-0.957,2.22l3.271,1.649l1.534,2.188l-0.056,3.664l2.367,2.79l3.158,1.185l0.32,1.019l0.113,4.345l-2.269,-0.115l-3.154,0.868l-0.665,0.638l-3.414,0.608l-0.722,0.464l-6.829,-1.072l-0.868,0.898l-1.707,0.174l-2.778,-0.84l-0.751,0.753l-1.938,-0.696l-0.318,0.754L225.174,792l-1.128,-3.65l-2.518,-0.666l-1.823,-1.159l0.925,-1.536l1.071,-0.694l-0.637,-1.941l1.158,-2.637l2.546,-0.725l-0.202,-2.145l-2.055,-3.941l-1.389,-1.333l-0.549,-2.405l1.59,-1.188l0.116,-0.753l-1.302,-2.001l-1.562,-1.564l-0.404,-1.103l-2.433,-1.306l0.262,-1.68l0.926,-0.116l0.115,-2.319l0.897,-1.102l-0.637,-1.449l-2.604,-2.696l0.666,-1.305l-1.562,-1.943l-1.476,-0.405l-0.26,-1.364l-3.184,-1.42l-1.446,-1.421l-0.174,-1.219l2.17,-2.059l-0.868,-0.638l-1.158,-1.886l0.261,-1.189l1.504,-2.03l-2.286,-0.028l-3.473,-2.176l0.291,-2.61l0.81,-1.393l1.678,-1.596l-0.376,-2.466l0.405,-1.857l-1.505,-0.725l-1.244,1.624l-1.823,-0.58l-0.55,-0.695l-0.029,-1.828l1.417,-0.407l-0.491,-1.131l-2.141,0.261l0.955,1.538l-0.145,1.218l0.608,1.248l1.417,0.696l0.348,1.016l-1.765,0.261l-0.956,-0.608l-2.169,0.405l-1.331,-0.928l-2.518,-0.726l-0.607,1.131l-0.145,2.525l0.346,0.841l1.128,0.813l-0.375,2.697l0.52,0.639l-1.244,2.813l-2.979,1.798l-1.158,2.204l2.633,0.146l-0.058,1.711l-1.477,2.669l1.245,1.739l-1.157,3.074l-2.141,1.595l-1.793,-2.146l-1.592,-0.668l-1.736,0.203l-2.024,-2.841l-2.315,0.376l-2.024,-0.348l-4.89,-1.683l-1.648,0.319l-2.72,-0.754l-0.637,-1.711l-3.153,-1.305l-2.055,-0.116l-2.459,0.522l-2.603,-1.131l-0.174,-0.929l2.633,-1.044l0.925,-0.813l-0.145,-1.652l-4.339,-0.93l-0.492,1.624h-1.504l-0.926,-2.234l-0.087,-1.507l-1.793,-0.928l0.607,-5.396l1.128,-1.364l-0.694,-1.044l-2.284,0.726l-1.072,-0.726l1.909,-2.379l-1.446,-0.639l-0.868,0.319l-0.81,-4.382l-1.707,-1.073l-1.446,-3.482l-2.054,-2.587l2.008,0.904l1.695,-2.407l-0.604,-0.976l1.286,-0.739l-1.087,-1.231l1.416,-1.592l0.287,-3.185l0.958,-0.543l-0.28,-1.431l0.777,-2.899l-0.035,-1.732l1.407,-1.068v-0.745l1.853,-1.094l0.217,1.69l1.038,1.582l3.277,-0.139l0.902,1.096l3.092,-1.376l0.268,-1.845l-1.997,-2.047l-2.062,1.655l-0.583,-0.954l-1.836,0.396l-1.058,-1.098l1.407,-1.042l-0.245,-2.843l1.09,-1.441l0.858,0.253l0.939,-1.977l0.208,-0.877l1.652,-0.684l-0.392,-2.224l-1.354,-1.449l1.384,0.977l0.728,-0.271l0.081,-2.225l-0.679,-2.944l-2.333,-3.045l0.948,-0.681l-0.851,-1.638l1.354,-0.917l2.4,0.869l2.681,-0.177l1.631,1.285l1.157,-3.98l2.288,1.207l-0.01,-1.287l1.248,-0.909l-0.704,-1.44l1.29,-1.361l0.951,-2.584l1.718,0.373l1.36,2.236l0.504,2.179l1.94,0.543l-0.153,-1.875l-0.985,-1.53l2.568,-0.856l-0.998,-0.952l-1.454,0.274l-0.794,-1.723l2.62,-3.009l1.101,1.798l2.624,-1.006l1.752,2.496l-1.091,1.396l-0.684,1.786l0.449,0.66l2.121,-0.506l1.906,0.283l-0.528,-1.568l-1.216,-1.749l0.7,-1.36l1.552,1.119l0.71,2.476l1.502,2.585l4.05,0.266l2.28,-1.774l0.937,1.64l1.271,-0.746l-2.083,-2.173l-0.36,-2.791l0.368,-1.031l-1.334,-1.363l-1.894,0.255l-0.918,-2.602l-1.862,-2.604l-0.688,-1.759l0.389,-2.046l-0.417,-0.855l0.074,-2.614l0.61,-3.494l0.774,-0.421l0.401,-1.743l-0.542,-1.629l-0.521,-3.54l0.68,-1.02l-0.274,-1.397l1.049,-0.848l0.016,-0.058l1.2,-0.059l2.603,-1.076l0.839,0.204l4.253,-0.844l1.476,-0.641l4.745,-0.261l1.272,-1.28l1.563,0.058l1.592,-1.046l3.385,-0.204l0.492,-0.815l1.417,-0.028l2.227,-1.28l1.272,-1.192l3.184,-0.116l1.678,-1.833L226.649,616.654zM167.976,680.366l0.028,-0.66l-2.196,-1.11l-0.003,-1.526l-1.415,-1.616l-1.844,3.472l-0.301,1.248l-1.512,0.396l1.838,2.898l1.726,-0.401l1.177,0.536L167.976,680.366zM172.729,668.276l-0.804,1.646l0.011,0.831l-1.371,0.744l-1.816,-1.305l-0.486,1.14l0.322,0.851l1.773,0.308l3.625,2.117l0.691,-0.097l2.649,-0.456l1.346,-2.481l1.577,-0.827l0.213,-2.286l-2.179,1.259l-0.929,-0.274l-0.647,-1.02l-2.688,0.032l-0.446,-1.256L172.729,668.276zM129.688,723.563l1.157,-0.994l0.906,0.744l-0.342,1.053l-1.012,0.319L129.688,723.563zM204.719,725.555l1.071,1.13l-0.347,0.988l-1.417,0.202l-0.724,-1.103L204.719,725.555zM195.083,726.625l0.812,-0.954l0.752,0.492l-0.81,1.654l-0.771,-0.091L195.083,726.625zM199.946,733.532l2.546,1.74l0.463,2.146l-0.435,0.958l-1.909,-0.204l-2.024,-1.218l1.331,-1.132L199.946,733.532zM130.83,773.194l-1.128,-1.419l-2.864,-2.406l-1.07,-0.347l-2.256,-2.262l-0.116,-2.173l-0.839,-2.262l-1.678,-2.58l0.838,-1.072l2.025,0.695l2.198,-3.914l-0.086,-2.116l1.562,-1.798l1.446,0.232l1.042,-0.696l1.793,-2.755l1.389,-0.202l0.811,-1.914l3.587,1.188l0.752,3.509l-0.116,2.522l1.707,3.566l2.662,-0.377l0.693,2.957l-0.665,1.305l-1.446,0.029l-1.793,0.84l-0.667,1.972l0.203,1.043l-0.926,2.813l2.112,1.333l0.752,2.666l1.158,1.333l0.781,-0.521l1.186,0.666l3.761,-0.985l2.98,4.318l0.086,1.449l0.781,1.507l-2.083,-0.203l-2.951,1.159l-5.092,-2.434l-1.245,-0.059l-2.054,-0.928l-1.041,0.204l-2.69,-0.406l-1.65,-0.869L130.83,773.194zM203.533,752.527l2.459,0.435l1.822,-0.203l1.187,0.783l-1.417,2.957l-0.926,0.232l-1.678,1.507l-2.516,-1.623l-1.708,-0.464l-2.516,1.246l0.058,0.899l-2.72,1.972l-1.274,0.318l-0.664,1.508l-3.067,0.521l-0.405,-1.275l-2.054,0.985l-1.534,0.262l2.807,-3.335l1.968,-1.043l4.281,-0.464l2.229,-3.045l1.156,-0.753l1.881,-0.203L203.533,752.527zM191.672,753.194l1.678,0.812l0.984,1.015l-1.997,0.928l-2.111,0.145l0.173,-1.971L191.672,753.194zM128.139,782.584l0.405,0.551l2.835,-0.261l0.405,2.607l-1.823,2.636l-1.012,-1.129l-0.955,-1.941L128.139,782.584z"/>
		<path id="PA-10" title="Panamá Oeste" class="land" d="M349.795,593.18L350.822,594.532L351.641,597.074L352.645,597.523L354.614,600.217L357.438,601.898L360.889,605.255L361.409,607.596L362.887,610.301L362.74,611.757L363.579,612.396L362.855,614.782L361.148,615.219L357.648,615.597L355.798,616.44L353.771,616.382L352.874,615.451L352.007,616.527L347.638,618.36L344.717,620.135L343.849,621.269L343.646,623.014L341.997,624.788L341.418,627.552L342.432,628.424L342.69,631.187L344.428,632.96L342.98,634.879L343.414,636.449L341.794,638.136L339.016,639.24L338.091,640.52L336.298,640.316L334.879,641.741L336.963,643.427L339.913,644.765L343.01,644.416L345.469,643.282L346.105,643.718L342.864,646.77L340.175,648.658L333.896,650.606L331.871,650.955L330.396,652.264L330.686,653.338L328.023,654.356L326.663,655.867L323.597,657.407L322.034,660.574L317.55,663.248L315.496,664.904L311.458,666.996L310.168,664.17L309.951,662.816L307.464,659.711L307.245,658.731L308.073,655.071L306.117,652.3L306.051,650.956L306.84,650.083L307.245,647.556L306.668,645.063L305.346,641.715L305.362,640.396L306.128,638.277L305.549,635.436L305.717,634.447L304.745,632.907L304.513,630.908L303.273,630.133L301.444,627.232L300.805,623.22L299.936,621.943L300.592,620.392L300.078,615.812L302.121,613.691L303.428,611.164L302.58,610.064L303.494,607.899L305.634,607.134L308.079,603.982L310.834,606.223L312.336,606.79L318.568,607.355L320.11,606.059L321.382,605.999L322.254,603.802L321.957,601.896L322.627,600.382L320.976,596.875L319.69,595.337L319.782,594.29L322.198,592.783L322.933,591.768L323.116,587.675L325.623,584.967L327.367,584.383L329.659,584.505L332.228,585.336L333.848,584.959L334.849,585.748L337.188,586.698L337.364,590.423L339.246,592.105L340.696,592.171L342.217,593.087L344.341,591.792L346.567,592.812L348.361,592.346L349.316,592.957L349.785,593.189z"/>
		<path id="PA-EM" title="Emberá" class="land" d="M604.631,690.712l-3.68,0.672l-7.88,1.972l-1.558,1.242l-1.953,0.409l-1.281,-0.62l-0.661,0.745l-1.293,-0.226l-2.85,2.052l0.18,1.464l-1.362,1.443l-1.055,-0.856l-3.108,-0.402l-4.251,2.194l-1.106,-0.041l-1.564,-2.735l-1.485,-1.681l-0.808,-0.276l-2.14,0.477l-0.234,-4.917l-1.367,-3.687l-3.826,-2.962l-5.622,-2.261l-1.536,-0.216l-0.572,-2.668l-2.111,-1.405l-1.104,-3.23l-1.561,-0.435l-0.151,-1.728l-1.361,-0.676l-0.174,-1.954l-0.866,-2.46l-1.289,-0.441l-0.065,-2.043l1.175,-1.243l-0.945,-3.68l-1.97,-1.078l-0.549,-1.024l0.133,-2.011l-1.614,0.495l-0.917,-1.271l-1.863,-0.953l1.693,-2.174l-0.837,-1.775l-2.362,-1.468l-0.309,-2.66l-0.774,-0.516l-0.221,-2.829l0.925,-1.649l1.764,-0.351l1.354,-1.193l0.579,-2.189l2.593,-2.43l0.575,-2.574l1.684,-0.801l1.383,-0.027l1.995,-0.687l1.145,-1.825l1.607,-1.155l3.811,-0.812l1.628,1.046l2.584,0.647l0.527,1.034l1.592,-0.25l1.98,0.959l1.459,1.266l0.277,1.438l1.412,2.619l1.664,0.073l2.466,1.461l0.353,1.303l-1.306,2.834l2.794,4.198l1.521,0.704l2.09,-0.861l1.564,0.557l2.385,5.612l2.089,1.969l1.819,2.676l0.143,2.159l1.381,-0.252l2.743,0.381l1.527,2.084l0.957,1.892l1.723,1.507l1.85,3.01l0.188,1.247l1.056,1.697l-0.976,3.459l0.626,1.921l1.425,1.964l0.192,2.45l2.139,2.23l0.652,2.639l2.582,0.549l1.515,1.547L604.631,690.712zM509.224,700.938l0.525,2.095l2.792,2.689l0.597,0.62l0.495,0.753l0.417,2.549l0.739,1.608l1.502,0.455l0.677,0.841l0.454,2.259l-0.389,1.748l0.911,0.963l4.575,-3.536l1.17,0.747l0.509,2.028l1.13,2.27l0.125,1.784l0.688,1.467l0.615,2.982l0.859,1.075l0.821,4.015l1.688,0.119l1.288,3.502l-0.076,1.556l-0.853,1.053l0.947,2.946l-0.21,1.86l0.603,1.254l-0.23,1.596l0.137,4.049l-0.782,0.691l-1.906,1.717l-0.887,0.608l-0.937,0.372l-0.433,0.053l-0.284,-0.06l-0.751,-0.754l-0.334,-0.967l-0.231,-1.234l-0.661,0.111l-1.185,0.084l-1.682,0.948l-0.183,1.663l-2.072,1.159l-1.482,-4.133l-0.518,-3.323l-1.249,0.462l-3.216,-2.651l-2.149,-0.597l-3.735,1.541l-0.615,-0.88l-1.885,-1.157l-0.952,-1.392l-1.941,-1.844l-2.611,-4.387l-1.026,-1.306l-0.697,-2.158l-0.079,-1.666l-1.978,-3.488l-0.126,-1.97l-2.169,-0.071l-1.952,-4.522l0.005,-1.195l0.817,-1.147l0.057,-0.988l-1.063,-1.118l1.173,-1.964l3.06,-0.155l1.841,-2.009l2.262,-1.212l1.839,0.996l1.407,0.365l1.24,-0.011l0.434,-0.318l0.284,-0.707l0.494,-1.414l-0.97,-1.496l0.293,-1.958l-2.65,-1.419l0.095,-1.311l2.839,-1.573l0.955,-0.091l0.917,-1.318l1.623,0.831L509.224,700.938z"/>
		<path id="PA-KY" title="Guna Yala" class="land" d="M582.067,654.19L579.979,652.222L577.594,646.609L576.029,646.053L573.939,646.914L572.418,646.21L569.624,642.012L570.93,639.178L570.577,637.875L568.111,636.414L566.447,636.341L565.035,633.722L564.758,632.284L563.299,631.019L561.318,630.06L559.727,630.31L559.199,629.275L556.615,628.628L557.785,628.693L558.103,627.528L557.475,625.877L557.331,623.811L556.084,622.598L553.603,621.664L553.187,619.408L551.458,617.906L548.108,616.747L546.654,615.93L544.996,614.048L543.185,614.016L541.405,612.153L539.589,609.042L540.007,607.866L537.104,605.94L536.233,604.448L535.019,604.337L534.782,602.164L532.727,601.663L532.032,600.188L530.396,600.032L527.407,596.744L524.76,595.146L522.978,594.604L520.901,594.948L518.742,593.814L519.149,591.634L517.789,590.419L517.071,588.531L517.329,587.445L515.77,586.543L513.337,586.247L512.837,585.474L510.467,585.097L507.269,584.066L505.031,584.13L503.372,583.771L501.719,584.802L500.549,584.949L497.545,583.578L495.553,582.159L495.979,580.718L494.593,578.071L494.383,576.728L491.604,577.527L490.531,578.66L489.177,577.905L487.237,577.751L486.564,576.202L485.545,575.582L483.588,576.429L482.62,577.841L482.87,579.441L479.278,578.556L477.765,576.812L477.464,575.188L476.334,572.877L473.82,571.549L473.532,567.901L471.517,567.724L469.032,570.039L466.423,570.465L464.284,570.16L463.715,570.736L461.24,570.804L459.695,569.118L456.642,567.677L455.788,566.095L453.933,564.76L452.594,565.288L451.528,564.061L450.374,564.547L449.743,565.85L448.592,566.371L440.97,564.114L438.856,565.703L436.101,567.189L434.161,565.708L433.188,565.776L431.187,568.32L431.432,570.201L429.592,571.875L428.062,572.177L426.404,571.511L425.026,571.625L422.969,572.647L419.063,573.408L416.576,572.912L414.259,573.007L411.508,572.322L412.284,570.75L410.799,569.243L408.282,568.747L405.635,569.548L403.452,568.835L400.785,569.681L399.425,570.776L396.91,572.069L396.155,571.723L393.585,571.757L392.416,571.104L393.66,569.211L395.683,568.193L396.311,567.225L401.223,563.708L402.766,563.808L403.986,563.127L405.715,559.478L406.233,557.637L407.217,556.128L409.962,553.913L411.269,553.277L412.57,553.804L413.471,545.798L414.006,545.448L418.549,544.953L419.301,545.215L422.338,544.778L423.321,545.215L424.797,544.865L425.434,545.564L424.016,547.022L422.802,546.848L421.991,547.984L416.696,548.13L415.597,548.888L414.297,550.986L414.902,552.822L414.064,553.987L415.423,556.377L414.672,556.872L416.35,558.358L417.911,557.28L420.342,558.038L422.338,557.746L422.829,556.523L424.941,556.669L425.954,556.173L428.5,557.484L430.381,557.775L430.901,559.582L434.865,559.494L436.516,559.989L439.06,558.125L439.813,559.203L443.515,558.301L443.892,556.843L446.438,557.718L450.256,556.289L451.442,557.922L454.943,559.028L456.795,559.902L457.923,558.941L460.267,559.145L461.626,560.456L462.205,559.844L463.854,560.079L465.966,557.805L468.28,558.271L470.652,559.932L472.187,560.485L474.414,560.34L476.642,560.602L477.075,561.768L480.923,561.884L481.878,563.836L484.799,565.118L486.594,565.03L486.767,565.933L488.995,566.865L491.454,567.011L493.914,569.167L496.257,569.662L498.773,570.681L499.354,571.524L501.643,571.928L501.643,572.805L503.721,573.797L505.891,574.176L507.627,573.652L510.462,575.253L512.255,575.574L514.713,577.547L517,578.079L518.331,577.846L520.616,578.282L522.607,579.472L522.612,580.816L525.014,582.068L525.621,583.844L527.273,584.481L528.891,586.203L529.88,586.081L531.351,587.367L530.714,588.794L532.016,589.317L532.854,590.919L534.04,591.385L534.821,592.578L537.483,594.878L537.946,596.42L539.103,595.75L539.393,593.946L540.578,593.888L542.141,595.14L541.968,595.838L545.814,598.603L545.931,601.048L549.575,603.492L551.023,602.736L552.528,603.521L551.659,604.743L549.778,604.337L551.226,606.577L551.429,607.886L550.763,608.729L551.37,610.215L552.412,610.709L554.466,613.095L555.362,615.858L557.446,616.469L557.619,617.808L559.384,618.39L562.798,622.345L563.059,623.247L564.649,623.422L565.401,621.356L568.121,624.644L570.291,626.068L569.799,627.842L570.465,628.744L573.792,628.424L573.966,631.594L572.75,633.135L573.184,634.414L576.077,636.275L580.069,638.397L583.859,639.705L585.45,639.764L586.896,638.456L589.01,638.164L590.542,639.822L592.742,638.688L591.845,640.833L589.66,641.026L588.914,642.42L588.882,644.643L584.087,649.5L583.327,651.699z"/>
		<path id="PA-NB" title="Ngöbe-Buglé" class="land" d="M191.266,626.795l-1.049,0.848l0.274,1.397l-0.68,1.02l0.521,3.54l0.542,1.629l-0.401,1.743l-0.774,0.421l-0.61,3.494l-0.074,2.614l0.417,0.855l-0.389,2.046l0.688,1.759l1.862,2.604l0.918,2.602l1.894,-0.255l1.334,1.363l-0.368,1.031l0.36,2.791l2.083,2.173l-1.271,0.746l-0.937,-1.64l-2.28,1.774l-4.05,-0.266l-1.502,-2.585l-0.71,-2.476l-1.552,-1.119l-0.7,1.36l1.216,1.749l0.528,1.568l-1.906,-0.283l-2.121,0.506l-0.449,-0.66l0.684,-1.786l1.091,-1.396l-1.752,-2.496l-2.624,1.006l-1.101,-1.798l-2.62,3.009l0.794,1.723l1.454,-0.274l0.998,0.952l-2.568,0.856l0.985,1.53l0.153,1.875l-1.94,-0.543l-0.504,-2.179l-1.36,-2.236l-1.718,-0.373l-0.951,2.584l-1.29,1.361l0.704,1.44l-1.248,0.909l0.01,1.287l-2.288,-1.207l-1.157,3.98l-1.631,-1.285l-2.681,0.177l-2.4,-0.869l-1.354,0.917l0.851,1.638l-0.948,0.681l-2.128,0.798l-1.478,1.333l-2.165,-1.727l-1.348,2.648l-0.814,0.19l-0.819,2.686l0.21,0.741l-1.118,1.752l-1.389,0.377l-2.338,2.979l-1.062,-1.499l-1.542,-0.032l-1.179,-2.664l-0.511,1.933l-1.417,1.658l0.44,1.85l-1.409,0.356l-2.105,-1.761l-1.973,1.489l-0.042,-1.467l-2.101,0.577l-1.536,-0.314l-1.38,-1.606l-0.043,-1.408l-1.502,0.382l0.381,-3.539l-3.497,0.259l-1.161,-0.422l-1.386,1.395l-0.728,-1.296l-1.939,-0.381l-0.391,0.78l-2.385,-0.524l-0.915,0.763l-2.899,0.656l-0.676,-1.696l-1.703,-0.043l-2.32,-2.672l0.711,-2.757l-1.618,0.292l-0.25,-0.983l1.211,-1.188l-0.17,-1.86l-2.088,0.792l-1.173,-0.866l-0.592,-3.104l-1.379,-1.309l-0.766,-1.496l-1.221,1.082l-0.213,1.176l-2.613,0.899l-0.624,-0.457l-5.148,1.254l-1.194,-0.809l0.894,-1.31l-0.184,-2.13l2.446,-2.596l0.95,-3.739l1.798,-1.567l-3.511,-1.05l1.545,-3.314l-0.299,-1.714l0.523,-4.094l-0.282,-10.924l-1.482,0.186l-1.59,-0.524l-2.282,-1.726l-0.927,0.146l0.541,1.735l-3.547,-0.684l-0.657,-0.623l-1.897,0.862l-1.152,-1.041l-1.308,-2.093l-1.675,-1.914l-3.216,-0.25l-3.435,-0.934l-0.915,-0.528l1.656,0.283l0.859,-1.3l-0.054,-2.174l0.856,-3.302l1.416,-1.053l-0.173,-1.436l-0.791,-0.751l-0.862,-2.779l-2.166,-2.052l-6.223,-1.534l-1.585,-0.865l-0.172,-0.982l2.818,-1.029l0.962,-1.433l2.358,-0.015l-0.102,-1.319l1.295,-0.397l1.686,-2.953l-0.238,-1.383l1.354,-0.903l0.461,-2.358l1.825,-0.971l2.453,0.977l-0.539,1.659l1.246,2.078l1.023,-0.888l0.921,0.744l-0.804,1.775l-4.614,3.015l-0.335,1.028l0.404,1.601l1.805,1.135l1.392,-0.79l2.044,0.708l0.358,2.26l3.676,0.348l2.768,1.866l1.636,0.778l-0.339,3.483l-1.775,-0.592l-0.231,2.323l2.536,0.533l0.739,2.276l-0.407,1.025l0.906,1.523l1.33,-0.583l-0.066,-1.685l1.074,-1.937l3.536,-1.813l3.297,0.331l0.902,-2.598l0.712,0.468l0.287,2.5l2.228,0.441l3.674,-2.777l0.53,-2.604l1.267,-1.11l2.006,1.688l4.6,-0.407l1.128,-0.932l0.434,-1.893l-0.232,-1.774l2.401,0.786l0.926,0.844l0.058,1.367l1.679,-0.028l1.88,-0.699l0.752,0.699l2.344,0.203l2.604,2.356l1.91,-0.96l1.1,-1.541l0.461,-2.067l-0.462,-1.833l-0.897,-1.163l-4.716,-1.514l-3.848,-3.871l0.318,-0.698l-1.533,-2.445l-2.141,-1.396l-0.376,-0.815l-4.889,-2.766l2.662,-1.397l1.591,1.311l0.724,-0.903l1.996,0.815l-0.202,-1.776l-3.472,-0.728l-0.26,-2.358l3.847,0.088l1.505,1.863l1.388,2.417l2.026,0.728l0.606,1.077l-0.983,2.008l1.446,3.813l2.951,0.67l3.645,0.116l0.057,0.874l1.274,1.104l3.154,1.484l0.375,1.572l2.112,3.113l1.823,2.036l3.067,4.161l2.863,3.229l3.443,3.549l5.411,4.538l1.765,1.135l2.111,0.814l2.085,-1.02l2.284,0.292l2.517,1.134l1.533,-0.088l0.549,-0.755l3.473,0.669l2.749,1.512l3.095,-0.407l2.662,0.523l1.216,-1.134h2.979l2.228,-0.378L191.266,626.795zM155.855,593.073l0.983,0.757l-0.087,1.223l-2.835,-0.35l0.232,-1.397L155.855,593.073zM174.016,668.458l2.688,-0.032l0.647,1.02l0.929,0.274l2.179,-1.259l-0.213,2.286l-1.577,0.827l-1.346,2.481l-2.649,0.456l-0.691,0.097l-3.625,-2.117l-1.773,-0.308l-0.322,-0.851l0.486,-1.14l1.816,1.305l1.371,-0.744l-0.011,-0.831l0.804,-1.646l0.841,-1.074L174.016,668.458zM158.376,681.372l-0.7,-1.086l-1.22,0.159l-1.022,-0.933l0.459,-1.888l1.146,-1.317l-1.407,-2.092l-1.63,1.173l-0.382,1.831l0.425,1.01l-1.273,-0.504l-1.424,-0.071l-0.892,-2.321l-0.4,-0.938l1.54,0.307l0.883,1.285l1.195,-0.906l-0.779,-1.958l1.169,-2.361l0.007,1.333l3.722,1.275l-0.575,1.512l1.271,1.258l1.354,1.449l0.392,2.224l-1.652,0.684L158.376,681.372zM167.976,680.366l-2.502,3.236l-1.177,-0.536l-1.726,0.401l-1.838,-2.898l1.512,-0.396l0.301,-1.248l1.844,-3.472l1.415,1.616l0.003,1.526l2.196,1.11L167.976,680.366zM154.933,682.048l-2.771,0.313l-0.67,0.841l3.403,0.401l-0.355,0.901l-3.463,-0.787l-0.172,-1.449l3.015,-0.578L154.933,682.048zM154.326,688.422l1.058,1.098l1.836,-0.396l0.583,0.954l2.062,-1.655l1.997,2.047l-0.268,1.845l-3.092,1.376l-0.902,-1.096l-3.277,0.139l-1.038,-1.582l-0.217,-1.69L154.326,688.422z"/>
	</g>
</svg>