<?xml version="1.0" encoding="utf-8"?>
<!-- (c) ammap.com | SVG map of Puerto Rico - Low -->
<svg xmlns="http://www.w3.org/2000/svg" xmlns:amcharts="http://amcharts.com/ammap" xmlns:xlink="http://www.w3.org/1999/xlink" version="1.1">
	<defs>
		<style type="text/css">
			.land
			{
				fill: #CCCCCC;
				fill-opacity: 1;
				stroke:white;
				stroke-opacity: 1;
				stroke-width:0.5;
			}
		</style>

		<amcharts:ammap projection="mercator" leftLongitude="-67.951578" topLatitude="18.516010" rightLongitude="-65.221110" bottomLatitude="17.881429"></amcharts:ammap>

		<!-- All areas are listed in the line below. You can use this list in your script. -->
		<!--{id:"PR-YU"},{id:"PR-YB"},{id:"PR-VL"},{id:"PR-VQ"},{id:"PR-VB"},{id:"PR-VA"},{id:"PR-UT"},{id:"PR-TJ"},{id:"PR-TB"},{id:"PR-TA"},{id:"PR-SI"},{id:"PR-SS"},{id:"PR-SL"},{id:"PR-SJ"},{id:"PR-SG"},{id:"PR-SA"},{id:"PR-SB"},{id:"PR-RG"},{id:"PR-RC"},{id:"PR-QB"},{id:"PR-PO"},{id:"PR-PN"},{id:"PR-PT"},{id:"PR-OR"},{id:"PR-NR"},{id:"PR-NG"},{id:"PR-MV"},{id:"PR-MC"},{id:"PR-MG"},{id:"US-MG"},{id:"PR-MB"},{id:"PR-MR"},{id:"PR-MT"},{id:"PR-LQ"},{id:"PR-LZ"},{id:"PR-LP"},{id:"PR-LM"},{id:"PR-LR"},{id:"PR-LJ"},{id:"PR-JC"},{id:"PR-JD"},{id:"PR-JY"},{id:"PR-IS"},{id:"PR-HU"},{id:"PR-HO"},{id:"PR-HA"},{id:"PR-GR"},{id:"PR-GB"},{id:"PR-GL"},{id:"PR-GM"},{id:"PR-GC"},{id:"PR-FL"},{id:"PR-FJ"},{id:"PR-DO"},{id:"PR-CU"},{id:"PR-CZ"},{id:"PR-CM"},{id:"PR-CO"},{id:"PR-CD"},{id:"PR-CL"},{id:"PR-CB"},{id:"PR-CY"},{id:"PR-CT"},{id:"PR-CN"},{id:"PR-CV"},{id:"PR-CA"},{id:"PR-CG"},{id:"PR-CR"},{id:"PR-BY"},{id:"PR-BQ"},{id:"PR-BC"},{id:"PR-AR"},{id:"PR-AC"},{id:"PR-AN"},{id:"PR-AI"},{id:"PR-AB"},{id:"PR-AL"},{id:"PR-AD"},{id:"PR-AJ"}-->

	</defs>
	<g>
		<path id="PR-YU" title="Yauco" class="land" d="M-85.31,-5285.06L-85.31,-5285.06L-101.12,-5231L-102.9,-5231.01L-110.31,-5252.31L-122.15,-5290.31L-102.66,-5286.33L-96.52,-5296.17L-93.74,-5296.34L-85.31,-5285.06z"/>
		<path id="PR-YB" title="Yabucoa" class="land" d="M178.32,-5280.33L178.32,-5280.33L185.99,-5280.46L201.58,-5265.75L201.64,-5265.75L201.97,-5265.7L190.11,-5260.72L191.94,-5250.51L186.15,-5248.17L146.56,-5262.52L140.34,-5267.55L161.51,-5272.43L164.42,-5280.92L178.32,-5280.33z"/>
		<path id="PR-VL" title="Villalba" class="land" d="M15.88,-5298.01L15.88,-5298.01L23.06,-5288.69L19.97,-5269.55L-5.17,-5270.42L-6.33,-5290.55L15.88,-5298.01z"/>
		<path id="PR-VQ" title="Vieques" class="land" d="M316.99,-5293.89L316.99,-5293.89L353.28,-5285.17L341.9,-5285.59L330.6,-5278.06L325.59,-5284L322.56,-5276.97L307.04,-5278.31L305.61,-5272.36L300.75,-5276.21L300.59,-5270.69L274.33,-5269.18L264.3,-5275.54L264.46,-5280.82L282.21,-5283.92L282.52,-5290.37L284.83,-5285.01L316.99,-5293.89z"/>
		<path id="PR-VB" title="Vega Baja" class="land" d="M43.1,-5390.64L43.1,-5390.64L35.16,-5348.59L29.95,-5356.91L16.02,-5356.7L17.55,-5391.48L43.1,-5390.64z"/>
		<path id="PR-VA" title="Vega Alta" class="land" d="M53.04,-5387.96L53.04,-5387.96L56.21,-5360.61L51.98,-5355.56L41.64,-5353.65L38.62,-5345.3L35.16,-5348.59L43.1,-5390.64L53.04,-5387.96z"/>
		<path id="PR-UT" title="Utuado" class="land" d="M-30.6,-5343.76L-30.6,-5343.76L-19.15,-5334.77L-28.27,-5329.82L-28.61,-5320.75L-35.89,-5319.27L-42.88,-5292.6L-48.82,-5290.83L-55.31,-5310.2L-73.2,-5312.07L-80.95,-5320.34L-90.84,-5314.21L-93.45,-5342.24L-77.41,-5342.82L-66.05,-5350.11L-61.07,-5339.79L-30.6,-5343.76z"/>
		<path id="PR-TJ" title="Trujillo Alto" class="land" d="M143.52,-5359.47L143.52,-5359.47L159.82,-5333.28L152.4,-5338.32L137.02,-5336.74L131.45,-5338.89L133.04,-5355.87L143.52,-5359.47z"/>
		<path id="PR-TB" title="Toa Baja" class="land" d="M103.75,-5383.43L103.75,-5383.43L94.8,-5374.82L86.58,-5369.91L86.86,-5362.14L70.93,-5363.68L69.29,-5382.09L82.7,-5385.52L103.75,-5383.43z"/>
		<path id="PR-TA" title="Toa Alta" class="land" d="M86.86,-5362.14L86.86,-5362.14L84.38,-5340.27L81.05,-5345.44L63.55,-5344.24L51.98,-5355.56L56.21,-5360.61L70.93,-5363.68L86.86,-5362.14z"/>
		<path id="PR-SI" title="Santa Isabel" class="land" d="M20.94,-5257.61L20.94,-5257.61L41.18,-5255.83L48.34,-5249.25L46.4,-5237.71L32.44,-5225.91L13.72,-5239.21L22.56,-5250.43L20.94,-5257.61z"/>
		<path id="PR-SS" title="San Sebastián" class="land" d="M-120.96,-5363.4L-120.96,-5363.4L-114.25,-5355.27L-112.66,-5355.57L-116.73,-5321.15L-154.08,-5332.1L-158.38,-5337.23L-151.08,-5363.5L-127.67,-5358.01L-120.96,-5363.4z"/>
		<path id="PR-SL" title="San Lorenzo" class="land" d="M157.29,-5313.86L157.29,-5313.86L163.77,-5287.82L164.42,-5280.92L161.51,-5272.43L140.34,-5267.55L137.69,-5275.89L128.57,-5278.04L128.17,-5279.05L136.37,-5285.67L143.91,-5307.25L157.29,-5313.86z"/>
		<path id="PR-SJ" title="San Juan" class="land" d="M132.8,-5380.66L132.8,-5380.66L145.24,-5367.67L143.52,-5359.47L133.04,-5355.87L131.45,-5338.89L124.29,-5336.15L120.18,-5334.43L112.3,-5374.11L119.51,-5378.9L107.18,-5387.54L132.8,-5380.66z"/>
		<path id="PR-SG" title="San Germán" class="land" d="M-136.96,-5288.13L-136.96,-5288.13L-138.55,-5260.64L-174.54,-5261.79L-172.05,-5276.78L-165.59,-5278.87L-167.96,-5289.92L-158.1,-5297.24L-136.96,-5288.13z"/>
		<path id="PR-SA" title="Salinas" class="land" d="M95.65,-5259.88L95.65,-5259.88L84.43,-5248.78L84.2,-5233.52L74.7,-5222.48L46.4,-5237.71L48.34,-5249.25L69.45,-5267.73L78.96,-5273.51L85.47,-5258.71L95.65,-5259.88z"/>
		<path id="PR-SB" title="Sabana Grande" class="land" d="M-110.31,-5252.31L-110.31,-5252.31L-131.49,-5254.53L-138.55,-5260.64L-136.96,-5288.13L-122.15,-5290.31L-110.31,-5252.31z"/>
		<path id="PR-RG" title="Río Grande" class="land" d="M214.98,-5361.03L214.98,-5361.03L209.05,-5355.21L215.26,-5342.97L212.31,-5332.47L210.05,-5329.17L202.51,-5334.22L193.61,-5327.05L190.17,-5327.78L181.03,-5333.4L181.39,-5358.97L192.02,-5372.27L208.82,-5369.5L214.98,-5361.03z"/>
		<path id="PR-RC" title="Rincón" class="land" d="M-195.66,-5339.19L-195.66,-5339.19L-208.02,-5334.17L-221.16,-5353.65L-211.91,-5358.09L-195.66,-5339.19z"/>
		<path id="PR-QB" title="Quebradillas" class="land" d="M-115.09,-5390.73L-115.09,-5390.73L-114.25,-5355.27L-120.96,-5363.4L-128.15,-5365.91L-124.47,-5370.7L-133.72,-5380.53L-130.97,-5392.24L-115.09,-5390.73z"/>
		<path id="PR-PO" title="Ponce" class="land" d="M-15.07,-5290.64L-15.07,-5290.64L-18.74,-5284L-8.74,-5245.08L-11.26,-5236.87L-23.92,-5232.94L-34.34,-5233.44L-36.41,-5239.55L-49.07,-5234.53L-56.93,-5237.87L-51.08,-5270.82L-55.66,-5284.16L-48.82,-5290.83L-42.88,-5292.6L-26.09,-5296.61L-15.07,-5290.64z"/>
		<path id="PR-PN" title="Peñuelas" class="land" d="M-55.66,-5284.16L-55.66,-5284.16L-51.08,-5270.82L-56.93,-5237.87L-66.02,-5242.31L-75.02,-5236.28L-73.03,-5244.47L-66.8,-5249.98L-68.45,-5259.03L-73.23,-5261.72L-76.37,-5256.8L-77.11,-5285.42L-66.61,-5278.61L-55.66,-5284.16z"/>
		<path id="PR-PT" title="Patillas" class="land" d="M140.34,-5267.55L140.34,-5267.55L146.56,-5262.52L159.51,-5242.52L169.29,-5238.88L137.59,-5238.21L129.5,-5255.47L119.72,-5254.59L117.73,-5261.78L128.04,-5277.18L128.57,-5278.04L137.69,-5275.89L140.34,-5267.55z"/>
		<path id="PR-OR" title="Orocovis" class="land" d="M42.69,-5317.55L42.69,-5317.55L42.47,-5303.3L39.02,-5305.3L36.4,-5297.67L25.82,-5293.88L15.88,-5298.01L-6.33,-5290.55L-13.48,-5290.93L-12.31,-5293.96L-3.44,-5295.02L-5.12,-5314.14L-0.39,-5322.08L12.72,-5322.44L26.1,-5324.24L34.95,-5333.48L33.65,-5327.43L42.69,-5317.55z"/>
		<path id="PR-NR" title="Naranjito" class="land" d="M84.38,-5340.27L84.38,-5340.27L84.14,-5328.18L66.93,-5318.78L53.55,-5319.89L60.95,-5327.11L63.55,-5344.24L81.05,-5345.44L84.38,-5340.27z"/>
		<path id="PR-NG" title="Naguabo" class="land" d="M210.05,-5329.17L210.05,-5329.17L220.64,-5321.08L233.75,-5321.18L231.22,-5316.59L241.15,-5312.52L240.68,-5307.04L231.74,-5298.49L223.46,-5301.93L218.01,-5297.32L202.72,-5307.18L193.18,-5305.19L193.61,-5327.05L202.51,-5334.22L210.05,-5329.17z"/>
		<path id="PR-MV" title="Morovis" class="land" d="M35.16,-5348.59L35.16,-5348.59L38.62,-5345.3L34.95,-5333.48L26.1,-5324.24L12.72,-5322.44L10.58,-5356.82L16.02,-5356.7L29.95,-5356.91L35.16,-5348.59z"/>
		<path id="PR-MC" title="Moca" class="land" d="M-151.08,-5363.5L-151.08,-5363.5L-158.38,-5337.23L-180.56,-5340.69L-181.19,-5362.26L-159.38,-5383.83L-151.08,-5363.5z"/>
		<path id="PR-MG" title="Mayagüez" class="land" d="M-166.7,-5321.59L-166.7,-5321.59L-149.03,-5303.67L-158.1,-5297.24L-167.96,-5289.92L-189.01,-5290.95L-195.11,-5295.56L-187.17,-5306.37L-197.44,-5325.05L-186.1,-5326.66L-178.58,-5317.98L-166.7,-5321.59z"/>
		<path id="US-MG" title="Mayagüez" class="land" d="M-389.98,-5281.74L-389.98,-5281.74L-384.72,-5271.94L-393,-5262.23L-400.25,-5260.47L-414.33,-5269.68L-410.67,-5279.23L-389.98,-5281.74z"/>
		<path id="PR-MB" title="Maunabo" class="land" d="M186.15,-5248.17L186.15,-5248.17L169.29,-5238.88L159.51,-5242.52L146.56,-5262.52L186.15,-5248.17z"/>
		<path id="PR-MR" title="Maricao" class="land" d="M-114.04,-5301.32L-114.04,-5301.32L-96.52,-5296.17L-102.66,-5286.33L-122.15,-5290.31L-136.96,-5288.13L-158.1,-5297.24L-149.03,-5303.67L-136.88,-5307.55L-114.04,-5301.32z"/>
		<path id="PR-MT" title="Manatí" class="land" d="M16.02,-5356.7L16.02,-5356.7L10.58,-5356.82L-9.69,-5350.8L-12.2,-5366.81L-7.29,-5374.7L-9.8,-5389.22L12.06,-5386.11L17.55,-5391.48L16.02,-5356.7z"/>
		<path id="PR-LQ" title="Luquillo" class="land" d="M237.97,-5353.98L237.97,-5353.98L233.69,-5342.33L220,-5331.73L213.91,-5334.34L212.31,-5332.47L215.26,-5342.97L209.05,-5355.21L214.98,-5361.03L237.97,-5353.98z"/>
		<path id="PR-LZ" title="Loíza" class="land" d="M146.08,-5382.15L146.08,-5382.15L172.52,-5381.08L177.86,-5376.88L172.21,-5370L178.41,-5376.71L192.02,-5372.27L181.39,-5358.97L180.55,-5368.12L166.46,-5365.72L146.08,-5382.15z"/>
		<path id="PR-LP" title="Las Piedras" class="land" d="M193.61,-5327.05L193.61,-5327.05L193.18,-5305.19L178.32,-5280.33L164.42,-5280.92L163.77,-5287.82L185.52,-5321.6L190.17,-5327.78L193.61,-5327.05z"/>
		<path id="PR-LM" title="Las Marías" class="land" d="M-116.73,-5321.15L-116.73,-5321.15L-114.04,-5301.32L-136.88,-5307.55L-149.03,-5303.67L-166.7,-5321.59L-154.08,-5332.1L-116.73,-5321.15z"/>
		<path id="PR-LR" title="Lares" class="land" d="M-90.84,-5314.21L-90.84,-5314.21L-96.35,-5308.26L-93.74,-5296.34L-96.52,-5296.17L-114.04,-5301.32L-116.73,-5321.15L-112.66,-5355.57L-92.83,-5348.29L-93.45,-5342.24L-90.84,-5314.21z"/>
		<path id="PR-LJ" title="Lajas" class="land" d="M-138.55,-5260.64L-138.55,-5260.64L-131.49,-5254.53L-138.06,-5230.24L-140.21,-5236.03L-160.9,-5237.2L-174.71,-5228.42L-174.54,-5261.79L-138.55,-5260.64z"/>
		<path id="PR-JC" title="Juncos" class="land" d="M185.52,-5321.6L185.52,-5321.6L163.77,-5287.82L157.29,-5313.86L166.58,-5326.23L167.24,-5325.79L185.52,-5321.6z"/>
		<path id="PR-JD" title="Juana Díaz" class="land" d="M-13.48,-5290.93L-13.48,-5290.93L-6.33,-5290.55L-5.17,-5270.42L19.97,-5269.55L20.94,-5257.61L22.56,-5250.43L13.72,-5239.21L-11.26,-5236.87L-8.74,-5245.08L-18.74,-5284L-15.07,-5290.64L-13.48,-5290.93z"/>
		<path id="PR-JY" title="Jayuya" class="land" d="M-12.31,-5293.96L-12.31,-5293.96L-13.48,-5290.93L-15.07,-5290.64L-26.09,-5296.61L-42.88,-5292.6L-35.89,-5319.27L-28.61,-5320.75L-28.27,-5329.82L-19.15,-5334.77L-18.53,-5317.95L-9.44,-5304.19L-12.31,-5293.96z"/>
		<path id="PR-IS" title="Isabela" class="land" d="M-130.97,-5392.24L-130.97,-5392.24L-133.72,-5380.53L-124.47,-5370.7L-128.15,-5365.91L-120.96,-5363.4L-127.67,-5358.01L-151.08,-5363.5L-159.38,-5383.83L-172.68,-5399.63L-130.97,-5392.24z"/>
		<path id="PR-HU" title="Humacao" class="land" d="M218.01,-5297.32L218.01,-5297.32L201.58,-5265.75L185.99,-5280.46L178.32,-5280.33L193.18,-5305.19L202.72,-5307.18L218.01,-5297.32z"/>
		<path id="PR-HO" title="Hormigueros" class="land" d="M-167.96,-5289.92L-167.96,-5289.92L-165.59,-5278.87L-172.05,-5276.78L-189.01,-5290.95L-167.96,-5289.92z"/>
		<path id="PR-HA" title="Hatillo" class="land" d="M-76.05,-5390.69L-76.05,-5390.69L-77.41,-5342.82L-93.45,-5342.24L-92.83,-5348.29L-88.96,-5361.56L-96.51,-5391.84L-76.05,-5390.69z"/>
		<path id="PR-GR" title="Gurabo" class="land" d="M159.82,-5333.28L159.82,-5333.28L166.58,-5326.23L157.29,-5313.86L143.91,-5307.25L137.02,-5336.74L152.4,-5338.32L159.82,-5333.28z"/>
		<path id="PR-GB" title="Guaynabo" class="land" d="M111.15,-5377.55L111.15,-5377.55L112.3,-5374.11L120.18,-5334.43L102.03,-5329.08L103.84,-5359.15L109.29,-5359.01L105.55,-5372.82L111.15,-5377.55z"/>
		<path id="PR-GL" title="Guayanilla" class="land" d="M-77.11,-5285.42L-77.11,-5285.42L-76.37,-5256.8L-73.23,-5261.72L-68.45,-5259.03L-66.8,-5249.98L-73.03,-5244.47L-85.37,-5242.98L-87.75,-5237.45L-81.15,-5238.63L-91.1,-5231.18L-101.12,-5231L-85.31,-5285.06L-77.11,-5285.42z"/>
		<path id="PR-GM" title="Guayama" class="land" d="M128.04,-5277.18L128.04,-5277.18L117.73,-5261.78L119.72,-5254.59L116.02,-5251.28L123.14,-5234.61L81.55,-5220.97L82.1,-5228.17L93.17,-5228.5L84.2,-5233.52L84.43,-5248.78L95.65,-5259.88L106.36,-5256.59L107,-5274L128.04,-5277.18z"/>
		<path id="PR-GC" title="Guánica" class="land" d="M-110.31,-5252.31L-110.31,-5252.31L-102.9,-5231.01L-115.37,-5229.26L-122.14,-5236.45L-117.13,-5229.84L-123.65,-5227.33L-121.42,-5222.56L-138.06,-5230.24L-131.49,-5254.53L-110.31,-5252.31z"/>
		<path id="PR-FL" title="Florida" class="land" d="M-9.69,-5350.8L-9.69,-5350.8L-25.98,-5346.67L-25.21,-5362.32L-18.75,-5369.57L-12.2,-5366.81L-9.69,-5350.8z"/>
		<path id="PR-FJ" title="Fajardo" class="land" d="M248.22,-5330.32L248.22,-5330.32L230.6,-5330.98L224.63,-5325.39L213.91,-5334.34L220,-5331.73L233.69,-5342.33L237.97,-5353.98L254.03,-5360.69L247.5,-5349.12L248.22,-5330.32z"/>
		<path id="PR-DO" title="Dorado" class="land" d="M82.7,-5385.52L82.7,-5385.52L69.29,-5382.09L70.93,-5363.68L56.21,-5360.61L53.04,-5387.96L82.7,-5385.52z"/>
		<path id="PR-CU" title="Culebra" class="land" d="M332.83,-5350.63L332.83,-5350.63L359.81,-5336.29L354.48,-5332.01L343.41,-5338.22L347.39,-5328.33L332.83,-5350.63z"/>
		<path id="PR-CZ" title="Corozal" class="land" d="M63.55,-5344.24L63.55,-5344.24L60.95,-5327.11L53.55,-5319.89L42.69,-5317.55L33.65,-5327.43L34.95,-5333.48L38.62,-5345.3L41.64,-5353.65L51.98,-5355.56L63.55,-5344.24z"/>
		<path id="PR-CM" title="Comerío" class="land" d="M94.9,-5312.38L94.9,-5312.38L82.61,-5296.96L74.26,-5300.39L67.77,-5300.66L66.93,-5318.78L84.14,-5328.18L88.66,-5322.73L94.9,-5312.38z"/>
		<path id="PR-CO" title="Coamo" class="land" d="M36.4,-5297.67L36.4,-5297.67L53.11,-5290.54L51.41,-5282.77L69.45,-5267.73L48.34,-5249.25L41.18,-5255.83L20.94,-5257.61L19.97,-5269.55L23.06,-5288.69L15.88,-5298.01L25.82,-5293.88L36.4,-5297.67z"/>
		<path id="PR-CD" title="Cidra" class="land" d="M109.48,-5308.09L109.48,-5308.09L115.98,-5295.73L104.47,-5285.64L81.18,-5287.9L73.74,-5299.1L74.26,-5300.39L82.61,-5296.96L94.9,-5312.38L101.39,-5314.26L102.73,-5304.34L109.48,-5308.09z"/>
		<path id="PR-CL" title="Ciales" class="land" d="M10.58,-5356.82L10.58,-5356.82L12.72,-5322.44L-0.39,-5322.08L-5.12,-5314.14L-3.44,-5295.02L-12.31,-5293.96L-9.44,-5304.19L-18.53,-5317.95L-19.15,-5334.77L-30.6,-5343.76L-25.98,-5346.67L-9.69,-5350.8L10.58,-5356.82z"/>
		<path id="PR-CB" title="Ceiba" class="land" d="M248.22,-5330.32L248.22,-5330.32L260.95,-5313.41L254.67,-5308.38L249.09,-5315.17L249.01,-5305.11L240.68,-5307.04L241.15,-5312.52L231.22,-5316.59L233.75,-5321.18L220.64,-5321.08L210.05,-5329.17L212.31,-5332.47L213.91,-5334.34L224.63,-5325.39L230.6,-5330.98L248.22,-5330.32z"/>
		<path id="PR-CY" title="Cayey" class="land" d="M128.17,-5279.05L128.17,-5279.05L128.57,-5278.04L128.04,-5277.18L107,-5274L106.36,-5256.59L95.65,-5259.88L85.47,-5258.71L78.96,-5273.51L81.18,-5287.9L104.47,-5285.64L115.98,-5295.73L128.17,-5279.05z"/>
		<path id="PR-CT" title="Cataño" class="land" d="M111.15,-5377.55L111.15,-5377.55L105.55,-5372.82L94.8,-5374.82L103.75,-5383.43L111.15,-5377.55z"/>
		<path id="PR-CN" title="Carolina" class="land" d="M145.53,-5382.76L145.53,-5382.76L145.61,-5382.66L146.08,-5382.15L166.46,-5365.72L163.02,-5363.49L171.36,-5340.18L167.24,-5325.79L166.58,-5326.23L159.82,-5333.28L143.52,-5359.47L145.24,-5367.67L132.8,-5380.66L145.53,-5382.76z"/>
		<path id="PR-CV" title="Canóvanas" class="land" d="M181.39,-5358.97L181.39,-5358.97L181.03,-5333.4L190.17,-5327.78L185.52,-5321.6L167.24,-5325.79L171.36,-5340.18L163.02,-5363.49L166.46,-5365.72L180.55,-5368.12L181.39,-5358.97z"/>
		<path id="PR-CA" title="Camuy" class="land" d="M-96.51,-5391.84L-96.51,-5391.84L-88.96,-5361.56L-92.83,-5348.29L-112.66,-5355.57L-114.25,-5355.27L-115.09,-5390.73L-96.51,-5391.84z"/>
		<path id="PR-CG" title="Caguas" class="land" d="M137.02,-5336.74L137.02,-5336.74L143.91,-5307.25L136.37,-5285.67L128.17,-5279.05L115.98,-5295.73L109.48,-5308.09L121.12,-5320.04L124.29,-5336.15L131.45,-5338.89L137.02,-5336.74z"/>
		<path id="PR-CR" title="Cabo Rojo" class="land" d="M-195.11,-5295.56L-195.11,-5295.56L-189.01,-5290.95L-172.05,-5276.78L-174.54,-5261.79L-174.71,-5228.42L-194.73,-5234.11L-196.72,-5223.9L-204.92,-5230.18L-204.44,-5242.64L-192.58,-5250.43L-203.41,-5255.37L-196.16,-5265.66L-201.18,-5269.35L-195.11,-5295.56z"/>
		<path id="PR-BY" title="Bayamón" class="land" d="M105.55,-5372.82L105.55,-5372.82L109.29,-5359.01L103.84,-5359.15L102.03,-5329.08L88.66,-5322.73L84.14,-5328.18L84.38,-5340.27L86.86,-5362.14L86.58,-5369.91L94.8,-5374.82L105.55,-5372.82z"/>
		<path id="PR-BQ" title="Barranquitas" class="land" d="M66.93,-5318.78L66.93,-5318.78L67.77,-5300.66L74.26,-5300.39L73.74,-5299.1L53.11,-5290.54L36.4,-5297.67L39.02,-5305.3L42.47,-5303.3L42.69,-5317.55L53.55,-5319.89L66.93,-5318.78z"/>
		<path id="PR-BC" title="Barceloneta" class="land" d="M-9.8,-5389.22L-9.8,-5389.22L-7.29,-5374.7L-12.2,-5366.81L-18.75,-5369.57L-25.21,-5362.32L-24.9,-5390.98L-9.8,-5389.22z"/>
		<path id="PR-AR" title="Arroyo" class="land" d="M123.14,-5234.61L123.14,-5234.61L116.02,-5251.28L119.72,-5254.59L129.5,-5255.47L137.59,-5238.21L129.54,-5230.34L123.14,-5234.61z"/>
		<path id="PR-AC" title="Arecibo" class="land" d="M-24.9,-5390.98L-24.9,-5390.98L-25.21,-5362.32L-25.98,-5346.67L-30.6,-5343.76L-61.07,-5339.79L-66.05,-5350.11L-77.41,-5342.82L-76.05,-5390.69L-59.58,-5387.04L-50.74,-5392.66L-24.9,-5390.98z"/>
		<path id="PR-AN" title="Añasco" class="land" d="M-158.38,-5337.23L-158.38,-5337.23L-154.08,-5332.1L-166.7,-5321.59L-178.58,-5317.98L-186.1,-5326.66L-197.44,-5325.05L-199.27,-5332.27L-208.02,-5334.17L-195.66,-5339.19L-180.56,-5340.69L-158.38,-5337.23z"/>
		<path id="PR-AI" title="Aibonito" class="land" d="M73.74,-5299.1L73.74,-5299.1L81.18,-5287.9L78.96,-5273.51L69.45,-5267.73L51.41,-5282.77L53.11,-5290.54L73.74,-5299.1z"/>
		<path id="PR-AB" title="Aguas Buenas" class="land" d="M109.48,-5308.09L109.48,-5308.09L102.73,-5304.34L101.39,-5314.26L94.9,-5312.38L88.66,-5322.73L102.03,-5329.08L120.18,-5334.43L124.29,-5336.15L121.12,-5320.04L109.48,-5308.09z"/>
		<path id="PR-AL" title="Aguadilla" class="land" d="M-159.38,-5383.83L-159.38,-5383.83L-181.19,-5362.26L-188.11,-5363.47L-189.13,-5370.09L-190.59,-5391.99L-172.68,-5399.63L-159.38,-5383.83z"/>
		<path id="PR-AD" title="Aguada" class="land" d="M-181.19,-5362.26L-181.19,-5362.26L-180.56,-5340.69L-195.66,-5339.19L-211.91,-5358.09L-189.13,-5370.09L-188.11,-5363.47L-181.19,-5362.26z"/>
		<path id="PR-AJ" title="Adjuntas" class="land" d="M-48.82,-5290.83L-48.82,-5290.83L-55.66,-5284.16L-66.61,-5278.61L-77.11,-5285.42L-85.31,-5285.06L-93.74,-5296.34L-96.35,-5308.26L-90.84,-5314.21L-80.95,-5320.34L-73.2,-5312.07L-55.31,-5310.2L-48.82,-5290.83z"/>
	</g>
</svg>
