<?xml version="1.0" encoding="utf-8"?>
<!-- (c) ammap.com | SVG map of Suriname - High -->
<svg xmlns="http://www.w3.org/2000/svg" xmlns:amcharts="http://amcharts.com/ammap" xmlns:xlink="http://www.w3.org/1999/xlink" version="1.1">
	<defs>
		<style type="text/css">
			.land
			{
				fill: #CCCCCC;
				fill-opacity: 1;
				stroke:white;
				stroke-opacity: 1;
				stroke-width:0.5;
			}
		</style>

		<amcharts:ammap projection="mercator" leftLongitude="-58.070506" topLatitude="6.009283" rightLongitude="-53.951025" bottomLatitude="1.837306"></amcharts:ammap>

		<!-- All areas are listed in the line below. You can use this list in your script. -->
		<!--{id:"SR-WA"},{id:"SR-SA"},{id:"SR-PM"},{id:"SR-CR"},{id:"SR-CM"},{id:"SR-SI"},{id:"SR-PR"},{id:"SR-MA"},{id:"SR-BR"},{id:"SR-NI"}-->

	</defs>
	<g>
		<path id="SR-WA" title="Wanica" class="land" d="M108.3,-831.39L108.3,-831.39L108.2,-830.79L108.08,-828.7L108.43,-823.52L109.47,-819.6L110.09,-818.14L110.93,-816.79L111.93,-815.67L114.37,-814.1L120.39,-812.13L120.81,-811.23L122.5,-808.6L124.61,-806.3L127.16,-804.43L132.77,-802.65L135.55,-801.42L136.76,-799.51L135.85,-798.47L135.09,-798.1L128.03,-800.21L124.47,-800.39L109.44,-797.48L104.71,-797.34L91.09,-798.92L90.22,-804.04L90.36,-807.41L90.72,-809.04L91.9,-809.88L95.86,-814.15L104.92,-833.31L105,-833.56L105,-833.56L106.45,-832.37L107.86,-831.51L108.3,-831.39L108.3,-831.39z"/>
		<path id="SR-SA" title="Saramacca" class="land" d="M105,-833.56L105,-833.56L104.92,-833.31L95.86,-814.15L91.9,-809.88L90.72,-809.04L90.36,-807.41L90.22,-804.04L91.09,-798.92L91.87,-797.48L92.21,-796.53L92.18,-795.56L91.53,-794.76L90.15,-794.1L87.78,-793.53L86.16,-792.39L85.82,-791.45L86.32,-790.62L87.07,-789.87L87.59,-788.95L87.75,-787.93L87.32,-786.9L86.5,-785.96L85.32,-784.91L84.91,-783.9L84.53,-781.9L83.59,-780.02L83.63,-779.09L84.26,-778.13L86.35,-776.46L86.99,-775.58L87.1,-774.67L86.83,-773.66L86.19,-772.65L85.52,-771.78L85.18,-770.92L84.97,-769.15L84.57,-768.38L83.51,-767.73L81.42,-766.79L80.21,-766.8L79.44,-766L79.15,-765.17L78.7,-764.41L77.94,-764.13L76.97,-764.86L76.18,-765.6L75.31,-766.05L74.18,-765.62L73.32,-765.03L71.61,-764.58L28.89,-761.22L23.35,-762.7L21.61,-762.8L15.28,-761.15L14.06,-761.41L13.03,-762.17L12.72,-764.45L12.14,-766.2L12.17,-768.14L13.2,-770.49L14.58,-771.88L15.42,-773.32L15.53,-774.75L14.09,-776.25L13.52,-778L11.69,-780.16L10.89,-782.83L9.84,-783.99L9.31,-784.42L5.56,-788.48L4.48,-790.19L3.98,-791.24L3.68,-792.19L3.6,-793.09L3.88,-794.1L4.25,-794.83L5.07,-795.4L6.24,-795.83L10.08,-796.26L12.21,-796.78L14.15,-798.83L14.45,-799.49L14.45,-799.49L15.43,-799.49L16.17,-801.72L16.41,-803.92L16.31,-808.71L15.85,-811.19L13.42,-816.52L11.9,-819.99L14.07,-822.84L12.65,-824.11L10.93,-824.03L9.29,-823.96L7.33,-825.61L6.87,-828.43L7.5,-830.55L9.78,-833.53L10.74,-834.98L12.6,-836.93L13.97,-838.39L16.02,-839.95L18.56,-840.92L21.88,-841.79L25.3,-841.97L38.09,-842.53L45.19,-843.1L51,-843.19L85.07,-841.49L93.37,-839.91L97.32,-837.18L99.54,-836.24L102.53,-835.29L103.52,-834.78L105,-833.56z"/>
		<path id="SR-PM" title="Paramaribo" class="land" d="M122.52,-819.93L122.52,-819.93L120.25,-817.93L118.51,-817.12L119.48,-814.07L120.39,-812.13L114.37,-814.1L111.93,-815.67L110.93,-816.79L110.09,-818.14L109.47,-819.6L108.43,-823.52L108.08,-828.7L108.2,-830.79L108.3,-831.39L109.47,-831.08L110.67,-831.08L112.14,-830.87L114.12,-830.68L115.73,-831.23L117.54,-831.99L119.82,-832.2L122.23,-830.46L125.02,-828.39L126.11,-826.3L124.42,-822.16L122.35,-819.85L122.52,-819.93L122.52,-819.93z"/>
		<path id="SR-CR" title="Coronie" class="land" d="M14.45,-799.49L14.45,-799.49L14.15,-798.83L12.21,-796.78L10.08,-796.26L6.24,-795.83L5.07,-795.4L4.25,-794.83L3.88,-794.1L3.6,-793.09L3.68,-792.19L3.98,-791.24L4.48,-790.19L5.56,-788.48L9.31,-784.42L9.84,-783.99L10.89,-782.83L11.69,-780.16L5.93,-778.33L4.12,-777.15L3.85,-776.54L3.89,-775.84L5.22,-773.41L5.07,-771.95L4.59,-771.41L2.72,-770.83L-0.68,-768.84L-1.59,-767.86L-2.76,-765.7L-3.4,-765.27L-5.97,-764.51L-8.44,-759.69L-9.73,-759.19L-18.33,-758.58L-32.19,-759.33L-40.31,-758.68L-43.17,-757.83L-45.3,-756.57L-47.78,-753.95L-50.7,-751.5L-52.52,-750.26L-54.83,-749.15L-68.03,-748.65L-66.53,-750.31L-65.51,-750.96L-64.86,-752.25L-64.9,-753.57L-65.61,-754.95L-66.58,-757.34L-67.4,-758.88L-68.53,-760.36L-69.44,-760.87L-70.25,-760.78L-70.88,-760.3L-71.39,-759.37L-71.82,-757.27L-72.18,-756.57L-73.04,-756.25L-74.29,-756.76L-76.52,-757.27L-77.52,-757.66L-77.68,-758.27L-77.36,-759.14L-76.83,-760.01L-76.71,-761.57L-76.11,-762.45L-75.42,-763.16L-74.64,-764.16L-74,-765.51L-73.87,-767.49L-74.25,-768.86L-74.95,-770L-79.61,-774.78L-80.13,-776.22L-79.91,-777.08L-79.14,-777.19L-78.2,-777.02L-77.31,-777.13L-76.5,-777.74L-75.77,-778.51L-74.95,-779.19L-74.07,-779.38L-73.15,-779.08L-71.48,-778.07L-70.75,-778.18L-70.34,-778.84L-70.01,-780.6L-70.28,-782.04L-70.62,-783L-75.76,-789.24L-79.3,-796.42L-79.64,-797.93L-79.91,-801.14L-80.48,-802.41L-82.04,-804.82L-84.2,-809.64L-84.6,-813.2L-84.86,-836.8L-84.89,-838.16L-83.39,-837.52L-80.7,-836.81L-74.08,-836.21L-58.82,-832.65L-49.92,-830.29L-42.72,-829.99L-36.1,-828.28L-31.33,-826.91L-26.95,-825.76L-17.47,-823.7L-11.68,-821.77L-8.24,-820.83L-5.34,-820.33L0.12,-818.43L9,-817.57L11.55,-814.76L13.56,-813.57L14.38,-811.69L14.38,-799.49L14.45,-799.49z"/>
		<path id="SR-CM" title="Commewijne" class="land" d="M182.1,-841.62L182.1,-841.62L181.39,-839.89L180.4,-836.86L181.42,-825.58L180.45,-823.57L177.7,-820.27L177.13,-818.7L176.96,-816.94L177.39,-813.29L177.61,-812.23L178.77,-809.17L179.87,-806.94L181.08,-802.72L182.18,-800.32L186.52,-793.87L189.42,-788L192.91,-782.9L139.14,-778.97L136.32,-779.06L133.69,-779.9L133.96,-787.82L133.85,-789.25L133.4,-789.87L132.86,-790.13L132.92,-790.71L133.1,-791.36L132.92,-791.79L132.07,-791.84L131.18,-791.46L130.45,-791.01L130.04,-790.83L128.64,-791.04L128.11,-790.79L128.05,-790.92L128.12,-792.28L128.42,-792.58L130.04,-795.65L135.09,-798.1L135.85,-798.47L136.76,-799.51L135.55,-801.42L132.77,-802.65L127.16,-804.43L124.61,-806.3L122.5,-808.6L120.81,-811.23L120.39,-812.13L119.48,-814.07L118.51,-817.12L120.25,-817.93L122.52,-819.93L126.4,-821.22L127.71,-824.37L127.85,-827.53L128.58,-828.62L131.69,-828.63L136.33,-825.36L139.18,-824.76L141.02,-825.18L142.16,-825.91L143.25,-826.17L146.4,-824.23L147.59,-824.02L148.79,-824.28L150.17,-824.76L151.27,-825.45L152.04,-826.4L152.98,-827.21L154.63,-827.57L155.96,-827.28L157.38,-826.57L159.87,-824.76L159.23,-825.91L158.28,-827.03L157.17,-827.99L156.03,-828.62L154.18,-828.98L152.9,-828.79L151.59,-827.74L149.98,-826.76L146.76,-826.46L144.6,-827.83L142.63,-828.28L140.39,-826.99L138.27,-827.09L136.15,-828.85L133.96,-829.96L125.8,-832.31L122.94,-833.68L120.5,-835.31L119.46,-836.82L118.94,-838.31L118.11,-839.26L119.05,-840.74L120.29,-841.54L124.18,-843.1L128.61,-843.86L134.31,-844.21L138.65,-844.25L172.44,-843.1L175,-842.49L181.02,-841.82L182.1,-841.62z"/>
		<path id="SR-SI" title="Sipaliwini" class="land" d="M8.26,-716.6L8.26,-716.6L9.83,-716.71L16.68,-718.73L19.92,-719.35L22.92,-719.54L25.75,-719.16L34.69,-716.25L36.31,-715.46L37.88,-714.36L39.65,-712.67L40.49,-711.16L40.87,-709.64L41.01,-707.82L41.39,-705.73L42.44,-702.59L43.88,-701.35L45.47,-700.83L51.54,-702.13L55.82,-703.93L58.32,-705.36L59.83,-706.02L60.36,-706.4L61.92,-706.88L62.74,-707.41L63.33,-708.18L63.76,-709.94L64.06,-710.72L64.71,-711.34L65.38,-712.16L66.48,-713.84L67.25,-714.33L68.81,-714.61L69.88,-715.28L84.14,-692.86L85.99,-688.57L87.67,-683.27L90.02,-660.15L88.98,-632.99L89.05,-632.03L89.14,-631.91L89.27,-631.85L90.93,-629.81L92.76,-626.6L93.61,-624.36L94.07,-622.39L96.87,-572.73L97.87,-568.04L98.61,-566.66L99.8,-565.54L101.15,-564.88L102.63,-564.55L104.11,-564.68L105.56,-565.08L114.7,-569.8L116.12,-570.93L122.15,-576.66L123.72,-577.62L125.29,-578.27L126.9,-578.68L131.49,-579.23L132.88,-579.68L134.2,-580.69L135.34,-582.07L137.06,-584.99L137.95,-586.22L139.02,-587.15L140.26,-587.32L141.24,-586.97L142.91,-585.6L145.3,-581.87L146.64,-581.05L148,-581.64L149.03,-582.81L149.67,-584.26L150.64,-587.36L151.35,-588.98L155.04,-595.22L158.18,-603.67L158.42,-604.89L158.38,-607.95L158.16,-609.41L155.66,-616.87L155,-619.98L154.82,-621.63L154.81,-623.39L155.02,-624.97L155.75,-626.72L156.88,-628.25L161.61,-632.57L164.25,-635.59L165.18,-637.13L165.82,-638.71L166.38,-641.96L166.13,-654.41L166.26,-655.98L166.72,-657.47L168.9,-661.77L169.36,-663.32L169.76,-666.52L170.08,-668.03L170.69,-669.56L172.33,-672.65L172.98,-674.31L173.35,-676L173.55,-679.5L173.89,-681.11L174.6,-682.59L176.45,-685.54L177.01,-687.01L177.15,-688.45L176.88,-689.99L176.44,-691.13L174.78,-694.12L170.98,-697.56L161.51,-701.24L163.88,-707.93L165.29,-716.07L168.28,-726.88L168.87,-727.92L169.88,-729.27L174.88,-733.67L175.73,-734.92L177.45,-739.48L185.75,-755.41L187.11,-757.48L189.13,-756.82L214.71,-747.2L216.63,-746.18L224.46,-740.82L229.5,-739.08L231.49,-738.15L232.76,-737.39L236.06,-733.98L236.13,-733.92L234.53,-731.62L232.9,-726L232,-725.04L229.83,-723.51L229.21,-722.61L228.86,-721.01L228.4,-720.14L220.72,-711.46L218.13,-707.36L217.27,-705.13L216.87,-702.71L218.1,-697.08L217.83,-695L217.17,-694.25L213.42,-691.62L212.78,-690.23L213.02,-688.79L213.91,-686.8L213.91,-669.38L214.37,-667.48L215.51,-666.7L216.95,-666.29L218.31,-665.52L219.98,-662.92L220.03,-660.52L219.55,-657.82L219.66,-654.36L221.42,-649.75L221.67,-648.1L221.67,-642.32L221.01,-639.89L218.23,-634.73L217.83,-631.16L220.27,-615.95L224.55,-607L225.8,-600.92L225.93,-597.34L225.03,-594.92L223.49,-592.29L224.05,-589.88L225.69,-587.96L227.43,-586.79L232.16,-585.51L233.61,-584.36L234.15,-581.45L233.75,-579.33L231.86,-574.45L231.28,-572.26L231.46,-568.76L232.79,-566.4L237.6,-562.07L238.48,-560.69L240,-555.81L240.93,-554.53L242.89,-552.95L243.84,-551.96L247.32,-545.46L249.96,-544.03L250.56,-542.82L251.05,-542.9L252.1,-541.25L253.44,-538.49L254.87,-536.76L255.68,-536.25L257.28,-535.52L262.08,-534.1L263.57,-533.11L266.48,-528.78L267.93,-527.24L270.8,-517.24L274.09,-512.23L274.17,-511.38L275.67,-511.65L277.22,-512.13L278.7,-512.36L279.97,-511.86L281.94,-509.84L282.78,-508.07L282.58,-505.91L281.46,-502.72L280.33,-496.8L280.79,-486.15L278.49,-480.51L273.38,-475.2L272.73,-473.3L272.39,-470.83L271.44,-468.07L269.93,-465.63L269.85,-465.57L265.14,-462.2L261.52,-456.52L256.39,-450.26L254.43,-447.09L251.52,-439.95L254.78,-440.45L256.31,-438.42L256.65,-435.24L256.32,-432.26L255.98,-431.91L255.34,-431.58L254.71,-431.11L254.4,-430.34L254.7,-430.22L256.02,-429.28L256.32,-428.9L257.19,-425.51L257.43,-423.52L256.8,-422.65L255.18,-421.7L255.94,-419.72L257.48,-417.98L258.23,-417.75L258.3,-415.82L257.28,-411.51L256.85,-410.68L254.91,-407.84L254.4,-406.22L254.31,-404.74L254.55,-403.8L255.43,-402.84L257.28,-401.32L255.6,-400.41L254.65,-399.24L252.43,-392.7L251.33,-390.54L241.09,-376.68L236.16,-366.64L230.67,-352.76L228.4,-349.34L221.67,-342.61L219.98,-341.93L217.86,-341.63L214.76,-341.59L213.26,-340.77L211.84,-339.96L208.05,-330.36L206.47,-329.13L203.72,-328.84L198.99,-330.28L196.96,-329.93L194.7,-327.18L192.05,-326.31L189.34,-325.8L186.6,-325.73L183.84,-326.15L182.21,-326.97L181.87,-328.11L182.02,-329.47L181.84,-330.97L180.58,-334.17L181.39,-336.82L181.77,-336.97L182.5,-336.95L183.17,-337.18L183.41,-338.05L183.23,-338.84L182.63,-340.36L182.43,-341.18L182.34,-344.01L181.71,-344.64L179.81,-345.72L176.74,-346.92L174.38,-346.81L172.17,-345.62L169.78,-344.33L162.83,-342.27L157.44,-344.22L143.62,-357.69L143.02,-359L143.48,-360.93L146.2,-363.69L147.12,-365.57L146.36,-366.97L143.86,-366.68L138.11,-364.38L135.3,-362.6L129.88,-357.99L124.79,-355.54L123.61,-355.12L122.49,-355.24L121.4,-356.38L121.89,-359.07L121.23,-360.38L116.43,-359.98L105.18,-351.33L101.9,-351.53L100.25,-353.58L98.03,-354.4L95.54,-354.2L93.12,-353.21L90.76,-350.91L89.98,-348.28L89.6,-345.71L88.43,-343.54L84.42,-341.8L79.36,-341.9L73.92,-342.6L68.71,-342.68L60.71,-341.96L58.02,-342.32L55.07,-342.33L49.86,-339.9L38.77,-337.12L35.98,-337.7L34.5,-338.88L32.88,-341.96L31.84,-343.19L30.49,-343.91L20.56,-346.37L18.18,-347.53L10.54,-353.83L7.42,-355.59L4.07,-355.9L2.39,-355.35L1.51,-354.56L0.43,-352.09L-1.06,-346.09L-1.15,-339.85L-1.88,-337.39L-5.99,-331.24L-7.06,-330.1L-8.74,-329.33L-10.32,-329.45L-11.57,-330.2L-12.86,-330.78L-14.59,-330.39L-16.42,-328.14L-18.56,-324.09L-20.23,-319.93L-20.64,-317.32L-19.02,-316.24L-12.86,-315.87L-10.25,-315.25L-7.59,-312.79L-6.31,-307.26L-4.41,-304.27L-0.62,-301.67L0.59,-300.6L5.63,-294.07L10.43,-289.95L11.49,-288.36L11.93,-286.57L11.7,-285.28L11.2,-284L10.74,-282.2L10.92,-275.95L11.7,-270.33L10.96,-265.26L6.49,-260.63L-2.76,-257.85L-11.62,-259.68L-20.43,-263.23L-29.49,-265.59L-36.27,-265.18L-38.5,-265.44L-41.16,-266.56L-46.21,-269.8L-48.92,-270.94L-51.63,-271.26L-55.75,-270.25L-58.38,-269.97L-60.43,-270.39L-67.75,-273.06L-68.21,-274.69L-69.07,-276.05L-70.3,-277.05L-73.25,-278L-74.44,-278.71L-75.43,-279.67L-76.22,-280.87L-81.52,-283.63L-95.3,-283.86L-99.15,-285.44L-112.69,-304.62L-113.72,-308.82L-114.78,-311.89L-116.17,-318.09L-117.95,-320.82L-119.2,-321.49L-122.45,-322.09L-123.75,-322.75L-124.36,-324.01L-124.28,-329.08L-125.85,-332.22L-130.88,-336.61L-131.95,-339.16L-131.05,-341.18L-130.8,-342.65L-131.48,-344.01L-133.81,-346.17L-134.47,-347.41L-134.92,-349.34L-134.63,-350.71L-133.94,-352.27L-133.76,-353.8L-134.92,-355.1L-137.8,-353L-139.78,-352.31L-140.69,-353.62L-139.95,-358.36L-140.2,-359.39L-143.75,-363.53L-144.44,-364.8L-144.53,-367.19L-143.86,-369.03L-143.48,-370.69L-144.44,-372.49L-147.36,-370.84L-148.48,-371.67L-149.32,-377.21L-150.71,-379.79L-154.35,-383.63L-155.08,-385.47L-154.53,-386.87L-153.56,-388.65L-153.24,-390.18L-154.6,-390.84L-159.41,-390.11L-159.88,-389.79L-160.81,-392.45L-158.38,-397.52L-159.36,-398.44L-161.02,-398.14L-163.84,-396.82L-165.16,-396.52L-166.84,-397.13L-167.47,-398.44L-167.92,-399.77L-169.05,-400.36L-169.62,-401.82L-171.49,-409.1L-170.18,-410.5L-167.99,-412.24L-166.45,-414.22L-167.13,-416.31L-171.8,-416.81L-173.59,-417.84L-172.45,-419.67L-171.71,-420.97L-171.79,-422.07L-172.2,-423.3L-172.45,-425.01L-172,-425.5L-170.03,-425.4L-169.57,-425.97L-169.71,-427.04L-170.38,-428.82L-170.54,-429.9L-171.85,-433.03L-174.28,-435.27L-175.56,-437.83L-173.41,-441.96L-173.89,-442.22L-173.99,-442.29L-174.02,-442.41L-174.28,-442.83L-175.23,-441.95L-176.46,-441.14L-177.85,-440.69L-179.26,-440.92L-180.82,-442.06L-180.56,-442.99L-179.65,-444.11L-179.26,-445.81L-180.77,-449.06L-181.09,-450.61L-180.98,-452.34L-180.22,-455.23L-180.04,-456.91L-180.54,-458.59L-181.42,-459.75L-181.73,-460.92L-180.57,-462.68L-180.37,-463.56L-180.04,-468.45L-180.48,-470.43L-183.97,-477.63L-188.42,-474.14L-192.17,-473.5L-195.93,-474.66L-200.37,-476.58L-200.22,-474.03L-201.2,-472.8L-205.17,-471.77L-205.52,-471.3L-206.52,-470.34L-207.57,-469.74L-208.06,-470.37L-208.38,-471.1L-209.22,-471.52L-210.32,-471.72L-211.46,-471.77L-212.26,-472.38L-214.06,-473.45L-215.87,-473.8L-217.24,-471.04L-218.54,-470.84L-220.07,-471.28L-224.43,-473.71L-224.46,-473.73L-226.83,-475.05L-230.8,-475.87L-231.99,-476.36L-232.68,-476.95L-233.15,-477.67L-233.76,-479.34L-234.06,-480.81L-233.97,-481.98L-233.26,-484.53L-233.18,-485.47L-233.48,-487.22L-233.5,-488.13L-231.37,-492.29L-231.16,-494.78L-233.47,-497.39L-236.4,-499.09L-236.94,-499.35L-237.24,-499.78L-238.75,-499.98L-239.43,-500.27L-240.06,-500.97L-240.25,-501.46L-240.37,-501.96L-241.49,-504.04L-242.19,-506.51L-242.7,-507.53L-248.06,-510.97L-254.94,-513.82L-257.28,-515.31L-258.85,-517.93L-259.69,-520.9L-260.07,-527.29L-260.66,-530L-263.66,-536.42L-270.79,-546.87L-273.07,-549.56L-282.32,-556.86L-285.73,-561.15L-287.12,-566.13L-288.96,-578.12L-290.73,-584.19L-290.48,-587.11L-288.53,-590.1L-276.29,-602.64L-274.72,-605.04L-273.82,-607.82L-273.52,-611.37L-273.91,-613.7L-274.67,-615.85L-275.12,-618.07L-274.56,-620.65L-273.17,-622.82L-271.56,-624.61L-270.23,-626.46L-269.19,-631.13L-266.6,-637.4L-264.22,-641.4L-261.99,-648.58L-259.48,-652.21L-258.35,-654.66L-258.16,-657.34L-259.33,-659.83L-263.1,-664.66L-264.98,-670.46L-267.31,-672.02L-269.66,-673.21L-270.72,-675.16L-269.75,-679.9L-267.49,-683.14L-264.93,-685.9L-263.03,-688.25L-260.17,-693.03L-259.11,-694.03L-257.34,-694.48L-255.98,-694.09L-254.63,-693.42L-252.87,-693.07L-249.43,-693.54L-247.8,-694.83L-245.68,-698.85L-241.91,-702.49L-237.19,-704.81L-231.91,-705.12L-226.39,-702.71L-220.22,-704.93L-216.99,-705.49L-213.38,-705.68L-212.63,-705.22L-210.47,-703.17L-209.54,-702.71L-207.72,-702.87L-205.35,-703.59L-194.23,-704.74L-190.69,-705.68L-189.19,-706.27L-188.14,-706.86L-186.93,-707.33L-184.93,-707.61L-183.7,-707.38L-182.6,-706.91L-181.45,-706.79L-180.04,-707.61L-185.17,-712.25L-185.8,-713.83L-185.63,-715.7L-185.19,-717.3L-183.1,-722.06L-182.16,-726.12L-181.24,-728.07L-179.65,-728.9L-177.16,-728.81L-175.38,-728.26L-174.18,-726.8L-173.41,-723.99L-171.23,-724.9L-169.01,-726.18L-167.3,-727.81L-166.6,-729.78L-167.66,-732.61L-172.35,-738.32L-173.3,-740.71L-166.4,-741.75L-158.19,-742.21L-101.78,-750.98L-68.03,-748.65L-54.83,-749.15L-52.52,-750.26L-50.7,-751.5L-47.78,-753.95L-45.3,-756.57L-43.17,-757.83L-40.31,-758.68L-32.19,-759.33L-18.33,-758.58L-9.73,-759.19L-8.44,-759.69L-5.97,-764.51L-3.4,-765.27L-2.76,-765.7L-1.59,-767.86L-0.68,-768.84L2.72,-770.83L4.59,-771.41L5.07,-771.95L5.22,-773.41L3.89,-775.84L3.85,-776.54L4.12,-777.15L5.93,-778.33L11.69,-780.16L4.28,-757.69L0.04,-725.7L-0.08,-720.94L0.17,-718.45L6.81,-716.73L8.26,-716.6z"/>
		<path id="SR-PR" title="Para" class="land" d="M135.09,-798.1L135.09,-798.1L130.04,-795.65L128.42,-792.58L128.12,-792.28L128.05,-790.92L128.11,-790.79L128.64,-791.04L130.04,-790.83L130.45,-791.01L131.18,-791.46L132.07,-791.84L132.92,-791.79L133.1,-791.36L132.92,-790.71L132.86,-790.13L133.4,-789.87L133.85,-789.25L133.96,-787.82L133.69,-779.9L136.32,-779.06L139.14,-778.97L192.91,-782.9L195.01,-777.87L195.75,-773L195.69,-770L195.46,-768.08L195.09,-766.36L194.5,-764.86L193.75,-763.36L189.13,-756.82L187.11,-757.48L185.75,-755.41L177.45,-739.48L175.73,-734.92L174.88,-733.67L169.88,-729.27L168.87,-727.92L168.28,-726.88L165.29,-716.07L163.88,-707.93L161.51,-701.24L160.37,-700.43L159.46,-700.42L158.51,-701.12L158.13,-702.17L158.23,-703.26L158.7,-705.5L158.68,-711.14L158.46,-712.58L158.01,-713.94L156.91,-715.2L155.84,-716.2L155.09,-717.49L155.07,-718.8L155.72,-721.75L155.56,-723.24L155.08,-724.74L154.27,-726.17L153.18,-727.58L151.85,-728.82L144.42,-733.92L143.13,-735.11L142.26,-736.54L141.89,-738.08L141.44,-746.62L140.8,-747.96L139.84,-749.02L136.98,-749.47L95.01,-749.11L91.35,-748.37L89.95,-746.36L89.65,-744.96L90.3,-743.72L91.02,-742.85L91.6,-742L91.8,-741.11L91.71,-740.18L91.21,-738.89L86.2,-730.63L81.54,-725.88L74.71,-720.83L69.88,-715.28L68.81,-714.61L67.25,-714.33L66.48,-713.84L65.38,-712.16L64.71,-711.34L64.06,-710.72L63.76,-709.94L63.33,-708.18L62.74,-707.41L61.92,-706.88L60.36,-706.4L59.83,-706.02L58.32,-705.36L55.82,-703.93L51.54,-702.13L45.47,-700.83L43.88,-701.35L42.44,-702.59L41.39,-705.73L41.01,-707.82L40.87,-709.64L40.49,-711.16L39.65,-712.67L37.88,-714.36L36.31,-715.46L34.69,-716.25L25.75,-719.16L22.92,-719.54L19.92,-719.35L16.68,-718.73L9.83,-716.71L8.26,-716.6L6.81,-716.73L0.17,-718.45L-0.08,-720.94L0.04,-725.7L4.28,-757.69L11.69,-780.16L13.52,-778L14.09,-776.25L15.53,-774.75L15.42,-773.32L14.58,-771.88L13.2,-770.49L12.17,-768.14L12.14,-766.2L12.72,-764.45L13.03,-762.17L14.06,-761.41L15.28,-761.15L21.61,-762.8L23.35,-762.7L28.89,-761.22L71.61,-764.58L73.32,-765.03L74.18,-765.62L75.31,-766.05L76.18,-765.6L76.97,-764.86L77.94,-764.13L78.7,-764.41L79.15,-765.17L79.44,-766L80.21,-766.8L81.42,-766.79L83.51,-767.73L84.57,-768.38L84.97,-769.15L85.18,-770.92L85.52,-771.78L86.19,-772.65L86.83,-773.66L87.1,-774.67L86.99,-775.58L86.35,-776.46L84.26,-778.13L83.63,-779.09L83.59,-780.02L84.53,-781.9L84.91,-783.9L85.32,-784.91L86.5,-785.96L87.32,-786.9L87.75,-787.93L87.59,-788.95L87.07,-789.87L86.32,-790.62L85.82,-791.45L86.16,-792.39L87.78,-793.53L90.15,-794.1L91.53,-794.76L92.18,-795.56L92.21,-796.53L91.87,-797.48L91.09,-798.92L104.71,-797.34L109.44,-797.48L124.47,-800.39L128.03,-800.21L135.09,-798.1z"/>
		<path id="SR-MA" title="Marowijne" class="land" d="M257.17,-753.11L257.17,-753.11L254.43,-749.92L243.37,-741.91L237.44,-735.8L236.13,-733.92L236.06,-733.98L232.76,-737.39L231.49,-738.15L229.5,-739.08L224.46,-740.82L216.63,-746.18L214.71,-747.2L189.13,-756.82L193.75,-763.36L194.5,-764.86L195.09,-766.36L195.46,-768.08L195.69,-770L195.75,-773L195.01,-777.87L192.91,-782.9L189.42,-788L186.52,-793.87L182.18,-800.32L181.08,-802.72L179.87,-806.94L178.77,-809.17L177.61,-812.23L177.39,-813.29L176.96,-816.94L177.13,-818.7L177.7,-820.27L180.45,-823.57L181.42,-825.58L180.4,-836.86L181.39,-839.89L182.1,-841.62L186.51,-840.83L214.88,-836.84L232.19,-832.99L245.68,-830.31L257.4,-826.51L267.52,-823.6L270.74,-823.26L272.49,-822.65L276.05,-822.9L276.86,-821.75L278.34,-821.19L279.15,-819.76L278.92,-818.29L282.33,-811.75L283.13,-809.23L281.79,-807.66L278.44,-801.22L276.83,-798.45L276.09,-792.82L274.13,-781.88L272.62,-776.35L270.86,-773.09L268.31,-769.99L265.87,-767.86L264.55,-766.44L263.98,-765.12L263.14,-762.42L257.17,-753.11L257.17,-753.11z"/>
		<path id="SR-BR" title="Brokopondo" class="land" d="M159.46,-700.42L159.46,-700.42L160.37,-700.43L161.51,-701.24L170.98,-697.56L174.78,-694.12L176.44,-691.13L176.88,-689.99L177.15,-688.45L177.01,-687.01L176.45,-685.54L174.6,-682.59L173.89,-681.11L173.55,-679.5L173.35,-676L172.98,-674.31L172.33,-672.65L170.69,-669.56L170.08,-668.03L169.76,-666.52L169.36,-663.32L168.9,-661.77L166.72,-657.47L166.26,-655.98L166.13,-654.41L166.38,-641.96L165.82,-638.71L165.18,-637.13L164.25,-635.59L161.61,-632.57L156.88,-628.25L155.75,-626.72L155.02,-624.97L154.81,-623.39L154.82,-621.63L155,-619.98L155.66,-616.87L158.16,-609.41L158.38,-607.95L158.42,-604.89L158.18,-603.67L155.04,-595.22L151.35,-588.98L150.64,-587.36L149.67,-584.26L149.03,-582.81L148,-581.64L146.64,-581.05L145.3,-581.87L142.91,-585.6L141.24,-586.97L140.26,-587.32L139.02,-587.15L137.95,-586.22L137.06,-584.99L135.34,-582.07L134.2,-580.69L132.88,-579.68L131.49,-579.23L126.9,-578.68L125.29,-578.27L123.72,-577.62L122.15,-576.66L116.12,-570.93L114.7,-569.8L105.56,-565.08L104.11,-564.68L102.63,-564.55L101.15,-564.88L99.8,-565.54L98.61,-566.66L97.87,-568.04L96.87,-572.73L94.07,-622.39L93.61,-624.36L92.76,-626.6L90.93,-629.81L89.27,-631.85L89.14,-631.91L89.05,-632.03L88.98,-632.99L90.02,-660.15L87.67,-683.27L85.99,-688.57L84.14,-692.86L69.88,-715.28L74.71,-720.83L81.54,-725.88L86.2,-730.63L91.21,-738.89L91.71,-740.18L91.8,-741.11L91.6,-742L91.02,-742.85L90.3,-743.72L89.65,-744.96L89.95,-746.36L91.35,-748.37L95.01,-749.11L136.98,-749.47L139.84,-749.02L140.8,-747.96L141.44,-746.62L141.89,-738.08L142.26,-736.54L143.13,-735.11L144.42,-733.92L151.85,-728.82L153.18,-727.58L154.27,-726.17L155.08,-724.74L155.56,-723.24L155.72,-721.75L155.07,-718.8L155.09,-717.49L155.84,-716.2L156.91,-715.2L158.01,-713.94L158.46,-712.58L158.68,-711.14L158.7,-705.5L158.23,-703.26L158.13,-702.17L158.51,-701.12L159.46,-700.42z"/>
		<path id="SR-NI" title="Nickerie" class="land" d="M-161.29,-802.57L-161.29,-802.57L-161.61,-801.93L-162.25,-802.36L-163,-804.18L-163.97,-806.33L-165.04,-808.9L-164.39,-810.83L-163.1,-813.19L-162.78,-814.48L-162.24,-816.09L-161.17,-818.24L-160.95,-817.27L-160.96,-814.8L-161.39,-812.23L-162.03,-810.4L-162.57,-808.47L-161.93,-805.79L-161.93,-804.18L-161.29,-802.57zM-70.01,-780.6L-70.01,-780.6L-70.34,-778.84L-70.75,-778.18L-71.48,-778.07L-73.15,-779.08L-74.07,-779.38L-74.95,-779.19L-75.77,-778.51L-76.5,-777.74L-77.31,-777.13L-78.2,-777.02L-79.14,-777.19L-79.91,-777.08L-80.13,-776.22L-79.61,-774.78L-74.95,-770L-74.25,-768.86L-73.87,-767.49L-74,-765.51L-74.64,-764.16L-75.42,-763.16L-76.11,-762.45L-76.71,-761.57L-76.83,-760.01L-77.36,-759.14L-77.68,-758.27L-77.52,-757.66L-76.52,-757.27L-74.29,-756.76L-73.04,-756.25L-72.18,-756.57L-71.82,-757.27L-71.39,-759.37L-70.88,-760.3L-70.25,-760.78L-69.44,-760.87L-68.53,-760.36L-67.4,-758.88L-66.58,-757.34L-65.61,-754.95L-64.9,-753.57L-64.86,-752.25L-65.51,-750.96L-66.53,-750.31L-68.03,-748.65L-101.78,-750.98L-158.19,-742.21L-166.4,-741.75L-173.3,-740.71L-173.41,-740.99L-174.02,-741.86L-175.43,-742.29L-177.02,-742.21L-178.21,-741.52L-178.46,-740.17L-177.73,-738.8L-176.29,-737.09L-176.66,-736.15L-177.59,-735.55L-178.8,-735.39L-180.04,-735.74L-180.74,-736.51L-181,-737.62L-181.22,-747.49L-181.67,-747.88L-182.55,-747.84L-183.97,-748.18L-186,-747.35L-187.25,-747.35L-187.81,-748.66L-187.33,-750.21L-186.18,-751.73L-179.34,-758.62L-177.9,-760.88L-177.34,-764.18L-177.18,-767.21L-176.73,-769.45L-175.43,-772.4L-173.51,-774.38L-172.26,-775.59L-167.75,-777.31L-165.85,-778.85L-164.53,-780.57L-163.62,-782.59L-160.24,-797.85L-159.57,-811.25L-158.6,-815.95L-158.29,-819.48L-156.61,-825.23L-154.99,-829.13L-151.26,-835.29L-150.68,-836.88L-149.89,-838.13L-148.72,-838.95L-145.5,-839.52L-144.53,-840.15L-143.8,-840.79L-143.06,-841.08L-142.41,-841.49L-140.62,-843.49L-139.83,-844.15L-138.45,-844.66L-137.03,-844.92L-135.53,-846.48L-134.5,-846.82L-130.6,-845.79L-121.9,-843.72L-116.75,-843.14L-109.77,-843.14L-98.79,-842.67L-92.73,-842.32L-90.33,-841.4L-85.97,-838.63L-84.89,-838.16L-84.86,-836.8L-84.6,-813.2L-84.2,-809.64L-82.04,-804.82L-80.48,-802.41L-79.91,-801.14L-79.64,-797.93L-79.3,-796.42L-75.76,-789.24L-70.62,-783L-70.28,-782.04L-70.01,-780.6z"/>
	</g>
</svg>
