<?xml version="1.0" encoding="utf-8"?>
<!-- (c) ammap.com | SVG map of Taiwain - High -->
<svg xmlns="http://www.w3.org/2000/svg" xmlns:amcharts="http://amcharts.com/ammap" xmlns:xlink="http://www.w3.org/1999/xlink" version="1.1">
	<defs>
		<style type="text/css">
			.land
			{
				fill: #CCCCCC;
				fill-opacity: 1;
				stroke:white;
				stroke-opacity: 1;
				stroke-width:0.5;
			}
		</style>

		<amcharts:ammap projection="mercator" leftLongitude="118.152323" topLatitude="26.384302" rightLongitude="122.011791" bottomLatitude="21.896159"></amcharts:ammap>

		<!-- All areas are listed in the line below. You can use this list in your script. -->
		<!--{id:"TW-NWT"},{id:"TW-HUA"},{id:"TW-PEN"},{id:"TW-LIE"},{id:"TW-KIN"},{id:"TW-KEE"},{id:"TW-TPE"},{id:"TW-TAO"},{id:"TW-HSZ"},{id:"TW-HSQ"},{id:"TW-MIA"},{id:"TW-ILA"},{id:"TW-TXG"},{id:"TW-CHA"},{id:"TW-YUN"},{id:"TW-CYI"},{id:"TW-CYQ"},{id:"TW-TNN"},{id:"TW-PIF"},{id:"TW-KHH"},{id:"TW-TTT"},{id:"TW-NAN"}-->

	</defs>
	<g>
		<path id="TW-NWT" title="New Taipei" class="land" d="M603.238,261.463L602.982,261.157L601.775,261.157L600.869,261.736L599.283,262.399L597.02,262.399L595.283,263.062L594.453,264.138L593.019,265.463L591.434,266.042L589.621,265.794L587.886,265.131L586.754,265.297L585.545,265.959L585.094,267.201L584.867,268.36L585.471,269.603L586.377,270.679L586.679,272.002L586.149,273.493L585.168,274.485L583.735,275.313L582.679,275.728L580.565,275.81L578.526,276.224L575.885,278.954L575.356,281.188L575.205,282.595L574.45,283.67L573.092,284.25L571.055,284.415L569.846,284.001L568.639,283.836L567.356,284.415L566.374,285.573L565.77,286.565L564.79,286.896L563.656,287.144L562.525,287.972L561.996,289.129L560.79,290.04L559.581,290.618L558.374,290.784L557.468,291.197L556.261,291.445L554.75,291.859L553.468,292.024L551.958,292.024L551.354,292.851L550.599,294.918L549.543,294.653L548.183,294.819L547.58,295.398L546.522,296.059L546.371,297.134L546.371,298.705L545.994,299.448L545.164,300.192L545.315,301.185L545.769,301.846L546.522,302.589L546.599,304.573L546.371,305.482L545.693,306.639L544.938,307.383L544.032,307.63L542.522,309.201L540.938,309.366L538.976,309.696L537.918,311.184L537.013,312.093L535.276,313.167L533.768,313.91L531.955,314.075L530.973,314.984L529.767,315.149L528.03,314.901L527.472,315.146L527.275,315.231L526.747,314.323L526.822,312.34L525.767,311.267L524.634,310.771L523.124,309.035L521.54,305.978L520.558,303.912L519.502,302.176L519.275,300.192L519.802,298.87L521.389,297.547L522.445,296.389L522.747,295.067L522.066,294.571L521.237,293.165L520.558,291.263L519.275,290.023L517.841,288.203L516.708,287.128L514.746,286.301L513.16,286.301L511.878,286.797L510.218,286.797L508.707,285.97L506.368,285.143L506.218,284.366L507.575,284.117L507.877,283.621L506.896,282.379L506.82,280.973L506.218,279.07L505.312,277.664L504.254,277.002L503.121,275.346L502.896,274.271L503.349,273.278L504.254,272.367L504.479,271.539L503.802,271.208L502.896,271.042L502.668,269.966L502.896,268.642L503.65,267.731L503.65,265.993L503.5,264.502L503.197,263.509L503.65,262.598L510.671,262.598L511.802,261.438L512.558,260.031L513.688,259.7L514.218,259.202L514.973,258.706L515.048,257.629L514.595,257.297L514.443,256.469L515.349,255.89L515.953,255.641L516.255,254.812L515.878,254.067L514.671,253.321L514.443,251.499L514.671,250.173L513.916,248.598L512.859,247.936L510.52,247.854L507.121,247.355L506.519,246.527L506.066,245.118L505.235,243.543L503.726,242.88L502.065,241.886L500.556,241.637L498.366,241.14L497.008,240.062L495.876,238.653L497.203,237.991L497.883,237.431L499.354,237.369L502.016,237.68L504.789,237.431L505.864,237.058L507.11,236.374L508.298,235.814L509.487,234.757L512.262,233.388L513.45,232.892L514.3,232.269L515.149,231.398L516.252,229.222L517.78,228.973L518.97,229.471L521.007,231.958L521.856,233.327L522.366,235.441L523.215,237.555L523.842,238.39L523.982,239.549L524.511,240.13L526.775,241.373L528.889,241.539L530.098,242.782L531.38,244.854L531.456,247.091L531.305,250.241L530.021,251.484L528.964,252.643L528.813,253.803L529.04,256.123L530.171,256.951L531.531,256.372L532.511,255.129L533.645,255.129L534.927,256.702L535.682,260.181L537.04,261.092L538.626,261.589L539.607,263.494L541.191,264.652L544.137,264.652L546.098,265.398L547.909,265.232L548.287,263.907L547.684,263.162L546.778,262.417L546.778,260.346L546.249,258.608L546.249,257.117L546.627,256.123L548.061,254.963L550.702,255.129L554.401,254.797L555.912,254.797L556.365,254.135L555.836,253.472L554.175,253.224L553.193,253.472L551.307,252.395L550.249,251.484L549.496,250.655L549.646,249.909L550.551,249.412L550.022,248.5L549.345,247.838L549.345,247.008L550.098,246.264L550.854,245.186L551.155,244.108L551.08,242.616L550.551,241.456L549.117,240.378L547.758,239.881L546.325,238.803L546.551,237.394L547.533,235.984L546.929,235.073L545.569,233.746L544.891,232.667L545.117,231.507L544.891,229.765L543.984,229.102L543.607,227.775L543.984,225.784L543.231,225.12L541.645,224.789L540.967,224.374L540.438,223.046L539.607,222.548L539.229,222.797L538.853,223.627L538.021,224.457L537.191,225.12L536.965,226.032L535.003,226.862L533.87,227.858L533.04,228.355L531.607,228.687L530.775,229.599L529.417,231.258L527.908,233.497L526.474,234.907L525.869,237.975L524.889,238.141L523.846,238.386L524.574,236.747L524.404,233.949L523.386,232.083L522.366,230.59L520.554,228.625L519.139,227.878L517.668,227.504L516.478,226.82L516.365,226.385L517.215,225.763L518.064,225.328L518.63,223.398L519.139,222.216L521.007,220.349L521.291,219.416L521.63,218.732L522.536,215.931L523.386,215.309L524.801,214.935L526.159,214.935L526.669,214.437L527.234,213.067L527.688,211.76L528.593,211.075L529.442,210.763L531.198,209.768L531.933,208.834L532.839,208.459L533.857,208.584L535.67,208.647L536.123,207.712L536.858,206.903L537.538,207.152L537.877,207.65L540.821,207.712L541.727,206.218L542.52,205.844L543.255,206.218L544.048,207.464L545.294,207.962L546.199,208.522L547.671,208.958L549.312,210.079L550.275,211.013L551.266,212.756L551.944,214.25L552.059,216.18L552.794,217.362L554.436,217.984L554.832,218.669L554.604,219.478L554.662,220.288L555.454,221.345L556.36,222.279L557.266,223.025L560.209,223.149L561.455,222.652L562.191,221.967L562.191,222.465L561.739,224.208L561.002,224.706L560.662,225.825L560.89,226.696L562.131,227.168L562.905,227.77L563.704,227.937L563.704,228.2L563.421,229.071L562.629,229.63L559.912,230.688L559.063,231.186L557.873,231.745L556.289,232.243L554.986,232.305L554.25,233.113L552.099,233.673L551.42,234.295L552.099,236.037L554.25,237.343L554.194,238.71L554.647,239.705L555.156,241.322L556.063,242.129L556.741,243.187L557.42,243.995L558.95,244.181L559.628,244.678L560.762,245.921L562.799,246.17L564.497,246.73L566.139,248.47L566.817,249.278L568.742,249.65L570.724,249.588L572.139,248.967L574.687,247.662L575.252,246.48L574.63,245.113L573.498,244.554L572.649,243.932L572.309,242.813L572.534,241.445L573.44,240.078L574.29,239.145L575.252,238.523L575.988,238.337L576.838,238.834L577.46,239.332L578.31,238.834L579.046,237.591L579.781,236.658L580.323,235.199L580.47,234.956L581.478,235.005L581.761,237.129L582.609,237.44L583.271,236.974L585.205,236.456L585.96,237.026L590.961,237.078L592.563,237.752L594.45,237.648L595.063,237.078L596.385,237.026L596.951,236.404L598.272,235.834L598.649,236.767L597.941,237.854L598.129,238.943L598.46,239.565L598.508,240.653L597.8,241.327L597.47,242.466L597.233,244.176L597.423,245.574L598.649,246.196L599.403,246.973L599.781,247.75L599.781,252.669L600.63,253.653L602.989,255.517L604.594,255.361L605.914,253.964L607.094,254.171L609.405,255.672L611.48,256.035L612,256.863L611.858,257.691L611.15,258.52L610.16,258.934L608.649,259.762L607.519,259.865L606.574,260.694L605.538,261.366z"/>
		<path id="TW-HUA" title="Hualien" class="land" d="M453.979,528.946L454.396,528.401L455.018,528.033L456.094,527.911L457.056,527.419L457.792,526.868L458.528,526.623L458.811,526.255L459.717,525.948L459.999,525.026L459.943,523.8L459.264,522.94L458.642,522.388L458.697,521.713L459.377,521.283L459.604,520.24L460.226,519.013L460.962,517.908L461.925,517.294L462.321,516.497L462.718,515.33L463.51,514.654L464.245,514.471L465.435,514.471L466.228,514.164L467.756,513.795L469.001,513.673L470.698,514.716L471.662,515.146L472.851,514.776L474.04,513.734L475.342,513.364L475.342,509.178L475.681,508.072L476.021,507.336L476.926,506.721L476.87,506.107L476.191,504.449L475.793,503.834L475.793,503.221L476.36,502.851L477.719,502.729L478.851,502.976L479.757,502.668L481.087,501.809L482.333,500.765L483.635,500.765L484.881,500.64L485.729,499.412L486.69,497.63L487.087,495.235L487.483,492.283L488.051,489.887L488.39,487.121L489.069,485.094L489.466,483.495L489.408,479.474L488.56,478.306L488.164,477.322L488.105,475.846L487.427,474.801L486.012,473.201L484.71,472.648L484.2,471.972L484.313,470.68L485.106,469.634L486.182,469.449L487.087,468.773L487.54,468.219L487.597,466.805L487.031,465.205L488.899,463.358L489.238,461.204L489.522,458.559L490.541,457.389L491.447,454.927L492.013,453.942L493.484,453.327L494.164,452.525L494.277,450.986L493.258,449.017L493.599,448.155L494.617,447.046L495.409,446.493L495.579,445.507L495.014,444.584L494.73,443.77L494.843,436.626L494.446,435.331L493.542,434.715L493.428,432.805L495.522,428.491L496.315,427.319L496.541,425.842L496.654,422.82L497.277,421.402L498.637,420.6L499.599,419.492L501.636,417.765L502.316,416.533L502.656,415.298L502.656,413.091L501.863,412.104L500.617,412.042L500.165,411.117L499.315,409.636L498.297,408.835L496.824,408.402L496.315,407.046L496.315,404.825L497.051,402.912L497.787,401.493L499.259,401L501.354,399.642L502.146,398.407L502.938,397.79L503.788,397.297L506.222,396.988L506.788,396.309L506.73,394.766L506.053,394.087L505.892,393.15L506.97,392.594L507.48,391.73L507.311,390.62L508.159,389.507L509.234,389.199L510.367,388.767L511.499,388.088L512.179,387.038L512.065,384.753L512.065,383.271L512.688,382.529L513.989,382.16L514.727,381.294L515.235,380.183L516.254,379.071L517.16,378.762L519.028,378.392L519.877,377.218L520.33,376.23L520.727,375.056L521.293,372.955L521.293,371.102L521.689,370.36L522.537,369.927L523.217,369.433L523.528,368.87L524.066,369.457L525.255,370.446L526.842,371.249L529.048,372.238L531.144,372.424L534.879,372.856L537.087,373.475L539.407,374.71L541.503,376.439L543.597,376.873L545.183,377.366L546.598,377.613L547.842,376.996L548.013,376.131L547.051,375.266L546.767,374.648L547.333,373.906L548.295,373.536L550.334,372.98L551.522,372.98L552.202,372.547L552.032,371.806L551.296,371.064L551.014,369.952L551.465,368.592L552.484,368.716L553.278,369.396L554.184,370.446L555.371,370.755L556.958,371.373L558.373,372.547L560.07,373.721L564.655,375.39L567.543,375.575L569.639,376.131L570.714,376.687L572.016,377.49L574.248,377.428L574.159,378.554L573.72,379.275L572.706,380.476L571.605,381.245L570.943,382.015L570.414,382.928L569.754,385.09L569.667,386.532L568.299,387.878L568.035,388.357L566.494,389.608L565.965,389.511L564.908,390.04L564.38,390.761L563.85,391.818L563.85,392.443L563.629,392.779L562.792,393.308L561.955,393.644L561.733,393.98L560.986,394.268L560.104,395.181L559.665,395.229L558.474,395.805L557.991,396.382L557.551,397.342L557.108,397.822L556.271,399.743L555.92,401.186L556.007,402.577L556.185,403.586L556.889,404.786L557.066,405.65L557.108,406.899L557.021,407.522L556.668,408.58L555.479,410.645L554.379,411.699L552.66,412.707L551.689,413.475L551.072,414.1L550.501,415.06L550.018,416.163L549.53,417.027L549.224,418.563L549.267,421.011L549.443,421.777L550.104,423.841L550.458,424.368L551.559,426.574L551.955,427.198L552.925,428.063L553.761,428.639L554.29,430.028L554.29,430.556L553.718,431.322L553.54,431.947L553.233,432.09L552.746,432.953L552.66,433.865L552.264,433.769L552.66,433.098L552.925,431.898L552.66,431.419L552.307,431.419L552.616,432.715L552.35,433.481L551.559,434.537L550.854,434.92L550.809,435.543L551.119,435.782L550.94,436.405L550.411,435.734L549.929,435.734L549.311,436.119L548.87,436.934L548.914,437.366L547.944,438.324L547.726,439.283L547.726,440.002L548.254,441.249L548.518,442.543L548.606,443.453L548.298,443.836L548.209,444.938L547.858,445.609L547.813,446.186L547.462,447.287L547.462,448.104L547.637,448.965L547.462,449.971L547.462,450.785L547.064,452.654L547.064,453.276L546.139,457.255L545.786,458.402L545.259,459.409L544.684,460.797L544.333,461.372L544.333,462.188L544.068,463.049L543.761,463.527L542.745,464.629L542.745,465.204L542.351,466.209L542.175,468.844L541.997,469.178L542.085,470.04L542.085,471.668L541.953,472.48L542.481,472.816L542.396,473.726L541.557,475.593L541.557,476.166L540.984,476.933L540.984,477.315L540.587,477.65L540.411,478.56L540.146,478.655L539.928,479.276L539.443,479.276L538.825,480.378L538.692,480.903L538.692,482.627L538.825,483.393L539.134,483.583L539.528,483.344L539.179,484.588L538.914,484.685L538.914,485.355L538.605,486.213L538.473,487.027L538.208,487.267L538.386,488.033L537.9,488.846L538.121,489.324L537.725,489.755L537.548,490.521L537.812,490.951L537.548,491.717L536.976,491.859L536.578,492.435L536.226,493.534L536.226,494.347L535.786,495.208L535.609,496.449L535.653,501.376L535.39,502.044L535.301,503.287L535.037,503.479L535.08,504.53L534.419,505.581L534.419,506.347L534.111,506.395L533.582,507.205L533.494,507.637L532.744,508.735L532.57,509.979L532.26,510.6L532.35,511.651L532.174,512.511L531.776,512.798L531.644,514.04L531.467,514.375L531.731,516.142L531.644,517.05L531.776,517.672L532.305,519.151L532.922,519.105L533.231,519.965L533.054,520.824L532.57,521.303L532.26,522.496L531.6,523.165L531.38,523.641L530.72,523.45L530.5,523.689L529.749,523.736L529.925,524.119L530.631,524.311L531.072,524.597L530.983,525.314L530.543,526.555L530.5,527.894L530.365,528.131L530.235,529.659L529.972,529.659L529.354,530.889L529.048,530.539L528.01,529.925L527.066,528.955L524.001,528.443L522.02,528.802L521.405,529.466L519.99,529.925L519.047,530.998L518.386,532.584L516.924,535.191L516.122,537.491L515.744,538.974L515.98,540.711L518.009,541.886L518.198,542.754L516.924,545.104L515.697,546.995L514.329,548.783L513.575,550.632L512.914,551.397L511.877,552.317L511.593,553.85L511.545,556.862L510.603,557.833L509.375,558.648L508.999,560.028L508.763,561.713L508.103,562.837L507.632,563.96L506.876,565.235L505.696,569.267L505.083,570.748L504.093,572.227L502.63,573.605L502.064,574.697L501.922,584.134L501.074,584.747L499.894,585.358L497.252,585.46L496.45,585.817L495.553,586.634L494.374,586.53L493.572,585.919L493.337,584.082L492.771,582.605L491.969,581.891L488.619,581.022L487.108,579.646L485.741,579.033L485.388,578.371L485.01,576.636L484.16,575.718L483.123,575.054L482.793,573.269L482.841,571.431L482.085,570.808L481.378,569.278L480.057,568.564L479.538,567.899L478.169,567.899L477.273,568.512L476.283,569.38L475.479,569.685L474.207,569.175L473.169,568.564L472.557,567.186L471.659,566.114L470.104,565.144L468.264,564.582L466.47,563.714L464.678,563.408L463.498,562.336L461.706,558.966L461.187,557.23L461.233,555.137L460.668,554.115L459.96,553.247L459.583,551.817L458.93,551.173L459.262,550.851L459.413,549.135L459.111,547.868L457.752,546.887L455.866,545.416L454.205,544.271L452.544,543.536L451.487,542.636L450.091,542.063L449.412,541.615L450.167,539.406L451.035,538.875L451.903,537.526L452.544,536.341L454.658,535.523L455.715,534.909L455.941,531.597L455.488,530.248L454.432,530.084z"/>
		<path id="TW-PEN" title="Penghu" class="land" d="M219.627,518.101l1.191,0.816l-0.222,0.234l-0.771,-0.006l-1.3,1.058l-1.188,0.047l-0.441,0.24l-0.624,-0.011l-0.345,0.393h-0.529l-0.356,-0.288l0.048,-1.24l0.705,0.047l0.089,0.711l0.528,-0.089l0.352,-0.286l0.044,-0.526l1.014,-0.144l0.395,-0.525h1.015L219.627,518.101zM231.257,481.037l-0.164,0.691l-0.363,-0.489L231.257,481.037zM224.693,496.704l0.354,0.894l-0.706,0.096l-0.088,-0.813L224.693,496.704zM215.223,556.836l0.255,0.451l0.008,0.715l-0.836,-0.095l-0.53,-0.43l0.089,-0.62L215.223,556.836zM204.418,565.631l1.023,0.238l-0.092,0.523l-0.657,0.573l0.089,0.515l-0.22,0.724l0.263,0.859l-0.22,0.334l-0.857,-0.239l-0.553,0.334l-0.308,0.476l-0.352,0.091l0.087,0.616l0.264,0.247v0.506l-0.529,0.304l-0.088,-0.477l-1.585,-0.524l-0.089,-0.667l0.353,-0.381l0.043,-0.906l-0.528,-0.382l-0.441,-0.667l-0.616,-0.477l-0.045,-0.476l0.925,-0.383h0.794l0.22,-0.236h0.881l0.712,-0.289L204.418,565.631zM187.727,548.233l0.222,0.276v0.858l-0.483,-0.188l-0.088,-0.621L187.727,548.233zM219.54,539.016l0.264,0.478l0.441,0.333l0.44,1.336l-0.704,-0.143l-1.19,0.048l-0.573,0.19l-0.264,0.859l-0.486,-0.239l-0.66,0.095l-0.044,-1.286l0.792,0.195l0.353,-0.435l-0.087,-0.621l0.705,0.051l0.571,-0.241L219.54,539.016zM230.729,496.643l0.176,0.237l0.926,0.336v1.05l-0.353,0.528l-0.086,0.526l-1.411,-0.289l-1.013,-1.002v-0.432h0.837l0.352,-0.718L230.729,496.643zM241.789,558.419l0.4,0.155l0.129,0.382l-0.315,0.323l0.008,0.492l-0.482,0.429l-0.356,0.71l0.22,0.464l-0.617,0.49l-0.263,-0.522l-0.662,-0.622l0.441,-0.81l-0.441,-0.383l0.265,-0.715l0.843,-0.289l0.391,0.099L241.789,558.419zM241.789,499.73l-0.484,0.588l-0.397,-0.427L241.789,499.73zM216.764,558.175l0.529,0.353l-0.047,0.34l-0.967,0.852l-0.616,0.239l-0.088,0.379l-0.529,-0.236v-0.382l0.529,-0.191l0.352,-0.429l0.177,-0.667L216.764,558.175zM240.291,486.406l-0.044,1.148l-0.397,-0.392l0.132,-0.565L240.291,486.406zM228.529,483.97l0.616,1.241l-0.485,0.047l-0.353,-1.195L228.529,483.97zM222.712,479.824l0.176,0.554l-0.176,0.767l0.255,0.517l-0.476,0.344l-0.441,-0.432l0.309,-0.381l-0.058,-0.675l-0.251,-0.618L222.712,479.824zM239.496,489.37l0.625,0.578l-0.006,0.381l-1.19,0.192l-0.748,-0.097l0.44,-0.814l0.704,0.097L239.496,489.37zM226.94,487.31l0.607,0.436l0.231,0.527l0.792,0.098l0.441,-0.769l0.293,-0.143l0.451,0.229l-0.128,0.346l0.309,0.622l0.485,0.144l-0.132,0.765l0.837,0.334l-0.441,0.479l0.441,1.004h0.439l-0.043,0.813l-0.221,0.432l-1.013,-0.334l-0.529,0.525l0.176,0.718h-0.617l0.221,0.573l0.433,0.048l0.139,0.479l0.485,-0.479l0.656,0.287l0.049,0.573l-0.265,0.239l-0.792,0.287l0.179,0.616l-0.619,0.675l-1.015,-0.286l-0.66,-0.05l-0.485,0.479l-0.044,-0.958l0.316,-0.238l0.213,-0.572l0.573,-0.192l-0.221,-1.481l-0.485,-0.239l-0.703,-0.719l-0.574,-0.238l-0.133,-1.101l-0.519,-1.105l-1.067,-0.138l-0.264,0.527l-0.573,0.716l-0.087,0.622l-0.971,-0.664l-0.969,-0.149l-1.806,2.439l0.396,0.144l-0.175,0.669l-0.618,0.91l-1.089,-0.192l-0.496,0.574h-1.014l-0.309,-0.192l-0.396,0.239l-0.088,0.432l0.53,0.908l-0.265,0.334l0.396,0.862l-0.309,0.717l0.572,0.907l-0.083,0.719l-0.224,0.573l-0.441,0.621h-0.705l-0.183,0.285l0.183,0.813l0.397,0.335l-0.176,0.526l-0.529,0.526v0.573l0.477,0.192l-0.257,1.003l0.705,0.237l-0.485,0.766h-0.792l-0.254,-0.243l-1.045,-0.186l-0.729,-0.337l-0.706,0.145l-0.439,0.812l-1.19,-0.143l-0.749,0.335l-0.442,0.382l-0.836,-0.048l-0.529,-0.287l0.308,-0.815l1.409,-0.617l0.539,-1.143l0.388,0.041l0.925,0.862h0.573l0.792,-0.618v-0.243l0.707,-0.526l-0.045,-0.62l0.309,-0.67l-0.044,-0.382l-0.881,-0.718l-0.925,-0.238l-0.222,-0.383v-0.572l0.977,-0.343l0.479,0.868l0.307,-0.383l-0.132,-0.719l0.178,-0.524l0.519,-0.817l0.45,-0.282l-0.309,-0.525l-0.44,0.047l-0.749,-0.621l0.002,-0.384l0.752,-0.812l-0.314,-0.247l-0.089,-0.471l0.354,-1.1l0.615,-0.112l0.66,-2.039h0.397l-0.043,-1.101l1.584,-0.047l0.045,0.908l-0.661,0.476v0.432l0.308,0.287l0.396,-0.19l0.309,0.479l0.969,0.477h0.486l0.836,-0.669l1.058,-1.29l-0.044,-0.719h0.573l-0.177,-0.526l0.396,-1.578l0.265,-0.478l0.749,-0.107l0.309,-0.277l0.439,0.146l1.146,-0.383l0.177,-0.286l0.829,-0.009l0.231,-0.461L226.94,487.31zM235.048,491.717l0.352,0.095l-0.132,0.765l-0.925,0.526l0.131,-1.099L235.048,491.717zM217.116,515.312l0.132,0.64l-0.396,0.524l-0.706,-0.047l-0.263,-0.19l0.263,-0.908l0.396,0.144L217.116,515.312zM232.141,560.169l0.748,0.074l-0.175,0.667l0.087,0.764l-0.616,0.334l-0.749,-0.334l-0.617,-0.619l0.087,-0.479l0.618,-0.333L232.141,560.169zM237.685,498.88l0.623,0.199l0.396,0.431l-0.003,0.672l-0.261,0.286l0.044,0.477l0.881,0.287l-0.353,0.574l0.087,0.477l0.486,-0.189l0.481,0.085l0.311,-0.372l-0.176,-0.43l0.265,-1.053l0.484,0.239l0.133,0.669l0.353,0.287h0.529l-0.178,0.526l0.088,0.43l0.797,1.101l-0.356,1.672l0.353,0.134l-0.044,0.821l0.309,0.671l0.704,0.285l0.487,-0.047l0.414,0.286l0.026,0.839l-0.485,0.356l-1.19,0.479l-0.395,-0.286l-0.354,0.375l-0.572,-0.089l-0.353,-0.623l0.485,-0.239l0.001,-0.335l-1.235,-0.621h-0.396l-0.309,0.384l-0.662,-0.144l-1.673,0.049l-0.662,-0.239l-0.307,0.478l-0.612,0.278l-0.271,0.727l-0.351,0.143l-0.089,0.958l-0.483,0.188l-1.062,0.085l-0.657,0.728l0.176,0.478l-0.441,0.383l-0.352,-0.431l-0.704,0.192l-0.045,0.764h-0.352l-0.265,0.575l-0.395,0.095l-0.089,0.954l1.013,0.144l-0.131,0.622l-0.837,0.572l0.352,0.286l0.134,1.012l-0.619,0.088l-0.704,-0.286l-0.267,-0.467l-1.672,-0.203l0.044,0.383l-0.749,0.334h-0.881l-0.44,0.335l-0.881,-0.382l-0.045,-0.765l0.528,-0.621l-0.176,-0.86l-1.145,-0.719l-0.485,0.479l-0.924,0.048l-0.22,-0.287l-0.532,-1.337l-0.482,0.048l-0.132,-0.524l-0.44,-0.336h-0.618l-0.175,-0.813l0.309,-0.432l-0.045,-0.524l0.705,-0.044l0.043,-0.768l0.572,-0.095l0.36,1.616l-0.006,0.438l0.886,0.527l0.088,0.715l-0.401,0.478l0.313,0.666l0.522,-0.666h0.486l0.043,-0.573l0.442,-0.049l0.529,0.24l0.792,0.954l-0.484,0.383l0.352,0.861l0.484,-0.24l0.44,-0.774l-0.131,-1.089l0.529,-0.286l0.485,0.334h0.749l0.308,0.572h0.529l-0.176,-1.097l-0.573,-0.574l1.014,-0.574l0.309,-0.573l0.616,-0.525l-0.441,-0.335l-0.353,0.286l-1.057,-0.096l-0.793,-0.19l-0.351,0.478l-0.443,-0.186l-0.792,0.377l-0.618,0.048l-0.127,-0.335l-1.062,0.049l-0.573,-0.096l0.176,-0.525l-0.265,-0.575l0.216,-0.194l1.596,0.007l0.083,-0.528l0.353,-0.048l0.572,-0.764l-0.799,-0.583l-0.435,0.439l-0.396,0.096l-0.308,0.38l-0.836,-0.047l-0.485,0.336l-0.352,-0.289l0.441,-0.38l0.176,-0.574l0.404,-0.286l-0.051,-0.432l0.66,-0.382l-0.131,-0.764l-0.794,-1.148l0.087,-0.239l0.97,0.143l0.66,-0.143l0.485,-0.287l0.396,-0.479l0.528,0.05l0.134,-0.622l0.879,0.524v0.909l-0.493,0.289l0.405,0.477l0.44,0.238l-0.22,0.909l0.439,0.094l0.662,-0.286l0.353,0.323l0.221,-0.466l-0.353,-2.104l0.661,0.382l0.924,0.005l-0.088,-1.392l-0.617,-0.812l0.529,-0.67l0.132,-0.478l0.835,0.041l0.045,0.437l0.396,0.05l0.353,-0.385l0.706,-0.191l0.131,-0.574l0.837,0.151l0.705,0.567l-0.705,0.718l0.44,1.099l-0.307,0.097l0.052,0.756l-0.273,0.534l0.309,0.812l0.441,-0.285l0.439,-1.166l-0.087,-0.986l0.787,-0.631l0.623,0.153l0.22,1.433h1.145v-0.764l-0.527,-0.43l-0.177,0.574l-0.441,-0.097l0.485,-0.669l0.132,-0.622l0.307,-0.192l0.089,-1.099L237.685,498.88zM215.927,537.675l0.219,0.617l-0.483,0.15l-0.134,-0.43L215.927,537.675zM241.04,485.163l-0.088,1.388l-0.352,-0.238l-0.044,-0.768L241.04,485.163zM230.377,470.565l0.309,0.192l-0.044,0.526l-0.529,0.384l-0.318,-0.191L230.377,470.565zM231.392,473.315l0.175,0.984l1.497,0.622l0.179,0.288v0.692l-0.397,0.264l-0.131,0.433l-0.662,-0.013l0.089,0.538l-1.277,-0.239l-0.398,0.432l-0.175,0.572l-0.573,0.048l-0.212,-0.625l-0.801,-0.284l0.452,-0.817l0.738,-0.281l0.264,-0.576l0.528,-0.622l-0.264,-0.238l0.748,-1.102L231.392,473.315zM185.13,532.856l0.309,0.381l0.488,0.096l0.18,0.388l0.567,-0.004l0.263,0.62l-0.484,0.334l0.003,0.527l-1.148,0.189l-0.177,0.238h-0.704l-0.22,-0.382l-0.088,-0.715l0.484,-0.526l0.177,-0.906L185.13,532.856zM212.798,535.566l0.399,0.383l0.266,0.578l0.79,-0.138l0.304,-0.436l0.445,0.619l-0.126,1.069l0.251,0.705l-0.04,0.715l0.485,0.091l-0.44,0.816l1.011,-0.048l0.001,0.907l-1.232,0.286l0.351,0.525l-0.22,0.62l0.483,0.382l-0.131,0.477l-0.84,0.051l-0.041,-0.384l-0.529,-0.096l-0.353,0.429l-0.66,-0.048l-0.926,0.19v-0.381l-0.396,-0.477l1.104,-1.679l-0.31,-0.469l-0.004,-0.86l0.179,-0.334l-0.263,-0.906l0.529,-0.525l-0.354,-0.62l-0.176,-0.716l-0.353,-0.286l0.22,-0.478L212.798,535.566zM219.54,541.307l0.177,0.755l-0.442,-0.136L219.54,541.307zM185.218,547.461l0.569,0.762l-0.437,0.145l-0.616,-0.382L185.218,547.461zM239.244,558.284l0.029,0.585l-0.217,0.235l-0.658,-0.053l0.351,-0.717L239.244,558.284z"/>
		<path id="TW-LIE" title="Lienchiang" class="land" d="M287.433,93.043l-0.09,0.645l-0.616,0.05l0.309,-0.731L287.433,93.043zM356.867,55.742l0.486,0.293l-0.222,0.439l-0.44,-0.342L356.867,55.742zM294.57,38.648l0.616,0.637l-1.056,0.193l-0.618,0.879l-0.837,0.734l-0.441,-0.246l0.486,-1.074l1.058,-0.146L294.57,38.648zM291.485,33.663l-0.309,1.027l0.617,0.586l-0.571,0.439l0.22,0.636l-0.705,0.489H289.9l-0.264,-0.489l-0.044,-0.684l0.792,-0.195v-0.489l-0.353,-0.342l0.353,-0.343l0.353,0.099l0.087,-0.586L291.485,33.663zM289.15,87.694l0.219,0.243l-0.306,0.976l1.188,0.291l0.133,-0.485h0.792v0.535l-0.572,0.633l-0.088,0.536l-0.837,0.245l-0.043,0.731l-0.399,0.047l-0.483,0.39l-0.263,-0.438l-1.234,1.316l-0.265,-0.584l0.308,-1.025l0.309,-0.146l0.707,-0.829l0.042,-0.683l0.486,-0.828l0.042,-0.585L289.15,87.694zM329.375,22.468l0.09,0.489l-1.323,1.271l-0.396,0.539l-0.44,0.098l0.528,-1.369h0.353l0.308,-0.489L329.375,22.468zM369.161,16.11l0.087,0.635l0.308,-0.049l0.22,0.734l-0.397,0.44l0.09,0.441l0.44,0.195l0.351,-0.292l0.707,0.196l-0.043,-0.637l0.307,-0.489l0.44,-0.245l0.574,0.049v0.832l0.439,0.294l0.619,-0.245l0.173,0.487l0.485,0.539l0.09,0.585l-0.662,-0.243l-0.44,0.098l-0.175,-0.489l-0.399,0.294l0.046,0.489l-0.662,0.44l-0.263,0.732l-0.706,-0.245l-0.704,0.636l-0.354,-0.099l-0.219,-0.781l0.087,-0.735l0.44,-0.439l-0.265,-0.639h-0.527l-0.617,0.394v-1.811l-0.529,0.392l-0.481,0.929l-0.354,-0.244l0.219,-0.441l-0.219,-0.537l0.836,-0.39l-0.043,-0.784H369.161zM293.028,41.726l0.308,0.636l0.663,0.145l-0.09,0.538l0.221,0.536l0.483,-0.146l0.794,0.146l-0.132,0.979l-0.573,0.438l0.353,0.342l0.043,0.587l0.441,0.245l-0.22,0.536l-0.442,0.245l-0.129,-0.879l-0.354,-0.194l-0.087,-0.588l-0.442,-0.242l0.087,-0.441l-1.188,-0.147l-0.262,0.879l-0.619,-0.097l-0.439,0.732l-0.178,-0.685l-0.837,-0.097l-0.176,0.245l-0.748,0.292h-0.486l-0.352,0.342v1.417l-0.132,1.221l0.264,0.194l-0.177,0.587l-0.926,0.098l-0.131,-1.612l0.088,-0.585l0.705,-0.929l-0.395,-0.781l0.041,-0.44l0.485,-0.343l0.529,-0.635l0.661,-0.341l0.529,0.244l0.572,-0.733l0.882,-0.684l0.178,-0.636l0.351,-0.341L293.028,41.726zM279.945,52.861l0.306,0.05l0.441,0.585l0.969,-0.049l-0.046,0.392l-0.659,0.83l0.174,0.635l0.619,0.098l0.131,0.341l0.618,0.099l0.309,0.877l0.703,-0.732l0.487,-0.049l-0.088,-0.488l0.925,-1.22l0.529,-0.148l0.221,0.197l0.66,-0.197l0.792,0.198l-0.043,1.513l-0.487,0.146l-0.571,1.221l-0.572,-0.584l-0.573,0.341l0.044,0.537l-1.146,1.074h-0.572l-0.308,-0.537l-1.146,0.779l-0.22,0.44l-0.484,0.245l-0.133,-0.732l-1.056,0.148l-0.618,-0.246l-0.351,-0.342l-0.044,-0.88l0.66,-0.584l0.44,-1.026l-0.087,-0.632l0.307,-0.638l-0.482,-0.635v-0.683L279.945,52.861zM284.305,86.572l0.042,0.293l0.662,0.244l-0.397,0.731l-0.572,0.537l-0.749,-0.048l-0.44,0.926l-0.309,0.098l-0.308,-0.585l-0.66,-0.048l-0.794,-1.512l0.441,-0.39l1.982,0.049L284.305,86.572zM295.011,41.286l0.529,0.245l0.045,0.394l-1.015,-0.148L295.011,41.286z"/>
		<path id="TW-KIN" title="Kinmen" class="land" d="M50.578,353.588l0.354,0.721l-0.397,0.192l-0.572,0.723l-0.838,0.289l-0.483,0.673l0.441,0.771l0.175,0.914l-0.22,0.386l-0.396,0.096l-0.397,-0.29l-0.397,0.289l-0.131,0.626l0.397,0.385l-0.618,0.577h-0.529l-0.925,0.625l-0.572,0.144l-0.661,0.527l-1.321,0.148l-0.088,-0.387l0.97,-0.048l-0.045,-0.625l0.265,-0.433l-0.177,-0.481l-0.616,-0.914l-1.807,-0.771l-0.662,0.146l-1.014,-0.867l-0.661,-0.435l-1.189,-0.191l-1.102,0.191l-0.528,-0.047l-2.467,0.722l-2.248,1.01l-1.012,0.817l-0.795,0.867l-0.66,0.914l-0.31,0.675l-0.571,0.768l-0.264,1.203l-0.266,0.481l0.044,0.673l-0.528,0.193l-0.573,-0.193l-0.176,0.387l-0.574,0l-0.131,-0.386l-0.53,-0.241l-1.056,-0.191l-0.572,-0.77v-0.24l-1.103,-0.05l-0.439,0.097l-0.043,-0.771l-0.354,-0.047l-0.396,-0.673l-0.881,-0.819l-0.704,-0.144v-0.337l-0.574,-0.432l0.664,-0.386h0.483l0.265,0.337l0.792,-0.29l0.089,0.338l0.572,0.24l0.485,-0.387l0.571,-0.865v-0.482l0.309,-0.577l0.972,0.097l0.043,-0.818l-0.177,-0.288l0.044,-1.541l-0.396,-1.3l-0.662,-0.963l-0.175,-0.865l0.397,-1.107h0.748l0.266,-0.193v-0.673l-0.222,-0.337l-0.527,0.385l-0.969,-0.096l-0.353,0.144l-0.133,0.915l-0.662,-0.53l-0.042,-0.529l-0.397,-0.241l0.439,-0.722l0.045,-0.434l0.441,-0.337l0.704,0l0.22,-0.674l0.793,-0.53h0.618l0.309,-0.481l1.234,0.674l1.453,1.494l2.027,1.54l0.969,0.289l0.484,0.481l0.529,-0.097L34.013,352h0.968l0.971,-0.241l-0.046,-0.242l0.75,-0.817l0.218,-0.963v-0.626l-0.615,-0.962h0.66l0.219,-0.435l0.794,-0.48l0.088,-0.482l0.352,-0.193l-0.22,-0.866l0.045,-1.59l-0.309,-0.674l1.101,-0.096l0.66,-0.192l0.397,-0.625l0.881,-0.194l-0.043,-0.721l-0.266,-0.242l0.088,-0.481l0.484,0.145l0.794,-0.626l0.397,0.049l0.66,0.385l0.264,0.47l0.662,1.889l0.352,0.434l0.441,-0.098l1.189,0.098l0.176,-0.144l0.793,0.481l-0.264,1.25l0.396,0.819l0.662,0.096l-0.132,0.722l0.263,1.012l0.926,1.203l0.088,-0.336l0.483,-0.241l0.267,0.289l-0.309,0.771l-0.441,0.289l0.132,0.721l-0.13,0.866l0.262,0.531l-0.088,0.77l0.881,1.06L50.578,353.588zM1.366,365.905l-0.132,0.241l-0.616,0.145L0,365.713l0.618,-0.192l0.219,0.433L1.366,365.905zM209.935,261.077l0.22,0.676l-0.836,-0.194l-0.617,0.243l-0.397,-0.483l1.19,-0.436L209.935,261.077zM17.358,354.792l0.972,0.192l-0.265,1.349l-0.265,0.047l0.045,1.684l-0.354,0.77l-0.441,-0.095l-0.131,-0.386l-0.704,-0.145l-0.882,0.241l-0.572,0.769l0.131,0.915l-0.573,0.192l-1.057,-0.336l-0.792,0.48l-0.485,0.626l-0.176,0.529l-0.486,0.048l-0.483,-0.769l-0.749,-0.097l-0.397,-0.24l0.707,-0.675l0.263,-0.433l-0.531,-1.443l1.279,-0.097l0.263,-0.286l0.31,-2.457l0.265,-0.915l0.614,-0.384l1.015,0.047l0.177,-0.337l0.705,-0.337l1.145,0.194l0.532,0.625L17.358,354.792zM2.821,364.462l0.265,0.579l-0.926,0.239l-0.617,-0.721l-0.044,-0.386l-0.705,-0.577l0.353,-0.384l0.749,0.095l0.043,0.337l-0.351,0.433l0.617,0.481L2.821,364.462zM206.807,260.497l-0.749,-0.146l-0.748,-0.434l-0.267,-0.871l0.574,-0.241l0.176,0.386l0.927,0.242L206.807,260.497z"/>
		<path id="TW-KEE" title="Keelung" class="land" d="M580.323,235.199L579.781,236.658L579.046,237.591L578.31,238.834L577.46,239.332L576.838,238.834L575.988,238.337L575.252,238.523L574.29,239.145L573.44,240.078L572.534,241.445L572.309,242.813L572.649,243.932L573.498,244.554L574.63,245.113L575.252,246.48L574.687,247.662L572.139,248.967L570.724,249.588L568.742,249.65L566.817,249.278L566.139,248.47L564.497,246.73L562.799,246.17L560.762,245.921L559.628,244.678L558.95,244.181L557.42,243.995L556.741,243.187L556.063,242.129L555.156,241.322L554.647,239.705L554.194,238.71L554.25,237.343L552.099,236.037L551.42,234.295L552.099,233.673L554.25,233.113L554.986,232.305L556.289,232.243L557.873,231.745L559.063,231.186L559.912,230.688L562.629,229.63L563.421,229.071L563.704,228.2L564.069,228.81L563.85,229.003L563.85,229.73L565.26,229.488L565.524,229.682L566.625,229.584L567.068,229.924L567.463,229.875L568.125,230.505L568.74,230.36L569.093,230.988L570.592,231.085L570.371,231.86L570.812,232.005L570.634,232.828L570.724,233.408L569.71,234.135L569.226,234.86L569.446,235.248L569.975,234.425L570.768,234.232L571.165,233.748L571.781,233.408L571.781,233.118L572.31,232.49L572.485,232.054L572.134,231.618L572.089,231.085L571.648,230.65L572.398,229.972L573.146,229.972L573.764,230.505L574.732,230.553L574.82,230.795L574.291,231.328L574.566,231.808L574.909,231.957L575.745,231.909L576.23,232.344L576.274,232.925L577.2,233.264L577.463,232.635L578.477,232.828L579.271,232.683L579.357,233.021L579.008,233.408L578.83,233.99L579.008,234.716L579.402,234.813L579.843,235.248z"/>
		<path id="TW-TPE" title="Taipei" class="land" d="M523.842,238.39L524.889,238.141L525.869,237.975L526.474,234.907L527.908,233.497L529.417,231.258L530.775,229.599L531.607,228.687L533.04,228.355L533.87,227.858L535.003,226.862L536.965,226.032L537.191,225.12L538.021,224.457L538.853,223.627L539.229,222.797L539.607,222.548L540.438,223.046L540.967,224.374L541.645,224.789L543.231,225.12L543.984,225.784L543.607,227.775L543.984,229.102L544.891,229.765L545.117,231.507L544.891,232.667L545.569,233.746L546.929,235.073L547.533,235.984L546.551,237.394L546.325,238.803L547.758,239.881L549.117,240.378L550.551,241.456L551.08,242.616L551.155,244.108L550.854,245.186L550.098,246.264L549.345,247.008L549.345,247.838L550.022,248.5L550.551,249.412L549.646,249.909L549.496,250.655L550.249,251.484L551.307,252.395L553.193,253.472L554.175,253.224L555.836,253.472L556.365,254.135L555.912,254.797L554.401,254.797L550.702,255.129L548.061,254.963L546.627,256.123L546.249,257.117L546.249,258.608L546.778,260.346L546.778,262.417L547.684,263.162L548.287,263.907L547.909,265.232L546.098,265.398L544.137,264.652L541.191,264.652L539.607,263.494L538.626,261.589L537.04,261.092L535.682,260.181L534.927,256.702L533.645,255.129L532.511,255.129L531.531,256.372L530.171,256.951L529.04,256.123L528.813,253.803L528.964,252.643L530.021,251.484L531.305,250.241L531.456,247.091L531.38,244.854L530.098,242.782L528.889,241.539L526.775,241.373L524.511,240.13L523.982,239.549z"/>
		<path id="TW-TAO" title="Taoyuan" class="land" d="M527.472,315.146L527.376,315.419L526.149,315.832L524.829,315.832L523.886,316.245L522.658,317.587L521.997,320.684L521.621,322.129L520.678,323.575L520.111,324.916L518.413,327.29L516.998,328.219L515.487,329.354L514.262,329.87L512.374,330.282L510.486,328.838L509.166,327.497L508.601,325.845L509.544,323.058L508.506,322.439L507.279,321.82L507.279,320.788L508.035,318.207L508.129,316.659L506.525,316.245L505.58,315.419L505.393,314.077L504.543,312.838L503.034,311.908L502.185,311.289L501.052,311.186L500.109,311.598L498.978,311.702L498.883,310.256L499.731,308.604L500.203,307.467L499.731,306.744L498.883,305.917L499.166,303.025L499.731,302.405L499.637,300.959L498.599,299.305L497.09,298.788L495.298,298.479L492.844,296.929L492.278,295.069L491.146,294.035L490.674,293.312L489.825,292.897L488.598,293.312L487.467,293.518L485.768,293.621L483.314,291.347L481.616,290.314L480.955,289.693L478.502,288.039L477.56,286.592L475.672,286.281L475.295,285.144L476.05,284.007L476.805,282.352L476.521,280.491L475.672,279.56L470.105,279.663L469.067,278.939L468.879,277.802L467.841,276.974L466.992,277.222L466.143,277.739L465.011,276.809L464.067,276.498L462.274,275.774L461.331,275.05L460.293,274.429L460.859,272.774L460.104,271.222L459.821,269.98L458.501,268.946L457.274,268.428L455.859,268.738L455.01,269.255L453.406,269.152L452.368,268.738L451.142,269.255L450.48,269.876L448.594,269.666L449.388,269.003L449.478,267.939L450.004,267.263L450.401,267.214L451.062,266.78L451.768,265.91L452.378,264.692L453.618,263.542L454.015,262.671L454.147,261.995L454.19,260.738L454.015,260.158L454.676,259.433L454.851,258.611L455.204,257.692L456.966,255.565L456.615,255.468L458.023,253.68L459.346,252.326L459.477,251.987L460.271,251.697L460.58,251.358L461.724,250.875L462.519,250.875L463.311,250.536L463.84,249.956L464.501,249.763L465.206,248.939L466.307,248.263L466.438,247.924L468.068,246.86L468.949,246.763L469.963,246.134L470.713,245.942L471.726,245.893L471.901,245.651L473.003,245.506L473.267,245.265L474.15,245.119L474.28,244.925L475.779,244.829L475.91,244.635L477.145,244.296L478.642,243.57L479.039,243.57L479.26,243.135L479.921,242.507L480.934,242.022L481.462,242.071L483.665,240.426L484.545,240.039L484.724,239.749L485.692,239.313L486.837,239.023L488.159,238.926L488.599,238.344L488.908,238.344L489.436,238.732L489.878,238.636L490.143,238.055L489.833,237.519L490.715,237.571L491.153,237.367L491.684,237.426L492.432,237.087L493.578,237.28L493.842,237.813L494.371,237.958L494.769,237.813L495.385,238.007L495.876,238.653L497.008,240.062L498.366,241.14L500.556,241.637L502.065,241.886L503.726,242.88L505.235,243.543L506.066,245.118L506.519,246.527L507.121,247.355L510.52,247.854L512.859,247.936L513.916,248.598L514.671,250.173L514.443,251.499L514.671,253.321L515.878,254.067L516.255,254.812L515.953,255.641L515.349,255.89L514.443,256.469L514.595,257.297L515.048,257.629L514.973,258.706L514.218,259.202L513.688,259.7L512.558,260.031L511.802,261.438L510.671,262.598L503.65,262.598L503.197,263.509L503.5,264.502L503.65,265.993L503.65,267.731L502.896,268.642L502.668,269.966L502.896,271.042L503.802,271.208L504.479,271.539L504.254,272.367L503.349,273.278L502.896,274.271L503.121,275.346L504.254,277.002L505.312,277.664L506.218,279.07L506.82,280.973L506.896,282.379L507.877,283.621L507.575,284.117L506.218,284.366L506.368,285.143L508.707,285.97L510.218,286.797L511.878,286.797L513.16,286.301L514.746,286.301L516.708,287.128L517.841,288.203L519.275,290.023L520.558,291.263L521.237,293.165L522.066,294.571L522.747,295.067L522.445,296.389L521.389,297.547L519.802,298.87L519.275,300.192L519.502,302.176L520.558,303.912L521.54,305.978L523.124,309.035L524.634,310.771L525.767,311.267L526.822,312.34L526.747,314.323L527.275,315.231z"/>
		<path id="TW-HSZ" title="Hsinchu" class="land" d="M441.678,285.536L442.649,287.288L445.764,287.536L448.594,288.28L449.557,289.335L450.972,289.769L453.122,291.258L455.16,295.413L455.5,297.831L455.953,299.319L455.67,300.683L454.878,300.683L452.783,299.071L451.99,298.141L450.858,297.459L449.839,297.894L449.16,298.947L448.028,299.443L446.726,299.567L445.99,300.249L445.197,301.551L443.896,302.294L442.197,304.279L441.914,305.952L441.404,307.316L440.556,308.431L439.762,308.802L438.97,308.121L437.951,307.501L437.668,306.199L436.988,305.642L436.593,304.774L435.743,304.774L434.668,305.394L433.535,305.456L432.97,304.836L432.835,304.247L433.528,303.669L433.968,303.717L435.289,303.138L436.304,302.27L436.655,301.257L436.612,299.375L437.58,299.326L437.89,298.796L437.934,297.589L438.198,296.43L437.979,296.189L438.065,295.321L438.242,295.176L438.329,293.873L438.286,292.715L438.109,292.039L438.187,291.315L437.184,291.557L436.568,290.543L436.743,289.819L437.448,288.515L437.847,287.501L438.639,286.584L438.902,285.04L439.387,285.425L439.695,284.652L439.564,284.122L440.179,284.17L440.666,284.797L440.841,285.473L441.282,285.425L441.149,284.701L441.415,284.604z"/>
		<path id="TW-HSQ" title="Hsinchu" class="land" d="M515.469,329.361L516.031,330.022L516.645,331.054L516.597,332.653L515.983,333.633L514.898,334.201L514.002,334.923L514.238,336.47L514.616,337.811L514.38,340.492L513.626,342.09L512.21,343.742L510.229,345.494L508.907,346.576L507.586,347.865L506.219,348.381L505.559,349.515L504.897,350.907L503.906,351.989L502.823,352.917L502.303,353.844L501.811,355.425L501.029,356.369L499.473,357.039L496.831,357.039L494.52,357.297L493.146,357.115L492.962,357.091L492.632,356.112L492.255,352.092L490.981,350.803L489.943,348.948L488.812,348.227L487.585,346.886L486.499,345.958L486.311,344.566L485.791,343.896L484.66,343.432L483.434,343.535L481.169,344.669L477.301,344.618L472.347,344.618L469.186,345.185L466.403,346.165L463.667,345.751L462.393,344.824L462.393,342.606L462.912,341.318L463.667,340.286L464.092,338.894L462.96,336.625L462.016,336.006L462.063,335.129L462.912,332.601L463.714,331.519L464.232,330.229L464.421,329.145L463.619,327.133L463.006,326.266L462.016,325.543L461.402,324.356L459.987,324.149L459.044,324.563L458.242,324.46L457.063,323.272L455.647,322.55L454.562,321.518L453.43,320.95L452.816,320.021L451.165,318.576L449.467,317.698L448.099,315.634L447.438,314.188L446.684,313.155L445.929,312.846L446.307,311.709L447.25,311.142L447.722,310.212L446.967,309.282L445.457,309.334L443.523,310.419L442.249,309.902L441.117,309.592L440.253,308.573L440.556,308.431L441.404,307.316L441.914,305.952L442.197,304.279L443.896,302.294L445.197,301.551L445.99,300.249L446.726,299.567L448.028,299.443L449.16,298.947L449.839,297.894L450.858,297.459L451.99,298.141L452.783,299.071L454.878,300.683L455.67,300.683L455.953,299.319L455.5,297.831L455.16,295.413L453.122,291.258L450.972,289.769L449.557,289.335L448.594,288.28L445.764,287.536L442.649,287.288L441.678,285.536L442.031,284.797L441.502,284.073L442.383,283.88L442.383,282.963L441.854,283.108L441.766,282.673L442.074,282.093L442.646,281.466L442.912,280.79L443.221,280.452L443.44,279.582L443.793,279.099L444.014,278.181L444.411,277.216L445.556,275.959L445.863,275.283L446.436,274.849L446.085,273.931L446.305,273.544L446.261,273.061L446.481,272.481L447.097,271.756L447.449,271.032L448.065,270.549L448.594,269.666L450.48,269.876L451.142,269.255L452.368,268.738L453.406,269.152L455.01,269.255L455.859,268.738L457.274,268.428L458.501,268.946L459.821,269.98L460.104,271.222L460.859,272.774L460.293,274.429L461.331,275.05L462.274,275.774L464.067,276.498L465.011,276.809L466.143,277.739L466.992,277.222L467.841,276.974L468.879,277.802L469.067,278.939L470.105,279.663L475.672,279.56L476.521,280.491L476.805,282.352L476.05,284.007L475.295,285.144L475.672,286.281L477.56,286.592L478.502,288.039L480.955,289.693L481.616,290.314L483.314,291.347L485.768,293.621L487.467,293.518L488.598,293.312L489.825,292.897L490.674,293.312L491.146,294.035L492.278,295.069L492.844,296.929L495.298,298.479L497.09,298.788L498.599,299.305L499.637,300.959L499.731,302.405L499.166,303.025L498.883,305.917L499.731,306.744L500.203,307.467L499.731,308.604L498.883,310.256L498.978,311.702L500.109,311.598L501.052,311.186L502.185,311.289L503.034,311.908L504.543,312.838L505.393,314.077L505.58,315.419L506.525,316.245L508.129,316.659L508.035,318.207L507.279,320.788L507.279,321.82L508.506,322.439L509.544,323.058L508.601,325.845L509.166,327.497L510.486,328.838L512.374,330.282L514.262,329.87z"/>
		<path id="TW-MIA" title="Miaoli" class="land" d="M493.146,357.115L492.595,357.885L491.935,357.988L490.755,358.864L490.424,359.328L489.764,361.852L489.293,362.367L488.207,363.191L487.782,363.964L487.452,366.075L486.792,366.333L485.519,366.333L484.952,365.664L484.621,364.839L484.339,363.706L483.442,363.449L482.735,363.809L481.839,365.561L479.857,367.054L479.103,368.187L478.631,369.114L477.357,369.835L475.611,370.041L473.583,370.196L472.592,370.917L471.932,371.792L470.894,372.667L470.611,374.058L470.068,374.635L468.842,375.252L468.229,375.819L467.191,376.385L463.559,376.539L462.237,377.157L461.341,377.877L460.397,379.165L459.644,380.554L458.274,380.812L456.388,380.812L455.444,379.833L454.501,377.671L453.415,376.333L451.906,374.943L449.972,374.428L445.019,373.399L443.649,372.935L442.046,372.677L440.254,372.729L439.499,372.987L438.65,373.553L438.413,374.892L438.509,376.024L438.838,377.053L438.934,378.289L438.934,379.576L438.556,380.451L437.896,381.224L436.526,381.584L435.442,381.533L430.3,381.893L426.573,381.944L424.969,381.481L423.507,380.657L421.809,378.753L420.299,377.518L418.271,376.899L415.581,376.59L413.977,375.354L412.562,374.531L410.108,372.884L407.656,371.545L405.438,370.515L404.519,370.145L402.584,368.136L401.075,366.024L399.471,364.066L398.292,362.47L397.348,361.903L396.121,361.749L395.178,361.285L394.329,359.842L393.856,358.658L393.009,357.163L392.441,356.442L391.512,355.562L392.33,354.885L393.919,354.07L394.316,353.541L395.153,352.963L395.418,352.481L395.549,351.808L395.946,351.471L396.122,351.952L396.606,351.952L396.65,351.519L397.005,350.846L396.256,350.942L396.52,350.364L396.87,350.411L398.061,349.064L398.326,348.631L398.193,348.198L398.898,347.475L398.59,347.09L398.722,346.657L399.471,346.175L399.471,345.212L399.867,344.972L400.088,344.249L400.439,343.816L400.925,342.757L401.542,341.745L401.762,341.649L402.378,339.963L403.041,337.749L403.877,335.485L404.802,333.799L405.374,332.209L405.551,330.715L405.992,329.896L406.478,328.5L407.666,326.716L408.15,326.281L408.723,326.33L409.957,325.751L410.97,326.523L411.41,326.378L412.645,325.511L413.174,325.559L413.922,325.849L414.979,326.667L415.86,326.619L416.125,326.33L414.979,325.511L414.363,324.884L414.055,324.354L413.656,324.065L412.514,324.113L413.57,322.378L413.57,321.221L413.834,320.788L414.759,319.727L415.199,319.485L415.023,318.908L415.464,318.908L416.037,318.377L416.917,317.026L418.106,316.979L419.164,316.833L421.148,316.256L421.763,316.352L422.117,316.063L423.438,316.16L423.747,316.015L424.76,316.015L424.672,314.761L425.156,314.231L425.905,313.75L428.594,311.145L428.726,310.325L429.254,310.131L429.783,308.685L429.827,307.624L430.399,306.226L430.706,306.129L431.281,305.454L432.835,304.247L432.97,304.836L433.535,305.456L434.668,305.394L435.743,304.774L436.593,304.774L436.988,305.642L437.668,306.199L437.951,307.501L438.97,308.121L439.762,308.802L440.253,308.573L441.117,309.592L442.249,309.902L443.523,310.419L445.457,309.334L446.967,309.282L447.722,310.212L447.25,311.142L446.307,311.709L445.929,312.846L446.684,313.155L447.438,314.188L448.099,315.634L449.467,317.698L451.165,318.576L452.816,320.021L453.43,320.95L454.562,321.518L455.647,322.55L457.063,323.272L458.242,324.46L459.044,324.563L459.987,324.149L461.402,324.356L462.016,325.543L463.006,326.266L463.619,327.133L464.421,329.145L464.232,330.229L463.714,331.519L462.912,332.601L462.063,335.129L462.016,336.006L462.96,336.625L464.092,338.894L463.667,340.286L462.912,341.318L462.393,342.606L462.393,344.824L463.667,345.751L466.403,346.165L469.186,345.185L472.347,344.618L477.301,344.618L481.169,344.669L483.434,343.535L484.66,343.432L485.791,343.896L486.311,344.566L486.499,345.958L487.585,346.886L488.812,348.227L489.943,348.948L490.981,350.803L492.255,352.092L492.632,356.112L492.962,357.091z"/>
		<path id="TW-ILA" title="Yilan" class="land" d="M574.248,377.428L572.016,377.49L570.714,376.687L569.639,376.131L567.543,375.575L564.655,375.39L560.07,373.721L558.373,372.547L556.958,371.373L555.371,370.755L554.184,370.446L553.278,369.396L552.484,368.716L551.465,368.592L551.014,369.952L551.296,371.064L552.032,371.806L552.202,372.547L551.522,372.98L550.334,372.98L548.295,373.536L547.333,373.906L546.767,374.648L547.051,375.266L548.013,376.131L547.842,376.996L546.598,377.613L545.183,377.366L543.597,376.873L541.503,376.439L539.407,374.71L537.087,373.475L534.879,372.856L531.144,372.424L529.048,372.238L526.842,371.249L525.255,370.446L524.066,369.457L523.528,368.87L522.651,367.542L521.349,366.306L519.99,365.626L517.5,365.688L515.575,366.182L514.273,366.677L513.14,367.665L512.179,368.345L510.706,368.468L509.461,366.801L508.726,365.194L507.593,364.204L505.725,363.958L503.177,362.659L502.724,361.979L502.724,361.114L503.235,360.063L503.46,358.579L502.951,356.786L502.271,356.291L501.811,355.425L502.303,353.844L502.823,352.917L503.906,351.989L504.897,350.907L505.559,349.515L506.219,348.381L507.586,347.865L508.907,346.576L510.229,345.494L512.21,343.742L513.626,342.09L514.38,340.492L514.616,337.811L514.238,336.47L514.002,334.923L514.898,334.201L515.983,333.633L516.597,332.653L516.645,331.054L516.031,330.022L515.469,329.361L515.487,329.354L516.998,328.219L518.413,327.29L520.111,324.916L520.678,323.575L521.621,322.129L521.997,320.684L522.658,317.587L523.886,316.245L524.829,315.832L526.149,315.832L527.376,315.419L527.472,315.146L528.03,314.901L529.767,315.149L530.973,314.984L531.955,314.075L533.768,313.91L535.276,313.167L537.013,312.093L537.918,311.184L538.976,309.696L540.938,309.366L542.522,309.201L544.032,307.63L544.938,307.383L545.693,306.639L546.371,305.482L546.599,304.573L546.522,302.589L545.769,301.846L545.315,301.185L545.164,300.192L545.994,299.448L546.371,298.705L546.371,297.134L546.522,296.059L547.58,295.398L548.183,294.819L549.543,294.653L550.599,294.918L551.354,292.851L551.958,292.024L553.468,292.024L554.75,291.859L556.261,291.445L557.468,291.197L558.374,290.784L559.581,290.618L560.79,290.04L561.996,289.129L562.525,287.972L563.656,287.144L564.79,286.896L565.77,286.565L566.374,285.573L567.356,284.415L568.639,283.836L569.846,284.001L571.055,284.415L573.092,284.25L574.45,283.67L575.205,282.595L575.356,281.188L575.885,278.954L578.526,276.224L580.565,275.81L582.679,275.728L583.735,275.313L585.168,274.485L586.149,273.493L586.679,272.002L586.377,270.679L585.471,269.603L584.867,268.36L585.094,267.201L585.545,265.959L586.754,265.297L587.886,265.131L589.621,265.794L591.434,266.042L593.019,265.463L594.453,264.138L595.283,263.062L597.02,262.399L599.283,262.399L600.869,261.736L601.775,261.157L602.982,261.157L603.238,261.463L602.665,261.899L602.092,262.092L600.814,262.914L599.581,263.251L598.436,263.832L597.951,264.459L597.951,265.04L597.466,265.33L597.157,265.813L597.157,266.296L596.673,266.78L595.879,266.974L595.66,267.408L594.999,267.794L595.043,268.761L594.162,268.858L593.633,268.761L592.972,269.148L592.047,270.162L592.311,270.742L592.311,271.37L591.871,271.756L592.003,272.723L591.431,273.303L591.077,273.447L590.77,274.027L589.669,275.235L588.874,275.379L588.565,276.152L587.554,277.167L586.627,277.361L586.406,277.602L586.143,278.52L585.396,279.244L584.998,279.872L584.866,280.403L584.293,281.466L583.675,283.397L583.5,283.735L582.883,285.57L582.178,288.467L581.869,290.301L581.34,294.259L581.253,296.382L581.297,299.326L581.517,301.112L582.003,303.234L582.31,304.343L582.883,305.839L583.455,306.852L583.632,307.671L584.338,309.264L584.161,311.193L584.204,312.736L584.646,316.594L585.263,319.438L586.188,321.896L586.805,323.149L587.024,323.824L587.377,324.258L587.598,324.933L588.742,326.137L589.359,326.378L590.021,326.33L590.55,326.957L591.209,326.909L591.781,327.294L592.003,328.065L590.901,328.161L591.077,327.824L590.725,327.486L589.889,327.775L588.831,327.004L587.862,327.246L587.642,327.824L588.259,328.354L588.345,328.932L588.963,328.354L589.314,328.45L589.272,329.077L588.963,329.317L588.785,329.847L589.095,330.233L589.579,329.896L590.197,330.715L590.99,331.438L590.813,331.727L590.021,331.871L589.536,332.112L589.712,333.605L589.669,335.581L589.889,336.785L590.24,337.411L589.933,337.941L590.064,338.904L590.33,339.241L589.492,340.349L588.522,340.397L587.948,340.59L587.377,341.071L586.32,341.457L585.263,341.602L584.953,341.986L584.558,343.383L584.513,344.442L584.646,345.26L584.866,345.549L585.482,345.501L586.1,345.694L586.672,346.175L586.451,346.465L586.496,347.716L586.761,348.053L588.038,348.004L588.392,348.486L588.259,348.823L587.554,348.872L587.377,348.631L586.32,348.775L585.878,349.16L585.35,349.208L584.733,349.834L584.513,350.316L584.028,350.364L583.675,350.797L582.268,351.423L581.736,352.337L581.914,352.674L581.869,353.3L581.033,354.166L580.944,354.504L580.15,355.273L579.271,355.899L578.391,357.006L577.992,357.919L577.683,359.027L577.287,359.796L577.2,360.423L576.67,362.684L576.67,364.319L576.494,365.041L576.451,367.302L575.965,367.879L575.702,368.599L575.702,369.033L575.084,369.947L574.732,371.245L574.071,372.735L573.807,373.553L574.071,375.669L574.337,376.631z"/>
		<path id="TW-TXG" title="Taichung" class="land" d="M523.528,368.87L523.217,369.433L522.537,369.927L521.689,370.36L521.293,371.102L521.293,372.955L520.727,375.056L520.33,376.23L519.877,377.218L519.028,378.392L517.16,378.762L516.254,379.071L515.235,380.183L514.727,381.294L513.989,382.16L512.688,382.529L512.065,383.271L512.065,384.753L512.179,387.038L511.499,388.088L510.367,388.767L509.234,389.199L508.159,389.507L507.311,390.62L507.48,391.73L506.97,392.594L505.892,393.15L504.876,393.15L503.348,392.347L502.441,392.347L501.252,391.545L500.233,391.236L498.818,391.606L497.8,392.039L496.157,391.792L494.969,391.483L493.95,390.249L493.101,389.446L492.138,389.507L491.289,390.558L491.119,391.668L490.667,392.718L489.931,393.644L488.175,393.767L486.591,393.212L485.119,393.026L483.024,393.706L482.458,393.952L481.949,394.508L481.325,394.94L479.854,394.508L478.213,393.273L477.363,393.397L476.826,394.076L475.862,394.446L475.014,394.57L474.335,395.495L474.051,396.174L473.372,397.347L472.239,397.718L469.013,397.779L467.032,397.779L466.466,398.458L465.957,399.692L465.164,400.804L463.521,402.593L462.334,403.58L461.314,404.629L459.786,404.999L456.39,404.814L453.445,404.938L452.766,405.259L452.37,406.183L451.747,408.651L451.237,409.761L450.332,410.501L449.087,411.181L447.331,411.427L446.256,411.242L445.181,410.439L444.161,410.377L442.916,410.934L441.274,411.982L440.255,413.092L439.236,413.586L437.991,413.647L436.688,413.4L435.727,412.721L435.443,411.92L434.481,411.982L434.198,412.97L434.198,414.633L433.858,415.251L433.123,416.237L432.556,416.423L432.217,415.436L432.047,413.586L431.424,412.721L430.405,412.29L429.33,412.104L428.594,411.304L427.744,410.626L426.556,410.934L425.933,411.797L425.706,412.783L425.253,413.894L424.461,414.51L424.121,416.175L424.064,417.717L423.612,419.32L422.763,419.875L421.574,419.998L419.763,421.416L418.744,423.635L418.518,424.744L417.895,426.349L417.498,427.581L416.252,428.566L415.178,430.045L414.215,430.785L412.856,431.278L411.668,431.832L410.309,431.462L408.554,431.155L404.704,431.155L403.289,430.908L401.591,430.106L399.893,429.43L398.703,428.629L397.345,427.148L395.42,427.026L393.608,426.532L392.59,426.349L391.57,423.451L391.854,422.156L392.307,421.725L392.08,420.491L390.835,419.012L390.212,415.928L389.023,414.695L387.892,414.017L386.023,414.202L383.985,413.462L382.399,413.092L380.984,412.167L379.229,411.427L377.475,410.501L376.116,409.515L375.72,407.85L376.116,406.615L375.097,404.332L374.645,402.852L373.625,401.248L372.606,400.014L371.927,398.841L371.143,398.399L371.363,398.159L371.405,397.438L369.775,396.046L369.425,396.093L369.16,395.709L368.762,395.709L368.234,395.277L366.03,394.509L366.251,394.316L367.31,394.7L367.705,393.259L367.882,393.067L368.674,390.761L369.556,390.569L369.688,389.896L370.569,388.118L370.613,387.013L371.318,385.09L372.376,385.283L373.477,382.928L374.094,382.879L374.182,383.457L373.742,383.841L373.522,384.803L373.522,385.715L373.213,386.196L372.993,386.917L372.685,387.35L372.156,388.599L371.758,388.599L371.274,388.262L370.746,388.262L370.657,388.791L369.908,390.617L369.819,391.146L369.027,393.019L369.336,393.403L369.865,393.308L369.865,392.682L370.174,392.539L370.48,391.482L371.01,390.329L371.893,390.714L372.376,391.626L372.729,392.017L372.993,391.001L372.685,390.761L372.507,389.848L373.081,388.215L374.051,386.1L374.711,383.889L375.02,383.697L375.639,383.986L375.9,384.659L375.152,385.427L375.327,386.773L376.031,385.907L375.988,385.187L376.341,384.467L376.296,383.841L376.031,383.601L376.031,382.928L376.738,382.495L377.09,382.783L377.795,382.736L378.104,382.207L377.618,382.111L376.738,382.255L376.341,382.159L375.988,382.399L374.975,382.255L374.665,382.015L374.754,381.534L375.547,381.534L375.107,380.813L375.152,380.476L376.385,377.977L376.958,378.17L377.223,378.505L377.662,378.121L378.279,378.505L379.425,378.986L380.13,378.409L380.219,376.968L380.438,376.343L380.042,374.659L380.307,373.794L380.747,373.41L381.23,373.41L381.583,372.735L381.805,372.688L381.892,371.918L382.508,371.389L382.598,371.101L384.051,369.802L384.403,368.984L384.889,368.408L384.624,367.35L384.976,367.253L385.549,366.243L385.637,365.281L386.342,364.319L386.342,363.549L386.65,363.02L386.519,362.587L387.135,362.25L386.783,361.721L387.487,360.807L387.927,360.518L388.677,359.652L389.337,359.219L390.086,357.824L390.66,357.824L391.512,355.562L392.441,356.442L393.009,357.163L393.856,358.658L394.329,359.842L395.178,361.285L396.121,361.749L397.348,361.903L398.292,362.47L399.471,364.066L401.075,366.024L402.584,368.136L404.519,370.145L405.438,370.515L407.656,371.545L410.108,372.884L412.562,374.531L413.977,375.354L415.581,376.59L418.271,376.899L420.299,377.518L421.809,378.753L423.507,380.657L424.969,381.481L426.573,381.944L430.3,381.893L435.442,381.533L436.526,381.584L437.896,381.224L438.556,380.451L438.934,379.576L438.934,378.289L438.838,377.053L438.509,376.024L438.413,374.892L438.65,373.553L439.499,372.987L440.254,372.729L442.046,372.677L443.649,372.935L445.019,373.399L449.972,374.428L451.906,374.943L453.415,376.333L454.501,377.671L455.444,379.833L456.388,380.812L458.274,380.812L459.644,380.554L460.397,379.165L461.341,377.877L462.237,377.157L463.559,376.539L467.191,376.385L468.229,375.819L468.842,375.252L470.068,374.635L470.611,374.058L470.894,372.667L471.932,371.792L472.592,370.917L473.583,370.196L475.611,370.041L477.357,369.835L478.631,369.114L479.103,368.187L479.857,367.054L481.839,365.561L482.735,363.809L483.442,363.449L484.339,363.706L484.621,364.839L484.952,365.664L485.519,366.333L486.792,366.333L487.452,366.075L487.782,363.964L488.207,363.191L489.293,362.367L489.764,361.852L490.424,359.328L490.755,358.864L491.935,357.988L492.595,357.885L493.146,357.115L494.52,357.297L496.831,357.039L499.473,357.039L501.029,356.369L501.811,355.425L502.271,356.291L502.951,356.786L503.46,358.579L503.235,360.063L502.724,361.114L502.724,361.979L503.177,362.659L505.725,363.958L507.593,364.204L508.726,365.194L509.461,366.801L510.706,368.468L512.179,368.345L513.14,367.665L514.273,366.677L515.575,366.182L517.5,365.688L519.99,365.626L521.349,366.306L522.651,367.542z"/>
		<path id="TW-CHA" title="Changhua" class="land" d="M398.997,428.826L398.898,430.153L398.106,430.337L395.672,430.522L394.144,430.399L393.917,431.632L394.482,433.172L395.05,433.787L395.672,435.329L395.332,437.608L394.482,438.717L393.464,439.396L392.898,440.687L392.841,441.488L393.407,442.474L393.407,447.399L393.294,448.496L393.012,450.221L392.559,451.698L392.219,453.484L391.086,455.454L391.539,457.115L391.652,458.224L391.313,458.593L391.879,460.193L392.841,461.115L394.936,463.392L395.897,464.069L397.483,464.377L398.672,463.7L399.804,463.455L400.54,464.438L400.144,466.407L398.785,467.575L396.86,468.007L394.034,468.297L393.86,468.314L386.444,467.084L382.595,466.161L372.404,466.346L367.311,463.577L363.857,462.716L362.611,462.284L361.706,461.362L360.97,460.993L360.291,461.484L358.479,461.793L351.232,461.546L349.195,462.347L345.741,462.47L340.986,462.9L339.005,462.1L336.911,461.608L335.722,461.608L335.646,461.276L336.381,461.086L336.291,460.031L335.896,459.217L335.279,459.025L335.015,458.738L334.179,458.26L334.618,457.732L334.618,457.255L333.824,456.87L333.209,456.775L332.9,456.439L332.9,455.817L333.252,455.72L334.002,456.007L334.485,454.38L334.838,454.858L335.499,454.427L336.557,454.618L336.909,454.571L337.613,453.948L338.407,453.421L338.627,452.511L339.771,450.835L340.081,449.539L340.522,449.013L341.447,447.528L341.976,446.041L342.195,445.802L342.417,444.986L343.166,443.645L343.429,442.782L342.108,442.639L341.316,442.398L341.271,441.823L341.845,440.864L342.239,440.434L342.637,439.619L343.077,439.043L343.605,437.987L344.003,437.51L344.311,437.51L344.179,436.79L344.663,435.638L345.281,433.721L345.678,433.433L348.144,433.385L348.101,432.81L348.408,431.084L348.805,430.651L349.905,428.109L351.448,426.095L351.801,424.847L352.24,424.8L353.65,423.841L354.885,423.217L356.163,422.449L356.691,422.449L357.484,421.971L357.439,420.963L357.704,420.194L358.188,419.233L358.673,419.281L359.688,416.883L359.07,416.499L358.762,415.396L358.102,416.163L357.484,416.163L356.867,415.779L357.043,414.869L356.559,414.626L356.207,415.011L356.428,415.732L355.898,415.826L354.355,415.826L353.65,415.923L353.078,415.588L353.122,415.204L353.52,414.819L353.783,414.243L354.488,413.428L354.619,413.044L355.281,412.131L355.678,411.844L355.678,411.46L356.471,410.645L356.912,409.97L358.408,410.115L358.981,409.923L359.203,409.251L359.378,408.195L360.127,407.331L360.039,407.043L359.424,406.611L360.172,405.506L361.185,404.209L364.004,404.209L364.754,404.114L365.767,404.209L366.119,403.777L366.648,403.729L366.912,403.153L366.208,402.529L366.912,401.761L367.353,401.04L367.617,401.04L367.926,400.465L368.939,399.456L369.16,398.592L369.645,397.871L371.01,398.592L371.143,398.399L371.927,398.841L372.606,400.014L373.625,401.248L374.645,402.852L375.097,404.332L376.116,406.615L375.72,407.85L376.116,409.515L377.475,410.501L379.229,411.427L380.984,412.167L382.399,413.092L383.985,413.462L386.023,414.202L387.892,414.017L389.023,414.695L390.212,415.928L390.835,419.012L392.08,420.491L392.307,421.725L391.854,422.156L391.57,423.451L392.59,426.349L393.608,426.532L395.42,427.026L397.345,427.148L398.703,428.629z"/>
		<path id="TW-YUN" title="Yunlin" class="land" d="M394.034,468.297L394.073,468.96L394.45,469.473L394.827,470.807L395.582,472.497L396.102,473.983L396.29,475.367L395.535,477.622L394.733,477.981L394.12,479.313L394.026,482.132L394.214,483.362L395.063,484.028L395.299,485.154L395.299,486.947L395.017,487.766L394.403,488.995L394.073,490.276L393.459,491.033L393.034,492.314L392.658,495.744L392.752,496.871L393.365,497.127L394.214,496.308L394.686,495.541L395.299,495.13L395.724,495.848L395.866,497.23L396.479,498.51L397.8,498.971L399.45,499.688L400.819,499.176L401.857,498.562L402.753,497.742L404.311,497.69L405.064,497.23L405.536,496.36L406.196,496.104L407.518,496.36L408.226,497.332L408.451,498.9L408.272,499.636L407.659,500.404L408.744,502.094L408.98,503.527L408.98,505.011L408.272,505.83L407.329,506.137L406.103,505.624L404.923,504.807L403.461,504.807L402.471,505.217L400.725,505.217L399.687,505.063L398.838,504.346L396.903,505.317L395.818,505.624L395.252,504.449L395.157,502.912L393.742,502.247L392.658,502.554L391.809,503.065L391.148,503.628L389.686,504.141L385.534,504.039L382.986,503.271L381.1,502.912L378.316,501.734L375.958,500.404L374.307,498.612L373.221,497.179L373.08,495.899L372.23,494.874L371.099,494.107L368.834,494.823L367.844,495.438L363.834,495.693L362.513,496.054L360.531,496.975L359.258,496.514L357.796,495.744L356.38,495.643L354.493,496.462L353.36,498.562L351.38,499.278L350.625,499.739L350.247,500.763L349.305,501.734L347.936,501.94L346.52,502.401L345.859,503.373L345.482,504.856L344.964,505.932L342.699,505.984L341.236,506.495L340.388,507.161L339.255,508.338L338.926,509.668L338.218,510.538L337.038,511.151L336.236,511.868L335.623,512.686L334.396,512.124L333.972,511.05L333.217,510.64L332.367,510.998L331.755,512.022L331.66,514.427L331.188,515.858L330.575,516.677L329.727,516.811L327.792,516.965L326.235,516.351L325.009,515.787L324.159,515.634L323.026,515.839L322.319,516.3L320.998,516.247L319.961,515.735L319.395,514.969L316.942,514.867L316.202,514.536L316.069,513.42L316.688,513.323L316.863,512.798L316.644,512.034L315.188,510.074L315.014,509.5L315.188,508.209L315.057,507.303L315.542,506.729L315.674,505.533L315.233,505.296L315.233,503.334L315.408,501.901L316.291,501.04L316.554,500.229L316.246,500.229L315.937,500.944L315.277,501.04L315.364,499.845L315.277,498.362L315.364,497.12L315.145,496.736L315.277,496.068L315.408,494.489L316.158,492.72L316.818,491.717L316.952,490.904L317.347,490.137L317.392,489.61L317.7,488.799L318.054,488.366L318.978,486.168L319.814,485.307L320.344,484.301L321.005,483.584L321.753,483.297L322.149,483.729L322.768,483.68L322.768,483.105L320.915,482.722L320.254,482.865L319.814,482.483L319.859,481.286L320.079,479.804L319.418,479.708L318.802,479.182L318.934,478.703L319.462,478.895L319.462,479.469L320.034,479.564L320.212,479.182L320.389,477.506L320.652,476.213L321.048,475.162L322.062,475.21L322.062,474.062L321.444,474.062L321.136,473.438L320.652,473.103L321.225,471.907L320.783,471.523L320.872,470.854L321.313,470.519L321.444,469.848L321.753,469.37L322.149,469.417L323.03,467.742L322.591,467.501L322.282,468.124L321.842,468.22L321.577,467.742L322.019,467.167L322.502,466.976L322.371,466.304L322.149,466.114L321.489,466.496L320.783,466.353L320.254,466.736L319.859,467.31L319.242,466.928L319.903,466.545L320.476,465.921L320.476,465.442L321.4,465.442L321.799,464.916L323.12,463.959L323.912,463.576L324.66,463.001L325.542,462.091L326.026,462.283L326.026,462.856L326.952,463.336L327.701,463.576L327.524,464.007L328.01,464.293L328.848,463.192L329.067,463.336L330.388,463.24L330.434,462.905L329.64,462.763L329.11,462.521L329.332,462.188L330.256,462.283L331.798,462.666L332.547,462.666L333.032,461.516L333.164,460.366L334.223,460.464L334.133,461.228L334.838,461.469L335.646,461.276L335.722,461.608L336.911,461.608L339.005,462.1L340.986,462.9L345.741,462.47L349.195,462.347L351.232,461.546L358.479,461.793L360.291,461.484L360.97,460.993L361.706,461.362L362.611,462.284L363.857,462.716L367.311,463.577L372.404,466.346L382.595,466.161L386.444,467.084L393.86,468.314z"/>
		<path id="TW-CYI" title="Chiayi" class="land" d="M360.928,516.497L362.136,515.597L363.72,515.022L364.928,515.678L365.834,517.396L367.042,518.134L367.946,517.889L369.079,517.806L370.061,518.215L370.665,519.035L371.722,519.77L372.099,520.998L372.93,521.487L373.759,522.226L373.307,523.288L372.477,524.271L371.646,524.517L371.118,525.744L370.211,526.07L368.4,525.499L367.946,524.844L367.419,524.762L366.74,525.335L365.607,526.562L364.777,528.116L363.041,528.443L362.211,527.299L361.23,526.398L360.475,525.007L358.89,524.353L356.398,524.353L355.645,524.106L355.796,523.043L356.172,522.472L356.247,521.406L355.493,520.506L354.738,519.77L354.738,519.116L355.493,518.38L356.398,518.051L357.455,518.051L358.738,518.38L360.022,517.15z"/>
		<path id="TW-CYQ" title="Chiayi" class="land" d="M408.451,498.9l4.143,-0.147l1.057,0.326l1.207,0.82l1.813,0.41l1.812,0.573l2.566,0.081l1.358,0.574l0.453,1.393l0.227,4.504l-0.604,1.229l-0.83,0.655l-0.755,1.063l0.151,1.884l0.83,1.229l1.132,1.228l0.378,2.128l0.377,2.782l0.831,1.882l1.207,1.147l4.756,0.571h1.585l1.207,-0.736l2.793,-0.245l3.17,0.162l1.51,0.164l1.888,0.41h1.32l0.906,0.49l-0.303,0.899l-3.02,-0.162l-1.207,0.817l-1.66,0.492l-3.321,0.408l-1.132,1.309l-0.831,1.8l-2.868,1.636l-1.283,0.081l-1.283,0.982l-0.981,1.636l-0.452,1.718l-1.208,1.637l-1.585,2.615l-1.812,0.736l-1.358,-0.083l-0.831,0.982l-1.057,1.962l-1.057,1.422l-1.736,0.573l-2.113,0.081l-1.358,1.308l-0.453,1.471l-1.66,1.146l-1.132,1.225l-2.944,1.063l-1.434,0.981l-0.227,2.042l-1.736,0.245l-1.812,-0.245h-1.057l-0.68,-0.898l-4.227,0.163l-0.15,1.798l-0.227,1.308l-0.227,1.961l0.15,1.551l0.68,1.309l0.981,1.142l0.227,0.653l-0.378,0.817l-0.458,0.331l-0.222,0.159l-1.735,-0.163l-1.888,0.246l-0.679,0.407l-1.585,-0.163l-0.906,-0.817l-1.585,-0.163l-1.057,0.327l-1.66,2.041l-1.358,0.163h-1.359l-0.981,-1.062l-1.585,-0.57l-1.509,-0.082l-0.906,-0.245l-0.831,-0.817l0.151,-1.879l0.906,-0.571l0.377,-1.145l-0.15,-1.388l-0.303,-0.979l-0.83,-1.145l-0.075,-2.125l0.15,-1.553v-1.715l1.661,-2.697l0.227,-1.472l-0.981,-1.471l-1.208,-0.164l-2.415,-0.899l-0.452,-0.736l1.584,-1.879l-0.604,-0.655l-1.283,-0.016l-2.113,0.163l-0.453,-0.572l-0.075,-1.39l1.812,-1.391l0.378,-0.653l-0.756,-1.391l-0.905,0.491l-2.491,0.081l-1.057,-0.899l-1.509,-1.146l-0.756,-0.734l-0.83,-0.492l-1.283,-0.326l-1.811,0.98l-1.435,0.083l-0.981,-0.654l-0.906,-0.328l-1.584,0.41l-0.831,0.735l-1.434,0.409l-3.321,0.081l-1.888,0.736l-1.585,1.145l-1.057,0.655l-1.435,0.734h-1.962l-0.528,0.573l-0.377,1.145l-2.566,0.409l-0.604,0.817l-0.227,1.881l-0.453,0.898l-2.339,0.164l-0.68,0.489v1.881l-0.453,0.899l-1.963,0.408l-1.584,0.898l-1.132,1.555l-0.604,1.879l-0.604,1.063l-1.737,0.654h-1.32l-0.528,-0.164l-0.755,-0.735l-0.68,-0.082l-0.226,0.898l-0.906,0.083l-1.057,-0.899l-0.814,-1.096l-0.906,-0.947l-0.573,-0.263l-1.396,-0.391l-0.175,-0.442l-0.706,-0.811l-1.102,-0.669l-1.717,0.143l-0.927,-0.428l0.045,-1.526l0.705,-0.145l0.177,-0.381l-0.221,-0.431h-0.528l0.711,-1.753l0.513,-0.915l0.121,-0.883l1.117,-0.491l1.841,-1.046l0.182,-0.948l0.574,-1.274l0.604,-0.524l0.329,-1.088l-0.396,-1.766l-0.22,-0.335l-0.838,0.286l-0.264,0.716l-0.309,-0.237l-0.176,-0.765l-0.089,-1.908l0.132,-0.098l0.133,-1.24l-0.433,-0.559l-0.378,-0.86l0.113,-1.269v-1.268l-0.713,-0.677l-0.925,0.572l-0.353,-0.429l0.043,-0.574l0.795,-0.811l0.322,-0.049v-0.732l0.689,-1.894l0.528,-0.479l0.358,-0.669l-0.142,-0.355l-1.397,-0.573l-2.433,-0.266l-0.836,-0.763l-0.265,-0.622l-0.088,-0.954l0.045,-2.485l0.175,-0.478l0.441,-0.382h0.836l1.366,0.382l0.882,0.048l0.705,-0.269l0.74,0.331l2.452,0.102l0.566,0.767l1.037,0.512l1.321,0.053l0.707,-0.461l1.133,-0.205l0.85,0.153l1.227,0.563l1.557,0.614l1.935,-0.154l0.849,-0.134l0.613,-0.818l0.472,-1.432l0.095,-2.404l0.612,-1.024l0.85,-0.358l0.755,0.41l0.425,1.074l1.227,0.562l0.613,-0.817l0.802,-0.717l1.18,-0.613l0.708,-0.87l0.329,-1.33l1.133,-1.177l0.849,-0.666l1.463,-0.511l2.265,-0.053l0.519,-1.075l0.377,-1.483l0.66,-0.972l1.416,-0.461l1.369,-0.206l0.942,-0.972l0.378,-1.023l0.755,-0.461l1.98,-0.717l1.133,-2.1l1.887,-0.819l1.416,0.102l1.462,0.77l1.273,0.461l1.981,-0.921l1.321,-0.36l4.01,-0.256l0.99,-0.614l2.265,-0.716l1.132,0.767l0.85,1.025l0.141,1.279l1.086,1.434l1.651,1.792l2.358,1.33l2.783,1.178l1.887,0.358l2.548,0.769l4.151,0.102l1.463,-0.513l0.66,-0.563l0.85,-0.512l1.084,-0.307l1.415,0.665l0.095,1.537l0.566,1.175l1.085,-0.307l1.935,-0.972l0.849,0.717l1.038,0.154h1.746l0.99,-0.41h1.462l1.18,0.817l1.227,0.513l0.943,-0.307l0.708,-0.819v-1.483l-0.236,-1.434l-1.085,-1.689l0.613,-0.769L408.451,498.9zM360.928,516.497l-0.905,0.653l-1.284,1.229l-1.283,-0.329h-1.057l-0.905,0.329l-0.755,0.736v0.653l0.755,0.736l0.754,0.9l-0.075,1.065l-0.376,0.571l-0.151,1.063l0.754,0.246h2.491l1.585,0.654l0.756,1.392l0.98,0.9l0.83,1.145l1.736,-0.327l0.83,-1.555l1.133,-1.227l0.679,-0.573l0.527,0.082l0.454,0.655l1.811,0.571l0.907,-0.326l0.527,-1.228l0.831,-0.246l0.83,-0.982l0.452,-1.063l-0.829,-0.738l-0.831,-0.489l-0.377,-1.229l-1.057,-0.734l-0.604,-0.82l-0.981,-0.409l-1.133,0.083l-0.904,0.245l-1.208,-0.738l-0.906,-1.718l-1.208,-0.655l-1.584,0.574L360.928,516.497z"/>
		<path id="TW-TNN" title="Tainan" class="land" d="M395.719,564.388L396.611,564.864L397.215,565.805L397.215,566.784L396.423,567.682L395.781,568.865L394.837,569.888L394.497,571.602L394.309,573.03L392.535,575.03L391.591,575.961L390.799,577.003L389.949,577.369L388.647,578.533L387.572,580.187L386.779,581.288L386.383,582.756L386.327,584.348L385.874,585.326L385.647,586.796L384.515,587.896L383.893,589.121L382.251,589.365L380.156,591.812L379.251,592.119L376.363,594.626L375.627,595.055L374.778,596.034L374.212,597.563L372.684,598.848L369.627,601.11L369.061,602.211L368.382,603.251L366.627,603.434L365.834,603.985L365.834,605.27L365.721,606.309L363.569,607.837L363.399,608.998L362.947,609.731L361.843,612.445L361.446,614.157L360.201,615.319L359.918,616.174L359.918,617.701L357.88,617.701L356.861,617.215L355.729,617.092L354.427,617.215L353.182,617.946L352.672,618.742L351.596,619.78L350.86,620.819L349.954,621.552L348.822,622.041L347.181,622.103L344.916,622.041L343.445,621.613L342.03,621.492L340.671,621.063L339.029,620.819L338.293,620.269L337.388,620.574L337.047,621.247L336.425,621.613L335.179,620.819L331.84,620.819L330.424,619.169L326.745,618.68L324.961,618.131L324.226,617.701L323.489,617.519L322.51,617.485L322.105,617.628L320.915,618.531L320.608,618.388L320.695,617.01L320.915,616.011L320.915,614.25L320.432,612.3L319.64,610.776L318.978,609.683L318.934,609.256L318.615,608.836L318.405,608.162L318.096,607.875L317.347,606.685L316.158,605.4L314.219,603.641L312.589,602.023L310.342,600.166L309.857,599.976L308.977,599.309L308.272,598.976L306.553,597.882L306.201,597.548L305.32,597.119L303.997,596.786L303.602,596.5L303.911,596.073L304.131,595.023L303.602,594.643L302.853,595.31L302.059,595.643L301.487,594.928L300.958,593.883L301.135,593.55L301.927,593.55L302.368,593.264L302.325,592.786L301.883,591.597L302.378,591.358L302.325,590.979L301.707,591.217L301.398,590.263L298.976,590.311L298.843,590.979L298.227,590.692L298.05,590.215L298.271,589.548L298.314,588.883L298.623,587.406L298.536,586.215L299.459,585.499L300.782,584.644L301.267,584.214L302.146,583.69L302.941,583.404L304.483,582.548L306.197,582.404L306.464,581.681L306.42,581.214L306.642,580.594L306.29,579.212L305.486,578.695L305.033,577.797L304.694,575.594L304.354,574.735L303.788,574.41L303.448,573.716L303.562,572.287L304.131,571.832L304.66,570.684L305.32,569.635L305.409,569.206L305.936,568.062L306.157,567.299L305.936,566.823L306.157,566.393L306.29,564.725L306.316,563.491L307.435,562.818L308.492,562.628L308.845,562.152L308.845,561.53L309.55,560.91L309.77,560.386L310.65,559.958L310.342,559.527L309.946,559.479L309.989,558.194L310.562,557.572L311.136,557.525L311.929,556.715L311.826,556.181L311.071,555.689L310.166,554.955L310.015,553.933L310.827,553.138L310.827,552.565L309.902,552.422L309.902,551.851L310.253,551.42L310.871,550.229L311.269,548.892L311.399,547.795L311.664,547.7L312.678,548.51L313.823,548.606L313.999,548.464L315.364,548.081L316.554,549.035L317.127,549.964L317.347,549.907L318.742,550.298L319.315,550.561L320.222,551.508L321.036,552.604L322.093,553.503L322.999,553.42L323.225,552.521L323.904,552.604L324.659,553.339L325.188,553.503L326.508,553.503L328.245,552.849L328.849,551.786L329.453,549.907L330.585,548.353L332.169,547.454L334.132,547.046L334.585,546.146L334.585,544.266L335.265,543.776L337.604,543.612L338.057,542.714L338.283,540.833L338.888,540.016L341.454,539.606L341.831,538.462L342.359,537.889L344.321,537.889L345.756,537.154L346.813,536.499L348.397,535.354L350.285,534.618L353.606,534.537L355.04,534.128L355.871,533.393L357.455,532.982L358.361,533.311L359.343,533.965L360.777,533.882L362.588,532.901L363.871,533.228L364.701,533.72L365.457,534.454L366.966,535.6L368.022,536.499L370.514,536.418L371.419,535.927L372.175,537.317L371.797,537.971L369.985,539.361L370.061,540.751L370.514,541.323L372.627,541.16L373.91,541.176L374.514,541.831L372.93,543.71L373.382,544.446L375.797,545.346L377.005,545.51L377.986,546.98L377.76,548.452L376.099,551.149L376.099,552.864L375.948,554.417L376.023,556.542L376.854,557.687L377.156,558.666L377.307,560.054L376.93,561.198L376.023,561.77L375.872,563.648L376.703,564.466L377.609,564.711L379.118,564.793L380.703,565.363L381.685,566.425L383.044,566.425L384.402,566.262L386.063,564.221L387.119,563.894L388.704,564.057L389.61,564.874L391.195,565.037L391.874,564.63L393.762,564.384L395.497,564.547z"/>
		<path id="TW-PIF" title="Pingtung" class="land" d="M360.511,683.372l0.926,-0.119l0.642,-0.731l0.566,-0.854l0.226,-1.34l0.491,-0.976l0.227,-2.194l0.68,-2.397l0.414,-0.569l-0.188,-1.504l-1.472,-2.032h-0.792l0.037,-9.22l0.188,-2.075l0.341,-1.098l0.15,-0.977l0.642,-0.448l0.453,-0.771l0.717,-2.237l-0.038,-2.889l0.529,-0.978l0.112,-8.918l0.68,-1.954l0.981,-3.543l0.566,-3.542l1.132,-0.771l1.057,0.039l0.868,0.611l0.793,-0.04l0.904,0.569l0.718,0.732l1.773,0.083l2.076,-0.856l1.396,0.082l1.321,0.651l1.585,0.123l0.867,-0.449l0.981,-0.936l0.982,-1.343l0.489,-1.305l0.831,-0.855l2.264,-1.425l1.359,-1.059l1.207,-1.141l2.076,-0.122l1.887,-0.489l1.736,-0.121l0.981,0.448l0.604,1.1l0.302,1.589l0.905,0.568l1.17,0.082l2.453,-0.61l1.133,-0.693l0.528,-1.1l1.019,-1.303h1.02l1.85,0.163l1.32,0.326l3.51,2.158l2.793,3.788l1.057,0.977h1.133l0.754,-0.489l0.83,-0.977l0.906,-0.815l0.925,-0.366l0.943,-1.019l0.867,-0.773l1.586,-0.162l1.057,0.406l0.604,0.692l0.793,0.447l1.32,-0.487l1.888,1.343l0.021,0.11l0.582,2.944l-0.037,1.872l0.415,0.855l1.358,0.813l1.962,0.123l1.058,0.733l0.49,0.773v3.418l0.415,0.652l-0.604,0.732l-0.34,1.179v3.134l-0.528,1.344l-0.528,0.814l-0.113,1.667l-0.491,0.936l-0.679,0.569h-5.038l-0.868,0.732l-0.943,2.156l-0.642,0.813l-1.208,0.365l-1.472,0.205l-0.68,0.364l-1.698,0.529l-1.207,-0.121l-0.642,0.528v0.886l-0.378,0.651l-0.717,0.814l-0.528,1.868l-0.831,1.099l-0.528,0.976l-1.057,1.383l-0.188,0.977l-0.415,1.097l-0.717,0.773l-0.717,1.179v3.09l-0.643,0.689l-0.453,0.936l0.303,0.935l0.075,0.894l-1.057,2.316l-0.453,1.138l-0.188,1.131l0.566,1.097l0.491,0.568l0.604,1.179l0.188,1.665l1.283,2.112l0.49,1.139l0.038,1.988l-0.265,1.056l-0.943,0.65l-0.642,0.934l0.151,1.383l0.415,0.812l-0.113,0.893l0.642,0.771l0.755,0.326l0.905,0.934l0.68,1.054l1.773,1.868l0.34,1.259l0.452,0.561l-0.414,0.73l-0.793,0.813l-1.887,0.162l-1.133,0.405l-0.489,0.974l-0.303,1.34l-0.415,0.934l-0.642,1.988l-0.491,0.771l0.038,1.258l0.906,0.648l0.868,0.812l1.019,1.097l1.735,0.77l0.944,0.041l0.528,0.933l1.509,1.38l0.189,1.825l-0.038,1.582l-0.717,0.607l-0.868,0.527l-0.264,0.608l0.527,0.813l0.68,0.356l0.868,0.812l0.793,0.932l0.453,1.056l-0.83,1.541l0.075,1.337l0.943,0.365h1.358l2.49,1.298l0.567,0.811l0.679,0.486l1.472,0.203l1.095,0.242l0.905,0.69l0.717,0.851l0.756,0.649l1.057,-0.122l0.755,-0.607l1.019,-0.569l1.02,-0.08l0.561,-0.163l0.178,0.394v1.136l-0.397,0.522l-0.351,0.849l-0.045,0.949l0.22,1.088l0.22,0.377l-0.089,1.185l-0.924,0.992v0.758l0.22,0.521l-0.043,1.088l0.352,0.946v0.897l-0.352,0.758l0.043,0.757l0.354,0.425v0.994l-0.354,0.899l0.704,0.661l0.045,0.566l-0.265,0.381l-1.41,1.04l-0.086,0.614l0.086,0.803l0.617,2.033l0.441,0.568l0.44,0.048l1.014,0.519l-0.44,0.567l-0.089,1.371l-0.484,0.71l-0.573,0.613l-0.043,1.845l0.307,0.615l-0.043,1.229l0.088,0.519v2.268l0.618,1.372l0.308,0.379l0.132,0.707l-0.484,0.236l-1.146,0.945l-0.308,0.426v1.276l-0.837,0.612l-0.838,0.236v1.419l-0.221,0.661l-1.497,0.709l-0.617,0.474l-1.364,0.612h-0.927l-0.529,0.426l-0.131,1.228l0.353,0.331l-0.044,0.897l-0.573,1.511l-0.178,0.756l0.09,1.229l0.396,1.56l0.705,1.132l-0.044,0.425l0.792,0.615l0.838,1.32v0.236l0.528,0.851l-0.087,1.274l0.528,0.897l0.395,0.331l-0.309,0.377L429.563,792h-1.323l-0.704,-0.613l-0.309,-1.039l-0.088,-1.417l-0.882,0.049l-1.014,-0.71l-0.308,-0.896l-1.278,-1.182l-0.44,-0.802l-0.881,0.331l-0.969,-0.096l-0.528,-0.521l-0.133,-0.563l-0.309,-0.049l-0.177,0.612l-0.617,-0.045l-0.086,-0.898l-0.837,-0.33l-1.543,0.094l-0.353,-0.234l-0.44,-0.615l-0.485,-0.095l-0.704,-0.425l-0.529,-0.991l-0.441,-0.236l-0.572,0.048l-0.177,0.331l-0.439,0.094l-0.133,0.471l-0.969,0.379l-0.352,0.473l-0.31,0.944l0.044,0.85l0.22,0.425l-0.044,0.757h-0.307l-0.266,0.519l-0.484,0.235l-0.045,1.229l-1.938,0.331l-0.483,-0.283l-0.97,-1.464l0.044,-0.898l-0.308,-0.283l-0.838,0.237l-0.265,-0.661v-1.039l0.22,-0.614l0.045,-1.463l0.089,-0.143l-0.045,-1.512l0.529,-0.991v-0.993l-0.484,-1.182l-0.707,-0.66v-0.425l-0.307,-0.71l-0.661,-0.188l-0.925,-0.993l-0.573,-1.275l-0.043,-0.474l-0.31,-0.282l-0.484,-1.181l-0.264,-0.897l0.087,-0.852l0.31,-0.661l0.396,-0.473l0.925,-0.52l-0.265,-1.513l0.529,-1.086l1.057,0.046l0.354,-0.567l0.133,-0.71l-0.089,-0.803l-0.704,-2.222l-0.354,-0.379l0.265,-0.424l0.396,-0.189l0.706,-0.047l1.322,-0.993l-0.177,-0.756l-0.132,-1.514l-0.396,-0.472l-0.133,-1.041l-0.439,-0.757l0.131,-0.708l-0.354,-0.238l-0.22,-0.566l-0.439,-0.142l-0.309,-0.566l0.176,-0.567l-0.793,-0.758l-0.045,-0.711l0.441,-0.849l-0.661,-0.993l-0.043,-0.615l0.132,-0.711l-0.485,-1.277l-0.132,-1.466l-0.792,-1.845l-0.44,-0.473l-0.222,-1.278l0.396,-0.709v-0.567l-0.969,-1.704l-0.22,-0.046l-0.529,-1.28l-0.044,-0.613l-0.66,-1.137l-1.498,-1.608l-0.881,-0.758l-0.927,-0.614l-0.132,-0.331l0.176,-1.374l0.265,-0.332v-0.567l-0.309,-0.521l-0.309,-1.041l-0.132,-0.805l-0.528,-0.853l-0.133,-0.614l-0.043,-1.896l-0.264,-0.568l-0.531,-0.615l-0.22,-0.663l-1.761,-1.94l-0.97,-0.947l-1.103,-0.805l-0.881,-0.901l-0.704,-1.372l-0.266,-0.995l-0.571,-0.664l-0.132,-0.377l-0.528,-0.189l-0.221,-0.712l-0.617,-0.806l-0.572,-0.33l-0.529,-0.521l-3.614,-2.653l-0.969,-0.521l-0.439,-0.475l-0.441,-0.096l-1.013,-0.662l-0.705,-0.284l-0.75,-0.521l-3.524,-1.754l-0.44,-0.379l-1.673,-0.948l-0.353,-0.284l-1.367,-0.568l-1.85,-1.091l-2.556,-1.895l-0.661,-0.333l-0.924,-1.138l-0.926,-0.994l-0.573,-0.948l0.573,-0.475h0.661l-0.353,-0.521h-0.397l-0.838,0.616l-0.22,-0.994l-1.224,-0.617v-8.821L360.511,683.372zM354.396,713.557l0.509,0.79l0.227,0.915l-0.623,0.547l-0.962,0.305l-1.528,1.703l-0.566,0.853l-0.68,0.729l-1.415,-0.061l-0.283,-0.975l0.51,-0.911l0.623,-0.608l0.113,-0.914l0.623,-1.277l0.679,-0.853l0.736,-0.485l1.132,0.06L354.396,713.557z"/>
		<path id="TW-KHH" title="Kaohsiung" class="land" d="M430.164,629.389L430.143,629.278L428.255,627.936L426.935,628.423L426.142,627.976L425.538,627.283L424.481,626.877L422.896,627.039L422.028,627.813L421.085,628.831L420.16,629.197L419.254,630.013L418.424,630.989L417.67,631.479L416.537,631.479L415.48,630.502L412.688,626.714L409.178,624.556L407.857,624.229L406.008,624.066L404.988,624.066L403.97,625.369L403.441,626.469L402.309,627.162L399.855,627.772L398.686,627.69L397.78,627.122L397.479,625.533L396.875,624.434L395.894,623.985L394.157,624.106L392.271,624.596L390.194,624.718L388.987,625.858L387.628,626.917L385.364,628.342L384.533,629.197L384.044,630.502L383.062,631.845L382.08,632.78L381.213,633.229L379.628,633.106L378.307,632.455L376.91,632.373L374.834,633.229L373.061,633.146L372.343,632.414L371.438,631.845L370.646,631.885L369.777,631.273L368.721,631.234L367.589,632.006L367.022,635.548L366.041,639.091L365.361,641.045L365.249,649.963L364.72,650.94L364.758,653.829L364.041,656.066L363.588,656.838L362.946,657.286L362.796,658.263L362.455,659.36L362.267,661.436L362.229,670.655L363.021,670.655L364.493,672.688L364.682,674.191L364.268,674.761L363.588,677.158L363.361,679.353L362.87,680.328L362.645,681.668L362.078,682.521L361.437,683.253L360.511,683.372L359.758,683.374L359.31,684.008L359.192,692.938L358.85,693.316L358.277,693.365L357.616,693.176L356.074,692.415L354.355,691.136L352.947,690.236L351.096,688.765L350.347,688.006L349.818,688.15L349.554,687.485L348.63,686.441L348.232,686.301L348.232,685.777L347.66,685.446L347.395,684.83L346.602,684.308L346.162,683.643L345.633,683.643L344.84,682.743L344.003,682.079L343.782,682.079L342.988,681.271L341.976,681.081L341.553,680.53L341.825,679.262L341.251,678.059L339.711,676.498L337.508,673.896L335.243,670.418L335.062,669.085L335.103,668.7L334.485,668.178L334.794,667.892L334.353,666.754L333.516,665.995L333.164,664.997L332.9,664.76L332.68,663.955L332.592,662.387L332.767,661.485L333.032,661.012L333.649,660.345L334.089,660.3L334.926,659.539L334.882,657.26L335.19,656.69L335.411,657.45L335.454,658.162L335.939,658.162L336.203,657.64L336.071,657.021L336.248,656.215L335.983,655.503L335.983,654.934L336.513,654.744L336.513,653.938L335.72,653.461L334.484,654.642L333.561,652.796L333.561,652.228L333.121,650.896L332.723,650.612L332.592,650.088L332.018,649.044L331.798,648.189L331.05,646.526L330.521,645.768L330.478,645.291L330.124,644.912L329.904,644.104L329.11,642.298L327.833,639.069L326.775,636.645L326.026,636.883L325.189,636.692L325.058,635.74L325.807,635.646L326.159,635.313L324.793,630.894L324.529,630.561L324.132,629.42L323.691,627.519L324.486,627.519L325.189,627.803L325.852,627.042L325.938,625.808L326.38,625.521L326.511,624.476L325.675,624.476L325.146,624.903L325.278,625.521L324.97,625.616L325.189,626.615L324.44,626.899L324.132,625.808L323.648,625.949L324.001,627.042L323.604,626.997L323.163,625.902L323.03,625.141L322.502,623.667L321.136,620.195L320.872,618.911L321.444,618.294L322.51,617.485L323.489,617.519L324.226,617.701L324.961,618.131L326.745,618.68L330.424,619.169L331.84,620.819L335.179,620.819L336.425,621.613L337.047,621.247L337.388,620.574L338.293,620.269L339.029,620.819L340.671,621.063L342.03,621.492L343.445,621.613L344.916,622.041L347.181,622.103L348.822,622.041L349.954,621.552L350.86,620.819L351.596,619.78L352.672,618.742L353.182,617.946L354.427,617.215L355.729,617.092L356.861,617.215L357.88,617.701L359.918,617.701L359.918,616.174L360.201,615.319L361.446,614.157L361.843,612.445L362.947,609.731L363.399,608.998L363.569,607.837L365.721,606.309L365.834,605.27L365.834,603.985L366.627,603.434L368.382,603.251L369.061,602.211L369.627,601.11L372.684,598.848L374.212,597.563L374.778,596.034L375.627,595.055L376.363,594.626L379.251,592.119L380.156,591.812L382.251,589.365L383.893,589.121L384.515,587.896L385.647,586.796L385.874,585.326L386.327,584.348L386.383,582.756L386.779,581.288L387.572,580.187L388.647,578.533L389.949,577.369L390.799,577.003L391.591,575.961L392.535,575.03L394.309,573.03L394.497,571.602L394.837,569.888L395.781,568.865L396.423,567.682L397.215,566.784L397.215,565.805L396.611,564.864L395.719,564.388L396.177,564.057L396.555,563.239L396.328,562.586L395.347,561.444L394.667,560.136L394.517,558.585L394.743,556.624L394.97,555.316L395.12,553.519L399.347,553.355L400.026,554.254L401.083,554.254L402.895,554.499L404.631,554.254L404.857,552.212L406.291,551.23L409.235,550.168L410.367,548.943L412.027,547.797L412.48,546.326L413.839,545.019L415.952,544.938L417.688,544.364L418.745,542.942L419.802,540.98L420.633,539.998L421.991,540.081L423.803,539.345L425.388,536.729L426.596,535.093L427.048,533.375L428.029,531.739L429.313,530.757L430.596,530.676L433.464,529.04L434.295,527.24L435.427,525.932L438.748,525.523L440.408,525.031L441.615,524.214L444.635,524.376L444.913,523.548L448.657,523.752L450.091,524.488L451.714,525.225L453.111,526.247L453.413,528.005L453.979,528.946L454.432,530.084L455.488,530.248L455.941,531.597L455.715,534.909L454.658,535.523L452.544,536.341L451.903,537.526L451.035,538.875L450.167,539.406L449.412,541.615L450.091,542.063L451.487,542.636L452.544,543.536L454.205,544.271L455.866,545.416L457.752,546.887L459.111,547.868L459.413,549.135L459.262,550.851L458.93,551.173L458.546,551.545L456.96,552.157L455.3,552.976L453.563,554.037L451.865,554.92L449.714,555.451L448.091,555.942L446.62,555.982L445.864,556.922L444.394,559.292L442.656,560.68L441.6,561.905L440.656,562.396L439.298,562.6L438.43,563.171L437.638,563.865L437.41,564.642L437.788,565.336L437.902,566.724L437.335,567.907L437.335,570.864L437.788,571.518L437.751,572.293L437.184,573.027L436.165,573.64L435.713,574.66L433.637,576.824L433.75,588.6L433.033,589.865L431.825,591.535L431.297,592.761L431.41,593.536L432.015,594.229L432.919,595.819L433.033,596.757L432.543,597.613L430.73,598.715L429.787,599.367L429.335,601.487L428.769,602.261L428.014,603.605L426.919,604.829L425.9,606.176L424.881,607.643L423.975,608.783L423.447,609.64L423.447,614.48L424.051,615.459L424.504,616.803L424.654,619.328L425.599,622.63L426.504,623.362L427.862,623.484L429.372,623.852L430.466,624.869L430.844,626.132L430.769,628.454z"/>
		<path id="TW-TTT" title="Taitung" class="land" d="M529.354,530.889l-0.266,0.918l-0.439,1.1l-0.309,0.332l-0.133,1.242l-0.264,0.479v0.715h-0.439l-0.311,0.573v0.811l-0.265,0.097l-0.219,1.717l-0.264,0.907l-0.046,0.716l0.222,0.524v0.717l-0.354,0.668l0.133,0.715l-0.308,0.335l-0.397,1.05l0.044,2.244l-0.265,0.57v1.146l-0.396,0.428l-0.219,0.525v0.715l-1.146,-0.19l-0.663,0.287l-0.703,0.619l-1.984,3.006l-0.044,0.571l-0.572,0.429l-0.485,1.384l0.179,0.715l-0.134,1.289l-0.66,0.286l-0.528,1.573v0.858l-0.441,2.193l-0.266,0.237l-0.142,0.674l0.099,0.471l0.529,-0.095l0.353,0.666l-0.927,1.049l-0.615,0.906l-0.397,0.238l-0.791,-0.048l-0.178,0.525l-0.617,0.333l-0.396,1.335l0.044,0.905l0.264,0.524l0.089,1.19l0.265,0.574l0.616,0.713l-0.133,0.859l0.662,0.521l0.131,1.003l-0.175,0.19l-0.132,0.857l-0.354,0.858l-0.616,0.381l-0.133,0.427l0.088,0.67l-0.22,1.046l0.22,0.191l0.309,1.143l0.44,0.477l0.572,0.335l0.618,0.142l0.044,0.286l-1.189,1.382l-0.661,0.143l-0.662,-0.479l-0.308,0.525v0.382l-0.97,0.999l-0.352,1.334l-0.264,0.239l-1.189,0.095l-0.308,-0.144h-1.323l-0.572,0.523l-0.705,1.048v0.905l-0.528,0.43l0.353,1.046l-0.617,0.239l-0.705,0.571l-0.178,0.522l-0.087,0.953l-0.177,0.334v1.284l-0.307,0.238l0.042,0.62l-0.307,0.57l-0.573,1.428l-0.09,0.904l0.178,0.239l-0.573,0.428l0.132,0.667l-0.351,0.57l-0.529,0.049l-0.44,0.286l0.044,0.901l-0.441,0.764l-0.439,0.142l-0.354,1.381l0.266,0.285l-0.221,1.047l-0.484,0.569l-0.221,0.906l-0.44,0.428v0.477l-0.66,0.855l-0.352,0.048l-0.529,0.762l-0.572,0.522l-0.09,0.524l-1.188,0.904l-0.617,0.046l-0.396,0.715l-0.572,0.286l-0.485,1.188l-0.176,0.762l-0.132,1.284l-0.528,0.333l-0.046,0.666l-0.352,0.522l0.045,0.429l-0.485,0.57l-0.089,0.476l-0.837,0.571l-0.396,0.571l-0.131,1.045l-0.618,0.477l-0.176,0.807l-0.309,0.668l-0.704,1.045l-0.265,0.143l-0.749,-0.049l-0.572,0.572l-0.441,0.951l0.177,0.619l-0.177,0.379l-0.66,0.285l-0.794,-0.57l-0.793,0.142l-0.133,0.381l-0.925,-0.048l-0.396,0.238l-0.749,-0.143l-0.134,0.476l-0.969,0.476l-0.264,0.476l-0.749,0.522l-0.705,0.904l0.088,0.808l-0.22,0.95l-0.485,0.618v0.523l0.264,0.379l0.662,0.332l-0.089,0.334l0.308,0.95l0.31,0.38l0.22,0.903l0.397,0.951l0.264,1.092v0.81l-1.19,0.901l-0.702,-0.381l-0.839,0.713l-0.483,0.763l-0.045,0.854l-0.353,1.473l-0.353,0.428l-0.484,0.141l0.176,0.856l0.616,-0.332l-0.572,1.094l-1.587,1.139l-0.881,0.191l-1.277,1.188l-3.789,4.037l-0.882,0.664l-0.748,0.143l-1.806,1.14l-0.44,0.379h-0.882l-0.925,0.333l-0.527,0.381l-1.323,0.711l-0.836,0.713l-0.396,0.096l-1.939,2.089l-0.617,0.475l-2.291,0.95l-1.234,0.854l-1.057,1.378l-0.704,1.518l-0.838,2.137l-0.264,1.187l-0.572,2.087l-0.354,3.418l0.089,1.187l-0.133,0.379l-0.618,0.522l-0.703,0.899l-0.44,0.144l-0.794,0.807l-0.484,0.284l-0.794,0.808l-0.529,0.758l-0.482,1.139l-0.221,0.806l-0.309,0.617l-0.439,1.661l-0.793,2.322v0.333l-0.706,1.661l-0.088,0.473l-0.44,0.901l-0.177,1.232l-0.484,1.279l-0.528,2.229l-0.309,0.899l-0.309,1.612L443,696.304l-0.088,0.711l-0.838,1.848l-0.088,0.476l-0.661,1.656l-0.176,0.76l-0.572,1.421l-0.705,1.043l-0.529,1.469l-0.221,1.186l-0.483,0.946l-0.353,0.379l-0.485,1.421l-0.088,0.854l-0.53,1.61l-0.086,1.231l-0.97,0.899l-0.133,0.662l-0.661,1.278l-0.22,0.902l-0.22,0.236l-0.396,1.751l-0.133,2.132v1.324l-0.087,0.947v3.268l0.132,1.183l0.044,1.42l0.221,0.853v0.569l0.265,1.04v1.137l0.351,0.788l-0.561,0.163l-1.02,0.08l-1.019,0.569l-0.755,0.607l-1.057,0.122l-0.756,-0.649l-0.717,-0.851l-0.905,-0.69l-1.095,-0.242l-1.472,-0.203l-0.679,-0.486l-0.567,-0.811l-2.49,-1.298h-1.358l-0.943,-0.365l-0.075,-1.337l0.83,-1.541l-0.453,-1.056l-0.793,-0.932l-0.868,-0.812l-0.68,-0.356l-0.527,-0.813l0.264,-0.608l0.868,-0.527l0.717,-0.607l0.038,-1.582l-0.189,-1.825l-1.509,-1.38l-0.528,-0.933l-0.944,-0.041l-1.735,-0.77l-1.019,-1.097l-0.868,-0.812l-0.906,-0.648l-0.038,-1.258l0.491,-0.771l0.642,-1.988l0.415,-0.934l0.303,-1.34l0.489,-0.974l1.133,-0.405l1.887,-0.162l0.793,-0.813l0.414,-0.73l-0.452,-0.561l-0.34,-1.259l-1.773,-1.868l-0.68,-1.054l-0.905,-0.934l-0.755,-0.326l-0.642,-0.771l0.113,-0.893l-0.415,-0.812l-0.151,-1.383l0.642,-0.934l0.943,-0.65l0.265,-1.056l-0.038,-1.988l-0.49,-1.139l-1.283,-2.112l-0.188,-1.665l-0.604,-1.179l-0.491,-0.568l-0.566,-1.097l0.188,-1.131l0.453,-1.138l1.057,-2.316l-0.075,-0.894l-0.303,-0.935l0.453,-0.936l0.643,-0.689v-3.09l0.717,-1.179l0.717,-0.773l0.415,-1.097l0.188,-0.977l1.057,-1.383l0.528,-0.976l0.831,-1.099l0.528,-1.868l0.717,-0.814l0.378,-0.651v-0.886l0.642,-0.528l1.207,0.121l1.698,-0.529l0.68,-0.364l1.472,-0.205l1.208,-0.365l0.642,-0.813l0.943,-2.156l0.868,-0.732h5.038l0.679,-0.569l0.491,-0.936l0.113,-1.667l0.528,-0.814l0.528,-1.344v-3.134l0.34,-1.179l0.604,-0.732l-0.415,-0.652v-3.418l-0.49,-0.773l-1.058,-0.733l-1.962,-0.123l-1.358,-0.813l-0.415,-0.855l0.037,-1.872l-0.582,-2.944l0.604,-0.935l0.075,-2.322l-0.378,-1.263l-1.094,-1.018l-1.51,-0.367l-1.358,-0.122l-0.905,-0.732l-0.944,-3.302l-0.15,-2.525l-0.453,-1.344l-0.604,-0.979v-4.841l0.527,-0.856l0.906,-1.141l1.02,-1.467l1.019,-1.347l1.095,-1.224l0.755,-1.345l0.566,-0.773l0.452,-2.12l0.943,-0.652l1.813,-1.102l0.49,-0.856l-0.114,-0.938l-0.904,-1.591l-0.604,-0.692l-0.113,-0.775l0.528,-1.226l1.208,-1.67l0.717,-1.266l-0.113,-11.775l2.076,-2.164l0.452,-1.021l1.019,-0.612l0.567,-0.734l0.037,-0.775l-0.453,-0.653v-2.957l0.567,-1.184l-0.114,-1.388l-0.378,-0.694l0.228,-0.776l0.792,-0.694l0.868,-0.571l1.358,-0.204l0.943,-0.49l1.057,-1.226l1.737,-1.388l1.471,-2.37l0.756,-0.939l1.471,-0.04l1.623,-0.491l2.151,-0.531l1.698,-0.883l1.736,-1.062l1.66,-0.818l1.586,-0.612l0.384,-0.372l0.653,0.645l0.377,1.43l0.708,0.868l0.565,1.021l-0.047,2.094l0.52,1.735l1.792,3.37l1.18,1.072l1.792,0.306l1.794,0.868l1.84,0.562l1.556,0.971l0.897,1.071l0.612,1.379l1.038,0.61l1.272,0.51l0.804,-0.305l0.99,-0.868l0.896,-0.612h1.369l0.519,0.665l1.321,0.714l0.707,1.529l0.756,0.623l-0.048,1.838l0.33,1.785l1.037,0.664l0.85,0.918l0.378,1.735l0.354,0.662l1.367,0.612l1.511,1.377l3.35,0.868l0.802,0.715l0.566,1.477l0.235,1.837l0.802,0.611l1.179,0.104l0.897,-0.816l0.802,-0.357l2.642,-0.102l1.181,-0.611l0.848,-0.613l0.143,-9.437l0.565,-1.092l1.463,-1.379l0.99,-1.479l0.613,-1.481l1.18,-4.031l0.756,-1.275l0.471,-1.123l0.66,-1.124l0.236,-1.685l0.376,-1.38l1.228,-0.815l0.942,-0.971l0.048,-3.013l0.284,-1.532l1.037,-0.92l0.661,-0.766l0.754,-1.849l1.368,-1.788l1.227,-1.891l1.274,-2.351l-0.189,-0.868l-2.028,-1.175l-0.236,-1.737l0.378,-1.482l0.802,-2.3l1.462,-2.607l0.661,-1.586l0.943,-1.073l1.415,-0.459l0.614,-0.664l1.981,-0.358l3.065,0.512l0.943,0.97l1.038,0.614L529.354,530.889zM547.024,771.338v0.81l-0.519,0.201l-0.567,1.368l-0.566,0.809l-1.084,-0.202l-0.614,-0.557l-1.509,-0.05l-0.944,-1.014l-0.141,-0.708l-0.565,-0.505l-0.425,-0.759l-3.114,-0.204l-0.661,-0.455l-0.565,-0.858l-0.85,-1.063l-0.565,-0.405l-0.85,-0.304l-0.896,-0.607l-0.565,-0.505v-4.101l-0.378,-0.656l-0.518,-0.507l-0.284,-0.658l0.33,-0.556l0.756,0.05l0.377,0.456l9.575,-0.152l0.425,0.81l-0.376,0.86l0.943,1.822v1.113l-1.228,-0.051v2.074l0.896,1.266l0.943,0.91l1.981,1.317l0.99,0.504L547.024,771.338zM532.077,667.052l-0.453,0.487l-0.905,-0.243l-0.453,-0.406l-0.529,-0.732l-0.904,-0.569l-0.982,-0.082l-0.604,-0.568v-2.847l-1.434,-0.976l0.151,-1.463l1.584,-0.082l0.906,-0.488h1.207l0.453,0.488l2.114,0.082l0.604,0.568l0.377,1.464l-0.074,1.301l-0.604,0.488l-0.302,0.976l-0.379,0.325l-0.678,1.464l0.754,0.244L532.077,667.052z"/>
		<path id="TW-NAN" title="Nantou" class="land" d="M505.892,393.15L506.053,394.087L506.73,394.766L506.788,396.309L506.222,396.988L503.788,397.297L502.938,397.79L502.146,398.407L501.354,399.642L499.259,401L497.787,401.493L497.051,402.912L496.315,404.825L496.315,407.046L496.824,408.402L498.297,408.835L499.315,409.636L500.165,411.117L500.617,412.042L501.863,412.104L502.656,413.091L502.656,415.298L502.316,416.533L501.636,417.765L499.599,419.492L498.637,420.6L497.277,421.402L496.654,422.82L496.541,425.842L496.315,427.319L495.522,428.491L493.428,432.805L493.542,434.715L494.446,435.331L494.843,436.626L494.73,443.77L495.014,444.584L495.579,445.507L495.409,446.493L494.617,447.046L493.599,448.155L493.258,449.017L494.277,450.986L494.164,452.525L493.484,453.327L492.013,453.942L491.447,454.927L490.541,457.389L489.522,458.559L489.238,461.204L488.899,463.358L487.031,465.205L487.597,466.805L487.54,468.219L487.087,468.773L486.182,469.449L485.106,469.634L484.313,470.68L484.2,471.972L484.71,472.648L486.012,473.201L487.427,474.801L488.105,475.846L488.164,477.322L488.56,478.306L489.408,479.474L489.466,483.495L489.069,485.094L488.39,487.121L488.051,489.887L487.483,492.283L487.087,495.235L486.69,497.63L485.729,499.412L484.881,500.64L483.635,500.765L482.333,500.765L481.087,501.809L479.757,502.668L478.851,502.976L477.719,502.729L476.36,502.851L475.793,503.221L475.793,503.834L476.191,504.449L476.87,506.107L476.926,506.721L476.021,507.336L475.681,508.072L475.342,509.178L475.342,513.364L474.04,513.734L472.851,514.776L471.662,515.146L470.698,514.716L469.001,513.673L467.756,513.795L466.228,514.164L465.435,514.471L464.245,514.471L463.51,514.654L462.718,515.33L462.321,516.497L461.925,517.294L460.962,517.908L460.226,519.013L459.604,520.24L459.377,521.283L458.697,521.713L458.642,522.388L459.264,522.94L459.943,523.8L459.999,525.026L459.717,525.948L458.811,526.255L458.528,526.623L457.792,526.868L457.056,527.419L456.094,527.911L455.018,528.033L454.396,528.401L453.976,528.941L453.413,528.005L453.111,526.247L451.714,525.225L450.091,524.488L448.657,523.752L444.913,523.548L444.938,523.477L444.031,522.986L442.711,522.986L440.823,522.576L439.313,522.412L436.144,522.25L433.351,522.495L432.144,523.231L430.559,523.231L425.803,522.66L424.596,521.513L423.765,519.631L423.388,516.849L423.01,514.721L421.878,513.493L421.048,512.265L420.896,510.381L421.651,509.318L422.481,508.663L423.086,507.435L422.859,502.931L422.406,501.538L421.048,500.964L418.481,500.883L416.67,500.31L414.857,499.899L413.65,499.079L412.594,498.753L408.451,498.9L408.226,497.332L407.518,496.36L406.196,496.104L405.536,496.36L405.064,497.23L404.311,497.69L402.753,497.742L401.857,498.562L400.819,499.176L399.45,499.688L397.8,498.971L396.479,498.51L395.866,497.23L395.724,495.848L395.299,495.13L394.686,495.541L394.214,496.308L393.365,497.127L392.752,496.871L392.658,495.744L393.034,492.314L393.459,491.033L394.073,490.276L394.403,488.995L395.017,487.766L395.299,486.947L395.299,485.154L395.063,484.028L394.214,483.362L394.026,482.132L394.12,479.313L394.733,477.981L395.535,477.622L396.29,475.367L396.102,473.983L395.582,472.497L394.827,470.807L394.45,469.473L394.073,468.96L394.034,468.297L396.86,468.007L398.785,467.575L400.144,466.407L400.54,464.438L399.804,463.455L398.672,463.7L397.483,464.377L395.897,464.069L394.936,463.392L392.841,461.115L391.879,460.193L391.313,458.593L391.652,458.224L391.539,457.115L391.086,455.454L392.219,453.484L392.559,451.698L393.012,450.221L393.294,448.496L393.407,447.399L393.407,442.474L392.841,441.488L392.898,440.687L393.464,439.396L394.482,438.717L395.332,437.608L395.672,435.329L395.05,433.787L394.482,433.172L393.917,431.632L394.144,430.399L395.672,430.522L398.106,430.337L398.898,430.153L398.997,428.826L399.893,429.43L401.591,430.106L403.289,430.908L404.704,431.155L408.554,431.155L410.309,431.462L411.668,431.832L412.856,431.278L414.215,430.785L415.178,430.045L416.252,428.566L417.498,427.581L417.895,426.349L418.518,424.744L418.744,423.635L419.763,421.416L421.574,419.998L422.763,419.875L423.612,419.32L424.064,417.717L424.121,416.175L424.461,414.51L425.253,413.894L425.706,412.783L425.933,411.797L426.556,410.934L427.744,410.626L428.594,411.304L429.33,412.104L430.405,412.29L431.424,412.721L432.047,413.586L432.217,415.436L432.556,416.423L433.123,416.237L433.858,415.251L434.198,414.633L434.198,412.97L434.481,411.982L435.443,411.92L435.727,412.721L436.688,413.4L437.991,413.647L439.236,413.586L440.255,413.092L441.274,411.982L442.916,410.934L444.161,410.377L445.181,410.439L446.256,411.242L447.331,411.427L449.087,411.181L450.332,410.501L451.237,409.761L451.747,408.651L452.37,406.183L452.766,405.259L453.445,404.938L456.39,404.814L459.786,404.999L461.314,404.629L462.334,403.58L463.521,402.593L465.164,400.804L465.957,399.692L466.466,398.458L467.032,397.779L469.013,397.779L472.239,397.718L473.372,397.347L474.051,396.174L474.335,395.495L475.014,394.57L475.862,394.446L476.826,394.076L477.363,393.397L478.213,393.273L479.854,394.508L481.325,394.94L481.949,394.508L482.458,393.952L483.024,393.706L485.119,393.026L486.591,393.212L488.175,393.767L489.931,393.644L490.667,392.718L491.119,391.668L491.289,390.558L492.138,389.507L493.101,389.446L493.95,390.249L494.969,391.483L496.157,391.792L497.8,392.039L498.818,391.606L500.233,391.236L501.252,391.545L502.441,392.347L503.348,392.347L504.876,393.15z"/>
	</g>
</svg>