<?xml version="1.0" encoding="utf-8"?>
<!-- (c) ammap.com | SVG map of Taiwan - High -->
<svg xmlns="http://www.w3.org/2000/svg" xmlns:amcharts="http://amcharts.com/ammap" xmlns:xlink="http://www.w3.org/1999/xlink" version="1.1">
	<defs>
		<style type="text/css">
			.land
			{
				fill: #CCCCCC;
				fill-opacity: 1;
				stroke:white;
				stroke-opacity: 1;
				stroke-width:0.5;
			}
		</style>

		<amcharts:ammap projection="mercator" leftLongitude="116.711860" topLatitude="26.383688" rightLongitude="123.493428" bottomLatitude="20.586220"></amcharts:ammap>

		<!-- All areas are listed in the line below. You can use this list in your script. -->
		<!--{id:"TW-6724655"},{id:"TW-1676511"},{id:"TW-PEN"},{id:"TW-TTT"},{id:"TW-YUN"},{id:"TW-TXQ"},{id:"TW-NAN"},{id:"TW-HUA"},{id:"TW-CYI"},{id:"TW-CYQ"},{id:"TW-CHA"},{id:"TW-TAO"},{id:"TW-TPQ"},{id:"TW-TPE"},{id:"TW-MIA"},{id:"TW-KEE"},{id:"TW-ILA"},{id:"TW-HSZ"},{id:"TW-HSQ"},{id:"TW-TNQ"},{id:"TW-PIF"},{id:"TW-KHQ"}-->

	</defs>
	<g>
		<path id="TW-6724655" title="Lienchiang" class="land" d="M-1.2,-3251.55L-1.2,-3251.55L-1.28,-3250.5L-2.19,-3249.56L-2.98,-3249.18L-4.04,-3248.61L-2.92,-3251.21L-1.78,-3250.96L-1.71,-3251.39L-1.2,-3251.55zM-6.64,-3251.96L-6.64,-3251.96L-7.57,-3250.96L-8.63,-3252.54L-7.01,-3253.11L-5.75,-3252.46L-6.64,-3251.96zM-8.1,-3277.18L-8.1,-3277.18L-7.63,-3276.95L-5.6,-3278.13L-4.35,-3278.14L-4.32,-3277.28L-5.62,-3275.82L-8.14,-3274.5L-8.91,-3274.38L-10.07,-3275.16L-10.42,-3276.26L-10.2,-3277.53L-9.72,-3278.46L-9.23,-3278.53L-9.25,-3277.91L-9.12,-3277.54L-8.1,-3277.18zM1.71,-3285.33L1.71,-3285.33L1.61,-3284.78L1.44,-3284.31L1.67,-3283.78L1.63,-3283.37L1.04,-3283.89L0.37,-3284.86L-0.14,-3285.2L-1.22,-3284.62L-1.67,-3284.8L-2.26,-3284.64L-2.94,-3283.89L-3.5,-3281.56L-4,-3281.88L-4.22,-3282.59L-4.01,-3284.56L-3.78,-3285.3L-3.25,-3285.62L-2.05,-3286.01L-1.73,-3286.43L-0.72,-3287.04L0.43,-3286.87L1.04,-3285.96L1.44,-3285.72L1.71,-3285.33zM61.35,-3306.3L61.35,-3306.3L60.83,-3306.11L60.57,-3306.18L60.31,-3306.29L59.98,-3306.09L59.67,-3305.67L59.16,-3304.71L59.02,-3304.95L58.47,-3305.05L58.17,-3305.22L57.63,-3305.52L58.13,-3306.3L57.9,-3306.95L58.32,-3307.19L59.34,-3308.03L60.54,-3307.35L60.83,-3306.75L61.35,-3306.3z"/>
		<path id="TW-1676511" title="Kinmen" class="land" d="M-212.67,-3043.68L-212.67,-3043.68L-215.07,-3042.98L-216.43,-3043.52L-214.13,-3048.09L-213.52,-3048.72L-212.56,-3048.97L-211.59,-3048.99L-210.71,-3048.37L-209.94,-3047.53L-209.96,-3046.09L-210.59,-3045.14L-211.33,-3045.08L-211.84,-3044.54L-212.1,-3043.99L-212.67,-3043.68zM-187.36,-3055.99L-187.36,-3055.99L-185.21,-3050.19L-185.69,-3046.16L-187.45,-3044.04L-190.58,-3046L-192.91,-3046.76L-196.63,-3046.39L-199.9,-3044.31L-201.69,-3041.51L-203.23,-3040.73L-205.04,-3041.59L-206.28,-3041.67L-207.37,-3042.15L-207.91,-3043.1L-207.72,-3043.45L-206.72,-3044.71L-206.4,-3045.3L-206.31,-3046.24L-206.36,-3047.37L-206.7,-3049.37L-207.49,-3051.28L-207.6,-3052.25L-206.9,-3052.66L-203.42,-3054.37L-198.81,-3051.35L-195.6,-3051.74L-195.12,-3055.76L-194.05,-3058.27L-190.62,-3058.97L-187.36,-3055.99zM-63.61,-3119.24L-63.61,-3119.24L-64.91,-3118.58L-65.5,-3119.13L-65.21,-3120.56L-64.11,-3121.22L-63.31,-3121.11L-63.21,-3120.23L-63.61,-3119.24z"/>
		<path id="TW-PEN" title="Penghu" class="land" d="M-69.49,-2882.82L-69.49,-2882.82L-70.29,-2882.41L-70.89,-2883.09L-71.58,-2885.25L-71.14,-2885.82L-69.4,-2886.43L-68.15,-2886.08L-68.07,-2885.12L-68.2,-2884.37L-68.75,-2883.85L-69.49,-2882.82zM-70.01,-2888.33L-70.01,-2888.33L-70.8,-2886.9L-71.82,-2887.21L-72.75,-2888.32L-72.87,-2889.47L-72.32,-2889.98L-70.84,-2889.74L-70.01,-2888.33zM-47.57,-2889.8L-47.57,-2889.8L-47.77,-2889.78L-47.79,-2889.8L-47.8,-2889.8L-47.81,-2889.82L-48.3,-2890.43L-48.11,-2890.51L-48.18,-2890.71L-47.43,-2890.78L-47.29,-2890.84L-47.05,-2890.81L-46.83,-2890.48L-46.93,-2890.3L-46.65,-2889.9L-47.18,-2889.85L-47.2,-2889.8L-47.57,-2889.8zM-47.03,-2890.92L-47.03,-2890.92L-47.2,-2890.92L-47.11,-2891.24L-46.99,-2891L-47.03,-2890.92zM-41.17,-2891.91L-41.17,-2891.91L-41.01,-2891.82L-39.97,-2891.82L-40.14,-2891.33L-39.97,-2891.23L-40.46,-2890.55L-40.8,-2889.7L-40.81,-2889.71L-40.81,-2889.7L-41.07,-2890.39L-41.31,-2890.98L-41.22,-2891.82L-41.18,-2891.82L-41.17,-2891.91zM-42.02,-2892.16L-42.02,-2892.16L-42.1,-2891.82L-41.99,-2891.82L-41.99,-2891.57L-42.23,-2891.67L-42.47,-2891.69L-42.42,-2891.74L-42.57,-2891.8L-42.36,-2891.81L-42.02,-2892.16zM-59.91,-2892.85L-59.91,-2892.85L-60.74,-2892.48L-60.19,-2893.3L-59.91,-2892.85zM-81.02,-2898.92L-81.02,-2898.92L-81.17,-2898.84L-81.23,-2898.92L-81.24,-2898.91L-81.37,-2899.11L-81.2,-2899.19L-81.06,-2899.16L-81.02,-2898.92zM-82.81,-2899.65L-82.81,-2899.65L-82.96,-2899.57L-83.02,-2899.63L-83.15,-2899.83L-82.91,-2899.95L-82.85,-2899.88L-82.81,-2899.65zM-81,-2899.72L-81,-2899.72L-81.03,-2899.25L-81.2,-2899.26L-81.37,-2899.96L-81,-2899.72zM-56.57,-2905.54L-56.57,-2905.54L-56.97,-2905.44L-57.33,-2905.46L-58.71,-2904.67L-58.89,-2904.83L-58.71,-2905.45L-58.22,-2906.13L-57.87,-2906.38L-57.16,-2906.54L-56.47,-2906.12L-56.57,-2905.54zM-60.43,-2908.6L-60.43,-2908.6L-60.38,-2907.52L-60.16,-2906.81L-59.79,-2906.55L-59.48,-2906.23L-59.78,-2905.52L-60.3,-2904.99L-60.26,-2904.56L-60.05,-2904.1L-60.72,-2903.84L-62.17,-2903.97L-62.89,-2904.29L-62.23,-2905.72L-62.35,-2907.64L-62.75,-2907.35L-63.67,-2907.08L-63.93,-2908.14L-63,-2910.47L-62.24,-2910.63L-60.99,-2908.95L-60.7,-2908.88L-60.43,-2908.6zM-83.16,-2911.24L-83.16,-2911.24L-82.84,-2911.13L-82.69,-2911.16L-82.09,-2910.94L-82.21,-2910.7L-82.07,-2910.2L-82.34,-2909.78L-83.31,-2909.52L-83.45,-2909.74L-83.45,-2909.8L-83.81,-2910.03L-83.33,-2911.05L-83.26,-2911.06L-83.16,-2911.24zM-56.26,-2922.61L-56.26,-2922.61L-57.42,-2921.83L-57.6,-2921.78L-57.75,-2921.64L-58.06,-2921.62L-58.69,-2921.38L-59.74,-2920.84L-59.86,-2921.04L-59.87,-2921.03L-60.3,-2921.1L-60.46,-2921.93L-60.39,-2921.98L-60.42,-2922.02L-60.38,-2922L-60.15,-2922.2L-59.3,-2921.95L-59.14,-2922.08L-58.67,-2922.28L-58.53,-2922.33L-58.51,-2922.36L-57.47,-2922.86L-56.33,-2922.63L-56.36,-2922.62L-56.26,-2922.61zM-47.32,-2935.48L-47.32,-2935.48L-47.58,-2934.89L-45.73,-2935.45L-44.31,-2935.3L-43.28,-2935.37L-42.54,-2936.61L-40.39,-2932.64L-39.8,-2930.78L-40.06,-2929.41L-40.95,-2930.32L-42.13,-2931.09L-43.43,-2931.35L-45.24,-2930.33L-46.52,-2930.17L-47.16,-2929.82L-47.52,-2929.14L-48.01,-2927.27L-48.32,-2926.71L-50.47,-2925.47L-52.69,-2925.16L-54.91,-2926.02L-57.15,-2928.24L-56.56,-2929.41L-55.33,-2927.93L-53.49,-2927.54L-51.51,-2928.08L-49.89,-2929.41L-51.01,-2929.83L-51.89,-2930.36L-52.61,-2931.1L-53.26,-2932.11L-53.52,-2931.69L-53.52,-2931.54L-53.61,-2931.46L-54.09,-2931.21L-54.2,-2933.05L-54.09,-2934.89L-53.26,-2934.89L-52.3,-2934.64L-48.89,-2936.78L-46.75,-2937.51L-47.32,-2935.48zM-65.67,-2931.21L-65.67,-2931.21L-67.38,-2931.21L-67.09,-2932.17L-66.53,-2932.74L-65.67,-2933.01L-64.51,-2933.1L-63.51,-2933.48L-63.22,-2934.42L-63.19,-2936.61L-61.7,-2941.38L-60.26,-2942.8L-58.33,-2941.12L-59.48,-2940.43L-60.27,-2938.77L-61.54,-2934.89L-61.6,-2933.84L-61.29,-2932.96L-61.42,-2932.34L-62.81,-2932.11L-63.81,-2932.07L-64.52,-2931.94L-65.11,-2931.67L-65.67,-2931.21zM-50.13,-2939.42L-50.13,-2939.42L-51.14,-2939.12L-51.65,-2939.81L-52.04,-2941.39L-52.96,-2942.73L-54.95,-2944.72L-52.4,-2946.6L-50.89,-2945.8L-49.42,-2944.53L-48.8,-2943.18L-49.92,-2942.09L-49.47,-2940.48L-50.13,-2939.42zM-48.9,-2953.41L-48.9,-2953.41L-49.05,-2952.98L-49.1,-2953.17L-49.13,-2953.14L-49.64,-2954.37L-49.52,-2954.57L-49.73,-2955.02L-48.94,-2955.67L-48.45,-2956.64L-48.18,-2957.05L-47.99,-2956.74L-47.95,-2956.58L-46.79,-2955.92L-46.98,-2955.1L-48.01,-2954.51L-48.9,-2953.41z"/>
		<path id="TW-TTT" title="Taitung" class="land" d="M194.04,-2720.37L194.04,-2720.37L193.66,-2719.74L193.13,-2720.19L193.5,-2720.83L194.04,-2720.37zM191.86,-2728.21L191.86,-2728.21L189.35,-2727.42L185.97,-2728.78L182.86,-2730.98L181.06,-2732.67L181.6,-2733.91L181.58,-2735.08L181.12,-2736.16L180.3,-2737.12L189.31,-2737.12L189.31,-2736.32L189.08,-2735.82L188.68,-2734.71L188.52,-2733.39L188.94,-2732.23L191.06,-2730.61L192.01,-2729.47L191.86,-2728.21zM180.82,-2809.82L180.82,-2809.82L180.8,-2809.31L180.44,-2809.41L179.64,-2809.41L179.23,-2809.51L179.02,-2809.76L177.82,-2810.25L176.52,-2812.5L175.88,-2814.44L176.13,-2814.72L180.76,-2815.06L181.27,-2814.76L181.6,-2813.88L181.24,-2812.06L180.82,-2811.33L180.66,-2810.56L180.82,-2809.82zM166.96,-2871.74L166.96,-2871.74L166,-2870.77L163.8,-2869.16L162.83,-2868.15L162.35,-2867.11L161.58,-2864.44L159.38,-2860.56L158.02,-2854.56L157.05,-2851.85L152.32,-2845.04L151.73,-2843.8L145.35,-2838.38L143.84,-2836.63L143.62,-2835.42L143.92,-2832.54L143.84,-2831.26L143.27,-2829.79L142.28,-2828.17L140.1,-2825.4L137.94,-2823.34L130.54,-2818.41L125.57,-2812.95L124.36,-2812.31L123.38,-2811.05L120.98,-2804.88L119.78,-2802.56L116.09,-2797.94L114.59,-2795.2L113.73,-2789.55L111.52,-2781.85L107.14,-2774.17L106.51,-2771.55L105.74,-2764.15L105.86,-2757.41L103.79,-2757.26L99.1,-2759.42L97,-2761.66L95.5,-2764.39L95.25,-2767.17L95.3,-2769.79L93.88,-2771.84L92.3,-2772.6L91.05,-2774.38L91.3,-2776.49L92.25,-2778.27L94.7,-2779.73L95.85,-2781.48L93.7,-2784.05L92.5,-2786.35L92.5,-2788.81L92.03,-2792.08L91.1,-2794.86L90.53,-2797.87L90.9,-2804.63L92.3,-2808.07L94,-2811.1L95.1,-2814.13L97.57,-2816.19L101.1,-2816.94L103.29,-2818.19L107.77,-2820.09L108.69,-2822.36L108.76,-2824.74L110.04,-2831.08L107.49,-2832.76L105.04,-2833.36L104.69,-2835.58L103.12,-2838.62L104.89,-2838.83L104.32,-2841.11L101.5,-2844.04L100.12,-2846.16L99.5,-2849.9L100.57,-2854.37L104.49,-2857.71L106.47,-2860.4L106.49,-2865.56L107.89,-2871.61L106.89,-2876.17L107.29,-2879.33L110.69,-2881.17L111.91,-2883.43L110.89,-2886.17L111.29,-2888.81L114.86,-2891.12L116.68,-2892.92L119.66,-2894.79L126.84,-2896.55L127.35,-2893.16L129.67,-2889.44L133.24,-2888.13L136.07,-2886.83L138.36,-2884.63L141.26,-2884.22L143.86,-2883.51L148.08,-2876.15L153.48,-2871.72L157.25,-2871.18L160.22,-2872.89L160.65,-2875.74L160.6,-2878.84L162.04,-2881.61L164.24,-2887.7L165.94,-2891.23L167.04,-2895.09L168.29,-2898.14L169.84,-2900.53L171.51,-2903.69L171.24,-2906.84L170.46,-2910L172.24,-2912.51L177.18,-2914.9L178.79,-2914.44L176.69,-2902.3L175.66,-2900.06L172.42,-2895.73L171.21,-2893.49L170.25,-2890.66L169.58,-2885.43L169.64,-2880.76L169.19,-2876.32L166.96,-2871.74z"/>
		<path id="TW-YUN" title="Yunlin" class="land" d="M32.97,-2965.61L32.97,-2965.61L43.08,-2966.82L46.54,-2966.63L49.61,-2965.8L54.93,-2963.76L64,-2962.74L69.58,-2959.97L72.26,-2960.01L77.77,-2958.92L78.24,-2959.24L79.11,-2955.9L78.19,-2953.74L77.72,-2950.44L78.19,-2946.92L77.32,-2944.55L76.89,-2941.9L78.71,-2939.75L81.39,-2938.58L84.51,-2939.53L88.31,-2939.94L89.51,-2938.31L89.28,-2938.33L89.11,-2936.04L89.11,-2934.46L87.31,-2933.86L81.91,-2932.77L79.01,-2932.47L77.92,-2934.3L75.74,-2935.82L71.92,-2934.73L70.22,-2934.49L64.43,-2936.61L62.13,-2939.31L59.71,-2941.44L56.53,-2941.28L50.74,-2940.18L47.44,-2939.29L39.95,-2934.95L38.2,-2933.21L36.15,-2932.12L32.95,-2929.5L30.5,-2929.12L29.56,-2927.76L28.78,-2925.49L26.96,-2924.05L24.19,-2924.08L20.36,-2926.23L15.52,-2925.69L15.45,-2925.64L15.02,-2925.61L17.12,-2927.97L17.02,-2935.53L17.35,-2941.17L18.64,-2945.68L20.64,-2949.2L21.21,-2953.81L22.29,-2957.85L22.87,-2959.22L25.7,-2962.97L26.17,-2964.22L26.52,-2964.92L29.09,-2966.89L29.48,-2967.63L29.48,-2967.63L32.97,-2965.61z"/>
		<path id="TW-TXQ" title="Taichung City" class="land" d="M103.03,-3027.66L103.03,-3027.66L108.63,-3027.95L111.03,-3029.25L111.42,-3032.62L113.96,-3034.14L118.49,-3033.8L121.27,-3032.68L123.55,-3030.14L126.05,-3029.15L130.11,-3031.33L133.28,-3032.62L138.6,-3036.87L141.3,-3038.35L143.4,-3040.38L145.35,-3041.75L147.79,-3041.69L150.03,-3042.63L150.86,-3045.21L152.57,-3046.4L152.93,-3046.65L157.79,-3047.11L159.08,-3046.76L160.76,-3046.3L160.45,-3043.74L161.12,-3042.04L163.38,-3041.55L165.4,-3040.38L167.11,-3039.21L168.91,-3039.48L171.11,-3040.53L173.35,-3040.53L176.03,-3038.37L173.9,-3036.13L173.7,-3034.21L172.62,-3031.38L169.15,-3029.19L167.77,-3026.92L167.17,-3024.55L165.77,-3022.83L164.21,-3022.01L163.64,-3021.08L162.36,-3020.16L162.35,-3020.16L156.21,-3020.73L154.05,-3021.22L151.9,-3021.08L146.8,-3019.05L143.93,-3018.59L141.09,-3018.49L137.03,-3016.35L135,-3015.97L132.67,-3014.65L129.04,-3011.15L126.74,-3010.27L123.7,-3010.32L121.55,-3008.52L120.34,-3006.02L118.74,-3005.6L114.62,-3008.67L113.24,-3007.79L110.59,-3004.27L107.82,-3004.14L103.17,-3004.82L100.23,-3003.41L98.53,-2999.52L95.05,-2992.9L92.77,-2990.72L90.84,-2990.41L82.57,-2991.57L80.63,-2991.64L80.63,-2992.29L78.12,-2993.93L76.15,-2994.28L75.59,-2995.82L75.57,-2997.64L74.65,-2999.47L73.17,-3001.77L71.19,-3003.41L65.73,-3005.01L63.66,-3007.52L63.19,-3011L61.97,-3013.92L60.13,-3015.53L57.45,-3016.4L57.45,-3016.4L57.74,-3016.74L58.08,-3018.26L59.6,-3019.53L60.62,-3022.47L61.87,-3028.13L66.15,-3035.55L67.44,-3040.11L68.98,-3042.64L75.08,-3049.41L79.32,-3042.86L81.5,-3040.56L84.38,-3038.04L91.31,-3032.92L94.71,-3031.27L97.71,-3030.73L103.03,-3027.66z"/>
		<path id="TW-NAN" title="Nantou" class="land" d="M162.35,-3020.16L162.35,-3020.16L162.98,-3017.28L163.09,-3015.62L160.71,-3014.51L157.65,-3013.48L155.96,-3012.17L156.07,-3007.59L157.39,-3006.18L159.77,-3004.63L160.45,-3002.53L160.33,-3000.78L156.65,-2995.99L154.33,-2991.08L153.23,-2987.58L154.19,-2986.05L155,-2983.99L154.72,-2980.51L154.01,-2975.94L152.59,-2971.91L150.83,-2968.02L149.66,-2964.78L149.56,-2963.07L146.95,-2958.76L147.93,-2956.91L149.38,-2955.06L149.93,-2952.55L150.36,-2949.26L149.79,-2945.42L148.33,-2939.6L147.58,-2937.28L145.53,-2935.82L142.01,-2934.55L140.2,-2932.19L139.58,-2928.26L137.14,-2926.08L133.74,-2925.98L130.35,-2925.21L127.96,-2923.45L127.28,-2921.58L126.58,-2920.36L127.36,-2917.51L125.95,-2916.21L123.18,-2914.63L122.88,-2915.55L120.95,-2918.22L118.28,-2919.26L116.27,-2919.73L115.86,-2919.83L104.09,-2919.91L100.6,-2920.54L100.1,-2922.31L99.92,-2924.98L98.7,-2927.97L98.12,-2930.18L99.5,-2932.55L99.67,-2934.98L97.3,-2936.26L95.4,-2936.8L92.3,-2938L89.51,-2938.31L88.31,-2939.94L84.51,-2939.53L81.39,-2938.58L78.71,-2939.75L76.89,-2941.9L77.32,-2944.55L78.19,-2946.92L77.72,-2950.44L78.19,-2953.74L79.11,-2955.9L78.24,-2959.24L79.31,-2959.97L80.48,-2961.01L82.24,-2961.72L82.67,-2963.34L80.11,-2964.63L78.33,-2965.29L76.65,-2966.82L75.72,-2969.71L76.12,-2975.87L76.65,-2978.91L76.7,-2981.51L77.45,-2984.01L78.38,-2986.09L78.12,-2987.94L78.68,-2989.29L80.64,-2989.99L80.63,-2991.64L82.57,-2991.57L90.84,-2990.41L92.77,-2990.72L95.05,-2992.9L98.53,-2999.52L100.23,-3003.41L103.17,-3004.82L107.82,-3004.14L110.59,-3004.27L113.24,-3007.79L114.62,-3008.67L118.74,-3005.6L120.34,-3006.02L121.55,-3008.52L123.7,-3010.32L126.74,-3010.27L129.04,-3011.15L132.67,-3014.65L135,-3015.97L137.03,-3016.35L141.09,-3018.49L143.93,-3018.59L146.8,-3019.05L151.9,-3021.08L154.05,-3021.22L156.21,-3020.73L162.35,-3020.16z"/>
		<path id="TW-HUA" title="Hualien" class="land" d="M193.89,-3032.77L193.89,-3032.77L196.15,-3034.86L197.22,-3037.6L198.97,-3038L207.48,-3032.92L212.59,-3032.15L213.09,-3032.14L213.09,-3032.14L213.4,-3031.79L213.81,-3031.11L214.13,-3030.43L214.22,-3029.94L213.58,-3028.84L210.91,-3026.23L208.03,-3022.24L205.9,-3020.54L205.22,-3019.64L205.55,-3018.67L205.16,-3017.98L202.1,-3015.66L200.95,-3014.55L199.66,-3011.78L198.34,-3006.17L194.93,-3001.17L194.25,-2999.15L194.34,-2996.99L195.16,-2994.58L195.86,-2993.57L196.46,-2993.08L196.84,-2992.45L196.87,-2990.97L196.37,-2989.3L194.69,-2986.67L194.34,-2985.07L194.16,-2982.12L192.68,-2974.64L189.76,-2966.79L186.08,-2948.4L183.86,-2943.9L178.79,-2914.44L178.79,-2914.44L177.18,-2914.9L172.24,-2912.51L170.46,-2910L171.24,-2906.84L171.51,-2903.69L169.84,-2900.53L168.29,-2898.14L167.04,-2895.09L165.94,-2891.23L164.24,-2887.7L162.04,-2881.61L160.6,-2878.84L160.65,-2875.74L160.22,-2872.89L157.25,-2871.18L153.48,-2871.72L148.08,-2876.15L143.86,-2883.51L141.26,-2884.22L138.36,-2884.63L136.07,-2886.83L133.24,-2888.13L129.67,-2889.44L127.35,-2893.16L126.84,-2896.55L126.67,-2897.7L125.4,-2901.21L122.48,-2903.58L119.93,-2905.24L119.48,-2907.06L120.11,-2908.53L122.68,-2909.67L124.05,-2911.96L123.18,-2914.63L125.95,-2916.21L127.36,-2917.51L126.58,-2920.36L127.28,-2921.58L127.96,-2923.45L130.35,-2925.21L133.74,-2925.98L137.14,-2926.08L139.58,-2928.26L140.2,-2932.19L142.01,-2934.55L145.53,-2935.82L147.58,-2937.28L148.33,-2939.6L149.79,-2945.42L150.36,-2949.26L149.93,-2952.55L149.38,-2955.06L147.93,-2956.91L146.95,-2958.76L149.56,-2963.07L149.66,-2964.78L150.83,-2968.02L152.59,-2971.91L154.01,-2975.94L154.72,-2980.51L155,-2983.99L154.19,-2986.05L153.23,-2987.58L154.33,-2991.08L156.65,-2995.99L160.33,-3000.78L160.45,-3002.53L159.77,-3004.63L157.39,-3006.18L156.07,-3007.59L155.96,-3012.17L157.65,-3013.48L160.71,-3014.51L163.09,-3015.62L162.98,-3017.28L162.35,-3020.16L162.36,-3020.16L163.64,-3021.08L164.21,-3022.01L165.77,-3022.83L167.17,-3024.55L167.77,-3026.92L169.15,-3029.19L172.62,-3031.38L173.7,-3034.21L173.9,-3036.13L176.03,-3038.37L177.18,-3037.44L180.17,-3035.99L187.09,-3034.24L190.88,-3032.79L193.89,-3032.77z"/>
		<path id="TW-CYI" title="Chiayi City" class="land" d="M54.93,-2915.77L54.93,-2915.77L51.56,-2916.53L48.34,-2918.6L45.54,-2919.72L45.14,-2922.31L46.87,-2924.19L51.14,-2924.92L54.76,-2925.25L57.33,-2924.27L59.21,-2923.26L60.33,-2921.44L61.5,-2918.3L60.13,-2917.3L58.06,-2917.02L54.93,-2915.77z"/>
		<path id="TW-CYQ" title="Chiayi" class="land" d="M12.75,-2898.11L12.75,-2898.11L11.93,-2897.5L11.76,-2898L12.84,-2899.43L13.28,-2900.49L13.76,-2901.19L14.05,-2900.95L14.1,-2900.45L13.44,-2899.57L12.75,-2898.11zM13.79,-2903.93L13.79,-2903.93L13.35,-2903.41L13.44,-2904.24L14.37,-2905.97L14.78,-2906.14L14.56,-2905.3L13.79,-2903.93zM16.04,-2908.07L16.04,-2908.07L16,-2908.06L16,-2910.09L16.22,-2909.89L16.25,-2908.57L16.04,-2908.07zM16.66,-2912.52L16.66,-2912.52L16.42,-2911.75L16.39,-2911.91L16.33,-2911.77L16.09,-2912.7L16.63,-2912.55L16.62,-2912.53L16.66,-2912.52zM16.07,-2915.32L16.07,-2915.32L15.83,-2914.69L15.36,-2915.47L15.24,-2915.67L16,-2915.47L15.97,-2915.36L16.07,-2915.32zM2.36,-2914.86L2.36,-2914.86L0.93,-2914.09L2.64,-2916.6L9.06,-2923.08L13.93,-2929.29L15.08,-2929.62L10.91,-2922.89L8.88,-2920.84L7.53,-2919.19L5.79,-2917.45L4.42,-2916.49L2.36,-2914.86zM64.43,-2936.61L64.43,-2936.61L70.22,-2934.49L71.92,-2934.73L75.74,-2935.82L77.92,-2934.3L79.01,-2932.47L81.91,-2932.77L87.31,-2933.86L89.11,-2934.46L89.11,-2936.04L89.28,-2938.33L89.51,-2938.31L92.3,-2938L95.4,-2936.8L97.3,-2936.26L99.67,-2934.98L99.5,-2932.55L98.12,-2930.18L98.7,-2927.97L99.92,-2924.98L100.1,-2922.31L100.6,-2920.54L104.09,-2919.91L115.86,-2919.83L116.27,-2919.73L107.77,-2915.39L103.89,-2912.29L102.24,-2909.16L100.3,-2906.84L96.77,-2904.86L93.1,-2902.06L91.05,-2899.61L85.41,-2896.23L82.71,-2895.96L79.56,-2896.29L77.92,-2894.66L77.84,-2892.4L78.51,-2890.31L78.96,-2887.26L78.96,-2887.25L75.12,-2887.7L73.42,-2888.21L71.12,-2887.91L68.65,-2886.8L66.92,-2886.83L64.85,-2888.43L64.13,-2890.52L64.93,-2897.05L64.48,-2900.5L59.93,-2905.16L59.13,-2907.5L58.18,-2909.43L56.33,-2910.55L53.04,-2911.63L49.14,-2911.42L42.15,-2910.11L38.57,-2908.5L35.75,-2906.41L33.6,-2904.2L30.55,-2901.84L27.91,-2900.21L26.76,-2897.92L23.89,-2896.64L20.56,-2897.49L16.49,-2898.08L14.08,-2898.99L15.85,-2899.11L17.35,-2899.78L18,-2899.57L17.61,-2901.02L16.6,-2900.29L15.74,-2900.5L14.62,-2900.55L14.6,-2902.07L15.73,-2904.66L17.42,-2904.78L19.89,-2904.76L18.2,-2909.56L16.29,-2913.26L17.17,-2914.93L17.17,-2915.83L15.78,-2916.52L15.96,-2917.31L16.76,-2918.26L17.17,-2919.43L19.04,-2921.85L15.11,-2921.6L15.02,-2925.61L15.45,-2925.64L15.52,-2925.69L20.36,-2926.23L24.19,-2924.08L26.96,-2924.05L28.78,-2925.49L29.56,-2927.76L30.5,-2929.12L32.95,-2929.5L36.15,-2932.12L38.2,-2933.21L39.95,-2934.95L47.44,-2939.29L50.74,-2940.18L56.53,-2941.28L59.71,-2941.44L62.13,-2939.31L64.43,-2936.61zM46.87,-2924.19L46.87,-2924.19L45.14,-2922.31L45.54,-2919.72L48.34,-2918.6L51.56,-2916.53L54.93,-2915.77L58.06,-2917.02L60.13,-2917.3L61.5,-2918.3L60.33,-2921.44L59.21,-2923.26L57.33,-2924.27L54.76,-2925.25L51.14,-2924.92L46.87,-2924.19z"/>
		<path id="TW-CHA" title="Changhua" class="land" d="M80.63,-2991.64L80.63,-2991.64L80.64,-2989.99L78.68,-2989.29L78.12,-2987.94L78.38,-2986.09L77.45,-2984.01L76.7,-2981.51L76.65,-2978.91L76.12,-2975.87L75.72,-2969.71L76.65,-2966.82L78.33,-2965.29L80.11,-2964.63L82.67,-2963.34L82.24,-2961.72L80.48,-2961.01L79.31,-2959.97L78.24,-2959.24L77.77,-2958.92L72.26,-2960.01L69.58,-2959.97L64,-2962.74L54.93,-2963.76L49.61,-2965.8L46.54,-2966.63L43.08,-2966.82L32.97,-2965.61L29.48,-2967.63L29.48,-2967.63L29.82,-2968.29L30.57,-2971.54L31.12,-2972.91L34.37,-2976.03L35.32,-2977.34L36.56,-2980.9L38.44,-2984.46L41.1,-2991.87L42.34,-2994.02L43.72,-2995.41L44.87,-2996.18L45.87,-2996.66L46.59,-2997.33L46.87,-2998.69L47.41,-2999.96L49.77,-3001.81L50.31,-3003.21L50.59,-3007.85L51,-3009.13L52.24,-3010.31L57.45,-3016.4L60.13,-3015.53L61.97,-3013.92L63.19,-3011L63.66,-3007.52L65.73,-3005.01L71.19,-3003.41L73.17,-3001.77L74.65,-2999.47L75.57,-2997.64L75.59,-2995.82L76.15,-2994.28L78.12,-2993.93L80.63,-2992.29L80.63,-2991.64z"/>
		<path id="TW-TAO" title="Taoyuan" class="land" d="M165.52,-3101.19L165.52,-3101.19L168.93,-3101.38L171.24,-3100.46L175.11,-3094.79L174.44,-3092.39L173,-3090.66L173.37,-3088.28L174.01,-3085.71L178.12,-3081.83L179.25,-3079.32L177.84,-3078.93L175.37,-3077.13L176.81,-3071.42L175.77,-3069.66L174.19,-3069.07L172.71,-3069.37L170.91,-3068.63L170.66,-3067.94L168.46,-3068.93L165.12,-3070.83L163.27,-3072.15L160.72,-3072.59L157.87,-3074.29L155.53,-3076.1L155.26,-3078.1L157.39,-3081.09L158.25,-3084.65L157.52,-3087.99L157.36,-3090.3L155.79,-3091.51L153.79,-3092.5L152.59,-3094.59L151.03,-3096.2L149.26,-3096.05L147.51,-3096.38L146.06,-3097.81L144.15,-3099.21L141.14,-3100.16L139.55,-3101.87L140.07,-3104.57L138.42,-3106.48L135.27,-3107.51L133.39,-3108.4L131.41,-3108.98L129.11,-3109.87L127.27,-3113.86L125.15,-3115.29L118.89,-3114.85L117.42,-3115.36L121.51,-3121.88L124.71,-3125.69L128.01,-3128.49L136.48,-3131.27L138.46,-3132.51L140.16,-3134.01L142.22,-3135.13L146.34,-3136.62L155.58,-3138.29L157.52,-3136.17L160.4,-3134.77L162.58,-3133.38L164.05,-3132.05L165.92,-3131.61L167.87,-3130.58L170.23,-3127.14L170.44,-3125.29L169.99,-3123.36L168.45,-3121.76L162.45,-3119.99L160.75,-3118.14L160.85,-3115.29L160.35,-3112.63L160.85,-3110.3L163.31,-3107.95L163.78,-3105.6L163.16,-3102.51L165.52,-3101.19z"/>
		<path id="TW-TPQ" title="New Taipei City" class="land" d="M197.7,-3151.52L197.7,-3151.52L199.35,-3148.09L199.89,-3148.32L201.13,-3148.66L202.55,-3148.82L203.55,-3148.55L203.49,-3148.14L203.01,-3147.55L202.55,-3146.73L202.59,-3145.73L203.08,-3145.14L204.14,-3144.4L204.13,-3144.4L202.11,-3143.05L198.81,-3141.61L197.35,-3140.62L197.62,-3139.3L198.93,-3137.6L199.71,-3135.99L201.02,-3134.39L202.71,-3132.79L204.08,-3131.81L208.94,-3129.78L211.3,-3129.48L213.14,-3130.17L214.3,-3131.02L214.48,-3132.15L212.78,-3133.93L212.7,-3135.32L212.84,-3140.82L228.74,-3136.95L230.22,-3136.01L229.47,-3134.33L229.27,-3132.98L229.59,-3130.59L230.71,-3126.6L231.92,-3124.73L232.9,-3124.28L236.11,-3124.77L237.77,-3124.6L239.7,-3124.08L241.41,-3123.21L242.34,-3122.04L238.34,-3120.07L238.34,-3120.07L237.99,-3120.58L236.46,-3121.45L233.72,-3120.88L229.86,-3118.82L228.18,-3117.7L223.05,-3116.65L222.4,-3115.29L223.55,-3113.66L222.8,-3111.91L220.69,-3110.57L219.07,-3110L217.37,-3109.1L215.87,-3107.21L214.46,-3104.9L212.14,-3103.25L209.29,-3102.37L203.1,-3098.66L197.1,-3096.22L195.35,-3095.17L193.18,-3093.34L192.29,-3091.06L192.36,-3089.15L192.83,-3087.69L193.02,-3086.76L191.23,-3085.49L188.17,-3084.01L185.9,-3082.41L184.15,-3080.91L181.9,-3080.06L179.25,-3079.32L178.12,-3081.83L174.01,-3085.71L173.37,-3088.28L173,-3090.66L174.44,-3092.39L175.11,-3094.79L171.24,-3100.46L168.93,-3101.38L165.52,-3101.19L163.16,-3102.51L163.78,-3105.6L163.31,-3107.95L160.85,-3110.3L160.35,-3112.63L160.85,-3115.29L160.75,-3118.14L162.45,-3119.99L168.45,-3121.76L169.99,-3123.36L170.44,-3125.29L170.23,-3127.14L167.87,-3130.58L165.92,-3131.61L164.05,-3132.05L162.58,-3133.38L160.4,-3134.77L157.52,-3136.17L155.58,-3138.29L155.58,-3138.29L160.75,-3139.22L162.94,-3140.08L165.77,-3142.44L166.61,-3142.86L167.66,-3143.05L169.05,-3143.07L170.67,-3142.53L171.53,-3141.32L172.09,-3140.05L172.81,-3139.34L174.4,-3139.99L172.74,-3142.6L170.08,-3145.3L168.67,-3146.18L169.07,-3147.43L169.91,-3148.12L170.78,-3148.54L171.15,-3148.96L172.1,-3151.33L173.57,-3154.01L176.59,-3156.75L181,-3159L186.07,-3160.16L191.03,-3159.57L193.1,-3158.02L197.7,-3151.52zM178.26,-3140.29L178.26,-3140.29L177.43,-3139.19L176.7,-3137.82L178.43,-3135.88L181.08,-3133.34L181.63,-3130.47L180.9,-3127.05L182.73,-3123.96L185.38,-3121.88L187.12,-3119.88L188.81,-3118.4L191.02,-3117.9L193.69,-3117.87L195.62,-3118.67L199.11,-3123.08L200.03,-3125.04L198.31,-3126.5L196.2,-3127.69L196.12,-3130.03L196.87,-3133.06L196.12,-3135.1L194.33,-3136.69L193.19,-3141.31L192.42,-3142.94L191.71,-3144.44L191.52,-3146.03L191.77,-3147.69L190.82,-3148.68L189.06,-3149.26L187.22,-3148.35L185.88,-3147.2L180.87,-3144.22L179.23,-3142.39L178.26,-3140.29zM251.34,-3206.05L251.34,-3206.05L250.37,-3205.39L250.21,-3206.74L251.34,-3206.05z"/>
		<path id="TW-TPE" title="Taipei City" class="land" d="M193.69,-3117.87L193.69,-3117.87L191.02,-3117.9L188.81,-3118.4L187.12,-3119.88L185.38,-3121.88L182.73,-3123.96L180.9,-3127.05L181.63,-3130.47L181.08,-3133.34L178.43,-3135.88L176.7,-3137.82L177.43,-3139.19L178.26,-3140.29L179.23,-3142.39L180.87,-3144.22L185.88,-3147.2L187.22,-3148.35L189.06,-3149.26L190.82,-3148.68L191.77,-3147.69L191.52,-3146.03L191.71,-3144.44L192.42,-3142.94L193.19,-3141.31L194.33,-3136.69L196.12,-3135.1L196.87,-3133.06L196.12,-3130.03L196.2,-3127.69L198.31,-3126.5L200.03,-3125.04L199.11,-3123.08L195.62,-3118.67L193.69,-3117.87z"/>
		<path id="TW-MIA" title="Miaoli" class="land" d="M113.84,-3083.22L113.84,-3083.22L115.95,-3083.73L116.04,-3083.84L118.08,-3078.75L119.86,-3076.7L122.62,-3074.64L128.21,-3072L129.97,-3070.46L130.33,-3068.05L130.17,-3066.25L129.81,-3064.68L129.36,-3063.23L129.81,-3061.89L130.25,-3060.08L129.68,-3057.94L129.26,-3055.61L131.14,-3055.16L134.67,-3056.13L137.8,-3056.33L139.99,-3056.11L145.76,-3057.58L148.06,-3055.74L148.67,-3053.71L150.19,-3052.23L152.28,-3048.64L152.57,-3046.4L150.86,-3045.21L150.03,-3042.63L147.79,-3041.69L145.35,-3041.75L143.4,-3040.38L141.3,-3038.35L138.6,-3036.87L133.28,-3032.62L130.11,-3031.33L126.05,-3029.15L123.55,-3030.14L121.27,-3032.68L118.49,-3033.8L113.96,-3034.14L111.42,-3032.62L111.03,-3029.25L108.63,-3027.95L103.03,-3027.66L97.71,-3030.73L94.71,-3031.27L91.31,-3032.92L84.38,-3038.04L81.5,-3040.56L79.32,-3042.86L75.08,-3049.41L75.09,-3049.41L78.42,-3053.11L79.28,-3054.97L79.68,-3058L80.69,-3060.57L83.41,-3065.37L84.14,-3068.24L84.85,-3069.47L87.96,-3070.39L88.83,-3071.36L89.36,-3072.58L89.99,-3073.7L91.91,-3075.71L94.03,-3077.28L96.59,-3077.95L99.9,-3077.33L99.46,-3079.85L100.7,-3081.55L102.42,-3083.28L103.26,-3085.92L103.64,-3086.76L105.3,-3087.59L105.46,-3088.19L105.47,-3088.19L108.63,-3086.96L110.58,-3085.76L111.82,-3084.03L113.84,-3083.22z"/>
		<path id="TW-KEE" title="Keelung City" class="land" d="M212.84,-3140.82L212.84,-3140.82L212.7,-3135.32L212.78,-3133.93L214.48,-3132.15L214.3,-3131.02L213.14,-3130.17L211.3,-3129.48L208.94,-3129.78L204.08,-3131.81L202.71,-3132.79L201.02,-3134.39L199.71,-3135.99L198.93,-3137.6L197.62,-3139.3L197.35,-3140.62L198.81,-3141.61L202.11,-3143.05L204.13,-3144.4L204.14,-3144.4L204.78,-3143.95L205.13,-3143.48L205.9,-3142.72L207.67,-3142.07L212.84,-3140.82z"/>
		<path id="TW-ILA" title="Yilan" class="land" d="M234.69,-3102.23L234.69,-3102.23L234.8,-3102.18L235.68,-3102.02L236.12,-3101.32L236.42,-3101.03L236.08,-3099.96L234.32,-3100.02L233.7,-3100.37L233.53,-3100.65L233.49,-3100.66L232.9,-3101.61L233.35,-3101.46L234.49,-3102.12L234.56,-3102.21L234.64,-3102.2L234.69,-3102.23zM227.41,-3069.07L227.41,-3069.07L227.41,-3068.25L225.91,-3068.4L224.5,-3068.26L223.31,-3067.87L222.45,-3067.25L223.66,-3064.95L224.28,-3061.97L223.9,-3059.37L221.15,-3057.81L220.95,-3056.68L221.3,-3055.31L222.08,-3054.07L222.35,-3052.78L221.19,-3051.69L218.34,-3050.03L215.11,-3046.32L215,-3044.87L215.2,-3041.66L214.66,-3040.43L214.07,-3039.4L213.7,-3037.92L213.46,-3035L213.21,-3034.25L212.75,-3033.64L212.51,-3033.01L212.99,-3032.24L213.09,-3032.14L212.59,-3032.15L207.48,-3032.92L198.97,-3038L197.22,-3037.6L196.15,-3034.86L193.89,-3032.77L190.88,-3032.79L187.09,-3034.24L180.17,-3035.99L177.18,-3037.44L176.03,-3038.37L173.35,-3040.53L171.11,-3040.53L168.91,-3039.48L167.11,-3039.21L165.4,-3040.38L163.38,-3041.55L161.12,-3042.04L160.45,-3043.74L160.76,-3046.3L159.08,-3046.76L161.08,-3051.57L167.52,-3058.08L169.24,-3060.76L168.98,-3062.77L169.59,-3064.95L170.66,-3067.94L170.91,-3068.63L172.71,-3069.37L174.19,-3069.07L175.77,-3069.66L176.81,-3071.42L175.37,-3077.13L177.84,-3078.93L179.25,-3079.32L181.9,-3080.06L184.15,-3080.91L185.9,-3082.41L188.17,-3084.01L191.23,-3085.49L193.02,-3086.76L192.83,-3087.69L192.36,-3089.15L192.29,-3091.06L193.18,-3093.34L195.35,-3095.17L197.1,-3096.22L203.1,-3098.66L209.29,-3102.37L212.14,-3103.25L214.46,-3104.9L215.87,-3107.21L217.37,-3109.1L219.07,-3110L220.69,-3110.57L222.8,-3111.91L223.55,-3113.66L222.4,-3115.29L223.05,-3116.65L228.18,-3117.7L229.86,-3118.82L233.72,-3120.88L236.46,-3121.45L237.99,-3120.58L238.34,-3120.07L238.34,-3120.07L232.84,-3117.34L230.3,-3115.14L221.72,-3104.67L220.36,-3102.46L219.29,-3099.37L218.59,-3095.83L218.34,-3092.32L218.46,-3088.9L219.97,-3081.79L219.89,-3079.97L219.24,-3078.15L219.33,-3074.44L220.9,-3071.57L223.89,-3069.72L227.41,-3069.07z"/>
		<path id="TW-HSZ" title="Hsinchu" class="land" d="M118.89,-3114.85L118.89,-3114.85L125.15,-3115.29L127.27,-3113.86L129.11,-3109.87L131.41,-3108.98L133.39,-3108.4L135.27,-3107.51L138.42,-3106.48L140.07,-3104.57L139.55,-3101.87L141.14,-3100.16L144.15,-3099.21L146.06,-3097.81L147.51,-3096.38L149.26,-3096.05L151.03,-3096.2L152.59,-3094.59L153.79,-3092.5L155.79,-3091.51L157.36,-3090.3L157.52,-3087.99L158.25,-3084.65L157.39,-3081.09L155.26,-3078.1L155.53,-3076.1L157.87,-3074.29L160.72,-3072.59L163.27,-3072.15L165.12,-3070.83L168.46,-3068.93L170.66,-3067.94L169.59,-3064.95L168.98,-3062.77L169.24,-3060.76L167.52,-3058.08L161.08,-3051.57L159.08,-3046.76L157.79,-3047.11L152.93,-3046.65L152.57,-3046.4L152.28,-3048.64L150.19,-3052.23L148.67,-3053.71L148.06,-3055.74L145.76,-3057.58L139.99,-3056.11L137.8,-3056.33L134.67,-3056.13L131.14,-3055.16L129.26,-3055.61L129.68,-3057.94L130.25,-3060.08L129.81,-3061.89L129.36,-3063.23L129.81,-3064.68L130.17,-3066.25L130.33,-3068.05L129.97,-3070.46L128.21,-3072L122.62,-3074.64L119.86,-3076.7L118.08,-3078.75L116.04,-3083.84L117.18,-3085.23L118.22,-3087.84L119.81,-3089.82L122.48,-3090.92L124.86,-3091.32L125.94,-3091.94L126.39,-3093.64L125.54,-3095.32L123.76,-3097.08L121.28,-3098.4L114.35,-3100.61L110.53,-3102.26L110.56,-3102.29L111.25,-3103.32L111.52,-3105.09L111.91,-3106.42L112.86,-3107.74L114.08,-3108.73L115.24,-3109.13L115.14,-3109.69L115.45,-3111.04L116.48,-3113.85L117.42,-3115.36L117.42,-3115.36L118.89,-3114.85z"/>
		<path id="TW-HSQ" title="Hsinchu City" class="land" d="M116.04,-3083.84L116.04,-3083.84L115.95,-3083.73L113.84,-3083.22L111.82,-3084.03L110.58,-3085.76L108.63,-3086.96L105.47,-3088.19L105.46,-3088.19L105.98,-3090.07L108.53,-3095.3L109.54,-3096.67L109.87,-3097.39L109.85,-3098.17L109.55,-3099.02L109.04,-3100.05L109.73,-3101.41L110.53,-3102.26L110.53,-3102.26L114.35,-3100.61L121.28,-3098.4L123.76,-3097.08L125.54,-3095.32L126.39,-3093.64L125.94,-3091.94L124.86,-3091.32L122.48,-3090.92L119.81,-3089.82L118.22,-3087.84L117.18,-3085.23L116.04,-3083.84z"/>
		<path id="TW-TNQ" title="Tainan City" class="land" d="M5.51,-2863.63L5.51,-2863.63L5.22,-2863.06L4.19,-2864L3.41,-2865.9L3.54,-2866.5L3.87,-2866.51L4.27,-2865.95L4.57,-2865.1L5.57,-2864.07L5.51,-2863.63zM5.75,-2876.31L5.75,-2876.31L4.42,-2873.1L4.39,-2873.16L6.22,-2879.3L6.31,-2879.24L6.49,-2879.22L5.86,-2876.86L5.75,-2876.31zM7.33,-2882.2L7.33,-2882.2L7.3,-2882.2L8.96,-2886.72L9.21,-2886.75L9.28,-2885.92L7.33,-2882.2zM10.26,-2892.52L10.26,-2892.52L10.11,-2891.38L10.06,-2891.43L10.35,-2896.28L10.58,-2896.2L10.26,-2892.52zM64.93,-2897.05L64.93,-2897.05L64.13,-2890.52L64.85,-2888.43L66.92,-2886.83L68.65,-2886.8L71.12,-2887.91L73.42,-2888.21L75.12,-2887.7L78.96,-2887.25L77.92,-2884.22L73.12,-2877.26L68.52,-2869.44L65.55,-2865.61L62.13,-2862.27L59.16,-2859.8L56.33,-2856.84L53.91,-2853.61L52.54,-2851.2L51.44,-2848.68L48.54,-2846.64L45.57,-2845.45L43.94,-2844.26L42.02,-2843.58L38.15,-2844.04L34.35,-2843.63L27.16,-2844.66L24.96,-2845.78L23.14,-2849.76L23.07,-2849.97L20.24,-2848.27L20.24,-2848.27L19.8,-2851.15L18.96,-2852.82L17.17,-2854.62L19.36,-2856.18L20.57,-2858.97L20.08,-2861.38L17.17,-2861.79L16.61,-2860.94L16.13,-2859.38L15.31,-2858.15L13.79,-2858.21L13.19,-2859.24L13.42,-2862.46L13.04,-2863.59L11.17,-2864.4L10.12,-2863.45L9.27,-2862.12L8.01,-2861.79L6.67,-2862.95L6.33,-2864.54L6.64,-2866.11L7.18,-2867.17L8.53,-2867.87L10.24,-2868.1L11.65,-2868.56L12.14,-2869.95L11.48,-2870.67L7.18,-2871.74L7.18,-2872.64L10.78,-2872.67L10.43,-2873.88L8.47,-2875.57L7.18,-2877.05L7.5,-2878.89L8.65,-2879.54L9.89,-2879.96L10.5,-2881.12L10.13,-2882.93L9.5,-2884.4L9.93,-2885.76L10.57,-2887.47L11.61,-2888.68L11.39,-2889.73L11.61,-2890.77L13.16,-2894.89L13.89,-2895.68L15.07,-2895.98L13.35,-2897.13L14.08,-2898.99L16.49,-2898.08L20.56,-2897.49L23.89,-2896.64L26.76,-2897.92L27.91,-2900.21L30.55,-2901.84L33.6,-2904.2L35.75,-2906.41L38.57,-2908.5L42.15,-2910.11L49.14,-2911.42L53.04,-2911.63L56.33,-2910.55L58.18,-2909.43L59.13,-2907.5L59.93,-2905.16L64.48,-2900.5L64.93,-2897.05z"/>
		<path id="TW-PIF" title="Pingtung" class="land" d="M44.85,-2772.8L44.85,-2772.8L44.99,-2772.58L45.08,-2772.58L45.18,-2772.33L45.79,-2771.43L45.57,-2771.23L45.64,-2771L44.4,-2770.16L44.25,-2770.02L43.48,-2769.41L42.09,-2768.21L42.08,-2768.3L42.07,-2768.29L41.7,-2769.71L42.33,-2770.92L42.32,-2770.96L43.6,-2772.58L44.54,-2772.58L44.85,-2772.8zM88.63,-2842.47L88.63,-2842.47L92.1,-2838.4L94.8,-2835.85L98.72,-2838.94L100.7,-2839.05L103.09,-2838.62L103.12,-2838.62L104.69,-2835.58L105.04,-2833.36L107.49,-2832.76L110.04,-2831.08L108.76,-2824.74L108.69,-2822.36L107.77,-2820.09L103.29,-2818.19L101.1,-2816.94L97.57,-2816.19L95.1,-2814.13L94,-2811.1L92.3,-2808.07L90.9,-2804.63L90.53,-2797.87L91.1,-2794.86L92.03,-2792.08L92.5,-2788.81L92.5,-2786.35L93.7,-2784.05L95.85,-2781.48L94.7,-2779.73L92.25,-2778.27L91.3,-2776.49L91.05,-2774.38L92.3,-2772.6L93.88,-2771.84L95.3,-2769.79L95.25,-2767.17L95.5,-2764.39L97,-2761.66L99.1,-2759.42L103.79,-2757.26L105.86,-2757.41L106.25,-2733.68L105.53,-2730.32L104.36,-2727.57L102.82,-2726.44L100.99,-2724.75L101.05,-2720.9L101.7,-2716.7L101.55,-2713.98L99.47,-2717.11L96.36,-2719.47L92.74,-2721.1L89.1,-2721.99L88.95,-2718.96L87.89,-2717.87L86.33,-2718.26L84.64,-2719.69L84.54,-2720.76L85.12,-2723.98L82.58,-2728.21L82.37,-2729.34L82.4,-2730.27L82.58,-2731.78L82.58,-2736.71L82.85,-2738.16L83.97,-2739.79L84.22,-2741.17L75.08,-2764.91L74.32,-2766.2L71.77,-2769.36L69.77,-2773.89L68.84,-2775.2L65.1,-2778.15L63.61,-2779.01L63.11,-2779.18L62.61,-2779.53L62.16,-2781.24L61.87,-2781.85L59.85,-2783.16L55.25,-2785.36L53.17,-2786.8L50.96,-2788.73L49.94,-2789.38L49.77,-2789.45L53.51,-2798.87L53.34,-2802.65L52.06,-2806.09L52.14,-2809.36L54.73,-2819.11L54.78,-2823.47L54.53,-2826.69L55.73,-2830.32L56.33,-2833.63L57.13,-2835.85L65.33,-2835.36L69,-2836.67L71.92,-2839.92L76.24,-2841.98L82.26,-2838.94L85.31,-2841.65L88.63,-2842.47z"/>
		<path id="TW-KHQ" title="Kaohsiung City" class="land" d="M123.18,-2914.63L123.18,-2914.63L124.05,-2911.96L122.68,-2909.67L120.11,-2908.53L119.48,-2907.06L119.93,-2905.24L122.48,-2903.58L125.4,-2901.21L126.67,-2897.7L126.84,-2896.55L119.66,-2894.79L116.68,-2892.92L114.86,-2891.12L111.29,-2888.81L110.89,-2886.17L111.91,-2883.43L110.69,-2881.17L107.29,-2879.33L106.89,-2876.17L107.89,-2871.61L106.49,-2865.56L106.47,-2860.4L104.49,-2857.71L100.57,-2854.37L99.5,-2849.9L100.12,-2846.16L101.5,-2844.04L104.32,-2841.11L104.89,-2838.83L103.12,-2838.62L103.09,-2838.62L100.7,-2839.05L98.72,-2838.94L94.8,-2835.85L92.1,-2838.4L88.63,-2842.47L85.31,-2841.65L82.26,-2838.94L76.24,-2841.98L71.92,-2839.92L69,-2836.67L65.33,-2835.36L57.13,-2835.85L56.33,-2833.63L55.73,-2830.32L54.53,-2826.69L54.78,-2823.47L54.73,-2819.11L52.14,-2809.36L52.06,-2806.09L53.34,-2802.65L53.51,-2798.87L49.77,-2789.45L48.59,-2789.97L47.85,-2789.92L47.01,-2789.61L46.03,-2789.58L40.03,-2794.27L34.46,-2802.17L40.32,-2795.09L39.63,-2798.46L38.66,-2800.3L38.66,-2800.3L37.88,-2801.77L35.44,-2804.55L31.29,-2808.39L29.7,-2810.34L28.95,-2812.51L29.95,-2814.63L30.47,-2816.51L29.77,-2819.17L28.54,-2821.79L26.29,-2825.3L24.16,-2829.99L23.69,-2832.07L23.74,-2833.41L24.43,-2835.07L24.59,-2836.17L24.33,-2836.76L23.74,-2837.2L23.13,-2837.8L22.87,-2838.86L21.57,-2841.12L21.21,-2842L20.24,-2848.27L23.07,-2849.97L23.14,-2849.76L24.96,-2845.78L27.16,-2844.66L34.35,-2843.63L38.15,-2844.04L42.02,-2843.58L43.94,-2844.26L45.57,-2845.45L48.54,-2846.64L51.44,-2848.68L52.54,-2851.2L53.91,-2853.61L56.33,-2856.84L59.16,-2859.8L62.13,-2862.27L65.55,-2865.61L68.52,-2869.44L73.12,-2877.26L77.92,-2884.22L78.96,-2887.25L78.96,-2887.26L78.51,-2890.31L77.84,-2892.4L77.92,-2894.66L79.56,-2896.29L82.71,-2895.96L85.41,-2896.23L91.05,-2899.61L93.1,-2902.06L96.77,-2904.86L100.3,-2906.84L102.24,-2909.16L103.89,-2912.29L107.77,-2915.39L116.27,-2919.73L118.28,-2919.26L120.95,-2918.22L122.88,-2915.55L123.18,-2914.63z"/>
	</g>
</svg>
