<?xml version="1.0" encoding="utf-8"?>
<!-- (c) ammap.com | SVG map of Turks and Caicos Islands -  High -->
<svg xmlns="http://www.w3.org/2000/svg" xmlns:amcharts="http://amcharts.com/ammap" xmlns:xlink="http://www.w3.org/1999/xlink" version="1.1">
	<defs>
		<style type="text/css">
			.land
			{
				fill: #CCCCCC;
				fill-opacity: 1;
				stroke:white;
				stroke-opacity: 1;
				stroke-width:0.5;
			}
		</style>

		<amcharts:ammap projection="mercator" leftLongitude="-72.679901" topLatitude="22.163099" rightLongitude="-71.074357" bottomLatitude="20.955341"></amcharts:ammap>

		<!-- All areas are listed in the line below. You can use this list in your script. -->
		<!--{id:"TC-06"},{id:"TC-03"},{id:"TC-02"},{id:"TC-01"},{id:"TC-04"},{id:"TC-05"}-->

	</defs>
	<g>
		<path id="TC-06" title="Salt Cay" class="land" d="M751.3,392.29L748.68,397.71L745.75,409.41L749.02,411.78L756.37,403.89L761.53,396.31L757.06,392.5L751.3,392.29z"/>
		<path id="TC-03" title="Grand Turk" class="land" d="M793.63,283.1L789.26,294.87L786.02,308.96L785.61,323.07L789.62,335.09L796.28,325.68L799.06,309.34L798.2,292.93L793.63,283.1z"/>
		<path id="TC-02" title="South Caicos and East Caicos" class="land" d="M474.65,419.2L477.33,414.36L473.64,415.7L469.22,418.64L462.57,423.61L464.46,424.77L474.65,419.2zM504.37,412.01L504.04,403.07L500.77,406.6L496.93,416.63L500.58,421.99L504.37,412.01zM581.72,272.54L582.27,251.5L581.07,247.7L579.13,247.91L574.88,258.96L574.78,274.09L570.77,277.34L563.64,276.31L556.63,281.24L557.87,292.08L567.67,298.51L577.54,295.51L582.22,287.05L581.72,272.54zM603.91,187.36L608.45,171.03L602.61,157.9L591.3,148.6L579.39,143.61L564.98,139.5L554.63,135.23L535.04,122.33L533.74,126.08L531.8,127.71L529.35,128.69L526.61,130.61L536.84,142.37L562.99,153.72L575.36,161.37L588.71,180.39L597.02,188.81L603.91,187.36z"/>
		<path id="TC-01" title="Providenciales and West Caicos" class="land" d="M18.23,199.74L29.3,177.42L29.2,158.94L13.07,161.37L13.26,173.67L11.53,187.05L7.5,198.53L0.94,205.09L0.94,209.04L18.23,199.74zM216.36,67.09L214.46,64.45L211.27,66.52L206.47,70.97L211.58,71.46L216.36,67.09zM103.26,68.04L89.98,61.55L90.39,72.39L84.22,92.33L85.97,100.64L89.4,97.07L102.08,87.21L99.71,95.49L92.29,109.25L89.98,117.57L87.82,116.39L87.17,116.39L86.95,115.97L85.97,113.23L84.82,116.85L84.34,119.54L84.63,122.44L85.97,126.68L93.99,124.25L98.84,119.8L100.33,113.23L98.41,104.54L119.01,114.21L122.61,117.57L123.14,124.38L119.01,125.69L113.44,122.98L109.74,117.57L106.12,117.57L112.74,133.71L123.38,132.13L146.75,113.23L146.75,122.33L155.32,120.11L170.23,122.28L179,117.57L177.08,115.35L175.15,114.45L173.14,114.01L170.93,113.23L187.45,104.54L188.03,108.37L191.1,117.57L195.85,111.52L211.58,96.29L211.58,91.56L198.64,84.01L192.25,85.66L187.45,92.44L179,100.64L171.26,103.43L159.79,105.42L148.21,105.47L140.38,102.58L103.26,68.04zM230.1,58.55L233.6,55L233.63,49.8L232.16,46.93L229.04,48.79L225.05,55.7L226.16,60.2L230.1,58.55z"/>
		<path id="TC-04" title="North Caicos" class="land" d="M272.02,34.74L277.31,37.74L284.03,39.09L289.74,37.74L292.15,32.72L306.22,16.41L315.92,10.67L320.39,21.69L318.13,29.3L309.05,44.16L308.28,52.49L311.98,58.7L318.63,64.29L325.67,68.28L330.61,69.88L338.3,73.81L347.16,80.8L357.39,83.26L369.13,73.81L350.74,71.9L342,58.96L336.86,21.69L338.83,11.91L337.48,6.86L330.61,4.71L326,3.99L318.03,0.73L314.53,0L280.09,0L274.69,1.45L269.96,4.22L266.21,8.1L263.59,13L270.22,16.96L270.53,22.55L269.57,28.76L272.02,34.74z"/>
		<path id="TC-05" title="Middle Caicos" class="land" d="M401.33,108.94L437.76,104.49L452.91,109.33L462.13,126.68L465.81,126.68L466.74,124.09L470.2,117.57L480.6,132.75L486.46,136.91L494.38,135.31L490.11,123.52L479.02,101.41L474.24,87.21L480.86,95.05L486.2,105.37L492.68,114.21L502.79,117.57L488.48,86.49L482.31,78.52L474.55,74.64L466.89,75.05L450.03,78.52L413.8,73.81L408.47,74.41L403.06,75.88L397.47,75.83L387.77,68.97L383.06,67.03L378.02,65.9L373.12,65.48L374.68,88.92L376.82,96.29L382.05,106.66L386.66,110.28L401.33,108.94z"/>
	</g>
</svg>