<?xml version="1.0" encoding="utf-8"?>
<!-- (c) ammap.com | SVG map of Uganda - Low -->
<svg xmlns="http://www.w3.org/2000/svg" xmlns:amcharts="http://amcharts.com/ammap" xmlns:xlink="http://www.w3.org/1999/xlink" version="1.1">
	<defs>
		<style type="text/css">
			.land
			{
				fill: #CCCCCC;
				fill-opacity: 1;
				stroke:white;
				stroke-opacity: 1;
				stroke-width:0.5;
			}
		</style>

		<amcharts:ammap projection="mercator" leftLongitude="29.573433" topLatitude="4.218628" rightLongitude="35.033049" bottomLatitude="-1.482318"></amcharts:ammap>

		<!-- All areas are listed in the line below. You can use this list in your script. -->
		<!--{id:"UG-223"},{id:"UG-329"},{id:"UG-325"},{id:"UG-425"},{id:"UG-422"},{id:"UG-424"},{id:"UG-122"},{id:"UG-118"},{id:"UG-116"},{id:"UG-124"},{id:"UG-324"},{id:"UG-328"},{id:"UG-230"},{id:"UG-225"},{id:"UG-228"},{id:"UG-421"},{id:"UG-423"},{id:"UG-420"},{id:"UG-322"},{id:"UG-330"},{id:"UG-323"},{id:"UG-326"},{id:"UG-302"},{id:"UG-327"},{id:"UG-123"},{id:"UG-319"},{id:"UG-121"},{id:"UG-119"},{id:"UG-120"},{id:"UG-117"},{id:"UG-232"},{id:"UG-227"},{id:"UG-217"},{id:"UG-226"},{id:"UG-229"},{id:"UG-224"},{id:"UG-231"},,{id:"UG-331"},{id:"UG-414"},{id:"UG-408"},{id:"UG-404"},{id:"UG-410"},{id:"UG-412"},{id:"UG-411"},{id:"UG-418"},{id:"UG-417"},{id:"UG-416"},{id:"UG-413"},{id:"UG-406"},{id:"UG-402"},{id:"UG-105"},{id:"UG-110"},{id:"UG-311"},{id:"UG-308"},{id:"UG-317"},{id:"UG-315"},{id:"UG-216"},{id:"UG-306"},{id:"UG-207"},{id:"UG-212"},{id:"UG-214"},{id:"UG-219"},{id:"UG-202"},{id:"UG-201"},{id:"UG-221"},{id:"UG-209"},{id:"UG-215"},{id:"UG-218"},{id:"UG-206"},{id:"UG-407"},{id:"UG-415"},{id:"UG-405"},{id:"UG-403"},{id:"UG-401"},{id:"UG-321"},{id:"UG-403"},{id:"UG-312"},{id:"UG-318"},{id:"UG-307"},{id:"UG-304"},{id:"UG-305"},{id:"UG-115"},{id:"UG-114"},{id:"UG-107"},{id:"UG-104"},{id:"UG-113"},{id:"UG-109"},{id:"UG-103"},{id:"UG-102"},{id:"UG-320"},{id:"UG-313"},{id:"UG-309"},{id:"UG-310"},{id:"UG-419"},{id:"UG-316"},{id:"UG-303"},{id:"UG-301"},{id:"UG-106"},{id:"UG-111"},{id:"UG-210"},{id:"UG-108"},{id:"UG-211"},{id:"UG-222"},{id:"UG-220"},{id:"UG-314"},{id:"UG-205"},{id:"UG-203"},{id:"UG-112"},{id:"UG-213"},{id:"UG-208"},{id:"UG-204"},{id:"UG-101"}-->

	</defs>
	<g>
		<path id="UG-223" title="Bududa" class="land" d="M209.97,-115.32L209.97,-115.32L205.35,-104.6L184.46,-104.51L194.24,-113.64L209.97,-115.32z"/>
		<path id="UG-329" title="Nwoya" class="land" d="M-31.26,-285.59L-31.26,-285.59L-33.85,-273.45L-14.39,-258.39L-26.99,-257.43L-25.09,-236.11L-64.96,-247.66L-77.88,-240.45L-99.79,-238.31L-120.74,-228.02L-101.72,-260.49L-112.59,-273.85L-78.72,-292.64L-31.26,-285.59z"/>
		<path id="UG-325" title="Buhweju" class="land" d="M-208.81,26.77L-208.81,26.77L-212.33,46.65L-227.37,51.46L-247.07,43.66L-246.25,32.17L-227.66,22.14L-208.81,26.77z"/>
		<path id="UG-425" title="Sheema" class="land" d="M-232.96,78.96L-232.96,78.96L-241.89,75.81L-244.2,66.24L-228.6,64.6L-227.37,51.46L-212.33,46.65L-217.02,65.93L-232.96,78.96z"/>
		<path id="UG-422" title="Mitooma" class="land" d="M-244.2,66.24L-244.2,66.24L-241.89,75.81L-255.39,79.49L-270.55,65.01L-267.49,52.82L-244.2,66.24z"/>
		<path id="UG-424" title="Rubirizi" class="land" d="M-239.88,8.29L-239.88,8.29L-235.37,12.54L-227.66,22.14L-246.25,32.17L-247.07,43.66L-258.98,36.68L-270.47,42.02L-298.74,37.44L-294.82,14.42L-261.03,18.21L-239.88,8.29z"/>
		<path id="UG-122" title="Kalungu" class="land" d="M-73.9,-5.24L-73.9,-5.24L-67.38,0.77L-59.03,13.26L-54.96,24.1L-81.47,27.42L-89.03,-4.93L-73.9,-5.24z"/>
		<path id="UG-118" title="Bukomansimbi" class="land" d="M-89.03,-4.93L-89.03,-4.93L-81.47,27.42L-93.38,27.42L-94.99,-5.16L-89.03,-4.93z"/>
		<path id="UG-116" title="Lyantonde" class="land" d="M-127.79,27.28L-127.79,27.28L-132.1,48.54L-142.79,55.27L-148.77,4.65L-126.8,7.95L-127.79,27.28z"/>
		<path id="UG-124" title="Lwengo" class="land" d="M-93.38,27.42L-93.38,27.42L-81.47,27.42L-91.89,49.16L-108.86,63.15L-132.1,48.54L-127.79,27.28L-93.38,27.42z"/>
		<path id="UG-324" title="Amudat" class="land" d="M238.55,-143.49L238.55,-143.49L234.52,-148.48L223.55,-161.18L239.4,-175.85L244.92,-221.06L253.36,-231.29L259.25,-175.32L238.55,-143.49z"/>
		<path id="UG-328" title="Napak" class="land" d="M235.82,-259.91L235.82,-259.91L223.33,-259.24L219.82,-217.54L179.05,-204.48L178.11,-220.89L147.02,-241.08L127.99,-252.45L119,-246.95L120.41,-257.01L157.53,-261.82L151.73,-273.81L153.05,-284.87L180.54,-285.08L183.22,-296.41L224.34,-276.32L235.82,-259.91z"/>
		<path id="UG-230" title="Namayingo" class="land" d="M152.73,-20.78L152.73,-20.78L145.43,-9.42L152.03,16.14L146.87,104.87L118.38,104.87L118.38,10.82L129.77,4.25L120.74,-7.65L123.91,-33.65L145.65,-49.57L152.73,-20.78z"/>
		<path id="UG-225" title="Bulambuli" class="land" d="M196.39,-162.9L196.39,-162.9L202.2,-151.22L189.22,-138.21L211.72,-121.57L179.29,-129.88L180.91,-162.74L196.39,-162.9z"/>
		<path id="UG-228" title="Kween" class="land" d="M223.55,-161.18L223.55,-161.18L234.52,-148.48L214.25,-125.56L216.15,-143.66L202.2,-151.22L196.39,-162.9L223.55,-161.18z"/>
		<path id="UG-421" title="Kyegegwa" class="land" d="M-134.47,-65.1L-134.47,-65.1L-131.36,-54.8L-142.48,-50.74L-155.97,-21.62L-156.82,-21.16L-172.29,-19.43L-169.05,-43.33L-163.45,-72.99L-134.47,-65.1z"/>
		<path id="UG-423" title="Ntoroko" class="land" d="M-204.15,-112.36L-204.15,-112.36L-206.35,-103.13L-243.66,-74.75L-235.12,-89.22L-242.29,-99.85L-236.5,-118.83L-203.57,-139.71L-204.15,-112.36z"/>
		<path id="UG-420" title="Kiryandongo" class="land" d="M-25.09,-236.11L-25.09,-236.11L-16.02,-216.84L-16.58,-195.41L-41.68,-174.24L-62.3,-176.86L-65.31,-205.49L-78.36,-215.53L-77.88,-240.45L-64.96,-247.66L-25.09,-236.11z"/>
		<path id="UG-322" title="Agago" class="land" d="M109.83,-342.08L109.83,-342.08L110.35,-334.43L115.45,-291.24L108.17,-271.66L65.75,-273.28L58.16,-283.63L74.36,-287.3L78.34,-298.02L63.97,-302.92L68.55,-315.77L74.71,-333.62L89.96,-334.45L93.02,-345.3L109.83,-342.08z"/>
		<path id="UG-330" title="Otuke" class="land" d="M108.17,-271.66L108.17,-271.66L120.41,-257.01L119,-246.95L109.42,-246.49L48.68,-256.69L53.83,-265.05L65.75,-273.28L108.17,-271.66z"/>
		<path id="UG-323" title="Alebtong" class="land" d="M109.42,-246.49L109.42,-246.49L91.12,-211.25L82.76,-213.36L61.28,-216.17L58.46,-236.19L40.73,-246.29L48.68,-256.69L109.42,-246.49z"/>
		<path id="UG-326" title="Kole" class="land" d="M32.72,-220.4L32.72,-220.4L5.2,-228.11L8.55,-247.29L32.53,-258.94L32.72,-220.4z"/>
		<path id="UG-302" title="Apac" class="land" d="M32.72,-220.4L32.72,-220.4L40.59,-217.05L38.51,-203.99L54.88,-190.12L51.18,-179.45L28.59,-188.46L9.91,-172.8L-20.62,-172.46L-41.4,-172.37L-41.68,-174.24L-16.58,-195.41L-16.02,-216.84L-3.06,-214.53L5.2,-228.11L32.72,-220.4z"/>
		<path id="UG-327" title="Lamwo" class="land" d="M79.88,-392.89L79.88,-392.89L81.7,-358.96L68.55,-369.98L28.19,-354.97L29.58,-332.77L1.58,-328.15L-14.91,-343.96L-33.9,-369.16L-13.41,-390.52L52.01,-406.71L79.88,-392.89z"/>
		<path id="UG-123" title="Kyankwanzi" class="land" d="M-70.89,-141.96L-70.89,-141.96L-57.21,-115.47L-86.33,-90.59L-111.07,-90.11L-102.36,-107.46L-126.5,-126.94L-103.15,-142.4L-70.89,-141.96z"/>
		<path id="UG-319" title="Amuru" class="land" d="M-33.9,-369.16L-33.9,-369.16L-14.91,-343.96L-33.61,-319.5L-31.26,-285.59L-78.72,-292.64L-112.59,-273.85L-115.8,-291.46L-114.82,-309.27L-98.84,-300.22L-59.52,-317.72L-46.63,-372.55L-33.9,-369.16z"/>
		<path id="UG-121" title="Gomba" class="land" d="M-70.97,-29.6L-70.97,-29.6L-37.52,-26.75L-73.9,-5.24L-89.03,-4.93L-94.99,-5.16L-121.88,-20.98L-96.75,-35.31L-70.97,-29.6z"/>
		<path id="UG-119" title="Butambala" class="land" d="M-67.38,0.77L-67.38,0.77L-73.9,-5.24L-37.52,-26.75L-24.61,-27.95L-67.38,0.77z"/>
		<path id="UG-120" title="Buvuma" class="land" d="M92.78,-31.65L92.78,-31.65L96.9,104.87L36.32,104.87L36.32,48.33L80.84,-36.63L92.78,-31.65z"/>
		<path id="UG-117" title="Buikwe" class="land" d="M62.61,-56.92L62.61,-56.92L80.84,-36.63L36.32,48.33L36.32,17.06L10.98,17.06L54.45,-37.65L55.61,-61.4L62.61,-56.92z"/>
		<path id="UG-232" title="Serere" class="land" d="M127.12,-166.5L127.12,-166.5L110.8,-139.13L94.66,-139.7L74.06,-143.19L78.95,-177.75L89.34,-179.59L105.55,-165.82L127.12,-166.5z"/>
		<path id="UG-227" title="Kibuku" class="land" d="M140.54,-98.21L140.54,-98.21L130,-97.92L118.5,-113.77L146.83,-122.16L140.54,-98.21z"/>
		<path id="UG-217" title="Budaka" class="land" d="M170.47,-116.58L170.47,-116.58L164.13,-108.16L140.54,-98.21L146.83,-122.16L170.47,-116.58z"/>
		<path id="UG-226" title="Buyende" class="land" d="M48.55,-154.14L48.55,-154.14L74.06,-143.19L94.66,-139.7L98.58,-134.68L87.73,-112.89L83.38,-98.71L48.25,-123.61L32.57,-154.31L48.55,-154.14z"/>
		<path id="UG-229" title="Luuka" class="land" d="M96.99,-91.15L96.99,-91.15L106.38,-57.27L75.44,-70.27L83.38,-98.71L87.73,-112.89L96.99,-91.15z"/>
		<path id="UG-224" title="Bukedea" class="land" d="M179.29,-129.88L179.29,-129.88L173.3,-121.67L169.08,-123.21L149.22,-130.35L161.36,-156.38L180.91,-162.74L179.29,-129.88z"/>
		<path id="UG-231" title="Ngora" class="land" d="M146,-171.4L146,-171.4L134.84,-137.4L110.8,-139.13L127.12,-166.5L137.08,-174.52L146,-171.4z"/>
		<path id="UG-331" title="Zombo" class="land" d="M-151.84,-270.87L-151.84,-270.87L-160.24,-251.67L-170.3,-243.99L-187.16,-255.82L-180.87,-279.98L-160.44,-286.41L-151.84,-270.87z"/>
		<path id="UG-414" title="Kanungu" class="land" d="M-271.93,109.21L-271.93,109.21L-287.15,112.51L-308.39,103.59L-300.25,46.27L-291.81,45.22L-271.93,109.21z"/>
		<path id="UG-408" title="Kisoro" class="land" d="M-287.15,112.51L-287.15,112.51L-279.79,138.48L-305.63,145.23L-308.39,103.59L-287.15,112.51z"/>
		<path id="UG-404" title="Kabale" class="land" d="M-271.93,109.21L-271.93,109.21L-254.33,113.67L-242.93,124.84L-231.05,120.57L-267.92,154.08L-279.79,138.48L-287.15,112.51L-271.93,109.21z"/>
		<path id="UG-410" title="Mbarara" class="land" d="M-181.45,63.28L-181.45,63.28L-193.76,64.02L-199.77,84.27L-232.96,78.96L-217.02,65.93L-212.33,46.65L-208.81,26.77L-196.48,23.77L-176.79,52.06L-181.45,63.28z"/>
		<path id="UG-412" title="Rukungiri" class="land" d="M-270.47,42.02L-270.47,42.02L-267.49,52.82L-270.55,65.01L-255.39,79.49L-254.33,113.67L-271.93,109.21L-291.81,45.22L-300.25,46.27L-298.74,37.44L-270.47,42.02z"/>
		<path id="UG-411" title="Ntungamo" class="land" d="M-241.89,75.81L-241.89,75.81L-232.96,78.96L-199.77,84.27L-213.28,111.23L-231.05,120.57L-242.93,124.84L-254.33,113.67L-255.39,79.49L-241.89,75.81z"/>
		<path id="UG-418" title="Mbarara" class="land" d="M-148.77,4.65L-148.77,4.65L-142.79,55.27L-149.05,68.27L-170.98,72.7L-181.45,63.28L-176.79,52.06L-196.48,23.77L-198.22,7.54L-184.67,-12.58L-194.12,-17.09L-172.29,-19.43L-156.82,-21.16L-148.77,4.65z"/>
		<path id="UG-417" title="Isingiro" class="land" d="M-181.45,63.28L-181.45,63.28L-170.98,72.7L-149.05,68.27L-127.55,104.87L-213.28,111.23L-199.77,84.27L-193.76,64.02L-181.45,63.28z"/>
		<path id="UG-416" title="Ibanda" class="land" d="M-196.48,23.77L-196.48,23.77L-208.81,26.77L-227.66,22.14L-235.37,12.54L-212.94,16.31L-219.58,2.96L-194.12,-17.09L-184.67,-12.58L-198.22,7.54L-196.48,23.77z"/>
		<path id="UG-413" title="Kamwenge" class="land" d="M-169.05,-43.33L-169.05,-43.33L-172.29,-19.43L-194.12,-17.09L-219.58,2.96L-212.94,16.31L-235.37,12.54L-239.88,8.29L-233.38,-27.56L-223.64,-23.81L-216.7,-56.61L-203.92,-31.11L-169.05,-43.33z"/>
		<path id="UG-406" title="Kasese" class="land" d="M-233.38,-27.56L-233.38,-27.56L-239.88,8.29L-261.03,18.21L-294.82,14.42L-278.99,-35.25L-255.28,-38.44L-233.38,-27.56z"/>
		<path id="UG-402" title="Bushenyi" class="land" d="M-247.07,43.66L-247.07,43.66L-227.37,51.46L-228.6,64.6L-244.2,66.24L-267.49,52.82L-270.47,42.02L-258.98,36.68L-247.07,43.66z"/>
		<path id="UG-105" title="Masaka" class="land" d="M-53.74,80.95L-53.74,80.95L-78.25,76.56L-91.89,49.16L-81.47,27.42L-54.96,24.1L-45.2,36.61L-53.74,43.22L-53.74,80.95z"/>
		<path id="UG-110" title="Rakai" class="land" d="M-91.89,49.16L-91.89,49.16L-78.25,76.56L-53.74,80.95L-53.74,104.87L-127.55,104.87L-149.05,68.27L-142.79,55.27L-132.1,48.54L-108.86,63.15L-91.89,49.16z"/>
		<path id="UG-311" title="Nakapiripirit" class="land" d="M244.92,-221.06L244.92,-221.06L239.4,-175.85L223.55,-161.18L196.39,-162.9L180.91,-162.74L179.03,-170.64L179.05,-204.48L219.82,-217.54L223.33,-259.24L235.82,-259.91L244.92,-221.06z"/>
		<path id="UG-308" title="Moroto" class="land" d="M253.36,-231.29L253.36,-231.29L244.92,-221.06L235.82,-259.91L224.34,-276.32L183.22,-296.41L197.29,-322.48L213.95,-324.14L218.05,-306.46L233.26,-298.51L248.48,-271.12L253.36,-231.29z"/>
		<path id="UG-317" title="Abim" class="land" d="M151.73,-273.81L151.73,-273.81L157.53,-261.82L120.41,-257.01L108.17,-271.66L115.45,-291.24L110.35,-334.43L123.28,-332.62L122.43,-319.57L140.41,-306.9L140.93,-279.21L151.73,-273.81z"/>
		<path id="UG-315" title="Kaabong" class="land" d="M213.95,-324.14L213.95,-324.14L197.29,-322.48L130.05,-350.92L107.49,-394.75L157.52,-440.29L165.76,-405.86L178.33,-405.56L172.84,-395.19L202.88,-383.89L197.05,-354.61L213.95,-324.14z"/>
		<path id="UG-216" title="Amuria" class="land" d="M147.02,-241.08L147.02,-241.08L136.92,-178.71L107.83,-210.58L98.71,-197.45L91.12,-211.25L109.42,-246.49L119,-246.95L127.99,-252.45L147.02,-241.08z"/>
		<path id="UG-306" title="Kotido" class="land" d="M197.29,-322.48L197.29,-322.48L183.22,-296.41L180.54,-285.08L153.05,-284.87L151.73,-273.81L140.93,-279.21L140.41,-306.9L122.43,-319.57L123.28,-332.62L110.35,-334.43L109.83,-342.08L123.57,-340.26L130.05,-350.92L197.29,-322.48z"/>
		<path id="UG-207" title="Katakwi" class="land" d="M179.05,-204.48L179.05,-204.48L179.03,-170.64L146,-171.4L137.08,-174.52L136.92,-178.71L147.02,-241.08L178.11,-220.89L179.05,-204.48z"/>
		<path id="UG-212" title="Tororo" class="land" d="M174.02,-86.61L174.02,-86.61L187.88,-78.11L170.65,-59.56L152.41,-59.01L142.79,-71.6L151.32,-88.73L165.78,-94.38L174.02,-86.61z"/>
		<path id="UG-214" title="Mayuge" class="land" d="M115.98,-46.26L115.98,-46.26L123.91,-33.65L120.74,-7.65L129.77,4.25L118.38,10.82L118.38,104.87L96.9,104.87L92.78,-31.65L111.47,-47.14L115.98,-46.26z"/>
		<path id="UG-219" title="Butaleja" class="land" d="M165.78,-94.38L165.78,-94.38L151.32,-88.73L142.79,-71.6L139.89,-72.13L130,-97.92L140.54,-98.21L164.13,-108.16L165.78,-94.38z"/>
		<path id="UG-202" title="Busia" class="land" d="M170.65,-59.56L170.65,-59.56L152.73,-20.78L145.65,-49.57L152.41,-59.01L170.65,-59.56z"/>
		<path id="UG-201" title="Bugiri" class="land" d="M139.89,-72.13L139.89,-72.13L142.79,-71.6L152.41,-59.01L145.65,-49.57L123.91,-33.65L115.98,-46.26L118.25,-76.66L139.89,-72.13z"/>
		<path id="UG-221" title="Manafwa" class="land" d="M205.35,-104.6L205.35,-104.6L187.88,-78.11L174.02,-86.61L184.46,-104.51L205.35,-104.6z"/>
		<path id="UG-209" title="Mbale" class="land" d="M173.3,-121.67L173.3,-121.67L194.24,-113.64L184.46,-104.51L174.02,-86.61L165.78,-94.38L164.13,-108.16L170.47,-116.58L169.08,-123.21L173.3,-121.67z"/>
		<path id="UG-215" title="Sironko" class="land" d="M211.72,-121.57L211.72,-121.57L209.97,-115.32L194.24,-113.64L173.3,-121.67L179.29,-129.88L211.72,-121.57z"/>
		<path id="UG-218" title="Bukwa" class="land" d="M238.55,-143.49L238.55,-143.49L240.35,-128.86L215.47,-114.34L214.25,-125.56L234.52,-148.48L238.55,-143.49z"/>
		<path id="UG-206" title="Kapchorwa" class="land" d="M214.25,-125.56L214.25,-125.56L215.47,-114.34L209.97,-115.32L211.72,-121.57L189.22,-138.21L202.2,-151.22L216.15,-143.66L214.25,-125.56z"/>
		<path id="UG-407" title="Kibale" class="land" d="M-126.5,-126.94L-126.5,-126.94L-102.36,-107.46L-111.07,-90.11L-134.47,-65.1L-163.45,-72.99L-204.44,-97.22L-206.35,-103.13L-204.15,-112.36L-126.5,-126.94z"/>
		<path id="UG-415" title="Kyenjojo" class="land" d="M-163.45,-72.99L-163.45,-72.99L-169.05,-43.33L-203.92,-31.11L-216.7,-56.61L-204.44,-97.22L-163.45,-72.99z"/>
		<path id="UG-405" title="Kabarole" class="land" d="M-204.44,-97.22L-204.44,-97.22L-216.7,-56.61L-223.64,-23.81L-233.38,-27.56L-255.28,-38.44L-278.99,-35.25L-271.54,-45.84L-261.68,-45.35L-243.66,-74.75L-206.35,-103.13L-204.44,-97.22z"/>
		<path id="UG-403" title="Hoima" class="land" d="M-119.09,-181.83L-119.09,-181.83L-103.15,-142.4L-126.5,-126.94L-204.15,-112.36L-203.57,-139.71L-148.99,-192.55L-122.69,-190.5L-119.09,-181.83z"/>
		<path id="UG-401" title="Bundibugyo" class="land" d="M-243.66,-74.75L-243.66,-74.75L-261.68,-45.35L-271.54,-45.84L-267,-86.25L-242.29,-99.85L-235.12,-89.22L-243.66,-74.75z"/>
		<path id="UG-321" title="Oyam" class="land" d="M17.12,-272.44L17.12,-272.44L28.79,-269.8L32.53,-258.94L8.55,-247.29L5.2,-228.11L-3.06,-214.53L-16.02,-216.84L-25.09,-236.11L-26.99,-257.43L-14.39,-258.39L-1.46,-272.87L17.12,-272.44z"/>
		<path id="UG-409" title="Masindi" class="land" d="M-41.68,-174.24L-41.68,-174.24L-41.4,-172.37L-56.53,-154.39L-70.89,-141.96L-103.15,-142.4L-119.09,-181.83L-99.45,-183.89L-89.41,-200.97L-100.45,-216.04L-99.79,-238.31L-77.88,-240.45L-78.36,-215.53L-65.31,-205.49L-62.3,-176.86L-41.68,-174.24z"/>
		<path id="UG-312" title="Pader" class="land" d="M68.55,-315.77L68.55,-315.77L63.97,-302.92L78.34,-298.02L74.36,-287.3L58.16,-283.63L65.75,-273.28L53.83,-265.05L35.06,-276.02L28.79,-269.8L17.12,-272.44L24.31,-285.87L1.58,-328.15L29.58,-332.77L44.78,-325.3L51.15,-332.08L68.55,-315.77z"/>
		<path id="UG-318" title="Dokolo" class="land" d="M82.76,-213.36L82.76,-213.36L62.19,-179.62L51.18,-179.45L54.88,-190.12L38.51,-203.99L40.59,-217.05L61.28,-216.17L82.76,-213.36z"/>
		<path id="UG-307" title="Lira" class="land" d="M53.83,-265.05L53.83,-265.05L48.68,-256.69L40.73,-246.29L58.46,-236.19L61.28,-216.17L40.59,-217.05L32.72,-220.4L32.53,-258.94L28.79,-269.8L35.06,-276.02L53.83,-265.05z"/>
		<path id="UG-304" title="Gulu" class="land" d="M1.58,-328.15L1.58,-328.15L24.31,-285.87L17.12,-272.44L-1.46,-272.87L-14.39,-258.39L-33.85,-273.45L-31.26,-285.59L-33.61,-319.5L-14.91,-343.96L1.58,-328.15z"/>
		<path id="UG-305" title="Kitgum" class="land" d="M130.05,-350.92L130.05,-350.92L123.57,-340.26L109.83,-342.08L93.02,-345.3L89.96,-334.45L74.71,-333.62L68.55,-315.77L51.15,-332.08L44.78,-325.3L29.58,-332.77L28.19,-354.97L68.55,-369.98L81.7,-358.96L79.88,-392.89L107.49,-394.75L130.05,-350.92z"/>
		<path id="UG-115" title="Nakaseke" class="land" d="M-9.83,-114.06L-9.83,-114.06L-1.06,-73.03L-17.74,-57.12L-29.01,-60.05L-33.08,-73.47L-29.37,-84.52L-47.77,-95.14L-57.21,-115.47L-70.89,-141.96L-56.53,-154.39L-9.83,-114.06z"/>
		<path id="UG-114" title="Mityana" class="land" d="M-29.01,-60.05L-29.01,-60.05L-24.78,-45.45L-24.61,-27.95L-37.52,-26.75L-70.97,-29.6L-55.81,-35.33L-57.17,-67.83L-33.08,-73.47L-29.01,-60.05z"/>
		<path id="UG-107" title="Mubende" class="land" d="M-57.17,-67.83L-57.17,-67.83L-55.81,-35.33L-70.97,-29.6L-96.75,-35.31L-121.88,-20.98L-155.97,-21.62L-142.48,-50.74L-131.36,-54.8L-134.47,-65.1L-111.07,-90.11L-86.33,-90.59L-57.17,-67.83z"/>
		<path id="UG-104" title="Luweero" class="land" d="M29.31,-113.1L29.31,-113.1L30.61,-88.41L26.5,-61.46L17.8,-58.2L-17.74,-57.12L-1.06,-73.03L-9.83,-114.06L12.96,-101.26L14.63,-118.81L29.31,-113.1z"/>
		<path id="UG-113" title="Wakiso" class="land" d="M-17.74,-57.12L-17.74,-57.12L17.8,-58.2L16.69,-52.68L5.13,-50.56L2.46,-31.73L17.17,-30.08L12.73,-0.25L-0.72,17.06L-26.34,16.57L-28.56,-5.19L-6.32,-37.66L-24.78,-45.45L-29.01,-60.05L-17.74,-57.12z"/>
		<path id="UG-109" title="Nakasongola" class="land" d="M-20.62,-172.46L-20.62,-172.46L19.66,-153.83L29.31,-113.1L14.63,-118.81L12.96,-101.26L-9.83,-114.06L-56.53,-154.39L-41.4,-172.37L-20.62,-172.46z"/>
		<path id="UG-103" title="Kiboga" class="land" d="M-33.08,-73.47L-33.08,-73.47L-57.17,-67.83L-86.33,-90.59L-57.21,-115.47L-47.77,-95.14L-29.37,-84.52L-33.08,-73.47z"/>
		<path id="UG-102" title="Kampala" class="land" d="M17.17,-30.08L17.17,-30.08L2.46,-31.73L5.13,-50.56L16.69,-52.68L17.17,-30.08z"/>
		<path id="UG-320" title="Maracha" class="land" d="M-151.27,-346.71L-151.27,-346.71L-165.7,-326.2L-181.64,-326.85L-166.83,-354.37L-151.27,-346.71z"/>
		<path id="UG-313" title="Yumbe" class="land" d="M-92.68,-386.95L-92.68,-386.95L-108.39,-361.9L-102.03,-329.08L-103.29,-326.35L-135.4,-349.01L-151.27,-346.71L-149.71,-390.59L-134.42,-396.95L-104.02,-383.06L-92.68,-386.95z"/>
		<path id="UG-309" title="Moyo" class="land" d="M-49.97,-375.36L-49.97,-375.36L-84.38,-364.88L-102.03,-329.08L-108.39,-361.9L-92.68,-386.95L-75.2,-399.41L-49.97,-375.36z"/>
		<path id="UG-310" title="Nebbi" class="land" d="M-112.59,-273.85L-112.59,-273.85L-101.72,-260.49L-120.74,-228.02L-127.59,-225.08L-160.24,-251.67L-151.84,-270.87L-130.54,-275.76L-115.8,-291.46L-112.59,-273.85z"/>
		<path id="UG-419" title="Buliisa" class="land" d="M-119.09,-181.83L-119.09,-181.83L-122.69,-190.5L-148.99,-192.55L-127.59,-225.08L-120.74,-228.02L-99.79,-238.31L-100.45,-216.04L-89.41,-200.97L-99.45,-183.89L-119.09,-181.83z"/>
		<path id="UG-316" title="Koboko" class="land" d="M-151.27,-346.71L-151.27,-346.71L-166.83,-354.37L-173.23,-366.93L-149.71,-390.59L-151.27,-346.71z"/>
		<path id="UG-303" title="Arua" class="land" d="M-103.29,-326.35L-103.29,-326.35L-114.82,-309.27L-115.8,-291.46L-130.54,-275.76L-151.84,-270.87L-160.44,-286.41L-180.87,-279.98L-172.07,-302.74L-181.64,-326.85L-165.7,-326.2L-151.27,-346.71L-135.4,-349.01L-103.29,-326.35z"/>
		<path id="UG-301" title="Adjumani" class="land" d="M-46.63,-372.55L-46.63,-372.55L-59.52,-317.72L-98.84,-300.22L-114.82,-309.27L-103.29,-326.35L-102.03,-329.08L-84.38,-364.88L-49.97,-375.36L-46.63,-372.55z"/>
		<path id="UG-106" title="Mpigi" class="land" d="M-26.34,16.57L-26.34,16.57L-59.03,13.26L-67.38,0.77L-24.61,-27.95L-24.78,-45.45L-6.32,-37.66L-28.56,-5.19L-26.34,16.57z"/>
		<path id="UG-111" title="Sembabule" class="land" d="M-121.88,-20.98L-121.88,-20.98L-94.99,-5.16L-93.38,27.42L-127.79,27.28L-126.8,7.95L-148.77,4.65L-156.82,-21.16L-155.97,-21.62L-121.88,-20.98z"/>
		<path id="UG-210" title="Pallisa" class="land" d="M134.84,-137.4L134.84,-137.4L149.22,-130.35L169.08,-123.21L170.47,-116.58L146.83,-122.16L118.5,-113.77L98.58,-134.68L94.66,-139.7L110.8,-139.13L134.84,-137.4z"/>
		<path id="UG-108" title="Mukono" class="land" d="M55.61,-61.4L55.61,-61.4L54.45,-37.65L10.98,17.06L-0.72,17.06L12.73,-0.25L17.17,-30.08L16.69,-52.68L17.8,-58.2L26.5,-61.46L30.61,-88.41L55.61,-61.4z"/>
		<path id="UG-211" title="Soroti" class="land" d="M136.92,-178.71L136.92,-178.71L137.08,-174.52L127.12,-166.5L105.55,-165.82L89.34,-179.59L98.71,-197.45L107.83,-210.58L136.92,-178.71z"/>
		<path id="UG-222" title="Namutumba" class="land" d="M130,-97.92L130,-97.92L139.89,-72.13L118.25,-76.66L107.92,-92.14L118.5,-113.77L130,-97.92z"/>
		<path id="UG-220" title="Kaliro" class="land" d="M118.5,-113.77L118.5,-113.77L107.92,-92.14L96.99,-91.15L87.73,-112.89L98.58,-134.68L118.5,-113.77z"/>
		<path id="UG-314" title="Amolatar" class="land" d="M51.18,-179.45L51.18,-179.45L48.55,-154.14L32.57,-154.31L19.66,-153.83L-20.62,-172.46L9.91,-172.8L28.59,-188.46L51.18,-179.45z"/>
		<path id="UG-205" title="Kamuli" class="land" d="M83.38,-98.71L83.38,-98.71L75.44,-70.27L57.42,-69.36L48.25,-123.61L83.38,-98.71z"/>
		<path id="UG-203" title="Iganga" class="land" d="M118.25,-76.66L118.25,-76.66L115.98,-46.26L111.47,-47.14L106.38,-57.27L96.99,-91.15L107.92,-92.14L118.25,-76.66z"/>
		<path id="UG-112" title="Kayunga" class="land" d="M48.25,-123.61L48.25,-123.61L57.42,-69.36L62.61,-56.92L55.61,-61.4L30.61,-88.41L29.31,-113.1L19.66,-153.83L32.57,-154.31L48.25,-123.61z"/>
		<path id="UG-213" title="Kaberamaido" class="land" d="M91.12,-211.25L91.12,-211.25L98.71,-197.45L89.34,-179.59L78.95,-177.75L74.06,-143.19L48.55,-154.14L51.18,-179.45L62.19,-179.62L82.76,-213.36L91.12,-211.25z"/>
		<path id="UG-208" title="Kumi" class="land" d="M179.03,-170.64L179.03,-170.64L180.91,-162.74L161.36,-156.38L149.22,-130.35L134.84,-137.4L146,-171.4L179.03,-170.64z"/>
		<path id="UG-204" title="Jinja" class="land" d="M75.44,-70.27L75.44,-70.27L106.38,-57.27L111.47,-47.14L92.78,-31.65L80.84,-36.63L62.61,-56.92L57.42,-69.36L75.44,-70.27z"/>
		<path id="UG-101" title="Kalangala" class="land" d="M-26.34,16.57L-26.34,16.57L-0.72,17.06L10.98,17.06L36.32,17.06L36.32,48.33L36.32,104.87L-53.74,104.87L-53.74,80.95L-53.74,43.22L-45.2,36.61L-54.96,24.1L-59.03,13.26L-26.34,16.57z"/>
	</g>
</svg>
