<?xml version="1.0" encoding="utf-8"?>
<!-- (c) ammap.com | SVG map of UN Regions - Low -->
<svg xmlns="http://www.w3.org/2000/svg" xmlns:amcharts="http://amcharts.com/ammap" xmlns:xlink="http://www.w3.org/1999/xlink" version="1.1">
	<defs>
		<style type="text/css">
			.land
			{
				fill: #CCCCCC;
				fill-opacity: 1;
				stroke:white;
				stroke-opacity: 1;
				stroke-width:0.5;
			}
		</style>

		<amcharts:ammap projection="mercator" leftLongitude="-169.115834" topLatitude="83.646363" rightLongitude="190.122401" bottomLatitude="-58.50559"></amcharts:ammap>

		<!-- All areas are listed in the line below. You can use this list in your script. -->
		<!--{id:"nAfrica"},{id:"mAfrica"},{id:"eAfrica"},{id:"wAfrica"},{id:"sAfrica"},{id:"nAmerica"},{id:"caribbean"},{id:"cAmerica"},{id:"sAmerica"},{id:"cAsia"},{id:"eAsia"},{id:"sAsia"},{id:"seAsia"},{id:"wAsia"},{id:"eEurope"},{id:"nEurope"},{id:"sEurope"},{id:"wEurope"},{id:"australiaNZ"},{id:"melanesia"}-->

	</defs>
	<g>
		<path id="nAfrica" title="Northern Africa" class="land" d="M581.415,411.318l-1.068,-0.724l-1.029,-3.524l-0.407,-3.06l0.615,-0.542l-0.904,-2.94l-0.492,-0.616l-3.266,-2.712l-0.09,-1.975l0.557,-0.531l-2.516,-3.392l-0.901,-1.742l-1.036,-1.685l-2.119,-4.872l-1.721,-3.182l-1.162,-3.373l0.288,-0.292l2,4.578l1.266,1.413l0.934,1.018l0.654,-0.55l0.763,-1.646l0.604,-2.403l0.788,-1.286l-1.843,-5.555l-1.379,0.821l-2.186,-0.185l-2.248,-0.77l-0.65,1.064l-0.764,-1.618l-1.994,-0.413l-2.473,0.27l-1.154,0.936l-2.159,1.031l-1.298,-0.506l-2.784,-0.964l-2.698,-0.865l-3.73,0.054l-0.684,-1.083l-2.786,-0.386l-0.893,-0.562l-1.044,-0.014l-0.956,-1.478l-3.793,-0.679l-1.93,0.453l-2.021,1.55l-0.879,1.601l0.653,2.503l-1.344,1.493l-1.367,0.839l-2.987,-1.61l-3.952,-1.362l-2.517,-0.634L518,368.294l-3.721,-1.479l-2.342,-0.554l-1.178,0.286l-3.293,-1.145l-1.066,-0.521l-0.706,-1.592l-1.45,-0.057l-0.533,-1.836l1.846,-1.704l0.369,-2.959l-0.971,-0.855l0.019,-1.6l1.402,-1.705l-0.2,-0.672l-2.378,1.285l0.083,-1.768l-1.963,-0.421l-3.053,1.413l-1.917,0.212l-1.141,-0.813l-2.996,0.027l-2.64,1.376l-1.414,-0.518l-4.638,0.283l-4.751,0.621l-2.7,1.057l-1.771,1.425l-3.031,0.598l-2.695,1.873l-1.218,-0.037l-2.904,-0.755l-2.667,0.236l-1.69,-1.456l-2.064,-0.017l-0.881,2.104l-1.874,3.512l-2.079,1.39l-2.813,1.528l-1.803,2.246l-0.376,1.738l-1.065,2.819l0.701,4.031l-2.34,2.677l-1.406,0.85l-2.209,2.169l-2.607,0.35l-1.41,1.211l-0.016,0.014l-0.036,0.03l-1.777,3.2l-1.868,1.135l-1.012,1.917l-0.066,1.644l-0.742,1.792l-0.944,0.494l-1.561,1.941l-0.964,2.143l0.181,1.024l-0.917,1.571l-1.077,0.819l-0.132,1.39l-0.121,1.264l0.612,-0.997l10.98,0.019l-0.532,-4.344l0.686,-1.556l2.627,-0.272l-0.09,-7.851l9.203,0.162l0.008,-4.726l10.545,7.525l9.458,6.654l9.458,6.547l0.667,1.393l1.746,0.849l1.298,0.481l0.032,1.88l3.11,-0.289l3.954,-1.317l8.118,-5.85l9.608,-5.752l4.435,1.309l1.577,1.661l1.983,-1.123l2.831,-1.658l11.183,5.776l11.183,5.699l0.138,11.608l-2.418,-0.203l-1.28,2.127l-0.742,1.778l0.585,0.672l-0.922,0.88l0.318,1.187l-0.727,1.192l-0.282,1.049l0.984,-0.165l0.588,1.101l0.031,1.654l1.03,0.838l-0.034,0.688l0.318,1.214l1.617,1.771l0.008,1.153l-0.456,1.175l0.18,0.877l0.973,0.812l0.228,0.131l0.861,-0.307l0.963,-0.532l0.722,-2.52l0.77,-1.312l2.021,-0.389l0.481,0.777l1.444,1.65l0.771,0.242l1.011,-0.485l2.021,0.097l0.385,0.582h2.792l0.096,-0.582l1.444,-0.534l0.289,-0.825l1.059,-0.583l2.358,1.651l1.444,-0.291l1.396,-2.041l1.541,-1.558l-0.241,-1.708l-0.674,-0.831l1.685,-0.147l0.192,-0.636l1.3,0.196l-0.337,2.101l0.337,2.047l1.444,1.119l0.337,0.972l-0.048,1.407l0.388,0.056l-0.005,-0.337l0.829,-2.961l1.328,-0.794l0.282,-1.16l1.203,-2.174l1.691,-1.413l1.14,-2.817l0.447,-2.466l-0.298,-1.153l1.208,-4.25l0.276,-1.933l0.883,-0.894l2.065,-0.48l1.419,-1.67L581.415,411.318zM450.956,383.148v-0.008l0.001,0.211L450.956,383.148z"/>
		<path id="mAfrica" title="Middle Africa" class="land" d="M556.894,469.771l-0.259,1.525l0.705,1.268l0.178,3.367l0.504,2.572l-0.28,1.456l0.561,1.625l1.626,1.57l1.514,3.542l-1.104,-0.286l-3.766,0.475l-0.751,0.336l-0.799,1.8l0.627,1.245l-0.498,3.351l-0.347,2.851l0.757,0.507l1.96,1.109l0.77,-0.518l0.234,3.08l-2.146,-0.024l-1.151,-1.573l-1.033,-1.216l-2.149,-0.398l-0.629,-1.492l-1.714,0.898l-2.246,-0.397l-0.937,-1.291l-1.78,-0.262l-1.314,0.069l-0.161,-0.883l-0.967,-0.071l0.296,0.881l-0.319,1.379l0.493,1.335l-0.418,1.068l0.239,0.986l-5.838,-0.036l-0.129,9.158l1.892,2.377l1.83,1.823l-5.153,1.192l-6.788,-0.414l-1.943,-1.4l-11.366,0.126l-0.424,0.205L513,511.367l-1.818,-0.087l-1.678,0.497l-1.35,0.555l-0.264,-1.833l0.388,-2.552l0.967,-2.645l0.146,-1.236l0.91,-2.588l0.668,-1.173l1.611,-1.87l0.899,-1.269l0.294,-2.107l-0.147,-1.609l-0.838,-1.013l-0.747,-1.716l-0.689,-1.694l0.15,-0.586l0.862,-1.117l-0.851,-2.718l-0.574,-1.88l-1.405,-1.774l0.267,-0.544l-0.393,-0.869l-0.75,-2.104l-2.302,-2.959l-2.881,-2.816l-1.853,-2.301l-1.703,-2.878l0.09,-0.925l0.612,-0.891l0.681,-2.028l0.565,-2.065l-0.525,-0.42l0.963,-3.129l0.41,-2.201l-1.096,-1.845l-1.279,-0.473l-0.57,-1.251l-0.718,-0.4l0.032,-0.772l0.721,-1.979l1.334,-2.702l0.812,-0.025l1.67,-1.642l1.063,-0.046l1.574,1.153l1.926,-0.945l0.262,-1.167l0.63,-1.132l0.434,-1.423l1.5,-1.161l0.566,-1.975l0.595,-0.629l0.396,-1.47l0.741,-1.808l2.362,-2.198l0.148,-0.946l0.305,-0.514l-1.11,-1.136l0.09,-0.909l0.792,-0.164l0.28,-1.347l-1.798,-0.066l0.006,-1.844l-1.167,-1.064l1.21,-3.8l3.577,-2.736l0.148,-3.796l1.08,-5.979l0.61,-1.278l-1.167,-1.021l-0.045,-0.949l-1.049,-0.777l-0.689,-4.677l2.831,-1.658l11.183,5.776l11.183,5.699l0.138,11.608l-2.418,-0.203l-1.28,2.127l-0.742,1.778l0.585,0.672l-0.922,0.88l0.318,1.187l-0.727,1.192l-0.282,1.049l0.984,-0.165l0.588,1.101l0.031,1.654l1.03,0.838l-0.034,0.688l0.318,1.214l1.617,1.771l0.008,1.153l-0.456,1.175l0.18,0.877l0.973,0.812l2.135,1.231l1.535,1.137l0.026,0.914l1.886,1.462l1.168,1.213l0.708,1.681l2.096,1.108l0.451,0.887l1.698,2.308l1.259,0.338l0.75,-0.469l1.296,0.184l1.562,-0.591l0.666,1.193l2.468,1.855l-0.169,3.261l1.124,0.377l-0.901,0.989l-1.077,0.74l-1.072,1.453l-0.59,1.295l-0.158,2.236l-0.649,1.064l-0.023,2.1l-0.806,0.777l-0.104,1.658L556.894,469.771z"/>
		<path id="eAfrica" title="Eastern Africa" class="land" d="M618.366,432.084l0.011,1.491l-0.593,1.023l-0.79,3.055l-1.35,3.147l-1.733,3.587l-2.406,4.105l-2.394,3.129l-3.298,3.807l-2.806,2.257l-4.194,2.766l-2.614,2.119l-3.068,3.374l-0.646,1.469l-0.633,0.66l-1.964,1.113l-0.692,1.163l-1.051,0.204l-0.397,1.965l-0.9,1.126l-0.547,1.858l-1.129,0.922l-1.294,3.447l0.166,1.588l1.795,1.021l0.084,0.73l-0.772,1.696l0.161,0.854l-0.184,1.344l0.979,1.767l1.16,2.786l1.029,0.619l0.454,1.271l-0.116,2.83l0.347,2.501l0.109,4.477l0.493,1.409l-0.836,2.062l-1.088,2.011l-1.785,1.801l-2.563,1.107l-3.16,1.417l-3.168,3.147l-1.079,0.538l-1.957,2.097l-1.155,0.685l-0.237,2.117l1.33,2.259l0.553,1.758l0.035,0.899l0.495,-0.15l-0.08,2.961l-0.455,1.41l0.661,0.521l-0.417,1.269l-1.172,1.088l-2.313,1.037l-3.372,1.667l-1.23,1.143l0.24,1.307l0.717,0.209l-0.241,1.64l-2.126,-0.026l-0.241,-1.377l-0.415,-1.393l-0.239,-1.111l0.5,-3.428l-0.729,-2.168l-1.343,-4.261l-1.49,-0.301l-0.945,0.361l-1.357,-0.51l-1.141,-0.033l-1.788,-1.357l-2.168,-0.46l-0.825,-1.896l-0.007,-1.051l-1.201,-0.32l-3.173,-3.255l-0.882,-1.706l-0.564,-0.525l-1.079,-2.344l-0.504,-0.219l-0.021,-0.243l-1.106,-0.658l-1.818,-0.168l-2.296,0.664l-1.83,-1.823l-1.892,-2.377l0.129,-9.158l5.838,0.036l-0.239,-0.986l0.418,-1.068l-0.493,-1.335l0.319,-1.379l-0.296,-0.881l0.967,0.071l0.161,0.883l1.314,-0.069l1.78,0.262l0.937,1.291l2.246,0.397l1.714,-0.898l0.629,1.492l2.149,0.398l1.033,1.216l1.151,1.573l2.146,0.024l-0.234,-3.08l-0.77,0.518l-1.96,-1.109l-0.757,-0.507l0.347,-2.851l0.498,-3.351l-0.627,-1.245l0.799,-1.8l0.751,-0.336l3.766,-0.475l1.104,0.286l-1.514,-3.542l-1.626,-1.571l-0.561,-1.625l0.28,-1.456l-0.504,-2.572l-0.178,-3.367l-0.705,-1.268l0.259,-1.525l0.385,-0.215l0.104,-1.658l0.806,-0.777l0.023,-2.1l0.649,-1.064l0.158,-2.236l0.59,-1.295l1.072,-1.453l1.077,-0.74l0.901,-0.989l-1.124,-0.377l0.17,-3.261l-2.468,-1.855l-0.666,-1.193l-1.562,0.591l-1.296,-0.184l-0.75,0.469l-1.259,-0.338l-1.698,-2.308l-0.451,-0.887l-2.096,-1.108l-0.708,-1.681l-1.168,-1.213l-1.886,-1.462l-0.026,-0.914l-1.535,-1.137l-1.908,-1.1l0.861,-0.307l0.963,-0.532l0.722,-2.52l0.77,-1.312l2.021,-0.389l0.481,0.777l1.444,1.65l0.771,0.242l1.011,-0.485l2.021,0.097l0.385,0.582h2.792l0.096,-0.582l1.444,-0.534l0.289,-0.825l1.059,-0.583l2.358,1.651l1.444,-0.291l1.396,-2.041l1.541,-1.558l-0.241,-1.708l-0.674,-0.831l1.685,-0.147l0.192,-0.636l1.3,0.196l-0.337,2.101l0.337,2.047l1.444,1.119l0.337,0.972l-0.048,1.407l0.388,0.056l0.032,2.199l-0.037,-2.537l0.829,-2.961l1.328,-0.794l0.282,-1.16l1.203,-2.174l1.691,-1.413l1.14,-2.817l0.447,-2.466l-0.298,-1.153l1.208,-4.25l0.277,-1.933l0.883,-0.894l2.065,-0.48l1.419,-1.67l1.628,3.381l0.772,2.666l1.537,1.41l3.827,2.724l1.558,1.639l1.52,1.654l0.877,0.983l1.378,0.86l0.664,0.883l-0.088,1.184l-1.6,0.681l1.204,0.778l0.912,0.524l0.55,1.174l1.265,1.187l1.392,0.009l2.643,-0.725l3.052,-0.336l2.468,-0.881l1.391,-0.187l1.001,-0.519l1.597,-0.1l0.896,-0.056l1.292,-0.422l1.486,-0.286l1.327,-0.975l1.063,-0.008l0.063,0.787L618.366,432.084zM615.604,501.501l-0.693,-1.89l-0.744,-1.215l-0.979,-1.224l-0.929,1.275l-0.052,1.718l-1.545,1.991l-1.191,-0.345l0.382,1.227l-0.841,1.447l-2.308,1.775l-1.598,1.648l-1.231,0.039l-1.038,0.524l-1.564,0.595l-1.397,0.106l-0.376,1.844l-0.979,1.632l0.224,2.698l0.531,1.855l0.65,1.397l-0.253,1.886l-1.34,2.255l-0.008,0.994l-1.291,0.518l-0.502,2.163l0.256,2.17l0.987,2.417l0.185,2.707l0.774,1.62l2.226,1.103l1.615,0.789l2.448,-1.306l2.28,-0.729l1.267,-3.55l1.074,-4.214l1.732,-5.675l1.383,-4.083l1.104,-3.427l0.177,-2.476l0.773,-0.673l0.249,-1.233l-0.535,-2.148l0.527,-0.856l0.952,1.696l0.496,-0.853l0.278,-1.386l-0.726,-1.349L615.604,501.501z"/>
		<path id="wAfrica" title="Western Africa" class="land" d="M519.843,405.35l-0.61,1.278l-1.08,5.979l-0.148,3.796l-3.577,2.736l-1.21,3.8l1.167,1.064l-0.006,1.844l1.798,0.066l-0.28,1.347l-0.792,0.164l-0.09,0.909l1.11,1.136l-0.305,0.514l-0.148,0.946l-2.362,2.198l-0.741,1.808l-0.396,1.47l-0.595,0.629l-0.566,1.975l-1.5,1.161l-0.434,1.423l-0.63,1.132l-0.262,1.167l-1.926,0.945l-1.574,-1.153l-1.063,0.046l-1.67,1.642l-0.812,0.025l-1.334,2.702l-0.721,1.979l-2.911,1.006l-1.064,-0.147l-1.078,0.626l-2.243,-0.061l-1.501,-1.748l-0.923,-2.024l-1.985,-1.845l-2.107,0.035l-2.474,-0.001l-2.317,0.327l-2.257,0.597l-4.396,1.639l-1.559,0.959l-2.526,0.811l-2.5,-0.794l-1.275,0.029l-1.957,-0.547l-1.797,0.032l-3.321,0.488l-1.947,0.807l-2.776,1.025l-0.542,-0.073l-0.735,0.024l-2.89,-1.332l-2.548,-2.129l-2.389,-1.532l-1.888,-1.809l-0.755,-0.208l-2.019,-1.131l-1.46,-1.505l-0.491,-1.028l-0.343,-2.082l-1.23,-1.67l-1.09,-1.106l-0.718,-0.366l-0.7,-0.563l-0.318,-1.251l-0.41,-0.625l-0.815,-0.465l-1.497,-1.187l-1.181,-0.188l-0.644,-0.802l0.016,-0.433l-0.854,-0.604l-0.179,-0.61l-0.46,-2.19l0.358,-1.271l-1.156,-2.235l-1.399,-1.025l1.233,-0.547l1.358,-2.028l0.666,-1.487l-0.243,-1.565l0.783,-1.437l0.348,-2.753l-0.31,-2.906l-0.338,-1.468l0.28,-1.478l-0.725,-1.413l-1.478,-1.288l0.612,-0.997l10.98,0.019l-0.532,-4.344l0.686,-1.556l2.627,-0.272l-0.09,-7.851l9.203,0.162l0.008,-4.726l10.545,7.525l9.458,6.654l9.458,6.547l0.667,1.393l1.746,0.849l1.298,0.481l0.032,1.88l3.11,-0.289l3.954,-1.317l8.118,-5.85l9.608,-5.752l4.435,1.309l1.577,1.661l1.983,-1.123l0.689,4.677l1.049,0.777l0.045,0.949L519.843,405.35z"/>
		<path id="sAfrica" title="Southern Africa" class="land" d="M567.304,540.763l-0.701,2.281l-0.331,2.622l-0.726,1.433l-1.913,1.611l-0.548,0.462l-1.188,1.631l-0.782,1.658l-1.59,2.327l-3.169,3.382l-1.979,1.984l-2.117,1.514l-2.931,1.297l-1.429,0.174l-0.362,0.933l-1.704,-0.497l-1.388,0.64l-3.039,-0.648l-1.699,0.41l-1.161,-0.176l-2.892,1.33l-2.394,0.535l-1.732,1.282l-1.275,0.082l-1.187,-1.209l-0.947,-0.062l-1.208,-1.507l-0.133,0.467l-0.373,-0.905l0.016,-1.964l-0.911,-2.229l0.905,-0.603l-0.073,-2.527l-1.836,-3.053l-1.409,-2.737l-0.004,-0.009l-2.013,-4.153l-2.084,-2.391l-1.097,-2.296l-0.619,-3.037l-0.691,-2.243l-0.939,-4.724l-0.063,-3.63l-0.359,-1.645l-1.091,-1.239l-1.447,-2.472l-1.474,-3.564l-0.612,-1.855l-2.281,-2.87l-0.17,-2.244l1.35,-0.555l1.678,-0.497l1.818,0.087l1.671,1.319l0.424,-0.205l11.366,-0.126l1.943,1.4l6.788,0.414l5.153,-1.192l2.296,-0.664l1.818,0.168l1.106,0.658l0.021,0.243l0.504,0.219l1.079,2.344l0.564,0.525l0.882,1.706l3.173,3.255l1.201,0.32l0.007,1.051l0.825,1.896l2.168,0.46l1.788,1.357l1.141,0.033l1.357,0.51l0.945,-0.361l1.49,0.301l1.343,4.261l0.729,2.168l-0.5,3.428l0.239,1.111l0.415,1.393l0.241,1.377L567.304,540.763z"/>
		<path id="nAmerica" title="North America" class="land" d="M37.864,404.229l-0.234,0.357l-0.94,0.213l-0.483,-0.627l-0.322,-0.243l-0.025,-0.186l0.274,-0.256l0.997,0.284L37.864,404.229zM40.026,406.522l-0.498,-0.257l-1.074,-0.501l-0.213,-0.055l-0.163,0.277l0.193,0.583l-0.487,0.483l-0.14,0.33l0.464,1.077l-0.08,0.825l0.696,0.422l0.41,-0.493l0.897,-0.461l1.096,-0.631l0.067,-0.164l-0.714,-1.037L40.026,406.522zM32.174,401.379l-0.75,0.414l0.109,0.12l0.356,0.679l0.976,0.105l0.201,0.039l0.152,-0.173l-0.81,-0.99L32.174,401.379zM27.769,399.818l-0.428,0.295l-0.145,0.219l0.944,0.548l0.333,-0.297l-0.058,-0.701L27.769,399.818zM45.622,263.786l-1.497,0.802l-2.547,1.858l0.434,2.421l1.434,1.321l2.8,-1.955l2.426,-2.465l-1.188,-1.627L45.622,263.786zM34.136,403.233l1.502,0.087l0.087,-0.323l-1.38,-0.128L34.136,403.233zM0,235.225l2.042,-1.258l0.231,-0.677L0,232.608V235.225zM8.502,250.587l-2.769,0.967l1.702,1.524l1.838,1.042l1.721,-0.867l-0.268,-2.154L8.502,250.587zM105.845,283.087l-2.691,0.381l-1.318,-0.62l-0.167,1.518l0.519,2.074l1.415,1.456l1.036,2.133l1.689,2.097l1.118,0.009l-2.44,-3.702L105.845,283.087zM439.447,42.644l-8.406,-3.813l-13.614,7.55l-7.139,6.924l3.079,-10.966l-2.332,-7.15l-5.443,6.123l-8.446,-6.912l-9.925,2.242l-1.412,-3.645l15.092,-2.03l10.727,-0.923l5.177,-8.31L399.267,3.147L376.872,0l-9.909,2.416l-3.576,8.952l-9.838,-1.065l-9.414,13.604l-0.384,9.095l6.667,10.77l-5.823,-6.412l-3.937,-1.594l-6.692,-7.779l-7.438,11.324l-3.059,-6.306l-8.617,0.183l-8.622,3.21l-6.642,5.239l1.168,8.57l-4.079,1.979l-9.707,12.333l-2.444,6.645l7.568,5.762l-1.084,5.637l-10.27,7.159l-10.615,6.868l-0.386,5.343l6.32,5.433l11.998,3.369l-5.644,0.676l-7.362,3.969l4.872,7.66l3.254,3.746l6.842,-0.857l7.494,-0.473l5.953,0.852l7.524,6.69l-0.033,4.627l3.57,4.179l3.375,10.906l2.225,6.743l1.705,3.523l-3.13,8.507l2.34,2.192l2.792,-1.241l2.509,3.004l4.82,5.435l-5.723,-2.255l-2.601,0.123l-1.097,4.478l0.187,5.551l3.441,2.605l2.519,-1.133l1.526,-1.19l3.203,-2.867l-0.586,6.262l-1.107,3.26l-4.22,2.849l-2.772,8.656l1.872,2.528l-1.01,5.17l3.884,6.267l0.382,5.893l1.421,4.155l4.859,7.672l1.871,5.804l2.72,3.18l5.606,0.029l4.139,4.634l3.951,-0.342l1.436,-5.565l1.26,-4.85l-1.129,-4.706l4.572,-4.949l1.418,-4.166l0.039,-4.558l2.402,-4.122l4.029,-1.583l3.733,-1.679l1.938,-0.283l6.03,-4.89l3.9,-7.635l2.9,-2.872l3.093,-0.032l8.205,-2.617l7.621,-6.125l7.515,-7.03l-3.865,-0.45l-7.389,-0.351l3.257,-4.411l-0.959,-5.869l3.467,4.98l2.162,3.262l4.998,-1.623l-1.063,-6.955l-3.673,-5.476l-3.785,-2.292l1.443,-2.489l5.548,3.833l-0.038,-4.127l-3.513,-6.481l3.908,-0.028l3.953,-1.518l0.919,-3.51l-3.251,-4.14l6.229,-0.742L417.302,137l2.998,-1.016l-0.659,-9.626l-5.174,-6.3l4.611,-3.88l4.38,-0.513l-3.367,-8.334l-0.088,-15.256l2.257,-9.599l3.279,-11.507l-6.493,-0.786l8.961,-2.866l1.583,-3.893l11.431,-12.667L439.447,42.644zM192.118,185.406l-5.06,-3.927l-4.709,-4.208l-0.869,-6.18l-1.76,-8.925l-3.141,-3.839l-2.787,-1.547l-2.467,1.417l1.992,9.586l-1.409,3.731l-2.294,-8.979l-2.562,-3.105l-3.168,4.814l-3.899,-4.76l-6.239,2.868l1.399,-4.463l-2.865,-1.875l-7.507,5.838l-1.952,3.711l-2.354,6.771l4.896,2.317l4.325,-0.122l-6.503,3.461l1.479,3.129l3.976,0.169l5.991,-0.669l5.422,1.959l-3.66,1.445l-3.953,-0.372l-4.328,1.409l-1.865,0.874l3.455,6.354l2.489,-0.883l3.828,2.145l1.519,3.651l4.988,-0.725l7.105,-1.157l5.264,-2.646l3.26,-0.479l4.823,2.115l5.074,1.219l0.945,-2.859l-1.789,-3.049l4.604,-0.645L192.118,185.406zM199.863,184.425l-1.96,3.539l-2.468,2.486l3.829,3.541l2.284,-0.854l3.779,2.358l1.743,-2.732l-1.709,-3.03l-0.841,-1.526l-1.682,-1.458L199.863,184.425zM182.25,154.982l-2.131,-2.175l-3.757,0.397l-0.953,1.384l4.374,6.752L182.25,154.982zM210.937,168.154l3.008,-6.927l3.343,-1.848l4.189,-8.743l-5.356,-2.47l-5.842,-0.357l-2.782,2.77l-1.465,4.231l-0.043,4.817l1.75,8.188L210.937,168.154zM195.404,139.803l4.623,-1.106l1.277,-8.252l-0.087,-5.945l-2.144,-5.56l-0.216,1.596l-3.943,-0.699l-4.223,4.087l-3.017,-0.37l0.178,8.924l4.596,-0.868l-0.058,6.465L195.404,139.803zM202.943,154.49l-0.729,-2.881l-5.002,1.264l-3.344,-2.107l-3.318,4.804l3.089,6.282l-5.725,-1.174l-0.056,3.011l6.968,7.046l1.94,3.38l2.701,0.731l4.598,-3.413l0.504,-8.211l-4.244,-4.074L202.943,154.49zM211.251,143.053l1.525,-4.14l-1.023,-3.458l-2.448,-3.918l-4.031,3.018l-1.493,4.924l3.399,2.787L211.251,143.053zM264.358,205.358l0.316,-1.009l-0.031,-3.175l-2.189,-2.084l-2.57,1.047l-1.191,4.167l0.7,3.559l3.143,-0.361L264.358,205.358zM222.346,51.338l2.336,7.293l4.957,5.88l9.811,-1.088l6.313,1.968l-4.375,6.053l-2.214,-1.776l-7.664,-0.712l1.19,8.314l3.96,6.036l-0.795,5.201l-4.972,3.462l-2.271,5.471l4.548,2.646l3.823,8.549l-7.497,-5.703l-1.71,0.941l1.381,9.377l-5.184,2.833l0.352,5.851l5.301,0.626l4.173,1.438l8.236,-1.845l7.327,3.269l7.492,-7.191l-0.061,-3.019l-4.791,0.482l-0.392,-2.841l3.917,-3.829l1.33,-5.151l4.332,-3.829l2.664,-4.762l-2.319,-7.103l1.938,-2.649l-3.865,-1.887l8.489,-1.628l1.787,-3.147l5.784,-2.604l4.795,-13.473l4.569,-4.943l6.616,-11.124l-6.104,0.098l2.535,-4.303l6.784,-3.993l6.841,-8.903l0.123,-5.731l-5.131,-6.042l-6.021,-2.93l-7.494,-1.819l-6.072,-1.489l-6.073,-1.503l-8.095,3.977l-1.49,-2.527l-8.57,0.976l-5.028,2.571l-3.701,3.65L242.028,30.5L239,24.517l-3.477,-1.142l-4.122,7.97l-5.501,3.348l-3.274,0.664l-4.169,3.837l0.614,6.646L222.346,51.338zM284.83,184.604l-2.442,-3.354l-6.769,-3.352l-2.922,-5.549l-5.207,1.991l-0.363,-3.863l-3.862,-4.322l-6.221,-4.714l-2.652,3.714l-5.547,2.662l0.417,-6.064l-4.81,-10.052l-7.106,4.063l-2.591,7.701l-2.209,-5.923l2.063,-6.371l-7.24,2.651l-2.883,3.991l-2.155,8.421l0.889,9.051l3.983,0.038l-2.932,3.924l2.332,2.961l4.547,1.255l5.931,2.417l10.204,1.818l5.083,-1.044l1.501,-2.42l2.211,2.788l2.471,0.462l2.968,4.965l-1.796,1.98l5.68,2.626l4.295,3.678l1.081,2.55l0.771,3.239l-3.627,6.925l-0.979,3.443l0.937,2.423l-5.772,0.859l-5.269,0.119l-1.847,4.869l2.372,2.226l8.107,-1.031l-0.045,-1.889l4.083,3.148l4.183,3.276l-0.979,1.773l3.398,3.021l6.017,3.535l7.604,2.391l-0.456,-2.089l-2.92,-3.672l-3.963,-5.373l7.033,4.997l3.536,1.66l0.966,-4.438l-1.825,-6.298l-1.155,-1.729l-3.806,-3.035l-2.949,-3.911l0.354,-3.942l3.628,-0.874l4.408,6.601l3.45,2.855l4.921,-7.87l0.873,-4.933l-4.41,-0.474l-4.03,-6.696l-4.451,-1.64l-6.604,-4.968l5.148,-3.634L284.83,184.604zM250.655,230.599l-2.002,-2.109l-2.063,0.498l-0.249,-3.062l-3.212,-2.035l-3.07,-2.267l-1.63,-1.753l-1.435,1.034l-0.521,-2.963l-2.026,-0.555l-0.956,6.134l-0.358,5.107l-2.438,3.136l3.8,-0.604l0.963,3.65l3.99,-3.225l2.78,-3.379l1.575,2.863l4.363,1.511L250.655,230.599zM251.905,243.372l1.098,-3.124l-0.713,-1.233l-1.148,-0.132l-1.082,1.804l-0.131,0.413l0.736,1.771L251.905,243.372zM228.092,145.149l5.756,-0.185l8.043,-1.614l3.589,1.275l4.181,-2.26l1.749,-2.84l-0.626,-4.519l-3.003,-4.229l-4.556,-0.801l-5.709,0.969l-4.457,2.441l-4.091,-0.939l-3.782,-0.495l-1.781,-2.702l-3.217,-2.614l0.639,-4.433l-2.42,-3.982l-5.52,0.027l-3.113,-3.988l-5.779,-0.799l-1.055,5.096l3.25,3.745l5.8,1.454l2.815,5.095l0.341,5.602l0.97,5.99l7.452,3.417L228.092,145.149zM239.747,238.477l0.614,1.63l1.979,0.138l3.282,-3.337l0.06,-1.188l-3.851,-0.059L239.747,238.477zM212.14,108.876l0.334,-1.49l-1.968,-2.448l-5.646,-0.194l0.748,3.676l5.254,0.827L212.14,108.876zM128.949,308.228l-1.157,-2.344l-2.799,-1.769l-1.386,-2.053l-0.954,-1.505l-2.635,-0.464l-1.721,-0.667l-2.943,-0.962l-0.242,1.021l1.08,2.38l2.886,0.781l0.505,1.231l2.509,1.502l0.841,1.513l4.604,1.92L128.949,308.228zM130.121,178.055l7.38,-4.179v-3.874l3.477,-6.407l6.875,-6.689l3.525,-2.467l-3.01,-4.199l-2.723,-2.953l-7.162,-0.572l-4.004,-2.156l-9.477,1.625l2.742,6.225l-2.432,6.431l-1.942,6.866l-1.203,3.858l6.474,4.694L130.121,178.055zM139.073,126.88l5.212,-5.053l2.62,-0.587l2.16,-4.228l0.385,-9.769l-3.846,1.914l-4.3,-0.18l-5.758,8.189l-4.759,8.977l3.799,2.51L139.073,126.88zM326.407,307.477l-1.962,0.723l0.868,-3.113l-2.796,-1.321l-1.293,1.047l-2.488,-1.179l0.984,-1.509l-1.883,-0.933l-1.83,1.469l1.855,-3.825l1.497,-2.8l0.542,-1.217l-1.301,-0.197l-2.433,1.547l-1.738,2.529l-2.897,6.917l-2.354,2.558l1.22,1.144l-1.747,1.473l0.43,1.231l5.442,0.126l3.013,-0.248l2.69,1.005l-1.98,1.932l1.673,0.142l3.253,-3.576l0.781,0.528l-0.608,3.367l1.843,0.77l1.269,-0.151l1.18,-3.614l-0.871,-2.589L326.407,307.477zM305.764,317.427l1.811,1.46l-3.469,2.616l-6.21,2.351l-2.781,1.584l-3.133,2.793l-2.129,-0.283l-0.107,-3.291l4.868,-3.261l-4.488,0.13l-3.116,0.483l0.484,1.295l-2.994,1.9l-2.881,1.344l-2.961,1.146l-1.484,2.283l-0.475,0.859l-0.028,2.013l0.925,1.995l1.164,0.094l-0.294,-1.372l0.841,0.835l-0.224,1.07l-1.893,0.605l-1.347,-0.073l-2.074,0.65l-1.22,0.186l-1.63,0.184l-2.337,1.073l4.118,-0.697l0.831,0.702l-3.925,1.106l-1.786,0.007l0.083,-0.452l-0.854,1.02l0.825,0.168l-0.605,2.622l-2.04,2.779l-0.208,-0.924l-0.616,-0.188l-0.92,-0.903l0.583,1.941l0.696,0.639l0.042,1.35l-0.899,1.381l-1.578,2.815l-0.255,-0.139l0.867,-2.398l-1.432,-1.356l-0.329,-2.974l-0.54,1.552l0.598,2.26l-1.853,-0.557l1.93,1.143l0.12,3.346l0.805,0.241l0.291,1.205l0.394,3.455l-1.782,2.534l-2.901,1.006l-1.843,1.98l-1.4,0.215l-1.419,1.232l-0.401,1.121l-3.078,2.156l-1.581,1.571l-1.321,1.945l-0.433,2.315l0.496,2.246l0.936,2.745l1.246,2.253l0.016,1.369l1.328,3.646l-0.088,2.102l-0.122,1.207l-0.699,1.887l-0.838,0.389l-1.38,-0.374l-0.442,-1.354l-1.065,-0.712l-1.486,-2.675l-1.304,-2.397l-0.421,-1.232l0.576,-2.101l-0.785,-1.751l-2.186,-2.682l-1.094,-0.494l-2.829,1.46l-0.502,-0.16l-1.361,-1.502L233,374.387l-3.169,0.406l-2.488,-0.357l-2.138,0.223l-1.159,0.504l0.505,0.856l-0.045,1.302l0.595,0.632l-0.534,0.42l-1.041,-0.472l-1.052,0.606l-2.035,-0.1l-2.093,-1.692l-2.445,0.4l-2.04,-0.743l-1.744,0.225l-2.359,0.75l-2.552,2.367l-2.787,1.369l-1.531,1.509l-0.645,1.416l-0.028,2.161l0.14,1.495l0.533,1.055l-1.093,0.093l-1.991,-0.682l-2.187,-0.963l-0.785,-1.466l-0.617,-2.195l-1.654,-1.797l-0.969,-1.859l-1.407,-2.184l-1.976,-1.279l-2.292,0.063l-1.766,2.528l-2.328,-0.958l-1.449,-0.967l-0.698,-1.769l-0.93,-1.689l-1.666,-1.429l-1.434,-1.032l-1.022,-1.162l-4.857,-0.001l-0.006,1.351l-2.223,0.001l-5.576,0.023l-6.396,-2.31l-4.234,-1.604l0.263,-0.648l-3.561,0.359l-3.186,0.255l-0.472,-1.696l-1.817,-1.92l-1.308,-0.401l-0.307,-0.965l-1.573,-0.169l-1.003,-0.913l-2.605,-0.333l-0.715,-0.547l-0.341,-1.866l-2.72,-3.452l-2.335,-4.851l0.1,-0.817l-1.237,-1.169l-2.17,-2.991l-0.387,-2.945l-1.494,-1.992l0.615,-3.055l-0.098,-3.202l-0.895,-2.898l1.096,-3.614l0.341,-3.535l0.341,-3.591l-0.506,-5.416l-0.886,-3.525l-0.817,-1.938l0.339,-0.82l4.055,1.425l1.494,3.911l0.693,-1.087l-0.448,-3.41l-0.954,-3.466l-0.376,-0.011l-5.428,-4.227l-2.003,-1.887l-5.078,-1.825l-1.562,-3.958l0.399,-2.79l-3.587,-1.958l-0.492,-3.761l-3.392,-3.449l-0.059,-2.484l-1.542,-1.834l-2.471,-1.569l-0.793,-4.356l-3.615,-4.131l-1.511,-4.938l-2.692,-0.343l-4.458,-0.13l-3.286,-1.535l-5.797,-5.643l-2.685,-1.05l-4.905,-1.993l-3.882,0.478l-5.514,-2.59l-3.333,-2.435l-3.112,1.213l0.578,3.928l-1.55,0.358l-3.244,1.161l-2.468,1.863l-3.107,1.163l-0.401,-3.245l1.261,-5.531l2.979,-1.771l-0.769,-1.456l-3.574,3.218l-1.914,3.771l-4.04,3.947l2.052,2.647l-2.65,3.849l-3.014,2.207l-2.806,1.592l-0.694,2.287l-4.377,2.634l-0.886,2.363l-3.281,2.127l-1.924,-0.381l-2.617,1.377l-2.845,1.669l-2.332,1.626l-4.812,1.377l-0.439,-0.809l3.067,-2.268l2.743,-1.513l2.989,-2.71l3.478,-0.565l1.383,-2.063l3.886,-3.053l0.626,-1.032l2.07,-1.833l0.484,-4l1.426,-3.174l-3.233,1.636l-0.904,-0.927l-1.518,1.954l-1.831,-2.73l-0.756,1.936l-1.048,-2.695l-2.803,2.167l-1.721,-0.004l-0.242,-3.232l0.507,-2.02l-1.806,-1.982l-3.646,1.07l-2.366,-2.631l-1.918,-1.359l-0.012,-3.25l-2.161,-2.483l1.085,-3.405l2.286,-3.368l1,-3.154l2.269,-0.454l1.924,0.992l2.262,-3.007l2.036,0.541l2.137,-1.955l-0.521,-2.917l-1.57,-1.163l2.076,-2.519l-1.722,0.075l-2.975,1.426l-0.854,1.434l-2.211,-1.432l-3.966,0.729l-4.106,-1.563l-1.177,-2.654l-3.548,-3.906l3.94,-2.867l6.254,-3.407h2.305l-0.382,3.484l5.918,-0.269l-2.276,-4.339l-3.449,-2.722l-1.994,-3.639l-2.69,-3.166l-3.853,-2.385l1.569,-4.028l4.974,-0.253l3.539,-3.585l0.667,-3.917l2.864,-3.911l2.731,-0.955l5.315,-3.758l2.578,0.572l4.315,-4.609l4.242,1.831l2.029,3.869l1.246,-1.648l4.738,0.513l-0.168,1.951l4.29,1.428l2.86,-0.838l5.907,2.635l5.393,0.776l2.159,1.068l3.731,-1.335l4.253,2.462l3.046,1.135l5.23,1.936l4.414,3.8l2.924,0.717l2.461,-3.276l3.396,-2.495l4.165,0.98l4.2,-3.551l4.589,-2.048l1.926,3.393l2.092,-1.904l0.626,-3.905l1.938,0.892l4.741,7.321l3.733,-5.505l0.379,6.15l3.445,-1.311l1.059,-2.357l3.396,0.469l4.288,3.373l6.562,2.891l3.859,1.323l2.747,-0.5l3.782,3.902l-3.945,3.736l5.068,1.589l7.568,-0.873l2.388,-1.302l2.989,4.423l3.05,-3.725l-2.862,-3.187l1.811,-2.614l3.413,-0.355l2.243,-0.773l2.263,1.84l2.818,4.114l3.131,-0.598l4.954,3.353l4.353,-1.173l4.09,0.178l-0.324,-4.672l2.493,-1.335l4.345,2.583l-0.017,7.004l1.785,-5.884l2.255,0.202l1.268,-7.708l-3.004,-4.906l-3.272,-3.292l0.225,-9.343l3.315,-6.428l3.698,1.442l2.837,3.906l3.809,9.586l-2.488,4.014l5.214,1.626l-0.012,7.991l3.747,-6.09l3.352,5.018l-0.835,5.606l2.712,4.946l2.928,-5.304l2.045,-6.555l0.153,-8.714l3.985,0.624l4.145,1.19l3.763,3.953l0.169,3.865l-2.086,4.057l1.977,3.98l-0.357,3.539l-5.49,4.964l-3.899,1.076l-2.899,-2.107l-0.836,3.5l-2.703,5.725l-0.818,2.897l-3.252,4.392l-4.014,0.424l-2.213,2.682l-0.186,4.048l-3.262,0.769l-3.431,4.902l-3.041,6.6l-1.087,4.483l-0.155,6.411l4.12,0.902l1.263,4.99l1.311,3.947l3.923,-1.02l5.21,2.229l2.803,1.935l2.006,2.379l3.513,1.373l2.971,2.082l4.63,0.283l3.05,0.474l-0.458,4.194l0.872,4.759l2.031,5.168l4.172,4.283l2.159,-1.458l1.517,-4.676l-1.464,-7.402l-1.978,-2.529l4.489,-2.281l3.177,-3.461l1.554,-3.504l-0.229,-3.422l-1.904,-4.44l-3.406,-4.022l3.309,-5.751l-1.222,-5.116l-0.937,-9.177l1.952,-1.397l4.807,1.646l2.883,0.585l2.322,-1.583l2.611,2.039l3.453,3.436l0.851,2.266l5,0.438l-0.084,4.797l0.932,6.99l2.561,0.847l2.032,3.155l4.06,-2.973l2.682,-6.053l1.855,-2.611l2.184,4.983l3.651,6.893l3.101,6.26l-1.127,3.197l3.729,2.826l2.521,2.822l4.471,1.264l1.8,1.548l1.111,4.047l2.184,0.628l1.126,1.772l0.205,5.188l-2.035,1.706l-2.012,1.58l-4.621,1.587l-3.528,3.624l-4.74,0.708l-5.997,-0.919l-4.208,-0.031l-2.904,0.303l-2.348,3.112l-3.575,1.899l-4.044,5.574l-3.227,3.804l2.381,-0.672l4.501,-5.452l5.881,-3.53l4.195,-0.426l2.482,2.089l-2.648,2.829l0.889,4.462l0.915,3.07l3.642,2.009l4.633,-0.581l2.811,-4.56L305.764,317.427zM228.683,312.506l-0.901,2.17l1.589,0.521l1.975,1.551l2.488,-0.905l2.755,-0.356l0.589,1.14l0.855,0.164l0.587,-1.372l-1.177,-0.513l0.478,-1.56l-1.109,-1.212l0.495,-1.182l-3.147,-0.627l-0.938,-2.382l-0.67,-0.566l-1.932,-0.102l-2.607,-0.856l-0.632,0.554l-0.623,1.032l-1.591,0.663l-1.138,1.659l-2.86,1.375l-1.991,1.654l-1.903,1.73l-0.009,0.599l2.809,-0.851l1.719,1.401l2.165,-1.037l2.25,-1.328L228.683,312.506zM240.711,327.905l1.738,-1.705l1.037,0.388l0.505,2.241l0.14,1.571l1.815,-1.267l0.231,-1.074l-0.147,-1.838l1.337,-2.17l-0.355,-2.486l1.415,2.441l2.279,0.54l0.903,-1.299l-1.816,-3.037l-0.915,-1.256l-2.508,-0.779l-2.273,-0.412l-2.132,-0.042l-2.103,-0.501l-0.55,-0.898l-0.527,0.597l1.395,1.609l-2.47,0.363l-0.094,-0.018l-2.205,-0.424l-2.187,0.804l-1.907,0.361l-1.672,2.573l-1.099,1.422l0.38,0.464l2.06,-2.543l0.422,-0.014l-1.455,3.035l-0.633,2.713l-0.533,2.181l0.352,1.87l-0.075,0.937l0.022,0.982l0.755,1.975l0.258,0.253l0.953,-0.021l0.757,-0.412l0.568,-0.518l1.138,-1.836l0.077,-2.508l-0.93,-2.376l0.14,-1.645l0.731,-1.916l0.7,-1.321l1.121,-0.947l0.26,1.325l0.496,-1.953l0.618,-0.405l0.392,-1.518l2.383,0.8l2.075,1.552l0.228,1.794l-0.256,1.786l-1.542,1.556l0.144,0.974L240.711,327.905zM254.027,330.833l-0.055,-0.373v-0.002l-2.443,0.469l-1.368,0.481l-0.746,0.591l-1.542,-0.382l-0.833,0.173l-1.225,1.059l-2.081,1.201l-1.539,-0.237l-0.961,1.449l1.729,0.772l1.398,0.191l2.03,-0.496l1.661,-1.035l1.443,-0.506l2.115,-1.089L254.027,330.833zM261.655,328.06l-0.166,-1.506l-0.287,-0.544l-0.032,-0.061l-0.596,-0.286l-0.889,0.54l-0.782,0.851l-1.244,-0.734l-2.37,0.528l-1.979,0.565l-0.855,0.457l-0.839,1.317l1.118,0.363l0.856,-0.198l0.134,-0.044l1.328,-0.439l2.204,0.143l2.297,0.318L261.655,328.06zM296.747,316.344l-0.982,-1.984l-1.059,1.262l0.701,1.361l3.556,1.713l1.039,-0.262l1.379,-1.656l-2.6,0.111L296.747,316.344zM301.875,304.917l-2.867,-1.799l-3.687,-1.087l-0.97,0.365l2.607,2.039l3.634,1.343l1.365,-0.076L301.875,304.917zM145.21,136.272l3.92,1.953l12.667,-1.298l-5.824,4.771l0.357,3.431l4.264,-0.236l7.074,-4.58l9.495,-1.673l1.706,-5.218l-0.493,-5.569l-2.938,-0.502l-2.497,1.929l-1.099,-4.133l-0.945,-5.699l-2.895,-1.415l-2.569,4.411l4.01,11.049l-4.898,-0.851l-4.981,-6.788l-7.891,-3.998l-2.639,3.321L145.21,136.272zM208.96,82.895l5.127,-0.116l-2.216,4.002l-0.043,5.297l3.013,5.756l5.811,1.766l4.96,-0.99l5.181,-10.729l3.85,-4.447l-3.38,-4.97l-2.215,-10.648l-4.599,-3.188l-4.718,-3.682l-3.581,-9.561l-6.521,0.937l1.225,4.149l-2.874,1.246l-1.943,5.322l-1.944,7.458l1.776,7.261L208.96,82.895zM200.127,101.408l2.284,3.123l4.148,-2.771l0.76,-4.97l-3.351,-4.925l-1.634,-0.955l-3.63,-0.579l0.222,5.902L200.127,101.408zM166.305,106.564l0.932,-3.985l-3.954,-2.125l-4.094,1.385l-2.271,4.261l4.159,4.207L166.305,106.564zM248.488,155.832l3.085,5.103l0.812,0.574l3.069,-1.275l3.021,0.201l2.98,0.276l-0.248,-2.643l-4.835,-5.381l-6.417,-1.077l-1.349,0.666L248.488,155.832zM183.063,93.132l-2.708,4.188l6.242,0.516l4.615,4.438l4.579,1.498l-1.092,-5.68l-2.145,-6.726l-7.582,-5.353l-5.504,-2.044l0.204,5.687L183.063,93.132zM167.773,94.206l-3.646,-2.897l-1.504,-0.659l-2.876,4.284l-0.045,2.002l4.656,0.014L167.773,94.206z"/>
		<path id="caribbean" title="Caribbean" class="land" d="M304.512,432.968l-0.112,2.11l-2.341,0.312l-0.505,-0.255l0.813,-0.778l-0.056,-1.119l1.612,-0.369L304.512,432.968zM289.407,410.886l-2.294,-0.017l-0.397,0.429l0.163,1.255l1.638,-0.104l2.111,0.018l0.718,-0.739l-0.506,-0.583L289.407,410.886zM259.646,411.221l-1.887,-0.263l-0.639,-0.099l-1.179,0.205l-0.336,0.671l1.603,1.068l1.569,0.47l0.852,-0.489l1.971,-0.054l-0.465,-0.803L259.646,411.221zM281.074,409.413l0.09,-0.879l-1.534,0.059l-0.509,-1.049l-0.739,0.075l-1.661,-0.762l-2.188,-0.014l-0.351,0.505l-2.432,-0.465l-1.711,-0.131l-0.631,0.818l1.769,0.461l-0.021,1.128l1.281,1.276l-1.009,0.654l-2.116,-0.236l-2.581,-0.408l-0.247,0.947l1.502,0.914l1.312,-0.548l1.71,0.212l1.323,-0.204l1.862,0.499l0.142,0.842l0.722,0.465l1.123,-2.006l0.927,-0.421l0.427,0.712l1.077,-0.181l0.505,-0.536l0.922,0.14l1.287,-0.124l1.333,0.639l1.042,-1.196l-1.378,-1.08L281.074,409.413zM267.269,405.656l-2.119,-1.218l-2.067,-0.123l0.204,-0.84l-1.672,-0.609l-0.923,0.041l-1.746,-1.351l-2.375,-1.862l-0.993,-0.708l-2.619,0.341l-1.116,-1.105l-2.633,-1.031l-2.203,-0.034l-2.422,-0.216l-0.679,0.333l-2.123,0.29l-1.432,0.59l-1.268,0.672l-0.607,1.088l-1.48,0.929l1.199,0.285l1.388,-0.329l0.402,-0.733l1.162,-0.042l2.015,-1.567l2.75,0.155l-1.051,0.754l0.979,0.587l3.655,0.467l0.841,0.63l2.615,0.804l1.584,-0.117l0.665,1.704l0.969,0.861l1.808,0.199l1.143,0.773l-1.879,1.656l4.015,-0.289l1.932,0.234l1.887,-0.147l1.864,-0.377L267.269,405.656zM257.057,386.514l-0.084,-0.812l-1.851,-0.094l-1.318,0.25l0.196,1.154L257.057,386.514zM258.403,386.669l-0.046,1.625l0.516,0.397l0.484,-2.21l-2.215,-1.406l0.006,0.359L258.403,386.669zM256.017,390.76l-0.61,1.951l1.05,0.887l0.712,1.758l0.688,-0.151l-0.015,-1.771l-0.981,-2.549L256.017,390.76z"/>
		<path id="cAmerica" title="Central America" class="land" d="M258.676,441.213l-0.529,0.835l-0.904,-0.202l-0.359,1.365l-0.935,-0.81l-0.601,-1.518l0.693,-0.751l-0.71,-0.193l-0.523,-0.931l-1.397,-0.783l-1.227,0.18l-0.568,0.98l-1.133,0.708l-0.611,0.098l-0.275,0.586l1.337,1.526l-0.766,0.359l-0.405,0.417l-1.304,0.143l-0.485,-1.678l-0.365,0.478l-0.925,-0.165l-0.565,-1.131l-1.15,-0.187l-0.728,-0.329l-1.203,0.004l-0.086,0.611l-0.322,-0.426l-1.521,-0.625l-0.569,-0.591l0.323,-0.489l-0.102,-0.623l-0.777,-0.675l-1.103,-0.555l-0.965,-0.362l-0.185,-0.827l-0.735,-0.505l0.18,0.822l-0.56,0.675l-0.641,-0.784l-0.901,-0.279l-0.383,-0.57l0.016,-0.862l0.371,-0.893l-0.792,-0.4l0.643,-0.548l-0.97,-0.895l-1.31,-1.147l-0.618,-0.96l-1.182,-0.896l-1.405,-1.29l0.312,-0.442l0.463,0.43l0.212,-0.202l-0.484,-0.895l-0.852,-0.249l-0.312,0.674l-1.624,-0.043l-1.009,-0.274l-1.159,-0.569l-1.558,-0.178l-0.794,-0.616l-1.438,-0.5l-1.749,-0.052l-1.282,-0.57l-1.508,-1.187l-3.173,-3.107l-1.446,-0.94l-2.29,-0.756l-1.566,0.21l-2.252,1.09l-1.414,0.286l-1.98,-0.763l-2.101,-0.552l-2.621,-1.332l-2.102,-0.407l-3.174,-1.354l-2.346,-1.396l-0.708,-0.782l-1.569,-0.175l-2.868,-0.928l-1.167,-1.341l-3.013,-1.673l-1.405,-1.866l-0.668,-1.447l0.936,-0.291l-0.289,-0.85l0.645,-0.774l0.014,-1.034l-0.946,-1.347l-0.253,-1.197l-0.94,-1.523l-2.471,-3.017l-2.819,-2.387l-1.364,-1.916l-2.407,-1.26l-0.516,-0.756l0.428,-1.919l-1.43,-0.728l-1.655,-1.52l-0.699,-2.194l-1.508,-0.257l-1.628,-1.667l-1.314,-1.547l-0.122,-0.998l-1.508,-2.421l-0.993,-2.477l0.042,-1.25l-2.028,-1.296l-0.936,0.143l-1.601,-0.903l-0.449,1.33l0.464,1.564l0.273,2.433l0.961,1.327l2.081,2.206l0.462,0.75l0.427,0.227l0.37,1.091l0.499,-0.044l0.563,2.04l0.852,0.801l0.597,1.112l1.762,1.592l0.93,2.891l0.833,1.353l0.779,1.443l0.154,1.617l1.352,0.101l1.124,1.387l1.017,1.358l-0.068,0.543l-1.18,1.112l-0.497,-0.014l-0.739,-1.843l-1.835,-1.735l-2.022,-1.479l-1.434,-0.779l0.093,-2.253l-0.425,-1.678l-1.336,-0.963l-1.927,-1.391l-0.37,0.402l-0.708,-0.814l-1.729,-0.758l-1.653,-1.825l0.205,-0.238l1.155,0.179l1.04,-1.179l0.105,-1.43l-2.159,-2.273l-1.646,-0.887l-1.034,-2.009l-1.04,-2.123l-1.299,-2.608l-1.139,-2.963l3.186,-0.255l3.561,-0.359l-0.263,0.648l4.234,1.604l6.396,2.31l5.576,-0.023l2.223,-0.001l0.006,-1.351l4.857,0.001l1.022,1.162l1.434,1.032l1.666,1.429l0.93,1.689l0.698,1.769l1.449,0.967l2.328,0.958l1.766,-2.528l2.292,-0.063l1.976,1.279l1.407,2.184l0.969,1.859l1.654,1.797l0.617,2.195l0.785,1.466l2.187,0.963l1.991,0.682l1.093,-0.093l-1.088,2.711l-0.491,2.208l-0.205,4.077l-0.27,1.476l0.486,1.643l0.869,1.462l0.56,2.316l1.861,2.212l0.655,1.688l1.097,1.452l2.978,0.78l1.159,1.229l2.459,-0.82l2.138,-0.297l2.1,-0.528l1.765,-0.505l1.784,-1.203l0.668,-1.726l0.23,-2.497l0.485,-0.872l1.899,-0.783l2.965,-0.694l2.482,0.104l1.701,-0.254l0.672,0.635l-0.095,1.439l-1.507,1.77l-0.667,1.805l0.517,0.515l-0.42,1.276l-0.703,2.295l-0.71,-0.754l-0.587,0.049l0.01,0.431l0.531,0.013l-0.046,0.798l-0.454,1.266l0.245,0.452l-0.293,1.044l0.177,0.279l-0.325,1.471l-0.551,0.771l-0.506,0.093l-0.556,1.004l0.914,0.524l0.242,-0.431l0.822,0.37l0.292,0.113l0.615,-0.509l0.802,-0.042l0.26,0.236l0.435,-0.144l1.303,0.261l1.296,-0.076l0.902,-0.32l0.329,-0.325l0.894,0.15l0.671,0.197l0.733,-0.068l0.557,-0.251l1.281,0.402l0.445,0.064l0.856,0.541l0.811,0.648l1.019,0.442l0.738,0.794l-0.241,0.277l-0.143,0.643l0.286,1.053l-0.646,0.979l-0.301,1.154l-0.091,1.262l0.15,0.737l0.071,1.286l-0.428,0.28l-0.262,1.219l0.193,0.751l-0.574,0.727l0.13,0.768l0.43,0.466l0.71,1.54l1.084,1.139l1.316,1.207l1.007,1.013l-0.058,0.598l1.119,0.127l0.265,-0.229l0.771,0.693l1.379,-0.204l1.193,-0.712l1.703,-0.569l0.957,-0.844l1.548,0.166l-0.104,0.278l1.563,0.096l1.248,0.488l0.916,0.849l1.055,0.779l-0.34,0.412L258.676,441.213z"/>
		<path id="sAmerica" title="South America" class="land" d="M311.087,629.767l2.243,2.014l-0.841,1.58l-3.785,1.364l-1.262,-1.591l-2.383,2.048l-1.402,-2.048l3.365,-2.698l2.383,1.12L311.087,629.767zM377.41,482.195l-0.952,-3.566l-1.016,-0.882l-2.397,-0.112l-2.16,-0.806l-3.581,-3.129l-4.145,-2.309l-4.189,0.109l-5.457,-1.475l-3.26,0.859l0.459,-1.543l-1.369,-1.633l-4.657,-1.702l-3.528,-1.001l-2.129,1.828l-0.101,-2.792l-4.957,-0.438l-0.872,-0.839l2.109,-2.293l-0.076,-1.923l-1.5,-0.46l-1.572,-4.877l-0.694,-1.544l-0.955,0.132l-0.464,-1.144l-2.968,-2.36l-2.065,-0.662l-0.952,-0.308l-3.015,-0.752l-2.267,0.202l-0.301,0.505l-3.359,-0.561l-1.107,-0.975l-1.502,-1.368l-1.057,-0.066l-0.079,-1.445l-1.735,-1.831l-1.841,-1.035l-1.099,-0.664l-1.461,0.063l-0.447,-2.259l-2.125,-1.389l-2.243,-0.212l-0.958,-1.336l2.381,-0.837l-3.36,0.04l-3.473,0.171l-0.032,0.713l-1.573,0.884l-2.144,-0.35l-1.606,-1.269l-2.995,0.292l-2.518,-0.025l-0.11,-0.939l-1.822,-1.583l-1.966,-0.046l-1.006,-2l-0.983,0.898l0.389,1.34l-3.492,1.155l0.142,2.145l0.87,0.996l-0.63,2.041l-1.208,0.184l-1.062,-2.241l1.237,-1.644l0.034,-1.482l-0.915,-1.289l1.646,-0.332l0.08,-0.672l0.544,-0.958l-0.735,-0.75l-0.994,-0.175l-1.357,1.373l-1.092,0.637l-2.207,1.435l-2.194,-0.237l-0.223,0.592l-1.767,0.054l-1.608,1.316l-0.517,2.392l-0.027,0.935l-1.155,0.3l-2.104,1.969l-1.449,-0.089l-0.34,0.412l0.651,1.658l-0.529,0.835l-0.904,-0.202l-0.359,1.365l1.135,1.495l0.442,2.37l-0.601,0.735l0.632,2.559l-0.529,1.621l1.033,0.664l-1.073,1.464l-1.181,1.752l-1.391,0.187l-0.658,1.01l0.125,1.396l-1.046,0.209l0.38,0.865l-1.928,1.108l-1.536,0.598l0.195,1.137l-1.061,1.793l-0.516,1.735l-0.982,0.42l0.473,2.528l-0.569,0.786l1.679,1.222l1.072,-1.294l0.606,1.217l-1.492,2.084l-2.235,1.763l-0.873,1.957l1.359,2.667l-0.908,1.25l1.998,1.135l2.179,1.831l0.882,2.069l1.146,1.282l2.649,5.622l2.765,5.242l2.375,3.75l-0.46,0.827l1.162,2.375l2.163,1.778l5.028,3.167l5.559,2.924l0.244,1.199l2.811,1.683l0.584,4.153l0.205,4.874l-0.877,6.747l-0.9,6.374l-0.505,6.038l-1.64,3.867l0.336,3.955l-0.837,2.671l0.646,4.912l-1.187,4.968l-1.938,5.432l-1.72,5.596l-1.182,0.114l0.231,3.977l0.807,3.495l-1.288,2.478l-0.956,6.843l-0.881,5.42l1.769,0.541l0.876,-4.749l1.881,1.003l-1.465,7.97l-3.116,-1.374l-0.955,6.557l-2.67,3.569l4.256,1.19l-2.961,3.187l-1.192,4.033l0.359,7.344l1.411,2.937l-0.794,2.623l0.878,2.874l3.488,2.632l3.209,3.251l3.164,1.535l1.187,-0.11l0.452,-4.378l2.53,-1.669l1.35,-1.128l2.495,0.034l1.182,0.231l-1.866,-2.633l-0.905,-4.641l1.149,-2.059l2.559,-1.719l1.822,-5.025l3.312,-2.375l0.964,-3.726l-2.681,-0.831l-2.757,-2.982l0.804,-3.013l2.198,-2.035l2.648,-0.011l0.663,-2.107l0.412,-3.907l2.251,-2.383l2.582,-1.18l-0.835,-1.962l-1.535,1.189l-1.893,-1.135l-0.391,-3.71l1.083,-0.967l2.696,1.347l2.874,-0.512l1.682,-1.299l-0.518,-1.851l0.574,-2.721l-0.589,-2.147l3.08,0.361l5.624,-0.746l4.157,-1.913l2.694,-4.516l0.143,-1.7l-1.752,-1.507l0.383,-2.368l-3.56,-2.914l0.192,-1.761l1.708,1.866l1.901,-0.108l2.592,1.457l1.517,-0.364l2.07,0.68l3.167,-1.886l1.213,-2.118l1.855,-1.914l1.278,-3.155l1.906,-1.539l2.466,-2.592l3.111,-5.676l1.959,-1.754l0.637,-1.548l0.523,-3.182l-0.466,-1.727l0.408,-2.322l2.374,-3.061l3.3,-2.44l3.14,-0.891l1.975,-1.353l4.411,-1.166l3.046,0.007l0.657,-1.811l2.269,-1.304l0.477,-3.093l2.843,-3.878l0.497,-3.939l0.887,-1.157l0.298,-1.927l0.782,-4.479l-0.199,-5.398l0.783,-2.107l0.701,-0.056l2.076,-2.475l1.786,-3.215l3.952,-3.94l1.427,-1.843l1.116,-4.652L377.41,482.195zM285.292,642.399l-1.402,-3.525l-1.077,-2.148l-1.996,-0.543l-2.584,1.907l-0.909,3.202l-1.447,2.174l-3.719,-1.704l-3.937,-3.133l-2.312,-0.974l3.862,5.254l2.864,2.573l3.528,2.71l2.937,0.707l2.036,1.479l1.66,0.4l1.378,0.157l2.404,-1.532l0.929,-1.978l1.43,1.726l2.664,-0.245l1.262,-2.436l-3.925,-1.207L285.292,642.399z"/>
		<path id="cAsia" title="Central Asia" class="land" d="M720.197,305.232l-2.134,2.831l-2.329,0.395l-0.134,4.186l-1.56,1.86l-5.563,-1.353l-2.022,7.262l-1.436,0.886l-5.555,1.582l2.524,6.754l-1.924,0.995l0.224,2.165l-0.394,0.853l-4.419,2.031l-0.999,1.478l-3.597,0.44l-1.061,2.354l-2.968,-0.492l-1.938,0.718l-2.677,1.726l0.387,0.85l-0.798,0.829l0.711,3.324l0.921,-0.359l1.703,0.812l-0.098,1.381l0.421,2.012l-2.893,-0.006l-1.931,-0.259l-1.747,1.57l-1.244,0.347l-0.978,0.733l-1.109,-1.143l0.261,-2.956l-0.848,-0.168l0.305,-1.084l-1.518,-0.81l-1.207,1.238l-0.297,1.428l-0.432,0.518l-1.676,-0.073l-0.904,1.609l-0.945,-0.678l-2.029,1.126l-0.856,-0.427l-2.115,-0.741l-1.562,-0.023l-0.845,-0.109l-1.323,-0.941l-0.439,1.252l-2.363,0.678l-0.56,2.785l-1.58,1.052l-2.213,0.52l-0.586,1.556l-2.114,0.457l-2.859,-1.3l-0.246,-2.906l-2.09,-0.125l-3.204,-3.095l-2.239,-0.384l-3.101,-1.791l-1.994,-0.327l-1.23,0.66l-1.875,-0.103l-1.994,2.017l-2.464,0.679l-0.521,-2.491l0.407,-3.729l-2.187,-1.218l0.72,-2.483l-1.861,-0.212l0.62,-3.094l2.645,0.905l2.463,-1.181l-2.042,-2.229l-0.804,-2.145l-2.257,0.958l-0.286,2.733l-0.876,-2.415l-0.157,-0.915l0.689,-1.573l-0.535,-1.322l-3.249,-1.301l-1.266,-3.464l-1.548,-0.985l-0.094,-1.275l2.728,0.373l0.107,-2.883l2.385,-0.646l2.449,0.594l0.505,-3.907l-0.5,-2.513l-2.806,0.198l-2.384,-0.999l-3.246,1.796l-2.616,0.852l-1.424,-0.656l0.285,-2.102l-1.787,-2.76l-2.081,0.116l-2.38,-2.837l1.618,-3.215l-0.819,-0.874l2.237,-4.77l2.883,2.532l0.349,-3.193l5.788,-4.849l4.38,-0.117l6.181,3.102l3.319,1.791l2.976,-1.868l4.444,-0.089l3.587,2.293l0.814,-1.31l3.938,0.191l0.702,-2.106l-4.544,-3.098l2.691,-2.223l-0.525,-1.254l2.692,-1.204l-2.024,-3.208l1.285,-1.618l10.492,-1.663l1.369,-1.189l7.016,-1.791l2.521,-2.033l5.039,1.059l0.883,5.012l2.927,-1.166l3.602,1.631l-0.232,2.583l2.689,-0.268l7.026,-4.494l-1.025,1.504l3.577,3.659l6.266,11.576l1.494,-2.333l3.862,2.565l4.029,-1.14l1.548,0.799l1.35,2.545l1.96,0.848l1.193,1.843l3.612,-0.579L720.197,305.232z"/>
		<path id="eAsia" title="Eastern Asia" class="land" d="M815.907,390.497l1.279,0.917l-0.486,1.852l-1.688,4.878l-1.202,2.473l-1.478,-2.545l-0.319,-2.249l1.65,-2.999L815.907,390.497zM838.241,352.977l-0.694,-2.27l-2.42,-4.182l-1.588,-1.573l-1.116,-0.585l0.327,-0.398l0.088,-1.568l1.217,-0.978l1.867,-0.601l1.058,-1.083l0.498,-0.648l1.449,-0.815l-0.105,-2.668l0.837,-1.274l1.217,-1.275l1.065,0.227l-0.393,-0.661l-0.017,-1.929l1.432,-0.103l0.404,-4.553l-0.739,-3.357l2.407,-1.4l3.402,0.703l1.886,-3.888l0.961,-4.462l1.089,-1.512l1.474,-3.761l-4.634,1.239l-2.431,1.647l-4.261,-0.005l-1.135,-3.945l-3.321,-3.035l-4.88,-1.379l-1.037,-4.284l-0.977,-2.731l-1.051,-1.937l-1.733,-4.611l-2.462,-1.711l-4.196,-1.394l-3.718,0.127l-3.484,0.845l-2.315,2.313l1.538,1.095l0.035,2.522l-1.56,1.45l-2.531,4.725l0.026,1.929l-3.952,2.739l-3.365,-1.632l-3.346,0.361l-1.468,-1.457l-1.682,-0.472l-4.106,3.059l-3.691,0.712l-2.577,1.062l-3.532,-0.697l-2.6,0.045l-1.702,-2.203l-2.746,-2.092l-2.81,-0.577l-3.547,0.572l-2.65,0.81l-3.982,-1.841l-0.535,-3.322l-3.297,-1.151l-2.545,-0.527l-3.141,-1.871l-2.904,4.659l1.139,2.6l-2.726,3.034l-4.054,-1.09l-2.799,-0.156l-1.874,-2.042l-2.925,-0.065l-2.438,-1.354l-4.265,2.071l-5.35,3.739l-2.956,0.744l-1.098,0.352l-2.134,2.831l-2.329,0.395l-0.134,4.186l-1.56,1.86l-5.563,-1.353l-2.022,7.262l-1.436,0.886l-5.555,1.582l2.524,6.754l-1.924,0.995l0.224,2.165l-0.394,0.853l-4.419,2.031l-0.999,1.478l-3.597,0.44l-1.061,2.354l-2.968,-0.492l-1.938,0.718l-2.677,1.726l0.387,0.85l-0.798,0.829l0.711,3.324l0.921,-0.359l1.703,0.812l-0.098,1.381l0.421,2.012l0.499,1.007l2.071,1.627l0.83,2.661l4.611,1.39l3.014,3.989l-0.284,2.744l1.115,1.708l-0.092,1.694l-2.012,-0.445l0.786,3.629l2.755,2.065l3.896,2.265l1.162,-0.773l2.248,0.993l2.831,2.094l1.575,0.459l0.941,1.533l2.179,0.627l2.275,1.393l3.172,0.725l3.27,0.309l1.71,-0.665l0.235,2.481l1.854,-2.341l1.515,-0.803l2.004,0.732l1.48,0.077l1.228,0.849l2.262,-0.395l2.552,-2.355l3.232,-2.03l2.352,0.785l1.999,-1.346l1.314,1.986l-0.947,1.334l3.023,0.474l1.641,-0.235l0.937,1.86l1.224,0.75l0.083,2.398l-0.113,2.566l-2.655,2.58l-0.337,3.635l2.96,-0.506l0.669,2.801l1.775,0.587l-0.816,2.507l2.082,1.128l1.214,0.552l2.057,-0.874l0.085,1.24l0.252,0.703l1.495,0.082l-0.424,-3.433l1.453,-0.442l1.505,-0.737l2.236,0.016l2.726,-0.349l2.39,-1.615l1.352,1.138l2.563,0.553l-0.443,1.738l1.335,1.222l2.823,0.778l1.325,-0.488l3.762,0.959l-0.664,1.157l0.735,2.162l1.554,-0.174l0.957,-3.151l2.967,-0.459l3.919,-1.504l1.586,-1.498l0.97,0.979l1.714,-1.34l3.159,-0.347l3.9,-2.553l3.855,-2.818l2.604,-3.676l2.271,-4.086l2.047,-3.407l1.567,-0.284l0.712,-2.518l0.431,-2.609l-1.65,-1l-0.671,-1.725l1.76,-0.887l0.046,-2.426l-1.904,-2.529l-1.706,-3.046l-1.102,-3.307l-3.019,-1.864l1.439,-2.393l2.727,-1.728l1.311,-1.872l3.97,-0.974l-0.455,-1.836l-1.813,-0.093l-2.489,-1.374l-3.143,2.513l-2.218,-1.025l-0.095,-1.583l-2.294,-0.582l-1.479,-2.409l1.431,-1.676l2.75,-0.173l1.728,-2.34l3.165,-2.544l2.444,-1.302l1.481,1.93l-2.221,2.454l0.587,1.411l-1.49,1.668l3.02,-0.981l2.064,-1.689l3.92,-1.057l1.322,0.975l1.637,0.395l0.184,0.591l-0.711,1.941l0.249,0.654l-0.661,0.419l-0.768,1.567l0.754,0.565l0.727,0.324l0.099,0.665l0.821,-0.293l0.339,-0.664l1.361,0.673l1.922,3.004l-2.083,0.587l1.239,3.601l-0.52,2.565l0.313,1.848l2.525,-0.29l2.241,-1.408l2.539,-0.654l1.057,-1.881L838.241,352.977zM868.649,337.121l-1.185,2.333l0.481,4.1l-1.763,4.383l-1.595,1.377l-4.113,3.512l-1.869,-1.671l-2.934,6.168l-2.998,-0.702l-5.581,1.023l-2.057,2.333l-2.82,1.75l-1.471,2.114l-2.65,1.03l1.139,2.281l1.774,0.962l-0.688,2.961l1.356,1.268l1.813,-1.373l1.871,-5.611l-2.843,-2.463l3.282,-0.064l3.318,-1.588l4.877,-0.747l0.116,2.523l1.884,1.288l3.995,-3.844l4.929,-0.208l3.582,-1.602l1.461,-2.416l-0.489,-1.731l1.057,-2.781l-0.048,-3.64l2.594,-3.602l0.083,-2.938l-1.528,-5.108L868.649,337.121zM850.7,361.281l-1.152,1.417l-1.595,-0.39l-1.551,2.003l-0.022,1.583l1.827,0.946l0.744,-1.946l1.438,-0.777l1.15,1.072l1.579,-2.025l-0.358,-1.154L850.7,361.281zM882.711,324.973l-1.983,1.651l-1.972,-0.829l-2.151,-1.314l-3.295,-4.117l-0.829,3.089l-0.817,5.381l-2.996,0.213l-1.387,2.937l0.386,3.741l3.119,-0.056l1.525,-4.122l4.409,2.583l2.455,-3.763l4.159,-1.048L882.711,324.973zM784.27,406.201l-3.063,0.831l-1.382,1.341l0.081,2.535l2.299,0.91l2.423,-1.412l0.648,-1.702l1.232,-1.301l-0.627,-1.131L784.27,406.201z"/>
		<path id="sAsia" title="Southern Asia" class="land" d="M703.219,439.442l1.355,2.929l-0.422,2.922l-1.176,0.797l-2.438,0.641l-1.335,-2.229l-0.497,-4.038l1.27,-4.578l1.938,1.569L703.219,439.442zM748.355,382.428l-0.212,-1.198l-3.023,-0.474l0.947,-1.334l-1.314,-1.986l-1.999,1.346l-2.352,-0.785l-3.232,2.03l-2.552,2.355l-2.262,0.395l-1.228,-0.849l-1.48,-0.077l-2.004,-0.732l-1.515,0.803l-1.854,2.341l-0.235,-2.481l-1.71,0.665l-3.27,-0.309l-3.172,-0.725l-2.275,-1.393l-2.179,-0.627l-0.941,-1.533l-1.575,-0.459l-2.831,-2.094l-2.248,-0.993l-1.162,0.773l-3.896,-2.265l-2.755,-2.065l-0.786,-3.629l2.012,0.445l0.092,-1.694l-1.115,-1.708l0.284,-2.744l-3.014,-3.989l-4.611,-1.39l-0.83,-2.661l-2.071,-1.627l-0.499,-1.007l-2.893,-0.006l-1.931,-0.259l-1.747,1.57l-1.244,0.347l-0.978,0.733l-1.109,-1.143l0.261,-2.956l-0.848,-0.168l0.305,-1.084l-1.518,-0.81l-1.207,1.238l-0.297,1.428l-0.432,0.518l-1.676,-0.073l-0.904,1.609l-0.945,-0.678l-2.029,1.126l-0.856,-0.427l-2.115,-0.741l-1.562,-0.023l-0.845,-0.109l-1.323,-0.941l-0.439,1.252l-2.363,0.678l-0.56,2.785l-1.58,1.052l-2.213,0.52l-0.586,1.556l-2.114,0.457l-2.859,-1.3l-0.246,-2.906l-2.09,-0.125l-3.204,-3.095l-2.239,-0.384l-3.101,-1.791l-1.994,-0.327l-1.23,0.66l-1.875,-0.103l-1.994,2.017l-2.464,0.679l-0.269,0.818l-4.379,0.923l-3.986,-0.601l-1.947,-1.757l-2.659,-0.733l-0.887,-2.611l-0.698,0.178l-1.749,-1.869l0.967,-1.779l-0.829,-1.062l-1.051,0.268l-3.307,2.656l-1.015,0.105l-1.923,-0.477l-1.417,-1.661l-0.445,-1.366l-1.92,1.032l0.875,4.112l-0.549,1.1l1.534,2.822l1.816,4.147l1.839,1.034l0.211,2l-1.411,1.175l-0.65,2.638l1.942,3.181l3.436,1.819l1.443,2.503l-0.459,2.367l0.896,-0.001l0.028,1.729l1.551,1.697l1.047,-1.259l1.782,1.069l1.509,-0.522l2.069,4.273l1.873,3.007l2.699,0.897l2.83,2.41l3.427,1.035l2.828,-1.511l2.154,-0.56l1.342,0.555l1.196,3.816l3.164,0.402l3.058,0.71l5.274,0.931l3.948,-0.432l4.556,-0.057l5.166,-0.581l2.166,2.344l0.837,2.199l2.055,0.771l3.289,2.576l0.828,1.186l-1.349,1.089l3.663,3.631l1.977,0.357l4.08,-1.788l0.544,2.794l-0.011,3.588l0.839,3.763l1.161,5.646l2.551,3.968l0.484,1.796l0.696,3.582l1.489,2.739l0.982,1.345l1.076,2.86l1.298,3.957l2.654,2.629l1.125,-0.809l0.944,-1.916l2.557,-0.8l-0.854,-0.931l1.276,-2.157l1.451,-0.137l0.013,-4.825l1.188,-2.711l-0.149,-2.376l-0.583,-3.743l0.84,-2.206l1.311,-0.153l2.525,-1.039l1.397,-0.716l0.004,-1.339l2.794,-1.911l2.108,-1.848l3.138,-3.466l4.035,-1.994l1.497,-1.76l-0.161,-2.248l3.456,-0.622l1.908,0.038l0.401,-1.097l1.085,0.269l0.794,0.328l0.407,-0.547l1.193,0.609l0.88,-1.674l-0.255,-1.245l2.583,0.121l1.171,1.756l0.534,1.447l0.161,1.525l0.802,1.556l-0.184,-2.403l0.979,0.453l0.058,-2.151l1.383,-0.714l-0.296,-1.281l0.634,-1.031l0.108,-3.148l2.191,0.695l1.25,-2.521l0.143,-1.499l1.547,-2.593l-0.085,-1.78l3.63,-2.162l2.004,0.567l-0.23,-1.933L748.355,382.428z"/>
		<path id="seAsia" title="Southeastern Asia" class="land" d="M812.622,425.525l2.402,0.105l0.974,1.031l-0.744,2.467l-1.2,-1.423L812.622,425.525zM811.913,421.201l1.384,1.655l0.362,-1.038l0.837,0.666l-0.876,0.732l-0.143,1.187l1.396,0.634l2.547,-0.424l1.785,1.715l0.722,-1.051l1.036,1.504l2.185,1.402l0.292,-1.316l-0.915,-0.687l0.267,-1.56l-3.502,-1.592l-1.24,0.34l-1.486,-0.317l-0.627,-2.294l0.441,-2.332l1.653,-0.961l0.738,-2.417l-0.957,-2.094l0.456,-1.215l-0.255,-0.746l-0.864,0.764l-1.729,-0.838l-1.697,-0.004l-0.914,2.656l-0.29,4.555l-1.129,-0.955l0.104,2.774L811.913,421.201zM825.429,431.376l-1.649,-0.227l0.438,1.719l0.845,0.147l0.116,1.992l1.334,-0.634l-0.687,-1.749l-0.059,-0.953l2.164,0.753l-0.788,-3.175l-0.772,-1.064l-2.692,-0.063l1.714,2.176L825.429,431.376zM808.994,435.38l1.851,-1.559l-0.499,-2.314l-1.47,2.818l-1.684,1.957l-2.025,1.743l-1.375,1.971l3.73,-2.675L808.994,435.38zM819.979,432.892l-0.31,1.759l-0.704,0.792l-0.577,0.757l1.727,1.952l0.881,-0.835l0.878,-1.785l1.008,-0.93l0.268,-2.705l-2.075,2.737l0.451,-1.908L819.979,432.892zM827.057,438.251l-1.982,0.075l-0.457,1.257l-2.132,0.771l-0.991,-1.275l-1.529,1.062l-1.766,0.792l-1.101,2.368l0.464,0.822l2.075,-1.566l1.319,0.108l0.881,-1.165l1.776,1.329l-0.855,1.334l0.788,2.029l3.3,1.625l0.804,-1.312l-0.896,-2.065l1.311,-1.424l1.024,2.859l0.955,-2.566l-0.165,-1.576l-0.285,-1.869l-0.196,-1.036l-0.235,-1.42l-2.273,-1.34L827.057,438.251zM816.996,430.022l0.435,1.354l-0.199,1.448l0.099,1.317l1.781,-0.851l1.298,-1.205l0.055,-1.187l-1.784,0.004L816.996,430.022zM745.841,416.985l1.847,-1.459l1.213,2.407l0.507,3.652l0.914,3.44l1.138,1.484l-0.228,3.11l0.942,1.684l-0.861,2.174l0.271,2.102l-0.826,2.708l-0.306,1.758l0.531,1.563l0.461,-1.653l1.358,1.334l1.489,1.586l0.479,1.39l1.108,1.076l0.618,1.188l-0.308,2.038l1.012,1.524l0.387,2.313l1.621,1.866l0.328,1.421l3.317,2.212l2.652,2.064l1.988,-0.186l0.054,-0.942l-1.103,-2.465l-0.987,-0.768l-0.205,-1.651l-0.272,-0.959l0.298,-1.27l-0.16,-1.881l-1.177,-1.873l-1.656,-1.69l-0.645,-0.262l-1.452,-1.455l-1.699,-0.326l-1.564,-1.607l-0.504,-2.434l-1.138,-2.572l-1.826,-0.089l-0.192,-2.044l0.911,-2.502l1.514,-4.154l0.222,-3.143l2.47,-0.017l-0.411,2.247l2.398,-0.053l2.517,1.31l1.418,2.938l1.141,1.478l2.347,0.414l2.08,1.608l-0.788,1.914l1.019,1.808l3.496,-2.626l2.287,-2.357l3.211,-1.825l2.338,-1.871l0.379,-5.021l-1.284,-5.323l-1.704,-2.324l-2.544,-1.794l-2.622,-3.815l-2.145,-3.098l0.616,-2.05l2.336,-2.807l3.744,-2.557l-2.823,-0.778l-1.335,-1.222l0.443,-1.738l-2.563,-0.553l-1.352,-1.138l-2.39,1.615l-2.726,0.349l-2.236,-0.016l-1.505,0.737l-1.453,0.442l0.424,3.433l-1.495,-0.082l-0.252,-0.703l-0.085,-1.24l-2.057,0.874l-1.214,-0.552l-2.082,-1.128l0.816,-2.507l-1.775,-0.587l-0.669,-2.801l-2.96,0.506l0.337,-3.635l2.655,-2.58l0.113,-2.566l-0.083,-2.398l-1.224,-0.75l-0.937,-1.86l-1.641,0.235l0.212,1.198l-0.983,0.579l0.23,1.933l-2.004,-0.567l-3.63,2.162l0.085,1.78l-1.547,2.593l-0.143,1.499l-1.25,2.521l-2.191,-0.695l-0.108,3.148l-0.634,1.031l0.296,1.281l-1.383,0.714l-0.058,2.151l-0.979,-0.453l0.184,2.403l1.989,2.424l1.641,0.38l-0.343,1.066l2.197,3.395l0.585,2.74l-0.966,3.604l1.737,0.68l1.572,0.258L745.841,416.985zM829.054,473.438l1.938,0.513l1.05,-0.926l-0.697,-0.92l-2.836,0.134L829.054,473.438zM772.062,475.388l0.704,-3.471l-1.364,-1.765l-2.059,-0.247l-0.977,-1.555l-0.476,-1.943l-1.007,-0.071l-1.606,-0.967l1.123,-2.274l-2.135,-1.272l-1.623,-2.333l-2.355,-1.909l-2.851,-0.043l-2.656,-2.997l-1.546,-1.161l-2.169,-1.893l-2.479,-2.733l-4.34,-0.541l-1.806,-0.113l0.246,1.424l2.925,3.078l2.111,1.563l1.466,2.386l2.528,1.755l1.033,2.175l0.824,2.395l2.462,2.321l2.133,3.9l1.393,2.089l2.122,2.271l1.2,1.692l3.601,2.283l2.361,2.339l3.104,-0.059L772.062,475.388zM804.645,463.1l0.936,-1.898l3.322,-0.329l-3.144,-2.578l0.484,-1.282l-2.062,-2.64l1.595,-2.521l2.064,-0.952l-0.5,-1.365l1.881,-0.139l0.2,-1.095l-2.34,-0.842l-1.847,-0.78l-0.128,-1.218l-1.44,-1.419l-1.134,0.009l-1.414,2.191l-2.159,1.947l-2.386,1.532l-1.11,1.046l-1.377,1.766l-2.011,2.207l-3.361,0.604l-1.196,0.526l-0.564,2.36l-2.167,0.521l-2.055,-0.955l-1.666,1.852l-0.326,2.581l0.391,2.437l1.346,2.383l1.399,0.774l0.429,3.738l2.312,0.322l1.836,-0.154l1.023,1.35l3.333,-1.003l1.398,0.894l1.999,0.158l1.11,1.707l3.186,-1.256l0.413,0.993l1.081,-4.266l0.074,-2.775l2.696,-1.905L804.645,463.1zM835.212,465.558l-1.155,-1.47l0.427,-1.695l1.446,0.272l0.146,-2.434l-0.263,-1.138l-1.655,-0.244l-0.202,-1.522l-0.93,1.014l-0.564,2.226l0.833,3.561l1.132,1.764L835.212,465.558zM837.99,471.192l-3.463,0.116l-0.665,1.534l1.94,0.098l1.582,-0.184l2.343,0.233l2.367,1.15l-1.02,-2.134L837.99,471.192zM851.783,479.519l-0.498,1.007l0.273,2.11l1.442,-1.909l0.007,-1.335l-0.638,-0.819L851.783,479.519zM870.644,479.732l-0.047,-9.103l-3.01,-0.533l-2.08,-0.997l-2.397,-0.972l-2.493,0.002l-3.217,1.682l-2.344,2.958l-2.901,-1.669l-0.783,-4.507l-0.442,-1.035l-4.501,-1.144l-1.438,0.908l-3.779,0.675l1.187,1.378l2.505,0.514l1.11,1.659l4.104,0.005l0.235,0.74l-2,-0.054l-3.02,1.004l2.142,1.37l0.009,1.212l0.637,1.024l1.076,-0.246l0.828,-1.356l4.21,2.58l2.313,0.233l5.436,2.368l1.346,2.35l0.731,3.05l-1.766,0.78l-1.19,2.289l3.553,-0.086l0.69,-0.802l2.848,0.566l2.497,2.313L870.644,479.732zM811.436,489.576l-2.614,0.555l3.721,1.981l1.18,-0.054l0.168,-0.764l-0.98,-0.858L811.436,489.576zM808.57,486.529l-1.732,0.23l-1.011,-0.75l-0.751,0.995l-1.538,0.022l-0.963,1.623l1.507,0.022l1.942,-0.378l3.241,-0.566L808.57,486.529zM792.028,484.599l-1.021,-1.82l-5.201,-1.349l-0.618,1.156l-5.371,-0.28l-0.384,-0.997l-1.162,-0.214L776.008,480l-3.401,-0.166l-1.924,2.678l2.565,0.206l0.486,1.207l5.113,1.157l1.166,-0.352l2.059,0.278l3.248,1.074l2.624,0.505l2.909,0.208l2.538,-0.077l3.083,1.135l3.199,-1.073l-3.438,-1.672L792.028,484.599zM814.34,467.31l-2.51,-2.477l0.398,-2.108l2.449,-0.401l4.673,-0.139l2.698,0.544l2.107,-0.536l2.253,-2.763l-0.489,-0.623l-2.771,2.023l-3.225,0.117l-3.535,-0.387l-2.189,-0.823l-2.384,2.069l-0.588,1.148l-1.409,4.199l-0.399,2.212l-1.159,1.826l0.871,1.911l1.18,0.021l0.434,2.694l-0.804,2.573l1.204,0.821l1.778,-0.406l-0.114,-3.999l-0.237,-3.253l1.87,-0.848l-0.208,2.718l2.021,1.637l-0.363,1.079l0.697,0.773l2.752,-1.082l-1.355,2.289l1.1,0.984l1.497,-0.822l0.024,-1.837l-2.521,-3.223l0.513,-0.958l-2.653,-3.573l2.468,-1.08l1.218,-1.632l1.222,0.405l0.23,-1.283l-5.229,0.948L814.34,467.31zM815.478,487.25l-1.757,-0.844l-2.228,0.585l0.01,1.03l3.729,0.348l4.213,-0.8l0.411,-1.564l-2.513,1.031L815.478,487.25zM830.346,486.86l-1.956,0.095l-2.413,0.633l-0.33,0.665l-2.771,1.12l-1.206,1.724l-0.252,0.962l0.336,0.34l2.4,-0.623l1.829,-2.111l2.348,-0.811l2.923,-1.234l1.031,-0.764l-1.062,-0.349L830.346,486.86z"/>
		<path id="wAsia" title="Western Asia" class="land" d="M549.157,340.962l-0.882,-1.708l0.039,-0.761l0.666,-0.414l0.868,-2.325l-1.366,-0.99l2.856,-1.183l2.414,0.505l0.333,1.441l2.447,1.204l-0.51,0.909l-3.33,0.204l-1.196,1.142L549.157,340.962zM641.942,398.54l-0.756,-1.005l-1.266,-1.74l-1.66,-0.555l-2.057,-0.398l-1.565,-1.108l-1.257,-2.095l-0.381,-2.437l0.365,-0.562l0.265,-1.283l-0.347,-0.271l-0.817,1.059l-1.771,1.908l-2.091,1.975l-1.921,2.071l-1.693,-0.09l-2.319,-0.08l-2.194,0.481l-0.104,-0.838l-0.499,0.149l-0.532,-1.17l0.608,-1.809l-0.049,-1.809l-0.849,-0.972l-0.766,0.334l-0.756,1.624l0.186,2.241l-0.419,-0.753l-0.374,-1.01l-0.806,-0.866l-0.354,-1.041l0.279,-1.034l-0.17,-1.286l-1.911,-1.314l-0.48,-1.102l-1.379,-0.719l-1.098,-2.728l-0.903,-2.404l0.25,-0.731l-0.585,-1.418l1.664,0.158l-1.551,-1.697l-0.028,-1.729l-0.896,0.001l0.459,-2.367l-1.443,-2.503l-3.436,-1.819l-1.942,-3.181l0.65,-2.638l1.411,-1.175l-0.211,-2l-1.839,-1.034l-1.816,-4.146l-1.534,-2.822l0.549,-1.1l-0.875,-4.112l1.92,-1.032l0.445,1.366l1.417,1.661l1.923,0.477l1.015,-0.105l3.307,-2.656l1.051,-0.268l0.829,1.062l-0.967,1.779l1.749,1.869l0.698,-0.178l-0.075,-1.769l1.028,-0.839l0.482,-1.263l0.487,-2.823l2.31,-0.294l-0.863,-0.988l-1.307,-0.172l-1.426,-2.623l-1.474,-1.965l-1.674,1.506l-0.481,0.945l-1.241,-0.253l-1.927,-2.266l-0.788,-0.126l-1.762,-0.871l-0.858,-1.55l-2.615,-0.794l-1.7,0.597l-0.491,-0.706l-3.818,-1.831l-4.128,-0.622l-2.37,-0.658l-0.342,0.455l1.027,1.176l1.554,0.44l1.621,1.404l0.7,2.577l-0.418,1.6l-3.311,1.94l-2.414,-0.33l-3.266,0.571l-4.022,-1.435l-4.894,-2.637l-4.639,0.08l-3.267,1.061l-3.371,2.416l-5.344,-0.491l-1.178,2.806l-4.318,0.147l-3.11,3.484l1.777,1.723l-1.364,2.778l2.048,1.964l1.661,3.484l3.061,-0.063l2.711,1.847l1.938,-0.411l0.646,-1.44l3.022,0.117l2.27,1.861l4.255,-0.389l1.928,-1.999l2.345,0.801l1.71,-0.296l-1.062,1.304l1.031,1.566l-0.686,1.413l0.262,2.608l-0.053,0.119l-1.395,2.379l-0.999,2.726l-0.077,0.034l-0.401,0.842l-0.568,2.495l-0.742,1.535l0.191,0.186l-0.816,1.077l1.843,5.555l0.094,0.463l-0.347,1.275l-0.125,1.114l-0.436,1.739l1.396,-0.015l1.43,2.164l1.708,2.523l1.095,2.312l0.819,0.691l0.779,1.6l-0.153,0.695l0.922,1.757l1.515,0.632l1.315,1.189l1.608,3.362l-0.119,1.786l0.324,2.084l1.857,2.842l1.25,0.488l1.939,2.039l0.791,2.403l1.495,2.46l1.448,1.048l0.216,1.165l0.846,0.877l0.364,1.24l0.125,1.265l-0.34,0.559l0.288,1.321l-0.561,0.14l0.806,1.186l0.549,2.128l0.458,0.847l-0.08,1.566l0.729,1.67l1.94,0.145l0.896,-0.387l1.388,0.063l0.434,-0.727l0.735,-0.208l0.613,-0.755l0.708,-0.163l2.354,-0.149l1.787,-0.551l1.639,-1.191l0.841,0.17l1.234,-0.158l2.511,-2.029l4.48,-1.345l2.791,-1.22l0.066,-0.987l0.543,-1.288l2.027,-0.781l1.296,-0.165l1.875,-0.982l1.547,0.275l1.356,-0.81l-0.014,-1.18l1.098,-0.737l1.744,0.023l0.642,-0.618l0.273,-1.43l1.751,-1.1l1.29,0.01l0.265,-0.362l-0.345,-1.975l0.45,-1.504l0.583,-0.708l1.271,0.156l1.047,-2.042l1.181,-0.957l0.448,-0.841l1.021,-1.792l0.006,-0.673L641.942,398.54zM570.306,358.286l1.895,-1.459l-2.549,1.023l-2.02,-0.046l-0.405,0.825l-0.198,0.019l-1.332,0.125l0.655,1.367l1.373,0.44l2.874,-1.38l-0.088,-0.274L570.306,358.286z"/>
		<path id="eEurope" title="Eastern Europe" class="land" d="M864.863,142.851l-5.555,-7.013l1.507,-7.752l3.699,-2.18l7.404,0.512l10.135,6.071l-2.205,8.145l-10.335,-0.296L864.863,142.851zM769.869,98.338l0.833,-5.72l-7.107,-8.343l-2.106,-0.985l-2.304,1.696l-5.122,18.604L769.869,98.338zM870.068,151.559l-2.66,3.915l0.491,0.518l5.746,1.084l4.251,-0.068l-0.339,-2.569l-3.983,-3.81L870.068,151.559zM979.946,178.648l3.662,-0.52l2.889,-2.065l0.24,-1.188l-4.056,-2.515l-2.376,-0.019l-0.359,0.371l-3.574,3.645l0.5,2.726L979.946,178.648zM894.642,142.031l3.241,-4.248l-7.036,-2.875l-5.227,-1.681l-0.671,3.585l5.211,4.267L894.642,142.031zM1008.267,215.754l-2.78,2.973l-4.596,0.698l-0.069,6.463l-1.123,1.347l-2.625,-0.193l-2.138,-2.264l-3.728,-1.917l-0.627,-2.89l-2.848,-1.102l-3.188,0.875l-1.523,-2.369l0.609,-2.552l-3.358,1.635l1.265,3.194l-1.591,2.833l-0.021,0.036l-3.604,2.885l-3.634,-0.478l2.529,3.442l1.669,5.201l1.295,1.668l0.325,2.532l-0.724,1.602l-5.226,-1.317l-7.837,4.511l-2.493,0.688l-4.29,4.096l-4.07,3.505l-1.03,2.553l-4.011,-3.9l-7.306,4.419l-1.275,-2.078l-2.701,2.394l-3.75,-0.763l-0.903,3.631l-3.364,5.218l0.101,2.137l3.193,1.174l-0.376,7.458l-2.603,0.186l-1.201,4.154l1.167,2.104l-4.903,2.467l-0.973,5.405l-4.181,1.135l-0.84,4.663l-4.042,4.183l-1.036,-3.085l-1.201,-6.693l-1.564,-10.647l1.348,-6.954l2.365,-3.071l0.146,-2.441l4.357,-1.18l5.009,-6.781l4.826,-5.727l5.04,-4.57l2.254,-8.366l-3.406,0.511l-1.685,4.922l-7.111,6.361l-2.297,-7.138l-7.238,1.999l-7.018,9.56l2.315,3.377l-6.258,1.419l-4.335,0.557l0.203,-3.946l-4.358,-0.839l-3.474,2.702l-8.573,-0.941l-9.223,1.62l-9.083,10.33l-10.745,11.777l4.417,0.61l1.379,3.001l2.724,1.055l1.794,-2.378l3.076,0.311l4.048,5.191l0.095,3.924l-2.191,4.512l-0.237,5.266l-1.265,6.848l-4.226,6.013l-0.939,2.817l-3.806,4.662l-3.777,4.528l-1.811,2.283l-3.736,2.245l-1.769,0.049l-1.761,-1.858l-3.764,2.792l-0.438,1.258l-0.393,-0.661l-0.017,-1.929l1.432,-0.103l0.404,-4.553l-0.739,-3.358l2.407,-1.399l3.402,0.703l1.886,-3.888l0.961,-4.462l1.089,-1.511l1.474,-3.761l-4.634,1.239l-2.431,1.647l-4.261,-0.005l-1.135,-3.945l-3.321,-3.035l-4.88,-1.379l-1.037,-4.284l-0.977,-2.731l-1.051,-1.937l-1.733,-4.611l-2.462,-1.711l-4.196,-1.394l-3.718,0.127l-3.484,0.845l-2.315,2.313l1.538,1.095l0.035,2.522l-1.56,1.45l-2.531,4.725l0.026,1.929l-3.952,2.739l-3.365,-1.632l-3.346,0.361l-1.468,-1.457l-1.682,-0.472l-4.106,3.059l-3.691,0.712l-2.577,1.062l-3.532,-0.697l-2.6,0.045l-1.702,-2.203l-2.746,-2.092l-2.81,-0.577l-3.547,0.573l-2.65,0.809l-3.983,-1.841l-0.534,-3.322l-3.297,-1.151l-2.545,-0.527l-3.141,-1.871l-2.904,4.659l1.139,2.6l-2.726,3.034l-4.054,-1.09l-2.799,-0.156l-1.874,-2.042l-2.925,-0.065l-2.438,-1.354l-4.265,2.071l-5.35,3.739l-2.956,0.744l-1.098,0.352l-1.487,-2.634l-3.612,0.579l-1.193,-1.843l-1.96,-0.848l-1.35,-2.545l-1.548,-0.799l-4.029,1.14l-3.862,-2.565l-1.494,2.333l-6.266,-11.576l-3.577,-3.659l1.025,-1.504l-7.026,4.494l-2.689,0.268l0.232,-2.583l-3.602,-1.631l-2.927,1.166l-0.883,-5.012l-5.039,-1.059l-2.521,2.033l-7.016,1.791l-1.369,1.189l-10.492,1.663l-1.285,1.618l2.024,3.208l-2.692,1.204l0.525,1.254l-2.691,2.223l4.544,3.098l-0.702,2.106l-3.938,-0.191l-0.814,1.31l-3.586,-2.293l-4.445,0.089l-2.976,1.868l-3.319,-1.791l-6.181,-3.102l-4.38,0.117l-5.788,4.849l-0.349,3.193l-2.883,-2.532l-2.237,4.77l0.819,0.874l-1.618,3.215l2.38,2.837l2.081,-0.116l1.787,2.76l-0.284,2.102l1.424,0.656l-1.278,2.391l-2.718,0.66l-2.787,4.088l2.548,3.695l-0.276,2.586l3.062,4.456l-1.674,1.506l-0.481,0.945l-1.241,-0.253l-1.927,-2.266l-0.788,-0.126l-1.763,-0.871l-0.858,-1.55l-2.615,-0.794l-1.7,0.597l-0.491,-0.706l-3.818,-1.831l-4.128,-0.622l-2.37,-0.658l-0.342,0.455l-3.575,-3.274l-3.199,-1.477l-2.422,-2.319l2.041,-0.636l2.327,-3.354l-1.568,-1.605l4.132,-1.667l-0.074,-0.899l-2.517,0.663l-2.239,0.328l-1.865,1.322l-2.625,0.215l-2.415,1.513l-1.324,1.03l1.488,1.471l1.372,0.962l2.86,-0.239l-0.548,1.417l-3.069,0.685l-3.806,2.272l-1.559,-0.796l0.618,-1.85l-3.064,-1.161l0.496,-0.763l3.163,-1.636l-0.393,-0.815l-0.452,0.411l-0.446,-0.21l-4.358,-1.021l-0.193,-1.515l-2.598,0.501l-1.041,2.228l-2.171,2.956l0.065,1.022l-1.359,0.849l-0.852,-0.369l-0.784,4.711l-1.649,-0.406l-2.04,-1.412l-3.301,0.904l-1.391,0.988l-4.118,-0.204l-2.154,-0.604l-1.086,0.284l-0.807,-1.598l-0.514,-0.681l0.65,-0.661l-0.692,-0.489l-0.88,0.879l-1.635,-1.141l-0.22,-1.628l-1.708,-0.935l-0.314,-1.271l-1.52,-1.579l-1.75,-0.179l-2.148,1.058l-1.048,0.6l-2.316,-0.771l-2.096,-1.731l-0.891,-0.5l-0.545,-1.375l-0.472,-0.045l0.931,-2.647l-0.543,-0.898l1.579,-0.008l0.213,-1.705l-0.279,-1.456l0.225,-0.536l-1.292,-0.8l-1.317,0.22l-2.176,-1.298l-0.987,0.318l-1.577,1.735l-2.083,-1.364l-1.583,-1.835l-1.431,-1.033l-0.296,-1.825l-0.491,-1.296l2.038,-0.955l1.042,-1.098l2.013,-0.858l0.703,-0.846l0.739,0.512l1.251,-0.464l-1.149,-2.864l0.219,-1.563l-0.694,-2.449l-1.018,-1.649l0.782,-1.244l-0.655,-2.393l1.916,-1.395l4.375,-2.216l3.531,-1.638l2.798,0.819l0.211,1.177l2.704,0.061l0.639,-2.127l3.869,-1.583l2.936,0.856l1.24,0.773l-0.299,1.327l0.225,1.228l1.438,0.512l0.673,1.469l2.71,0.032l3.044,-1.797l0.651,-2.724l2.299,-1.562l-0.264,-2.207l1.705,-0.835l3.012,-1.93l-0.901,-2.989l-0.239,-2.492l-1.351,-1.194l1.201,-1.659l-0.832,-4.962l1.995,-3.133l-0.422,-0.959l3.187,-3.071l-2.938,-2.684l6.003,-7.405l2.604,-3.453l1.055,-3.104l-4.15,-4.256l1.146,-4.145l-2.524,-4.854l1.888,-5.764l-3.261,-7.957l2.587,-5.478l-4.294,-4.99l0.409,-5.404l2.265,-0.724l4.771,-3.188l2.893,-2.813l4.606,4.86l7.678,1.876l10.594,8.646l2.152,3.508l0.185,4.796l-3.113,3.695l-4.578,1.846l-12.517,-5.313l-2.059,0.9l4.571,5.097l0.179,3.154l0.183,6.753l3.61,1.966l2.191,1.657l0.362,-3.107l-1.689,-2.801l1.785,-2.505l6.778,4.099l2.361,-1.593l-1.887,-4.877l6.535,-6.742l2.588,0.404l2.618,2.43l1.633,-4.811l-2.338,-4.283l1.373,-4.406l-2.061,-4.692l7.843,2.442l1.602,4.183l-3.55,0.908l0.019,4.038l2.207,2.438l4.332,-1.541l0.686,-4.611l5.857,-3.525l9.785,-6.543l2.114,0.382l-2.764,4.64l3.478,0.785l2.009,-2.584l5.255,-0.211l4.164,-3.193l3.195,4.621l3.186,-5.087l-2.938,-4.577l1.458,-2.663l8.282,2.443l3.881,2.488l10.161,8.799l1.875,-3.975l-2.85,-4.111l-0.082,-1.677l-3.379,-0.782l0.925,-3.827l-1.5,-6.491l-0.085,-2.737l5.175,-7.99l1.84,-8.419l2.085,-1.878l7.423,2.514l0.585,5.183l-2.658,7.283l1.744,2.779l0.902,5.938l-0.637,11.073l3.093,4.73l-1.203,5.008l-5.492,10.198l3.205,1.024l1.115,-2.514l3.085,-1.815l0.744,-3.553l2.427,-3.489l-1.634,-4.26l1.309,-5.083l-3.066,-0.644l-0.674,-4.418l2.237,-8.278l-3.642,-7.033l5.018,-6.042l-0.648,-6.619l1.398,-0.216l1.473,5.189l-1.105,8.667l3,1.592l-1.278,-6.373l4.692,-3.579l5.819,-0.488l5.181,5.18l-2.493,-7.622l-0.279,-10.282l4.876,-2.021l6.744,0.444l6.075,-1.321l-2.278,-5.381l3.245,-7.016l3.221,-0.3l5.452,-5.513l7.403,-1.514l0.936,-3.153l7.362,-1.082l2.294,2.606l6.293,-6.237l5.151,0.199l0.772,-5.238l2.68,-5.334l6.619,-5.312l4.809,4.208l-3.818,3.131l6.352,1.917l0.757,6.034l2.562,-2.943l8.197,0.163l6.32,5.843l2.251,4.351l-0.698,5.854l-3.102,3.242l-7.368,5.917l-2.106,3.079l3.477,1.433l4.148,2.552l2.523,-1.91l1.431,6.393l1.231,-2.559l4.483,-1.575l8.996,1.646l0.684,4.576l11.722,1.43l0.16,-7.473l5.95,1.742l4.477,-0.054l4.527,5.138l1.291,6.038l-1.659,3.836l3.521,6.982l4.41,3.493l2.705,-9.178l4.498,3.996l4.778,-2.376l5.427,2.716l2.065,-2.475l4.587,1.242l-2.024,-8.398l3.702,-4.067l25.323,6.061l2.387,5.355l7.34,6.653l11.322,-1.623l5.582,1.414l2.334,3.498l-0.341,6.016l3.454,2.286l3.753,-1.641l4.973,-0.211l5.293,1.575l5.314,-0.887l4.884,6.994l3.475,-2.483l-2.268,-5.074l1.249,-3.618l8.945,2.286l5.832,-0.486l8.064,3.843l3.925,3.44l6.869,5.858l7.352,7.341l-0.241,4.437l1.891,1.745l-0.65,-5.146l7.611,1.068L1008.267,215.754zM587.114,309.396l-0.13,-0.489L587.114,309.396L587.114,309.396zM736.889,82.071l4.653,5.73l7.81,4.202l6.118,-1.803l0.691,-13.623l-6.456,-16.04l-5.448,-9.023l-6.065,4.109l-7.28,11.834l3.825,3.27L736.889,82.071zM605.64,69.025l3.037,3.876l3.277,-2.693l0.391,-2.719l2.521,-1.272l3.764,-2.235l1.085,-2.624l-4.159,-3.847l-2.643,2.903l-1.61,4.125l-0.573,-4.649l-4.26,0.211l-5.474,3.152l6.24,0.521L605.64,69.025zM880.842,306.251l-2.821,-7.684l-1.157,-4.509l0.072,-4.496l-0.971,-4.503l-0.729,-3.15l-1.248,0.673l1.113,2.205l-2.592,2.166l-0.248,6.296l1.643,4.411l-0.123,5.852l-0.649,3.237l0.32,4.537l-0.313,4.015l0.52,3.4l1.838,-3.134l2.125,2.445l0.078,-2.836l-2.732,-4.229l1.725,-6.107L880.842,306.251zM622.395,166.284l-2.867,1.958l0.41,4.832l5.075,2.348l0.744,3.818l9.161,1.102l1.656,-0.743l-5.363,-7.106l-0.57,-7.516l4.395,-9.143l4.179,-9.819l8.71,-10.168l8.563,-5.338l9.935,-5.74l1.884,-3.706l-1.949,-4.827l-5.457,1.604l-4.802,4.492l-9.332,2.222l-9.257,7.409l-6.271,5.849l0.759,4.87l-6.713,9.029l2.578,1.22l-5.562,8.271L622.395,166.284z"/>
		<path id="nEurope" title="Northern Europe" class="land" d="M527.019,75.313l-3.068,-7.478l8.658,-4.723l4.071,4.075l2.835,-5.091l7.089,4.257l5.495,5.799l-4.158,8.517l-8.132,1.806l-8.269,-2.562l-0.499,-4.322L527.019,75.313zM538.313,109.847l6.263,-5.359l-4.045,-3.035l-1.113,-5.175l-5.811,2.782l1.694,4.343l-1.935,3.424L538.313,109.847zM512.182,102.192l4.203,3.862l-2.543,4.623l6.03,7.644l3.379,-0.478l1.335,-10.505l2.46,-2.49l1.558,-10.086l7.056,-5.66l-9.23,-11.292l-3.536,-5.568l-4.117,0.563l-1.065,5.435l-3.993,0.217l-1.536,-5.561l-7.644,5.686l2.181,11.786L512.182,102.192zM553.116,267.572l-1.351,-1.194l1.201,-1.659l-0.831,-4.962l1.995,-3.133l-0.422,-0.959l-2.894,0.163l-3.042,-0.913l-3.533,0.802l-3.545,1.528l0.243,3.113l1.779,1.9l1.031,-0.672l-0.325,3.124l-0.539,3.989l-2.25,0.1l-2.227,-3.878l-2.643,1.783l-1.378,3.235l-0.097,3.807l0.596,4.164l2.936,0.856l1.24,0.773l-0.299,1.327l0.225,1.228l1.438,0.512l0.673,1.469l2.71,0.032l3.044,-1.797l0.651,-2.724l2.299,-1.562l-0.264,-2.207l1.705,-0.835l3.012,-1.93l-0.901,-2.989L553.116,267.572zM434.573,212.429l-4.652,-0.498l-4.573,3.708l-3.528,-1.957l-4.26,3.75l-4.37,-4.685l-4.25,1.032l-1.895,4.474l5.885,1.571l0.121,1.963l-4.965,1.284l6.103,3.198l-2.761,2.842l7.824,2.008l3.691,0.926l2.417,-1.148l8.088,-4.381l3.645,-5.006l-3.168,-4.601L434.573,212.429zM475.771,286.845l-1.726,-5.409l-1.919,-0.774l-2.497,-5.787l-0.223,-0.524l-2.899,-0.318l2.521,-4.535l0.731,-4.218l-3.072,-0.027l-2.856,0.716l2.997,-5.729l-3.383,0.452l-2.239,-0.425l-2.178,4.311l-1.018,5.356l1.416,2.587l0.164,4.797l1.51,-2.338l0.922,1.366l-1.019,2.195l0.668,1.318l3.405,0.852l0.042,0.068l1.878,2.952l-0.413,2.743l-0.005,0l-4.167,-0.425l-0.533,3.056l1.536,2.479l-2.93,1.413l0.793,1.799l4.379,0.749l0.022,0.004l-2.51,0.966l-4.112,4.636l1.491,0.87l1.97,-1.667l2.594,0.497l1.854,-2.058l1.308,0.867l4.773,-1.212l3.751,0.041l2.522,-2.328l-1.12,-2.327l1.428,-1.331l0.341,-2.933l-3.397,-0.882L475.771,286.845zM459.378,281.001l-3.006,-3.005l-2.351,0.202l-2.119,2.272l-3.814,3.752l1.464,4.767l-2.273,4.78l3.969,0.683l4.97,-2.682l2.12,-4.123l-0.462,-3.36L459.378,281.001zM559.469,231.691l1.146,-4.145l-2.524,-4.854l1.888,-5.764l-3.261,-7.957l2.587,-5.478l-4.294,-4.99l0.409,-5.404l2.265,-0.724l4.771,-3.188l-3.072,-5.115l3.611,-2.226l-8.77,-6.24l-5.035,1.722l-5.113,-0.381l-4.27,6.995l-4.613,-0.44l-6.153,3.592l-7.705,9.893l-4.696,5.674l-6.737,13.762l-5.133,9.301l-5.536,6.586l-7.403,5.184l-2.582,3.875l0.887,13.256l1.002,5.864l3.877,2.715l3.738,-1.245l5.536,-6.266l1.881,3.351l2.133,7.501l2.347,5.811l0.891,4.71l3.246,-0.227l1.587,-3.949l3.401,0.485l1.593,-4.759l1.069,-8.838l2.916,-1.265l2.576,-6.226l-2.682,-3.14l-1.996,-4.067l2.042,-8.413l5.415,-5.338l4.46,-5.139l-0.438,-4.016l2.719,-4.69l4.823,-1.94l3.899,3.225l0.292,2.837l-1.872,1.386l-6.415,7.02l-2.542,3.942l-1.337,3.579l1.362,5.408l-0.624,5.728l2.715,1.869l1.623,3.065l4.562,-1.179l4.931,-2.068l5.088,-0.452l6.003,-7.405l2.604,-3.453l1.055,-3.104L559.469,231.691zM505.826,274.999l0.391,2.054l2.934,2.761l1.683,-3.971l-0.895,-2.5L505.826,274.999zM504.329,270.824l-0.336,-1.429l0.83,-1.676l0.095,-2.676l-2.256,1.473l-0.984,1.429l-2.47,0.32l-0.804,1.54l-0.467,1.375l0.085,5.12l1.138,2.723l2.119,0.642l1.794,-0.741l-0.762,-2.389l2.019,-3.587l0.835,0.545l0.685,-1.901L504.329,270.824z"/>
		<path id="sEurope" title="Southern Europe" class="land" d="M518.77,347.883l-1.01,2.783l0.419,1.087l-0.588,1.795l-2.145,-1.313l-1.426,-0.377l-3.914,-1.786l0.393,-1.816l3.281,0.324l2.86,-0.387L518.77,347.883zM499.674,338.213l-1.542,-0.185l0.64,2.105l0.112,4.384l1.062,0.954l1.144,-1.201l1.275,0.228l0.394,-4.811l-1.682,-2.622L499.674,338.213zM547.506,357.916l-2.086,-0.243l-2.182,0.195l-1.533,-1.156l-0.519,1.458l3.421,0.666l-0.028,0.563l4.038,-0.29l0.351,-1.007l-1.528,0.41L547.506,357.916zM480.375,332.819l-3.155,-1.716l-1.02,0.821l-5.161,-1.73l-1.118,-1.491l-4.532,-0.127l-2.328,0.202l-2.984,-0.658l-3.764,0.024l-3.431,-0.697l-3.967,2.774l1.146,1.652l-0.141,2.687l0.123,1.262l0.561,1.336l0.063,1.567l-0.585,2.208l-0.199,1.473l-1.118,1.315l-0.223,2.354l0.67,1.353l1.254,0.328l0.263,2.178l-0.428,2.745l1.447,-0.385l1.478,0.491l1.127,-0.907l2.617,0.542l0.795,2.001l1.038,1.169l1.372,0.286l1.071,-1.306l1.756,-1.226l2.672,0.066l3.559,-0.053l1.985,-2.69l2.117,-0.702l0.606,-2.302l1.622,-1.592l-1.093,-2.054l1.081,-2.955l1.723,-2.033l0.25,-1.242l3.593,-0.784l2.657,-2.486l-0.15,-2.19L480.375,332.819zM555.326,327.606l-1.649,-0.406l-2.04,-1.412l-3.301,0.904l-1.391,0.988l-4.118,-0.204l-2.154,-0.604l-1.086,0.284l-0.807,-1.598l-0.514,-0.681l0.65,-0.661l-0.692,-0.489l-0.88,0.879l-1.635,-1.141l-0.22,-1.628l-1.708,-0.935l-0.314,-1.271l-1.52,-1.579l-1.75,-0.179l-2.148,1.058l-1.048,0.6l-2.316,-0.771l-2.096,-1.731l-0.891,-0.5l-0.545,-1.375l-0.472,-0.045l-0.534,0.688l-2.452,0.102l-1.415,0.922l-2.316,-0.314l-4.01,-1.051l-0.626,-1.424l-2.771,0.712l-0.326,0.777l-1.699,-0.581l-0.222,1.67l-1.235,0.684L501,316.789l-0.607,1.63l-1.335,0.128l-0.486,-0.639L497,319.272l-1.352,0.19l-1.207,-0.86l-0.116,1.134l0.825,1.498l-0.972,1.208l0.723,3.039l1.52,0.494l-0.321,1.684l1.165,-0.284l1.62,-1.802l1.291,-0.528l2.281,1.287l1.395,0.452l0.875,3.803l1.906,2.188l2.565,2.448l2.191,1.683l2.075,0.241l1.213,1.487l1.802,0.67l0.828,1.583l1.164,0.455l0.855,1.833l1.095,2.09l-0.609,0.766l-0.572,1.913l-0.011,1.084l1.168,-0.272l1.498,-3.057l1.171,-0.213l0.333,-1.879l-2.026,-1.344l1.18,-2.362l2.436,0.603l1.556,1.704l0.524,-1.306l-0.291,-0.683l-2.404,-1.919l-2.059,-1.12l-2.511,-1.345l0.787,-0.745l-0.683,-0.829l-2.197,0.023l-3.12,-3.047l-1.41,-3.167l-2.629,-1.951l-0.919,-1.989l0.343,-1.121l-0.155,-1.966l2.28,-1.417l2.232,0.583l-0.624,0.362l-0.1,0.064l-0.063,1.379l0.828,1.323l0.859,-1.707l1.802,0.625l0.053,1.332l1.278,1.648l-0.566,0.292l2.358,2.853l2.564,1.142l1.626,1.375l2.636,1.406v0l1.212,0.751l0.786,1.229l0.587,0.291l0.472,0.591l-0.383,1.159l-0.237,2.528l0.244,1.75l1.553,1.226l0.056,0.8l0.477,0.254l0.19,1.03l1.423,1.155l-0.167,0.642l0.181,0.254l1.093,1.641l1.219,-0.048l1.25,-0.28l0.555,0.194l0.938,0.084l-0.386,0.622l-0.553,-0.169l-0.683,-0.461l-0.59,0.163l-0.251,0.41l-0.561,-0.102l-0.357,0.484l-0.583,0.519l0.491,0.943l0.423,0.094l0.408,0.382l0.357,0.74l-0.519,0.569l0.383,1.021l0.616,0.54l0.25,-0.267l-0.118,-0.843h0.637l0.561,1.045l-0.102,0.739l0.454,0.299l0.26,-1.318l0.573,0.025l0.446,1.263l0.583,-0.014l-1.2,-3.952l1,0.694l0.917,-0.19l-0.827,-1.799l1.236,-0.209l1.358,1.146l-0.042,-2l-1.388,-1.033l-1.562,-1.65l1.057,-0.788l-1.403,-1.697l-0.626,-2.176l0.526,-0.804l1.483,1.884l1.562,-0.004l1.424,-0.594l-1.944,-2.062l3.396,-0.959l1.463,0.35l1.708,0.104l0.666,-0.414l0.868,-2.325l-1.366,-0.99l2.856,-1.183l2.414,0.505l-0.905,-2.155l1.024,-2.729L555.326,327.606z"/>
		<path id="wEurope" title="Western Europe" class="land" d="M501.581,330.286l0.477,3.253l-0.926,2.893l-1.273,-0.759l-0.649,-2.526l0.566,-1.407L501.581,330.286zM522.861,309.853l-0.279,-1.456l0.225,-0.536l-1.292,-0.8l-1.317,0.22l-2.176,-1.298l-0.987,0.318l-1.577,1.735l-2.083,-1.364l-1.583,-1.835l-1.431,-1.033l-0.296,-1.825l-0.491,-1.296l2.038,-0.955l1.042,-1.098l2.013,-0.858l0.703,-0.846l0.739,0.512l1.251,-0.464l-1.149,-2.864l0.219,-1.563l-0.694,-2.449l-1.018,-1.649l0.782,-1.244l-0.655,-2.393l-1.324,-1.513l-3.166,-1.892l-1.577,1.314l-2.851,0.896l0.03,-1.697l-2.833,-1.122l-0.05,-1.875l-1.794,0.741l-2.119,-0.642l0.129,2.744l0.641,1.793l-1.904,2.333l-0.52,-1.04l-2.343,0.257l-0.548,0.998l-2.33,-0.133l-3.836,1.959l-2.455,6.738l-1.445,1.234l-2.247,0.881l-2.452,0.898l-0.842,3.605l-6.528,3.374l-2.647,-1.849l0.889,4.845l-4.708,-1.091l-3.636,0.923l0.283,3.066l4.285,1.599l2.068,2.086l2.894,4.264l-0.534,7.877l-1.45,2.319l1.118,1.491l5.161,1.73l1.02,-0.821l3.155,1.716l3.25,-0.49l0.321,-2.292l4.083,-1.244l5.53,1.039l2.54,-2.173l0.321,-1.684l-1.52,-0.494l-0.723,-3.039l0.972,-1.208l-0.825,-1.498l0.116,-1.134l1.207,0.86l1.352,-0.19l1.572,-1.364l0.486,0.639l1.335,-0.128l0.607,-1.63l2.075,0.508l1.235,-0.684l0.222,-1.67l1.699,0.581l0.326,-0.777l2.771,-0.712l0.626,1.424l4.01,1.051l2.316,0.314l1.415,-0.922l2.452,-0.102l0.534,-0.688l0.931,-2.647l-0.543,-0.898l1.579,-0.008L522.861,309.853z"/>
		<path id="australiaNZ" title="Australia and New Zealand" class="land" d="M963.817,590.223l0.003,1.571l-1.043,1.741l-1.833,2.797l-1.435,1.541l1.034,1.856l-2.163,0.048l-2.399,1.465l-0.751,2.568l-1.594,4.027l-2.201,1.802l-1.399,1.159l-2.583,-0.086l-1.815,-1.338l-3.048,-0.284l-0.47,-1.479l1.507,-2.957l3.525,-3.875l1.81,-0.731l2.015,-1.472l2.403,-2.01l1.683,-1.975l1.247,-2.808l1.063,-0.946l0.416,-2.074l1.967,-1.703l0.622,1.566l0.636,1.531l1.994,-1.503L963.817,590.223zM974.368,576.582l-1.603,1.347l-1.895,-0.283l-2.257,-1.15l-0.419,-2.651l-1.266,-0.949l-0.059,2.383l-2.032,-3.665l-0.792,-3.063l-2.182,-0.885l-1.526,-1.887l-1.04,0.266l1.173,2.409l2.206,3.041l1.34,1.43l-0.075,0.613l1.136,2.344l0.13,2.282l-0.473,2.744l-2.026,1.253l-0.079,1.308l3.018,1.452l0.918,2.012l-1.617,3.039l1.169,0.536l0.481,0.979l2.167,-1.487l1.39,-2.532l1.06,-1.974l0.412,-0.678l-0.261,-1.561l0.749,-1.097l2.141,0.074l0.854,-2.093l0.68,-3.151L974.368,576.582zM889.352,588.218l-2.188,0.71l-1.526,0.508l-2.709,-1.277l-1.835,-0.326l-0.071,1.695l1.617,3.254l0.384,2.496l1.729,3.276l1.725,0.12l0.58,0.208l1.946,-2.675l0.98,1.047l0.289,-3.064l0.961,-1.3l-0.199,-4.425L889.352,588.218zM904.696,540.448l-0.072,-1.774l-0.788,-2.487l-2.191,-2.488l-1.302,-1.167l-1.989,-1.871l-0.483,-3.208l-0.686,0.464l-1.137,-1.306l-1.119,0.662l-1.09,-3.249l-1.604,-1.872l0.367,-0.721l-1.881,-1.292l-1.98,-1.407l-3.038,-1.542l-0.908,-1.995l0.271,-1.52l-0.761,-2.495l-0.706,-0.355l-0.426,-1.452l-0.598,-2.484l0.288,-1.28l-1.346,-1.125l-0.929,-1.218l-1.799,1.084l-1.01,-2.254l0.099,-1.041l-0.21,-1.62l-1.02,-1.452l-0.119,-1.197l-0.699,-0.344l-0.194,-1.783l-0.791,-1.388l-1.042,1.063l-0.07,0.81l-0.532,1.563l-0.678,1.511l0.437,0.953l-0.538,0.581l-0.367,2.157l0.324,1.643l-0.202,0.837l0.39,1.394l-0.853,2.3l-0.349,1.59l-0.568,1.289l-0.549,1.566l-1.852,0.999l-2.677,-0.992l-0.426,-0.901l-1.468,-0.746l-0.79,0.003l-2.027,-1.722l-1.443,-0.999l-2.16,-0.928l-2.229,-1.596l-0.201,-0.814l0.996,-1.414l0.824,-1.435l-0.325,-1.146l0.964,-0.096l1.064,-1.155l0.747,-1.528l-1.287,-1.41l-0.656,0.547l-1.054,-0.248l-1.638,0.815l-1.738,-0.875l-0.801,0.288l-2.361,-0.729l-1.489,-1.167l-1.857,-0.704l-1.493,0.413l2.054,0.936l0.051,1.455l-2.355,0.537l-1.435,-0.339l-1.698,1.006l-1.218,1.632l0.437,0.715l-1.264,0.749l-1.343,2.303l0.594,1.582l-1.783,-0.271l-1.755,-0.02l-1.556,-1.705l-2.071,-1.318l-1.355,0.387l-1.233,0.412l-0.049,0.722l-1.232,-0.335l-0.044,0.804l-1.41,0.491l-0.676,1.138l-1.532,1.421l-0.34,2.205l-1.237,-0.629l-0.88,1.409l0.998,1.375l-1.193,0.582l-1.181,-2.514l-1.962,2.474l-0.073,1.589l-0.126,1.169l-1.645,1.491l-0.716,1.575l-1.524,1.313l-2.947,0.867l-1.55,-0.07l-0.742,0.271l-0.425,0.65l-1.701,0.33l-2.209,1.109l-0.772,-0.367l-1.274,0.232l-2.143,1.095l-1.366,1.276l-2.278,1.002l-1.185,2.071l-0.211,-2.292l-1.159,2.165l0.3,1.768l-0.383,1.519l-0.574,0.75l-0.305,1.767l0.65,0.917l0.269,0.968l1.388,2.43l0.047,1.59l-0.83,-1.203l-1.391,-0.898l0.946,2.881l-1.231,-1.346l0.388,1.327l1.603,2.477l0.35,2.468l1.242,1.262l0.071,0.934l1.116,2.079l-0.121,1.83l0.46,1.845l1.482,3.294l0.313,1.948l-0.343,2.302l0.1,1.196l-0.476,0.761l-1.393,0.456l-0.061,1.927l1.507,0.642l2.975,2.168l1.879,0.001l2.046,0.134l1.348,-1.082l1.406,-0.959l0.817,0.153l1.668,-1.801l1.925,-0.154l2.017,-0.367l2.478,0.613l1.761,-0.299l2.38,-0.082l1.035,-1.363l0.54,-1.75l2.432,-0.766l2.972,-1.696l2.676,0.219l3.19,-1.1l3.631,-1.175l5.021,-0.31l2.696,1.597l1.971,0.094l3.598,2.001l-0.527,0.766l1.479,1.247l1.754,2.43l-0.087,1.791l2.189,1.396l1.074,-2.693l1.752,-1.15l2.28,-2.849l0.225,2.472l-1.083,1.646l-0.425,1.953l-1.467,1.885l2.495,-0.627l1.369,-2.351l0.679,2.522l-0.922,1.661l2.697,0.414l1.378,1.398l0.651,1.752l0.521,2.655l1.813,2.175l2.714,1.027l1.604,0.254l1.59,0.564l2.424,0.97l2.455,-2.582l1.533,-0.67l-0.436,1.851l1.718,0.629l2.322,1.584l1.694,-1.539l1.288,-1.38l2.588,-1.454l3.139,-0.128l1.607,-1.224l-0.144,-1.109l0.362,-2.401l0.709,-2.583l1.082,-1.707l0.831,-2.932l0.936,-1.666l1.023,-2.59l2.077,-1.631l1.238,-2.996l0.555,-2.34l-0.057,-1.859l0.757,-2.871l0.485,-1.48l0.16,-2.811l-1.336,-2.676L904.696,540.448z"/>
		<path id="melanesia" title="Melanesia" class="land" d="M944.104,508.231l1.761,1.667l-0.925,0.382l-0.939,-1.272L944.104,508.231zM942.916,507.586l0.584,-0.157l0.754,0.363l-0.455,-2.329l-1.343,-0.886l0.059,2.21L942.916,507.586zM923.519,486.689l-0.658,-0.893l-2.3,-1.293l-1.289,-0.674l-0.418,0.286l1.052,0.936l1.535,1.01l2.197,1.194L923.519,486.689zM928.157,490.771l0.423,-0.521l-1.122,-1.355l-1.009,-2.254h-0.953l0.583,1.683L928.157,490.771zM914.176,481.806l-0.145,0.467l1.152,1.153l1.226,0.64l0.559,-0.16l-1.117,-0.916L914.176,481.806zM924.887,489.686l-1.851,-0.444l-0.176,1.121l0.587,0.436l1.719,0.286l1.093,-0.063l-0.459,-0.743L924.887,489.686zM929.245,492.645l-1.675,-0.685l1.065,1.743l1.959,0.018l-0.784,-0.974L929.245,492.645zM900.143,475.003l0.309,1.646l-1.565,0.997l-0.791,0.957l-1.6,0.214l-0.272,-1.485l-0.402,0.069l-0.423,1.341l-1.534,0.219l-2.514,-0.409l-0.232,0.866l1.602,0.781l2.299,0.813l1.489,0.003l1.439,-0.655l1.533,-0.681l0.442,-0.785l1.469,-0.23l0.941,-1.707l0.057,-1.55l-0.566,-0.458L900.143,475.003zM895.939,490.488l-2.165,-0.48l0.113,-1.25l-1.606,0.094l-1.82,-2.987l-2.504,-1.844l-0.619,-1.87l2.58,-0.302l-0.682,-1.486l-4.672,-1.73l-0.426,-1.647l-1.562,-1.405l-1.932,-1.43l-5.184,-1.597l-4.865,-1.921l0.047,9.103l0.048,9.157l2.9,0.118l1.57,0.472l2.202,-0.97l-0.357,-2.078l1.712,-0.929l2.375,-0.802l3.657,1.229l1.457,2.465l1.591,1.552l2.181,1.804l2.832,0.426l2.409,0.318l0.689,0.734l1.857,-0.198l0.311,-0.819l-2.979,-1.19L895.939,490.488zM910.026,478.914l-0.85,-0.635l-0.301,-0.832l-0.389,0.271l0.604,2.131l1.228,1.779l1.214,1.077l0.785,-0.281l0.393,-0.785l-1.324,-0.951L910.026,478.914zM903.233,473.585l-1.122,-1.172l-1.178,-0.669l-0.953,-0.613l-1.514,-0.781l-0.779,0.673l2.024,0.82l1.596,1.19l1.27,0.915l0.652,1.079l0.528,1.649l0.877,-0.745l-0.336,-1.452L903.233,473.585zM940.075,523.484l-0.896,-0.835l-1.233,-1.013l-1.571,-1.011l-1.206,-0.042l0.388,1.008l1.855,2.102l1.808,1.586l2.006,1.353l1.543,0.814l1.065,-0.723l-1.458,-1.382L940.075,523.484zM979.946,508.74l-1.645,0.905l-0.889,0.16l-1.401,0.596l0.36,1.085l1.792,-0.613l1.782,-0.716l0.231,-0.155l0.348,-1.396L979.946,508.74zM974.69,512.924l-1.274,-0.361l-1.082,1.004l0.271,1.288l1.546,0.363l1.738,-0.403l0.463,-1.529l-0.965,-0.843L974.69,512.924z"/>
	</g>
</svg>